<svg id="Logo" xmlns="http://www.w3.org/2000/svg" version="1.1" x="0" y="0" width="260.4" height="275.7" viewBox="0 0 260.4 275.7" xml:space="preserve">
    <style type="text/css">
        .st0 {
            fill-rule: evenodd;
            clip-rule: evenodd;
            fill: #3C3C3B;
			
        }
        .st1 {
           fill: #3C3C3B;
			
			
        }
		#Logo {
  width: 150%;
  height: 100%;
  position: absolute;
  top: 0; right: -25%; bottom: 0; left: -25%;
  margin: auto;
  display:block; 
  fill: #3C3C3B;
  fill: url("#MyGradient");
  stroke: #3C3C3B;
  stroke-miterlimit: 5;
}

.Animate-Draw {
  fill-opacity: 0;
  animation-timing-function: ease-in-out;
  animation-fill-mode: forwards;
  animation-iteration: 1;
  
  animation-name: DrawLine, FadeStroke, FillIn;
  animation-duration: 4s, 1s, 1s;
  animation-delay: 0, 3.5s, 3.5s;
}
.Animate-Draw2 {
  fill-opacity: 0;
  animation-timing-function: ease-in-out;
  animation-fill-mode: forwards;
  animation-iteration: 1;
  
  animation-name: DrawLine, FadeStroke, FillIn;
  animation-duration: 4s, 1s, 1s;
  animation-delay: 4, 3.5s, 3.5s;
}
.Animate-Draw3 {
  fill-opacity: 0;
  animation-timing-function: ease-in-out;
  animation-fill-mode: forwards;
  animation-iteration: 1;
  
  animation-name: DrawLine, FadeStroke, FillIn,Rotacion;
  animation-duration: 4s, 1s, 1s;
  animation-delay: 4, 3.5s, 3.5s,8s;
}
#Draw-Mark {
animation-delay: 3.5s, 3.5s, 3.5s;
  stroke-dashArray: 1100;
  stroke-dashoffset: 1100; 
}

#Draw-Frame { 
  animation-delay: .5s, 3.5s, 3.5s;
  animation-duration: 3.5s, 1s, 1s; 
  stroke-dashArray: 1500;
  stroke-dashoffset: 1500;
}
#Draw-Frame2 { 
  animation-delay: 3.5s, 4.5s, 4.5s;
  animation-duration: 3.5s, 1s, 1s; 
  stroke-dashArray: 1500;
  stroke-dashoffset: 1500;
}
#Draw-Frame3 { 
  animation-delay: 3.5s, 4.5s, 4.5s;
  animation-duration: 3.5s, 1s, 1s; 
  stroke-dashArray: 1500;
  stroke-dashoffset: 1500;
}
#Draw-Text { 
  animation-delay: 2s, 3.5s, 3.5s; 
  animation-duration: 2s, 1s, 1s; 
  stroke-dashArray: 300;
  stroke-dashoffset: 300;
  //animation-duration: 4s;
}
.Movimiento{
    -webkit-animation:spin 1s linear forwards;
    -moz-animation:spin 1s linear forwards;
    animation:spin 1s linear forwards;
}
@-moz-keyframes spin { 50% { -moz-transform-origin: 7 7;-moz-transform: rotate(25 7 7); } }
@-webkit-keyframes spin { 50% { -webkit-transform-origin: 7 7;-webkit-transform: rotate(25 7 7); } }
@keyframes spin { 50% { -webkit-transform-origin: 7 7;-webkit-transform: rotate(25 7 7); transform:rotate(25 7 7); } }

@keyframes DrawLine {
  to { stroke-dashOffset: 0; }
}
@keyframes FadeStroke {
  to { stroke-opacity: 0; }
}

@keyframes FillIn {
  from { fill-opacity: 0; }
  to { fill-opacity: 1; }
}
    </style>
		
		<path id="Draw-Frame" class="st1 Animate-Draw" d="M146 148.6c9.1-4.4 12.7-11.6 10.5-21.4 -2.3-10.5-8.5-15.8-18.5-15.8 -2.9 0-6.1 0.4-9.6 1.3 -6 1.5-11.2 4.3-15.2 8.3l-31.5-2.3 79.3-62.7L92.4 71l3.7 16.9 -54.3 12L28.3 38.3 199.1 0.6l9.9 44.9L147.4 95l7-1.5c11.1-2.4 21.1-3.7 29.7-3.7 25.7 0 41.1 10.9 45.9 32.4 2.2 9.8 2.7 18.7 1.6 26.4H146z"/>
		<path id="Draw-Frame" class="st1 Animate-Draw" d="M198.8 1.2l9.7 44.1 -59.7 48 -3.3 2.7 4.2-0.9 4.9-1.1c11-2.4 21-3.7 29.6-3.7 12.8 0 23.1 2.7 30.6 8 7.5 5.3 12.5 13.4 14.8 24 2.1 9.6 2.7 18.3 1.7 25.8H148c8-4.5 11-11.6 8.9-21 -2.4-10.7-8.8-16.2-19-16.2 -2.9 0-6.2 0.4-9.7 1.3 -6 1.5-11.2 4.3-15.3 8.2l-30-2.2 76.6-60.6 3.4-2.7 -4.2 0.9L92.8 70.4l-1 0.2 0.2 1 3.5 15.9L42.2 99.2 28.9 38.7 198.8 1.2M199.5 0L27.7 37.9l13.8 62.5 55.3-12.2L93 71.4l65.8-14.5L80.3 119l33 2.4c4-4 9.1-6.8 15.2-8.3 3.5-0.9 6.6-1.3 9.5-1.3 9.8 0 15.8 5.1 18 15.4 2.3 10.4-1.8 17.7-12.4 21.8h88.5c1.2-7.9 0.7-16.9-1.6-27 -4.8-21.9-20.3-32.8-46.4-32.8 -8.8 0-18.7 1.2-29.8 3.7l-4.9 1.1 60.2-48.4L199.5 0 199.5 0z"/>
		<path id="Draw-Frame" class="st1 Animate-Draw" d="M46.6 148.6c0-0.9 0.1-1.8 0.2-2.7l59.4-13.1 0.5 2.1c1.3 6.1 3.9 10.7 7.6 13.7H46.6z"/>
		<path id="Draw-Frame" class="st1 Animate-Draw" d="M105.7 133.4l0.4 1.6c1.2 5.7 3.5 10 6.7 13.1H47.1c0-0.6 0.1-1.2 0.1-1.8L105.7 133.4M106.5 132.2l-60.2 13.3c-0.1 1.2-0.2 2.4-0.2 3.6h69.6c-4.3-2.9-7.1-7.6-8.6-14.3L106.5 132.2 106.5 132.2z"/>
		<g id="Draw-Mark" class="Animate-Draw3">
		<polygon class="st1" points="169 269.6 163.3 261.2 162.6 261.2 162.6 275.5 163.3 275.5 163.3 262.6 168.7 270.5 169.2 270.5 174.6 262.6 174.6 275.5 175.3 275.5 175.3 261.2 174.7 261.2 "/>
		<polygon class="st1" points="175.3 261.2 174.7 261.2 169 269.6 163.3 261.2 162.6 261.2 162.6 275.5 163.3 275.5 163.3 262.6 168.7 270.5 169.2 270.5 174.6 262.6 174.6 275.5 175.3 275.5 175.3 261.2 "/>
		<path class="st1" d="M181.6 261l-5.8 14.5h0.8l1.9-4.6h6.8l1.9 4.6h0.8l-5.8-14.5H181.6zM178.8 270.1l3.1-7.9 3.1 7.9H178.8z"/>
		<path class="st1" d="M182.2 261h-0.6l-5.8 14.5h0.8l1.9-4.6h6.8l1.9 4.6h0.8L182.2 261 182.2 261zM178.8 270.1l3.1-7.9 3.1 7.9H178.8L178.8 270.1z"/>
		<path class="st1" d="M193.6 269.7c1.4 0 2.5-0.5 3.3-1.3 0.7-0.8 1.1-1.8 1.1-2.9 0-2-1.4-4.3-4.4-4.3h-5v14.3h0.7v-13.5h4.3c2.5 0 3.7 1.8 3.7 3.5 0 0.9-0.3 1.8-0.9 2.4 -0.7 0.7-1.6 1.1-2.8 1.1h-2.9v0.6l6.6 5.9h1.1l-6.4-5.8H193.6z"/>
		<path class="st1" d="M193.6 261.2h-5v14.3h0.7v-13.5h4.3c2.5 0 3.7 1.8 3.7 3.5 0 0.9-0.3 1.8-0.9 2.4 -0.7 0.7-1.6 1.1-2.8 1.1h-2.9v0.6l6.6 5.9h1.1l-6.4-5.8h1.7c1.4 0 2.5-0.5 3.3-1.3 0.7-0.8 1.1-1.8 1.1-2.9C198 263.4 196.6 261.2 193.6 261.2L193.6 261.2z"/>
		<rect x="199.1" y="261.2" class="st1" width="0.7" height="14.2"/>
		<polygon class="st1" points="199.8 261.2 199.1 261.2 199.1 275.5 199.8 275.5 199.8 261.2 "/>
		<polygon class="st1" points="209.3 268.7 216.6 268.7 216.6 268 209.3 268 209.3 261.9 216.7 261.9 216.7 261.2 208.6 261.2 208.6 275.3 208.6 275.3 200.6 268.3 207.9 261.2 206.9 261.2 199.8 268.1 199.8 268.6 207.6 275.4 207.7 275.5 208.6 275.5 208.8 275.5 216.8 275.5 216.8 274.8 209.3 274.8 "/>
		<polygon class="st1" points="216.7 261.2 208.6 261.2 208.6 275.3 208.6 275.3 200.6 268.3 207.9 261.2 206.9 261.2 199.8 268.1 199.8 268.6 207.6 275.4 207.7 275.5 208.6 275.5 208.8 275.5 216.8 275.5 216.8 274.8 209.3 274.8 209.3 268.7 216.6 268.7 216.6 268 209.3 268 209.3 261.9 216.7 261.9 216.7 261.2 "/>
		<polygon class="st1" points="217 261.9 221.9 261.9 221.9 275.5 222.6 275.5 222.6 261.9 227.4 261.9 227.4 261.2 217 261.2 "/>
		<polygon class="st1" points="227.4 261.2 217 261.2 217 261.9 221.9 261.9 221.9 275.5 222.6 275.5 222.6 261.9 227.4 261.9 227.4 261.2 "/>
		<polygon class="st1" points="227.6 261.9 230.5 261.9 230.5 274.8 227.6 274.8 227.6 275.5 234.2 275.5 234.2 274.8 231.3 274.8 231.3 261.9 234.2 261.9 234.2 261.2 227.6 261.2 "/>
		<polygon class="st1" points="234.2 261.2 227.6 261.2 227.6 261.9 230.5 261.9 230.5 274.8 227.6 274.8 227.6 275.5 234.2 275.5 234.2 274.8 231.3 274.8 231.3 261.9 234.2 261.9 234.2 261.2 "/>
		<polygon class="st1" points="244.6 274.1 235.7 261.3 235.6 261.2 235 261.2 235 275.5 235.8 275.5 235.8 262.7 244.7 275.5 245.3 275.5 245.3 261.2 244.6 261.2 "/>
		<polygon class="st1" points="235 261.2 235 275.5 235.8 275.5 235.8 262.7 244.7 275.5 245.3 275.5 245.3 261.2 244.6 261.2 244.6 274.1 235.7 261.3 235.6 261.2 235 261.2 "/>
		<path class="st1" d="M253.4 269.5v0.7h6.1c-0.6 2.6-3.3 4.7-6 4.7 -1.7 0-3.3-0.7-4.5-1.9 -1.2-1.2-1.8-2.9-1.8-4.6 0-1.7 0.7-3.4 1.8-4.6 1.2-1.2 2.8-1.9 4.5-1.9 2.6 0 4.8 1.5 5.7 3.8l0.1 0.1h0.8l-0.1-0.3c-0.9-2.6-3.5-4.4-6.5-4.4 -1.9 0-3.7 0.8-5 2.1 -1.3 1.4-2.1 3.2-2.1 5.1 0 1.9 0.7 3.7 2.1 5.1 1.3 1.4 3.1 2.2 5 2.2 2.7 0 5.6-2 6.5-4.5 0.2-0.5 0.3-1 0.4-1.4l0-0.2H253.4z"/>
		<path class="st1" d="M253.5 261.1c-1.9 0-3.7 0.8-5 2.1 -1.3 1.4-2.1 3.2-2.1 5.1 0 1.9 0.7 3.7 2.1 5.1 1.3 1.4 3.1 2.2 5 2.2 2.7 0 5.6-2 6.5-4.5 0.2-0.5 0.3-1 0.4-1.4l0-0.2h-7v0.7h6.1c-0.6 2.6-3.3 4.7-6 4.7 -1.7 0-3.3-0.7-4.5-1.9 -1.2-1.2-1.8-2.9-1.8-4.6 0-1.7 0.7-3.4 1.8-4.6 1.2-1.2 2.8-1.9 4.5-1.9 2.6 0 4.8 1.5 5.7 3.8l0.1 0.1h0.8l-0.1-0.3C259 262.9 256.4 261.1 253.5 261.1L253.5 261.1z"/>
		</g>
		<!-- Rectangulos externos -->
		<g id="Draw-Frame2" class="Animate-Draw2">
		<rect x="0.5" y="153.5" class="st0" width="259.4" height="5.6"/>
		<path class="st1" d="M259.4 154v4.6H1V154H259.4M260.4 153H0v6.6h260.4V153L260.4 153z"/>
		<rect x="0.5" y="250" class="st0" width="259.4" height="5.6"/>
		<path class="st1" d="M259.4 250.5v4.6H1v-4.6H259.4M260.4 249.5H0v6.6h260.4V249.5L260.4 249.5z"/>
		</g>
		<!--  K -->
		<g id="Draw-Mark" class="Animate-Draw2">
		<path class="st1" d="M49.5 238.5c-1.2-4.1-2.5-8.1-3.7-12 -1-3-4.5-14.5-4.7-14.9 -0.1-0.2-0.2-0.9-0.4-1.5 -0.1-0.6-0.3-1.2-0.3-1.4l-0.1-0.4 -0.4 0c-0.4 0-0.5 0-2.2 3.4l-0.2 0.4c-0.4 0.7-0.8 1.4-1.2 2.2 -0.4 0.8-0.8 1.5-1.2 2.3 -0.4 0.8-0.7 1.6-0.8 2.4 -0.3 1.7-0.3 3.5-0.1 5.3 0.2 1.7 0.3 3.6 0.1 5.5l0 0.1 0.1 0.1c0.3 0.7 0.9 1.3 1.6 1.8 0.6 0.4 1 1 1.3 1.7 0.2 0.7 0.2 1.5 0 2.3 -0.2 0.8-0.2 1.7-0.1 2.7H24.4V233c0.2-0.2 0.5-0.6 1.3-1.1 0.8-0.6 1.4-1.4 1.6-2.3 0.3-1.4 0.4-3.2 0.2-5.4 -0.1-2.1-0.2-4.3-0.2-6.5 0-2.2 0.1-4.4 0.2-6.5 0.1-2.2 0.1-3.9-0.2-5.1 -0.3-1-0.8-1.8-1.6-2.3 -0.6-0.4-1-0.8-1.3-1.2l-0.2-0.2 3.1-3.5v-20l-0.1-0.1c-0.8-1-1.7-2-2.7-2.8v-5.4h12.9c-0.1 1-0.1 1.9 0.1 2.7 0.2 0.8 0.2 1.6 0 2.3 -0.2 0.7-0.7 1.3-1.2 1.6 -0.8 0.4-1.3 1-1.6 1.7l0 0.1v18c0 0.3 0 0.4 0 0.5l0 0.1v2.6c0 0.3 0 0.6 0 1l0 0.9 0.6-0.1 0.1 0 0.2-0.1 12.4-31.2h7.5v5.3c-1.1 0.6-2.1 1.4-2.9 2.4l0 0.1L45.8 193c-0.6 1.4-1.2 2.9-1.7 4.5l0 0.1 0 0.1c0.1 0.6 0.9 3.2 2.2 7.1 0.7 2.2 1.4 4.2 1.7 5.1 0.7 2.2 1.4 4.5 2.2 6.8 0.8 2.3 1.6 4.6 2.2 6.8 0.7 2.2 1.4 4.5 2.2 6.7l0.1 0.2 0.1 0.1c0.6 0.5 1.2 0.9 1.8 1.4 0.5 0.4 1.1 0.9 1.7 1.3v5.3H49.5z"/>
		<path class="st1" d="M54.8 171.2v4.5c-1.1 0.6-2 1.4-2.8 2.3l-0.1 0.1 -0.1 0.1 -6.5 14.6c-0.6 1.4-1.2 2.9-1.7 4.5l-0.1 0.2 0 0.2c0.1 0.6 0.8 2.8 2.3 7.2 0.7 2.1 1.4 4.2 1.7 5.1 0.7 2.3 1.4 4.5 2.2 6.8 0.8 2.3 1.5 4.6 2.2 6.8 0.7 2.2 1.4 4.5 2.2 6.7l0.1 0.3 0.3 0.2c0.6 0.4 1.2 0.9 1.7 1.4 0.5 0.4 1 0.8 1.5 1.2v4.6h-7.8c-1.2-3.9-2.4-7.8-3.6-11.6 -1-3.2-4.5-14.5-4.7-15 -0.1-0.2-0.2-0.9-0.3-1.4 -0.2-0.7-0.3-1.2-0.3-1.5l-0.2-0.7H40c-0.7 0-0.9 0.2-2.6 3.6l-0.2 0.4c-0.4 0.7-0.8 1.4-1.2 2.2 -0.4 0.7-0.8 1.5-1.2 2.3 -0.4 0.9-0.7 1.7-0.8 2.5 -0.3 1.8-0.3 3.6-0.1 5.4 0.2 1.7 0.2 3.5 0.1 5.4l0 0.3 0.1 0.2c0.4 0.8 1 1.5 1.8 2.1 0.5 0.3 0.8 0.8 1.1 1.4 0.2 0.6 0.2 1.3 0 2 -0.2 0.7-0.2 1.5-0.2 2.3H24.9v-4.8c0.2-0.2 0.5-0.5 1.1-0.9 0.9-0.7 1.5-1.5 1.8-2.6l0 0 0 0c0.3-1.4 0.4-3.3 0.2-5.5 -0.1-2.1-0.2-4.3-0.2-6.5 0-2.2 0.1-4.4 0.2-6.5 0.2-2.2 0.1-3.9-0.2-5.2 -0.3-1.1-0.9-2-1.8-2.6 -0.5-0.4-0.9-0.7-1.1-0.9l2.6-3 0.2-0.3v-0.4 -19.6 -0.4l-0.2-0.3c-0.8-1-1.7-1.9-2.6-2.7v-4.6h11.8c0 0.8 0 1.6 0.2 2.3 0.2 0.7 0.2 1.4 0 2 -0.2 0.6-0.5 1.1-1 1.3 -0.8 0.5-1.5 1.1-1.8 1.9L34 179v0.2 17.9 0.1l0 0.1c0 0.2 0 0.2 0 0.2l0 0.1v0.1 2.6 0.1l0 0.1c0 0.1 0 0.4 0 0.8l0 0.1v0.1 0.2l0 1.1 1.1-0.1 0.1 0 0.1 0 0.5-0.1 0.2-0.5 12.2-30.7H54.8M55.8 170.2h-8.3L35 201.5c0 0 0 0 0 0v-0.2c0-0.4 0-0.8 0-1.1v-2.6c0-0.2 0-0.4 0-0.6v-17.9c0.3-0.6 0.8-1.1 1.4-1.5 0.7-0.4 1.2-1 1.5-1.9 0.2-0.8 0.2-1.6 0-2.5 -0.2-0.9-0.2-1.9 0-3.1H23.9v6.1c1.1 0.8 2 1.8 2.9 2.8v19.6l-3.3 3.7L24 203c0.3 0.4 0.8 0.8 1.4 1.3 0.7 0.5 1.2 1.2 1.4 2.1 0.3 1.1 0.4 2.8 0.2 4.9 -0.1 2.1-0.2 4.3-0.2 6.5 0 2.2 0.1 4.4 0.2 6.5 0.1 2.2 0.1 3.9-0.2 5.2 -0.2 0.8-0.7 1.5-1.5 2 -0.7 0.5-1.2 1-1.5 1.3v6.1h13.9c-0.2-1.1-0.2-2.2 0-3.1 0.2-0.9 0.2-1.7 0-2.5 -0.3-0.9-0.8-1.5-1.5-2 -0.7-0.5-1.2-1-1.5-1.6 0.2-2 0.1-3.9-0.1-5.6 -0.2-1.7-0.2-3.5 0.1-5.1 0.1-0.7 0.4-1.5 0.7-2.3 0.4-0.8 0.8-1.5 1.2-2.3 0.4-0.7 0.8-1.5 1.2-2.2 0.4-0.7 1.8-3.5 2-3.5 0 0 0 0 0 0 0.1 0.5 0.5 2.5 0.7 2.9 0.1 0.4 3.4 10.9 4.7 14.9 1.3 4 2.5 8.2 3.8 12.3h9.5v-6.1c-0.7-0.5-1.3-0.9-1.9-1.4 -0.6-0.5-1.2-1-1.8-1.4 -0.7-2.2-1.5-4.5-2.1-6.7 -0.7-2.2-1.4-4.5-2.2-6.8 -0.8-2.2-1.5-4.5-2.2-6.8 -0.7-2.3-3.8-11.1-3.9-12.1 0.6-1.6 1.2-3.1 1.7-4.4l6.5-14.5c0.8-1 1.8-1.8 3-2.4V170.2L55.8 170.2z"/>
		
		<path class="st1" d="M87.2 238.5v-5.2c0.2-0.6 0.7-1 1.2-1.4 0.8-0.5 1.3-1.3 1.5-2.2 0.2-0.9 0.1-1.9-0.3-2.9 -0.3-0.8-0.5-1.7-0.4-2.6l0-0.6 -0.6 0.1c-1.4 0.1-4.5 0.1-5.4 0.1 -0.9 0-1.5 0-1.7 0 -0.7 0-1.4-0.1-2.1-0.1 -0.4 0-0.7 0-1.1 0 -0.3 0-0.7 0-1 0l-0.2 0 -0.1 0.2c-0.5 0.8-0.8 1.7-0.8 2.9 0 1-0.2 1.9-0.5 2.6l-0.1 0.1 0 0.1c0.1 0.5 0.3 1 0.7 1.3 0.3 0.2 0.6 0.5 0.9 0.7 0.3 0.3 0.6 0.5 0.9 0.8 0.2 0.2 0.4 0.5 0.5 0.9 0.2 0.7 0.2 1.6 0 2.4 -0.2 0.9-0.2 1.8-0.1 2.8h-13v-5.3c0.6-0.5 1.2-1 1.5-1.5 0.4-0.5 0.8-1 1.4-1.4l0.2-0.1 0-0.2c0.3-2.8 0.7-5.5 1.4-7.9 0.6-2.5 1.1-5 1.4-7.6 0.1-0.6 0.3-1.7 0.5-2.5 0.2-0.9 0.2-1.1 0.2-1.2 0.1-0.8 0.2-1.7 0.6-2.6 0.4-1 0.5-1.9 0.4-2.7 -0.1-0.9-0.4-1.6-0.9-2.3 -0.4-0.4-0.7-0.9-0.9-1.5 0.3-0.4 0.7-0.7 1.1-0.9 0.6-0.4 1.2-0.7 1.8-1.1l0.2-0.1 0-0.2c0.7-3.7 1.3-7.2 1.9-10.5 0.6-3.2 1.2-6.6 1.9-10.1l0-0.1 0-0.1c-0.1-0.8-0.5-1.3-1.1-1.7 -0.3-0.2-0.6-0.5-0.8-0.8v-5.2h12.9c0 1.6 0 3-0.1 4.4 -0.1 1.4-0.6 2.3-1.6 2.7l-0.3 0.2 0.1 0.4c0.6 3.5 1.3 6.9 1.9 10.2 0.7 3.4 1.3 6.7 2 10.1l0 0.1 0.1 0.1c0.5 0.5 1 1 1.5 1.5 0.4 0.5 1 0.8 1.6 1.1 -0.2 0.5-0.7 1.3-1 1.9 -0.8 1.5-1 1.9-1 2.2 0 0.5 0.1 1 0.2 1.5 0 0.1 0.1 0.7 0.3 1.4 0.8 4.4 1.1 5.7 1.3 6.1 0.2 1.6 0.4 3.1 0.7 4.5 0.3 1.5 1.9 9.7 1.9 10.6v0.2l0.2 0.1c0.5 0.4 0.9 0.9 1.4 1.5 0.4 0.5 0.9 1 1.4 1.5v5.4H87.2zM80 203.1c0 0.2-0.2 1.2-0.4 2.8 -0.3 1.9-0.7 4.2-0.8 5 -0.3 1.3-0.5 2.7-0.6 4.1l0 0.5 0.5 0c0.5 0 1.1 0 1.7 0 0.7 0 1.4 0 2.2 0 0.8 0 1.6 0 2.3 0 0.7 0 1.4 0 2.1 0l0.4 0 0.1-0.4c0-0.2 0.1-0.6-1.6-11l-0.1-0.6c-0.1-0.3-0.2-0.9-0.3-1.6 -0.4-2.1-1-5.7-1.2-7.1 -0.2-1.9-0.5-3.5-1.1-4.9l-0.5-1.3 -0.4 1.3c-0.3 0.9-0.5 1.8-0.6 2.9 -0.1 1-0.2 2-0.4 3 -0.1 1-0.3 1.9-0.5 2.8 -0.2 0.8-0.4 2.5-0.5 2.9L80 203.1z"/>
		<path class="st1" d="M88.9 171.2c0 1.4 0 2.7-0.1 3.9 -0.1 1.6-0.8 2.1-1.3 2.3l-0.7 0.3 0.1 0.7c0.6 3.5 1.3 6.9 1.9 10.2 0.7 3.4 1.3 6.7 2 10.1l0.1 0.3 0.2 0.2c0.5 0.5 1 1 1.5 1.5 0.4 0.4 0.8 0.7 1.3 1 -0.2 0.4-0.5 1-0.8 1.4 -0.9 1.6-1.1 2-1.1 2.4 0 0.5 0.1 1 0.2 1.6 0 0.1 0.1 0.8 0.3 1.4 0.7 4.1 1 5.6 1.3 6.2 0.2 1.6 0.4 3.1 0.7 4.5 0.4 1.7 1.9 9.6 1.9 10.5v0.4l0.3 0.3c0.5 0.4 0.9 0.9 1.3 1.4 0.4 0.5 0.8 1 1.3 1.4v4.6H87.7v-4.6c0.2-0.4 0.5-0.8 1-1.1 0.9-0.6 1.4-1.5 1.7-2.5 0.2-1 0.1-2-0.3-3.1 -0.3-0.8-0.4-1.6-0.4-2.4l0.1-1.2 -1.2 0.1c-1.1 0.1-3.5 0.1-5.4 0.1 -0.9 0-1.5 0-1.7 0 -0.7 0-1.4-0.1-2.1-0.1 -0.4 0-0.8 0-1.1 0 -0.4 0-0.7 0-1 0l-0.5 0 -0.3 0.4c-0.6 0.8-0.9 1.9-0.9 3.2 0 0.9-0.2 1.7-0.5 2.4l-0.1 0.3 0 0.3c0.1 0.7 0.4 1.2 0.9 1.6 0.3 0.2 0.6 0.5 0.9 0.7 0.3 0.2 0.6 0.5 0.9 0.8 0.2 0.2 0.3 0.4 0.4 0.7 0.2 0.6 0.2 1.4 0 2.2 -0.2 0.7-0.2 1.5-0.2 2.4H66.1v-4.6c0.6-0.5 1.1-0.9 1.5-1.5 0.3-0.5 0.8-0.9 1.3-1.3l0.4-0.3 0-0.4c0.3-2.8 0.7-5.4 1.4-7.8 0.6-2.5 1.1-5.1 1.4-7.7 0.1-0.6 0.3-1.7 0.5-2.5 0.2-0.9 0.2-1.1 0.2-1.2 0.1-0.8 0.2-1.6 0.5-2.5 0.4-1.1 0.5-2.1 0.4-2.9 -0.1-1-0.4-1.8-1-2.5 -0.3-0.3-0.5-0.7-0.7-1.1 0.2-0.2 0.5-0.4 0.8-0.6 0.6-0.4 1.2-0.8 1.8-1.2l0.3-0.2 0.1-0.4c0.7-3.7 1.3-7.2 1.9-10.5 0.6-3.2 1.2-6.6 1.9-10.1l0-0.2 0-0.2c-0.2-1.2-0.9-1.7-1.4-2 -0.2-0.1-0.4-0.3-0.5-0.5v-4.6H88.9M79.8 201.4l-0.1 0.3c-0.1 0.4-0.2 0.9-0.3 1.3 -0.1 0.2-0.2 1.2-0.5 2.9 -0.3 1.9-0.6 4.2-0.8 4.9 -0.3 1.3-0.5 2.7-0.6 4.2l-0.1 1 1 0.1c0.5 0 1.1 0 1.8 0 0.7 0 1.4 0 2.2 0 0.8 0 1.6 0 2.3 0 0.7 0 1.4 0 2.1 0l0.8 0 0.2-0.8c0.1-0.3 0.1-0.7-1.6-11.2l-0.1-0.6c-0.1-0.3-0.2-0.9-0.3-1.6 -0.4-2.1-1-5.7-1.2-7.1 -0.2-1.9-0.5-3.6-1.1-5.1l-1-2.6 -0.9 2.7c-0.3 0.9-0.5 1.9-0.6 3 -0.1 1-0.2 2-0.4 2.9 -0.1 0.9-0.3 1.9-0.5 2.8C80.1 199.2 79.9 200.8 79.8 201.4M89.9 170.2H76v5.8c0.2 0.5 0.6 0.9 1 1.2 0.5 0.3 0.7 0.7 0.9 1.3 -0.7 3.4-1.3 6.8-1.9 10.1 -0.6 3.3-1.2 6.8-1.9 10.5 -0.6 0.4-1.1 0.8-1.7 1.1 -0.6 0.3-1.1 0.8-1.5 1.3 0.3 0.7 0.7 1.4 1.1 1.9 0.5 0.5 0.7 1.2 0.8 2 0.1 0.6 0 1.4-0.3 2.4 -0.3 1-0.5 1.9-0.6 2.8 0 0.2-0.6 2.6-0.7 3.6 -0.3 2.6-0.7 5.1-1.4 7.5 -0.6 2.4-1.1 5.1-1.4 8 -0.6 0.5-1.1 1-1.5 1.5 -0.4 0.6-0.9 1.1-1.6 1.5v6.1h14c-0.2-1.1-0.2-2.2 0-3.2 0.2-1 0.2-1.9 0-2.7 -0.1-0.5-0.3-0.8-0.6-1.1 -0.3-0.3-0.6-0.6-0.9-0.8 -0.3-0.3-0.6-0.5-0.9-0.7 -0.3-0.2-0.5-0.5-0.5-0.9 0.3-0.8 0.5-1.7 0.6-2.8 0-1.1 0.3-1.9 0.7-2.6 0.3 0 0.6 0 0.9 0 0.3 0 0.7 0 1 0 0.7 0.1 1.4 0.1 2.1 0.1 0.2 0 0.9 0 1.8 0 1.7 0 4.2 0 5.5-0.1 -0.1 1 0.1 1.9 0.4 2.8 0.3 0.9 0.4 1.8 0.3 2.6 -0.2 0.8-0.6 1.4-1.2 1.9 -0.7 0.5-1.1 1-1.4 1.7v5.8h13.7v-6.1c-0.6-0.5-1.1-1-1.5-1.5 -0.4-0.6-0.9-1.1-1.4-1.5 0-1-1.6-9.2-1.9-10.7 -0.3-1.4-0.6-3-0.7-4.6 -0.3-0.2-1.4-7-1.5-7.5 -0.1-0.5-0.2-0.9-0.2-1.3 0-0.4 2.1-3.7 2.2-4.3 -0.7-0.3-1.4-0.7-1.8-1.2 -0.5-0.5-1-1-1.5-1.5 -0.7-3.4-1.4-6.8-2-10.1 -0.7-3.4-1.3-6.8-1.9-10.2 1.1-0.6 1.7-1.6 1.8-3.1C89.9 173.7 90 172 89.9 170.2L89.9 170.2zM80.3 215.1c-0.6 0-1.2 0-1.7 0 0.1-1.4 0.3-2.8 0.6-4 0.3-1.3 1.1-7.2 1.2-7.8 0.1-0.5 0.2-1.1 0.3-1.7 0-0.2 0.3-1.9 0.5-2.8 0.2-0.9 0.4-1.9 0.5-2.9 0.1-1 0.3-2 0.4-3 0.1-1 0.3-1.9 0.6-2.8 0.5 1.4 0.9 3 1 4.8 0.2 1.8 1.2 7.5 1.5 8.8 0.2 1.4 1.8 10.8 1.7 11.4 -0.7 0-1.4 0-2.2 0s-1.5 0-2.3 0C81.7 215.1 81 215.1 80.3 215.1L80.3 215.1z"/>
		<path class="st1" d="M185 238.5v-5.2c0.2-0.6 0.7-1 1.2-1.4 0.8-0.5 1.3-1.3 1.5-2.2 0.2-0.9 0.1-1.9-0.3-2.9 -0.3-0.8-0.5-1.7-0.4-2.6l0-0.6 -0.6 0.1c-1.4 0.1-4.5 0.1-5.4 0.1 -0.9 0-1.5 0-1.8 0 -0.7 0-1.4-0.1-2.1-0.1 -0.4 0-0.7 0-1.1 0 -0.3 0-0.7 0-1 0l-0.2 0 -0.1 0.2c-0.5 0.8-0.8 1.7-0.8 2.9 0 1-0.2 1.9-0.5 2.6l-0.1 0.1 0 0.1c0.1 0.5 0.3 1 0.7 1.3 0.3 0.2 0.6 0.5 0.9 0.7 0.3 0.3 0.6 0.5 0.9 0.8 0.2 0.2 0.4 0.5 0.5 0.9 0.2 0.7 0.2 1.6 0 2.4 -0.2 0.9-0.2 1.8-0.1 2.8h-13v-5.3c0.6-0.5 1.2-1 1.5-1.5 0.4-0.5 0.8-1 1.4-1.4l0.2-0.1 0-0.2c0.3-2.8 0.7-5.5 1.4-7.9 0.6-2.5 1.1-5 1.4-7.6 0.1-0.6 0.3-1.7 0.5-2.5 0.2-0.9 0.2-1.1 0.2-1.2 0.1-0.8 0.2-1.7 0.6-2.6 0.4-1 0.5-1.9 0.4-2.7 -0.1-0.9-0.4-1.6-0.9-2.3 -0.4-0.4-0.7-0.9-0.9-1.5 0.3-0.4 0.7-0.7 1.1-0.9 0.6-0.4 1.2-0.7 1.8-1.1l0.2-0.1 0-0.2c0.7-3.7 1.3-7.2 1.9-10.5 0.6-3.2 1.2-6.6 1.9-10.1l0-0.1 0-0.1c-0.1-0.8-0.5-1.3-1.1-1.7 -0.3-0.2-0.6-0.5-0.8-0.8v-5.2h12.9c0 1.6 0 3-0.1 4.4 -0.1 1.4-0.6 2.3-1.6 2.7l-0.3 0.2 0.1 0.4c0.6 3.5 1.3 6.9 1.9 10.2 0.7 3.4 1.3 6.7 2 10.1l0 0.1 0.1 0.1c0.5 0.5 1 1 1.5 1.5 0.4 0.5 1 0.8 1.6 1.1 -0.2 0.5-0.7 1.3-1 1.9 -0.8 1.5-1 1.9-1 2.2 0 0.5 0.1 1 0.2 1.5 0 0.1 0.1 0.7 0.3 1.4 0.8 4.4 1.1 5.7 1.3 6.1 0.2 1.6 0.4 3.1 0.7 4.5 0.3 1.5 1.9 9.7 1.9 10.6v0.2l0.2 0.1c0.5 0.4 0.9 0.9 1.4 1.5 0.4 0.5 0.9 1 1.4 1.5v5.4H185zM177.7 203.1c0 0.2-0.2 1.2-0.5 2.8 -0.3 1.9-0.7 4.2-0.8 5 -0.3 1.3-0.5 2.7-0.6 4.1l0 0.5 0.5 0c0.5 0 1.1 0 1.7 0 0.7 0 1.4 0 2.2 0 0.8 0 1.6 0 2.3 0 0.7 0 1.4 0 2.1 0l0.4 0 0.1-0.4c0-0.2 0.1-0.6-1.6-11l-0.1-0.6c-0.1-0.3-0.2-0.9-0.3-1.6 -0.4-2.1-1-5.7-1.2-7.1 -0.2-1.9-0.5-3.5-1.1-4.9l-0.5-1.3 -0.4 1.3c-0.3 0.9-0.5 1.8-0.6 2.9 -0.1 1-0.2 2-0.4 3 -0.1 1-0.3 1.9-0.5 2.8 -0.2 0.8-0.4 2.5-0.5 2.9L177.7 203.1z"/>
		<path class="st1" d="M186.7 171.2c0 1.4 0 2.7-0.1 3.9 -0.1 1.6-0.8 2.1-1.3 2.3l-0.7 0.3 0.1 0.7c0.6 3.5 1.3 6.9 1.9 10.2 0.7 3.4 1.3 6.7 2 10.1l0.1 0.3 0.2 0.2c0.5 0.5 1 1 1.5 1.5 0.4 0.4 0.8 0.7 1.3 1 -0.2 0.4-0.5 1-0.8 1.4 -0.9 1.6-1.1 2-1.1 2.4 0 0.5 0.1 1 0.2 1.6 0 0.1 0.1 0.8 0.3 1.4 0.7 4.1 1 5.6 1.3 6.2 0.2 1.6 0.4 3.1 0.7 4.5 0.4 1.7 1.9 9.6 1.9 10.5v0.4l0.3 0.3c0.5 0.4 0.9 0.9 1.3 1.4 0.4 0.5 0.8 1 1.3 1.4v4.6h-11.7v-4.6c0.2-0.4 0.5-0.8 1-1.1 0.9-0.6 1.4-1.5 1.7-2.5 0.2-1 0.1-2-0.3-3.1 -0.3-0.8-0.4-1.6-0.4-2.4l0.1-1.2 -1.2 0.1c-1.1 0.1-3.5 0.1-5.4 0.1 -0.9 0-1.5 0-1.7 0 -0.7 0-1.4-0.1-2.1-0.1 -0.4 0-0.8 0-1.1 0 -0.4 0-0.7 0-1 0l-0.5 0 -0.3 0.4c-0.6 0.8-0.9 1.9-0.9 3.2 0 0.9-0.2 1.7-0.5 2.4l-0.1 0.3 0 0.3c0.1 0.7 0.4 1.2 0.9 1.6 0.3 0.2 0.6 0.5 0.9 0.7 0.3 0.2 0.6 0.5 0.9 0.8 0.2 0.2 0.3 0.4 0.4 0.7 0.2 0.7 0.2 1.4 0 2.2 -0.2 0.7-0.2 1.5-0.2 2.4h-11.9v-4.6c0.6-0.5 1.1-0.9 1.5-1.5 0.3-0.5 0.8-0.9 1.3-1.3l0.4-0.3 0-0.4c0.3-2.8 0.7-5.4 1.4-7.8 0.6-2.5 1.1-5.1 1.4-7.7 0.1-0.6 0.3-1.7 0.5-2.5 0.2-0.9 0.2-1.1 0.2-1.2 0.1-0.8 0.2-1.6 0.5-2.5 0.4-1.1 0.5-2.1 0.4-2.9 -0.1-1-0.4-1.8-1-2.5 -0.3-0.3-0.5-0.7-0.7-1.1 0.2-0.2 0.5-0.4 0.8-0.6 0.6-0.4 1.2-0.8 1.8-1.2l0.3-0.2 0.1-0.4c0.7-3.7 1.3-7.2 1.9-10.5 0.6-3.2 1.2-6.6 1.9-10.1l0-0.2 0-0.2c-0.2-1.2-0.9-1.7-1.4-2 -0.2-0.1-0.4-0.3-0.5-0.5v-4.6H186.7M177.6 201.4l-0.1 0.3c-0.1 0.4-0.2 0.9-0.3 1.3 -0.1 0.2-0.2 1.2-0.5 2.9 -0.3 1.9-0.6 4.2-0.8 4.9 -0.3 1.3-0.5 2.7-0.6 4.2l-0.1 1 1 0.1c0.5 0 1.1 0 1.8 0 0.7 0 1.4 0 2.2 0 0.8 0 1.6 0 2.3 0 0.7 0 1.4 0 2.1 0l0.8 0 0.2-0.8c0.1-0.3 0.1-0.7-1.6-11.2l-0.1-0.6c-0.1-0.3-0.2-0.9-0.3-1.6 -0.4-2.1-1-5.7-1.2-7.1 -0.2-1.9-0.5-3.6-1.1-5.1l-1-2.6 -0.9 2.7c-0.3 0.9-0.5 1.9-0.6 3 -0.1 1-0.2 2-0.4 2.9 -0.1 0.9-0.3 1.9-0.5 2.8C177.9 199.2 177.6 200.8 177.6 201.4M187.7 170.2h-13.9v5.8c0.2 0.5 0.6 0.9 1 1.2 0.5 0.3 0.7 0.7 0.9 1.3 -0.7 3.4-1.3 6.8-1.9 10.1 -0.6 3.3-1.2 6.8-1.9 10.5 -0.6 0.4-1.1 0.8-1.7 1.1 -0.6 0.3-1.1 0.8-1.5 1.3 0.3 0.7 0.7 1.4 1.1 1.9 0.5 0.5 0.7 1.2 0.8 2 0.1 0.6 0 1.4-0.3 2.4 -0.3 1-0.5 1.9-0.6 2.8 0 0.2-0.6 2.6-0.7 3.6 -0.3 2.6-0.7 5.1-1.4 7.5 -0.6 2.4-1.1 5.1-1.4 8 -0.6 0.5-1.1 1-1.5 1.5 -0.4 0.6-0.9 1.1-1.6 1.5v6.1h14c-0.2-1.1-0.2-2.2 0-3.2 0.2-1 0.2-1.9 0-2.7 -0.1-0.5-0.3-0.8-0.6-1.1 -0.3-0.3-0.6-0.6-0.9-0.8 -0.3-0.3-0.6-0.5-0.9-0.7 -0.3-0.2-0.5-0.5-0.5-0.9 0.3-0.8 0.5-1.7 0.6-2.8 0-1.1 0.3-1.9 0.7-2.6 0.3 0 0.6 0 0.9 0s0.7 0 1 0c0.7 0.1 1.4 0.1 2.1 0.1 0.2 0 0.9 0 1.8 0 1.7 0 4.2 0 5.5-0.1 -0.1 1 0.1 1.9 0.4 2.8 0.3 0.9 0.4 1.8 0.3 2.6 -0.2 0.8-0.6 1.4-1.2 1.9 -0.7 0.5-1.1 1-1.4 1.7v5.8h13.7v-6.1c-0.6-0.5-1.1-1-1.5-1.5 -0.4-0.6-0.9-1.1-1.4-1.5 0-1-1.6-9.2-1.9-10.7 -0.3-1.4-0.6-3-0.7-4.6 -0.3-0.2-1.4-7-1.5-7.5 -0.1-0.5-0.2-0.9-0.2-1.3 0-0.4 2.1-3.7 2.2-4.3 -0.7-0.3-1.4-0.7-1.8-1.2 -0.5-0.5-1-1-1.5-1.5 -0.7-3.4-1.4-6.8-2-10.1 -0.7-3.4-1.3-6.8-1.9-10.2 1.1-0.6 1.7-1.6 1.8-3.1C187.7 173.7 187.7 172 187.7 170.2L187.7 170.2zM178.1 215.1c-0.6 0-1.2 0-1.7 0 0.1-1.4 0.3-2.8 0.6-4 0.3-1.3 1.1-7.2 1.2-7.8 0.1-0.5 0.2-1.1 0.3-1.7 0-0.2 0.3-1.9 0.5-2.8 0.2-0.9 0.4-1.9 0.5-2.9 0.1-1 0.3-2 0.4-3 0.1-1 0.3-1.9 0.6-2.8 0.5 1.4 0.9 3 1 4.8 0.2 1.8 1.2 7.5 1.5 8.8 0.2 1.4 1.8 10.8 1.7 11.4 -0.7 0-1.4 0-2.2 0s-1.5 0-2.3 0C179.5 215.1 178.7 215.1 178.1 215.1L178.1 215.1z"/><path class="st1" d="M115.5 204.7c0.2 0.2 0.3 0.2 0.4 0.2 0.1-0.1 0.2-0.1 0.2-0.2 0-0.1-0.1-0.2-0.2-0.2C115.8 204.4 115.6 204.5 115.5 204.7z"/>
		<path class="st1" d="M115.8 204.5c-0.1 0-0.2 0.1-0.4 0.3 0.1 0.1 0.2 0.2 0.3 0.2 0 0 0.1 0 0.1 0 0.1-0.1 0.2-0.1 0.2-0.2C116.1 204.6 116 204.5 115.8 204.5 115.9 204.5 115.8 204.5 115.8 204.5L115.8 204.5z"/>
		<path class="st1" d="M104.7 238.5v-5.4c0.5-0.4 0.9-0.9 1.3-1.3 0.4-0.5 0.8-0.9 1.3-1.4l0.1-0.1 0-0.2c0-0.2 0.2-21.4 0.2-22.1 0-0.8 0-1.6-0.2-2.3 -0.3-0.9-0.7-1.6-1.4-2 -0.4-0.2-0.8-0.5-1.2-0.9 0.3-0.2 0.5-0.5 0.7-0.8 0.3-0.3 0.5-0.7 0.8-1l0.7-1.1c0.3-0.5 0.5-1.7 0.5-2 0-0.3-0.1-0.6-0.1-1 -0.2-1.3-0.2-2.7-0.2-4.1 0-1.5 0.1-3 0.2-4.5 0.1-1.5 0.1-3 0.2-4.7 0-1.6 0-3.1-0.1-4.5l0-0.2 -0.1-0.1c-0.4-0.5-0.8-0.9-1.3-1.4 -0.4-0.4-0.8-0.8-1.3-1.2v-5.4h12.7v5.5c-0.2 0.5-0.6 0.8-1.1 1.1 -0.7 0.4-1.3 1.1-1.6 2 -0.3 0.9-0.3 1.8-0.3 2.9 0.1 1 0.1 2.1 0.2 3.2 0.1 1.1 0.2 2.2 0.2 3.2 0.1 1-0.2 10.4-0.2 10.5l0 0.2 0.1 0.1c0.5 0.7 1 1.3 1.6 1.8 0.4 0.4 0.8 0.9 1 1.5 -0.7 0.9-2.5 3.4-2.6 4.2l0-0.1c-0.1 0.7-0.2 1.4-0.2 2.3 0 0.9 0 1.8 0.1 2.8 0.1 1 0.1 2 0.1 3 0 1 0 2 0 2.9 0 0.2 0 0.6 0 2.2l0 0.4c-0.1 1.1-0.1 2.5 0 4.4 0 1.8 0 3.5 0 4.9v0.2l0.1 0.1c0.5 0.6 1 1.1 1.5 1.6 0.4 0.4 0.8 0.9 1 1.5v5.3H104.7z"/>
		<path class="st1" d="M116.9 171.2v4.9c-0.2 0.3-0.5 0.6-0.8 0.8 -0.8 0.4-1.5 1.2-1.8 2.4 -0.3 0.9-0.4 1.9-0.3 3 0.1 1 0.1 2 0.2 3.2 0.1 1 0.2 2.1 0.2 3.2 0 0.8-0.1 7.8-0.2 10.5l0 0.3 0.2 0.3c0.5 0.7 1 1.3 1.6 1.9 0.3 0.3 0.5 0.6 0.7 1.1 -0.2 0.3-0.6 0.8-1.1 1.6 -1.2 1.8-1.4 2.3-1.4 2.6 -0.1 0.7-0.2 1.4-0.2 2.3 0 0.9 0 1.8 0.1 2.8 0.1 1 0.1 2 0.1 3 0 1 0 1.9 0 2.9 0 0.2 0 0.7 0 2.3 0 0.1 0 0.3 0 0.3 -0.1 1.1-0.1 2.5 0 4.4 0 1.9 0 3.5 0 4.9v0.4l0.2 0.3c0.5 0.6 1 1.2 1.6 1.7 0.4 0.3 0.6 0.7 0.9 1.3v4.7h-11.7v-4.7c0.4-0.4 0.8-0.8 1.2-1.2 0.4-0.5 0.8-0.9 1.2-1.3l0.3-0.3 0-0.4c0.1-7.4 0.2-21.5 0.2-22.1 0-0.9-0.1-1.7-0.3-2.4 -0.3-1.1-0.8-1.8-1.6-2.3 -0.2-0.1-0.5-0.3-0.7-0.5 0.1-0.2 0.3-0.3 0.4-0.5 0.3-0.3 0.5-0.7 0.8-1l0 0 0 0 0.4-0.6 0.3-0.5c0.4-0.6 0.6-1.9 0.6-2.4 0-0.3-0.1-0.6-0.1-1 -0.2-1.3-0.2-2.6-0.2-4.1 0-1.5 0.1-3 0.2-4.5 0.1-1.5 0.1-3 0.2-4.7 0-1.6 0-3.1-0.1-4.6l0-0.3 -0.2-0.2c-0.4-0.5-0.8-0.9-1.3-1.4 -0.4-0.4-0.7-0.7-1.1-1.1v-4.6H116.9M117.9 170.2h-13.7v6.1c0.5 0.4 1 0.8 1.4 1.3 0.4 0.5 0.8 0.9 1.2 1.4 0.1 1.4 0.2 2.9 0.1 4.5 0 1.5-0.1 3.1-0.2 4.6 -0.1 1.5-0.1 3.1-0.2 4.6 0 1.5 0 2.9 0.2 4.2 0.1 0.3 0.1 0.7 0.1 0.9 0 0.3-0.2 1.4-0.4 1.7 -0.2 0.3-0.5 0.7-0.7 1 -0.3 0.3-0.6 0.7-0.8 1 -0.3 0.3-0.6 0.7-0.9 0.9v0.3c0.5 0.5 1 0.9 1.5 1.2 0.5 0.3 0.9 0.9 1.2 1.7 0.2 0.6 0.2 1.3 0.2 2.1 0 0.8-0.2 22.2-0.2 22.2 -0.5 0.5-0.9 0.9-1.3 1.4 -0.4 0.5-0.9 1-1.4 1.4v6.1h13.7v-5.8c-0.3-0.7-0.7-1.3-1.2-1.8 -0.5-0.5-1-1-1.5-1.5 0-1.5 0-3.1 0-4.9 0-1.8 0-3.3 0-4.3 0-0.2-0.1-2.3 0-2.5 0.1-1 0.1-2 0-3 0-1-0.1-2-0.1-3 -0.1-1-0.1-1.9-0.1-2.8 0-0.9 0.1-1.6 0.2-2.2 -0.1-0.3 2.5-4 2.7-4.1 -0.2-0.8-0.6-1.5-1.2-2 -0.5-0.5-1-1.1-1.5-1.7 0 0 0.2-9.5 0.2-10.5 -0.1-1.1-0.1-2.1-0.2-3.2 -0.1-1.1-0.2-2.1-0.2-3.1 -0.1-1 0-1.9 0.3-2.7 0.3-0.9 0.7-1.4 1.3-1.8 0.6-0.3 1-0.8 1.3-1.4V170.2L117.9 170.2z"/>
		<path class="st1" d="M124.6 238.5v-5.4c0.4-0.5 0.9-0.9 1.5-1.4 0.7-0.6 1.2-1.4 1.4-2.3 0.4-1.4 0.4-3.2 0.3-5.3 -0.2-2-0.3-4-0.3-6V207l0-0.1c0-0.1-0.1-0.2-0.1-0.2 0.1-0.4 0.1-1.3-0.1-1.5 -0.1-0.1-0.5-0.5-0.5-0.5l-0.1 0c0 0-0.1-0.1-0.3-0.2l-0.4-0.4c-0.3-0.3-0.6-0.6-0.8-0.8 -0.2-0.2-0.5-0.4-0.7-0.6 0-0.5 1.3-2.1 1.9-2.9 0.8-1 0.9-1.2 1-1.5 0.1-0.4 0.1-0.8 0-1.2 -0.2-2.6-0.2-5.5 0-8.6 0.2-3.1 0.2-6.2 0-9.1l0-0.2 -0.1-0.1c-0.5-0.5-0.9-1-1.4-1.5 -0.4-0.4-0.9-0.9-1.4-1.3v-5.3c1.3 0.1 2.6 0.1 3.9 0.1 1.6 0 3.3-0.1 4.9-0.2 1.4-0.1 2.8-0.2 4.1-0.2 1.5 0 2.9 0.1 4.2 0.2 3 0.3 5.3 1.3 6.9 3 1.6 1.7 2.8 3.8 3.6 6.3 0.8 2.6 1.2 5.5 1.3 8.8 0.1 3.3 0.1 6.8 0 10.3l0 0.1 0.1 0.1c0.4 0.7 0.9 1.4 1.5 1.9 0.4 0.4 0.8 0.8 1 1.4 -0.5 0.4-0.9 0.8-1.2 1.3 -0.4 0.5-0.8 1-1.2 1.4l-0.1 0.1 0 0.2c-0.1 1.4-0.1 2.9-0.1 4.4 0.1 1.5 0.1 3 0.1 4.5 0 1.5 0 2.9-0.1 4.3l-0.1 1.4c-0.1 2.4-0.1 3-0.1 3.2 0 0.4 0 0.6-0.1 0.7l0 0.1v0.1c0 0.6-0.6 3.6-0.9 4.5l0 0.1 0 0.1c0 0.4-0.1 0.7-0.3 0.9l0 0 0 0.1c-0.3 0.7-1.9 3.8-2.8 4.7 -1.1 0.9-2.5 1.7-3.9 2.3 -1.4 0.6-3 1-4.9 1.2H124.6zM137.4 202.9c-0.2 0.3-0.7 0.7-1.1 1.1 -0.5 0.5-1 1-1.3 1.3l0 0 0 0.1c-0.2 0.3-0.3 0.7-0.4 1.1 -0.2 1.7-0.3 3.5-0.3 5.5 0 1.9 0.1 4 0.2 6 0.1 1.9 0.2 4 0.3 6.1 0.1 2 0 3.9-0.2 5.7l0 0.5 0.5 0.1c1.2 0.2 2.4 0.3 3.4 0.3 0.7 0 1.3 0 1.9-0.1 1.7-0.2 3-0.8 3.9-1.8 1-1.1 1.7-2.6 1.9-4.5 0.2-1.8 0.3-3.8 0.2-5.9l0-1c-0.1-2.9-0.4-9.6-0.2-11.1l0-0.1 0-0.1c-0.1-0.2-0.5-1-1.2-2.5 -0.3-0.6-0.6-1.2-0.8-1.6 0.2-0.2 0.3-0.4 0.5-0.6 0.3-0.3 0.6-0.6 0.8-0.9 0.3-0.3 0.5-0.8 0.6-1.3 0.1-0.2 0.1-0.7 0.1-2.8 0.1-2.6 0.2-5 0.2-7.2 0-2.3-0.3-4.4-1-6.1 -0.7-1.7-1.8-3-3.4-3.8 -0.9-0.5-2.1-0.7-3.4-0.7 -1 0-2.2 0.1-3.4 0.4l-0.4 0.1v9.4l0.1-0.3c-0.3 1.2-0.4 11.2-0.4 11.3l0 0.2 0.2 0.1C135.6 201 136.9 202.3 137.4 202.9z"/>
		<path class="st1" d="M137.5 171.2c1.4 0 2.8 0.1 4.1 0.2 2.8 0.3 5.1 1.3 6.6 2.8 1.6 1.6 2.7 3.6 3.5 6.1 0.7 2.5 1.2 5.4 1.3 8.7 0.1 3.3 0.1 6.7 0 10.3l0 0.3 0.1 0.2c0.4 0.8 1 1.5 1.6 2.1 0.3 0.2 0.5 0.5 0.7 0.9 -0.4 0.3-0.7 0.7-1 1.2 -0.3 0.5-0.7 1-1.1 1.4l-0.3 0.3 0 0.4c-0.1 1.4-0.1 2.9-0.1 4.5 0.1 1.5 0.1 3 0.1 4.5 0 1.5 0 2.9-0.1 4.3 0 0.4 0 0.9-0.1 1.4 -0.1 2.3-0.1 3-0.1 3.3 0 0.4 0 0.5 0 0.5l0 0.1 0 0.1c0 0.6-0.6 3.5-0.9 4.3l0 0.1 0 0.1c0 0.3-0.1 0.5-0.2 0.7l-0.1 0.1 0 0.1c-0.3 0.7-1.8 3.7-2.7 4.5 -1.1 0.9-2.4 1.7-3.8 2.3 -1.3 0.6-2.9 1-4.7 1.2h-6.8 -8.3v-4.7c0.4-0.4 0.8-0.8 1.3-1.2 0.8-0.7 1.4-1.6 1.6-2.5 0.4-1.5 0.5-3.3 0.3-5.4 -0.2-2-0.3-4-0.3-6v-11 -0.2l-0.1-0.2c0 0 0 0 0 0 0.2-0.6 0.1-1.5-0.2-1.9l0 0 0 0c0 0-0.2-0.2-0.4-0.4l-0.1-0.1 -0.2-0.1c0 0 0 0-0.1-0.1l-0.4-0.4c-0.3-0.3-0.6-0.6-0.9-0.8 -0.1-0.1-0.3-0.3-0.5-0.4 0.3-0.6 1.3-1.8 1.7-2.4 0.8-1 1-1.3 1.1-1.7 0.1-0.5 0.1-0.9 0-1.3 -0.2-2.6-0.2-5.5 0-8.6 0.2-3.1 0.2-6.2 0-9.2l0-0.3 -0.2-0.3c-0.5-0.5-0.9-1-1.4-1.5 -0.4-0.4-0.8-0.8-1.3-1.2v-4.6c1.1 0.1 2.3 0.1 3.4 0.1 1.7 0 3.3-0.1 4.9-0.2C134.8 171.2 136.2 171.2 137.5 171.2M134.1 188.5L134.1 188.5c0 0.6-0.1 1.8-0.2 4.4 -0.1 2.2-0.2 5.1-0.1 6.6l0 0.4 0.3 0.3c1 0.9 2.1 2 2.6 2.6 -0.2 0.2-0.5 0.5-0.8 0.7 -0.5 0.5-1 1-1.3 1.3l-0.1 0.1 -0.1 0.1c-0.2 0.4-0.3 0.8-0.4 1.3 -0.2 1.7-0.3 3.6-0.3 5.6 0 1.9 0.1 4 0.2 6 0.1 1.9 0.2 4 0.3 6.1 0.1 2 0 3.9-0.2 5.6l-0.1 0.9 0.9 0.1c1.2 0.2 2.4 0.3 3.5 0.3 0.7 0 1.3 0 2-0.1 1.8-0.2 3.2-0.9 4.2-1.9 1.1-1.2 1.8-2.8 2-4.8 0.2-1.8 0.3-3.8 0.2-6l0-1c-0.1-2.6-0.4-9.6-0.2-11l0-0.2 -0.1-0.2c-0.1-0.3-0.4-0.8-1.3-2.6 -0.2-0.4-0.5-0.9-0.7-1.3 0.1-0.1 0.2-0.2 0.3-0.3 0.3-0.3 0.6-0.6 0.9-0.9 0.3-0.4 0.5-0.9 0.7-1.4 0.1-0.3 0.1-0.8 0.1-3l0 0c0.1-2.5 0.2-4.9 0.2-7.2 0-2.4-0.3-4.5-1-6.3 -0.7-1.9-2-3.2-3.7-4.1 -1-0.5-2.2-0.7-3.6-0.7 -1 0-2.2 0.1-3.5 0.4l-0.8 0.2v0.8L134.1 188.5M137.5 170.2c-1.3 0-2.7 0.1-4.1 0.2 -1.6 0.1-3.2 0.2-4.8 0.2 -1.5 0-2.9-0.1-4.4-0.2v6.1c0.6 0.5 1.1 0.9 1.5 1.4 0.5 0.5 0.9 1 1.4 1.5 0.2 2.9 0.2 5.9 0 9.1 -0.2 3.1-0.2 6 0 8.7 0.1 0.3 0.1 0.6 0 1 -0.1 0.4-2.9 3.4-2.9 4.4v0.3c0.3 0.2 0.6 0.5 0.9 0.7 0.3 0.2 0.5 0.5 0.8 0.8 0.1 0.1 0.2 0.2 0.4 0.4 0.1 0.1 0.3 0.2 0.4 0.3 0.2 0.2 0.4 0.4 0.4 0.4 0 0 0.1 0.9 0 1 -0.1 0.1-0.1 0.3 0 0.6v11c0 2 0.1 4 0.3 6.1 0.2 2 0.1 3.7-0.3 5.1 -0.2 0.8-0.6 1.5-1.2 2 -0.7 0.5-1.2 1.1-1.7 1.6v6.1h9.3 6.9c1.9-0.2 3.6-0.7 5-1.3 1.5-0.6 2.8-1.4 4-2.4 1.1-1 2.7-4.3 3-4.9 0.2-0.3 0.3-0.7 0.4-1.1 0.3-0.9 0.9-4 0.9-4.7 0.1-0.2 0.1-0.5 0.1-0.9 -0.1-0.2 0.1-3.2 0.2-4.6 0.1-1.4 0.1-2.9 0.1-4.3 0-1.5 0-3-0.1-4.5 -0.1-1.5 0-3 0.1-4.3 0.5-0.5 0.9-1 1.2-1.5 0.4-0.5 0.8-1 1.4-1.4 -0.3-0.8-0.7-1.4-1.3-1.9 -0.6-0.5-1-1.1-1.4-1.8 0.1-3.6 0.1-7 0-10.3 -0.1-3.3-0.6-6.3-1.3-8.9 -0.8-2.6-2-4.8-3.7-6.5 -1.7-1.7-4.1-2.8-7.2-3.1C140.3 170.3 138.9 170.2 137.5 170.2L137.5 170.2zM135.1 188.5v-9c1.2-0.2 2.4-0.4 3.3-0.4 1.3 0 2.3 0.2 3.2 0.6 1.5 0.7 2.6 1.9 3.2 3.6 0.6 1.6 0.9 3.6 0.9 5.9 0 2.3-0.1 4.7-0.2 7.1 0 0.2 0 2.4-0.1 2.8 -0.1 0.4-0.3 0.8-0.5 1.1 -0.2 0.3-0.5 0.6-0.8 0.8 -0.3 0.3-0.5 0.6-0.8 0.9 0.1 0.3 2 3.8 2.1 4.2 -0.3 1.7 0.1 10.1 0.2 12.2 0.1 2.1 0 4-0.2 5.8 -0.2 1.8-0.8 3.2-1.8 4.2 -0.8 0.9-2 1.5-3.6 1.6 -0.6 0.1-1.2 0.1-1.8 0.1 -1.1 0-2.2-0.1-3.4-0.3 0.2-1.8 0.2-3.7 0.2-5.7 -0.1-2-0.1-4.1-0.3-6.1 -0.1-2-0.2-4-0.2-6 0-1.9 0.1-3.8 0.3-5.4 0.1-0.4 0.2-0.7 0.3-1 0.6-0.7 2.4-2.3 2.6-2.7 -0.3-0.7-3.2-3.4-3.2-3.4C134.7 196.7 135.1 188.5 135.1 188.5L135.1 188.5 135.1 188.5z"/>
		<path class="st1" d="M220.7 238.5c-0.2 0-0.5 0-0.7 0 -1.7-0.1-3.4-0.4-4.9-1.1 -1.5-0.6-2.8-1.5-3.9-2.6 -2-2-3.3-4.7-3.8-7.9 -0.5-3.1-0.6-6.9-0.4-11.2h7.3c0 1.4 0 2.8-0.1 4.2 -0.1 1.5 0 3 0.2 4.3 0.2 1.3 0.6 2.5 1.2 3.5 0.6 1 1.6 1.8 2.9 2.2 0.4 0.1 0.9 0.2 1.6 0.2 0.8 0 1.6-0.1 2-0.2 0.8-0.1 1.6-0.5 2.2-1 0.6-0.5 1.1-1.1 1.5-1.9 0.4-0.7 0.7-1.5 0.9-2.2 0.2-0.8 0.2-1.6 0.1-2.3 -0.1-0.5-0.3-1-0.6-1.4 -0.3-0.3-0.6-0.6-0.9-0.9 -0.3-0.2-0.6-0.5-0.8-0.8 -0.1-0.2-0.2-0.4-0.3-0.6 0.4-0.5 0.8-0.9 1.2-1.3 0.5-0.4 0.9-0.9 1.3-1.5l0.1-0.2 0-0.2c-0.1-0.8-0.2-1.5-0.3-2.1 -0.1-0.7-0.3-1.3-0.6-1.9 -0.5-0.7-1-1.3-1.7-1.7 -0.4-0.3-1-0.6-1.4-0.9 -0.2-0.1-0.4-0.2-0.4-0.3 -1.3-0.8-2.6-1.5-4-2.1 -1.4-0.6-2.7-1.3-3.9-2 -1.2-0.7-2.3-1.6-3.4-2.5 -1-0.9-1.7-2.1-2.3-3.4 0-0.1-0.1-0.3-0.2-0.6 -0.2-0.7-0.6-2-0.6-2.4l-0.1-1.7c0-0.6-0.1-1.1-0.3-1.6 -0.1-0.3-0.5-0.7-0.9-1l0 0 -0.4-0.3c-1.2-1-2.1-1.7-2.8-2.1 4.1-4 4.1-4.1 4.1-4.3 0-0.4 0.4-2.3 0.5-2.8 0.4-1.4 1-2.7 1.6-4 0.6-1.3 1.3-2.4 2.2-3.4 0.8-1 1.8-1.8 2.9-2.5 1.1-0.6 2.4-1.1 4-1.2 0.8-0.1 1.6-0.2 2.3-0.2 2.1 0 3.9 0.4 5.5 1.2 2.1 1.1 3.7 2.7 4.9 4.9 1.2 2.2 2 4.8 2.3 7.8 0.3 2.9 0.4 6 0.1 9.3 -1 0-3.6 0-5.5 0 -0.9 0-1.5 0-1.8 0 0-1.1 0-2.2 0-3.3 0-1.3 0-2.6-0.1-3.8 -0.1-1.2-0.3-2.4-0.6-3.4 -0.3-1.1-0.8-2-1.4-2.7l-0.1-0.1 -0.1 0c-1-0.6-2.1-1-3.2-1.1 -0.2 0-0.4 0-0.6 0 -0.9 0-1.8 0.2-2.5 0.5 -1 0.4-1.8 1.1-2.4 2 -0.6 0.9-0.9 2-1 3.2 0 0.2 0.1 0.3 0.4 0.8 1.7 2.1 2.1 2.8 2.1 3.1 -0.1 0.1-0.1 0.1-0.2 0.1 -0.5 0.4-1.3 1.1-2.3 2.1l-0.3 0.3 0.3 0.5c0.4 2.6 1.4 4.2 3.4 5.5 2 1 3.9 1.9 5.6 2.6 1.7 0.7 3.2 1.6 4.6 2.6 1.3 1 2.4 2.2 3.4 3.7 0.9 1.5 1.5 3.4 1.9 5.8 0.1 0.4 0.1 0.9 0 1.5 -0.1 0.7 0 1.4 0.3 2 0.2 0.7 0.7 1.4 1.3 1.8 0.4 0.3 0.8 0.7 1.2 1.3 -0.1 0.3-0.2 0.5-0.5 0.7l-0.9 0.9c-0.3 0.3-0.6 0.6-0.8 0.9 -0.3 0.4-0.5 0.8-0.6 1.4 -0.3 2.9-0.8 5.4-1.3 7.4 -0.5 1.9-1.5 3.6-2.9 5.1 -1.2 1.2-2.6 2.1-4.2 2.5C223.6 238.2 222.2 238.5 220.7 238.5 220.7 238.5 220.7 238.5 220.7 238.5z"/>
		<path class="st1" d="M221 171.3L221 171.3c2 0 3.8 0.4 5.2 1.2 2 1 3.6 2.6 4.7 4.7 1.2 2.1 1.9 4.7 2.3 7.6 0.3 2.7 0.4 5.7 0.1 8.8 -1.2 0-3.4 0-5 0 -0.6 0-1 0-1.3 0 0-0.9 0-1.9 0-2.8 0-1.4 0-2.7-0.1-3.9 -0.1-1.3-0.3-2.4-0.6-3.5 -0.3-1.1-0.8-2.1-1.5-2.9l-0.1-0.1 -0.2-0.1c-1.1-0.6-2.3-1-3.4-1.1 -0.2 0-0.4 0-0.6 0 -1 0-1.9 0.2-2.8 0.6 -1.1 0.5-1.9 1.2-2.6 2.1 -0.7 1-1 2.1-1 3.5 -0.1 0.4 0.2 0.7 0.5 1.1 1.2 1.5 1.7 2.2 1.9 2.6 -0.5 0.4-1.2 1.1-2.2 2l-0.5 0.5 0.3 0.7c0 0 0 0.1 0 0.1 0.4 2.7 1.5 4.4 3.6 5.8l0 0 0 0c2 1 3.8 1.9 5.6 2.6 1.7 0.7 3.2 1.6 4.5 2.5 1.3 0.9 2.4 2.2 3.2 3.6 0.9 1.4 1.5 3.3 1.8 5.6 0 0.4 0 0.9 0 1.4 -0.1 0.8 0 1.5 0.3 2.2 0.3 0.9 0.8 1.6 1.5 2 0.3 0.2 0.6 0.5 0.9 0.9 -0.1 0.1-0.1 0.2-0.2 0.3l-0.8 0.8 -0.1 0.1c-0.3 0.3-0.6 0.6-0.9 0.9 -0.4 0.4-0.6 1-0.7 1.7 -0.3 2.9-0.8 5.3-1.3 7.3 -0.5 1.9-1.4 3.5-2.8 4.8 -1.1 1.1-2.5 2-4 2.4 -1.3 0.4-2.7 0.6-4.2 0.6 -0.2 0-0.5 0-0.7 0 -1.7-0.1-3.2-0.4-4.7-1 -1.5-0.6-2.7-1.4-3.7-2.5 -2-2-3.2-4.5-3.7-7.6 -0.5-3-0.6-6.5-0.5-10.6h6.3c0 1.2 0 2.5-0.1 3.7 -0.1 1.6 0 3 0.2 4.3 0.2 1.4 0.6 2.6 1.3 3.7 0.7 1.2 1.8 2 3.2 2.5 0.4 0.1 1 0.2 1.7 0.2 0.8 0 1.7-0.1 2.1-0.2 0.9-0.1 1.8-0.5 2.5-1.1 0.7-0.6 1.2-1.2 1.6-2 0.4-0.7 0.7-1.5 0.9-2.4 0.2-0.9 0.2-1.7 0.1-2.4 -0.1-0.7-0.3-1.2-0.7-1.6 -0.3-0.3-0.6-0.6-1-0.9 -0.3-0.2-0.5-0.5-0.7-0.7 0 0-0.1-0.1-0.1-0.1 0.3-0.4 0.6-0.7 0.9-1 0.5-0.5 1-1 1.4-1.5l0.3-0.3 -0.1-0.4c-0.1-0.8-0.2-1.5-0.4-2.2 -0.1-0.7-0.4-1.4-0.7-2l0 0 0 0c-0.5-0.7-1.1-1.4-1.8-1.8 -0.4-0.3-1-0.6-1.4-0.9 -0.2-0.1-0.3-0.2-0.4-0.2l0 0 0 0c-1.3-0.8-2.6-1.5-4-2.1 -1.3-0.6-2.6-1.3-3.9-2 -1.2-0.7-2.3-1.5-3.3-2.4 -0.9-0.9-1.6-1.9-2.1-3.2 0-0.1-0.1-0.4-0.2-0.6 -0.2-0.5-0.6-1.9-0.6-2.2 0-0.6-0.1-1.2-0.1-1.7 0-0.6-0.2-1.2-0.4-1.7 -0.1-0.3-0.4-0.6-0.6-0.8l0 0 -0.8-0.7c-0.9-0.7-1.7-1.3-2.3-1.8 3.8-3.7 3.8-3.8 3.8-4.3 0-0.3 0.3-2.1 0.5-2.7 0.4-1.4 1-2.7 1.6-4 0.6-1.2 1.3-2.4 2.1-3.3 0.8-0.9 1.7-1.7 2.8-2.4 1-0.6 2.3-1 3.8-1.2C219.5 171.3 220.3 171.3 221 171.3M221 170.3c-0.8 0-1.6 0.1-2.4 0.2 -1.6 0.2-3 0.6-4.2 1.3 -1.2 0.7-2.2 1.5-3.1 2.6 -0.9 1-1.6 2.2-2.2 3.5 -0.6 1.3-1.2 2.7-1.6 4.1 -0.1 0.5-0.5 2.5-0.5 2.9 0 0.2-4.3 4.3-4.3 4.3l0 0.2c0.7 0.4 2 1.4 3.1 2.3 0 0 0.9 0.7 1.1 1.1 0.2 0.4 0.3 0.9 0.3 1.4 0 0.5 0.1 1.1 0.1 1.7 0 0.6 0.7 2.7 0.8 3.1 0.6 1.4 1.4 2.6 2.4 3.6 1 1 2.2 1.8 3.4 2.6 1.3 0.7 2.6 1.4 4 2.1 1.4 0.6 2.7 1.3 4 2.1 0.2 0.1 1.2 0.7 1.9 1.1 0.6 0.4 1.1 0.9 1.5 1.5 0.3 0.6 0.5 1.2 0.6 1.8 0.1 0.6 0.2 1.3 0.3 2.1 -0.4 0.5-0.8 1-1.3 1.4 -0.5 0.4-0.9 0.9-1.4 1.5 0.1 0.4 0.2 0.7 0.5 1 0.3 0.3 0.5 0.6 0.9 0.8 0.3 0.3 0.6 0.5 0.9 0.8 0.3 0.3 0.4 0.7 0.5 1.1 0.1 0.6 0.1 1.3-0.1 2.1 -0.2 0.7-0.4 1.4-0.8 2.1 -0.4 0.7-0.8 1.2-1.4 1.7 -0.6 0.5-1.2 0.8-2 0.9 -0.3 0.1-1.1 0.2-1.9 0.2 -0.5 0-1.1 0-1.5-0.2 -1.2-0.4-2.1-1.1-2.7-2 -0.6-0.9-0.9-2.1-1.1-3.3 -0.2-1.3-0.2-2.7-0.2-4.2 0.1-1.5 0.1-3.1 0.1-4.7h-8.3c-0.2 4.5-0.1 8.4 0.4 11.7 0.5 3.3 1.8 6 4 8.1 1.1 1.1 2.4 2 4 2.7 1.6 0.7 3.3 1 5.1 1.1 0.3 0 0.5 0 0.8 0 1.5 0 3-0.2 4.4-0.7 1.7-0.5 3.2-1.4 4.4-2.7 1.5-1.5 2.5-3.3 3.1-5.3 0.5-2 1-4.5 1.3-7.4 0.1-0.5 0.2-0.8 0.5-1.1s0.5-0.6 0.8-0.9c0.3-0.3 0.6-0.6 0.9-0.9 0.3-0.3 0.5-0.7 0.6-1.2 -0.5-0.7-0.9-1.2-1.5-1.6 -0.5-0.4-0.9-0.9-1.1-1.6 -0.2-0.5-0.3-1.1-0.3-1.7 0.1-0.6 0.1-1.2 0-1.6 -0.3-2.5-1-4.5-1.9-6 -0.9-1.5-2.1-2.8-3.5-3.9 -1.4-1-2.9-1.9-4.7-2.7 -1.8-0.7-3.6-1.6-5.5-2.6 -1.7-1.1-2.8-2.6-3.2-5.2 0-0.1-0.1-0.2-0.1-0.2 0.7-0.7 1.6-1.6 2.2-2 0.1-0.1 0.2-0.1 0.3-0.2 0.8-0.5-2.5-4.1-2.4-4.1 0-1.2 0.3-2.2 0.9-3 0.6-0.8 1.3-1.4 2.2-1.8 0.7-0.3 1.5-0.5 2.3-0.5 0.2 0 0.4 0 0.5 0 1 0.1 2 0.4 3 1 0.6 0.7 1 1.5 1.3 2.5 0.3 1 0.5 2.1 0.6 3.3 0.1 1.2 0.1 2.5 0.1 3.8 0 1.3 0 2.6 0 3.9 0.1 0 1.1 0 2.3 0 2.4 0 5.9 0 5.9 0 0.3-3.5 0.3-6.8 0-9.9 -0.4-3.1-1.2-5.8-2.4-8 -1.2-2.2-2.9-3.9-5.1-5.1C225.1 170.7 223.2 170.3 221 170.3L221 170.3z"/>
		<!--  Letras/palabra "KAIDAS" -->
		</g>
		
		<!-- Ambas estrellas -->
		<g id="Draw-Mark" class="Animate-Draw3">
		<polygon class="st1" points="11.9 219.6 11.5 219.6 11.4 219.7 8 222.1 9.4 217.8 9.1 217.6 5.8 215.2 10.3 215.2 10.4 214.8 11.7 210.9 13.1 215.2 13.5 215.2 17.6 215.2 14 217.8 14.1 218.2 15.3 222.1 "/>
		<path  class="st1" d="M11.7 212.5l0.8 2.4 0.3 0.7h0.7H16l-2.1 1.5 -0.6 0.5 0.2 0.7 0.8 2.4 -2.1-1.5 -0.3-0.2h-0.3l-0.3 0 -0.3 0.2L9 220.8l0.8-2.4 0.2-0.7 -0.6-0.4 -2.1-1.5h2.6l0.8 0 0.2-0.7L11.7 212.5M11.7 209.3C11.7 209.3 11.7 209.3 11.7 209.3l-1.7 5.4c0 0 0 0 0 0H4.3c0 0 0 0 0 0l4.5 3.3c0 0 0 0 0 0l-1.7 5.3c0 0 0 0 0 0 0 0 0 0 0 0l4.5-3.3c0 0 0 0 0 0s0 0 0 0l4.5 3.3c0 0 0 0 0 0 0 0 0 0 0 0l-1.7-5.3c0 0 0 0 0 0l4.5-3.3c0 0 0 0 0 0h-5.6c0 0 0 0 0 0L11.7 209.3C11.7 209.3 11.7 209.3 11.7 209.3L11.7 209.3z"/>
		<polygon class="st1" points="248.9 219.6 248.7 219.6 248.5 219.6 248.4 219.7 245 222.1 246.4 217.9 246.1 217.6 242.8 215.2 247.3 215.2 247.4 214.8 248.7 210.9 250.1 215.2 250.5 215.2 254.6 215.2 251 217.8 251.1 218.2 252.3 222.1 "/>
		<path class="st1" d="M248.7 212.5l0.8 2.5 0.3 0.7h0.7 2.6l-2.1 1.5 -0.6 0.5 0.2 0.7 0.8 2.4 -2.1-1.5 -0.3-0.2h-0.3l-0.3 0 -0.3 0.2 -2.1 1.5 0.8-2.4 0.2-0.7 -0.6-0.4 -2.1-1.5h2.6l0.8 0 0.2-0.7L248.7 212.5M248.7 209.3C248.7 209.3 248.7 209.3 248.7 209.3l-1.7 5.4c0 0 0 0 0 0h-5.6c0 0 0 0 0 0l4.5 3.3c0 0 0 0 0 0l-1.7 5.3c0 0 0 0 0 0 0 0 0 0 0 0l4.5-3.3c0 0 0 0 0 0 0 0 0 0 0 0l4.5 3.3c0 0 0 0 0 0 0 0 0 0 0 0l-1.7-5.3c0 0 0 0 0 0l4.5-3.3c0 0 0 0 0 0h-5.6c0 0 0 0 0 0L248.7 209.3C248.7 209.3 248.7 209.3 248.7 209.3L248.7 209.3z"/>
		</g>
	</svg>
