<?xml version="1.0" standalone="no"?>
<?xml-stylesheet type="text/css" media="screen" href="../css/style.css"?>
<svg
    class="grafico_apps" xmlns="http://www.w3.org/2000/svg" version="1.1" x="0" y="0" width="1100" height="486" viewBox="0 0 1100 486" xml:space="preserve">
    
    <text transform="matrix(1 0 0 1 607.77 232.0744)">
        <tspan x="0" y="0" class="st0 st1">APP </tspan>
        <tspan x="94.9" y="0" class="st2 st1">DEVELOPMENT</tspan>
    </text>
    <text transform="matrix(1 0 0 1 635.4575 269.2627)" class="st3 st4">Dale un alcance masivo y bien estructurado a tu negocio con una APP móvil.</text>
    <text transform="matrix(1 0 0 1 871.4449 322.4768)" class="st3 st5">LEER MÁS</text>
    <rect x="855.3" y="293.2" class="st6" width="162.3" height="38.3"/>
    <path class="st7" d="M473.2 250.7c-2.4 0-4.8-1-6.7-2.8 -3.6-3.6-3.8-9.1-0.5-12.4l6.7-6.7c1.6-1.6 3.8-2.4 6.2-2.3 2.3 0.1 4.5 1.1 6.3 2.8 0.5 0.5 0.5 1.2 0 1.7 -0.5 0.5-1.2 0.5-1.7 0 -1.3-1.3-3-2.1-4.7-2.2 -1.7-0.1-3.3 0.5-4.4 1.6l-6.7 6.7c-2.4 2.4-2.1 6.5 0.5 9.1 2.7 2.7 6.7 2.9 9.1 0.5l6.7-6.7c0.5-0.5 1.2-0.5 1.7 0 0.5 0.5 0.5 1.2 0 1.7l-6.7 6.7C477.3 250 475.3 250.7 473.2 250.7z"/>
    <path class="st7" d="M486.4 237.6c-2.4 0-4.8-1-6.7-2.8 -0.5-0.5-0.5-1.2 0-1.7 0.5-0.5 1.2-0.5 1.7 0 2.7 2.7 6.7 2.9 9.1 0.5l6.7-6.7c2.4-2.4 2.1-6.4-0.5-9.1 -2.7-2.7-6.7-2.9-9.1-0.5l-6.7 6.7c-0.5 0.5-1.2 0.5-1.7 0 -0.5-0.5-0.5-1.2 0-1.7l6.7-6.7c3.3-3.3 8.8-3 12.4 0.5 3.6 3.6 3.8 9.1 0.5 12.4l-6.7 6.7C490.5 236.8 488.5 237.6 486.4 237.6z"/>
    <g class="st8">
        <path class="st7" d="M122.8 223.5l-16.7-7.8c-2.1-1-3.1-3.6-2.1-5.7l15.8-33.8c1-2.1 3.6-3.1 5.7-2.1l16.7 7.8c2.1 1 3.1 3.6 2.1 5.7l-15.8 33.8C127.5 223.6 125 224.5 122.8 223.5zM124.3 176.8c-0.7-0.3-1.6 0-1.9 0.7l-15.8 33.8c-0.3 0.7 0 1.6 0.7 1.9l16.7 7.8c0.7 0.3 1.6 0 1.9-0.7l15.8-33.8c0.3-0.7 0-1.6-0.7-1.9L124.3 176.8z"/>
        <path class="st7" d="M119.7 214.8c1-1.6 0.3-3.7-1.5-4.2 -1.1-0.3-2.4 0.1-3 1.1 -1 1.6-0.3 3.7 1.5 4.2C117.8 216.2 119.1 215.8 119.7 214.8"/>
        <rect x="118.9" y="182.7" transform="matrix(0.9063 0.4226 -0.4226 0.9063 90.1082 -38.1152)" class="st7" width="24.2" height="2.9"/>
        <rect x="107.6" y="206.9" transform="matrix(0.9063 0.4227 -0.4227 0.9063 99.2894 -31.0773)" class="st7" width="24.2" height="2.9"/>
    </g>
    <g class="st9">
        <path class="st7" d="M502.6 66l-27.2 19.5c-2.4 1.7-5.7 1.2-7.4-1.2l-26.7-37.3c-1.7-2.4-1.2-5.7 1.2-7.4l27.2-19.5c2.4-1.7 5.7-1.2 7.4 1.2l26.7 37.3C505.5 61 505 64.3 502.6 66zM444.5 42.6c-0.8 0.6-1 1.7-0.4 2.5l26.7 37.3c0.6 0.8 1.7 1 2.5 0.4l27.2-19.5c0.8-0.6 1-1.7 0.4-2.5l-26.7-37.3c-0.6-0.8-1.7-1-2.5-0.4L444.5 42.6z"/>
        <path class="st7" d="M486.6 68c-0.8-1.6-2.9-2-4.2-0.7 -0.8 0.8-1 2.1-0.5 3.1 0.8 1.6 2.9 2 4.2 0.7C486.9 70.3 487.2 69.1 486.6 68"/>
        <rect x="440.6" y="34.9" transform="matrix(0.8124 -0.5831 0.5831 0.8124 65.088 275.627)" class="st7" width="40.6" height="3.5"/>
        <rect x="459.8" y="61.6" transform="matrix(0.8124 -0.5831 0.5831 0.8124 53.1142 291.7993)" class="st7" width="40.6" height="3.5"/>
    </g>
    <path class="st7" d="M205.9 64.2h-21.1c-1.3 0-2.4-1.1-2.4-2.4V49.9c0-1.3 1.1-2.4 2.4-2.4h21.1c1.3 0 2.4 1.1 2.4 2.4v11.9C208.3 63.1 207.3 64.2 205.9 64.2zM184.8 49.1c-0.4 0-0.8 0.4-0.8 0.8v11.9c0 0.4 0.4 0.8 0.8 0.8h21.1c0.4 0 0.8-0.4 0.8-0.8V49.9c0-0.4-0.4-0.8-0.8-0.8H184.8z"/>
    <path class="st7" d="M203.7 68.1H187c-0.4 0-0.8-0.3-0.8-0.8 0-0.4 0.3-0.8 0.8-0.8h16.7c0.4 0 0.8 0.3 0.8 0.8C204.5 67.7 204.1 68.1 203.7 68.1"/>
    <path class="st10" d="M519.4 265.4c-5.2 25.8-15.9 49.8-31 70.5 -15.2 20.7-34.8 38.2-57.8 50.9 -14.9 8.2-30.8 14.2-47.2 17.9 -16.4 3.7-33.4 5-50.4 3.9l0.1-1.6c16.8 1.1 33.6-0.3 49.9-3.9 16.3-3.6 32.1-9.6 46.8-17.7 22.8-12.6 42.3-29.9 57.3-50.4 15-20.5 25.7-44.3 30.8-69.9L519.4 265.4z"/>
    <path class="st11" d="M173.5 274.4c-3.9-14.6-5.9-29.7-6.1-44.7 -0.1-15 1.7-30.1 5.3-44.8 12-47.8 42.2-86.3 81.4-109.8 39.2-23.5 87.4-32 135.2-20.1 24.5 6.2 47.2 17.4 66.7 32.6 19.5 15.3 35.8 34.6 47.7 57l-1.4 0.7c-11.7-22.2-27.9-41.3-47.3-56.5 -19.3-15.1-41.8-26.3-66.1-32.4 -47.4-11.9-95.2-3.4-134 19.9 -38.9 23.3-68.8 61.4-80.7 108.8 -3.7 14.6-5.4 29.5-5.3 44.4 0.1 14.9 2.1 29.8 6 44.3L173.5 274.4z"/>
    <path class="st12" d="M174.2 161.6c0.7 0.1 1.4 0.2 2.1 0.4l2.8-2.8 4.3 2.7 -1.3 3.7c0.5 0.5 0.9 1.1 1.2 1.7l3.9 0 1.1 5 -3.6 1.7c-0.1 0.7-0.2 1.4-0.4 2.1l2.8 2.8 -2.7 4.3 -3.7-1.3c-0.5 0.5-1.1 0.9-1.7 1.2l0 3.9 -5 1.1 -1.7-3.6c-0.7-0.1-1.4-0.2-2.1-0.4l-2.8 2.8 -4.3-2.7 1.3-3.7c-0.5-0.5-0.9-1.1-1.2-1.7l-3.9 0 -1.1-5 3.6-1.7c0.1-0.7 0.2-1.4 0.4-2.1l-2.8-2.8 2.7-4.3 3.7 1.3c0.5-0.5 1.1-0.9 1.7-1.2l0-3.9 5-1.1L174.2 161.6 174.2 161.6zM176.2 172.4L176.2 172.4c-0.4-1.6-2-2.6-3.6-2.3 -1.6 0.4-2.6 2-2.3 3.6 0.4 1.6 2 2.6 3.6 2.3C175.6 175.6 176.6 174 176.2 172.4z"/>
    <path class="st13" d="M494.8 271.2c0.5 0 0.9 0.1 1.4 0.2l1.8-1.8 2.8 1.8 -0.9 2.4c0.3 0.3 0.6 0.7 0.8 1.1l2.6 0 0.7 3.3 -2.3 1.1c0 0.5-0.1 0.9-0.2 1.4l1.8 1.8 -1.8 2.8 -2.4-0.9c-0.3 0.3-0.7 0.6-1.1 0.8l0 2.6 -3.3 0.7 -1.1-2.3c-0.5 0-0.9-0.1-1.4-0.2l-1.8 1.8 -2.8-1.8 0.9-2.4c-0.3-0.3-0.6-0.7-0.8-1.1l-2.6 0 -0.7-3.3 2.3-1.1c0-0.5 0.1-0.9 0.2-1.4l-1.8-1.8 1.8-2.8 2.4 0.9c0.3-0.3 0.7-0.6 1.1-0.8l0-2.6 3.3-0.7L494.8 271.2 494.8 271.2zM496.1 278.2L496.1 278.2c-0.2-1.1-1.3-1.7-2.4-1.5 -1.1 0.2-1.7 1.3-1.5 2.4 0.2 1.1 1.3 1.7 2.4 1.5C495.7 280.4 496.4 279.3 496.1 278.2z"/>
    <path class="st12" d="M423.7 72c0.5 0 0.9 0.1 1.4 0.2l1.8-1.8 2.8 1.8 -0.9 2.4c0.3 0.3 0.6 0.7 0.8 1.1l2.6 0 0.7 3.3 -2.3 1.1c0 0.5-0.1 0.9-0.2 1.4l1.8 1.8 -1.8 2.8 -2.4-0.9c-0.3 0.3-0.7 0.6-1.1 0.8l0 2.6 -3.3 0.7 -1.1-2.3c-0.5 0-0.9-0.1-1.4-0.2l-1.8 1.8 -2.8-1.8 0.9-2.4c-0.3-0.3-0.6-0.7-0.8-1.1l-2.6 0 -0.7-3.3 2.3-1.1c0-0.5 0.1-0.9 0.2-1.4l-1.8-1.8 1.8-2.8 2.4 0.9c0.3-0.3 0.7-0.6 1.1-0.8l0-2.6 3.3-0.7L423.7 72 423.7 72zM425 79L425 79c-0.2-1.1-1.3-1.7-2.4-1.5 -1.1 0.2-1.7 1.3-1.5 2.4 0.2 1.1 1.3 1.7 2.4 1.5C424.6 81.2 425.2 80.1 425 79z"/>
    <path class="st14" d="M150.2 219.4c0.5 0 1 0.1 1.5 0.3l2-2 3.1 2 -1 2.6c0.3 0.4 0.6 0.8 0.9 1.2l2.8 0 0.8 3.6 -2.5 1.2c0 0.5-0.1 1-0.3 1.5l2 2 -2 3.1 -2.6-1c-0.4 0.3-0.8 0.6-1.2 0.9l0 2.8 -3.6 0.8 -1.2-2.5c-0.5 0-1-0.1-1.5-0.3l-2 2 -3.1-2 1-2.6c-0.3-0.4-0.6-0.8-0.9-1.2l-2.8 0 -0.8-3.6 2.5-1.2c0-0.5 0.1-1 0.3-1.5l-2-2 2-3.1 2.6 1c0.4-0.3 0.8-0.6 1.2-0.9l0-2.8 3.6-0.8L150.2 219.4 150.2 219.4zM151.7 227L151.7 227c-0.3-1.2-1.4-1.9-2.6-1.6 -1.2 0.3-1.9 1.4-1.6 2.6 0.3 1.2 1.4 1.9 2.6 1.6C151.2 229.3 151.9 228.2 151.7 227z"/>
    <path class="st15" d="M362.5 382.7c0.5 0 1 0.1 1.4 0.3l1.9-1.9 3 1.9 -0.9 2.6c0.3 0.4 0.6 0.8 0.8 1.2l2.7 0 0.8 3.5 -2.5 1.1c0 0.5-0.1 1-0.2 1.4l1.9 1.9 -1.9 3 -2.6-0.9c-0.4 0.3-0.8 0.6-1.2 0.8l0 2.7 -3.5 0.8 -1.1-2.5c-0.5 0-1-0.1-1.4-0.2l-1.9 1.9 -3-1.9 0.9-2.6c-0.3-0.4-0.6-0.8-0.8-1.2l-2.7 0 -0.8-3.5 2.5-1.1c0-0.5 0.1-1 0.2-1.4l-1.9-1.9 1.9-3 2.6 0.9c0.4-0.3 0.8-0.6 1.2-0.8l0-2.7 3.5-0.8L362.5 382.7 362.5 382.7zM360.6 384.7L360.6 384.7c-3.3 0.7-5.3 4-4.6 7.3 0.7 3.3 4 5.3 7.2 4.6 3.3-0.7 5.3-4 4.6-7.2C367.1 386 363.9 383.9 360.6 384.7z"/>
    <path class="st15" d="M535.4 237c0.5 0 1.1 0.1 1.6 0.3l2.1-2.1 3.3 2.1 -1 2.8c0.3 0.4 0.7 0.8 0.9 1.3l3 0 0.9 3.8 -2.7 1.3c0 0.5-0.1 1.1-0.3 1.6l2.1 2.1 -2.1 3.3 -2.8-1c-0.4 0.3-0.9 0.7-1.3 0.9l0 3 -3.8 0.9 -1.3-2.7c-0.5 0-1.1-0.1-1.6-0.3l-2.1 2.1 -3.3-2.1 1-2.8c-0.3-0.4-0.7-0.9-0.9-1.3l-3 0 -0.9-3.8 2.7-1.3c0-0.5 0.1-1.1 0.3-1.6l-2.1-2.1 2.1-3.3 2.8 1c0.4-0.3 0.8-0.7 1.3-0.9l0-3 3.8-0.9L535.4 237 535.4 237zM533.2 239.3L533.2 239.3c-3.6 0.8-5.9 4.4-5.1 8.1 0.8 3.6 4.4 5.9 8.1 5.1 3.6-0.8 5.9-4.4 5.1-8.1C540.4 240.7 536.8 238.4 533.2 239.3z"/>
    <path class="st14" d="M293.3 48.9c0.6 0.1 1.3 0.2 1.9 0.3l2.5-2.6 4 2.5 -1.2 3.4c0.4 0.5 0.8 1 1.1 1.6l3.6 0 1 4.6 -3.3 1.5c-0.1 0.6-0.2 1.3-0.3 1.9l2.6 2.5 -2.5 4 -3.4-1.2c-0.5 0.4-1 0.8-1.6 1.1l0 3.6 -4.6 1 -1.5-3.3c-0.6-0.1-1.3-0.2-1.9-0.3l-2.5 2.6 -4-2.5 1.2-3.4c-0.4-0.5-0.8-1-1.1-1.6l-3.6 0 -1-4.6 3.3-1.5c0.1-0.6 0.2-1.3 0.3-1.9l-2.6-2.5 2.5-4 3.4 1.2c0.5-0.4 1-0.8 1.6-1.1l0-3.6 4.6-1L293.3 48.9 293.3 48.9zM290.7 51.6L290.7 51.6c-4.3 1-7.1 5.3-6.1 9.6 1 4.3 5.3 7.1 9.6 6.1 4.3-1 7.1-5.3 6.1-9.6C299.4 53.3 295.1 50.6 290.7 51.6z"/>
    <path class="st10" d="M259.7 403.8c-14.7-6.5-28.4-14.8-40.8-24.9 -12.4-10-23.4-21.7-32.7-34.8 -9.1-12.7-16.5-26.6-21.9-41.1 -5.5-14.5-9-29.8-10.6-45.4l1.6-0.2c1.5 15.4 5 30.6 10.5 45 5.4 14.4 12.7 28.1 21.7 40.7 9.3 12.9 20.2 24.5 32.4 34.5 12.3 9.9 25.8 18.3 40.4 24.6L259.7 403.8z"/>
    <path class="st11" d="M483.5 146.5c-0.2-0.4-0.2-0.8 0.2-1.1 0.4-0.3 0.8-0.2 1.1 0.2 4.3 6.1 8.2 12.4 11.8 19 3.5 6.6 6.6 13.4 9.3 20.3 3.7 9.5 6.5 19.4 8.5 29.4 2 10 3.1 20.2 3.3 30.4 0 0.4-0.3 0.8-0.8 0.8 -0.4 0-0.8-0.3-0.8-0.8 -0.2-10.1-1.4-20.2-3.3-30.1 -2-9.9-4.8-19.7-8.4-29.1 -2.7-6.9-5.7-13.7-9.2-20.2C491.7 158.8 487.8 152.5 483.5 146.5z"/>
    <polygon class="st11" points="477.9 137.8 479.1 153.5 492.7 143.7 "/>
    <path class="st15" d="M371.3 67.7l-0.3 4.4c-15.5-1.3-31.1-0.6-46.3 2.1 -15.3 2.7-30.2 7.4-44.4 14 -6.8 3.1-13.3 6.7-19.6 10.7 -6.3 4-12.4 8.3-18.1 13.1 -0.3 0.3-0.4 0.8-0.1 1.1 0.3 0.3 0.8 0.4 1.1 0.1 5.7-4.7 11.7-9 18-13 6.2-3.9 12.7-7.5 19.5-10.6 14.1-6.6 28.9-11.2 44-13.9 15.1-2.7 30.5-3.4 45.9-2.1l-0.4 4.8 10.2-5.2L371.3 67.7z"/>
    <path class="st15" d="M240.3 52.9l2 3.9c-14 6.8-27 15.4-38.7 25.5 -11.8 10.1-22.2 21.8-31 34.8 -4.2 6.2-8 12.6-11.4 19.2 -3.4 6.7-6.4 13.5-8.9 20.5 -0.1 0.4 0.1 0.9 0.5 1 0.4 0.1 0.9-0.1 1-0.5 2.5-7 5.5-13.8 8.8-20.3 3.4-6.6 7.1-12.9 11.3-19.1 8.7-12.8 19.1-24.4 30.7-34.5 11.6-10 24.5-18.5 38.4-25.2l2.2 4.3 6.1-9.7L240.3 52.9z"/>
    <path class="st15" d="M134.6 309l4.2-1.4c4.8 14.8 11.6 28.9 20 41.8 8.5 13 18.6 24.9 30.2 35.4 5.5 5 11.4 9.6 17.5 13.9 6.1 4.3 12.5 8.1 19.1 11.6 0.4 0.2 0.9 0.1 1.1-0.3 0.2-0.4 0.1-0.9-0.3-1.1 -6.6-3.4-12.9-7.3-19-11.5 -6.1-4.2-11.9-8.8-17.4-13.8 -11.5-10.4-21.6-22.2-30-35.1 -8.3-12.8-15-26.8-19.8-41.5l4.6-1.6 -8.8-7.4L134.6 309z"/>
    <path class="st12" d="M457 395.4l-2.3-3.6c12.9-8.1 24.6-17.8 34.9-28.9 10.3-11.1 19.2-23.6 26.4-37.1 3.4-6.4 6.4-13.1 9-19.9 2.6-6.8 4.8-13.8 6.5-20.9 0.1-0.4-0.2-0.8-0.6-0.9 -0.4-0.1-0.8 0.2-0.9 0.6 -1.7 7.1-3.8 14-6.4 20.7 -2.6 6.7-5.5 13.3-9 19.7 -7.1 13.4-15.9 25.8-26.2 36.8 -10.2 11-21.8 20.6-34.6 28.6l-2.6-4 -4.9 10.1L457 395.4z"/>
    <polygon class="st10" points="519.8 256.6 509.4 268.3 525.8 271.3 "/>
    <polygon class="st11" points="180.1 264.1 164.9 267.9 176.7 279.7 "/>
    <polygon class="st10" points="153.4 245.1 146.4 259.2 163.1 257.8 "/>
    <path class="st11" d="M184.1 88.4c0.5 0 0.9 0.1 1.4 0.2l1.8-1.8 2.8 1.8 -0.9 2.4c0.3 0.3 0.6 0.7 0.8 1.1l2.6 0 0.7 3.3 -2.3 1.1c0 0.5-0.1 0.9-0.2 1.4l1.8 1.8 -1.8 2.8 -2.4-0.9c-0.3 0.3-0.7 0.6-1.1 0.8l0 2.6 -3.3 0.7 -1.1-2.3c-0.5 0-0.9-0.1-1.4-0.2l-1.8 1.8 -2.8-1.8 0.9-2.4c-0.3-0.3-0.6-0.7-0.8-1.1l-2.6 0 -0.7-3.3 2.3-1.1c0-0.5 0.1-0.9 0.2-1.4l-1.8-1.8 1.8-2.8 2.4 0.9c0.3-0.3 0.7-0.6 1.1-0.8l0-2.6 3.3-0.7L184.1 88.4 184.1 88.4zM185.4 95.5L185.4 95.5c-0.2-1.1-1.3-1.7-2.4-1.5 -1.1 0.2-1.7 1.3-1.5 2.4 0.2 1.1 1.3 1.7 2.4 1.5C185 97.6 185.7 96.6 185.4 95.5z"/>
    <path class="st10" d="M195.6 347.5c0.6 0.1 1.3 0.2 1.9 0.3l2.5-2.6 4 2.5 -1.2 3.4c0.4 0.5 0.8 1 1.1 1.6l3.6 0 1 4.6 -3.3 1.5c-0.1 0.7-0.2 1.3-0.3 1.9l2.6 2.5 -2.5 4 -3.4-1.2c-0.5 0.4-1 0.8-1.6 1.1l0 3.6 -4.6 1 -1.5-3.3c-0.6-0.1-1.3-0.2-1.9-0.3l-2.5 2.6 -4-2.5 1.2-3.4c-0.4-0.5-0.8-1-1.1-1.6l-3.6 0 -1-4.6 3.3-1.5c0.1-0.6 0.2-1.3 0.3-1.9l-2.6-2.5 2.5-4 3.4 1.2c0.5-0.4 1-0.8 1.6-1.1l0-3.6 4.6-1L195.6 347.5 195.6 347.5zM193 350.1L193 350.1c-4.3 1-7.1 5.3-6.1 9.6 1 4.3 5.3 7.1 9.6 6.1 4.3-1 7.1-5.3 6.1-9.6C201.7 351.9 197.4 349.2 193 350.1z"/>
    <polygon class="st16" points="426.3 403.9 475.1 346 458 331.6 409.2 389.5 "/>
    <path class="st16" d="M372.7 389c15.9 13.4 39.7 11.3 53.1-4.6l26.8-31.8c13.4-15.9 11.3-39.6-4.6-53l-22.5-18.9c-15.9-13.4-39.7-11.3-53.1 4.6l-26.8 31.8c-13.4 15.9-11.3 39.6 4.6 53L372.7 389z"/>
    <path class="st17" d="M403.5 297.6c6.8 5.7 16.2 5.7 21 0l0 0c4.8-5.7 3.2-15-3.6-20.7L350.9 218c-6.8-5.7-16.2-5.7-21 0l0 0c-4.8 5.7-3.2 15 3.6 20.7L403.5 297.6z"/>
    <path class="st16" d="M376.8 314.3c4.4 3.7 11.9 2.1 16.7-3.6l0 0c4.8-5.7 5.1-13.4 0.7-17.1l-36.6-30.8c-4.4-3.7-11.9-2.1-16.7 3.6l0 0c-4.8 5.7-5.1 13.4-0.7 17.1L376.8 314.3z"/>
    <path class="st17" d="M356.9 338c4.4 3.7 11.9 2.1 16.7-3.7l0 0c4.8-5.7 5.1-13.3 0.8-17l-36.3-30.5c-4.4-3.7-11.9-2.1-16.7 3.7l0 0c-4.8 5.7-5.1 13.3-0.8 17L356.9 338z"/>
    <path class="st17" d="M342 359.3c3.4 2.9 9.3 1.6 13-2.9l0 0c3.8-4.5 4-10.4 0.6-13.3l-28.4-23.9c-3.4-2.9-9.3-1.6-13 2.9l0 0c-3.8 4.5-4 10.4-0.6 13.3L342 359.3z"/>
    <polygon class="st18" points="431.2 420.6 492.1 348.3 473.8 332.9 412.9 405.2 "/>
    <path class="st19" d="M472.4 353.3c-2.6-2.1-2.9-5.9-0.7-8.5 2.1-2.5 5.9-2.9 8.5-0.7 2.5 2.1 2.9 5.9 0.7 8.5C478.8 355.1 475 355.4 472.4 353.3z"/>
    <polygon class="st20" points="424 425.5 492.6 482.4 674.9 482.4 495.7 340.4 "/>
    <path class="st20" d="M257.1 131.9v215 18.2c0 7.3 4.7 13.1 10.6 13.1h116.2c5.8 0 10.6-5.9 10.6-13.1V347v-215c0-7.3-4.7-13.1-10.6-13.1H267.6C261.8 118.8 257.1 124.7 257.1 131.9zM264 149.1h124.4v190H264V149.1z"/>
    <path class="st21" d="M257.1 131.9v215 18.2c0 7.3 4.7 13.1 10.6 13.1h116.2c5.8 0 10.6-5.9 10.6-13.1V347v-215c0-7.3-4.7-13.1-10.6-13.1H267.6C261.8 118.8 257.1 124.7 257.1 131.9zM264 149.1h124.4v190H264V149.1z"/>
    <path class="st22" d="M314.1 357.9c0-6.4 5.2-11.6 11.7-11.6 6.4 0 11.7 5.2 11.7 11.6 0 6.5-5.2 11.7-11.7 11.7C319.3 369.6 314.1 364.4 314.1 357.9z"/>
    <rect x="264" y="149.1" class="st18" width="124.4" height="190"/>
    <rect x="262.8" y="147.2" class="st23" width="125.8" height="192.3"/>
    <g class="st24">
        <polygon class="st25" points="388.6 339.5 388.6 147.2 262.8 147.2 "/>
    </g>
    <polygon class="st16" points="164.6 401.3 220.6 436.2 230.9 419.7 174.9 384.7 "/>
    <path class="st16" d="M170.9 353.2c-9.6 15.4-4.9 35.6 10.4 45.2l30.7 19.2c15.4 9.6 35.6 4.9 45.2-10.4l13.6-21.7c9.6-15.4 4.9-35.6-10.4-45.2L229.7 321c-15.4-9.6-35.6-4.9-45.3 10.4L170.9 353.2z"/>
    <path class="st16" d="M253.6 368.6c-4.1 6.6-3 14.7 2.6 18.1l0 0c5.5 3.5 13.3 0.9 17.4-5.6l42.3-67.6c4.1-6.6 3-14.7-2.6-18.1l0 0c-5.5-3.4-13.3-0.9-17.4 5.6L253.6 368.6z"/>
    <path class="st16" d="M227.1 398.9c-7.2 2.9-10.5 11.3-7.5 18.7l0 0c3 7.4 11.3 11.1 18.5 8.1l59.2-24.2c7.2-2.9 10.5-11.3 7.5-18.7l0 0c-3-7.4-11.3-11.1-18.5-8.1L227.1 398.9z"/>
    <path class="st16" d="M236 347.6c-2.7 4.3-0.4 10.5 5.2 14l0 0c5.5 3.5 12.2 2.8 14.9-1.5l22.1-35.3c2.7-4.3 0.4-10.5-5.2-14l0 0c-5.5-3.4-12.2-2.8-14.9 1.5L236 347.6z"/>
    <path class="st16" d="M213 333.4c-2.7 4.2-0.3 10.5 5.2 13.9l0 0c5.5 3.5 12.2 2.8 14.8-1.4l21.9-35c2.7-4.2 0.3-10.5-5.2-13.9l0 0c-5.5-3.5-12.2-2.8-14.8 1.4L213 333.4z"/>
    <path class="st16" d="M192.8 323.1c-2.1 3.3-0.3 8.2 4.1 10.9l0 0c4.3 2.7 9.5 2.2 11.6-1.1l17.1-27.4c2.1-3.3 0.3-8.2-4.1-10.9l0 0c-4.3-2.7-9.5-2.2-11.6 1.1L192.8 323.1z"/>
    <polygon class="st18" points="150.7 407.5 220.6 451.2 231.7 433.5 161.8 389.8 "/>
    <path class="st19" d="M214 434.8c1.5-2.5 4.8-3.2 7.2-1.7 2.5 1.5 3.2 4.8 1.7 7.2 -1.5 2.5-4.8 3.2-7.2 1.7C213.2 440.5 212.4 437.3 214 434.8z"/>
    <polygon class="st20" points="93.6 482.4 209.7 482.4 228 453.4 145.6 401.9 "/>
    <path class="st16" d="M413.4 308.8c5.4 5.8 14.8 5.8 21.1 0l0 0c6.2-5.8 6.9-15.2 1.5-21L391.3 240c-5.4-5.8-14.8-5.8-21.1 0l0 0c-6.2 5.8-6.9 15.2-1.5 21L413.4 308.8z"/>
    <path class="st26" d="M176.7 137.1c0.8 2.8-0.8 5.8-3.6 6.7l-91.9 27.5c-2.8 0.8-6.1-0.7-7-3.5 0 0-16-53.6-16.9-56.3 -0.8-2.7 1.9-3.5 1.9-3.5l97-29c0 0 2.7-0.8 3.5 1.9C160.7 83.4 176.7 137.1 176.7 137.1z"/>
    <path class="st27" d="M164.5 76.4L51.2 110.3c0 0-2.7 0.8-3.5-1.9 -0.8-2.7 1.9-3.5 1.9-3.5L162.8 71c0 0 2.7-0.8 3.5 1.9C167.2 75.6 164.5 76.4 164.5 76.4z"/>
    <path class="st28" d="M160.6 83.1l-90.5 70.5c0 0-11.8-39.5-12.7-42.2 -0.8-2.7 1.9-3.5 1.9-3.5l97-29c0 0 2.7-0.8 3.5 1.9C160.7 83.4 160.6 83.1 160.6 83.1z"/>
    <rect x="108.8" y="138.9" transform="matrix(0.958 -0.2868 0.2868 0.958 -36.713 41.5431)" class="st27" width="29.2" height="14.5"/>
    <rect x="75.4" y="113.1" transform="matrix(0.9579 -0.2869 0.2869 0.9579 -29.7129 27.2821)" class="st27" width="5.7" height="3.8"/>
    <rect x="77.3" y="118.8" transform="matrix(0.9581 -0.2866 0.2866 0.9581 -31.4556 28.0699)" class="st27" width="5.7" height="5.3"/>
    <rect x="79.5" y="125.5" transform="matrix(0.958 -0.2868 0.2868 0.958 -33.3062 29.5487)" class="st27" width="9.4" height="6"/>
    <rect x="81.6" y="132.4" transform="matrix(0.958 -0.2868 0.2868 0.958 -35.0406 31.0129)" class="st27" width="13.5" height="5.3"/>
    <rect x="84.6" y="116.6" transform="matrix(0.958 -0.2868 0.2868 0.958 -30.5353 30.1216)" class="st27" width="6" height="5.3"/>
    <rect x="90.4" y="122.7" transform="matrix(0.958 -0.2869 0.2869 0.958 -32.1419 32.0807)" class="st27" width="6" height="6"/>
    <rect x="96.5" y="129.1" transform="matrix(0.958 -0.2868 0.2868 0.958 -33.6139 34.0659)" class="st27" width="6" height="5.3"/>
    <rect x="103.7" y="127" transform="matrix(0.958 -0.2868 0.2868 0.958 -32.7109 36.0093)" class="st27" width="5.7" height="5.3"/>
    <rect x="111.3" y="124.7" transform="matrix(0.958 -0.2866 0.2866 0.958 -31.7346 38.0518)" class="st27" width="5.7" height="5.3"/>
    <rect x="118.5" y="122.6" transform="matrix(0.958 -0.2868 0.2868 0.958 -30.8282 40.0635)" class="st27" width="5.7" height="5.3"/>
    <rect x="126" y="120.3" transform="matrix(0.958 -0.2868 0.2868 0.958 -29.8584 42.1151)" class="st27" width="5.7" height="5.3"/>
    <rect x="132.9" y="118.2" transform="matrix(0.958 -0.2868 0.2868 0.958 -28.9562 44.0607)" class="st27" width="6" height="5.3"/>
    <rect x="140.3" y="114.9" transform="matrix(0.958 -0.2868 0.2868 0.958 -27.5328 47.1201)" class="st27" width="13.5" height="5.3"/>
    <rect x="98" y="120.5" transform="matrix(0.958 -0.2867 0.2867 0.958 -31.1796 34.0772)" class="st27" width="5.7" height="6"/>
    <rect x="105.2" y="118.3" transform="matrix(0.958 -0.2869 0.2869 0.958 -30.2591 36.1363)" class="st27" width="6" height="6"/>
    <rect x="112.7" y="116.1" transform="matrix(0.958 -0.2869 0.2869 0.958 -29.3148 38.1601)" class="st27" width="5.7" height="6"/>
    <rect x="119.9" y="113.9" transform="matrix(0.958 -0.2867 0.2867 0.958 -28.3526 40.1483)" class="st27" width="6" height="6"/>
    <rect x="127.5" y="111.7" transform="matrix(0.958 -0.2867 0.2867 0.958 -27.4128 42.178)" class="st27" width="5.7" height="6"/>
    <rect x="134.7" y="109.5" transform="matrix(0.958 -0.2867 0.2867 0.958 -26.4691 44.1996)" class="st27" width="6" height="6"/>
    <rect x="142.2" y="106.7" transform="matrix(0.958 -0.2868 0.2868 0.958 -25.2976 46.7251)" class="st27" width="9.4" height="6"/>
    <rect x="92.1" y="114.4" transform="matrix(0.958 -0.2867 0.2867 0.958 -29.5569 32.1636)" class="st27" width="6" height="5.3"/>
    <rect x="99.3" y="112.2" transform="matrix(0.9581 -0.2866 0.2866 0.9581 -28.6451 34.0913)" class="st27" width="5.7" height="5.3"/>
    <rect x="106.8" y="110" transform="matrix(0.958 -0.2868 0.2868 0.958 -27.7003 36.1845)" class="st27" width="5.7" height="5.3"/>
    <rect x="114.1" y="107.8" transform="matrix(0.958 -0.2868 0.2868 0.958 -26.7803 38.175)" class="st27" width="5.7" height="5.3"/>
    <rect x="121.6" y="105.6" transform="matrix(0.958 -0.2867 0.2867 0.958 -25.8069 40.2167)" class="st27" width="5.7" height="5.3"/>
    <rect x="128.5" y="103.4" transform="matrix(0.958 -0.2868 0.2868 0.958 -24.9098 42.1743)" class="st27" width="6" height="5.3"/>
    <rect x="135.9" y="100.1" transform="matrix(0.958 -0.2869 0.2869 0.958 -23.4915 45.2494)" class="st27" width="13.5" height="5.3"/>
    <rect x="83.9" y="140.5" transform="matrix(0.958 -0.2868 0.2868 0.958 -37.504 30.9046)" class="st27" width="5.7" height="6"/>
    <rect x="91.1" y="138.3" transform="matrix(0.958 -0.2868 0.2868 0.958 -36.5558 32.9224)" class="st27" width="6" height="6"/>
    <rect x="98" y="131.7" transform="matrix(0.958 -0.2868 0.2868 0.958 -33.7303 38.9983)" class="st27" width="36.5" height="6"/>
    <rect x="135.1" y="125.1" transform="matrix(0.958 -0.2868 0.2868 0.958 -30.9368 44.9822)" class="st27" width="6" height="6"/>
    <rect x="142.6" y="122.9" transform="matrix(0.958 -0.2868 0.2868 0.958 -29.9777 47.0546)" class="st27" width="6" height="6"/>
    <rect x="150.2" y="120.7" transform="matrix(0.958 -0.2866 0.2866 0.958 -29.0193 49.0415)" class="st27" width="5.7" height="6"/>
    <rect x="82.6" y="110.9" transform="matrix(0.958 -0.2869 0.2869 0.958 -28.7676 29.3045)" class="st27" width="6" height="3.8"/>
    <rect x="90.1" y="108.7" transform="matrix(0.958 -0.2867 0.2867 0.958 -27.7894 31.347)" class="st27" width="6" height="3.8"/>
    <rect x="97.4" y="106.5" transform="matrix(0.958 -0.2869 0.2869 0.958 -26.8969 33.3084)" class="st27" width="5.7" height="3.8"/>
    <rect x="104.9" y="104.3" transform="matrix(0.958 -0.2866 0.2866 0.958 -25.9144 35.3371)" class="st27" width="5.7" height="3.8"/>
    <rect x="112.1" y="102.1" transform="matrix(0.958 -0.2868 0.2868 0.958 -24.999 37.3352)" class="st27" width="5.7" height="3.8"/>
    <rect x="119.7" y="99.9" transform="matrix(0.958 -0.2866 0.2866 0.958 -24.0296 39.3834)" class="st27" width="5.7" height="3.8"/>
    <rect x="126.6" y="97.8" transform="matrix(0.958 -0.2868 0.2868 0.958 -23.1374 41.355)" class="st27" width="6" height="3.8"/>
    <rect x="134.1" y="95.5" transform="matrix(0.958 -0.2867 0.2867 0.958 -22.1671 43.3983)" class="st27" width="6" height="3.8"/>
    <rect x="141.7" y="93.3" transform="matrix(0.958 -0.2868 0.2868 0.958 -21.2292 45.4385)" class="st27" width="5.7" height="3.8"/>
    <rect x="82.8" y="93.3" transform="matrix(0.958 -0.2868 0.2868 0.958 -22.6139 35.0202)" class="st26" width="50.9" height="2.8"/>
    <polygon class="st27" points="477.7 173.5 538.3 144.3 514.5 94.9 453.9 124.2 "/>
    <path class="st21" d="M446.8 127.6l23.8 49.3c1 2.1 3.5 2.9 5.6 1.9l67.7-32.7c2.1-1 2.9-3.5 1.9-5.6L522 91.3c-1-2.1-3.5-2.9-5.6-1.9L448.8 122C446.7 123 445.8 125.5 446.8 127.6zM514.5 94.9l23.8 49.3c0 0-60.6 29.3-60.6 29.3 0 0-23.8-49.3-23.8-49.3L514.5 94.9z"/>
    <g class="st9">
        <rect x="523.9" y="116.7" transform="matrix(-0.4349 -0.9005 0.9005 -0.4349 654.6783 646.4158)" class="st26" width="12.5" height="2.1"/>
    </g>
    <rect x="524.8" y="137" transform="matrix(-0.4349 -0.9005 0.9005 -0.4349 628.2717 679.5432)" class="st23" width="5.2" height="11.2"/>
    <rect x="517.9" y="127.5" transform="matrix(-0.4349 -0.9005 0.9005 -0.4349 623.7624 664.7431)" class="st23" width="5.2" height="18.4"/>
    <rect x="516.5" y="121.1" transform="matrix(-0.4347 -0.9006 0.9006 -0.4347 629.3098 650.7433)" class="st23" width="4.8" height="13.6"/>
    <rect x="508.6" y="110.8" transform="matrix(-0.4353 -0.9003 0.9003 -0.4353 623.8248 635.3863)" class="st23" width="5.2" height="22.4"/>
    <rect x="507.6" y="105" transform="matrix(-0.4347 -0.9006 0.9006 -0.4347 630.1384 621.8835)" class="st23" width="5.2" height="16.4"/>
    <rect x="499.4" y="94.3" transform="matrix(-0.4349 -0.9005 0.9005 -0.4349 623.1096 606.4169)" class="st23" width="4.8" height="26.8"/>
    <path class="st29" d="M509.9 153c0.2 0.3 0.1 0.7-0.1 1.1 -0.3 0.5-1 0.6-1.5 0.3l-16-10.8c-0.5-0.3-0.6-1-0.3-1.5 0.3-0.5 1-0.6 1.5-0.3l16 10.8C509.7 152.7 509.8 152.8 509.9 153z"/>
    <path class="st29" d="M495.7 130.2c0.2 0.3 0.1 0.7-0.1 1.1 -0.3 0.5-1 0.6-1.5 0.3l-18.1-12.1c-0.5-0.3-0.6-1-0.3-1.5 0.3-0.5 1-0.6 1.5-0.3l18.1 12.1C495.5 129.9 495.7 130 495.7 130.2z"/>
    <path class="st29" d="M495.7 130.2c0.1 0.2 0.1 0.4 0.1 0.6l-1.9 12c-0.1 0.6-0.6 1-1.2 0.9 -0.6-0.1-1-0.6-0.9-1.2l1.9-12c0.1-0.6 0.6-1 1.2-0.9C495.3 129.6 495.6 129.9 495.7 130.2z"/>
    <rect x="476.9" y="155.8" transform="matrix(-0.4349 -0.9005 0.9005 -0.4349 546.3081 666.0176)" class="st20" width="10.4" height="11.6"/>
    <rect x="466.7" y="150.4" transform="matrix(-0.4349 -0.9005 0.9005 -0.4349 541.3253 643.3274)" class="st26" width="11.6" height="2.8"/>
    <rect x="473" y="149.9" transform="matrix(-0.4348 -0.9005 0.9005 -0.4348 548.4053 646.8449)" class="st26" width="8.4" height="2.8"/>
    <rect x="461.2" y="126" transform="matrix(-0.4348 -0.9005 0.9005 -0.4348 553.3339 602.1027)" class="st26" width="8.8" height="2.8"/>
    <rect x="464.1" y="138.1" transform="matrix(-0.4348 -0.9005 0.9005 -0.4348 550.8278 624.6443)" class="st26" width="14.8" height="2.8"/>
    <rect x="479.5" y="149.6" transform="matrix(-0.435 -0.9004 0.9004 -0.435 555.5667 650.6807)" class="st26" width="4.8" height="2.8"/>
    <rect x="473" y="141.5" transform="matrix(-0.4347 -0.9006 0.9006 -0.4347 557.0969 635.5624)" class="st26" width="10" height="2.8"/>
    <rect x="465.9" y="141.6" transform="matrix(-0.4347 -0.9006 0.9006 -0.4347 543.0817 626.8525)" class="st26" width="4.8" height="2.8"/>
    <rect x="455.3" y="131" transform="matrix(-0.4348 -0.9005 0.9005 -0.4348 545.3105 606.997)" class="st26" width="15.6" height="2.8"/>
    <path class="st30" d="M446.8 127.6l13.2 27.3 69.8-47.4L522 91.3c-1-2.1-3.5-2.9-5.6-1.9L448.8 122C446.7 123 445.8 125.5 446.8 127.6z"/>
</svg>
