<?xml version="1.0" standalone="no"?>
<?xml-stylesheet type="text/css" media="screen" href="../css/style.css"?>
<svg
    class="grafico_apps" xmlns="http://www.w3.org/2000/svg" version="1.1" viewBox="0 0 1100 486" xml:space="preserve">
    
      <text transform="matrix(1 0 0 1 607.77 232.0742)">
          <tspan x="0" y="0" class="st0 st1">APP </tspan>
          <tspan x="94.9" y="0" class="st2 st1">DEVELOPMENT</tspan>
      </text>
      <text transform="matrix(1 0 0 1 635.4575 269.2627)" class="st3 st4">Dale un alcance masivo y bien estructurado a tu negocio con una APP móvil.</text>
     <g id="phone" style="cursor: pointer;" onclick="window.parent.slide_Servicios('app_VR');">
      <rect x="948.9" y="298.6" class="st5" width="71.2" height="19.2"/>
      <text transform="matrix(1 0 0 1 956.7461 312.1683)" class="st3 st6">LEER MÁS</text>
    </g>
      <path class="st7" d="M473.2 254.4c-2.4 0-4.8-1-6.7-2.8 -3.6-3.6-3.8-9.1-0.5-12.4l6.7-6.7c1.6-1.6 3.8-2.4 6.2-2.3 2.3 0.1 4.5 1.1 6.3 2.8 0.5 0.5 0.5 1.2 0 1.7 -0.5 0.5-1.2 0.5-1.7 0 -1.3-1.3-3-2.1-4.7-2.2 -1.7-0.1-3.3 0.5-4.4 1.6l-6.7 6.7c-2.4 2.4-2.1 6.5 0.5 9.1 2.7 2.7 6.7 2.9 9.1 0.5l6.7-6.7c0.5-0.5 1.2-0.5 1.7 0 0.5 0.5 0.5 1.2 0 1.7l-6.7 6.7C477.3 253.6 475.3 254.4 473.2 254.4z"/>
      <path class="st7" d="M486.4 241.2c-2.4 0-4.8-1-6.7-2.8 -0.5-0.5-0.5-1.2 0-1.7 0.5-0.5 1.2-0.5 1.7 0 2.7 2.7 6.7 2.9 9.1 0.5l6.7-6.7c2.4-2.4 2.1-6.4-0.5-9.1 -2.7-2.7-6.7-2.9-9.1-0.5l-6.7 6.7c-0.5 0.5-1.2 0.5-1.7 0 -0.5-0.5-0.5-1.2 0-1.7l6.7-6.7c3.3-3.3 8.8-3 12.4 0.5 3.6 3.6 3.8 9.1 0.5 12.4l-6.7 6.7C490.5 240.4 488.5 241.2 486.4 241.2z"/>
      <g class="st8">
          <path class="st7" d="M122.8 227.2l-16.7-7.8c-2.1-1-3.1-3.6-2.1-5.7l15.8-33.8c1-2.1 3.6-3.1 5.7-2.1l16.7 7.8c2.1 1 3.1 3.6 2.1 5.7l-15.8 33.8C127.5 227.3 125 228.2 122.8 227.2zM124.3 180.4c-0.7-0.3-1.6 0-1.9 0.7l-15.8 33.8c-0.3 0.7 0 1.6 0.7 1.9l16.7 7.8c0.7 0.3 1.6 0 1.9-0.7l15.8-33.8c0.3-0.7 0-1.6-0.7-1.9L124.3 180.4z"/>
          <path class="st7" d="M119.7 218.4c1-1.6 0.3-3.7-1.5-4.2 -1.1-0.3-2.4 0.1-3 1.1 -1 1.6-0.3 3.7 1.5 4.2C117.8 219.9 119.1 219.4 119.7 218.4"/>
          <rect x="118.9" y="186.4" transform="matrix(0.9063 0.4226 -0.4226 0.9063 91.6494 -37.7735)" class="st7" width="24.2" height="2.9"/>
          <rect x="107.6" y="210.6" transform="matrix(0.9063 0.4227 -0.4227 0.9063 100.8307 -30.7355)" class="st7" width="24.2" height="2.9"/>
      </g>
      <g class="st9">
          <path class="st7" d="M502.6 69.7l-27.2 19.5c-2.4 1.7-5.7 1.2-7.4-1.2l-26.7-37.3c-1.7-2.4-1.2-5.7 1.2-7.4l27.2-19.5c2.4-1.7 5.7-1.2 7.4 1.2l26.7 37.3C505.5 64.7 505 68 502.6 69.7zM444.5 46.2c-0.8 0.6-1 1.7-0.4 2.5l26.7 37.3c0.6 0.8 1.7 1 2.5 0.4l27.2-19.5c0.8-0.6 1-1.7 0.4-2.5l-26.7-37.3c-0.6-0.8-1.7-1-2.5-0.4L444.5 46.2z"/>
          <path class="st7" d="M486.6 71.7c-0.8-1.6-2.9-2-4.2-0.7 -0.8 0.8-1 2.1-0.5 3.1 0.8 1.6 2.9 2 4.2 0.7C486.9 74 487.2 72.7 486.6 71.7"/>
          <rect x="440.6" y="38.5" transform="matrix(0.8124 -0.5831 0.5831 0.8124 62.9618 276.3111)" class="st7" width="40.6" height="3.5"/>
          <rect x="459.8" y="65.2" transform="matrix(0.8124 -0.5831 0.5831 0.8124 50.988 292.4834)" class="st7" width="40.6" height="3.5"/>
      </g>
      <path class="st7" d="M205.9 67.8h-21.1c-1.3 0-2.4-1.1-2.4-2.4V53.5c0-1.3 1.1-2.4 2.4-2.4h21.1c1.3 0 2.4 1.1 2.4 2.4v11.9C208.3 66.7 207.3 67.8 205.9 67.8zM184.8 52.7c-0.4 0-0.8 0.4-0.8 0.8v11.9c0 0.4 0.4 0.8 0.8 0.8h21.1c0.4 0 0.8-0.4 0.8-0.8V53.5c0-0.4-0.4-0.8-0.8-0.8H184.8z"/>
      <path class="st7" d="M203.7 71.7H187c-0.4 0-0.8-0.3-0.8-0.8 0-0.4 0.3-0.8 0.8-0.8h16.7c0.4 0 0.8 0.3 0.8 0.8C204.5 71.4 204.1 71.7 203.7 71.7"/>
      <path class="st10" d="M519.4 269c-5.2 25.8-15.9 49.8-31 70.5 -15.2 20.7-34.8 38.2-57.8 50.9 -14.9 8.2-30.8 14.2-47.2 17.9 -16.4 3.7-33.4 5-50.4 3.9l0.1-1.6c16.8 1.1 33.6-0.3 49.9-3.9 16.3-3.6 32.1-9.6 46.8-17.7 22.8-12.6 42.3-29.9 57.3-50.4 15-20.5 25.7-44.3 30.8-69.9L519.4 269z"/>
      <path class="st11" d="M173.5 278c-3.9-14.6-5.9-29.7-6.1-44.7 -0.1-15 1.7-30.1 5.3-44.8 12-47.8 42.2-86.3 81.4-109.8 39.2-23.5 87.4-32 135.2-20.1 24.5 6.2 47.2 17.4 66.7 32.6 19.5 15.3 35.8 34.6 47.7 57l-1.4 0.7c-11.7-22.2-27.9-41.3-47.3-56.5 -19.3-15.1-41.8-26.3-66.1-32.4 -47.4-11.9-95.2-3.4-134 19.9 -38.9 23.3-68.8 61.4-80.7 108.8 -3.7 14.6-5.4 29.5-5.3 44.4 0.1 14.9 2.1 29.8 6 44.3L173.5 278z"/>
      <path class="st12" d="M174.2 165.3c0.7 0.1 1.4 0.2 2.1 0.4l2.8-2.8 4.3 2.7 -1.3 3.7c0.5 0.5 0.9 1.1 1.2 1.7l3.9 0 1.1 5 -3.6 1.7c-0.1 0.7-0.2 1.4-0.4 2.1l2.8 2.8 -2.7 4.3 -3.7-1.3c-0.5 0.5-1.1 0.9-1.7 1.2l0 3.9 -5 1.1 -1.7-3.6c-0.7-0.1-1.4-0.2-2.1-0.4l-2.8 2.8 -4.3-2.7 1.3-3.7c-0.5-0.5-0.9-1.1-1.2-1.7l-3.9 0 -1.1-5 3.6-1.7c0.1-0.7 0.2-1.4 0.4-2.1l-2.8-2.8 2.7-4.3 3.7 1.3c0.5-0.5 1.1-0.9 1.7-1.2l0-3.9 5-1.1L174.2 165.3 174.2 165.3zM176.2 176L176.2 176c-0.4-1.6-2-2.6-3.6-2.3 -1.6 0.4-2.6 2-2.3 3.6 0.4 1.6 2 2.6 3.6 2.3C175.6 179.2 176.6 177.6 176.2 176z"/>
      <path class="st13" d="M494.8 274.8c0.5 0 0.9 0.1 1.4 0.2l1.8-1.8 2.8 1.8 -0.9 2.4c0.3 0.3 0.6 0.7 0.8 1.1l2.6 0 0.7 3.3 -2.3 1.1c0 0.5-0.1 0.9-0.2 1.4l1.8 1.8 -1.8 2.8 -2.4-0.9c-0.3 0.3-0.7 0.6-1.1 0.8l0 2.6 -3.3 0.7 -1.1-2.3c-0.5 0-0.9-0.1-1.4-0.2l-1.8 1.8 -2.8-1.8 0.9-2.4c-0.3-0.3-0.6-0.7-0.8-1.1l-2.6 0 -0.7-3.3 2.3-1.1c0-0.5 0.1-0.9 0.2-1.4l-1.8-1.8 1.8-2.8 2.4 0.9c0.3-0.3 0.7-0.6 1.1-0.8l0-2.6 3.3-0.7L494.8 274.8 494.8 274.8zM496.1 281.9L496.1 281.9c-0.2-1.1-1.3-1.7-2.4-1.5 -1.1 0.2-1.7 1.3-1.5 2.4 0.2 1.1 1.3 1.7 2.4 1.5C495.7 284 496.4 282.9 496.1 281.9z"/>
      <path class="st12" d="M423.7 75.6c0.5 0 0.9 0.1 1.4 0.2l1.8-1.8 2.8 1.8 -0.9 2.4c0.3 0.3 0.6 0.7 0.8 1.1l2.6 0 0.7 3.3 -2.3 1.1c0 0.5-0.1 0.9-0.2 1.4l1.8 1.8 -1.8 2.8 -2.4-0.9c-0.3 0.3-0.7 0.6-1.1 0.8l0 2.6 -3.3 0.7 -1.1-2.3c-0.5 0-0.9-0.1-1.4-0.2l-1.8 1.8 -2.8-1.8 0.9-2.4c-0.3-0.3-0.6-0.7-0.8-1.1l-2.6 0 -0.7-3.3 2.3-1.1c0-0.5 0.1-0.9 0.2-1.4l-1.8-1.8 1.8-2.8 2.4 0.9c0.3-0.3 0.7-0.6 1.1-0.8l0-2.6 3.3-0.7L423.7 75.6 423.7 75.6zM425 82.7L425 82.7c-0.2-1.1-1.3-1.7-2.4-1.5 -1.1 0.2-1.7 1.3-1.5 2.4 0.2 1.1 1.3 1.7 2.4 1.5C424.6 84.8 425.2 83.8 425 82.7z"/>
      <path class="st14" d="M150.2 223c0.5 0 1 0.1 1.5 0.3l2-2 3.1 2 -1 2.6c0.3 0.4 0.6 0.8 0.9 1.2l2.8 0 0.8 3.6 -2.5 1.2c0 0.5-0.1 1-0.3 1.5l2 2 -2 3.1 -2.6-1c-0.4 0.3-0.8 0.6-1.2 0.9l0 2.8 -3.6 0.8 -1.2-2.5c-0.5 0-1-0.1-1.5-0.3l-2 2 -3.1-2 1-2.6c-0.3-0.4-0.6-0.8-0.9-1.2l-2.8 0 -0.8-3.6 2.5-1.2c0-0.5 0.1-1 0.3-1.5l-2-2 2-3.1 2.6 1c0.4-0.3 0.8-0.6 1.2-0.9l0-2.8 3.6-0.8L150.2 223 150.2 223zM151.7 230.7L151.7 230.7c-0.3-1.2-1.4-1.9-2.6-1.6 -1.2 0.3-1.9 1.4-1.6 2.6 0.3 1.2 1.4 1.9 2.6 1.6C151.2 233 151.9 231.8 151.7 230.7z"/>
      <path class="st15" d="M362.5 386.3c0.5 0 1 0.1 1.4 0.3l1.9-1.9 3 1.9 -0.9 2.6c0.3 0.4 0.6 0.8 0.8 1.2l2.7 0 0.8 3.5 -2.5 1.1c0 0.5-0.1 1-0.2 1.4l1.9 1.9 -1.9 3 -2.6-0.9c-0.4 0.3-0.8 0.6-1.2 0.8l0 2.7 -3.5 0.8 -1.1-2.5c-0.5 0-1-0.1-1.4-0.2l-1.9 1.9 -3-1.9 0.9-2.6c-0.3-0.4-0.6-0.8-0.8-1.2l-2.7 0 -0.8-3.5 2.5-1.1c0-0.5 0.1-1 0.2-1.4l-1.9-1.9 1.9-3 2.6 0.9c0.4-0.3 0.8-0.6 1.2-0.8l0-2.7 3.5-0.8L362.5 386.3 362.5 386.3zM360.6 388.3L360.6 388.3c-3.3 0.7-5.3 4-4.6 7.3 0.7 3.3 4 5.3 7.2 4.6 3.3-0.7 5.3-4 4.6-7.2C367.1 389.7 363.9 387.6 360.6 388.3z"/>
      <path class="st15" d="M535.4 240.7c0.5 0 1.1 0.1 1.6 0.3l2.1-2.1 3.3 2.1 -1 2.8c0.3 0.4 0.7 0.8 0.9 1.3l3 0 0.9 3.8 -2.7 1.3c0 0.5-0.1 1.1-0.3 1.6l2.1 2.1 -2.1 3.3 -2.8-1c-0.4 0.3-0.9 0.7-1.3 0.9l0 3 -3.8 0.9 -1.3-2.7c-0.5 0-1.1-0.1-1.6-0.3l-2.1 2.1 -3.3-2.1 1-2.8c-0.3-0.4-0.7-0.9-0.9-1.3l-3 0 -0.9-3.8 2.7-1.3c0-0.5 0.1-1.1 0.3-1.6l-2.1-2.1 2.1-3.3 2.8 1c0.4-0.3 0.8-0.7 1.3-0.9l0-3 3.8-0.9L535.4 240.7 535.4 240.7zM533.2 242.9L533.2 242.9c-3.6 0.8-5.9 4.4-5.1 8.1 0.8 3.6 4.4 5.9 8.1 5.1 3.6-0.8 5.9-4.4 5.1-8.1C540.4 244.4 536.8 242.1 533.2 242.9z"/>
      <path class="st14" d="M293.3 52.6c0.6 0.1 1.3 0.2 1.9 0.3l2.5-2.6 4 2.5 -1.2 3.4c0.4 0.5 0.8 1 1.1 1.6l3.6 0 1 4.6 -3.3 1.5c-0.1 0.6-0.2 1.3-0.3 1.9l2.6 2.5 -2.5 4 -3.4-1.2c-0.5 0.4-1 0.8-1.6 1.1l0 3.6 -4.6 1 -1.5-3.3c-0.6-0.1-1.3-0.2-1.9-0.3l-2.5 2.6 -4-2.5 1.2-3.4c-0.4-0.5-0.8-1-1.1-1.6l-3.6 0 -1-4.6 3.3-1.5c0.1-0.6 0.2-1.3 0.3-1.9l-2.6-2.5 2.5-4 3.4 1.2c0.5-0.4 1-0.8 1.6-1.1l0-3.6 4.6-1L293.3 52.6 293.3 52.6zM290.7 55.2L290.7 55.2c-4.3 1-7.1 5.3-6.1 9.6 1 4.3 5.3 7.1 9.6 6.1 4.3-1 7.1-5.3 6.1-9.6C299.4 57 295.1 54.2 290.7 55.2z"/>
      <path class="st10" d="M259.7 407.4c-14.7-6.5-28.4-14.8-40.8-24.9 -12.4-10-23.4-21.7-32.7-34.8 -9.1-12.7-16.5-26.6-21.9-41.1 -5.5-14.5-9-29.8-10.6-45.4l1.6-0.2c1.5 15.4 5 30.6 10.5 45 5.4 14.4 12.7 28.1 21.7 40.7 9.3 12.9 20.2 24.5 32.4 34.5 12.3 9.9 25.8 18.3 40.4 24.6L259.7 407.4z"/>
      <path class="st11" d="M483.5 150.1c-0.2-0.4-0.2-0.8 0.2-1.1 0.4-0.3 0.8-0.2 1.1 0.2 4.3 6.1 8.2 12.4 11.8 19 3.5 6.6 6.6 13.4 9.3 20.3 3.7 9.5 6.5 19.4 8.5 29.4 2 10 3.1 20.2 3.3 30.4 0 0.4-0.3 0.8-0.8 0.8 -0.4 0-0.8-0.3-0.8-0.8 -0.2-10.1-1.4-20.2-3.3-30.1 -2-9.9-4.8-19.7-8.4-29.1 -2.7-6.9-5.7-13.7-9.2-20.2C491.7 162.5 487.8 156.2 483.5 150.1z"/>
      <polygon class="st11" points="477.9 141.4 479.1 157.1 492.7 147.3 "/>
      <path class="st15" d="M371.3 71.4l-0.3 4.4c-15.5-1.3-31.1-0.6-46.3 2.1 -15.3 2.7-30.2 7.4-44.4 14 -6.8 3.1-13.3 6.7-19.6 10.7 -6.3 4-12.4 8.3-18.1 13.1 -0.3 0.3-0.4 0.8-0.1 1.1 0.3 0.3 0.8 0.4 1.1 0.1 5.7-4.7 11.7-9 18-13 6.2-3.9 12.7-7.5 19.5-10.6 14.1-6.6 28.9-11.2 44-13.9 15.1-2.7 30.5-3.4 45.9-2.1l-0.4 4.8 10.2-5.2L371.3 71.4z"/>
      <path class="st15" d="M240.3 56.6l2 3.9c-14 6.8-27 15.4-38.7 25.5 -11.8 10.1-22.2 21.8-31 34.8 -4.2 6.2-8 12.6-11.4 19.2 -3.4 6.7-6.4 13.5-8.9 20.5 -0.1 0.4 0.1 0.9 0.5 1 0.4 0.1 0.9-0.1 1-0.5 2.5-7 5.5-13.8 8.8-20.3 3.4-6.6 7.1-12.9 11.3-19.1 8.7-12.8 19.1-24.4 30.7-34.5 11.6-10 24.5-18.5 38.4-25.2l2.2 4.3 6.1-9.7L240.3 56.6z"/>
      <path class="st15" d="M134.6 312.6l4.2-1.4c4.8 14.8 11.6 28.9 20 41.8 8.5 13 18.6 24.9 30.2 35.4 5.5 5 11.4 9.6 17.5 13.9 6.1 4.3 12.5 8.1 19.1 11.6 0.4 0.2 0.9 0.1 1.1-0.3 0.2-0.4 0.1-0.9-0.3-1.1 -6.6-3.4-12.9-7.3-19-11.5 -6.1-4.2-11.9-8.8-17.4-13.8 -11.5-10.4-21.6-22.2-30-35.1 -8.3-12.8-15-26.8-19.8-41.5l4.6-1.6 -8.8-7.4L134.6 312.6z"/>
      <path class="st12" d="M457 399l-2.3-3.6c12.9-8.1 24.6-17.8 34.9-28.9 10.3-11.1 19.2-23.6 26.4-37.1 3.4-6.4 6.4-13.1 9-19.9 2.6-6.8 4.8-13.8 6.5-20.9 0.1-0.4-0.2-0.8-0.6-0.9 -0.4-0.1-0.8 0.2-0.9 0.6 -1.7 7.1-3.8 14-6.4 20.7 -2.6 6.7-5.5 13.3-9 19.7 -7.1 13.4-15.9 25.8-26.2 36.8 -10.2 11-21.8 20.6-34.6 28.6l-2.6-4 -4.9 10.1L457 399z"/>
      <polygon class="st10" points="519.8 260.2 509.4 271.9 525.8 274.9 "/>
      <polygon class="st11" points="180.1 267.8 164.9 271.5 176.7 283.3 "/>
      <polygon class="st10" points="153.4 248.8 146.4 262.8 163.1 261.4 "/>
      <path class="st11" d="M184.1 92.1c0.5 0 0.9 0.1 1.4 0.2l1.8-1.8 2.8 1.8 -0.9 2.4c0.3 0.3 0.6 0.7 0.8 1.1l2.6 0 0.7 3.3 -2.3 1.1c0 0.5-0.1 0.9-0.2 1.4l1.8 1.8 -1.8 2.8 -2.4-0.9c-0.3 0.3-0.7 0.6-1.1 0.8l0 2.6 -3.3 0.7 -1.1-2.3c-0.5 0-0.9-0.1-1.4-0.2l-1.8 1.8 -2.8-1.8 0.9-2.4c-0.3-0.3-0.6-0.7-0.8-1.1l-2.6 0 -0.7-3.3L176 99c0-0.5 0.1-0.9 0.2-1.4l-1.8-1.8 1.8-2.8 2.4 0.9c0.3-0.3 0.7-0.6 1.1-0.8l0-2.6 3.3-0.7L184.1 92.1 184.1 92.1zM185.4 99.1L185.4 99.1c-0.2-1.1-1.3-1.7-2.4-1.5 -1.1 0.2-1.7 1.3-1.5 2.4 0.2 1.1 1.3 1.7 2.4 1.5C185 101.3 185.7 100.2 185.4 99.1z"/>
      <path class="st10" d="M195.6 351.2c0.6 0.1 1.3 0.2 1.9 0.3l2.5-2.6 4 2.5 -1.2 3.4c0.4 0.5 0.8 1 1.1 1.6l3.6 0 1 4.6 -3.3 1.5c-0.1 0.7-0.2 1.3-0.3 1.9l2.6 2.5 -2.5 4 -3.4-1.2c-0.5 0.4-1 0.8-1.6 1.1l0 3.6 -4.6 1 -1.5-3.3c-0.6-0.1-1.3-0.2-1.9-0.3l-2.5 2.6 -4-2.5 1.2-3.4c-0.4-0.5-0.8-1-1.1-1.6l-3.6 0 -1-4.6 3.3-1.5c0.1-0.6 0.2-1.3 0.3-1.9l-2.6-2.5 2.5-4 3.4 1.2c0.5-0.4 1-0.8 1.6-1.1l0-3.6 4.6-1L195.6 351.2 195.6 351.2zM193 353.8L193 353.8c-4.3 1-7.1 5.3-6.1 9.6 1 4.3 5.3 7.1 9.6 6.1 4.3-1 7.1-5.3 6.1-9.6C201.7 355.5 197.4 352.8 193 353.8z"/>
      <polygon class="st16" points="426.3 407.5 475.1 349.6 458 335.3 409.2 393.1 "/>
      <path class="st16" d="M372.7 392.7c15.9 13.4 39.7 11.3 53.1-4.6l26.8-31.8c13.4-15.9 11.3-39.6-4.6-53l-22.5-18.9c-15.9-13.4-39.7-11.3-53.1 4.6l-26.8 31.8c-13.4 15.9-11.3 39.6 4.6 53L372.7 392.7z"/>
      <path class="st17" d="M403.5 301.3c6.8 5.7 16.2 5.7 21 0l0 0c4.8-5.7 3.2-15-3.6-20.7l-70.1-58.9c-6.8-5.7-16.2-5.7-21 0l0 0c-4.8 5.7-3.2 15 3.6 20.7L403.5 301.3z"/>
      <path class="st16" d="M376.8 317.9c4.4 3.7 11.9 2.1 16.7-3.6l0 0c4.8-5.7 5.1-13.4 0.7-17.1l-36.6-30.8c-4.4-3.7-11.9-2.1-16.7 3.6l0 0c-4.8 5.7-5.1 13.4-0.7 17.1L376.8 317.9z"/>
      <path class="st17" d="M356.9 341.7c4.4 3.7 11.9 2.1 16.7-3.7l0 0c4.8-5.7 5.1-13.3 0.8-17l-36.3-30.5c-4.4-3.7-11.9-2.1-16.7 3.7l0 0c-4.8 5.7-5.1 13.3-0.8 17L356.9 341.7z"/>
      <path class="st17" d="M342 363c3.4 2.9 9.3 1.6 13-2.9l0 0c3.8-4.5 4-10.4 0.6-13.3l-28.4-23.9c-3.4-2.9-9.3-1.6-13 2.9l0 0c-3.8 4.5-4 10.4-0.6 13.3L342 363z"/>
      <polygon class="st18" points="431.2 424.2 492.1 352 473.8 336.6 412.9 408.8 "/>
      <path class="st19" d="M472.4 356.9c-2.6-2.1-2.9-5.9-0.7-8.5 2.1-2.5 5.9-2.9 8.5-0.7 2.5 2.1 2.9 5.9 0.7 8.5C478.8 358.7 475 359 472.4 356.9z"/>
      <polygon class="st20" points="424 429.2 492.6 486 674.9 486 495.7 344 "/>
      <path class="st20" d="M257.1 135.6v215 18.2c0 7.3 4.7 13.1 10.6 13.1h116.2c5.8 0 10.6-5.9 10.6-13.1v-18.2 -215c0-7.3-4.7-13.1-10.6-13.1H267.6C261.8 122.5 257.1 128.3 257.1 135.6zM264 152.8h124.4v190H264V152.8z"/>
      <path class="st21" d="M257.1 135.6v215 18.2c0 7.3 4.7 13.1 10.6 13.1h116.2c5.8 0 10.6-5.9 10.6-13.1v-18.2 -215c0-7.3-4.7-13.1-10.6-13.1H267.6C261.8 122.5 257.1 128.3 257.1 135.6zM264 152.8h124.4v190H264V152.8z"/>
      <path class="st22" d="M314.1 361.6c0-6.4 5.2-11.6 11.7-11.6 6.4 0 11.7 5.2 11.7 11.6 0 6.5-5.2 11.7-11.7 11.7C319.3 373.2 314.1 368 314.1 361.6z"/>
      <rect x="264" y="152.8" class="st18" width="124.4" height="190"/>
      <rect x="262.8" y="150.9" class="st23" width="125.8" height="192.3"/>
      <g class="st24">
          <polygon class="st25" points="388.6 343.1 388.6 150.9 262.8 150.9 "/>
      </g>
      <polygon class="st16" points="164.6 404.9 220.6 439.9 230.9 423.4 174.9 388.4 "/>
      <path class="st16" d="M170.9 356.8c-9.6 15.4-4.9 35.6 10.4 45.2l30.7 19.2c15.4 9.6 35.6 4.9 45.2-10.4l13.6-21.7c9.6-15.4 4.9-35.6-10.4-45.2l-30.7-19.2c-15.4-9.6-35.6-4.9-45.3 10.4L170.9 356.8z"/>
      <path class="st16" d="M253.6 372.3c-4.1 6.6-3 14.7 2.6 18.1l0 0c5.5 3.5 13.3 0.9 17.4-5.6l42.3-67.6c4.1-6.6 3-14.7-2.6-18.1l0 0c-5.5-3.4-13.3-0.9-17.4 5.6L253.6 372.3z"/>
      <path class="st16" d="M227.1 402.5c-7.2 2.9-10.5 11.3-7.5 18.7l0 0c3 7.4 11.3 11.1 18.5 8.1l59.2-24.2c7.2-2.9 10.5-11.3 7.5-18.7l0 0c-3-7.4-11.3-11.1-18.5-8.1L227.1 402.5z"/>
      <path class="st16" d="M236 351.3c-2.7 4.3-0.4 10.5 5.2 14l0 0c5.5 3.5 12.2 2.8 14.9-1.5l22.1-35.3c2.7-4.3 0.4-10.5-5.2-14l0 0c-5.5-3.4-12.2-2.8-14.9 1.5L236 351.3z"/>
      <path class="st16" d="M213 337c-2.7 4.2-0.3 10.5 5.2 13.9l0 0c5.5 3.5 12.2 2.8 14.8-1.4l21.9-35c2.7-4.2 0.3-10.5-5.2-13.9l0 0c-5.5-3.5-12.2-2.8-14.8 1.4L213 337z"/>
      <path class="st16" d="M192.8 326.7c-2.1 3.3-0.3 8.2 4.1 10.9l0 0c4.3 2.7 9.5 2.2 11.6-1.1l17.1-27.4c2.1-3.3 0.3-8.2-4.1-10.9l0 0c-4.3-2.7-9.5-2.2-11.6 1.1L192.8 326.7z"/>
      <polygon class="st18" points="150.7 411.2 220.6 454.8 231.7 437.2 161.8 393.5 "/>
      <path class="st19" d="M214 438.5c1.5-2.5 4.8-3.2 7.2-1.7 2.5 1.5 3.2 4.8 1.7 7.2 -1.5 2.5-4.8 3.2-7.2 1.7C213.2 444.1 212.4 440.9 214 438.5z"/>
      <polygon class="st20" points="93.6 486 209.7 486 228 457 145.6 405.5 "/>
      <path class="st16" d="M413.4 312.5c5.4 5.8 14.8 5.8 21.1 0l0 0c6.2-5.8 6.9-15.2 1.5-21l-44.6-47.8c-5.4-5.8-14.8-5.8-21.1 0l0 0c-6.2 5.8-6.9 15.2-1.5 21L413.4 312.5z"/>
      <path class="st26" d="M176.7 140.7c0.8 2.8-0.8 5.8-3.6 6.7l-91.9 27.5c-2.8 0.8-6.1-0.7-7-3.5 0 0-16-53.6-16.9-56.3 -0.8-2.7 1.9-3.5 1.9-3.5l97-29c0 0 2.7-0.8 3.5 1.9C160.7 87.1 176.7 140.7 176.7 140.7z"/>
      <path class="st27" d="M164.5 80L51.2 113.9c0 0-2.7 0.8-3.5-1.9 -0.8-2.7 1.9-3.5 1.9-3.5l113.2-33.9c0 0 2.7-0.8 3.5 1.9C167.2 79.2 164.5 80 164.5 80z"/>
      <path class="st28" d="M160.6 86.8l-90.5 70.5c0 0-11.8-39.5-12.7-42.2 -0.8-2.7 1.9-3.5 1.9-3.5l97-29c0 0 2.7-0.8 3.5 1.9C160.7 87.1 160.6 86.8 160.6 86.8z"/>
      <rect x="108.8" y="142.5" transform="matrix(0.958 -0.2868 0.2868 0.958 -37.7587 41.6962)" class="st27" width="29.2" height="14.5"/>
      <rect x="75.4" y="116.8" transform="matrix(0.9579 -0.2869 0.2869 0.9579 -30.7593 27.4354)" class="st27" width="5.7" height="3.8"/>
      <rect x="77.3" y="122.5" transform="matrix(0.9581 -0.2866 0.2866 0.9581 -32.5007 28.2229)" class="st27" width="5.7" height="5.3"/>
      <rect x="79.5" y="129.1" transform="matrix(0.958 -0.2868 0.2868 0.958 -34.3519 29.7018)" class="st27" width="9.4" height="6"/>
      <rect x="81.6" y="136.1" transform="matrix(0.958 -0.2868 0.2868 0.958 -36.0864 31.1661)" class="st27" width="13.5" height="5.3"/>
      <rect x="84.6" y="120.3" transform="matrix(0.958 -0.2868 0.2868 0.958 -31.5813 30.2749)" class="st27" width="6" height="5.3"/>
      <rect x="90.4" y="126.4" transform="matrix(0.958 -0.2869 0.2869 0.958 -33.1879 32.234)" class="st27" width="6" height="6"/>
      <rect x="96.5" y="132.8" transform="matrix(0.958 -0.2868 0.2868 0.958 -34.6596 34.2191)" class="st27" width="6" height="5.3"/>
      <rect x="103.7" y="130.6" transform="matrix(0.958 -0.2868 0.2868 0.958 -33.7567 36.1625)" class="st27" width="5.7" height="5.3"/>
      <rect x="111.3" y="128.4" transform="matrix(0.958 -0.2866 0.2866 0.958 -32.7798 38.2048)" class="st27" width="5.7" height="5.3"/>
      <rect x="118.5" y="126.2" transform="matrix(0.958 -0.2868 0.2868 0.958 -31.8741 40.2167)" class="st27" width="5.7" height="5.3"/>
      <rect x="126" y="124" transform="matrix(0.958 -0.2868 0.2868 0.958 -30.9041 42.2682)" class="st27" width="5.7" height="5.3"/>
      <rect x="132.9" y="121.9" transform="matrix(0.958 -0.2868 0.2868 0.958 -30.0019 44.2139)" class="st27" width="6" height="5.3"/>
      <rect x="140.3" y="118.5" transform="matrix(0.958 -0.2868 0.2868 0.958 -28.5787 47.2733)" class="st27" width="13.5" height="5.3"/>
      <rect x="98" y="124.2" transform="matrix(0.958 -0.2867 0.2867 0.958 -32.2249 34.2303)" class="st27" width="5.7" height="6"/>
      <rect x="105.2" y="122" transform="matrix(0.958 -0.2869 0.2869 0.958 -31.3053 36.2896)" class="st27" width="6" height="6"/>
      <rect x="112.7" y="119.8" transform="matrix(0.958 -0.2869 0.2869 0.958 -30.3611 38.3135)" class="st27" width="5.7" height="6"/>
      <rect x="119.9" y="117.6" transform="matrix(0.958 -0.2867 0.2867 0.958 -29.398 40.3014)" class="st27" width="6" height="6"/>
      <rect x="127.5" y="115.3" transform="matrix(0.958 -0.2867 0.2867 0.958 -28.4584 42.3312)" class="st27" width="5.7" height="6"/>
      <rect x="134.7" y="113.1" transform="matrix(0.958 -0.2867 0.2867 0.958 -27.5147 44.3527)" class="st27" width="6" height="6"/>
      <rect x="142.2" y="110.4" transform="matrix(0.958 -0.2868 0.2868 0.958 -26.3433 46.8782)" class="st27" width="9.4" height="6"/>
      <rect x="92.1" y="118" transform="matrix(0.958 -0.2867 0.2867 0.958 -30.6022 32.3166)" class="st27" width="6" height="5.3"/>
      <rect x="99.3" y="115.9" transform="matrix(0.9581 -0.2866 0.2866 0.9581 -29.69 34.2443)" class="st27" width="5.7" height="5.3"/>
      <rect x="106.8" y="113.6" transform="matrix(0.958 -0.2868 0.2868 0.958 -28.746 36.3377)" class="st27" width="5.7" height="5.3"/>
      <rect x="114.1" y="111.5" transform="matrix(0.958 -0.2868 0.2868 0.958 -27.8263 38.3282)" class="st27" width="5.7" height="5.3"/>
      <rect x="121.6" y="109.2" transform="matrix(0.958 -0.2867 0.2867 0.958 -26.8523 40.3698)" class="st27" width="5.7" height="5.3"/>
      <rect x="128.5" y="107.1" transform="matrix(0.958 -0.2868 0.2868 0.958 -25.9556 42.3275)" class="st27" width="6" height="5.3"/>
      <rect x="135.9" y="103.8" transform="matrix(0.958 -0.2869 0.2869 0.958 -24.5377 45.4027)" class="st27" width="13.5" height="5.3"/>
      <rect x="83.9" y="144.1" transform="matrix(0.958 -0.2868 0.2868 0.958 -38.5498 31.0578)" class="st27" width="5.7" height="6"/>
      <rect x="91.1" y="141.9" transform="matrix(0.958 -0.2868 0.2868 0.958 -37.6015 33.0755)" class="st27" width="6" height="6"/>
      <rect x="98" y="135.3" transform="matrix(0.958 -0.2868 0.2868 0.958 -34.7761 39.1515)" class="st27" width="36.5" height="6"/>
      <rect x="135.1" y="128.8" transform="matrix(0.958 -0.2868 0.2868 0.958 -31.9826 45.1354)" class="st27" width="6" height="6"/>
      <rect x="142.6" y="126.5" transform="matrix(0.958 -0.2868 0.2868 0.958 -31.0236 47.2078)" class="st27" width="6" height="6"/>
      <rect x="150.2" y="124.3" transform="matrix(0.958 -0.2866 0.2866 0.958 -30.0644 49.1945)" class="st27" width="5.7" height="6"/>
      <rect x="82.6" y="114.6" transform="matrix(0.958 -0.2869 0.2869 0.958 -29.8139 29.4578)" class="st27" width="6" height="3.8"/>
      <rect x="90.1" y="112.3" transform="matrix(0.958 -0.2867 0.2867 0.958 -28.835 31.5001)" class="st27" width="6" height="3.8"/>
      <rect x="97.4" y="110.2" transform="matrix(0.958 -0.2869 0.2869 0.958 -27.9431 33.4617)" class="st27" width="5.7" height="3.8"/>
      <rect x="104.9" y="107.9" transform="matrix(0.958 -0.2866 0.2866 0.958 -26.9596 35.4901)" class="st27" width="5.7" height="3.8"/>
      <rect x="112.1" y="105.8" transform="matrix(0.958 -0.2868 0.2868 0.958 -26.0446 37.4883)" class="st27" width="5.7" height="3.8"/>
      <rect x="119.7" y="103.5" transform="matrix(0.958 -0.2866 0.2866 0.958 -25.0749 39.5364)" class="st27" width="5.7" height="3.8"/>
      <rect x="126.6" y="101.4" transform="matrix(0.958 -0.2868 0.2868 0.958 -24.1834 41.5082)" class="st27" width="6" height="3.8"/>
      <rect x="134.1" y="99.2" transform="matrix(0.958 -0.2867 0.2867 0.958 -23.2126 43.5514)" class="st27" width="6" height="3.8"/>
      <rect x="141.7" y="96.9" transform="matrix(0.958 -0.2868 0.2868 0.958 -22.2751 45.5917)" class="st27" width="5.7" height="3.8"/>
      <rect x="82.8" y="96.9" transform="matrix(0.958 -0.2868 0.2868 0.958 -23.6597 35.1734)" class="st26" width="50.9" height="2.8"/>
      <polygon class="st27" points="477.7 177.2 538.3 147.9 514.5 98.6 453.9 127.8 "/>
      <path class="st21" d="M446.8 131.2l23.8 49.3c1 2.1 3.5 2.9 5.6 1.9l67.7-32.7c2.1-1 2.9-3.5 1.9-5.6L522 94.9c-1-2.1-3.5-2.9-5.6-1.9l-67.7 32.7C446.7 126.7 445.8 129.2 446.8 131.2zM514.5 98.6l23.8 49.3c0 0-60.6 29.3-60.6 29.3 0 0-23.8-49.3-23.8-49.3L514.5 98.6z"/>
      <g class="st9">
          <rect x="523.9" y="120.4" transform="matrix(-0.4349 -0.9005 0.9005 -0.4349 651.3946 651.6481)" class="st26" width="12.5" height="2.1"/>
      </g>
      <rect x="524.8" y="140.7" transform="matrix(-0.4349 -0.9005 0.9005 -0.4349 624.9881 684.7756)" class="st23" width="5.2" height="11.2"/>
      <rect x="517.9" y="131.1" transform="matrix(-0.4349 -0.9005 0.9005 -0.4349 620.4788 669.9754)" class="st23" width="5.2" height="18.4"/>
      <rect x="516.5" y="124.7" transform="matrix(-0.4347 -0.9006 0.9006 -0.4347 626.0259 655.975)" class="st23" width="4.8" height="13.6"/>
      <rect x="508.6" y="114.5" transform="matrix(-0.4353 -0.9003 0.9003 -0.4353 620.5419 640.6199)" class="st23" width="5.2" height="22.4"/>
      <rect x="507.6" y="108.6" transform="matrix(-0.4347 -0.9006 0.9006 -0.4347 626.8545 627.1152)" class="st23" width="5.2" height="16.4"/>
      <rect x="499.4" y="98" transform="matrix(-0.4349 -0.9005 0.9005 -0.4349 619.826 611.6494)" class="st23" width="4.8" height="26.8"/>
      <path class="st29" d="M509.9 156.6c0.2 0.3 0.1 0.7-0.1 1.1 -0.3 0.5-1 0.6-1.5 0.3l-16-10.8c-0.5-0.3-0.6-1-0.3-1.5 0.3-0.5 1-0.6 1.5-0.3l16 10.8C509.7 156.3 509.8 156.5 509.9 156.6z"/>
      <path class="st29" d="M495.7 133.8c0.2 0.3 0.1 0.7-0.1 1.1 -0.3 0.5-1 0.6-1.5 0.3l-18.1-12.1c-0.5-0.3-0.6-1-0.3-1.5 0.3-0.5 1-0.6 1.5-0.3l18.1 12.1C495.5 133.5 495.7 133.7 495.7 133.8z"/>
      <path class="st29" d="M495.7 133.8c0.1 0.2 0.1 0.4 0.1 0.6l-1.9 12c-0.1 0.6-0.6 1-1.2 0.9 -0.6-0.1-1-0.6-0.9-1.2l1.9-12c0.1-0.6 0.6-1 1.2-0.9C495.3 133.3 495.6 133.5 495.7 133.8z"/>
      <rect x="476.9" y="159.4" transform="matrix(-0.4349 -0.9005 0.9005 -0.4349 543.0245 671.2499)" class="st20" width="10.4" height="11.6"/>
      <rect x="466.7" y="154.1" transform="matrix(-0.4349 -0.9005 0.9005 -0.4349 538.0417 648.5597)" class="st26" width="11.6" height="2.8"/>
      <rect x="473" y="153.6" transform="matrix(-0.4348 -0.9005 0.9005 -0.4348 545.1216 652.077)" class="st26" width="8.4" height="2.8"/>
      <rect x="461.2" y="129.6" transform="matrix(-0.4348 -0.9005 0.9005 -0.4348 550.05 607.3345)" class="st26" width="8.8" height="2.8"/>
      <rect x="464.1" y="141.7" transform="matrix(-0.4348 -0.9005 0.9005 -0.4348 547.5439 629.8762)" class="st26" width="14.8" height="2.8"/>
      <rect x="479.5" y="153.3" transform="matrix(-0.435 -0.9004 0.9004 -0.435 552.2833 655.9135)" class="st26" width="4.8" height="2.8"/>
      <rect x="473" y="145.2" transform="matrix(-0.4347 -0.9006 0.9006 -0.4347 553.813 640.7942)" class="st26" width="10" height="2.8"/>
      <rect x="465.9" y="145.2" transform="matrix(-0.4347 -0.9006 0.9006 -0.4347 539.7978 632.0843)" class="st26" width="4.8" height="2.8"/>
      <rect x="455.3" y="134.6" transform="matrix(-0.4348 -0.9005 0.9005 -0.4348 542.0267 612.2289)" class="st26" width="15.6" height="2.8"/>
      <path class="st30" d="M446.8 131.2l13.2 27.3 69.8-47.4L522 94.9c-1-2.1-3.5-2.9-5.6-1.9l-67.7 32.7C446.7 126.7 445.8 129.2 446.8 131.2z"/>
  </svg>
