<?xml version="1.0" standalone="no"?>
<?xml-stylesheet type="text/css" media="screen" href="../css/style.css"?>
<svg class="circle_shape" viewBox="0 0 144 144"  xmlns="http://www.w3.org/2000/svg">
    <path class="st0" d="M72 144c-39.7 0-72-32.3-72-72S32.3 0 72 0s72 32.3 72 72S111.7 144 72 144zM72 0.5C32.6 0.5 0.5 32.6 0.5 72s32.1 71.5 71.5 71.5 71.5-32.1 71.5-71.5S111.4 0.5 72 0.5z" />
    <path class="st1" d="M69.9 55.7h-1v1.9h1c0.7 0 1.1-0.3 1.1-1C71 56 70.6 55.7 69.9 55.7zM40.3 55.7v1.8h1v0c0.7 0 1.1-0.3 1.1-0.9 0-0.6-0.4-0.9-1.1-0.9H40.3zM71.8 99.5c0-0.4-0.3-0.7-0.8-0.7h-0.7v1.5H71C71.5 100.2 71.8 99.9 71.8 99.5zM98 41.5V45h0.9v0c1.1 0 1.7-0.6 1.7-1.7 0-1.1-0.7-1.7-1.7-1.7H98z"
    />
    <polygon class="st1" points="49.7 93.6 51.5 93.6 50.6 91.3 " />
    <path class="st1" d="M51.7 86c0-1-0.7-1.8-1.7-1.8S48.2 85 48.2 86s0.7 1.8 1.7 1.8C51 87.7 51.7 86.9 51.7 86zM60.8 36.1c0-1.1-0.7-1.7-1.7-1.7h-0.9v3.5h0.9v0C60.2 37.8 60.8 37.2 60.8 36.1z" />
    <polygon class="st1" points="41.3 93.6 43 93.6 42.1 91.3 " />
    <polygon class="st1" points="45.5 100.7 46.7 100.7 46.1 98.9 " />
    <polygon class="st1" points="35.4 84.2 34.5 86.5 36.3 86.5 " />
    <polygon class="st1" points="52.9 55.7 52.1 58 53.8 58 " />
    <path class="st1" d="M63.9 108.8c0.8 0 1.4-0.6 1.4-1.5 0-0.9-0.6-1.5-1.4-1.5s-1.4 0.6-1.4 1.5C62.5 108.2 63.1 108.8 63.9 108.8z" />
    <polygon class="st1" points="48.7 65.1 50.5 65.1 49.6 62.8 " />
    <path class="st1" d="M62.4 92.2c0-0.6-0.4-0.9-1.1-0.9h-1v1.8h1v0C62.1 93.1 62.4 92.8 62.4 92.2zM70.2 30.8c1-0.1 1.7-0.9 1.7-1.9 0-1-0.7-1.8-1.7-1.8S68.4 28 68.4 29 69.2 30.8 70.2 30.8zM70.7 113H70v1.3h0.7v0c0.5 0 0.8-0.2 0.8-0.7C71.5 113.2 71.1 113 70.7 113zM100.1 35.2c0-0.6-0.4-0.9-1.1-0.9h-1v1.8h1C99.7 36.1 100.1 35.8 100.1 35.2z"
    />
    <polygon class="st1" points="55.4 70 54.5 72.2 56.3 72.2 " />
    <path class="st1" d="M53 105.8h-0.7v1.3H53v0c0.5 0 0.8-0.2 0.8-0.7C53.8 106.1 53.4 105.8 53 105.8zM68 100.2c0-0.9-0.6-1.5-1.4-1.5 -0.8 0-1.4 0.6-1.4 1.5 0 0.9 0.6 1.5 1.4 1.5C67.5 101.7 68 101 68 100.2z" />
    <polygon class="st1" points="58.6 86.5 60.3 86.5 59.4 84.2 " />
    <path class="st1" d="M60 30.8c1-0.1 1.7-0.9 1.7-1.9 0-1-0.7-1.8-1.7-1.8S58.2 28 58.2 29 59 30.8 60 30.8zM39.5 48.6h-1v1.8h1v0c0.7 0 1.1-0.3 1.1-0.9C40.6 48.9 40.1 48.6 39.5 48.6zM36.9 51.3c0-0.6-0.4-0.8-1.1-0.8h-1v1.6h1.1C36.5 52.1 36.9 51.8 36.9 51.3zM89.8 80.7c1 0 1.7-0.8 1.7-1.9S90.8 77 89.8 77s-1.7 0.8-1.7 1.8S88.8 80.7 89.8 80.7zM36.6 49.3c0-0.5-0.4-0.7-1-0.7h-0.8v1.5h0.9C36.2 50.1 36.6 49.8 36.6 49.3z"
    />
    <polygon class="st1" points="90.2 98.9 89.6 100.7 90.8 100.7 " />
    <polygon class="st1" points="36.8 65.1 38.5 65.1 37.6 62.8 " />
    <path class="st1" d="M85.4 43.2c0 1 0.7 1.8 1.7 1.8 1 0 1.7-0.8 1.7-1.9s-0.7-1.8-1.7-1.8S85.4 42.2 85.4 43.2zM29.5 71.8c0 1 0.7 1.8 1.7 1.8 1-0.1 1.7-0.9 1.7-1.9 0-1-0.7-1.8-1.7-1.8S29.5 70.7 29.5 71.8z" />
    <polygon class="st1" points="44.8 55.7 43.9 58 45.7 58 " />
    <polygon class="st1" points="65.5 86.5 67.2 86.5 66.4 84.2 " />
    <polygon class="st1" points="94.1 62.8 93.2 65.1 95 65.1 " />
    <path class="st1" d="M95.8 78.8c0-1.1-0.7-1.7-1.7-1.7h-0.9v3.5H94v0C95.1 80.6 95.8 80 95.8 78.8zM86.2 52.2c1-0.1 1.7-0.9 1.7-1.9 0-1-0.7-1.8-1.7-1.8 -1 0-1.7 0.8-1.7 1.8S85.2 52.2 86.2 52.2z" />
    <polygon class="st1" points="53.8 34.3 53 36.6 54.7 36.6 " />
    <path class="st1" d="M33 85.1c0-0.6-0.4-0.9-1.1-0.9h-1v1.8h1v0C32.6 86 33 85.7 33 85.1zM64.9 62.8H64v3.5h0.9v0c1.1 0 1.7-0.6 1.7-1.7C66.7 63.4 66 62.8 64.9 62.8z" />
    <polygon class="st1" points="67.4 41.5 66.6 43.7 68.3 43.7 " />
    <polygon class="st1" points="37.2 100.7 38.4 100.7 37.8 98.9 " />
    <polygon class="st1" points="76.4 50.9 78.1 50.9 77.2 48.6 " />
    <path class="st1" d="M74.2 62.8h-1v1.8h1v0c0.7 0 1.1-0.3 1.1-0.9C75.3 63.1 74.8 62.8 74.2 62.8zM48.3 43.2c0.7 0 1.1-0.3 1.1-0.9 0-0.6-0.4-0.9-1.1-0.9h-1v1.8L48.3 43.2 48.3 43.2zM45.9 35.2c0-0.6-0.4-0.9-1.1-0.9h-1v1.8h1C45.5 36.1 45.9 35.8 45.9 35.2zM45.8 42.4c0-0.6-0.4-0.9-1.1-0.9h-1v1.9h1C45.4 43.3 45.8 43 45.8 42.4zM71.3 94.9c0.3 0 0.7-0.1 1-0.3l-0.8-0.9 0.2-0.2 0.8 0.9C72.8 94 73 93.6 73 93c0-1-0.7-1.8-1.7-1.8s-1.7 0.8-1.7 1.8S70.3 94.9 71.3 94.9zM40.1 84.9c0-0.5-0.4-0.7-1-0.7h-0.8v1.5h0.9C39.7 85.7 40.1 85.5 40.1 84.9zM40.4 73.6c1-0.1 1.7-0.9 1.7-1.9 0-1-0.7-1.8-1.7-1.8s-1.7 0.8-1.7 1.8S39.4 73.6 40.4 73.6zM110.2 70.7c0-0.5-0.4-0.7-1-0.7h-0.8v1.5h0.9C109.8 71.5 110.2 71.2 110.2 70.7z"
    />
    <polygon class="st1" points="112.2 84.2 111.4 86.5 113.1 86.5 " />
    <polygon class="st1" points="57.6 43.7 59.3 43.7 58.4 41.5 " />
    <path class="st1" d="M109.4 71.8h-1v1.6h1.1c0.6 0 1-0.2 1-0.8C110.5 72 110.1 71.8 109.4 71.8zM94.7 38c1-0.1 1.7-0.9 1.7-1.9 0-1-0.7-1.8-1.7-1.8s-1.7 0.8-1.7 1.8C92.9 37.2 93.7 38 94.7 38z" />
    <polygon class="st1" points="104.6 72.2 106.3 72.2 105.5 70 " />
    <polygon class="st1" points="107.5 93.6 109.2 93.6 108.3 91.3 " />
    <path class="st1" d="M40.4 86.9c0-0.6-0.4-0.8-1.1-0.8h-1v1.6h1.1C40 87.7 40.4 87.4 40.4 86.9zM108.7 84.2h-1v1.8h1v0c0.7 0 1.1-0.3 1.1-0.9C109.8 84.5 109.4 84.2 108.7 84.2z" />
    <polygon class="st1" points="107.3 58 109.1 58 108.2 55.7 " />
    <polygon class="st1" points="108.2 41.5 107.3 43.7 109.1 43.7 " />
    <path class="st1" d="M49 48.6H48v3.5H49v0c1.1 0 1.7-0.6 1.7-1.7C50.7 49.2 50 48.6 49 48.6zM46.1 62.8h-1v1.8h1v0c0.7 0 1.1-0.3 1.1-0.9C47.2 63.1 46.7 62.8 46.1 62.8zM72 3.5C34.1 3.5 3.5 34.1 3.5 72s30.7 68.5 68.5 68.5 68.5-30.7 68.5-68.5S109.9 3.5 72 3.5zM114.1 73.4v0.3h-2.4v-4.1h0.3v3.8H114.1zM110.7 55.4h0.4l2.5 3.7v-3.7h0.3v4.1h-0.4l-2.5-3.7v3.7h-0.3V55.4zM108 41.1h0.4l1.6 4.1h-0.4l-0.4-1.2h-2l-0.4 1.2h-0.3L108 41.1zM109.8 78.6v0.3h-1.8v1.6h2.1v0.3h-2.5v-4.1h2.4V77h-2.1v1.6H109.8zM106.6 66.7c-0.5 0-1-0.2-1.3-0.4l0.1-0.2c0.3 0.2 0.7 0.4 1.1 0.4 0.6 0 1.1-0.3 1.1-0.8 0-1.1-2.3-0.5-2.3-2 0-0.7 0.5-1.1 1.3-1.1 0.4 0 0.9 0.1 1.2 0.4l-0.1 0.2c-0.3-0.2-0.7-0.3-1-0.3 -0.5 0-1 0.3-1 0.8 0 1.1 2.3 0.5 2.3 2C108.1 66.3 107.4 66.7 106.6 66.7zM103.6 84.2v-0.3h3.1v0.3h-1.4V88H105v-3.8H103.6zM104.8 80.9h-1.4v0 -4.1h1.4c1.3 0 2 0.9 2 2.1S106 80.9 104.8 80.9zM101.8 88c-0.5 0-1-0.2-1.3-0.4l0.1-0.2c0.3 0.2 0.7 0.4 1.1 0.4 0.6 0 1.1-0.3 1.1-0.8 0-1.1-2.3-0.5-2.3-2 0-0.7 0.5-1.1 1.3-1.1 0.4 0 0.9 0.1 1.2 0.4l-0.1 0.2c-0.3-0.2-0.7-0.3-1-0.3 -0.5 0-1 0.3-1 0.8 0 1.1 2.3 0.5 2.3 2C103.2 87.7 102.6 88 101.8 88zM102 91v4.1h-0.3V91H102zM100.5 93v0.3h-1.7v1.8h-0.3V91h2.5v0.3h-2.1V93H100.5zM100.2 97h0.8l-0.8 0.7h-0.6L100.2 97zM102.4 69.9v3.8h-0.3v-3.8h-1.4v-0.3h3.1v0.3H102.4zM106.5 72.5h-2l-0.4 1.2h-0.3l1.6-4.1h0.4l1.6 4.1h-0.4L106.5 72.5zM107.2 58.3l-0.4 1.2h-0.3l1.6-4.1h0.4l1.6 4.1h-0.4l-0.4-1.2H107.2zM106.3 48.2h0.4l2.5 3.7v-3.7h0.3v4.1h-0.4l-2.5-3.7v3.7h-0.3V48.2zM104.8 59.2c0.4 0 0.8-0.1 1.1-0.3l0.2 0.2c-0.3 0.2-0.8 0.4-1.3 0.4 -1.2 0-2.1-0.9-2.1-2.1s0.9-2.1 2.1-2.1c0.4 0 0.9 0.1 1.2 0.4l-0.1 0.2c-0.3-0.2-0.7-0.3-1.1-0.3 -1 0-1.7 0.8-1.7 1.8S103.8 59.2 104.8 59.2zM104.3 34l1.6 4.1h-0.4l-0.4-1.2h-2l-0.4 1.2h-0.3l1.6-4.1H104.3zM104.1 44h-2l-0.4 1.2h-0.3l1.6-4.1h0.4l1.6 4.1h-0.4L104.1 44zM104.3 47.1l-0.7 0.6h-0.3l0.5-0.6H104.3zM101.9 32.9h0.5l-0.7 0.6h-0.3L101.9 32.9zM101.3 34h0.3v4.1h-0.3V34zM103.4 48.2c1.2 0 2.1 0.9 2.1 2.1s-0.9 2.1-2.1 2.1c-1.2 0-2.1-0.9-2.1-2.1C101.3 49.1 102.2 48.2 103.4 48.2zM101.9 55.4v4.1h-0.3v-4.1H101.9zM102.7 62.4c1.2 0 2.1 0.9 2.1 2.1 0 1.2-0.9 2.1-2.1 2.1 -1.2 0-2.1-0.9-2.1-2.1C100.6 63.3 101.5 62.4 102.7 62.4zM98 66.7h-1.4v0 -4.1H98c1.3 0 2 0.9 2 2.1C100 65.8 99.3 66.7 98 66.7zM100 69.6v4.1h-0.4l-2.5-3.7v3.7h-0.3v-4.1h0.4l2.5 3.7v-3.7H100zM83 94.7l0.1-0.2c0.3 0.2 0.7 0.4 1.1 0.4 0.6 0 1.1-0.3 1.1-0.8 0-1.1-2.3-0.5-2.3-2 0-0.7 0.5-1.1 1.3-1.1 0.4 0 0.9 0.1 1.2 0.4l-0.1 0.2c-0.3-0.2-0.7-0.3-1-0.3 -0.5 0-1 0.3-1 0.8 0 1.1 2.3 0.5 2.3 2 0 0.8-0.6 1.1-1.4 1.1C83.8 95.2 83.4 95 83 94.7zM84.3 98.1v4.1h-0.7v-4.1H84.3zM81.9 102.2l-0.1-3 -1.2 2.5h-0.5L79 99.2l-0.1 3h-0.7l0.1-4.1h0.8l1.3 2.7 1.3-2.7h0.7l0.1 4.1H81.9zM82.4 104.1l-0.8 0.7H81l0.6-0.7H82.4zM61.2 101c0 0.8-0.6 1.2-1.5 1.2 -0.6 0-1.1-0.2-1.5-0.5l0.3-0.5c0.3 0.3 0.7 0.4 1.1 0.4 0.4 0 0.8-0.1 0.8-0.5 0-0.9-2.2-0.3-2.2-1.8 0-0.8 0.6-1.2 1.4-1.2 0.5 0 1 0.1 1.4 0.4L60.8 99c-0.3-0.2-0.7-0.3-1-0.3 -0.4 0-0.7 0.2-0.7 0.5C59 100.2 61.2 99.5 61.2 101zM58.5 94.9c0-0.1 0.1-0.2 0.2-0.2 0.1 0 0.2 0.1 0.2 0.2s-0.1 0.2-0.2 0.2C58.6 95.2 58.5 95.1 58.5 94.9zM58.5 86.8L58 88h-0.3l1.6-4.1h0.4l1.6 4.1h-0.4l-0.4-1.2H58.5zM48.6 65.4l-0.4 1.2h-0.3l1.6-4.1h0.4l1.6 4.1H51l-0.4-1.2H48.6zM49.7 76.8v4.1h-0.3v-4.1H49.7zM49.1 69.6v4.1h-0.3v-4.1H49.1zM34 77.8c0-0.7 0.5-1.1 1.3-1.1 0.4 0 0.9 0.1 1.2 0.4l-0.1 0.2c-0.3-0.2-0.7-0.3-1-0.3 -0.5 0-1 0.3-1 0.8 0 1.1 2.3 0.5 2.3 2 0 0.8-0.6 1.1-1.4 1.1 -0.5 0-1-0.2-1.3-0.4l0.1-0.2c0.3 0.2 0.7 0.4 1.1 0.4 0.6 0 1.1-0.3 1.1-0.8C36.3 78.7 34 79.3 34 77.8zM35.2 83.9h0.4l1.6 4.1h-0.4l-0.4-1.2h-2L34 88h-0.3L35.2 83.9zM37 73.7l-2.5-3.7v3.7h-0.3v-4.1h0.4l2.5 3.7v-3.7h0.3v4.1H37zM36.6 65.4l-0.4 1.2h-0.3l1.6-4.1h0.4l1.6 4.1H39l-0.4-1.2H36.6zM40.9 52.4h-0.4l-1-1.7h-1v1.7h-0.3v-4.2h1.4c0.8 0 1.3 0.5 1.3 1.2 0 0.6-0.4 1.1-1 1.2L40.9 52.4zM49.7 59.2v0.3h-2.4v-4.1h0.3v3.8H49.7zM52.8 43v0.3H51v1.6h2.1v0.3h-2.5v-4.1H53v0.3H51V43H52.8zM53.7 42.2c0-0.7 0.5-1.1 1.3-1.1 0.4 0 0.9 0.1 1.2 0.4l-0.1 0.2c-0.3-0.2-0.7-0.3-1-0.3 -0.5 0-1 0.3-1 0.8 0 1.1 2.3 0.5 2.3 2 0 0.8-0.6 1.1-1.4 1.1 -0.5 0-1-0.2-1.3-0.4l0.1-0.2c0.3 0.2 0.7 0.4 1.1 0.4 0.6 0 1.1-0.3 1.1-0.8C56 43.1 53.7 43.6 53.7 42.2zM64.2 35.9v0.3h-1.8v1.6h2.1v0.3h-2.5V34h2.4v0.3h-2.1v1.6H64.2zM68.7 37.9c0.4 0 0.8-0.1 1.1-0.3l0.2 0.2c-0.3 0.2-0.8 0.4-1.3 0.4 -1.2 0-2.1-0.9-2.1-2.1s0.9-2.1 2.1-2.1c0.4 0 0.9 0.1 1.2 0.4l-0.1 0.2c-0.3-0.2-0.7-0.3-1.1-0.3 -1 0-1.7 0.8-1.7 1.8S67.7 37.9 68.7 37.9zM72.3 44.9v0.3H70v-4.1h0.3v3.8H72.3zM76.6 43v0.3h-1.8v1.6h2.1v0.3h-2.5v-4.1h2.4v0.3h-2.1V43H76.6zM89.7 37.8v0.3h-2.4V34h0.3v3.8H89.7zM91.8 45c0.4 0 0.8-0.1 1.1-0.3l0.2 0.2c-0.3 0.2-0.8 0.4-1.3 0.4 -1.2 0-2.1-0.9-2.1-2.1 0-1.2 0.9-2.1 2.1-2.1 0.4 0 0.9 0.1 1.2 0.4l-0.1 0.2c-0.3-0.2-0.7-0.3-1.1-0.3 -1 0-1.7 0.8-1.7 1.8C90.1 44.2 90.9 45 91.8 45zM89.3 62.8v-0.3h3.1v0.3h-1.4v3.8h-0.3v-3.8H89.3zM87.9 73.8c-0.5 0-1-0.2-1.3-0.4l0.1-0.2c0.3 0.2 0.7 0.4 1.1 0.4 0.6 0 1.1-0.3 1.1-0.8 0-1.1-2.3-0.5-2.3-2 0-0.7 0.5-1.1 1.3-1.1 0.4 0 0.9 0.1 1.2 0.4L89 70.2c-0.3-0.2-0.7-0.3-1-0.3 -0.5 0-1 0.3-1 0.8 0 1.1 2.3 0.5 2.3 2C89.3 73.4 88.7 73.8 87.9 73.8zM89.8 76.7c1.2 0 2.1 0.9 2.1 2.1S91 81 89.8 81c-1.2 0-2.1-0.9-2.1-2.1C87.7 77.6 88.6 76.7 89.8 76.7zM86.2 77v3.8h-0.3V77h-1.4v-0.3h3.1V77H86.2zM86.9 91v4.1h-0.3V91H86.9zM82.5 72.3v-2.7h0.3v2.7c0 0.7 0.5 1.2 1.2 1.2s1.2-0.5 1.2-1.2v-2.7h0.3v2.7c0 0.9-0.6 1.5-1.6 1.5S82.5 73.2 82.5 72.3zM83.6 75.7l-0.7 0.6h-0.3l0.5-0.6H83.6zM66.3 94.9c0-0.1 0.1-0.2 0.2-0.2 0.2 0 0.3 0.1 0.3 0.4 0 0.3-0.2 0.7-0.6 0.8l-0.1-0.2c0.1 0 0.3-0.1 0.3-0.3S66.3 95.1 66.3 94.9zM65.4 86.8L65 88h-0.3l1.6-4.1h0.4l1.6 4.1h-0.4l-0.4-1.2H65.4zM65.3 91v4.1h-0.3V91H65.3zM68.8 52.1c0.7 0 1.2-0.5 1.2-1.2v-2.7h0.3v2.7c0 0.9-0.6 1.5-1.6 1.5s-1.6-0.6-1.6-1.5v-2.7h0.3v2.7C67.5 51.7 68 52.1 68.8 52.1zM75.6 66.7h-0.4l-1-1.7h-1v1.7h-0.3v-4.2h1.4c0.8 0 1.3 0.5 1.3 1.2 0 0.6-0.4 1.1-1 1.2L75.6 66.7zM73.4 57.7v1.7H73v-1.7l-1.5-2.4H72l1.2 2 1.3-2h0.4L73.4 57.7zM73.7 69.6v0.3h-1.4v3.8H72v-3.8h-1.4v-0.3H73.7zM70 57.9h-1.1v1.5h-0.3v-4.1H70c0.9 0 1.3 0.5 1.3 1.3C71.3 57.4 70.8 57.9 70 57.9zM70.1 64.4v0.3h-1.8v1.6h2.1v0.3h-2.5v-4.1h2.4v0.3h-2.1v1.6H70.1zM69.6 73.3v-3.7h0.3v4.1h-0.4L67 70.1v3.7h-0.3v-4.1h0.4L69.6 73.3zM65.1 66.7h-1.4v0 -4.1h1.4c1.3 0 2 0.9 2 2.1C67.1 65.8 66.4 66.7 65.1 66.7zM65.8 69.6v0.3h-2.1v1.6h1.8v0.3h-1.8v1.6h2.1v0.3h-2.5v-4.1H65.8zM67.4 80.9c-0.9 0-1.6-0.6-1.6-1.5v-2.7h0.3v2.7c0 0.7 0.5 1.2 1.2 1.2 0.7 0 1.2-0.5 1.2-1.2v-2.7H69v2.7C69 80.3 68.4 80.9 67.4 80.9zM68.9 88v-4.1h1.4c1.3 0 2 0.9 2 2.1 0 1.2-0.7 2.1-2 2.1L68.9 88 68.9 88zM70.5 77.2v3.7h-0.3v-4.1h0.4l2.5 3.7v-3.7h0.3v4.1h-0.4L70.5 77.2zM75 83.8c1.2 0 2.1 0.9 2.1 2.1 0 1.2-0.9 2.1-2.1 2.1 -1.2 0-2.1-0.9-2.1-2.1C72.8 84.7 73.8 83.8 75 83.8zM74.4 73.7v-4.1h2.4v0.3h-2.1v1.6h1.8v0.3h-1.8v1.6h2.1v0.3H74.4zM76.5 66.6v-4.1h2.4v0.3h-2.1v1.6h1.8v0.3h-1.8v1.6H79v0.3H76.5zM77.9 58.9h-0.2l-1.6-3.1 -0.1 3.7h-0.3l0.1-4.1h0.5l1.6 3.1 1.6-3.1h0.4l0.1 4.1h-0.3l-0.1-3.7L77.9 58.9zM79.1 70.7c0-0.7 0.5-1.1 1.3-1.1 0.4 0 0.9 0.1 1.2 0.4l-0.1 0.2c-0.3-0.2-0.7-0.3-1-0.3 -0.5 0-1 0.3-1 0.8 0 1.1 2.3 0.5 2.3 2 0 0.8-0.6 1.1-1.4 1.1 -0.5 0-1-0.2-1.3-0.4l0.1-0.2c0.3 0.2 0.7 0.4 1.1 0.4 0.6 0 1.1-0.3 1.1-0.8C81.4 71.6 79.1 72.1 79.1 70.7zM80.9 66.7c-0.5 0-1-0.2-1.3-0.4l0.1-0.2c0.3 0.2 0.7 0.4 1.1 0.4 0.6 0 1.1-0.3 1.1-0.8 0-1.1-2.3-0.5-2.3-2 0-0.7 0.5-1.1 1.3-1.1 0.4 0 0.9 0.1 1.2 0.4L82 63.1c-0.3-0.2-0.7-0.3-1-0.3 -0.5 0-1 0.3-1 0.8 0 1.1 2.3 0.5 2.3 2C82.3 66.3 81.6 66.7 80.9 66.7zM81.1 59.5v-4.1h2.4v0.3h-2.1v1.6h1.8v0.3h-1.8v1.6h2.1v0.3H81.1zM84.2 56.5c0-0.7 0.5-1.1 1.3-1.1 0.4 0 0.9 0.1 1.2 0.4L86.6 56c-0.3-0.2-0.7-0.3-1-0.3 -0.5 0-1 0.3-1 0.8 0 1.1 2.3 0.5 2.3 2 0 0.8-0.6 1.1-1.4 1.1 -0.5 0-1-0.2-1.3-0.4l0.1-0.2c0.2 0.2 0.7 0.4 1.1 0.4 0.6 0 1.1-0.3 1.1-0.8C86.5 57.3 84.2 57.9 84.2 56.5zM84.6 66.4c0.7 0 1.2-0.5 1.2-1.2v-2.7h0.3v2.7c0 0.9-0.6 1.5-1.6 1.5 -0.9 0-1.6-0.6-1.6-1.5v-2.7h0.3v2.7C83.4 65.9 83.9 66.4 84.6 66.4zM87.3 66.6v-4.1h0.3v3.8h2v0.3H87.3zM91.5 58.9h-0.2l-1.6-3.1 -0.1 3.7h-0.3l0.1-4.1h0.5l1.6 3.1 1.6-3.1h0.4l0.1 4.1h-0.3l-0.1-3.7L91.5 58.9zM92 50.9v-2.7h0.3v2.7c0 0.7 0.5 1.2 1.2 1.2s1.2-0.5 1.2-1.2v-2.7h0.3v2.7c0 0.9-0.6 1.5-1.6 1.5S92 51.8 92 50.9zM91.5 52.1v0.3h-2.4v-4.1h0.3v3.8H91.5zM89.2 43.2c0 1.2-0.9 2.1-2.1 2.1 -1.2 0-2.1-0.9-2.1-2.1 0-1.2 0.9-2.1 2.1-2.1S89.2 42 89.2 43.2zM86.3 48.2c1.2 0 2.1 0.9 2.1 2.1s-0.9 2.1-2.1 2.1c-1.2 0-2.1-0.9-2.1-2.1C84.1 49.1 85.1 48.2 86.3 48.2zM84.6 41.4h-2.1v1.7h1.7v0.3h-1.7v1.8h-0.3v-4.1h2.5V41.4zM82.2 48.2c0.4 0 0.9 0.1 1.2 0.4l-0.1 0.2c-0.3-0.2-0.7-0.3-1-0.3 -0.5 0-1 0.3-1 0.8 0 1.1 2.3 0.5 2.3 2 0 0.8-0.6 1.1-1.4 1.1 -0.5 0-1-0.2-1.3-0.4l0.1-0.2c0.3 0.2 0.7 0.4 1.1 0.4 0.6 0 1.1-0.3 1.1-0.8 0-1.1-2.3-0.5-2.3-2C80.9 48.6 81.5 48.2 82.2 48.2zM81 45.2h-0.4l-2.5-3.7v3.7h-0.3v-4.1h0.4l2.5 3.7v-3.7H81V45.2zM79 52.4h-0.4l-0.4-1.2h-2l-0.4 1.2h-0.3l1.6-4.1h0.4L79 52.4zM74.8 48.2v4.1h-0.4l-2.5-3.7v3.7h-0.3v-4.1H72l2.5 3.7v-3.7H74.8zM67.2 41.1h0.4l1.6 4.1h-0.4L68.4 44h-2L66 45.2h-0.3L67.2 41.1zM66 55.7L65.9 56c-0.3-0.2-0.7-0.3-1-0.3 -0.5 0-1 0.3-1 0.8 0 1.1 2.3 0.5 2.3 2 0 0.8-0.6 1.1-1.4 1.1 -0.5 0-1-0.2-1.3-0.4l0.1-0.2c0.3 0.2 0.7 0.4 1.1 0.4 0.6 0 1.1-0.3 1.1-0.8 0-1.1-2.3-0.5-2.3-2 0-0.7 0.5-1.1 1.3-1.1C65.2 55.3 65.7 55.5 66 55.7zM65 45.2h-0.3v-4.1H65V45.2zM64.8 48.2v0.3h-2.1v1.6h1.8v0.3h-1.8v1.6h2.1v0.3h-2.5v-4.1H64.8zM51.8 62.4l1.3 3.7 1.2-3.7h0.3l-1.4 4.1h-0.4l-1.4-4.1H51.8zM51.2 59.5l1.6-4.1h0.4l1.6 4.1h-0.4l-0.4-1.2h-2l-0.4 1.2H51.2zM55.2 69.6h0.4l1.6 4.1h-0.4l-0.4-1.2h-2L54 73.7h-0.3L55.2 69.6zM59.2 59.2v0.3h-2.4v-4.1h0.3v3.8H59.2zM61.3 65.5c0 0.8-0.6 1.1-1.4 1.1 -0.5 0-1-0.2-1.3-0.4l0.1-0.2c0.2 0.2 0.7 0.4 1.1 0.4 0.6 0 1.1-0.3 1.1-0.8 0-1.1-2.3-0.5-2.3-2 0-0.7 0.5-1.1 1.3-1.1 0.4 0 0.9 0.1 1.2 0.4L61 63.1c-0.3-0.2-0.7-0.3-1-0.3 -0.5 0-1 0.3-1 0.8C59 64.7 61.3 64.1 61.3 65.5zM57.1 61.4h0.5l-0.7 0.6h-0.3L57.1 61.4zM57.9 62.5v0.3h-2.1v1.6h1.8v0.3h-1.8v1.6h2.1v0.3h-2.5v-4.1H57.9zM57.4 86.8c0 0.7-0.5 1.1-1.2 1.1h-1.6v-4.1h1.3c0.7 0 1.2 0.3 1.2 1 0 0.5-0.2 0.7-0.5 0.9C57 85.9 57.4 86.3 57.4 86.8zM56 78.8c0-1.2 0.9-2.1 2.1-2.1s2.1 0.9 2.1 2.1S59.3 81 58.1 81C56.9 80.9 56 80 56 78.8zM60.1 73.2h-0.2l-1.6-3.1 -0.1 3.7h-0.3l0.1-4.1h0.5l1.6 3.1 1.6-3.1h0.4l0.1 4.1h-0.3l-0.1-3.7L60.1 73.2zM60.2 58.3l-0.4 1.2h-0.3l1.6-4.1h0.4l1.6 4.1h-0.4l-0.4-1.2H60.2zM62.4 41.1c0.8 0 1.3 0.5 1.3 1.2 0 0.6-0.4 1.1-1 1.2l1 1.7h-0.4l-1-1.7h-1v1.7H61v-4.2H62.4zM61.7 52.1v0.3h-2.4v-4.1h0.3v3.8H61.7zM59.9 45.2L59.4 44h-2L57 45.2h-0.3l1.6-4.1h0.4l1.6 4.1H59.9zM57.1 48.2c0.8 0 1.3 0.5 1.3 1.2 0 0.6-0.4 1.1-1 1.2l1 1.7H58l-1-1.7h-1v1.7h-0.3v-4.2H57.1zM54.9 52.4h-0.4l-0.4-1.2h-2l-0.4 1.2h-0.3l1.6-4.1h0.4L54.9 52.4zM51.1 50.3c0 1.2-0.7 2.1-2 2.1h-1.4v0 -4.1h1.4C50.4 48.2 51.1 49.1 51.1 50.3zM47.5 63.7c0 0.6-0.4 1.1-1 1.2l1 1.7h-0.4l-1-1.7h-1v1.7h-0.3v-4.2h1.4C47 62.5 47.5 63 47.5 63.7zM45.5 72.7l1.6-3.1h0.4l0.1 4.1h-0.3l-0.1-3.7 -1.6 3.1h-0.2l-1.6-3.1 -0.1 3.7h-0.3l0.1-4.1h0.5L45.5 72.7zM46.8 86.8v-2.9h0.3v3c0 0.6-0.4 1.2-1.2 1.2 -0.4 0-0.8-0.1-1-0.5l0.2-0.2c0.2 0.2 0.4 0.4 0.7 0.4C46.4 87.8 46.8 87.4 46.8 86.8zM44 62.8h-1.4v3.8h-0.3v-3.8h-1.4v-0.3H44V62.8zM41.2 68.5l-0.7 0.6h-0.3l0.5-0.6H41.2zM40.4 69.6c1.2 0 2.1 0.9 2.1 2.1s-0.9 2.1-2.1 2.1c-1.2 0-2.1-0.9-2.1-2.1C38.3 70.5 39.2 69.6 40.4 69.6zM37.5 76.8h2.4V77h-2.1v1.6h1.8v0.3h-1.8v1.6H40v0.3h-2.5V76.8zM38 83.9h1.3c0.7 0 1.2 0.3 1.2 1 0 0.5-0.2 0.7-0.5 0.9 0.4 0.1 0.8 0.4 0.8 1 0 0.7-0.5 1.1-1.2 1.1H38V83.9zM40.4 78.8c0-1.2 0.9-2.1 2.1-2.1 0.4 0 0.9 0.1 1.2 0.4l-0.1 0.2C43.3 77.1 43 77 42.5 77c-1 0-1.7 0.8-1.7 1.8 0 1 0.7 1.8 1.7 1.8 0.8 0 1.5-0.5 1.5-1.5h-1.2v-0.3h1.6c0 1.4-0.8 2.1-1.8 2.1C41.3 80.9 40.4 80 40.4 78.8zM42.7 83.9h0.4l1.6 4.1h-0.4l-0.4-1.2h-2L41.4 88h-0.3L42.7 83.9zM44.4 94.5c0.3 0.2 0.7 0.4 1.1 0.4 0.6 0 1.1-0.3 1.1-0.8 0-1.1-2.3-0.5-2.3-2 0-0.7 0.5-1.1 1.3-1.1 0.4 0 0.9 0.1 1.2 0.4l-0.1 0.2c-0.3-0.2-0.7-0.3-1-0.3 -0.5 0-1 0.3-1 0.8 0 1.1 2.3 0.5 2.3 2 0 0.8-0.6 1.1-1.4 1.1 -0.5 0-1-0.2-1.3-0.4L44.4 94.5zM46.5 97h0.8l-0.8 0.7h-0.6L46.5 97zM46.6 80.9c-0.9 0-1.6-0.6-1.6-1.5v-2.7h0.3v2.7c0 0.7 0.5 1.2 1.2 1.2s1.2-0.5 1.2-1.2v-2.7h0.3v2.7C48.2 80.3 47.6 80.9 46.6 80.9zM52.1 69.6c0.4 0 0.9 0.1 1.2 0.4l-0.1 0.2c-0.3-0.2-0.7-0.3-1.1-0.3 -1 0-1.7 0.8-1.7 1.8s0.7 1.8 1.7 1.8c0.4 0 0.8-0.1 1.1-0.3l0.2 0.2c-0.3 0.2-0.8 0.4-1.3 0.4 -1.2 0-2.1-0.9-2.1-2.1S50.9 69.6 52.1 69.6zM50.9 76.8h0.5l1.6 3.1 1.6-3.1H55l0.1 4.1h-0.3l-0.1-3.7 -1.6 3.1h-0.2l-1.6-3.1 -0.1 3.7h-0.3L50.9 76.8zM53.1 94.7c0.1 0 0.2 0.1 0.2 0.2s-0.1 0.2-0.2 0.2c-0.1 0-0.2-0.1-0.2-0.2S53 94.7 53.1 94.7zM53.1 99.3c0-0.8 0.6-1.2 1.4-1.2 0.5 0 1 0.1 1.4 0.4L55.7 99c-0.3-0.2-0.7-0.3-1-0.3 -0.4 0-0.7 0.2-0.7 0.5 0 0.9 2.2 0.3 2.2 1.8 0 0.8-0.6 1.2-1.5 1.2 -0.6 0-1.1-0.2-1.5-0.5l0.3-0.5c0.3 0.3 0.7 0.4 1.1 0.4 0.4 0 0.8-0.1 0.8-0.5C55.3 100.2 53.1 100.8 53.1 99.3zM55.3 105.3h2.6v0.6h-1.9v1.1h1.6v0.6h-1.6v1.2H58v0.6h-2.7V105.3zM56.8 102.2v-4.1h0.7v4.1H56.8zM56 95.2c-1.2 0-2.1-0.9-2.1-2.1 0-1.2 0.9-2.1 2.1-2.1s2.1 0.9 2.1 2.1S57.2 95.2 56 95.2zM60.8 80.5l0.1-0.2c0.3 0.2 0.7 0.4 1.1 0.4 0.6 0 1.1-0.3 1.1-0.8 0-1.1-2.3-0.5-2.3-2 0-0.7 0.5-1.1 1.3-1.1 0.4 0 0.9 0.1 1.2 0.4l-0.1 0.2c-0.3-0.2-0.7-0.3-1-0.3 -0.5 0-1 0.3-1 0.8 0 1.1 2.3 0.5 2.3 2 0 0.8-0.6 1.1-1.4 1.1C61.6 80.9 61.1 80.7 60.8 80.5zM61.7 85c0-0.7 0.5-1.1 1.3-1.1 0.4 0 0.9 0.1 1.2 0.4l-0.1 0.2c-0.3-0.2-0.7-0.3-1-0.3 -0.5 0-1 0.3-1 0.8 0 1.1 2.3 0.5 2.3 2 0 0.8-0.6 1.1-1.4 1.1 -0.5 0-1-0.2-1.3-0.4l0.1-0.2c0.3 0.2 0.7 0.4 1.1 0.4 0.6 0 1.1-0.3 1.1-0.8C64 85.8 61.7 86.4 61.7 85zM63.9 94.9c0 0.1-0.1 0.2-0.2 0.2s-0.2-0.1-0.2-0.2 0.1-0.2 0.2-0.2S63.9 94.8 63.9 94.9zM63.9 105.2c1.2 0 2.1 0.9 2.1 2.1 0 1.2-0.9 2.1-2.1 2.1s-2.1-0.9-2.1-2.1C61.8 106.1 62.7 105.2 63.9 105.2zM64.6 100.2c0-1.2 0.9-2.1 2.1-2.1s2.1 0.9 2.1 2.1 -0.9 2.1-2.1 2.1S64.6 101.4 64.6 100.2zM66.8 105.3h0.7v3.5h1.8v0.6h-2.5V105.3zM69.2 93c0-1.2 0.9-2.1 2.1-2.1 1.2 0 2.1 0.9 2.1 2.1 0 0.6-0.2 1.2-0.6 1.6l0.2 0.3 -0.2 0.2 -0.3-0.3c-0.3 0.2-0.7 0.3-1.2 0.3C70.1 95.2 69.2 94.2 69.2 93zM69.5 98.1h1.5c0.9 0 1.4 0.6 1.4 1.3 0 0.8-0.5 1.4-1.4 1.4h-0.8v1.4h-0.7V98.1zM69.7 105.3h0.7v2.6c0 0.5 0.4 0.9 0.9 0.9s0.9-0.3 0.9-0.9v-2.6h0H73v2.6c0 0.9-0.6 1.5-1.6 1.5 -0.9 0-1.6-0.6-1.6-1.5V105.3zM72.7 98.7v-0.6H76v0.6h0 -1.2v3.5H74v-3.5H72.7zM75.8 105.2c0.5 0 1 0.1 1.4 0.5l-0.3 0.5c-0.3-0.2-0.7-0.3-1-0.3 -0.8 0-1.4 0.6-1.4 1.5 0 0.8 0.6 1.5 1.4 1.5 0.4 0 0.8-0.1 1-0.3l0.3 0.4c-0.4 0.3-0.9 0.5-1.4 0.5 -1.2 0-2.1-0.9-2.1-2.1C73.7 106.1 74.6 105.2 75.8 105.2zM76.6 102.2v-4.1h0.7v4.1H76.6zM75.7 95.2c-0.9 0-1.6-0.6-1.6-1.5V91h0.3v2.7c0 0.7 0.5 1.2 1.2 1.2 0.7 0 1.2-0.5 1.2-1.2V91h0.3v2.7C77.3 94.6 76.7 95.2 75.7 95.2zM76.5 77.2l-0.1 3.7H76l0.1-4.1h0.5l1.6 3.1 1.6-3.1h0.4l0.1 4.1h-0.3l-0.1-3.7 -1.6 3.1h-0.2L76.5 77.2zM81.7 85.8v0.3h-1.8v1.6H82V88h-2.5v-4.1h2.4v0.3h-2.1v1.6H81.7zM80.6 92.9v0.3h-1.8v1.6h2.1v0.3h-2.5V91h2.4v0.3h-2.1v1.6H80.6zM77.8 105.3h0.7v4.1h-0.7V105.3zM81.6 80.9v-4.1H84V77h-2.1v1.6h1.8v0.3h-1.8v1.6H84v0.3H81.6zM82.8 83.9h0.4l2.5 3.7v-3.7h0.3V88h-0.5l-2.5-3.7 0 3.7h-0.3V83.9zM85 101.7l2.1-3h-2v-0.6H88v0.5l-2.1 3H88v0.6H85V101.7zM87.8 93.1c0-1.2 0.9-2.1 2.1-2.1 0.4 0 0.9 0.1 1.2 0.4L91 91.6c-0.3-0.2-0.6-0.3-1.1-0.3 -1 0-1.7 0.8-1.7 1.8 0 1 0.7 1.8 1.7 1.8 0.8 0 1.5-0.5 1.5-1.5h-1.2v-0.3h1.6c0 1.4-0.8 2.1-1.8 2.1C88.7 95.2 87.8 94.2 87.8 93.1zM89.8 98.1h0.8l1.5 4.1h-0.7l-0.3-1h-1.6l-0.3 1h-0.7L89.8 98.1zM91.6 88l-2.5-3.7V88h-0.3v-4.1h0.4l2.5 3.7v-3.7h0.3V88H91.6zM91.3 69.9v3.8H91v-3.8h-1.4v-0.3h3.1v0.3H91.3zM92.7 66.6h-0.3l1.6-4.1h0.4l1.6 4.1h-0.4l-0.4-1.2h-2L92.7 66.6zM95.6 71.5v0.3h-1.8v1.6h2.1v0.3h-2.5v-4.1h2.4v0.3h-2.1v1.6H95.6zM92.8 80.9v-4.1h1.4c1.3 0 2 0.9 2 2.1s-0.7 2.1-2 2.1L92.8 80.9 92.8 80.9zM94.7 59.5v-4.1h2.4v0.3h-2.1v1.6h1.8v0.3h-1.8v1.6h2.1v0.3H94.7zM98 52.1c0.4 0 0.8-0.1 1.1-0.3l0.2 0.2c-0.3 0.2-0.8 0.4-1.3 0.4 -1.2 0-2.1-0.9-2.1-2.1s0.9-2.1 2.1-2.1c0.4 0 0.9 0.1 1.2 0.4l-0.1 0.2c-0.3-0.2-0.7-0.3-1.1-0.3 -1 0-1.7 0.8-1.7 1.8S97 52.1 98 52.1zM99.2 57.6l-1.3 1.9h-0.4l1.5-2.1 -1.4-2H98l1.2 1.7 1.2-1.7h0.4l-1.4 2 1.5 2.1h-0.4L99.2 57.6zM100.1 52.4v-4.1h0.3v4.1H100.1zM101 43.2c0 1.2-0.7 2.1-2 2.1h-1.4v0 -4.1h1.4C100.4 41.1 101 42 101 43.2zM97.6 34h1.4c0.8 0 1.3 0.5 1.3 1.2 0 0.6-0.4 1.1-1 1.2l1 1.7H100l-1-1.7h-1v1.6h-0.3V34zM96.5 45.2L96.1 44h-2l-0.4 1.2h-0.3l1.6-4.1h0.4l1.6 4.1H96.5zM94.7 33.9c1.2 0 2.1 0.9 2.1 2.1s-0.9 2.1-2.1 2.1c-1.2 0-2.1-0.9-2.1-2.1C92.6 34.8 93.5 33.9 94.7 33.9zM92.4 34.3H91v3.8h-0.3v-3.8h-1.4V34h3.1V34.3zM87.7 26.9h0.4l1.6 4.1h-0.4l-0.4-1.2h-2L86.5 31h-0.3L87.7 26.9zM85.8 36.7V34h0.3v2.7c0 0.9-0.6 1.5-1.6 1.5 -0.9 0-1.6-0.6-1.6-1.5V34h0.3v2.7c0 0.7 0.5 1.2 1.2 1.2C85.3 37.9 85.8 37.4 85.8 36.7zM82.2 26.9h0.4l2.5 3.7v-3.7h0.3V31H85l-2.5-3.7V31h-0.3V26.9zM82.3 37c0 0.8-0.6 1.1-1.4 1.1 -0.5 0-1-0.2-1.3-0.4l0.1-0.2c0.3 0.2 0.7 0.4 1.1 0.4 0.6 0 1.1-0.3 1.1-0.8 0-1.1-2.3-0.5-2.3-2 0-0.7 0.5-1.1 1.3-1.1 0.4 0 0.9 0.1 1.2 0.4L82 34.6c-0.3-0.2-0.7-0.3-1-0.3 -0.5 0-1 0.3-1 0.8C80 36.2 82.3 35.6 82.3 37zM77.9 26.9h0.3v2.7c0 0.7 0.5 1.2 1.2 1.2 0.7 0 1.2-0.5 1.2-1.2v-2.7h0.3v2.7c0 0.9-0.6 1.5-1.6 1.5 -0.9 0-1.6-0.6-1.6-1.5V26.9zM78.3 37.7V34h0.3v4.1h-0.5l-2.5-3.7 0 3.7h-0.3V34h0.4L78.3 37.7zM72.9 28c0-0.7 0.5-1.1 1.3-1.1 0.4 0 0.9 0.1 1.2 0.4l-0.1 0.2c-0.3-0.2-0.7-0.3-1-0.3 -0.5 0-1 0.3-1 0.8 0 1.1 2.3 0.5 2.3 2 0 0.8-0.6 1.1-1.4 1.1 -0.5 0-1-0.2-1.3-0.4l0.1-0.2c0.3 0.2 0.7 0.4 1.1 0.4 0.6 0 1.1-0.3 1.1-0.8C75.2 28.8 72.9 29.4 72.9 28zM74.6 36.1c0 1.2-0.9 2.1-2.1 2.1 -1.2 0-2.1-0.9-2.1-2.1 0-1.2 0.9-2.1 2.1-2.1C73.7 33.9 74.6 34.8 74.6 36.1zM70.2 26.8c1.2 0 2.1 0.9 2.1 2.1s-0.9 2.1-2.1 2.1C69 31 68 30.1 68 28.9 68 27.7 69 26.8 70.2 26.8zM63 26.9h0.5l1.6 3.1 1.6-3.1h0.4l0.1 4.1h-0.3l-0.1-3.7 -1.6 3.1h-0.2l-1.6-3.1L63.2 31h-0.3L63 26.9zM60 26.8c1.2 0 2.1 0.9 2.1 2.1s-0.9 2.1-2.1 2.1c-1.2 0-2.1-0.9-2.1-2.1C57.9 27.7 58.8 26.8 60 26.8zM57.8 38.1V34h1.4c1.3 0 2 0.9 2 2.1s-0.7 2.1-2 2.1L57.8 38.1 57.8 38.1zM54.7 28c0-0.7 0.5-1.1 1.3-1.1 0.4 0 0.9 0.1 1.2 0.4l-0.1 0.2c-0.3-0.2-0.7-0.3-1-0.3 -0.5 0-1 0.3-1 0.8 0 1.1 2.3 0.5 2.3 2 0 0.8-0.6 1.1-1.4 1.1 -0.5 0-1-0.2-1.3-0.4l0.1-0.2c0.3 0.2 0.7 0.4 1.1 0.4 0.6 0 1.1-0.3 1.1-0.8C57 28.8 54.7 29.4 54.7 28zM53.7 34h0.4l1.6 4.1h-0.4l-0.4-1.2h-2l-0.4 1.2h-0.3L53.7 34zM47.2 34h0.5l1.6 3.1 1.6-3.1h0.4l0.1 4.1h-0.3L51 34.4l-1.6 3.1h-0.2l-1.6-3.1 -0.1 3.7h-0.3L47.2 34zM47 41.1h1.4c0.8 0 1.3 0.5 1.3 1.2 0 0.6-0.4 1.1-1 1.2l1 1.7h-0.4l-1-1.7h-1v1.7H47V41.1zM43.5 34h1.4c0.8 0 1.3 0.5 1.3 1.2 0 0.6-0.4 1.1-1 1.2l1 1.7h-0.4l-1-1.7h-1v1.6h-0.3V34zM43.4 41.1h1.4c0.9 0 1.3 0.5 1.3 1.3 0 0.7-0.5 1.3-1.3 1.3h-1.1v1.5h-0.3V41.1zM43.3 48.2h0.4l2.5 3.7v-3.7h0.3v4.1h-0.4l-2.5-3.7 0 3.7h-0.3V48.2zM44.6 55.4H45l1.6 4.1h-0.4l-0.4-1.2h-2l-0.4 1.2h-0.3L44.6 55.4zM42.7 56.6c0 0.6-0.4 1.1-1 1.2l1 1.7h-0.4l-1-1.7h-1v1.7h-0.3v-4.2h1.4C42.2 55.4 42.7 55.9 42.7 56.6zM41.8 52.4v-4.1h0.3v4.1H41.8zM42 34h0.3v4.1H42V34zM38.7 34h2.5v0.3H39V36h1.7v0.3H39v1.8h-0.3V34zM38.1 41.1h0.4l1.6 3.1 1.6-3.1h0.4l0.1 4.1h-0.3l-0.1-3.7 -1.6 3.1H40l-1.6-3.1 -0.1 3.7h-0.3L38.1 41.1zM38.6 55.7L38.4 56c-0.3-0.2-0.6-0.3-1.1-0.3 -1 0-1.7 0.8-1.7 1.8 0 1 0.7 1.8 1.7 1.8 0.8 0 1.5-0.5 1.5-1.5h-1.2v-0.3h1.6c0 1.4-0.8 2.1-1.8 2.1 -1.2 0-2.1-0.9-2.1-2.1 0-1.2 0.9-2.1 2.1-2.1C37.8 55.3 38.3 55.5 38.6 55.7zM37.1 41.1v0.3H35V43h1.8v0.3H35v1.6h2.1v0.3h-2.5v-4.1H37.1zM34.4 48.2h1.3c0.7 0 1.2 0.3 1.2 1 0 0.5-0.2 0.7-0.5 0.9 0.4 0.1 0.8 0.4 0.8 1 0 0.7-0.5 1.1-1.2 1.1h-1.6V48.2zM32.4 55.4h2.4v0.3h-2.1v1.6h1.8v0.3h-1.8v1.6h2.1v0.3h-2.5V55.4zM33.4 71.7c0 1.2-0.9 2.1-2.1 2.1 -1.2 0-2.1-0.9-2.1-2.1 0-1.2 0.9-2.1 2.1-2.1S33.4 70.5 33.4 71.7zM28.5 55.4h3.1v0.3h-1.4v3.8h-0.3v-3.8h-1.4V55.4zM24.6 55.4H25l2.5 3.7v-3.7h0.3v4.1h-0.4l-2.5-3.7v3.7h-0.3V55.4zM23.1 55.4h0.3v4.1h-0.3V55.4zM25 73.7h-2.5v-4.1h2.4v0.3h-2.1v1.6h1.8v0.3h-1.8v1.6H25V73.7zM25.4 71.7c0-1.2 0.9-2.1 2.1-2.1 0.4 0 0.9 0.1 1.2 0.4l-0.1 0.2c-0.3-0.2-0.7-0.3-1.1-0.3 -1 0-1.7 0.8-1.7 1.8s0.7 1.8 1.7 1.8c0.4 0 0.8-0.1 1.1-0.3l0.2 0.2c-0.3 0.2-0.8 0.4-1.3 0.4C26.3 73.8 25.4 72.9 25.4 71.7zM26.7 84.2v-0.3h3.1v0.3h-1.4V88h-0.3v-3.8H26.7zM29.6 95.2c-0.5 0-1-0.2-1.3-0.4l0.1-0.2c0.3 0.2 0.7 0.4 1.1 0.4 0.6 0 1.1-0.3 1.1-0.8 0-1.1-2.3-0.5-2.3-2 0-0.7 0.5-1.1 1.3-1.1 0.4 0 0.9 0.1 1.2 0.4l-0.1 0.2c-0.3-0.2-0.7-0.3-1-0.3 -0.5 0-1 0.3-1 0.8 0 1.1 2.3 0.5 2.3 2C31.1 94.8 30.4 95.2 29.6 95.2zM32.2 95.1h-0.3V91h0.3V95.1zM31.9 86.4h-1V88h-0.3v-4.2H32c0.8 0 1.3 0.5 1.3 1.2 0 0.6-0.4 1.1-1 1.2l1 1.7h-0.4L31.9 86.4zM33.1 93.1c0-1.2 0.9-2.1 2.1-2.1 0.4 0 0.9 0.1 1.2 0.4l-0.1 0.2c-0.3-0.2-0.6-0.3-1.1-0.3 -1 0-1.7 0.8-1.7 1.8 0 1 0.7 1.8 1.7 1.8 0.8 0 1.5-0.5 1.5-1.5h-1.2v-0.3H37c0 1.4-0.8 2.1-1.8 2.1C33.9 95.2 33.1 94.2 33.1 93.1zM39 102.2l-0.3-1H37l-0.3 1h-0.7l1.5-4.1h0.8l1.5 4.1H39zM40.1 95.1h-2.4V91h0.3v3.8h2V95.1zM43.6 102.2h-0.7l-1.9-3 0 3h-0.7v-4.1h0.8l1.9 3.1v-3.1h0.6V102.2zM43.5 95.1l-0.4-1.2h-2l-0.4 1.2h-0.3l1.6-4.1h0.4l1.6 4.1H43.5zM47.3 102.2l-0.4-1h-1.6l-0.3 1h-0.7l1.5-4.1h0.8l1.5 4.1H47.3zM47.9 86c0-1.2 0.9-2.1 2.1-2.1s2.1 0.9 2.1 2.1c0 1.2-0.9 2.1-2.1 2.1C48.8 88.1 47.9 87.1 47.9 86zM51.1 102.2h-2.5v-4.1h0.7v3.5h1.8V102.2zM49.6 93.9l-0.4 1.2h-0.3l1.6-4.1h0.4l1.6 4.1H52l-0.4-1.2H49.6zM52.4 98.1v4.1h-0.7v-4.1H52.4zM52.9 116.5h-0.7v-4.1h0.7V116.5zM52.3 107.8v1.5h-0.7v-4.1h1.5c0.9 0 1.4 0.5 1.4 1.3 0 0.6-0.3 1-0.8 1.2l1 1.6h-0.8l-0.9-1.5H52.3zM57.2 116.5h-0.7l-1.9-3v3h-0.7v-4.1h0.7l1.9 3.1v-3.1h0.6V116.5zM61.1 113L61.1 113h-1.3v3.5h-0.7V113h-1.2v-0.6h3.2V113zM59.9 109.4c-0.6 0-1.1-0.2-1.5-0.5l0.3-0.5c0.3 0.3 0.7 0.4 1.1 0.4 0.4 0 0.8-0.1 0.8-0.5 0-0.9-2.2-0.3-2.2-1.8 0-0.8 0.6-1.2 1.4-1.2 0.5 0 1 0.1 1.4 0.4l-0.3 0.5c-0.3-0.2-0.7-0.3-1-0.3 -0.4 0-0.7 0.2-0.7 0.5 0 0.9 2.2 0.3 2.2 1.8C61.4 109 60.7 109.4 59.9 109.4zM60.4 93.5v1.7H60V91h1.4c0.8 0 1.3 0.5 1.3 1.2 0 0.6-0.4 1.1-1 1.2l1 1.7h-0.4l-1-1.7H60.4zM61.7 101.8c0-0.2 0.1-0.4 0.4-0.4 0.3 0 0.4 0.3 0.4 0.6 0 0.5-0.4 1-0.9 1.2l-0.1-0.3c0.2 0 0.4-0.2 0.4-0.4S61.7 102.1 61.7 101.8zM64.3 113h-1.9v1.1H64v0.6h-1.6v1.2h1.9v0.6h-2.7v-4.1h0 2.6V113zM66.8 116.5c-1.3 0-2.1-0.9-2.1-2.1 0-1.2 0.9-2.2 2.1-2.2 0.5 0 1 0.1 1.4 0.5l-0.3 0.5c-0.3-0.2-0.7-0.3-1-0.3 -0.8 0-1.4 0.7-1.4 1.5 0 0.8 0.5 1.5 1.3 1.5 0.6 0 1.1-0.4 1.1-1h-1v-0.6h1.8C68.6 115.7 68 116.5 66.8 116.5zM71.5 116.5l-0.9-1.5H70v1.5h-0.7v-4.1h1.5c0.9 0 1.4 0.5 1.4 1.3 0 0.6-0.3 1-0.8 1.2l1 1.6H71.5zM75.6 116.5l-0.3-1h-1.6l-0.3 1h-0.7l1.5-4.1h0.8l1.5 4.1H75.6zM78.6 116.6c-1.2 0-2.1-0.9-2.1-2.1s0.9-2.1 2.1-2.1c0.5 0 1 0.1 1.4 0.5l-0.3 0.5c-0.3-0.2-0.7-0.3-1-0.3 -0.8 0-1.4 0.6-1.4 1.5 0 0.8 0.6 1.5 1.4 1.5 0.4 0 0.8-0.1 1-0.3l0.3 0.4C79.6 116.4 79.1 116.6 78.6 116.6zM81.4 116.5h-0.7v-4.1h0.7V116.5zM79.3 107.3c0-1.2 0.9-2.1 2.1-2.1s2.1 0.9 2.1 2.1c0 1.2-0.9 2.1-2.1 2.1C80.2 109.5 79.3 108.5 79.3 107.3zM84.2 116.6c-1.2 0-2.1-0.9-2.1-2.1 0-1.2 0.9-2.1 2.1-2.1s2.1 0.9 2.1 2.1S85.5 116.6 84.2 116.6zM83.8 112l0.6-0.7h0.8l-0.8 0.7H83.8zM84.9 106.3v3h-0.7v-4.1H85l1.9 3.1v-3.1h0.6v4.1h-0.7L84.9 106.3zM90.3 116.5h-0.7l-1.9-3v3H87v-4.1h0.7l1.9 3.1v-3.1h0.6V116.5zM91.6 116.6c-0.2 0-0.4-0.2-0.4-0.4s0.2-0.4 0.4-0.4 0.4 0.2 0.4 0.4S91.8 116.6 91.6 116.6zM92.7 109.4H90v-4.1h2.6v0.6h-1.9v1.1h1.6v0.6h-1.6v1.2h1.9V109.4zM94.4 102.3c-1.2 0-2.1-0.9-2.1-2.1s0.9-2.1 2.1-2.1c0.5 0 1 0.1 1.4 0.5l-0.3 0.5c-0.3-0.2-0.7-0.3-1-0.3 -0.8 0-1.4 0.6-1.4 1.5 0 0.8 0.6 1.5 1.4 1.5 0.4 0 0.8-0.1 1-0.3l0.3 0.4C95.4 102.1 94.9 102.3 94.4 102.3zM95.8 95.1h-0.4l-2.5-3.7 0 3.7h-0.3V91H93l2.5 3.7V91h0.3V95.1zM96.3 86.5c0 0.9-0.6 1.5-1.6 1.5s-1.6-0.6-1.6-1.5v-2.7h0.3v2.7c0 0.7 0.5 1.2 1.2 1.2s1.2-0.5 1.2-1.2v-2.7h0.3V86.5zM97.1 102.2h-0.7v-4.1h0.7V102.2zM97.2 95.1h-0.3V91h0.3V95.1zM96.7 78.8c0-1.2 0.9-2.1 2.1-2.1s2.1 0.9 2.1 2.1S100 81 98.8 81C97.6 80.9 96.7 80 96.7 78.8zM97.4 83.9h2.4v0.3h-2.1v1.6h1.8v0.3h-1.8v1.6h2.1V88h-2.5V83.9zM100 102.3c-1.2 0-2.1-0.9-2.1-2.1 0-1.2 0.9-2.1 2.1-2.1s2.1 0.9 2.1 2.1S101.2 102.3 100 102.3zM106.1 102.2h-0.7l-1.9-3 0 3h-0.7v-4.1h0.7l1.9 3.1v-3.1h0.6V102.2zM105 95.2c-1.2 0-2.1-0.9-2.1-2.1s0.9-2.1 2.1-2.1c0.4 0 0.9 0.1 1.2 0.4l-0.1 0.2c-0.3-0.2-0.7-0.3-1.1-0.3 -1 0-1.7 0.8-1.7 1.8 0 1 0.7 1.8 1.7 1.8 0.4 0 0.8-0.1 1.1-0.3l0.2 0.2C105.9 95.1 105.4 95.2 105 95.2zM106.9 103.2l-0.1-0.3c0.2 0 0.4-0.2 0.4-0.4s-0.2-0.3-0.2-0.6c0-0.2 0.1-0.4 0.4-0.4 0.3 0 0.4 0.3 0.4 0.6C107.8 102.5 107.4 103 106.9 103.2zM109.7 95.1l-0.4-1.2h-2l-0.4 1.2h-0.3l1.6-4.1h0.4l1.6 4.1H109.7zM110.2 88h-0.4l-1-1.7h-1V88h-0.3v-4.2h1.4c0.8 0 1.3 0.5 1.3 1.2 0 0.6-0.4 1.1-1 1.2L110.2 88zM109.6 73.7H108v-4.1h1.3c0.7 0 1.2 0.3 1.2 1 0 0.5-0.2 0.7-0.5 0.9 0.4 0.1 0.8 0.4 0.8 1C110.8 73.3 110.3 73.7 109.6 73.7zM112.1 83.9h0.4l1.6 4.1h-0.4l-0.4-1.2h-2l-0.4 1.2h-0.3L112.1 83.9zM114.1 95.1h-0.4l-2.5-3.7v3.7h-0.3V91h0.4l2.5 3.7V91h0.3V95.1zM115.3 95.2c-0.1 0-0.2-0.1-0.2-0.2s0.1-0.2 0.2-0.2c0.1 0 0.2 0.1 0.2 0.2S115.4 95.2 115.3 95.2zM115.3 92.9c-0.1 0-0.2-0.1-0.2-0.2 0-0.1 0.1-0.2 0.2-0.2 0.1 0 0.2 0.1 0.2 0.2C115.5 92.8 115.4 92.9 115.3 92.9zM115.7 88c-0.5 0-1-0.2-1.3-0.4l0.1-0.2c0.3 0.2 0.7 0.4 1.1 0.4 0.6 0 1.1-0.3 1.1-0.8 0-1.1-2.3-0.5-2.3-2 0-0.7 0.5-1.1 1.3-1.1 0.4 0 0.9 0.1 1.2 0.4l-0.1 0.2c-0.3-0.2-0.7-0.3-1-0.3 -0.5 0-1 0.3-1 0.8 0 1.1 2.3 0.5 2.3 2C117.2 87.7 116.5 88 115.7 88zM117.2 73.7h-2.5v-4.1h2.4v0.3h-2.1v1.6h1.8v0.3h-1.8v1.6h2.1V73.7zM115.4 58.3l-0.4 1.2h-0.3l1.6-4.1h0.4l1.6 4.1h-0.4l-0.4-1.2H115.4zM119.1 73.8c-0.5 0-1-0.2-1.3-0.4l0.1-0.2c0.3 0.2 0.7 0.4 1.1 0.4 0.6 0 1.1-0.3 1.1-0.8 0-1.1-2.3-0.5-2.3-2 0-0.7 0.5-1.1 1.3-1.1 0.4 0 0.9 0.1 1.2 0.4l-0.1 0.2c-0.3-0.2-0.7-0.3-1-0.3 -0.5 0-1 0.3-1 0.8 0 1.1 2.3 0.5 2.3 2C120.5 73.4 119.9 73.8 119.1 73.8zM119.9 59.5c-0.5 0-1-0.2-1.3-0.4l0.1-0.2c0.3 0.2 0.7 0.4 1.1 0.4 0.6 0 1.1-0.3 1.1-0.8 0-1.1-2.3-0.5-2.3-2 0-0.7 0.5-1.1 1.3-1.1 0.4 0 0.9 0.1 1.2 0.4L121 56c-0.3-0.2-0.7-0.3-1-0.3 -0.5 0-1 0.3-1 0.8 0 1.1 2.3 0.5 2.3 2C121.3 59.2 120.7 59.5 119.9 59.5zM121.4 73.8c-0.1 0-0.2-0.1-0.2-0.2s0.1-0.2 0.2-0.2 0.2 0.1 0.2 0.2S121.5 73.8 121.4 73.8z"
    />
    <polygon class="st1" points="87.9 27.2 87 29.5 88.8 29.5 " />
    <polygon class="st1" points="52.3 50.9 54 50.9 53.1 48.6 " />
    <path class="st1" d="M57 50.4c0.7 0 1.1-0.3 1.1-0.9 0-0.6-0.4-0.9-1.1-0.9h-1v1.8L57 50.4 57 50.4zM75 87.8c1-0.1 1.7-0.9 1.7-1.9 0-1-0.7-1.8-1.7-1.8S73.2 85 73.2 86 74 87.8 75 87.8zM104.6 77.1h-0.9v3.5h0.9v0c1.1 0 1.7-0.6 1.7-1.7S105.6 77.1 104.6 77.1z"
    />
    <polygon class="st1" points="115.5 58 117.3 58 116.4 55.7 " />
    <path class="st1" d="M103.4 52.2c1-0.1 1.7-0.9 1.7-1.9 0-1-0.7-1.8-1.7-1.8s-1.7 0.8-1.7 1.8S102.4 52.2 103.4 52.2zM59.8 78.8c0-1-0.7-1.8-1.7-1.8s-1.7 0.8-1.7 1.8 0.7 1.8 1.7 1.8C59.1 80.6 59.8 79.8 59.8 78.8z" />
    <polygon class="st1" points="102.2 43.7 104 43.7 103.1 41.5 " />
    <path class="st1" d="M81.4 105.8c-0.8 0-1.4 0.6-1.4 1.5 0 0.9 0.6 1.5 1.4 1.5 0.8 0 1.4-0.6 1.4-1.5C82.8 106.4 82.2 105.8 81.4 105.8z" />
    <polygon class="st1" points="60.4 58 62.1 58 61.2 55.7 " />
    <polygon class="st1" points="94.3 43.7 96 43.7 95.2 41.5 " />
    <polygon class="st1" points="73.8 114.9 75 114.9 74.4 113.1 " />
    <path class="st1" d="M84.2 113c-0.8 0-1.4 0.6-1.4 1.5 0 0.9 0.6 1.5 1.4 1.5s1.4-0.6 1.4-1.5C85.6 113.6 85 113 84.2 113zM55.8 84.2h-0.8v1.5h0.9c0.5 0 0.9-0.2 0.9-0.8C56.8 84.4 56.4 84.2 55.8 84.2zM72.4 38c1-0.1 1.7-0.9 1.7-1.9 0-1-0.7-1.8-1.7-1.8s-1.7 0.8-1.7 1.8C70.7 37.2 71.5 38 72.4 38zM56 91.2c-1 0-1.7 0.8-1.7 1.8s0.7 1.8 1.7 1.8c1 0 1.7-0.8 1.7-1.9C57.7 92 57 91.2 56 91.2zM62.3 43.2c0.7 0 1.1-0.3 1.1-0.9 0-0.6-0.4-0.9-1.1-0.9h-1v1.8L62.3 43.2 62.3 43.2zM102.6 66.5c1-0.1 1.7-0.9 1.7-1.9 0-1-0.7-1.8-1.7-1.8s-1.7 0.8-1.7 1.8S101.6 66.5 102.6 66.5zM71.9 86c0-1.1-0.7-1.7-1.7-1.7h-0.9v3.5h0.9v0C71.3 87.7 71.9 87.1 71.9 86z"
    />
    <polygon class="st1" points="42.9 84.2 42 86.5 43.7 86.5 " />
    <path class="st1" d="M100.6 78.8c0-1-0.7-1.8-1.7-1.8s-1.7 0.8-1.7 1.8 0.7 1.8 1.7 1.8C99.8 80.6 100.6 79.8 100.6 78.8zM97.9 62.8H97v3.5h0.9v0c1.1 0 1.7-0.6 1.7-1.7C99.6 63.4 98.9 62.8 97.9 62.8zM100 98.7c-0.8 0-1.4 0.6-1.4 1.5 0 0.9 0.6 1.5 1.4 1.5s1.4-0.6 1.4-1.5C101.4 99.3 100.8 98.7 100 98.7z"
    />
    <polygon class="st1" points="104.1 34.3 103.3 36.6 105 36.6 " />
    <path class="st1" d="M54.9 86.1v1.6h1.1c0.6 0 1-0.2 1-0.8 0-0.6-0.4-0.8-1.1-0.8H54.9z" />
</svg>
