<?xml version="1.0" standalone="no"?>
<?xml-stylesheet type="text/css" media="screen" href="../css/style.css"?>
<svg
    class="grafico_franquicia" xmlns="http://www.w3.org/2000/svg" version="1.1" x="0" y="0" width="1100" height="486" viewBox="0 0 1100 486" xml:space="preserve">
    
    <text transform="matrix(1 0 0 1 670.6099 116.0332)">
        <tspan x="0" y="0" class="st0 st1">DESARROLLO DE</tspan>
        <tspan x="134.3" y="53.6" class="st2 st1">MODELOS</tspan>
        <tspan x="4.8" y="107.1" class="st2 st1">DE FRANQUICIA,</tspan>
        <tspan x="-18.1" y="160.7" class="st2 st1">LICENCIAMIENTO</tspan>
        <tspan x="29.8" y="214.2" class="st2 st1">O SUCURSALES</tspan>
    </text>
    <text transform="matrix(1 0 0 1 680.3521 369.5068)" class="st3 st4">Crece con certidumbre, sea con sucursales o vendiendo franquicias.</text>
     <g id="phone" style="cursor: pointer;" onclick="window.parent.slide_Servicios('modelos_Franquicia');">
    <rect x="948.9" y="390.7" class="st5" width="71.2" height="19.2"/>
    <text transform="matrix(1 0 0 1 956.7461 404.2263)" class="st3 st6">LEER MÁS</text>
    </g>
    <g class="st7">
        <path class="st8" d="M413.2 275.9c-2.5-0.1-5.1-0.2-7.6-0.4l0.2-2.8c2.5 0.2 4.9 0.3 7.4 0.3L413.2 275.9zM420.8 275.9l-0.1-2.8c2.5-0.1 5-0.2 7.4-0.4l0.2 2.8C425.9 275.7 423.4 275.8 420.8 275.9zM398.1 274.8c-2.5-0.3-5-0.7-7.5-1.1l0.5-2.8c2.4 0.4 4.9 0.8 7.4 1.1L398.1 274.8zM435.9 274.7l-0.3-2.8c2.5-0.3 4.9-0.7 7.4-1.1l0.5 2.8C440.9 274.1 438.4 274.4 435.9 274.7zM383.2 272.3c-2.5-0.6-4.9-1.2-7.4-1.8l0.7-2.7c2.4 0.7 4.8 1.3 7.2 1.8L383.2 272.3zM450.9 272.1l-0.6-2.7c2.4-0.6 4.8-1.2 7.2-1.8l0.8 2.7C455.8 270.9 453.3 271.6 450.9 272.1zM368.5 268.2c-2.4-0.8-4.8-1.6-7.1-2.6l1-2.6c2.3 0.9 4.6 1.7 7 2.5L368.5 268.2zM465.5 268l-0.9-2.7c2.4-0.8 4.7-1.6 7-2.5l1 2.6C470.3 266.4 467.9 267.2 465.5 268zM354.4 262.8c-2.3-1-4.6-2.1-6.8-3.2l1.3-2.5c2.2 1.1 4.4 2.2 6.7 3.2L354.4 262.8zM479.6 262.5l-1.2-2.6c2.3-1 4.5-2.1 6.7-3.2l1.3 2.5C484.2 260.4 481.9 261.5 479.6 262.5zM340.9 256c-2.2-1.3-4.4-2.6-6.5-3.9l1.5-2.4c2.1 1.3 4.2 2.6 6.4 3.8L340.9 256zM493.1 255.6l-1.4-2.4c2.2-1.2 4.3-2.5 6.4-3.9l1.5 2.4C497.5 253 495.3 254.3 493.1 255.6zM328.1 247.8c-2.1-1.5-4.1-3-6.1-4.5l1.7-2.2c2 1.5 3.9 3 6 4.4L328.1 247.8zM505.9 247.4l-1.6-2.3c2-1.4 4-2.9 5.9-4.5l1.8 2.2C510 244.4 508 245.9 505.9 247.4zM316.2 238.5c-1.9-1.7-3.8-3.4-5.6-5.1l1.9-2c1.8 1.7 3.6 3.4 5.5 5L316.2 238.5zM517.8 238l-1.9-2.1c1.9-1.6 3.7-3.3 5.5-5l2 2C521.6 234.6 519.7 236.3 517.8 238zM305.2 228c-1.7-1.8-3.4-3.7-5.1-5.6l2.1-1.8c1.6 1.9 3.3 3.7 5 5.5L305.2 228zM528.7 227.5l-2.1-1.9c1.7-1.8 3.4-3.7 5-5.5l2.1 1.8C532.1 223.7 530.4 225.6 528.7 227.5zM295.4 216.5c-1.6-2-3.1-4-4.5-6.1l2.3-1.6c1.4 2 2.9 4 4.4 6L295.4 216.5zM538.5 215.9l-2.2-1.7c1.5-2 3-4 4.4-6l2.3 1.6C541.6 211.9 540.1 213.9 538.5 215.9zM286.7 204.1c-1.4-2.1-2.6-4.3-3.9-6.5l2.5-1.4c1.2 2.2 2.5 4.3 3.8 6.4L286.7 204.1zM547.2 203.5l-2.4-1.5c1.3-2.1 2.6-4.2 3.8-6.4l2.5 1.4C549.8 199.2 548.5 201.3 547.2 203.5zM279.2 190.9c-1.1-2.3-2.2-4.6-3.2-6.9l2.6-1.1c1 2.3 2.1 4.5 3.2 6.8L279.2 190.9zM554.5 190.3L552 189c1.1-2.2 2.1-4.5 3.1-6.7l2.6 1.1C556.7 185.7 555.6 188 554.5 190.3zM273.1 177c-0.9-2.4-1.7-4.8-2.5-7.2l2.7-0.9c0.8 2.4 1.6 4.7 2.5 7L273.1 177zM560.5 176.4l-2.6-1c0.9-2.3 1.7-4.7 2.4-7l2.7 0.9C562.3 171.6 561.4 174 560.5 176.4zM268.4 162.5c-0.7-2.4-1.3-4.9-1.8-7.4l2.8-0.6c0.5 2.4 1.1 4.8 1.8 7.2L268.4 162.5zM565.2 161.9l-2.7-0.7c0.6-2.4 1.2-4.8 1.7-7.2l2.8 0.6C566.4 157 565.8 159.5 565.2 161.9zM265.2 147.7c-0.4-2.5-0.8-5-1.1-7.5l2.8-0.3c0.3 2.5 0.6 4.9 1 7.4L265.2 147.7zM568.3 147.1l-2.8-0.5c0.4-2.4 0.7-4.9 1-7.4l2.8 0.3C569.1 142.1 568.7 144.6 568.3 147.1zM263.5 132.6c-0.2-2.5-0.3-5-0.3-7.6l2.8-0.1c0 2.5 0.1 5 0.3 7.4L263.5 132.6zM570 132l-2.8-0.2c0.2-2.5 0.3-4.9 0.3-7.4l2.8 0C570.3 127 570.2 129.5 570 132zM570.3 122.3h-2.8c0-2.5-0.1-5-0.2-7.4l2.8-0.1C570.2 117.3 570.3 119.8 570.3 122.3zM266 117.6l-2.8-0.1c0.1-2.5 0.2-5.1 0.4-7.6l2.8 0.2C266.2 112.6 266.1 115.1 266 117.6zM566.8 107.5c-0.2-2.5-0.6-4.9-0.9-7.4l2.8-0.4c0.4 2.5 0.7 5 0.9 7.5L566.8 107.5zM267.2 102.7l-2.8-0.4c0.3-2.5 0.7-5 1.2-7.5l2.8 0.5C267.9 97.8 267.5 100.3 267.2 102.7zM564.6 92.7c-0.5-2.4-1-4.9-1.6-7.3l2.7-0.7c0.6 2.4 1.2 4.9 1.7 7.4L564.6 92.7zM269.8 88.1l-2.7-0.6c0.6-2.5 1.2-4.9 1.9-7.3l2.7 0.8C271 83.3 270.4 85.7 269.8 88.1zM561 78.3c-0.7-2.4-1.5-4.7-2.4-7.1l2.7-1c0.9 2.4 1.7 4.8 2.4 7.2L561 78.3zM273.9 73.8l-2.7-0.9c0.8-2.4 1.7-4.8 2.6-7.1l2.6 1C275.6 69.1 274.7 71.4 273.9 73.8zM555.9 64.3c-1-2.3-2-4.6-3-6.8l2.5-1.2c1.1 2.3 2.1 4.6 3.1 6.9L555.9 64.3zM279.4 60l-2.6-1.2c1-2.3 2.1-4.6 3.3-6.8l2.5 1.3C281.5 55.5 280.4 57.7 279.4 60zM549.5 50.8c-1.2-2.2-2.4-4.3-3.7-6.5l2.4-1.5c1.3 2.2 2.6 4.4 3.8 6.6L549.5 50.8zM286.2 46.8l-2.4-1.4c1.3-2.2 2.6-4.3 4-6.5l2.4 1.5C288.7 42.5 287.4 44.6 286.2 46.8zM541.8 38.1c-1.4-2.1-2.8-4.1-4.3-6.1l2.3-1.7c1.5 2 3 4.1 4.4 6.2L541.8 38.1zM294.3 34.3l-2.3-1.6c1.5-2.1 3-4.1 4.6-6l2.2 1.8C297.2 30.3 295.7 32.3 294.3 34.3zM532.9 26.2c-1.6-1.9-3.2-3.8-4.9-5.6l2.1-1.9c1.7 1.9 3.4 3.8 5 5.7L532.9 26.2zM303.6 22.7l-2.1-1.9c1.7-1.9 3.4-3.8 5.2-5.6l2 2C306.9 19 305.2 20.8 303.6 22.7zM522.8 15.2c-1.8-1.7-3.6-3.4-5.4-5.1l1.9-2.1c1.9 1.7 3.7 3.4 5.5 5.2L522.8 15.2zM313.9 12L312 9.9c1.8-1.7 3.7-3.4 5.7-5l1.8 2.2C317.6 8.7 315.8 10.3 313.9 12zM511.7 5.2c-1.9-1.6-3.9-3.1-5.9-4.6l1.7-2.3c2 1.5 4 3 6 4.6L511.7 5.2zM325.3 2.4l-1.7-2.2c2-1.5 4.1-3 6.1-4.5l1.6 2.3C329.3-0.6 327.3 0.9 325.3 2.4zM499.7-3.6c-2.1-1.4-4.2-2.7-6.3-3.9l1.4-2.4c2.2 1.3 4.3 2.6 6.4 4L499.7-3.6zM337.6-6l-1.5-2.4c2.1-1.3 4.3-2.6 6.6-3.8l1.4 2.5C341.8-8.6 339.7-7.4 337.6-6zM486.9-11.1c-2.2-1.2-4.4-2.3-6.7-3.3l1.2-2.6c2.3 1.1 4.6 2.2 6.8 3.4L486.9-11.1zM350.6-13.2l-1.2-2.5c2.3-1.1 4.6-2.2 6.9-3.2l1.1 2.6C355.1-15.4 352.9-14.3 350.6-13.2zM473.5-17.4c-2.3-0.9-4.6-1.8-7-2.6l0.9-2.7c2.4 0.8 4.8 1.7 7.1 2.7L473.5-17.4zM364.3-19.1l-1-2.6c2.4-0.9 4.8-1.7 7.2-2.5l0.8 2.7C369-20.8 366.7-20 364.3-19.1zM459.4-22.3c-2.4-0.7-4.8-1.3-7.2-1.9l0.7-2.7c2.5 0.6 4.9 1.3 7.3 2L459.4-22.3zM378.6-23.6l-0.7-2.7c2.4-0.6 4.9-1.2 7.4-1.7l0.6 2.8C383.4-24.8 381-24.2 378.6-23.6zM445-25.8c-2.4-0.5-4.9-0.9-7.3-1.2l0.4-2.8c2.5 0.3 5 0.8 7.5 1.2L445-25.8zM393.1-26.6l-0.4-2.8c2.5-0.4 5-0.7 7.5-1l0.3 2.8C398-27.3 395.6-27 393.1-26.6zM430.2-27.8c-2.5-0.2-4.9-0.4-7.4-0.5l0.1-2.8c2.5 0.1 5.1 0.3 7.6 0.5L430.2-27.8zM407.9-28.2l-0.2-2.8c2.5-0.1 5-0.2 7.6-0.3l0 2.8C412.9-28.4 410.4-28.3 407.9-28.2z"/>
        <path class="st8" d="M213.8 142.5c-2.1 0-4.2-0.1-6.3-0.2l0.2-2.8c2 0.1 4.1 0.2 6.1 0.2l1.3 0 0 2.8L213.8 142.5zM222.7 142.2l-0.2-2.8c2.5-0.2 4.9-0.5 7.4-0.9l0.4 2.8C227.8 141.6 225.3 141.9 222.7 142.2zM199.9 141.6c-2.5-0.3-5-0.8-7.5-1.3l0.6-2.8c2.4 0.5 4.8 0.9 7.3 1.2L199.9 141.6zM237.8 139.8l-0.6-2.7c2.4-0.6 4.8-1.2 7.1-2l0.8 2.7C242.7 138.5 240.2 139.2 237.8 139.8zM185 138.5c-2.4-0.7-4.9-1.5-7.2-2.4l1-2.6c2.3 0.8 4.7 1.6 7 2.3L185 138.5zM252.3 135.2l-1-2.6c2.3-0.9 4.6-1.9 6.8-3l1.2 2.5C257 133.3 254.6 134.3 252.3 135.2zM170.8 133.3c-2.3-1-4.6-2.2-6.8-3.4l1.3-2.5c2.1 1.2 4.4 2.3 6.6 3.3L170.8 133.3zM266 128.6l-1.4-2.4c2.1-1.2 4.2-2.5 6.3-3.9l1.6 2.3C270.4 126 268.2 127.3 266 128.6zM157.4 126.1c-2.1-1.4-4.2-2.8-6.3-4.3l1.7-2.3c2 1.5 4 2.9 6.1 4.2L157.4 126.1zM278.6 120.1l-1.7-2.2c1.9-1.5 3.8-3.1 5.7-4.8l1.9 2.1C282.6 116.8 280.6 118.5 278.6 120.1zM145.2 117c-1.9-1.6-3.8-3.4-5.6-5.2l2-2c1.7 1.8 3.6 3.4 5.4 5.1L145.2 117zM289.9 109.8l-2-1.9c1.7-1.8 3.4-3.7 4.9-5.6l2.2 1.8C293.3 106 291.6 107.9 289.9 109.8zM134.5 106.2c-1.7-1.9-3.3-3.9-4.8-5.9l2.3-1.7c1.5 2 3 3.9 4.6 5.8L134.5 106.2zM299.5 98l-2.3-1.6c1.4-2 2.8-4.1 4-6.2l2.4 1.5C302.3 93.8 300.9 96 299.5 98zM125.4 94c-1.4-2.1-2.7-4.3-3.9-6.6l2.5-1.3c1.2 2.2 2.4 4.3 3.8 6.4L125.4 94zM307.3 85l-2.5-1.3c1.1-2.2 2.2-4.5 3.1-6.7l2.6 1.1C309.5 80.4 308.5 82.7 307.3 85zM118.1 80.6c-1-2.3-2-4.7-2.9-7.1l2.7-1c0.8 2.3 1.8 4.6 2.8 6.9L118.1 80.6zM313.2 70.9l-2.7-0.9c0.8-2.3 1.5-4.7 2.1-7.1l2.7 0.7C314.7 66.1 314 68.5 313.2 70.9zM113 66.2c-0.7-2.4-1.3-4.9-1.8-7.4l2.8-0.6c0.5 2.4 1.1 4.8 1.7 7.2L113 66.2zM316.9 56.2l-2.8-0.5c0.4-2.4 0.8-4.9 1-7.3l2.8 0.3C317.7 51.2 317.4 53.7 316.9 56.2zM109.9 51.3c-0.3-2.5-0.6-5.1-0.7-7.6l2.8-0.2c0.1 2.5 0.4 4.9 0.7 7.4L109.9 51.3zM318.5 41.1l-2.8-0.1c0-1.1 0-2.1 0.1-3.2 0-2.5-0.1-5-0.3-7.4l2.8-0.2c0.2 2.5 0.3 5.1 0.3 7.6C318.5 38.9 318.5 40 318.5 41.1zM111.9 36.2l-2.8 0c0-2.5 0.2-5.1 0.4-7.6l2.8 0.2C112 31.2 111.9 33.7 111.9 36.2zM314.7 23c-0.4-2.4-0.8-4.9-1.3-7.3l2.7-0.6c0.5 2.5 1 5 1.4 7.5L314.7 23zM113.2 21.4l-2.8-0.4c0.4-2.5 0.9-5 1.5-7.5l2.7 0.7C114 16.6 113.6 19 113.2 21.4zM311.5 8.6c-0.7-2.3-1.5-4.7-2.4-7l2.6-1c0.9 2.4 1.7 4.8 2.4 7.2L311.5 8.6zM116.6 7l-2.7-0.9c0.8-2.4 1.6-4.8 2.6-7.2l2.6 1C118.2 2.3 117.3 4.7 116.6 7zM306.2-5.3c-1-2.2-2.2-4.5-3.4-6.6l2.5-1.4c1.2 2.2 2.4 4.5 3.5 6.8L306.2-5.3zM122.1-6.7L119.5-8c1.1-2.3 2.3-4.5 3.6-6.7l2.4 1.4C124.3-11.1 123.1-8.9 122.1-6.7zM299-18.2c-1.3-2-2.8-4.1-4.3-6l2.2-1.7c1.6 2 3 4.1 4.4 6.2L299-18.2zM129.5-19.5l-2.3-1.6c1.4-2.1 2.9-4.2 4.5-6.1l2.2 1.8C132.3-23.6 130.9-21.6 129.5-19.5zM289.9-30c-1.6-1.8-3.3-3.6-5.1-5.4l2-2c1.8 1.8 3.6 3.6 5.3 5.5L289.9-30zM138.7-31.1l-2.1-1.9c1.7-1.9 3.5-3.7 5.3-5.4l1.9 2C142.1-34.7 140.3-32.9 138.7-31.1zM279.3-40.3c-1.9-1.6-3.9-3.1-5.8-4.6l1.7-2.3c2 1.5 4.1 3.1 6 4.7L279.3-40.3zM149.5-41.3l-1.8-2.2c2-1.6 4-3.1 6.1-4.6l1.6 2.3C153.4-44.3 151.4-42.8 149.5-41.3zM267.3-49c-2.1-1.3-4.3-2.5-6.4-3.7l1.3-2.5c2.2 1.2 4.5 2.4 6.6 3.8L267.3-49zM161.6-49.8l-1.4-2.4c2.2-1.3 4.4-2.5 6.7-3.7l1.3 2.5C165.9-52.3 163.7-51.1 161.6-49.8zM254.2-55.8c-2.3-1-4.6-1.9-6.9-2.7l0.9-2.7c2.4 0.8 4.8 1.8 7.1 2.8L254.2-55.8zM174.8-56.4l-1.1-2.6c2.3-1 4.7-1.9 7.1-2.7l0.9 2.7C179.5-58.3 177.1-57.4 174.8-56.4zM240.2-60.7c-2.4-0.6-4.8-1.2-7.2-1.7l0.5-2.8c2.5 0.5 5 1 7.4 1.7L240.2-60.7zM188.9-61.1l-0.7-2.7c2.5-0.6 5-1.1 7.4-1.6l0.5 2.8C193.7-62.2 191.3-61.7 188.9-61.1zM225.7-63.5c-2.4-0.3-4.9-0.5-7.4-0.6l0.1-2.8c2.6 0.1 5.1 0.3 7.6 0.6L225.7-63.5zM203.5-63.6l-0.3-2.8c2.5-0.3 5.1-0.4 7.6-0.5l0.1 2.8C208.4-64 205.9-63.9 203.5-63.6z"/>
        <path class="st8" d="M326.5 492c-2.1 0-4.3 0-6.4-0.1l0.1-2.8c2.1 0.1 4.2 0.1 6.3 0.1l1.2 0 0 2.8L326.5 492zM335.3 491.9l-0.1-2.8c2.5-0.1 5-0.2 7.5-0.4l0.2 2.8C340.3 491.6 337.8 491.8 335.3 491.9zM312.6 491.6c-2.5-0.1-5-0.3-7.5-0.5l0.2-2.8c2.5 0.2 5 0.4 7.4 0.5L312.6 491.6zM350.3 490.9l-0.3-2.8c2.5-0.2 5-0.5 7.4-0.8l0.4 2.8C355.4 490.3 352.9 490.6 350.3 490.9zM297.6 490.3c-2.5-0.3-5-0.6-7.5-1l0.4-2.8c2.5 0.4 4.9 0.7 7.4 1L297.6 490.3zM365.3 488.9l-0.4-2.8c2.5-0.4 4.9-0.8 7.4-1.3l0.5 2.8C370.3 488.1 367.8 488.5 365.3 488.9zM282.6 488c-2.5-0.5-5-0.9-7.4-1.5l0.6-2.8c2.4 0.5 4.9 1 7.3 1.5L282.6 488zM380.2 486l-0.6-2.8c2.4-0.6 4.9-1.1 7.3-1.8l0.7 2.7C385.1 484.9 382.6 485.5 380.2 486zM267.8 484.8c-2.4-0.6-4.9-1.3-7.3-1.9l0.8-2.7c2.4 0.7 4.8 1.3 7.2 1.9L267.8 484.8zM394.8 482.2l-0.8-2.7c2.4-0.7 4.8-1.4 7.1-2.2l0.9 2.7C399.6 480.8 397.2 481.5 394.8 482.2zM253.3 480.7c-2.4-0.8-4.8-1.6-7.2-2.4l0.9-2.7c2.3 0.8 4.7 1.6 7.1 2.4L253.3 480.7zM409.2 477.5l-1-2.6c2.4-0.9 4.7-1.7 7-2.7l1 2.6C413.9 475.8 411.6 476.7 409.2 477.5zM239 475.7c-2.3-0.9-4.7-1.9-7-2.8l1.1-2.6c2.3 1 4.6 1.9 6.9 2.8L239 475.7zM423.3 471.9l-1.1-2.6c2.3-1 4.6-2 6.8-3.1l1.2 2.5C427.9 469.8 425.6 470.9 423.3 471.9zM225.2 469.8c-2.3-1.1-4.5-2.1-6.8-3.3l1.3-2.5c2.2 1.1 4.5 2.2 6.7 3.2L225.2 469.8zM436.9 465.4l-1.3-2.5c2.2-1.1 4.4-2.3 6.6-3.5l1.4 2.5C441.4 463.1 439.2 464.2 436.9 465.4zM211.7 463.1c-2.2-1.2-4.4-2.4-6.6-3.7l1.4-2.4c2.1 1.2 4.3 2.5 6.5 3.6L211.7 463.1zM450.2 458.1l-1.4-2.4c2.1-1.3 4.3-2.6 6.4-3.9l1.5 2.4C454.5 455.4 452.3 456.8 450.2 458.1zM198.6 455.5c-2.1-1.3-4.2-2.7-6.3-4.1l1.6-2.3c2.1 1.4 4.2 2.7 6.3 4L198.6 455.5zM462.9 449.9l-1.6-2.3c2.1-1.4 4.1-2.8 6.1-4.3l1.7 2.3C467.1 447 465 448.5 462.9 449.9zM186.1 447.1c-2.1-1.5-4.1-3-6.1-4.5l1.7-2.2c2 1.5 4 3 6 4.4L186.1 447.1zM475.1 441l-1.7-2.2c2-1.5 3.9-3.1 5.8-4.7l1.8 2.2C479.1 437.9 477.1 439.4 475.1 441zM174.1 437.9c-2-1.6-3.9-3.2-5.8-4.9l1.8-2.1c1.9 1.6 3.8 3.2 5.7 4.8L174.1 437.9zM486.8 431.3l-1.9-2.1c1.9-1.6 3.7-3.3 5.5-5l1.9 2C490.5 428 488.7 429.7 486.8 431.3zM162.7 428.1c-1.9-1.7-3.7-3.4-5.5-5.2l2-2c1.8 1.7 3.6 3.5 5.4 5.1L162.7 428.1zM497.8 421l-2-2c1.8-1.8 3.5-3.6 5.2-5.4l2.1 1.9C501.3 417.4 499.6 419.2 497.8 421zM151.9 417.5c-1.7-1.8-3.5-3.7-5.1-5.5l2.1-1.9c1.7 1.8 3.4 3.7 5.1 5.5L151.9 417.5zM508.1 409.9l-2.1-1.9c1.6-1.9 3.3-3.8 4.9-5.7l2.2 1.8C511.4 406.1 509.8 408 508.1 409.9zM141.8 406.3c-1.6-1.9-3.2-3.9-4.8-5.8l2.2-1.8c1.5 2 3.1 3.9 4.7 5.8L141.8 406.3zM517.7 398.3l-2.2-1.7c1.5-2 3-3.9 4.5-6l2.3 1.7C520.8 394.3 519.3 396.3 517.7 398.3zM132.3 394.4c-1.5-2-3-4.1-4.4-6.1l2.3-1.6c1.4 2 2.9 4.1 4.4 6.1L132.3 394.4zM526.6 386.1l-2.3-1.6c1.4-2.1 2.8-4.1 4.1-6.2l2.4 1.5C529.4 381.9 528 384 526.6 386.1zM123.7 382c-1.4-2.1-2.7-4.2-4-6.4l2.4-1.5c1.3 2.1 2.6 4.2 4 6.3L123.7 382zM534.7 373.4l-2.4-1.4c1.3-2.1 2.5-4.3 3.7-6.5l2.5 1.4C537.3 369 536 371.2 534.7 373.4zM115.8 369.1c-1.2-2.2-2.5-4.4-3.6-6.6l2.5-1.3c1.2 2.2 2.4 4.4 3.6 6.6L115.8 369.1zM542 360.2l-2.5-1.3c1.1-2.2 2.2-4.4 3.3-6.7l2.5 1.2C544.3 355.7 543.2 357.9 542 360.2zM108.8 355.7c-1.1-2.3-2.2-4.6-3.2-6.9l2.6-1.2c1 2.3 2.1 4.5 3.2 6.8L108.8 355.7zM548.5 346.5l-2.6-1.1c1-2.3 1.9-4.6 2.9-6.9l2.6 1C550.4 341.9 549.4 344.2 548.5 346.5zM102.6 341.8c-1-2.3-1.9-4.7-2.8-7.1l2.6-1c0.9 2.3 1.8 4.7 2.7 7L102.6 341.8zM554 332.5l-2.6-1c0.8-2.3 1.7-4.7 2.4-7.1l2.7 0.9C555.7 327.8 554.9 330.1 554 332.5zM97.3 327.6c-0.8-2.4-1.6-4.8-2.3-7.2l2.7-0.8c0.7 2.4 1.5 4.8 2.3 7.1L97.3 327.6zM558.7 318.1l-2.7-0.8c0.7-2.4 1.4-4.8 2-7.2l2.7 0.7C560.1 313.3 559.4 315.7 558.7 318.1zM92.9 313.1c-0.7-2.4-1.3-4.9-1.9-7.3l2.7-0.6c0.6 2.4 1.2 4.8 1.8 7.2L92.9 313.1zM562.5 303.5l-2.8-0.6c0.5-2.4 1.1-4.9 1.5-7.3l2.8 0.5C563.6 298.6 563.1 301.1 562.5 303.5zM89.4 298.4c-0.5-2.5-1-4.9-1.4-7.4l2.8-0.5c0.4 2.5 0.9 4.9 1.4 7.3L89.4 298.4zM565.4 288.7l-2.8-0.4c0.4-2.5 0.7-4.9 1.1-7.4l2.8 0.4C566.1 283.7 565.8 286.2 565.4 288.7zM86.9 283.5c-0.3-2.5-0.7-5-0.9-7.5l2.8-0.3c0.3 2.5 0.6 5 0.9 7.4L86.9 283.5zM567.3 273.7l-2.8-0.3c0.2-2.5 0.4-5 0.6-7.4l2.8 0.2C567.7 268.7 567.5 271.2 567.3 273.7zM85.3 268.5c-0.2-2.5-0.3-5-0.4-7.5l2.8-0.1c0.1 2.5 0.3 5 0.4 7.5L85.3 268.5zM568.3 258.6l-2.8-0.1c0.1-2.5 0.1-5 0.1-7.5l2.8 0C568.4 253.6 568.4 256.1 568.3 258.6zM84.6 253.4c0-1.1 0-2.2 0-3.3 0-1.4 0-2.8 0-4.2l2.8 0.1c0 1.4 0 2.8 0 4.2 0 1.1 0 2.2 0 3.3L84.6 253.4zM568.4 250.1h-2.8c0-2.5 0-5-0.1-7.5l2.8-0.1C568.4 245.1 568.4 247.6 568.4 250.1zM87.7 238.4l-2.8-0.1c0.1-2.5 0.3-5 0.5-7.5l2.8 0.2C88 233.5 87.8 235.9 87.7 238.4zM565.1 235.2c-0.1-2.5-0.3-5-0.6-7.5l2.8-0.3c0.2 2.5 0.4 5 0.6 7.5L565.1 235.2zM88.9 223.5l-2.8-0.3c0.3-2.5 0.6-5 0.9-7.5l2.8 0.4C89.5 218.6 89.2 221.1 88.9 223.5zM563.8 220.3c-0.3-2.5-0.7-4.9-1-7.4l2.8-0.4c0.4 2.5 0.7 5 1.1 7.5L563.8 220.3zM91 208.8l-2.8-0.5c0.4-2.5 0.9-5 1.4-7.4l2.8 0.6C91.9 203.9 91.4 206.3 91 208.8zM561.5 205.5c-0.5-2.5-1-4.9-1.5-7.3l2.8-0.6c0.5 2.5 1 4.9 1.5 7.4L561.5 205.5zM94 194.1l-2.7-0.7c0.6-2.5 1.2-4.9 1.9-7.3l2.7 0.7C95.2 189.3 94.6 191.7 94 194.1zM558.2 191c-0.6-2.4-1.3-4.8-2-7.2l2.7-0.8c0.7 2.4 1.4 4.8 2 7.3L558.2 191zM98 179.7l-2.7-0.8c0.7-2.4 1.5-4.8 2.3-7.2l2.7 0.9C99.5 175 98.7 177.3 98 179.7zM554.1 176.6c-0.8-2.4-1.6-4.7-2.4-7.1l2.7-1c0.9 2.4 1.7 4.8 2.4 7.2L554.1 176.6zM102.8 165.6l-2.6-1c0.9-2.4 1.8-4.7 2.8-7l2.6 1.1C104.6 160.9 103.7 163.3 102.8 165.6zM549.1 162.5c-0.9-2.3-1.9-4.6-2.9-6.9l2.6-1.1c1 2.3 2 4.7 2.9 7L549.1 162.5zM108.5 151.8l-2.6-1.2c1-2.3 2.1-4.6 3.2-6.8l2.5 1.2C110.6 147.3 109.5 149.5 108.5 151.8zM543.1 148.7c-1.1-2.3-2.2-4.5-3.3-6.7l2.5-1.3c1.1 2.2 2.3 4.5 3.3 6.8L543.1 148.7zM115.1 138.4l-2.5-1.3c1.2-2.2 2.4-4.4 3.6-6.6l2.5 1.4C117.4 134.1 116.2 136.2 115.1 138.4zM536.4 135.4c-1.2-2.2-2.4-4.4-3.7-6.5l2.4-1.4c1.3 2.2 2.5 4.4 3.7 6.6L536.4 135.4zM122.4 125.5L120 124c1.3-2.1 2.7-4.3 4-6.4l2.4 1.5C125.1 121.3 123.7 123.4 122.4 125.5zM528.8 122.5c-1.3-2.1-2.7-4.2-4.1-6.3l2.3-1.6c1.4 2.1 2.8 4.2 4.1 6.3L528.8 122.5zM130.6 113l-2.3-1.6c1.4-2.1 2.9-4.1 4.4-6.1l2.3 1.7C133.5 109 132 111 130.6 113zM520.4 110.1c-1.5-2-3-4-4.5-6l2.2-1.7c1.5 2 3.1 4 4.5 6.1L520.4 110.1zM139.6 101.1l-2.2-1.8c1.6-2 3.2-3.9 4.8-5.8l2.1 1.8C142.7 97.2 141.1 99.1 139.6 101.1zM511.2 98.3c-1.6-1.9-3.2-3.8-4.8-5.7l2.1-1.9c1.7 1.9 3.3 3.8 4.9 5.8L511.2 98.3zM149.2 89.7l-2.1-1.9c1.7-1.9 3.4-3.7 5.2-5.5l2 2C152.6 86 150.9 87.8 149.2 89.7zM501.4 87.1c-1.7-1.8-3.4-3.6-5.2-5.4l2-2c1.8 1.8 3.5 3.6 5.2 5.4L501.4 87.1zM159.6 78.9l-2-2c1.8-1.8 3.6-3.5 5.5-5.2l1.9 2.1C163.2 75.5 161.4 77.2 159.6 78.9zM490.9 76.5c-1.8-1.7-3.6-3.4-5.5-5.1l1.9-2.1c1.9 1.7 3.7 3.4 5.6 5.1L490.9 76.5zM170.6 68.8l-1.8-2.1c1.9-1.6 3.8-3.3 5.8-4.8l1.8 2.2C174.4 65.6 172.5 67.2 170.6 68.8zM479.7 66.5c-1.9-1.6-3.8-3.2-5.8-4.7l1.7-2.2c2 1.6 3.9 3.1 5.9 4.7L479.7 66.5zM182.2 59.4l-1.7-2.2c2-1.5 4-3 6.1-4.5l1.6 2.3C186.2 56.5 184.2 57.9 182.2 59.4zM468 57.3c-2-1.5-4-2.9-6.1-4.3l1.6-2.3c2.1 1.4 4.1 2.9 6.2 4.4L468 57.3zM194.4 50.8l-1.6-2.3c2.1-1.4 4.2-2.8 6.4-4.1l1.5 2.4C198.6 48.1 196.5 49.4 194.4 50.8zM455.7 48.9c-2.1-1.3-4.2-2.7-6.3-3.9l1.4-2.4c2.2 1.3 4.3 2.6 6.4 4L455.7 48.9zM207.1 42.9l-1.4-2.4c2.2-1.3 4.4-2.5 6.6-3.7l1.3 2.5C211.5 40.4 209.3 41.7 207.1 42.9zM442.9 41.2c-2.2-1.2-4.4-2.4-6.6-3.5l1.3-2.5c2.2 1.2 4.4 2.3 6.6 3.6L442.9 41.2zM220.3 35.8l-1.3-2.5c2.3-1.1 4.5-2.2 6.8-3.3l1.2 2.6C224.8 33.6 222.6 34.7 220.3 35.8zM429.7 34.3c-2.2-1.1-4.5-2.1-6.8-3.1l1.1-2.6c2.3 1 4.6 2.1 6.9 3.1L429.7 34.3zM233.9 29.6l-1.1-2.6c2.3-1 4.7-1.9 7-2.8l1 2.6C238.6 27.7 236.2 28.6 233.9 29.6zM416 28.3c-2.3-0.9-4.6-1.8-7-2.7l1-2.6c2.4 0.9 4.7 1.8 7 2.7L416 28.3zM247.9 24.2l-0.9-2.7c2.4-0.8 4.8-1.6 7.2-2.4l0.8 2.7C252.6 22.6 250.3 23.4 247.9 24.2zM402 23.2c-2.4-0.8-4.7-1.5-7.1-2.2l0.8-2.7c2.4 0.7 4.8 1.5 7.2 2.3L402 23.2zM262.2 19.8l-0.7-2.7c2.4-0.7 4.9-1.3 7.3-1.9l0.7 2.7C267 18.5 264.6 19.1 262.2 19.8zM387.7 18.9c-2.4-0.6-4.8-1.2-7.2-1.8l0.6-2.7c2.5 0.6 4.9 1.2 7.3 1.8L387.7 18.9zM276.7 16.2l-0.6-2.8c2.5-0.5 4.9-1 7.4-1.5l0.5 2.8C281.6 15.2 279.1 15.7 276.7 16.2zM373.2 15.5c-2.4-0.5-4.9-0.9-7.4-1.3l0.5-2.8c2.5 0.4 5 0.9 7.4 1.4L373.2 15.5zM291.4 13.6l-0.4-2.8c2.5-0.4 5-0.7 7.5-1l0.3 2.8C296.3 12.9 293.9 13.2 291.4 13.6zM358.4 13.1c-2.5-0.3-4.9-0.6-7.4-0.9l0.3-2.8c2.5 0.3 5 0.6 7.5 0.9L358.4 13.1zM306.2 11.9L306 9c2.5-0.2 5-0.4 7.5-0.5l0.2 2.8C311.2 11.5 308.7 11.6 306.2 11.9zM343.6 11.6c-2.5-0.2-5-0.3-7.5-0.4l0.1-2.8c2.5 0.1 5 0.2 7.5 0.4L343.6 11.6zM321.2 11.1l-0.1-2.8c1.8 0 3.6-0.1 5.4-0.1l2.1 0 0 2.8 -2.1 0C324.7 11 322.9 11 321.2 11.1z"/>
        <path class="st9" d="M101.7 228.1c48.1 0 87.1-39 87.1-87.1 0-48.1-39-87.1-87.1-87.1 -48.1 0-87 39-87 87.1C14.7 189.2 53.6 228.1 101.7 228.1z"/>
        <path class="st9" d="M101.7 219.1c43.2 0 78.1-34.9 78.1-78.1 0-43.1-34.9-78.1-78.1-78.1 -43.1 0-78 35-78 78.1C23.7 184.2 58.6 219.1 101.7 219.1z"/>
        <polygon class="st10" points="127.5 101.2 127.5 90 76.9 90 76.9 101.2 38.7 101.2 38.7 110.1 43 110.1 43 188.4 160.7 188.4 160.7 110.1 163.1 110.1 163.1 101.2 "/>
        <rect x="75.5" y="90" class="st11" width="50.7" height="16.1"/>
        <rect x="49.6" y="113.4" class="st12" width="102.6" height="70.4"/>
        <rect x="45.6" y="175.9" class="st13" width="110.5" height="12.5"/>
        <rect x="120.8" y="139" class="st14" width="26.7" height="49.3"/>
        <rect x="120.8" y="139" class="st15" width="26.7" height="49.3"/>
        <rect x="120.8" y="139" class="st14" width="26.7" height="49.3"/>
        <polyline class="st16" points="120.8 188.4 147.5 188.4 147.5 139 "/>
        <rect x="54.8" y="142.3" class="st14" width="58.9" height="35.9"/>
        <rect x="54.8" y="142.3" class="st17" width="58.9" height="35.9"/>
        <rect x="50.9" y="175.2" class="st10" width="66.6" height="5.3"/>
        <rect x="54.8" y="142.3" class="st14" width="58.9" height="35.9"/>
        <polyline class="st16" points="113.7 142.3 113.7 178.2 54.8 178.2 "/>
        <rect x="50.9" y="175.2" class="st10" width="66.6" height="5.3"/>
        <rect x="74" y="142.1" class="st10" width="1.4" height="35.5"/>
        <rect x="93.9" y="142.1" class="st10" width="1.4" height="35.5"/>
        <rect x="54.1" y="159.2" class="st10" width="60.5" height="1.3"/>
        <rect x="120.8" y="160.3" class="st18" width="26.7" height="4.5"/>
        <rect x="123.1" y="162.1" class="st12" width="5.3" height="0.6"/>
        <path class="st19" d="M167.4 132.2c0 5.5-4.4 9.9-9.9 9.9H46c-5.5 0-9.9-4.5-9.9-9.9l5-16.5c0-5.5 4.5-9.9 9.9-9.9h101.6c5.5 0 9.9 4.5 9.9 9.9L167.4 132.2z"/>
        <path class="st20" d="M160.5 110L36.7 136.3c1.6 3.4 5 5.7 9 5.7h111.5c5.5 0 9.9-4.4 9.9-9.9l-5-16.5C162.3 113.5 161.6 111.6 160.5 110z"/>
        <path class="st19" d="M84.3 94v1.2h-1.6v6h-1.5v-6h-1.6V94H84.3z"/>
        <path class="st19" d="M86.3 94V99c0 0.2 0 0.3 0 0.5 0 0.2 0.1 0.3 0.1 0.4 0.1 0.1 0.2 0.2 0.3 0.3 0.1 0.1 0.3 0.1 0.4 0.1s0.3 0 0.4-0.1c0.1-0.1 0.2-0.2 0.3-0.3 0.1-0.1 0.1-0.2 0.1-0.4 0-0.1 0-0.3 0-0.5V94h1.5V99c0 0.5-0.1 0.8-0.2 1.1 -0.1 0.3-0.3 0.5-0.5 0.7 -0.2 0.2-0.5 0.3-0.7 0.4 -0.3 0.1-0.6 0.1-0.9 0.1 -0.3 0-0.6 0-0.9-0.1 -0.3-0.1-0.5-0.2-0.7-0.3 -0.2-0.2-0.4-0.4-0.5-0.7 -0.1-0.3-0.2-0.7-0.2-1.2V94H86.3z"/>
        <path class="st19" d="M96.7 94v1.2h-1.6v6h-1.5v-6H92V94H96.7z"/>
        <path class="st19" d="M97.4 101.2V94h1.5v7.2H97.4z"/>
        <path class="st19" d="M103.9 94v1.2h-2.6v1.7h2.4v1.2h-2.4v1.9h2.7v1.2h-4.1V94H103.9z"/>
        <path class="st19" d="M106.5 94l1.8 5h0v-5h1.3v7.2h-1.7l-1.8-5.1h0v5.1h-1.3V94H106.5z"/>
        <path class="st19" d="M110.7 94h2.4c0.5 0 0.9 0.1 1.2 0.3 0.3 0.2 0.6 0.4 0.7 0.7 0.2 0.3 0.3 0.7 0.4 1.1 0.1 0.4 0.1 0.9 0.1 1.4 0 0.6 0 1.2-0.1 1.7 -0.1 0.5-0.2 0.9-0.4 1.2 -0.2 0.3-0.4 0.5-0.8 0.7 -0.3 0.1-0.7 0.2-1.2 0.2h-2.3V94zM112.1 100.2h0.7c0.3 0 0.5 0 0.6-0.1 0.2-0.1 0.3-0.2 0.4-0.4 0.1-0.2 0.2-0.5 0.2-0.8 0-0.3 0.1-0.7 0.1-1.2 0-0.4 0-0.8 0-1.1 0-0.3-0.1-0.6-0.2-0.8 -0.1-0.2-0.2-0.4-0.4-0.5 -0.2-0.1-0.4-0.2-0.7-0.2h-0.6V100.2z"/>
        <path class="st19" d="M121.6 101.2H120l-0.3-1.5h-1.9l-0.3 1.5h-1.5l1.9-7.2h1.8L121.6 101.2zM118.7 95.3L118.7 95.3l-0.7 3.3h1.4L118.7 95.3z"/>
        <path class="st9" d="M329.9 66.9c35 0 63.4-28.4 63.4-63.4 0-35-28.4-63.4-63.4-63.4 -35 0-63.4 28.4-63.4 63.4C266.5 38.5 294.9 66.9 329.9 66.9z"/>
        <path class="st9" d="M329.9 60.3c31.4 0 56.9-25.4 56.9-56.8 0-31.4-25.4-56.8-56.9-56.8 -31.4 0-56.8 25.5-56.8 56.8C273.1 34.9 298.5 60.3 329.9 60.3z"/>
        <polygon class="st10" points="348.7 -25.5 348.7 -33.7 311.8 -33.7 311.8 -25.5 284 -25.5 284 -19 287.1 -19 287.1 38 372.9 38 372.9 -19 374.5 -19 374.5 -25.5 "/>
        <rect x="291.9" y="-16.7" class="st12" width="74.7" height="51.3"/>
        <rect x="289" y="28.9" class="st13" width="80.5" height="9.1"/>
        <rect x="343.8" y="2" class="st14" width="19.4" height="35.9"/>
        <rect x="343.8" y="2" class="st22" width="19.4" height="35.9"/>
        <rect x="343.8" y="2" class="st14" width="19.4" height="35.9"/>
        <polyline class="st16" points="343.8 38 363.2 38 363.2 2 "/>
        <rect x="295.7" y="4.4" class="st14" width="42.9" height="26.1"/>
        <rect x="295.7" y="4.4" class="st23" width="42.9" height="26.1"/>
        <rect x="292.9" y="28.4" class="st10" width="48.5" height="3.8"/>
        <rect x="295.7" y="4.4" class="st14" width="42.9" height="26.1"/>
        <polyline class="st16" points="338.6 4.4 338.6 30.5 295.7 30.5 "/>
        <rect x="292.9" y="28.4" class="st10" width="48.5" height="3.8"/>
        <rect x="309.7" y="4.3" class="st10" width="1" height="25.9"/>
        <rect x="324.2" y="4.3" class="st10" width="1" height="25.9"/>
        <rect x="295.2" y="16.7" class="st10" width="44" height="1"/>
        <rect x="343.8" y="17.5" class="st18" width="19.4" height="3.3"/>
        <rect x="345.5" y="18.8" class="st12" width="3.8" height="0.4"/>
        <path class="st19" d="M377.7-3c0 4-3.2 7.2-7.2 7.2h-81.2c-4 0-7.2-3.2-7.2-7.2l3.6-12c0-4 3.2-7.2 7.2-7.2h74c4 0 7.2 3.2 7.2 7.2L377.7-3z"/>
        <path class="st20" d="M372.7-19.1L282.6 0.1c1.2 2.5 3.6 4.2 6.5 4.2h81.2c4 0 7.2-3.2 7.2-7.2L374-15C374-16.5 373.5-17.9 372.7-19.1z"/>
        <path class="st9" d="M447.6 507c35 0 63.4-28.4 63.4-63.4 0-35-28.4-63.4-63.4-63.4 -35 0-63.4 28.4-63.4 63.4C384.2 478.6 412.6 507 447.6 507z"/>
        <path class="st9" d="M447.6 500.4c31.4 0 56.9-25.4 56.9-56.8 0-31.4-25.4-56.8-56.9-56.8 -31.4 0-56.8 25.5-56.8 56.8C390.8 475 416.2 500.4 447.6 500.4z"/>
        <polygon class="st10" points="466.4 414.5 466.4 406.4 429.5 406.4 429.5 414.5 401.7 414.5 401.7 421 404.8 421 404.8 478 490.6 478 490.6 421 492.2 421 492.2 414.5 "/>
        <rect x="428.5" y="406.4" class="st21" width="36.9" height="11.7"/>
        <rect x="409.6" y="423.4" class="st12" width="74.7" height="51.3"/>
        <rect x="406.7" y="468.9" class="st13" width="80.5" height="9.1"/>
        <rect x="461.5" y="442.1" class="st14" width="19.4" height="35.9"/>
        <rect x="461.5" y="442.1" class="st22" width="19.4" height="35.9"/>
        <rect x="461.5" y="442.1" class="st14" width="19.4" height="35.9"/>
        <polyline class="st16" points="461.5 478 480.9 478 480.9 442.1 "/>
        <rect x="413.4" y="444.5" class="st14" width="42.9" height="26.1"/>
        <rect x="413.4" y="444.5" class="st23" width="42.9" height="26.1"/>
        <rect x="410.6" y="468.4" class="st10" width="48.5" height="3.8"/>
        <rect x="413.4" y="444.5" class="st14" width="42.9" height="26.1"/>
        <polyline class="st16" points="456.3 444.5 456.3 470.6 413.4 470.6 "/>
        <rect x="410.6" y="468.4" class="st10" width="48.5" height="3.8"/>
        <rect x="427.4" y="444.3" class="st10" width="1" height="25.9"/>
        <rect x="441.9" y="444.3" class="st10" width="1" height="25.9"/>
        <rect x="412.9" y="456.8" class="st10" width="44" height="1"/>
        <rect x="461.5" y="457.6" class="st18" width="19.4" height="3.3"/>
        <rect x="463.2" y="458.9" class="st12" width="3.8" height="0.4"/>
        <path class="st19" d="M495.4 437.1c0 4-3.2 7.2-7.2 7.2H407c-4 0-7.2-3.2-7.2-7.2l3.6-12c0-4 3.2-7.2 7.2-7.2h74c4 0 7.2 3.2 7.2 7.2L495.4 437.1z"/>
        <path class="st20" d="M490.4 421l-90.1 19.2c1.2 2.5 3.6 4.2 6.5 4.2H488c4 0 7.2-3.2 7.2-7.2l-3.6-12C491.7 423.5 491.2 422.1 490.4 421z"/>
        <path class="st19" d="M434.9 409.3v0.9h-1.2v4.4h-1.1v-4.4h-1.2v-0.9H434.9z"/>
        <path class="st19" d="M436.3 409.3v3.7c0 0.1 0 0.3 0 0.4 0 0.1 0.1 0.2 0.1 0.3 0 0.1 0.1 0.1 0.2 0.2 0.1 0 0.2 0.1 0.3 0.1 0.1 0 0.2 0 0.3-0.1 0.1 0 0.1-0.1 0.2-0.2 0.1-0.1 0.1-0.2 0.1-0.3 0-0.1 0-0.2 0-0.4v-3.7h1.1v3.7c0 0.3 0 0.6-0.1 0.8 -0.1 0.2-0.2 0.4-0.4 0.5 -0.2 0.1-0.3 0.2-0.5 0.3 -0.2 0-0.4 0.1-0.6 0.1 -0.2 0-0.4 0-0.6-0.1 -0.2 0-0.4-0.1-0.5-0.2 -0.2-0.1-0.3-0.3-0.4-0.5 -0.1-0.2-0.1-0.5-0.1-0.9v-3.7H436.3z"/>
        <path class="st19" d="M443.9 409.3v0.9h-1.2v4.4h-1.1v-4.4h-1.2v-0.9H443.9z"/>
        <path class="st19" d="M444.4 414.6v-5.3h1.1v5.3H444.4z"/>
        <path class="st19" d="M449.2 409.3v0.9h-1.9v1.2h1.8v0.9h-1.8v1.4h2v0.9h-3v-5.3H449.2z"/>
        <path class="st19" d="M451 409.3l1.3 3.6h0v-3.6h1v5.3h-1.2l-1.3-3.7h0v3.7h-1v-5.3H451z"/>
        <path class="st19" d="M454.1 409.3h1.7c0.4 0 0.7 0.1 0.9 0.2 0.2 0.1 0.4 0.3 0.5 0.5 0.1 0.2 0.2 0.5 0.3 0.8 0 0.3 0.1 0.7 0.1 1.1 0 0.5 0 0.9-0.1 1.2 -0.1 0.3-0.2 0.6-0.3 0.8 -0.1 0.2-0.3 0.4-0.6 0.5 -0.2 0.1-0.5 0.2-0.9 0.2h-1.7V409.3zM455.2 413.8h0.5c0.2 0 0.3 0 0.4-0.1 0.1-0.1 0.2-0.2 0.3-0.3 0.1-0.2 0.1-0.3 0.1-0.6 0-0.2 0-0.5 0-0.9 0-0.3 0-0.6 0-0.8 0-0.2-0.1-0.4-0.1-0.6 -0.1-0.2-0.1-0.3-0.3-0.3 -0.1-0.1-0.3-0.1-0.5-0.1h-0.4V413.8z"/>
        <path class="st19" d="M462 414.6h-1.1l-0.2-1.1h-1.4l-0.2 1.1h-1.1l1.4-5.3h1.3L462 414.6zM460 410.2L460 410.2l-0.5 2.4h1L460 410.2z"/>
        <path class="st8" d="M331 557.6c-1.9 0-3.8-0.1-5.6-0.3l0.1-2.1c1.8 0.1 3.7 0.2 5.5 0.3L331 557.6zM336.6 557.6l-0.1-2.1c1.8 0 3.7-0.1 5.5-0.3l0.2 2.1C340.4 557.5 338.5 557.6 336.6 557.6zM319.8 556.8c-1.9-0.2-3.7-0.5-5.6-0.8l0.4-2.1c1.8 0.3 3.6 0.6 5.5 0.8L319.8 556.8zM347.9 556.8l-0.3-2.1c1.8-0.2 3.7-0.5 5.5-0.8l0.4 2.1C351.6 556.3 349.7 556.5 347.9 556.8zM308.7 554.9c-1.8-0.4-3.7-0.9-5.5-1.4l0.6-2c1.8 0.5 3.6 0.9 5.4 1.3L308.7 554.9zM358.9 554.8l-0.5-2c1.8-0.4 3.6-0.9 5.4-1.4l0.6 2C362.6 553.9 360.8 554.4 358.9 554.8zM297.9 551.9c-1.8-0.6-3.6-1.2-5.3-1.9l0.8-1.9c1.7 0.7 3.4 1.3 5.2 1.9L297.9 551.9zM369.8 551.8l-0.7-2c1.8-0.6 3.5-1.2 5.2-1.9l0.8 2C373.3 550.6 371.6 551.2 369.8 551.8zM287.4 547.9c-1.7-0.8-3.4-1.6-5.1-2.4l0.9-1.9c1.6 0.8 3.3 1.6 5 2.4L287.4 547.9zM380.3 547.7l-0.9-1.9c1.7-0.8 3.4-1.6 5-2.4l1 1.9C383.7 546.1 382 546.9 380.3 547.7zM277.3 542.8c-1.6-0.9-3.2-1.9-4.8-2.9l1.1-1.8c1.5 1 3.1 1.9 4.7 2.8L277.3 542.8zM390.3 542.6l-1-1.8c1.6-0.9 3.2-1.9 4.7-2.9l1.1 1.8C393.6 540.6 391.9 541.6 390.3 542.6zM267.9 536.8c-1.5-1.1-3-2.2-4.5-3.4l1.3-1.6c1.4 1.1 2.9 2.2 4.4 3.3L267.9 536.8zM399.8 536.5l-1.2-1.7c1.5-1.1 3-2.2 4.4-3.3l1.3 1.6C402.8 534.3 401.3 535.4 399.8 536.5zM259 529.9c-1.4-1.2-2.8-2.5-4.2-3.8l1.4-1.5c1.3 1.3 2.7 2.5 4.1 3.7L259 529.9zM408.6 529.5l-1.4-1.6c1.4-1.2 2.7-2.5 4.1-3.7l1.5 1.5C411.4 527 410 528.3 408.6 529.5zM250.9 522.1c-1.3-1.4-2.5-2.8-3.8-4.2l1.6-1.4c1.2 1.4 2.4 2.8 3.7 4.1L250.9 522.1zM416.7 521.7l-1.5-1.4c1.3-1.3 2.5-2.7 3.7-4.1l1.6 1.4C419.2 518.9 418 520.3 416.7 521.7zM243.5 513.6c-1.2-1.5-2.3-3-3.3-4.5l1.7-1.2c1.1 1.5 2.2 3 3.3 4.5L243.5 513.6zM424 513.1l-1.7-1.3c1.1-1.5 2.2-2.9 3.3-4.5l1.7 1.2C426.2 510.1 425.1 511.6 424 513.1zM237.1 504.3c-1-1.6-2-3.2-2.9-4.8l1.8-1c0.9 1.6 1.8 3.2 2.8 4.8L237.1 504.3zM430.4 503.9l-1.8-1.1c1-1.6 1.9-3.1 2.8-4.8l1.8 1C432.4 500.7 431.4 502.3 430.4 503.9zM231.5 494.5c-0.8-1.7-1.6-3.4-2.4-5.1l1.9-0.8c0.7 1.7 1.5 3.4 2.3 5L231.5 494.5zM435.9 494.1l-1.9-0.9c0.8-1.6 1.6-3.3 2.3-5l1.9 0.8C437.5 490.7 436.7 492.4 435.9 494.1zM227 484.2c-0.7-1.8-1.3-3.5-1.9-5.3l2-0.6c0.6 1.8 1.2 3.5 1.8 5.2L227 484.2zM440.3 483.8l-2-0.7c0.6-1.7 1.3-3.5 1.8-5.2l2 0.6C441.6 480.2 441 482 440.3 483.8zM223.5 473.5c-0.5-1.8-0.9-3.6-1.3-5.5l2-0.4c0.4 1.8 0.8 3.6 1.3 5.4L223.5 473.5zM443.8 473l-2-0.5c0.5-1.8 0.9-3.6 1.3-5.4l2 0.4C444.7 469.4 444.2 471.2 443.8 473zM221.2 462.5c-0.3-1.8-0.6-3.7-0.8-5.6l2.1-0.2c0.2 1.8 0.5 3.7 0.8 5.5L221.2 462.5zM446.1 462l-2.1-0.3c0.3-1.8 0.5-3.6 0.7-5.5l2.1 0.2C446.7 458.3 446.4 460.2 446.1 462zM219.9 451.3c-0.1-1.9-0.2-3.7-0.2-5.6l2.1 0c0 1.9 0.1 3.7 0.2 5.5L219.9 451.3zM447.4 450.9l-2.1-0.1c0.1-1.8 0.2-3.7 0.2-5.5l2.1 0C447.6 447.1 447.5 449 447.4 450.9zM447.6 443.7h-2.1c0-1.9 0-3.7-0.1-5.5l2.1-0.1C447.6 439.9 447.6 441.8 447.6 443.7zM221.7 440.1l-2.1-0.1c0.1-1.9 0.2-3.8 0.3-5.6l2.1 0.2C221.9 436.4 221.8 438.3 221.7 440.1zM445 432.6c-0.2-1.8-0.4-3.7-0.7-5.5l2.1-0.3c0.3 1.8 0.5 3.7 0.7 5.6L445 432.6zM222.6 429.1l-2.1-0.3c0.2-1.9 0.5-3.7 0.9-5.6l2.1 0.4C223.2 425.5 222.9 427.3 222.6 429.1zM443.4 421.7c-0.4-1.8-0.8-3.6-1.2-5.4l2-0.5c0.5 1.8 0.9 3.6 1.2 5.5L443.4 421.7zM224.6 418.3l-2-0.5c0.4-1.8 0.9-3.7 1.4-5.5l2 0.6C225.5 414.7 225 416.4 224.6 418.3zM440.7 411c-0.5-1.8-1.1-3.5-1.7-5.3l2-0.7c0.6 1.8 1.2 3.6 1.8 5.4L440.7 411zM227.6 407.6l-2-0.7c0.6-1.8 1.2-3.5 1.9-5.3l1.9 0.8C228.8 404.2 228.2 405.9 227.6 407.6zM436.9 400.6c-0.7-1.7-1.5-3.4-2.3-5.1l1.9-0.9c0.8 1.7 1.6 3.4 2.3 5.1L436.9 400.6zM231.7 397.4l-1.9-0.9c0.8-1.7 1.6-3.4 2.5-5.1l1.9 1C233.2 394 232.4 395.7 231.7 397.4zM432.1 390.6c-0.9-1.6-1.8-3.2-2.7-4.8l1.8-1.1c1 1.6 1.9 3.2 2.8 4.9L432.1 390.6zM236.7 387.6l-1.8-1.1c0.9-1.6 1.9-3.2 2.9-4.8l1.8 1.1C238.6 384.4 237.7 386 236.7 387.6zM426.4 381.1c-1-1.5-2.1-3-3.2-4.5l1.7-1.3c1.1 1.5 2.2 3 3.3 4.6L426.4 381.1zM242.7 378.3l-1.7-1.2c1.1-1.5 2.2-3 3.4-4.5l1.6 1.3C244.9 375.4 243.8 376.8 242.7 378.3zM419.8 372.3c-1.2-1.4-2.4-2.8-3.6-4.2l1.5-1.4c1.3 1.4 2.5 2.8 3.7 4.2L419.8 372.3zM249.6 369.7l-1.6-1.4c1.2-1.4 2.5-2.8 3.8-4.1l1.5 1.5C252.1 367 250.8 368.3 249.6 369.7zM412.3 364.1c-1.3-1.3-2.6-2.6-4-3.8l1.4-1.6c1.4 1.3 2.8 2.5 4.1 3.9L412.3 364.1zM257.3 361.8l-1.4-1.5c1.4-1.3 2.8-2.5 4.2-3.7l1.4 1.6C260.1 359.3 258.7 360.5 257.3 361.8zM404.1 356.8c-1.4-1.2-2.9-2.3-4.4-3.4l1.2-1.7c1.5 1.1 3 2.3 4.5 3.4L404.1 356.8zM265.8 354.6l-1.3-1.7c1.5-1.1 3-2.2 4.6-3.3l1.2 1.7C268.7 352.4 267.2 353.5 265.8 354.6zM395.2 350.2c-1.5-1-3.1-2-4.7-2.9l1.1-1.8c1.6 1 3.2 2 4.8 3L395.2 350.2zM274.9 348.4l-1.1-1.8c1.6-1 3.2-1.9 4.9-2.8l1 1.8C278 346.5 276.4 347.4 274.9 348.4zM385.7 344.6c-1.6-0.9-3.3-1.7-4.9-2.5l0.9-1.9c1.7 0.8 3.4 1.6 5 2.5L385.7 344.6zM284.6 343l-0.9-1.9c1.7-0.8 3.4-1.6 5.1-2.3l0.8 1.9C287.9 341.5 286.2 342.2 284.6 343zM375.7 340c-1.7-0.7-3.4-1.3-5.2-2l0.7-2c1.8 0.6 3.5 1.3 5.3 2L375.7 340zM294.7 338.7l-0.7-2c1.8-0.7 3.5-1.3 5.3-1.8l0.6 2C298.2 337.4 296.5 338 294.7 338.7zM365.3 336.3c-1.8-0.5-3.5-1-5.3-1.4l0.5-2c1.8 0.4 3.6 0.9 5.4 1.5L365.3 336.3zM305.3 335.4l-0.5-2c1.8-0.5 3.6-0.9 5.5-1.3l0.4 2C308.9 334.5 307.1 334.9 305.3 335.4zM354.6 333.7c-1.8-0.3-3.6-0.6-5.5-0.9l0.3-2.1c1.9 0.3 3.7 0.6 5.6 0.9L354.6 333.7zM316.1 333.1l-0.3-2.1c1.8-0.3 3.7-0.5 5.6-0.7l0.2 2.1C319.7 332.6 317.9 332.8 316.1 333.1zM343.6 332.2c-1.8-0.2-3.7-0.3-5.5-0.4l0.1-2.1c1.9 0.1 3.8 0.2 5.6 0.4L343.6 332.2zM327.1 331.9l-0.1-2.1c1.9-0.1 3.7-0.2 5.6-0.2l0 2.1C330.7 331.8 328.9 331.8 327.1 331.9z"/>
        <path class="st8" d="M183 458.6c-1.6 0-3.1 0-4.7-0.1l0.1-2.1c1.5 0.1 3 0.1 4.5 0.1l1 0 0 2.1L183 458.6zM189.6 458.4l-0.2-2.1c1.8-0.2 3.7-0.4 5.5-0.7l0.3 2.1C193.4 458 191.5 458.2 189.6 458.4zM172.7 458c-1.9-0.2-3.7-0.6-5.6-0.9l0.4-2c1.8 0.4 3.6 0.7 5.4 0.9L172.7 458zM200.8 456.6l-0.5-2c1.8-0.4 3.6-0.9 5.3-1.4l0.6 2C204.5 455.7 202.6 456.2 200.8 456.6zM161.7 455.7c-1.8-0.5-3.6-1.1-5.4-1.7l0.7-2c1.7 0.6 3.5 1.2 5.2 1.7L161.7 455.7zM211.6 453.2l-0.8-1.9c1.7-0.7 3.4-1.4 5-2.2l0.9 1.9C215.1 451.8 213.3 452.5 211.6 453.2zM151.1 451.8c-1.7-0.8-3.4-1.6-5.1-2.5l1-1.8c1.6 0.9 3.2 1.7 4.9 2.4L151.1 451.8zM221.8 448.3l-1-1.8c1.6-0.9 3.1-1.9 4.7-2.9l1.2 1.7C225 446.4 223.4 447.4 221.8 448.3zM141.1 446.4c-1.6-1-3.1-2.1-4.6-3.2l1.3-1.7c1.5 1.1 3 2.2 4.5 3.1L141.1 446.4zM231.1 442l-1.3-1.6c1.4-1.1 2.8-2.3 4.2-3.6l1.4 1.5C234 439.6 232.6 440.8 231.1 442zM132.1 439.7c-1.4-1.2-2.8-2.5-4.1-3.9l1.5-1.5c1.3 1.3 2.7 2.6 4 3.7L132.1 439.7zM239.5 434.3l-1.5-1.4c1.3-1.3 2.5-2.7 3.6-4.1l1.6 1.3C242 431.5 240.8 433 239.5 434.3zM124.1 431.7c-1.2-1.4-2.4-2.9-3.5-4.4l1.7-1.2c1.1 1.5 2.2 2.9 3.4 4.3L124.1 431.7zM246.6 425.6l-1.7-1.2c1-1.5 2.1-3 3-4.6l1.8 1.1C248.7 422.5 247.7 424.1 246.6 425.6zM117.4 422.6c-1-1.6-2-3.2-2.9-4.9l1.8-1c0.9 1.6 1.8 3.2 2.8 4.7L117.4 422.6zM252.4 415.9l-1.9-0.9c0.8-1.6 1.6-3.3 2.3-5l1.9 0.8C254.1 412.5 253.3 414.2 252.4 415.9zM112 412.7c-0.8-1.7-1.5-3.5-2.1-5.2l2-0.7c0.6 1.7 1.3 3.4 2.1 5.1L112 412.7zM256.8 405.5l-2-0.7c0.6-1.7 1.1-3.5 1.6-5.3l2 0.5C257.9 401.9 257.4 403.7 256.8 405.5zM108.2 402c-0.5-1.8-1-3.6-1.3-5.5l2-0.4c0.4 1.8 0.8 3.6 1.3 5.3L108.2 402zM259.5 394.6l-2.1-0.4c0.3-1.8 0.6-3.6 0.8-5.4l2.1 0.2C260.1 390.8 259.9 392.7 259.5 394.6zM105.9 391c-0.2-1.9-0.4-3.8-0.5-5.6l2.1-0.1c0.1 1.8 0.3 3.7 0.5 5.5L105.9 391zM260.7 383.3l-2.1-0.1c0-0.8 0-1.6 0-2.4 0-1.8-0.1-3.7-0.2-5.5l2.1-0.2c0.1 1.9 0.2 3.8 0.2 5.6C260.7 381.7 260.7 382.5 260.7 383.3zM107.4 379.7l-2.1 0c0-1.9 0.1-3.8 0.3-5.6l2.1 0.2C107.5 376 107.4 377.9 107.4 379.7zM257.9 369.9c-0.3-1.8-0.6-3.6-1-5.4l2-0.5c0.4 1.8 0.7 3.7 1 5.6L257.9 369.9zM108.3 368.8l-2.1-0.3c0.3-1.8 0.7-3.7 1.1-5.5l2 0.5C109 365.2 108.6 367 108.3 368.8zM255.5 359.2c-0.5-1.7-1.1-3.5-1.8-5.2l2-0.7c0.7 1.8 1.3 3.6 1.8 5.4L255.5 359.2zM110.9 358.1l-2-0.6c0.6-1.8 1.2-3.6 1.9-5.3l1.9 0.8C112 354.6 111.4 356.3 110.9 358.1zM251.6 348.9c-0.8-1.7-1.6-3.3-2.5-4.9l1.8-1c0.9 1.6 1.8 3.3 2.6 5L251.6 348.9zM114.9 347.9L113 347c0.8-1.7 1.7-3.4 2.7-5l1.8 1.1C116.6 344.6 115.7 346.2 114.9 347.9zM246.2 339.3c-1-1.5-2.1-3-3.2-4.5l1.7-1.3c1.2 1.5 2.3 3.1 3.3 4.6L246.2 339.3zM120.4 338.4l-1.7-1.2c1.1-1.6 2.2-3.1 3.3-4.5l1.6 1.3C122.6 335.4 121.5 336.9 120.4 338.4zM239.5 330.6c-1.2-1.4-2.5-2.7-3.8-4l1.5-1.5c1.4 1.3 2.7 2.7 3.9 4.1L239.5 330.6zM127.3 329.8l-1.5-1.4c1.3-1.4 2.6-2.7 4-4l1.4 1.5C129.8 327.1 128.5 328.4 127.3 329.8zM231.6 323c-1.4-1.2-2.9-2.3-4.3-3.4l1.2-1.7c1.5 1.1 3 2.3 4.5 3.5L231.6 323zM135.3 322.2l-1.3-1.6c1.5-1.2 3-2.3 4.5-3.4l1.2 1.7C138.1 320 136.7 321.1 135.3 322.2zM222.7 316.5c-1.6-1-3.2-1.9-4.8-2.7l1-1.9c1.7 0.9 3.3 1.8 4.9 2.8L222.7 316.5zM144.3 315.9l-1.1-1.8c1.6-1 3.3-1.9 5-2.7l0.9 1.9C147.5 314.1 145.8 315 144.3 315.9zM213 311.4c-1.7-0.7-3.4-1.4-5.1-2l0.7-2c1.8 0.6 3.5 1.3 5.3 2.1L213 311.4zM154.1 311l-0.8-1.9c1.7-0.7 3.5-1.4 5.3-2l0.7 2C157.5 309.6 155.8 310.3 154.1 311zM202.6 307.8c-1.8-0.5-3.6-0.9-5.4-1.2l0.4-2.1c1.8 0.4 3.7 0.8 5.5 1.3L202.6 307.8zM164.5 307.5l-0.5-2c1.8-0.5 3.7-0.9 5.5-1.2l0.4 2.1C168.1 306.7 166.3 307.1 164.5 307.5zM191.8 305.8c-1.8-0.2-3.6-0.4-5.5-0.4l0.1-2.1c1.9 0.1 3.8 0.2 5.6 0.5L191.8 305.8zM175.4 305.6l-0.2-2.1c1.9-0.2 3.8-0.3 5.6-0.4l0.1 2.1C179 305.3 177.2 305.5 175.4 305.6z"/>
        <path class="st9" d="M227 498.7c26 0 47.1-21.1 47.1-47.1 0-26-21.1-47-47.1-47 -26 0-47 21.1-47 47C179.9 477.7 201 498.7 227 498.7z"/>
        <path class="st9" d="M227 493.9c23.3 0 42.2-18.9 42.2-42.2 0-23.3-18.9-42.2-42.2-42.2 -23.3 0-42.2 18.9-42.2 42.2C184.8 475 203.7 493.9 227 493.9z"/>
        <polygon class="st10" points="240.9 430.1 240.9 424.1 213.5 424.1 213.5 430.1 192.9 430.1 192.9 434.9 195.2 434.9 195.2 477.3 258.9 477.3 258.9 434.9 260.1 434.9 260.1 430.1 "/>
        <rect x="212.8" y="424.1" class="st24" width="27.4" height="8.7"/>
        <rect x="198.8" y="436.7" class="st12" width="55.5" height="38"/>
        <rect x="196.7" y="470.5" class="st13" width="59.7" height="6.8"/>
        <rect x="237.3" y="450.6" class="st14" width="14.4" height="26.7"/>
        <rect x="237.3" y="450.6" class="st25" width="14.4" height="26.7"/>
        <rect x="237.3" y="450.6" class="st14" width="14.4" height="26.7"/>
        <polyline class="st16" points="237.3 477.3 251.7 477.3 251.7 450.6 "/>
        <rect x="201.6" y="452.4" class="st14" width="31.8" height="19.4"/>
        <rect x="201.6" y="452.4" class="st26" width="31.8" height="19.4"/>
        <rect x="199.5" y="470.1" class="st10" width="36" height="2.8"/>
        <rect x="201.6" y="452.4" class="st14" width="31.8" height="19.4"/>
        <polyline class="st16" points="233.4 452.4 233.4 471.7 201.6 471.7 "/>
        <rect x="199.5" y="470.1" class="st10" width="36" height="2.8"/>
        <rect x="212" y="452.2" class="st10" width="0.8" height="19.2"/>
        <rect x="222.8" y="452.2" class="st10" width="0.8" height="19.2"/>
        <rect x="201.3" y="461.5" class="st10" width="32.7" height="0.7"/>
        <rect x="237.3" y="462.1" class="st18" width="14.4" height="2.4"/>
        <rect x="238.6" y="463" class="st12" width="2.8" height="0.3"/>
        <path class="st19" d="M262.5 446.9c0 3-2.4 5.4-5.4 5.4h-60.3c-3 0-5.4-2.4-5.4-5.4l2.7-8.9c0-3 2.4-5.4 5.4-5.4h54.9c3 0 5.4 2.4 5.4 5.4L262.5 446.9z"/>
        <path class="st20" d="M258.8 434.9l-66.9 14.2c0.9 1.8 2.7 3.1 4.9 3.1H257c3 0 5.4-2.4 5.4-5.4l-2.7-8.9C259.7 436.8 259.3 435.8 258.8 434.9z"/>
        <path class="st19" d="M217.6 426.3v0.6h-0.9v3.3h-0.8v-3.3h-0.9v-0.6H217.6z"/>
        <path class="st19" d="M218.6 426.3v2.7c0 0.1 0 0.2 0 0.3 0 0.1 0 0.2 0.1 0.2 0 0.1 0.1 0.1 0.1 0.1 0.1 0 0.1 0.1 0.2 0.1 0.1 0 0.2 0 0.2-0.1 0.1 0 0.1-0.1 0.1-0.1 0-0.1 0.1-0.1 0.1-0.2 0-0.1 0-0.2 0-0.3v-2.7h0.8v2.7c0 0.2 0 0.5-0.1 0.6 -0.1 0.2-0.2 0.3-0.3 0.4 -0.1 0.1-0.2 0.2-0.4 0.2 -0.2 0-0.3 0-0.5 0 -0.2 0-0.3 0-0.5 0 -0.1 0-0.3-0.1-0.4-0.2 -0.1-0.1-0.2-0.2-0.3-0.4 -0.1-0.2-0.1-0.4-0.1-0.6v-2.7H218.6z"/>
        <path class="st19" d="M224.2 426.3v0.6h-0.9v3.3h-0.8v-3.3h-0.9v-0.6H224.2z"/>
        <path class="st19" d="M224.6 430.2v-3.9h0.8v3.9H224.6z"/>
        <path class="st19" d="M228.2 426.3v0.6h-1.4v0.9h1.3v0.6h-1.3v1.1h1.5v0.6H226v-3.9H228.2z"/>
        <path class="st19" d="M229.5 426.3l1 2.7h0v-2.7h0.7v3.9h-0.9l-1-2.7h0v2.7h-0.7v-3.9H229.5z"/>
        <path class="st19" d="M231.8 426.3h1.3c0.3 0 0.5 0 0.7 0.1 0.2 0.1 0.3 0.2 0.4 0.4 0.1 0.2 0.2 0.4 0.2 0.6 0 0.2 0 0.5 0 0.8 0 0.3 0 0.6-0.1 0.9 0 0.3-0.1 0.5-0.2 0.6 -0.1 0.2-0.2 0.3-0.4 0.4 -0.2 0.1-0.4 0.1-0.7 0.1h-1.2V426.3zM232.6 429.6h0.4c0.1 0 0.2 0 0.3-0.1 0.1 0 0.2-0.1 0.2-0.2 0.1-0.1 0.1-0.3 0.1-0.4 0-0.2 0-0.4 0-0.7 0-0.2 0-0.4 0-0.6 0-0.2 0-0.3-0.1-0.4 0-0.1-0.1-0.2-0.2-0.3 -0.1-0.1-0.2-0.1-0.4-0.1h-0.3V429.6z"/>
        <path class="st19" d="M237.7 430.2h-0.8l-0.2-0.8h-1l-0.2 0.8h-0.8l1-3.9h1L237.7 430.2zM236.2 426.9L236.2 426.9l-0.4 1.8h0.8L236.2 426.9z"/>
        <path class="st9" d="M522.3 41.7c16.8 0 30.5-13.6 30.5-30.5 0-16.8-13.6-30.5-30.5-30.5 -16.8 0-30.4 13.6-30.4 30.5C491.9 28.1 505.5 41.7 522.3 41.7z"/>
        <path class="st9" d="M522.3 38.5c15.1 0 27.3-12.2 27.3-27.3 0-15.1-12.2-27.3-27.3-27.3 -15.1 0-27.3 12.2-27.3 27.3C495 26.3 507.2 38.5 522.3 38.5z"/>
        <polygon class="st10" points="531.3 -2.7 531.3 -6.6 513.6 -6.6 513.6 -2.7 500.3 -2.7 500.3 0.4 501.8 0.4 501.8 27.8 543 27.8 543 0.4 543.8 0.4 543.8 -2.7 "/>
        <rect x="504.1" y="1.6" class="st12" width="35.9" height="24.6"/>
        <rect x="502.7" y="23.4" class="st13" width="38.7" height="4.4"/>
        <rect x="529" y="10.5" class="st14" width="9.3" height="17.3"/>
        <rect x="529" y="10.5" class="st28" width="9.3" height="17.3"/>
        <rect x="529" y="10.5" class="st14" width="9.3" height="17.3"/>
        <polyline class="st16" points="529 27.8 538.3 27.8 538.3 10.5 "/>
        <rect x="505.9" y="11.7" class="st14" width="20.6" height="12.5"/>
        <rect x="505.9" y="11.7" class="st29" width="20.6" height="12.5"/>
        <rect x="504.6" y="23.2" class="st10" width="23.3" height="1.8"/>
        <rect x="505.9" y="11.7" class="st14" width="20.6" height="12.5"/>
        <polyline class="st16" points="526.5 11.7 526.5 24.2 505.9 24.2 "/>
        <rect x="504.6" y="23.2" class="st10" width="23.3" height="1.8"/>
        <rect x="512.6" y="11.6" class="st10" width="0.5" height="12.4"/>
        <rect x="519.6" y="11.6" class="st10" width="0.5" height="12.4"/>
        <rect x="505.7" y="17.6" class="st10" width="21.1" height="0.5"/>
        <rect x="529" y="18" class="st18" width="9.3" height="1.6"/>
        <rect x="529.8" y="18.6" class="st12" width="1.8" height="0.2"/>
        <path class="st19" d="M545.3 8.1c0 1.9-1.6 3.5-3.5 3.5h-39c-1.9 0-3.5-1.6-3.5-3.5l1.7-5.8c0-1.9 1.6-3.5 3.5-3.5h35.5c1.9 0 3.5 1.6 3.5 3.5L545.3 8.1z"/>
        <path class="st20" d="M542.9 0.4l-43.3 9.2c0.6 1.2 1.8 2 3.1 2h39c1.9 0 3.5-1.6 3.5-3.5l-1.7-5.8C543.5 1.6 543.3 0.9 542.9 0.4z"/>
        <path class="st9" d="M87.1 306.4c16.8 0 30.5-13.6 30.5-30.5 0-16.8-13.6-30.5-30.5-30.5 -16.8 0-30.4 13.6-30.4 30.5C56.7 292.7 70.3 306.4 87.1 306.4z"/>
        <path class="st9" d="M87.1 303.2c15.1 0 27.3-12.2 27.3-27.3 0-15.1-12.2-27.3-27.3-27.3 -15.1 0-27.3 12.2-27.3 27.3C59.8 291 72 303.2 87.1 303.2z"/>
        <polygon class="st10" points="96.1 262 96.1 258 78.4 258 78.4 262 65.1 262 65.1 265.1 66.6 265.1 66.6 292.4 107.8 292.4 107.8 265.1 108.6 265.1 108.6 262 "/>
        <rect x="78" y="258" class="st27" width="17.7" height="5.6"/>
        <rect x="68.9" y="266.2" class="st12" width="35.9" height="24.6"/>
        <rect x="67.5" y="288.1" class="st13" width="38.7" height="4.4"/>
        <rect x="93.8" y="275.2" class="st14" width="9.3" height="17.3"/>
        <rect x="93.8" y="275.2" class="st28" width="9.3" height="17.3"/>
        <rect x="93.8" y="275.2" class="st14" width="9.3" height="17.3"/>
        <polyline class="st16" points="93.8 292.4 103.1 292.4 103.1 275.2 "/>
        <rect x="70.7" y="276.3" class="st14" width="20.6" height="12.5"/>
        <rect x="70.7" y="276.3" class="st29" width="20.6" height="12.5"/>
        <rect x="69.4" y="287.8" class="st10" width="23.3" height="1.8"/>
        <rect x="70.7" y="276.3" class="st14" width="20.6" height="12.5"/>
        <polyline class="st16" points="91.3 276.3 91.3 288.9 70.7 288.9 "/>
        <rect x="69.4" y="287.8" class="st10" width="23.3" height="1.8"/>
        <rect x="77.4" y="276.3" class="st10" width="0.5" height="12.4"/>
        <rect x="84.4" y="276.3" class="st10" width="0.5" height="12.4"/>
        <rect x="70.5" y="282.2" class="st10" width="21.1" height="0.5"/>
        <rect x="93.8" y="282.6" class="st18" width="9.3" height="1.6"/>
        <rect x="94.6" y="283.2" class="st12" width="1.8" height="0.2"/>
        <path class="st19" d="M110.1 272.8c0 1.9-1.6 3.5-3.5 3.5h-39c-1.9 0-3.5-1.6-3.5-3.5l1.7-5.8c0-1.9 1.6-3.5 3.5-3.5h35.5c1.9 0 3.5 1.6 3.5 3.5L110.1 272.8z"/>
        <path class="st20" d="M107.7 265l-43.3 9.2c0.6 1.2 1.8 2 3.1 2h39c1.9 0 3.5-1.6 3.5-3.5l-1.7-5.8C108.3 266.3 108.1 265.6 107.7 265z"/>
        <path class="st19" d="M81 259.4v0.4h-0.6v2.1H80v-2.1h-0.6v-0.4H81z"/>
        <path class="st19" d="M81.7 259.4v1.8c0 0.1 0 0.1 0 0.2 0 0.1 0 0.1 0 0.1 0 0 0.1 0.1 0.1 0.1 0 0 0.1 0 0.1 0 0.1 0 0.1 0 0.1 0 0 0 0.1-0.1 0.1-0.1 0 0 0-0.1 0-0.1 0-0.1 0-0.1 0-0.2v-1.8h0.5v1.8c0 0.2 0 0.3-0.1 0.4 0 0.1-0.1 0.2-0.2 0.3 -0.1 0.1-0.2 0.1-0.3 0.1 -0.1 0-0.2 0-0.3 0 -0.1 0-0.2 0-0.3 0 -0.1 0-0.2-0.1-0.3-0.1 -0.1-0.1-0.1-0.1-0.2-0.2 0-0.1-0.1-0.2-0.1-0.4v-1.8H81.7z"/>
        <path class="st19" d="M85.4 259.4v0.4h-0.6v2.1h-0.5v-2.1h-0.6v-0.4H85.4z"/>
        <path class="st19" d="M85.6 262v-2.5h0.5v2.5H85.6z"/>
        <path class="st19" d="M87.9 259.4v0.4H87v0.6h0.9v0.4H87v0.7h0.9v0.4h-1.5v-2.5H87.9z"/>
        <path class="st19" d="M88.8 259.4l0.6 1.7h0v-1.7h0.5v2.5h-0.6l-0.6-1.8h0v1.8h-0.5v-2.5H88.8z"/>
        <path class="st19" d="M90.3 259.4h0.8c0.2 0 0.3 0 0.4 0.1 0.1 0.1 0.2 0.1 0.3 0.2 0.1 0.1 0.1 0.2 0.1 0.4 0 0.2 0 0.3 0 0.5 0 0.2 0 0.4 0 0.6 0 0.2-0.1 0.3-0.1 0.4 -0.1 0.1-0.2 0.2-0.3 0.2 -0.1 0.1-0.3 0.1-0.4 0.1h-0.8V259.4zM90.8 261.6H91c0.1 0 0.2 0 0.2 0 0.1 0 0.1-0.1 0.1-0.1 0-0.1 0.1-0.2 0.1-0.3 0-0.1 0-0.3 0-0.4 0-0.1 0-0.3 0-0.4 0-0.1 0-0.2-0.1-0.3 0-0.1-0.1-0.1-0.1-0.2 -0.1 0-0.1-0.1-0.2-0.1h-0.2V261.6z"/>
        <path class="st19" d="M94.1 262h-0.5l-0.1-0.5h-0.7l-0.1 0.5h-0.5l0.7-2.5h0.6L94.1 262zM93.1 259.9L93.1 259.9l-0.3 1.1h0.5L93.1 259.9z"/>
        <path class="st9" d="M541.3 270.7c44.6 0 80.7-36.1 80.7-80.7 0-44.6-36.1-80.7-80.7-80.7 -44.6 0-80.6 36.1-80.6 80.7C460.7 234.6 496.8 270.7 541.3 270.7z"/>
        <path class="st9" d="M541.3 262.3c40 0 72.3-32.4 72.3-72.3 0-39.9-32.4-72.3-72.3-72.3 -39.9 0-72.3 32.4-72.3 72.3C469 230 501.4 262.3 541.3 262.3z"/>
        <polygon class="st10" points="565.2 153.1 565.2 142.7 518.3 142.7 518.3 153.1 483 153.1 483 161.3 486.9 161.3 486.9 233.9 596 233.9 596 161.3 598.2 161.3 598.2 153.1 "/>
        <rect x="517.1" y="142.7" class="st33" width="46.9" height="14.9"/>
        <rect x="493" y="164.4" class="st12" width="95.1" height="65.2"/>
        <rect x="489.4" y="222.3" class="st13" width="102.4" height="11.6"/>
        <rect x="559" y="188.2" class="st14" width="24.7" height="45.7"/>
        <rect x="559" y="188.2" class="st34" width="24.7" height="45.7"/>
        <rect x="559" y="188.2" class="st14" width="24.7" height="45.7"/>
        <polyline class="st16" points="559 233.9 583.7 233.9 583.7 188.2 "/>
        <rect x="497.9" y="191.2" class="st14" width="54.6" height="33.2"/>
        <rect x="497.9" y="191.2" class="st35" width="54.6" height="33.2"/>
        <rect x="494.3" y="221.7" class="st10" width="61.7" height="4.9"/>
        <rect x="497.9" y="191.2" class="st14" width="54.6" height="33.2"/>
        <polyline class="st16" points="552.4 191.2 552.4 224.4 497.9 224.4 "/>
        <rect x="494.3" y="221.7" class="st10" width="61.7" height="4.9"/>
        <rect x="515.7" y="191" class="st10" width="1.3" height="32.9"/>
        <rect x="534.1" y="191" class="st10" width="1.3" height="32.9"/>
        <rect x="497.2" y="206.8" class="st10" width="56" height="1.2"/>
        <rect x="559" y="207.9" class="st18" width="24.7" height="4.2"/>
        <rect x="561.2" y="209.5" class="st12" width="4.9" height="0.6"/>
        <path class="st19" d="M602.2 181.8c0 5.1-4.1 9.2-9.2 9.2H489.7c-5.1 0-9.2-4.1-9.2-9.2l4.6-15.3c0-5.1 4.1-9.2 9.2-9.2h94.1c5.1 0 9.2 4.1 9.2 9.2L602.2 181.8z"/>
        <path class="st20" d="M595.8 161.3l-114.7 24.4c1.5 3.1 4.6 5.3 8.3 5.3h103.3c5.1 0 9.2-4.1 9.2-9.2l-4.6-15.3C597.4 164.5 596.8 162.8 595.8 161.3z"/>
        <path class="st19" d="M525.2 146.4v1.1h-1.5v5.6h-1.4v-5.6h-1.5v-1.1H525.2z"/>
        <path class="st19" d="M527 146.4v4.7c0 0.2 0 0.3 0 0.5 0 0.1 0.1 0.3 0.1 0.4 0.1 0.1 0.1 0.2 0.2 0.2 0.1 0.1 0.2 0.1 0.4 0.1 0.2 0 0.3 0 0.4-0.1 0.1-0.1 0.2-0.1 0.2-0.2 0.1-0.1 0.1-0.2 0.1-0.4 0-0.1 0-0.3 0-0.5v-4.7h1.4v4.7c0 0.4-0.1 0.8-0.2 1.1 -0.1 0.3-0.3 0.5-0.5 0.7 -0.2 0.2-0.4 0.3-0.7 0.3 -0.3 0.1-0.5 0.1-0.8 0.1 -0.3 0-0.5 0-0.8-0.1 -0.3 0-0.5-0.2-0.7-0.3 -0.2-0.2-0.4-0.4-0.5-0.7 -0.1-0.3-0.2-0.6-0.2-1.1v-4.7H527z"/>
        <path class="st19" d="M536.7 146.4v1.1h-1.5v5.6h-1.4v-5.6h-1.5v-1.1H536.7z"/>
        <path class="st19" d="M537.3 153.1v-6.7h1.4v6.7H537.3z"/>
        <path class="st19" d="M543.4 146.4v1.1H541v1.6h2.3v1.1H541v1.8h2.5v1.1h-3.8v-6.7H543.4z"/>
        <path class="st19" d="M545.7 146.4l1.6 4.6h0v-4.6h1.2v6.7h-1.5l-1.7-4.7h0v4.7h-1.2v-6.7H545.7z"/>
        <path class="st19" d="M549.6 146.4h2.2c0.5 0 0.8 0.1 1.1 0.2 0.3 0.2 0.5 0.4 0.7 0.7 0.2 0.3 0.3 0.6 0.3 1 0.1 0.4 0.1 0.9 0.1 1.3 0 0.6 0 1.1-0.1 1.5 -0.1 0.4-0.2 0.8-0.4 1.1 -0.2 0.3-0.4 0.5-0.7 0.6 -0.3 0.1-0.7 0.2-1.1 0.2h-2.1V146.4zM551 152.1h0.6c0.2 0 0.4 0 0.6-0.1 0.1-0.1 0.3-0.2 0.3-0.4 0.1-0.2 0.1-0.4 0.2-0.7 0-0.3 0-0.7 0-1.1 0-0.4 0-0.7 0-1 0-0.3-0.1-0.5-0.2-0.7 -0.1-0.2-0.2-0.3-0.3-0.4 -0.2-0.1-0.4-0.1-0.6-0.1H551V152.1z"/>
        <path class="st19" d="M559.7 153.1h-1.4l-0.3-1.4h-1.8l-0.3 1.4h-1.4l1.8-6.7h1.7L559.7 153.1zM557.1 147.6L557.1 147.6l-0.7 3h1.3L557.1 147.6z"/>
    </g>
    <path class="st36" d="M469.8 201.1c0 82.5-66.9 149.4-149.4 149.4s-149.5-66.9-149.5-149.4c0-82.6 66.9-149.5 149.5-149.5S469.8 118.6 469.8 201.1z"/>
    <path class="st37" d="M441.8 49.6l13.8-15.2c1.5-1.6 0.3-5.1-2.5-7.7l-0.7-0.6c-2.9-2.6-6.4-3.4-7.9-1.8l-41.6 45.8c-1.5 1.6-0.3 5.1 2.6 7.7l0.7 0.6c2.9 2.6 6.4 3.4 7.9 1.8l12.7-14c38.3 31.3 62.8 78.9 62.8 132.4 0 94.3-76.5 170.9-170.9 170.9 -52.3 0-99.1-23.5-130.4-60.5l19.8-21.8c1.5-1.6 0.3-5.1-2.6-7.7l-0.7-0.6c-2.9-2.6-6.4-3.4-7.9-1.8l-41.5 45.8c-1.5 1.6-0.3 5 2.6 7.7l0.7 0.6c2.9 2.6 6.4 3.4 7.9 1.8l6.6-7.3c35.5 40.6 87.5 66.2 145.6 66.2 106.8 0 193.3-86.5 193.3-193.2C511.8 138.6 484.6 85 441.8 49.6z"/>
    <path class="st38" d="M320.9 48.8c-84.6 0-153.2 68.6-153.2 153.3 0 84.6 68.7 153.2 153.2 153.2 84.6 0 153.2-68.6 153.2-153.2C474.1 117.4 405.5 48.8 320.9 48.8zM320.9 348.2c-80.7 0-146.2-65.4-146.2-146.1 0-80.7 65.4-146.2 146.2-146.2 80.7 0 146.2 65.4 146.2 146.2C467.1 282.8 401.6 348.2 320.9 348.2z"/>
    <path class="st39" d="M299.1 55.6c0 0-51.6 6.7-86.7 47.1 0 0 27-28.1 43.5-28.1l3.7 1.6c0 0-0.5 1.4-1 1.9 -0.5 0.6-2.6 3.3-2.6 4.1 0 0.7 0.2 3 0.2 3l-1.2 1.8c0 0-1.2 0.5-1.6 1.1 -0.3 0.6-1 0.7-1 2 0 1.2 0.3 2.8 0.3 2.8l0.2 3 -0.9 1.7 -2.2 1.4c0 0-2.7 0.5-3.7 0 -1.1-0.5-1.4-2.6-1.4-2.6l3-1.9c0 0 0.3-0.5-0.5-1.1 -0.9-0.5-0.7-2.3-2.3-1.9 -1.6 0.3-4 2.4-4 2.4l-2.6 1.8c0 0-1.2 3.1-0.7 3.1 0.5 0 1.9 0.9 1.9 0.9s0.3 0.8 0.3 1.7c0 0.9-0.8 2.7-0.8 2.7s-0.5 0.9-2.3 0.5c-1.8-0.3-3.4-0.7-4.4-1.1 -1-0.3-2.1-0.9-3.2-0.5 -1 0.3-1.4 0.7-1.6 1.2 -0.2 0.5-3.8 2.6-3.8 2.6s-1.3 0.5-1.3 1.2c0 0.7-1 3.3-1 3.3s-1.2 1.2-3.5 1.7c-2.3 0.5-2.8 1.3-2.8 1.3l-1.2 2.6c0 0-1.8 1.3-3 2.8 -1.2 1.6-4.9 4.2-5.5 4.4 -0.6 0.2-1.9 1.8-2.4 3.2 -0.5 1.4-0.4 3.5-0.9 4.2 -0.5 0.7-1.2 2.6-1.4 4 -0.1 1.4-1 3.1-1.7 3.7 -0.7 0.5-1.8 1.6-2.3 1.8 -0.5 0.1-3.7 1.2-4.8 1.9 -1 0.7-1.6 2.5-1.6 3 0 0.5 1.6 1.8 2.1 1.8 0.5 0 8.6 0.5 8.6 0.5s6.7 2.8 6.7 3.3c0 0.5 0 3.2 0 3.2l-3.9 0.3 -0.4 0.7 0.9 1.6 0.6 1c0 0-0.8 1.6-1.2 2.1 -0.3 0.5-1.2 1.8-1.7 1.6 -0.6-0.2-0.4-0.2-1-1.4 -0.6-1.2-0.4-1.8-1.6-2.1 -1.2-0.3-2.5 0.9-3 0.5 -0.5-0.3-1.4-0.3-2.3-1.2 -0.9-0.8-1.1 0.7-0.9-0.8 0.2-1.6 0.9-2.3 0.5-3 -0.4-0.7-1.4-2.3-2.1-2.3 -0.7 0 0.3 1.4-0.7 0 -1.1-1.4-1.7-1.9-2.3-1.8 -0.5 0.2-1.2 0.4-1.2-0.5 0-0.9 0.5-2.7 0.5-3.5 0-0.9 0.5-2.3 0.5-3 0-0.7 0.7-4.9 0.7-4.9s-4.7 9.2-6.3 16.2c0 0 1.9-0.2 1.9 1 0 1.1 0.5 2.3 0.2 3.5 -0.2 1.2-0.2 1-0.2 4.7 0 3.7 1 4.7 0.5 5.8 -0.5 1.2-1.2 2.8-1.4 4.2 -0.2 1.4 0.9 4.9 1.4 5.6 0.5 0.7 0.5 0.9 1.2 1.7 0.7 0.7-1.2 3.5 0.7 0.7 1.9-2.8 2.6-4 2.6-4l1.2-1.4c0 0 0-1.8 2.4-1.4 2.3 0.5 2.5 0 3.2 0.9 0.7 0.9-0.9 3.3 0.2 3.5 1.2 0.2 4.7-1.4 5.7-1.1 0.9 0.2 2.1 0.4 2.6 2.1 0.5 1.6 1.2 4 2.1 4.5 1 0.5 0.7 2.6 1.2 4 0.4 1.4 3.7 2.3 4.4 2.3 0.7 0 4 0.5 4.9 0.9 0.9 0.5 0 2.1 1.9 2.6 1.9 0.5 2.3 4.2 2.3 4.2s0.7 3.3 0.2 4.2c-0.5 1-0.2 2.6 1 2.8 1.2 0.2 4.2 0.7 4.2 0.7s-1.6 2.3 0.9 3.3c2.6 1 5.2 1.9 5.9 2.4 0.7 0.4-1.6 2.6 1.4 2.3 3.1-0.2 5.9-0.7 7.3 0.5 1.4 1.2 0.2 2.8 4 4.9 3.8 2.1 4.9 2.8 5.8 3.3 1 0.4 2.8 0.2 2.3 3 -0.4 2.8-0.9 4.7-2.3 5.8 -1.4 1.2-3.3 4.9-4.2 6.1 -0.9 1.2-1.9 3.3-0.9 5.2 0.9 1.9 2.1 4 2.1 5.2 0 1.2 0.5 4.7-0.2 6.1 -0.7 1.4-2.1 4-2.1 4s2.6 2.1 0.7 4c-1.9 1.9-4.7 4-6.1 4.4 -1.4 0.5-4.2 3.1-4.2 3.1s0.2 5.9 0 7c-0.2 1.2-5.6 10.6-3.8 12.7 1.9 2.1 2.1 4.5 1.6 5.9 -0.5 1.4-1.1 1.2-1.6 2.3 -0.5 1.2-4 0.2-1.8 3.5 2.1 3.3 3.3 4 4.2 5.8 0.9 1.9 0.7 2.6 2.1 4.5 1.4 1.8 2.1 3.7 3.8 5.1 1.6 1.4 3.5 2.3 3.5 4 0 1.6 3.5 5.4-0.7 2.6 -4.2-2.8-0.5-0.2-5.8-4.7 -5.4-4.5-6.8-2.6-9.1-5.4 -2.4-2.8 1.1 7-3.3-4.7 -4.5-11.7-5.6-10.3-6.8-12.9 -1.2-2.6-0.3 0.2-3.5-5.6 -3.3-5.9-0.5-2.1-3.3-5.9 -2.8-3.7-3.1 1.4-4.5-5.3 -1.4-6.8-1.6-2.3-3.5-10.1 -1.9-7.8 1.4-8-2.8-11.7 -4.2-3.8-4-1.9-5.4-4.4 -1.4-2.6 0.5-0.2-3.3-6.8 -3.7-6.6-8.9-9.1-8.7-20.4 0.2-11.2 0.2-13.1 0.2-13.1s-5.6-4.4-3.8-11c1.9-6.6 2.6-4.5 1.9-6.6 -0.7-2.1-1.4-1.6-3.3-4.2 -1.9-2.6-2.1-2.3-2.6-4 -0.5-1.6-1.2-5.2-1.2-5.2l-1.5 1.2c0 0-15 148 132.5 169.7 0 0-34.1-7.4-36.9-14 0 0-0.7-6.3 0.7-6.3 1.4 0 3.5 1 5.6-0.7 2.1-1.8 4.6-3.9 4.6-3.9l0.3 2.8c0 0-2.1 0.4 4.6-0.7 6.7-1.1 6.7-0.3 9.2-1.4 2.4-1.1 5.3-6.3 6.7-3.1 1.4 3.1-1.7 1.8 1.4 3.1 3.1 1.4 9.1-0.7 9.1-0.7s10.2 0.7 11.3-0.3c1-1.1 1-2.8 2.8-2.4 1.8 0.3 2.8 3.1 2.8 3.1l-5.6 3.2 -5.3 3.8c0 0-2.5 0.8-0.4 1.8 2.1 1 3.1 0.7 5.6 1 2.4 0.3 8.4 4.9 9.8 2.1 1.4-2.8 1.8-3.1 2.8-4.9 1.1-1.7 0.7-3.8 3.2-3.8 2.4 0 4.9 0.7 4.9 0.7l-2.1 4.6c0 0 4.3-0.4 6-0.4 1.8 0 2.1 2.8 4.6 0.4 2.4-2.5 2.8-2.5 5.2-2.8 2.4-0.4 6-1.4 7.1-1.1 1 0.3 3.1 0.7 4.2 0.7 1 0 6.3 3.9 7.4 3.2 1-0.7 7.4-0.4 7.4-0.4S366.5 351.3 330 352c0 0 81.7 3.7 127.6-75.9 45.9-79.6 14.1-181.7-90.8-217.3 0 0 78.4 29 99.1 104.2l-0.7 1.4c-2.1-2.1-2.1-1-3.8-4.6 -1.8-3.5-0.4-2.8-1.8-5.2 -1.4-2.5-1-0.7-2.8-3.2 -1.7-2.5-2.1-2.1-3.5-3.5 -1.4-1.4-2.8-6-3.9-7.4 -1.1-1.4-4.2-1.8-5.6-2.1 -1.4-0.4-3-2.1-3.8-0.4 -0.7 1.7-0.2 4.6-0.2 4.6v5.6c0 0 0 5.3 0 6.7 0 1.4 0 5.3 0 5.3s1.8 4.2 0.4 4.9c-1.4 0.7-8.2 2.1-8.2 2.1s-1.8-2.8-3.2-5.3c-1.5-2.5-5.7-3.2-6.3-4.2 -0.8-1.1 1.2-3.1-0.9-6 -2.1-2.8 0.1-2.1-2.7-4.6 -2.8-2.5-2.8-2.5-2.8-2.5s-6.3-2.1-4.2 1.4c2.1 3.5-0.3 7.4 1.4 7.8 1.8 0.3 2.9-1.1 4.2 2.1 1.4 3.2 1.8 4.6 2.8 5.6 1.1 1.1 1.4 5.6 2.8 6 1.4 0.3 5.2 0 4.9 1.7 -0.4 1.8-2.5 4.2 0 4.9 2.5 0.7 2.8 1.8 4.2 1.4 1.4-0.4 0.7 0.4 3.1-0.7 2.5-1.1 5.3-1.1 5.3-1.1s3.2 2.5 3.2 3.5c0 1-1 7-1 7l-3.2 6c0 0 0.3 10.5-1.4 10.5 -1.7 0-3.8 4.6-4.9 5.3 -1.1 0.7-1.4 7.8-1.4 7.8l-3.2 3.8c0 0-0.4 5.3 0 6.7 0.4 1.4 1.1 7 0.4 9.8 -0.7 2.8-4.6 5.6-4.6 5.6s5.3 4.9 2.4 5.6c-2.8 0.7-5.6 4.9-6.3 6 -0.7 1-10.7 3.2-12.4 3.5 -1.8 0.3-15.3 0.7-15.3 1.8 0 1 0 5.3 0 5.3l4.8 8.1 -1.5 5.7c0 0 3.3 3.8 1.2 4.2 -2.1 0.3-7.8 3.2-8.9 4.2 -1.1 1-5.7 3.5-7.4 3.5 -1.7 0 1.4 4.9-1.4 0 -2.8-4.9-0.5-1.8-3-7.4 -2.5-5.6-2.4-1.4-2.4-5.6 0-4.2 0.4-0.3 0.1-4.2 -0.4-3.9 1.1-1-1.1-5.6 -2.1-4.6-1.7-3.2-4.5-6 -2.8-2.8-4.9 0-3.1-4.6 1.7-4.6 0.7 0 1.7-4.6 1-4.6-0.4-5.3 2.5-7.4 2.8-2.1 5.2-2.4 4.9-5.3 -0.4-2.8-0.4-3.8-1.1-5.6 -0.7-1.8-3.5-4.5-3.8-5.6 -0.4-1.1-0.4-0.4-2.5-3.5 -2.2-3.2-3.5-4.9-3.5-4.9s-0.7-7.4-0.7-10.1c0-2.8-1.1 1.7 0-2.8 1-4.6 1.4-7.4 1.4-7.4s-5.3-3.5-7.4-3.2c-2.1 0.3-1.8 3.5-4.9 1 -3.1-2.4-2.4-4.2-3.5-4.9 -1.1-0.7-3.2-1.1-4.9 0.4 -1.8 1.4-5.6 1.4-8.8 2.8 -3.2 1.4-4.2 1.1-8.4 1.1 -4.2 0-9.1 1.4-12.3-0.3 -3.2-1.8-3.5 0.7-4.9-2.8 -1.4-3.5 0-3.1-3.2-4.9 -3.1-1.8-3.8-0.4-4.2-3.5 -0.3-3.2 1.4-2.5-1.1-5.3 -2.4-2.8 1.4 1.4-2.4-2.8 -3.8-4.2-5.3-0.7-3.8-4.2 1.4-3.5 2.4-1.4 2.4-5.6 0-4.2 6.3 1.8 2.4-6.7 -3.8-8.4-4.5-6.7-1-13 3.5-6.3 8.1-8.4 8.8-9.8 0.7-1.4 2.1-4.9 3.5-6 1.4-1.1 0.4-2.1 3.5-1.8 3.2 0.4 6.6-1 8.8-3.2 2.1-2.1 4.9-5.3 6.3-5.6 1.4-0.4 0.8 0.3 3.9-0.4 3.2-0.7 3.9-1 6-1 2.1 0-2.1 0.7 3.9-0.4 6-1.1 4.6-1.1 6-1.1 1.4 0 0.7 0.3 3.1 0.7 2.5 0.4 2.1-4.9 2.5 0.4 0.3 5.2-2.1 7.7 2.1 8.1 4.2 0.3 0 0.3 4.2 0.3 4.1 0 3.1 0.7 5.2 1.8 2.1 1 3.2 2.5 6.3 2.5 3.2 0-1.4 4.6 3.2 0 4.6-4.6-3.6-5.3 4.6-4.6 8 0.7 9.1 2.4 10.5 1.7 1.4-0.7 1.8 0.7 5.3-1 3.5-1.8 3.8-1.8 5.2-1.1 1.5 0.7 1.5 3.9 2.8 0.7 1.4-3.2 4.2-2.1 0-4.2 -4.2-2.1-5.6 0.3-6.3-2.5 -0.7-2.8 3.5-2.1-0.7-2.8 -4.2-0.7-3.5-0.7-6.7-1.7 -3.1-1.1-6.3 3.2-7.4 0 -1.1-3.2-7.1 2.1-1.1-3.2 5.9-5.2 3.5-7.4 7.4-6.3 3.9 1 2.8 4.5 5.3 2.4 2.5-2.1 7-3.5 2.5-6.7 -4.6-3.2-1.4-1.8-6-3.9 -4.6-2.1-8.7 8.1-10.9 6.6 -2.1-1.4-3.2-2.4-4.6-1.7 -1.4 0.7-1.4 4.6-1.8 7.4 -0.3 2.8 2.5 3.5-2.1 1.4 -4.6-2.1 4.9-1-5.3-4.9 -10.2-3.9-13.7-2.8-15.1-1.4 -1.4 1.4-3.5 1.1-4.6 2.1 -1 1.1 3.2 3.5-1 1.1 -4.2-2.4-8.4 1.4-8.4 1.4s-1.4-0.7-3.1 0.7c-1.8 1.4-5.3 2.5-7.4 1.7 -2.1-0.7-6.7 0.7-2.8-4.2 3.9-4.9 1.1-2.1 7-4.6 6-2.4 14.7-2.8 7-4.6 -7.7-1.7 4.2-1.7-6-6.7 -10.2-4.9-10.5 1.8-10.2-4.9 0.3-6.7-0.7-7-2.8-6.7 -2.1 0.3-8.4 1.8-10.9 2.1 -2.5 0.3 0.3 2.4-4.2-0.4 -4.6-2.8-6.3 1.4-4.6-2.8 1.8-4.2 2.2-4.9 4.9-7.4 2.8-2.4 2.1-11.6 9.1-8 7.1 3.5 4.2 2.5 9.9 2.8 5.6 0.3 8.1-0.7 8.1-1.8 0-1-6.3-4.2-6.3-4.2s-2.1 0.7-1.4-0.3c0.7-1 2.1-3.2 2.1-3.2l-2.1-1.8C323.7 54.6 304 54.6 299.1 55.6z"/>
    <rect x="318.8" y="380.1" class="st37" width="27.8" height="71.6"/>
    <rect x="260.3" y="445.9" class="st37" width="147.6" height="26.3"/>
    <rect x="252.2" y="456.9" class="st40" width="164.8" height="15.2"/>
    <path d="M369.1 145.3c0-5.1-4.1-9.2-9.1-9.2l0 0c0 0 0 0 0 0 0 0 0 0 0 0l0 0c-5.1 0-9.1 4.1-9.1 9.2 0 1.8 0.5 3.6 2.1 5.8 1.6 2.1 6.9 8.8 7 8.9v0l0 0 0 0 0 0 0 0v0c0.1-0.1 5.4-6.8 7-8.9C368.5 149 369.1 147.1 369.1 145.3zM359.9 151c-2.9 0-5.3-2.4-5.3-5.3 0-2.9 2.4-5.3 5.3-5.3 2.9 0 5.3 2.4 5.3 5.3C365.2 148.6 362.9 151 359.9 151z"/>
    <path d="M354.6 145.7c0-2.9 2.4-5.3 5.3-5.3v-4.2c-5.1 0-9.1 4.1-9.1 9.2 0 1.8 0.5 3.6 2.1 5.8 1.6 2.2 7 8.9 7 8.9l0 0v-9C357 151 354.6 148.6 354.6 145.7z"/>
    <path d="M365.2 145.7c0-2.9-2.4-5.3-5.3-5.3v-4.2c5.1 0 9.2 4.1 9.2 9.2 0 1.8-0.5 3.6-2.1 5.8 -1.6 2.2-7 8.9-7 8.9l0 0v-9C362.9 151 365.2 148.6 365.2 145.7z"/>
    <path d="M365.2 145.7c0.2 1.3-0.3 2.7-1.3 3.8 -0.5 0.5-1.1 0.9-1.8 1.2 -0.7 0.3-1.4 0.4-2.2 0.4 -0.7 0-1.5-0.2-2.2-0.4 -0.7-0.3-1.3-0.7-1.8-1.2 -1-1-1.5-2.4-1.3-3.8 0.2 1.3 0.8 2.5 1.8 3.4 1 0.8 2.3 1.3 3.5 1.3 1.3 0 2.6-0.5 3.5-1.3C364.5 148.2 365.1 147 365.2 145.7z"/>
    <path class="st7" d="M359.9 136.2L359.9 136.2C359.9 136.2 359.9 136.2 359.9 136.2 359.9 136.2 359.9 136.2 359.9 136.2L359.9 136.2c-5.1 0-9.1 4.1-9.1 9.2 0.1-1.2 0.4-2.4 0.9-3.4 0.5-1.1 1.2-2 2-2.8 0.8-0.8 1.8-1.4 2.9-1.9 1.1-0.4 2.2-0.7 3.4-0.7h0 0c1.1 0 2.3 0.2 3.4 0.7 1.1 0.4 2.1 1.1 2.9 1.9 0.8 0.8 1.5 1.8 2 2.8 0.5 1.1 0.8 2.2 0.9 3.4C369.1 140.3 365 136.2 359.9 136.2z"/>
    <path d="M215.5 191.3c0-5.1-4.1-9.2-9.1-9.2l0 0c0 0 0 0 0 0 0 0 0 0 0 0l0 0c-5.1 0-9.1 4.1-9.1 9.2 0 1.8 0.5 3.6 2.1 5.8 1.6 2.1 6.9 8.8 7 8.9v0l0 0 0 0 0 0 0 0v0c0.1-0.1 5.4-6.8 7-8.9C214.9 194.9 215.5 193.1 215.5 191.3zM206.3 197c-2.9 0-5.3-2.4-5.3-5.3 0-2.9 2.4-5.3 5.3-5.3 2.9 0 5.3 2.4 5.3 5.3C211.6 194.6 209.2 197 206.3 197z"/>
    <path d="M201 191.6c0-2.9 2.4-5.3 5.3-5.3v-4.2c-5.1 0-9.2 4.1-9.2 9.2 0 1.8 0.5 3.6 2.1 5.8 1.6 2.2 7 8.9 7 8.9l0 0v-9C203.4 197 201 194.6 201 191.6z"/>
    <path d="M211.6 191.6c0-2.9-2.4-5.3-5.3-5.3v-4.2c5.1 0 9.1 4.1 9.1 9.2 0 1.8-0.5 3.6-2.1 5.8 -1.6 2.2-7 8.9-7 8.9l0 0v-9C209.2 197 211.6 194.6 211.6 191.6z"/>
    <path d="M211.6 191.6c0.2 1.3-0.3 2.7-1.3 3.8 -0.5 0.5-1.1 0.9-1.8 1.2 -0.7 0.3-1.4 0.4-2.2 0.4 -0.7 0-1.5-0.2-2.2-0.4 -0.7-0.3-1.3-0.7-1.8-1.2 -1-1-1.5-2.4-1.3-3.8 0.2 1.3 0.8 2.5 1.8 3.4 1 0.8 2.3 1.3 3.5 1.3 1.3 0 2.6-0.5 3.5-1.3C210.8 194.2 211.5 193 211.6 191.6z"/>
    <path class="st7" d="M206.3 182.1L206.3 182.1C206.3 182.1 206.3 182.1 206.3 182.1 206.3 182.1 206.3 182.1 206.3 182.1L206.3 182.1c-5.1 0-9.2 4.1-9.2 9.2 0.1-1.2 0.4-2.4 0.9-3.4 0.5-1.1 1.2-2 2-2.8 0.8-0.8 1.8-1.4 2.9-1.9 1.1-0.4 2.2-0.7 3.4-0.7h0 0c1.1 0 2.3 0.2 3.4 0.7 1.1 0.4 2.1 1.1 2.9 1.9 0.8 0.8 1.5 1.8 2 2.8 0.5 1.1 0.8 2.2 0.9 3.4C215.5 186.2 211.4 182.1 206.3 182.1z"/>
    <path d="M383.7 204.9c0-5.1-4.1-9.2-9.1-9.2l0 0c0 0 0 0 0 0 0 0 0 0 0 0l0 0c-5.1 0-9.1 4.1-9.1 9.2 0 1.8 0.5 3.6 2.1 5.8 1.6 2.1 6.9 8.8 7 8.9v0l0 0 0 0 0 0 0 0v0c0.1-0.1 5.4-6.8 7-8.9C383.1 208.5 383.7 206.6 383.7 204.9zM374.5 210.5c-2.9 0-5.3-2.4-5.3-5.3 0-2.9 2.4-5.3 5.3-5.3 2.9 0 5.3 2.4 5.3 5.3C379.8 208.1 377.5 210.5 374.5 210.5z"/>
    <path d="M369.2 205.2c0-2.9 2.4-5.3 5.3-5.3v-4.2c-5.1 0-9.2 4.1-9.2 9.2 0 1.8 0.5 3.6 2.1 5.8 1.6 2.2 7 8.9 7 8.9l0 0v-9C371.6 210.5 369.2 208.1 369.2 205.2z"/>
    <path d="M379.8 205.2c0-2.9-2.4-5.3-5.3-5.3v-4.2c5.1 0 9.1 4.1 9.1 9.2 0 1.8-0.5 3.6-2.1 5.8 -1.6 2.2-7 8.9-7 8.9l0 0v-9C377.5 210.5 379.8 208.1 379.8 205.2z"/>
    <path d="M379.8 205.2c0.2 1.3-0.3 2.7-1.3 3.8 -0.5 0.5-1.1 0.9-1.8 1.2 -0.7 0.3-1.4 0.4-2.2 0.4 -0.7 0-1.5-0.2-2.2-0.4 -0.7-0.3-1.3-0.7-1.8-1.2 -1-1-1.5-2.4-1.3-3.8 0.2 1.3 0.8 2.5 1.8 3.4 1 0.8 2.3 1.3 3.5 1.3 1.3 0 2.6-0.5 3.5-1.3C379.1 207.7 379.7 206.5 379.8 205.2z"/>
    <path class="st7" d="M374.5 195.7L374.5 195.7C374.5 195.7 374.5 195.7 374.5 195.7 374.5 195.7 374.5 195.7 374.5 195.7L374.5 195.7c-5.1 0-9.2 4.1-9.2 9.2 0.1-1.2 0.4-2.4 0.9-3.4 0.5-1.1 1.2-2 2-2.8 0.8-0.8 1.8-1.4 2.9-1.9 1.1-0.4 2.2-0.7 3.4-0.7h0 0c1.1 0 2.3 0.2 3.4 0.7 1.1 0.4 2.1 1.1 2.9 1.9 0.8 0.8 1.5 1.8 2 2.8 0.5 1.1 0.8 2.2 0.9 3.4C383.7 199.8 379.6 195.7 374.5 195.7z"/>
    <path d="M428.1 133.4c0-5.1-4.1-9.2-9.1-9.2l0 0c0 0 0 0 0 0 0 0 0 0 0 0l0 0c-5.1 0-9.1 4.1-9.1 9.2 0 1.8 0.5 3.6 2.1 5.8 1.6 2.1 6.9 8.8 7 8.9v0l0 0 0 0 0 0 0 0v0c0.1-0.1 5.4-6.8 7-8.9C427.6 137 428.1 135.2 428.1 133.4zM419 139.1c-2.9 0-5.3-2.4-5.3-5.3 0-2.9 2.4-5.3 5.3-5.3 2.9 0 5.3 2.4 5.3 5.3C424.3 136.7 421.9 139.1 419 139.1z"/>
    <path d="M413.7 133.8c0-2.9 2.4-5.3 5.3-5.3v-4.2c-5.1 0-9.2 4.1-9.2 9.2 0 1.8 0.5 3.6 2.1 5.8 1.6 2.2 7 8.9 7 8.9l0 0v-9C416.1 139.1 413.7 136.7 413.7 133.8z"/>
    <path d="M424.3 133.8c0-2.9-2.4-5.3-5.3-5.3v-4.2c5.1 0 9.1 4.1 9.1 9.2 0 1.8-0.5 3.6-2.1 5.8 -1.6 2.2-7 8.9-7 8.9l0 0v-9C421.9 139.1 424.3 136.7 424.3 133.8z"/>
    <path d="M424.3 133.8c0.2 1.3-0.3 2.7-1.3 3.8 -0.5 0.5-1.1 0.9-1.8 1.2 -0.7 0.3-1.4 0.4-2.2 0.4 -0.7 0-1.5-0.2-2.2-0.4 -0.7-0.3-1.3-0.7-1.8-1.2 -1-1-1.5-2.4-1.3-3.8 0.2 1.3 0.8 2.5 1.8 3.4 1 0.8 2.3 1.3 3.5 1.3 1.3 0 2.6-0.5 3.5-1.3C423.5 136.3 424.1 135.1 424.3 133.8z"/>
    <path class="st7" d="M419 124.2L419 124.2C419 124.2 419 124.2 419 124.2 419 124.2 419 124.2 419 124.2L419 124.2c-5.1 0-9.2 4.1-9.2 9.2 0.1-1.2 0.4-2.4 0.9-3.4 0.5-1.1 1.2-2 2-2.8 0.8-0.8 1.8-1.4 2.9-1.9 1.1-0.4 2.2-0.7 3.4-0.7h0 0c1.1 0 2.3 0.2 3.4 0.7 1.1 0.4 2.1 1.1 2.9 1.9 0.8 0.8 1.5 1.8 2 2.8 0.5 1.1 0.8 2.2 0.9 3.4C428.1 128.4 424.1 124.3 419 124.2z"/>
    <path d="M318.9 173.4c0-5.1-4.1-9.2-9.1-9.2l0 0c0 0 0 0 0 0 0 0 0 0 0 0l0 0c-5.1 0-9.1 4.1-9.1 9.2 0 1.8 0.5 3.6 2.1 5.8 1.6 2.1 6.9 8.8 7 8.9v0l0 0 0 0 0 0 0 0v0c0.1-0.1 5.4-6.8 7-8.9C318.3 177 318.9 175.1 318.9 173.4zM309.7 179c-2.9 0-5.3-2.4-5.3-5.3 0-2.9 2.4-5.3 5.3-5.3 2.9 0 5.3 2.4 5.3 5.3C315 176.6 312.7 179 309.7 179z"/>
    <path d="M304.4 173.7c0-2.9 2.4-5.3 5.3-5.3v-4.2c-5.1 0-9.1 4.1-9.1 9.2 0 1.8 0.5 3.6 2.1 5.8 1.6 2.2 7 8.9 7 8.9l0 0v-9C306.8 179 304.4 176.6 304.4 173.7z"/>
    <path d="M315 173.7c0-2.9-2.4-5.3-5.3-5.3v-4.2c5.1 0 9.2 4.1 9.2 9.2 0 1.8-0.5 3.6-2.1 5.8 -1.6 2.2-7 8.9-7 8.9l0 0v-9C312.7 179 315 176.6 315 173.7z"/>
    <path d="M315 173.7c0.2 1.3-0.3 2.7-1.3 3.8 -0.5 0.5-1.1 0.9-1.8 1.2 -0.7 0.3-1.4 0.4-2.2 0.4 -0.7 0-1.5-0.2-2.2-0.4 -0.7-0.3-1.3-0.7-1.8-1.2 -1-1-1.5-2.4-1.3-3.8 0.2 1.3 0.8 2.5 1.8 3.4 1 0.8 2.3 1.3 3.5 1.3 1.3 0 2.6-0.5 3.5-1.3C314.2 176.2 314.9 175 315 173.7z"/>
    <path class="st7" d="M309.7 164.2L309.7 164.2C309.7 164.2 309.7 164.2 309.7 164.2 309.7 164.2 309.7 164.2 309.7 164.2L309.7 164.2c-5.1 0-9.1 4.1-9.1 9.2 0.1-1.2 0.4-2.4 0.9-3.4 0.5-1.1 1.2-2 2-2.8 0.8-0.8 1.8-1.4 2.9-1.9 1.1-0.4 2.2-0.7 3.4-0.7h0 0c1.1 0 2.3 0.2 3.4 0.7 1.1 0.4 2.1 1.1 2.9 1.9 0.8 0.8 1.5 1.8 2 2.8 0.5 1.1 0.8 2.2 0.9 3.4C318.9 168.3 314.8 164.2 309.7 164.2z"/>
    <path d="M350.5 82.9c0-5.1-4.1-9.2-9.1-9.2l0 0c0 0 0 0 0 0 0 0 0 0 0 0l0 0c-5.1 0-9.1 4.1-9.1 9.2 0 1.8 0.5 3.6 2.1 5.8 1.6 2.1 6.9 8.8 7 8.9v0l0 0 0 0 0 0 0 0v0c0.1-0.1 5.4-6.8 7-8.9C350 86.5 350.5 84.7 350.5 82.9zM341.4 88.6c-2.9 0-5.3-2.4-5.3-5.3 0-2.9 2.4-5.3 5.3-5.3 2.9 0 5.3 2.4 5.3 5.3C346.7 86.2 344.3 88.6 341.4 88.6z"/>
    <path d="M336.1 83.3c0-2.9 2.4-5.3 5.3-5.3v-4.2c-5.1 0-9.2 4.1-9.2 9.2 0 1.8 0.5 3.6 2.1 5.8 1.6 2.2 7 8.9 7 8.9l0 0v-9C338.5 88.6 336.1 86.2 336.1 83.3z"/>
    <path d="M346.7 83.3c0-2.9-2.4-5.3-5.3-5.3v-4.2c5.1 0 9.1 4.1 9.1 9.2 0 1.8-0.5 3.6-2.1 5.8 -1.6 2.2-7 8.9-7 8.9l0 0v-9C344.3 88.6 346.7 86.2 346.7 83.3z"/>
    <path d="M346.7 83.3c0.2 1.3-0.3 2.7-1.3 3.8 -0.5 0.5-1.1 0.9-1.8 1.2 -0.7 0.3-1.4 0.4-2.2 0.4 -0.7 0-1.5-0.2-2.2-0.4 -0.7-0.3-1.3-0.7-1.8-1.2 -1-1-1.5-2.4-1.3-3.8 0.2 1.3 0.8 2.5 1.8 3.4 1 0.8 2.3 1.3 3.5 1.3 1.3 0 2.6-0.5 3.5-1.3C345.9 85.8 346.5 84.6 346.7 83.3z"/>
    <path class="st7" d="M341.4 73.7L341.4 73.7C341.4 73.7 341.4 73.7 341.4 73.7 341.4 73.7 341.4 73.7 341.4 73.7L341.4 73.7c-5.1 0-9.2 4.1-9.2 9.2 0.1-1.2 0.4-2.4 0.9-3.4 0.5-1.1 1.2-2 2-2.8 0.8-0.8 1.8-1.4 2.9-1.9 1.1-0.4 2.2-0.7 3.4-0.7h0 0c1.1 0 2.3 0.2 3.4 0.7 1.1 0.4 2.1 1.1 2.9 1.9 0.8 0.8 1.5 1.8 2 2.8 0.5 1.1 0.8 2.2 0.9 3.4C350.5 77.9 346.4 73.8 341.4 73.7z"/>
    <path d="M425.9 184c0-5.1-4.1-9.2-9.1-9.2l0 0c0 0 0 0 0 0 0 0 0 0 0 0l0 0c-5.1 0-9.1 4.1-9.1 9.2 0 1.8 0.5 3.6 2.1 5.8 1.6 2.1 6.9 8.8 7 8.9v0l0 0 0 0 0 0 0 0v0c0.1-0.1 5.4-6.8 7-8.9C425.3 187.6 425.9 185.7 425.9 184zM416.7 189.6c-2.9 0-5.3-2.4-5.3-5.3 0-2.9 2.4-5.3 5.3-5.3 2.9 0 5.3 2.4 5.3 5.3C422 187.2 419.7 189.6 416.7 189.6z"/>
    <path d="M411.4 184.3c0-2.9 2.4-5.3 5.3-5.3v-4.2c-5.1 0-9.2 4.1-9.2 9.2 0 1.8 0.5 3.6 2.1 5.8 1.6 2.2 7 8.9 7 8.9l0 0v-9C413.8 189.6 411.4 187.2 411.4 184.3z"/>
    <path d="M422 184.3c0-2.9-2.4-5.3-5.3-5.3v-4.2c5.1 0 9.2 4.1 9.2 9.2 0 1.8-0.5 3.6-2.1 5.8 -1.6 2.2-7 8.9-7 8.9l0 0v-9C419.7 189.6 422 187.2 422 184.3z"/>
    <path d="M422 184.3c0.2 1.3-0.3 2.7-1.3 3.8 -0.5 0.5-1.1 0.9-1.8 1.2 -0.7 0.3-1.4 0.4-2.2 0.4 -0.7 0-1.5-0.2-2.2-0.4 -0.7-0.3-1.3-0.7-1.8-1.2 -1-1-1.5-2.4-1.3-3.8 0.2 1.3 0.8 2.5 1.8 3.4 1 0.8 2.3 1.3 3.5 1.3 1.3 0 2.6-0.5 3.5-1.3C421.2 186.8 421.9 185.6 422 184.3z"/>
    <path class="st7" d="M416.7 174.8L416.7 174.8C416.7 174.8 416.7 174.8 416.7 174.8 416.7 174.8 416.7 174.8 416.7 174.8L416.7 174.8c-5.1 0-9.2 4.1-9.2 9.2 0.1-1.2 0.4-2.4 0.9-3.4 0.5-1.1 1.2-2 2-2.8 0.8-0.8 1.8-1.4 2.9-1.9 1.1-0.4 2.2-0.7 3.4-0.7h0 0c1.1 0 2.3 0.2 3.4 0.7 1.1 0.4 2 1.1 2.9 1.9 0.8 0.8 1.5 1.8 2 2.8 0.5 1.1 0.8 2.2 0.9 3.4C425.9 178.9 421.8 174.8 416.7 174.8z"/>
    <path d="M243.7 235.7c0-5.1-4.1-9.2-9.1-9.2l0 0c0 0 0 0 0 0 0 0 0 0 0 0l0 0c-5.1 0-9.1 4.1-9.1 9.2 0 1.8 0.5 3.6 2.1 5.8 1.6 2.1 6.9 8.8 7 8.9v0l0 0h0 0l0 0v0c0.1-0.1 5.4-6.8 7-8.9C243.2 239.4 243.7 237.5 243.7 235.7zM234.6 241.4c-2.9 0-5.3-2.4-5.3-5.3 0-2.9 2.4-5.3 5.3-5.3 2.9 0 5.3 2.4 5.3 5.3C239.9 239 237.5 241.4 234.6 241.4z"/>
    <path d="M229.3 236.1c0-2.9 2.4-5.3 5.3-5.3v-4.2c-5.1 0-9.1 4.1-9.1 9.2 0 1.8 0.5 3.6 2.1 5.8 1.6 2.2 7 8.9 7 8.9l0 0v-9C231.7 241.4 229.3 239 229.3 236.1z"/>
    <path d="M239.9 236.1c0-2.9-2.4-5.3-5.3-5.3v-4.2c5.1 0 9.2 4.1 9.2 9.2 0 1.8-0.5 3.6-2.1 5.8 -1.6 2.2-7 8.9-7 8.9l0 0v-9C237.5 241.4 239.9 239 239.9 236.1z"/>
    <path d="M239.9 236.1c0.2 1.3-0.3 2.7-1.3 3.8 -0.5 0.5-1.1 0.9-1.8 1.2 -0.7 0.3-1.4 0.4-2.2 0.4 -0.7 0-1.5-0.2-2.2-0.4 -0.7-0.3-1.3-0.7-1.8-1.2 -1-1-1.5-2.4-1.3-3.8 0.2 1.3 0.8 2.5 1.8 3.4 1 0.8 2.3 1.3 3.5 1.3 1.3 0 2.6-0.5 3.5-1.3C239.1 238.6 239.7 237.4 239.9 236.1z"/>
    <path class="st7" d="M234.6 226.6L234.6 226.6C234.6 226.6 234.6 226.6 234.6 226.6 234.6 226.6 234.6 226.6 234.6 226.6L234.6 226.6c-5.1 0-9.1 4.1-9.1 9.2 0.1-1.2 0.4-2.4 0.9-3.4 0.5-1.1 1.2-2 2-2.8 0.8-0.8 1.8-1.4 2.9-1.9 1.1-0.4 2.2-0.7 3.4-0.7h0 0c1.1 0 2.3 0.2 3.4 0.7 1.1 0.4 2.1 1.1 2.9 1.9 0.8 0.8 1.5 1.8 2 2.8 0.5 1.1 0.8 2.2 0.9 3.4C243.7 230.7 239.6 226.6 234.6 226.6z"/>
    <path d="M203.8 231.1c0-5.1-4.1-9.2-9.1-9.2l0 0c0 0 0 0 0 0 0 0 0 0 0 0l0 0c-5.1 0-9.1 4.1-9.1 9.2 0 1.8 0.5 3.6 2.1 5.8 1.6 2.1 6.9 8.8 7 8.9v0l0 0 0 0 0 0 0 0v0c0.1-0.1 5.4-6.8 7-8.9C203.2 234.7 203.8 232.9 203.8 231.1zM194.6 236.8c-2.9 0-5.3-2.4-5.3-5.3 0-2.9 2.4-5.3 5.3-5.3 2.9 0 5.3 2.4 5.3 5.3C199.9 234.4 197.6 236.8 194.6 236.8z"/>
    <path d="M189.3 231.5c0-2.9 2.4-5.3 5.3-5.3v-4.2c-5.1 0-9.1 4.1-9.1 9.2 0 1.8 0.5 3.6 2.1 5.8 1.6 2.2 7 8.9 7 8.9l0 0v-9C191.7 236.8 189.3 234.4 189.3 231.5z"/>
    <path d="M199.9 231.5c0-2.9-2.4-5.3-5.3-5.3v-4.2c5.1 0 9.2 4.1 9.2 9.2 0 1.8-0.5 3.6-2.1 5.8 -1.6 2.2-7 8.9-7 8.9l0 0v-9C197.6 236.8 199.9 234.4 199.9 231.5z"/>
    <path d="M199.9 231.5c0.2 1.3-0.3 2.7-1.3 3.8 -0.5 0.5-1.1 0.9-1.8 1.2 -0.7 0.3-1.4 0.4-2.2 0.4 -0.7 0-1.5-0.2-2.2-0.4 -0.7-0.3-1.3-0.7-1.8-1.2 -1-1-1.5-2.4-1.3-3.8 0.2 1.3 0.8 2.5 1.8 3.4 1 0.8 2.3 1.3 3.5 1.3 1.3 0 2.6-0.5 3.5-1.3C199.1 234 199.8 232.8 199.9 231.5z"/>
    <path class="st7" d="M194.6 221.9L194.6 221.9C194.6 221.9 194.6 221.9 194.6 221.9 194.6 221.9 194.6 221.9 194.6 221.9L194.6 221.9c-5.1 0-9.1 4.1-9.1 9.2 0.1-1.2 0.4-2.4 0.9-3.4 0.5-1.1 1.2-2 2-2.8 0.8-0.8 1.8-1.4 2.9-1.9 1.1-0.4 2.2-0.7 3.4-0.7h0 0c1.1 0 2.3 0.2 3.4 0.7 1.1 0.4 2 1.1 2.9 1.9 0.8 0.8 1.5 1.8 2 2.8 0.5 1.1 0.8 2.2 0.9 3.4C203.8 226 199.7 222 194.6 221.9z"/>
    <path d="M302.1 322.2c0-5.1-4.1-9.2-9.1-9.2l0 0c0 0 0 0 0 0 0 0 0 0 0 0l0 0c-5.1 0-9.1 4.1-9.1 9.2 0 1.8 0.5 3.6 2.1 5.8 1.6 2.1 6.9 8.8 7 8.9v0l0 0 0 0 0 0 0 0v0c0.1-0.1 5.4-6.8 7-8.9C301.5 325.9 302.1 324 302.1 322.2zM292.9 327.9c-2.9 0-5.3-2.4-5.3-5.3 0-2.9 2.4-5.3 5.3-5.3 2.9 0 5.3 2.4 5.3 5.3C298.2 325.5 295.9 327.9 292.9 327.9z"/>
    <path d="M287.6 322.6c0-2.9 2.4-5.3 5.3-5.3v-4.2c-5.1 0-9.1 4.1-9.1 9.2 0 1.8 0.5 3.6 2.1 5.8 1.6 2.2 7 8.9 7 8.9l0 0v-9C290 327.9 287.6 325.5 287.6 322.6z"/>
    <path d="M298.2 322.6c0-2.9-2.4-5.3-5.3-5.3v-4.2c5.1 0 9.2 4.1 9.2 9.2 0 1.8-0.5 3.6-2.1 5.8 -1.6 2.2-7 8.9-7 8.9l0 0v-9C295.9 327.9 298.2 325.5 298.2 322.6z"/>
    <path d="M298.2 322.6c0.2 1.3-0.3 2.7-1.3 3.8 -0.5 0.5-1.1 0.9-1.8 1.2 -0.7 0.3-1.4 0.4-2.2 0.4 -0.7 0-1.5-0.2-2.2-0.4 -0.7-0.3-1.3-0.7-1.8-1.2 -1-1-1.5-2.4-1.3-3.8 0.2 1.3 0.8 2.5 1.8 3.4 1 0.8 2.3 1.3 3.5 1.3 1.3 0 2.6-0.5 3.5-1.3C297.4 325.1 298.1 323.9 298.2 322.6z"/>
    <path class="st7" d="M292.9 313.1L292.9 313.1C292.9 313.1 292.9 313.1 292.9 313.1 292.9 313.1 292.9 313.1 292.9 313.1L292.9 313.1c-5.1 0-9.1 4.1-9.1 9.2 0.1-1.2 0.4-2.4 0.9-3.4 0.5-1.1 1.2-2 2-2.8 0.8-0.8 1.8-1.4 2.9-1.9 1.1-0.4 2.2-0.7 3.4-0.7h0 0c1.1 0 2.3 0.2 3.4 0.7 1.1 0.4 2.1 1.1 2.9 1.9 0.8 0.8 1.5 1.8 2 2.8 0.5 1.1 0.8 2.2 0.9 3.4C302.1 317.2 298 313.1 292.9 313.1z"/>
    <path d="M414.4 240.6c0-5.1-4.1-9.2-9.1-9.2l0 0c0 0 0 0 0 0 0 0 0 0 0 0l0 0c-5.1 0-9.1 4.1-9.1 9.2 0 1.8 0.5 3.6 2.1 5.8 1.6 2.1 6.9 8.8 7 8.9v0l0 0 0 0 0 0 0 0v0c0.1-0.1 5.4-6.8 7-8.9C413.9 244.3 414.4 242.4 414.4 240.6zM405.3 246.3c-2.9 0-5.3-2.4-5.3-5.3 0-2.9 2.4-5.3 5.3-5.3 2.9 0 5.3 2.4 5.3 5.3C410.6 243.9 408.2 246.3 405.3 246.3z"/>
    <path d="M400 241c0-2.9 2.4-5.3 5.3-5.3v-4.2c-5.1 0-9.2 4.1-9.2 9.2 0 1.8 0.5 3.6 2.1 5.8 1.6 2.2 7 8.9 7 8.9l0 0v-9C402.3 246.3 400 243.9 400 241z"/>
    <path d="M410.6 241c0-2.9-2.4-5.3-5.3-5.3v-4.2c5.1 0 9.1 4.1 9.1 9.2 0 1.8-0.5 3.6-2.1 5.8 -1.6 2.2-7 8.9-7 8.9l0 0v-9C408.2 246.3 410.6 243.9 410.6 241z"/>
    <path d="M410.6 241c0.2 1.3-0.3 2.7-1.3 3.8 -0.5 0.5-1.1 0.9-1.8 1.2 -0.7 0.3-1.4 0.4-2.2 0.4 -0.7 0-1.5-0.2-2.2-0.4 -0.7-0.3-1.3-0.7-1.8-1.2 -1-1-1.5-2.4-1.3-3.8 0.2 1.3 0.8 2.5 1.8 3.4 1 0.8 2.3 1.3 3.5 1.3 1.3 0 2.6-0.5 3.5-1.3C409.8 243.5 410.4 242.3 410.6 241z"/>
    <path class="st7" d="M405.3 231.5L405.3 231.5C405.3 231.5 405.3 231.5 405.3 231.5 405.3 231.5 405.3 231.5 405.3 231.5L405.3 231.5c-5.1 0-9.2 4.1-9.2 9.2 0.1-1.2 0.4-2.4 0.9-3.4 0.5-1.1 1.2-2 2-2.8 0.8-0.8 1.8-1.4 2.9-1.9 1.1-0.4 2.2-0.7 3.4-0.7h0 0c1.1 0 2.3 0.2 3.4 0.7 1.1 0.4 2.1 1.1 2.9 1.9 0.8 0.8 1.5 1.8 2 2.8 0.5 1.1 0.8 2.2 0.9 3.4C414.4 235.6 410.3 231.5 405.3 231.5z"/>
    <path d="M257.4 79.3c0-5.1-4.1-9.2-9.1-9.2l0 0c0 0 0 0 0 0 0 0 0 0 0 0l0 0c-5.1 0-9.1 4.1-9.1 9.2 0 1.8 0.5 3.6 2.1 5.8 1.6 2.1 6.9 8.8 7 8.9v0l0 0 0 0 0 0 0 0v0c0.1-0.1 5.4-6.8 7-8.9C256.9 82.9 257.4 81 257.4 79.3zM248.3 85c-2.9 0-5.3-2.4-5.3-5.3 0-2.9 2.4-5.3 5.3-5.3 2.9 0 5.3 2.4 5.3 5.3C253.6 82.6 251.2 84.9 248.3 85z"/>
    <path d="M243 79.6c0-2.9 2.4-5.3 5.3-5.3v-4.2c-5.1 0-9.2 4.1-9.2 9.2 0 1.8 0.5 3.6 2.1 5.8 1.6 2.2 7 8.9 7 8.9l0 0v-9C245.4 85 243 82.6 243 79.6z"/>
    <path d="M253.6 79.6c0-2.9-2.4-5.3-5.3-5.3v-4.2c5.1 0 9.1 4.1 9.1 9.2 0 1.8-0.5 3.6-2.1 5.8 -1.6 2.2-7 8.9-7 8.9l0 0v-9C251.2 85 253.6 82.6 253.6 79.6z"/>
    <path d="M253.6 79.6c0.2 1.3-0.3 2.7-1.3 3.8 -0.5 0.5-1.1 0.9-1.8 1.2 -0.7 0.3-1.4 0.4-2.2 0.4 -0.7 0-1.5-0.2-2.2-0.4 -0.7-0.3-1.3-0.7-1.8-1.2 -1-1-1.5-2.4-1.3-3.8 0.2 1.3 0.8 2.5 1.8 3.4 1 0.8 2.3 1.3 3.5 1.3 1.3 0 2.6-0.5 3.5-1.3C252.8 82.2 253.4 81 253.6 79.6z"/>
    <path class="st7" d="M248.3 70.1L248.3 70.1C248.3 70.1 248.3 70.1 248.3 70.1 248.3 70.1 248.3 70.1 248.3 70.1L248.3 70.1c-5.1 0-9.2 4.1-9.2 9.2 0.1-1.2 0.4-2.4 0.9-3.4 0.5-1.1 1.2-2 2-2.8 0.8-0.8 1.8-1.4 2.9-1.9 1.1-0.4 2.2-0.7 3.4-0.7h0 0c1.1 0 2.3 0.2 3.4 0.7 1.1 0.4 2.1 1.1 2.9 1.9 0.8 0.8 1.5 1.8 2 2.8 0.5 1.1 0.8 2.2 0.9 3.4C257.4 74.2 253.4 70.1 248.3 70.1z"/>
</svg>
