<?xml version="1.0" encoding="utf-8"?>
<!-- Generator: Adobe Illustrator 16.0.0, SVG Export Plug-In . SVG Version: 6.00 Build 0)  -->
<!DOCTYPE svg PUBLIC "-//W3C//DTD SVG 1.1//EN" "http://www.w3.org/Graphics/SVG/1.1/DTD/svg11.dtd">
<svg version="1.1" id="Layer_1" xmlns="http://www.w3.org/2000/svg" xmlns:xlink="http://www.w3.org/1999/xlink" x="0px" y="0px"
	 width="542.2px" height="526.9px" viewBox="0 0 542.2 526.9" style="enable-background:new 0 0 542.2 526.9;" xml:space="preserve"
	>
<style type="text/css">
	<![CDATA[
		.st0{fill-rule:evenodd;clip-rule:evenodd;fill:#D9E4E8;}
		.st1{fill:#161616;}
		.st2{fill:#E5BC9C;}
		.st3{fill:#B4BFC8;}

			.st4{opacity:0.75;fill-rule:evenodd;clip-rule:evenodd;fill:none;stroke:#005CFF;stroke-width:2.5;stroke-linecap:round;stroke-miterlimit:10;}
		.st5{fill-rule:evenodd;clip-rule:evenodd;fill:#B4BFC8;}
		.st6{fill:#292929;}
		.st7{fill:#FFD6A7;}
		.st8{fill:#FFD8B8;}
		.st9{fill:#FFE6CA;}
		.st10{fill:#FFEDE1;}
		.st11{fill:#FFFFFF;}
		.st12{fill-rule:evenodd;clip-rule:evenodd;fill:#292929;}
		.st13{fill:#CCCCCC;}
		.st14{fill:#363651;}
		.st15{opacity:0.75;fill-rule:evenodd;clip-rule:evenodd;fill:#005CFF;}
		.st16{opacity:0.75;fill:#005CFF;}
		.st17{fill:#00429B;}
		.st18{fill:#3C3533;}
		.st19{fill:#B4BFC8;}
		.st20{fill-rule:evenodd;clip-rule:evenodd;fill:#00429B;}
	]]>
	@keyframes spin {
		0% {
			-webkit-transform: rotate(0deg);
			-ms-transform: rotate(0deg);
			transform: rotate(0deg);
			transform-origin: 50% 50%;

		}
		100% {
			-webkit-transform: rotate(359deg);
			-ms-transform: rotate(359deg);
			transform: rotate(359deg);
			transform-origin: 50% 50%;
		}
	}

	@keyframes spinn {
		0% {
			-webkit-transform: rotate(0deg);
			-ms-transform: rotate(0deg);
			transform: rotate(0deg);
			transform-origin: 50% 50%;

		}
		100% {
			-webkit-transform: rotate(-359deg);
			-ms-transform: rotate(-359deg);
			transform: rotate(-359deg);
			transform-origin: 50% 50%;
		}
	}

	.animated_1 {
	 -webkit-animation: spin 2s linear;
	 animation: spin 2s linear;
	}
	.animated_3 {
	 -webkit-animation: spin 2s linear;
	 animation: spin 2s linear;
	}
	.animated_4 {
	 -webkit-animation: spin 2.6s linear;
	 animation: spin 2.6s linear;
	}
	.animated_5 {
	-webkit-animation: spin 2.2s linear;
	animation: spin 2.2s linear;
	}
	.animated_6 {
		-webkit-animation: spin 2.2s linear;
		animation: spin 2.2s linear;
	}
	.animated_2 {
	 -webkit-animation: spinn 2.4s linear;
	 animation: spinn 2.4s linear;
	}
	.animated_7 {
	 -webkit-animation: spinn 2.2s linear;
	 animation: spinn 2.2s linear;
	}
	.animated_8 {
	-webkit-animation: spin 2.4s linear;
	animation: spin 2.4s linear;
	}
	.hands_move{
	 margin:60% 20% 0;
	}
	// //arrow_2
</style>
<g>
	<g id="tuercas">
		<path class="st5" d="M474.5,306.9c0.6,0.1,1.2,0.2,1.8,0.3l2.4-2.4l3.8,2.4l-1.2,3.2c0.4,0.5,0.8,1,1.1,1.5l3.4,0l1,4.4l-3.1,1.5
			c0,0.6-0.2,1.2-0.3,1.8l2.4,2.4l-2.4,3.8l-3.2-1.2c-0.5,0.4-1,0.8-1.5,1.1l0,3.4l-4.4,1l-1.5-3.1c-0.6-0.1-1.2-0.2-1.8-0.3
			l-2.4,2.4l-3.8-2.4l1.2-3.2c-0.4-0.5-0.7-1-1.1-1.5l-3.4,0l-1-4.4l3.1-1.4c0.1-0.6,0.2-1.2,0.3-1.8l-2.4-2.4l2.4-3.8l3.2,1.2
			c0.5-0.4,1-0.8,1.5-1.1l0-3.4l4.4-1L474.5,306.9L474.5,306.9z M476.3,316.4L476.3,316.4c-0.3-1.4-1.7-2.3-3.1-2
			c-1.4,0.3-2.3,1.7-2,3.1c0.3,1.4,1.7,2.3,3.1,2C475.7,319.2,476.6,317.8,476.3,316.4z"/>
		<path class="st12" d="M379.9,42.1c0.6,0,1.2,0.2,1.8,0.3l2.4-2.4l3.8,2.4l-1.2,3.2c0.4,0.5,0.8,1,1.1,1.5l3.4,0l1,4.4l-3.1,1.5
			c0,0.6-0.2,1.2-0.3,1.8l2.4,2.4l-2.4,3.8l-3.2-1.2c-0.5,0.4-1,0.8-1.5,1.1l0,3.4l-4.4,1l-1.4-3.1c-0.6-0.1-1.2-0.2-1.8-0.3
			l-2.4,2.4l-3.8-2.4l1.2-3.2c-0.4-0.5-0.8-1-1.1-1.5l-3.4,0l-1-4.4l3.1-1.4c0.1-0.6,0.2-1.2,0.3-1.8L367,47l2.4-3.8l3.2,1.2
			c0.5-0.4,1-0.8,1.5-1.1l0-3.4l4.4-1L379.9,42.1L379.9,42.1z M381.7,51.5L381.7,51.5c-0.3-1.4-1.7-2.3-3.1-2
			c-1.4,0.3-2.3,1.7-2,3.1c0.3,1.4,1.7,2.3,3.1,2C381.1,54.3,382,52.9,381.7,51.5z"/>
		<path class="st5" d="M16.3,238.1c0.7,0.1,1.3,0.2,2,0.3l2.6-2.6l4.1,2.6l-1.3,3.5c0.4,0.5,0.8,1,1.1,1.6l3.7,0l1.1,4.7l-3.4,1.6
			c-0.1,0.7-0.2,1.3-0.3,2l2.6,2.6l-2.6,4.1l-3.5-1.3c-0.5,0.4-1,0.8-1.6,1.1l0,3.7l-4.7,1.1l-1.6-3.4c-0.7,0-1.3-0.2-2-0.3L10,262
			l-4.1-2.6l1.3-3.5c-0.4-0.5-0.8-1-1.1-1.6l-3.7,0l-1.1-4.7l3.4-1.6c0.1-0.7,0.2-1.3,0.3-2l-2.6-2.6l2.6-4.1l3.5,1.3
			c0.5-0.4,1.1-0.8,1.6-1.2l0-3.7l4.7-1.1L16.3,238.1L16.3,238.1z M18.2,248.3L18.2,248.3c-0.3-1.5-1.9-2.5-3.4-2.2
			c-1.5,0.3-2.5,1.9-2.1,3.4c0.3,1.5,1.9,2.5,3.4,2.2C17.6,251.3,18.6,249.8,18.2,248.3z"/>
		<path class="st20" d="M362.4,463.2c0.6,0.1,1.3,0.2,1.9,0.3l2.5-2.6l4,2.5l-1.2,3.4c0.4,0.5,0.8,1,1.1,1.6l3.6,0l1,4.6l-3.3,1.5
			c0,0.6-0.2,1.3-0.3,1.9l2.6,2.5l-2.5,4l-3.4-1.2c-0.5,0.4-1,0.8-1.6,1.1l0,3.6l-4.6,1l-1.5-3.3c-0.6,0-1.3-0.2-1.9-0.3l-2.5,2.6
			l-4-2.5l1.2-3.4c-0.4-0.5-0.8-1-1.1-1.6l-3.6,0l-1-4.6l3.3-1.5c0.1-0.7,0.2-1.3,0.3-1.9l-2.6-2.5l2.5-4l3.4,1.2
			c0.5-0.4,1-0.8,1.6-1.1l0-3.6l4.6-1L362.4,463.2L362.4,463.2z M359.8,465.9L359.8,465.9c-4.3,1-7.1,5.3-6.1,9.6
			c1,4.3,5.3,7.1,9.6,6.1c4.3-1,7.1-5.3,6.1-9.6C368.4,467.6,364.1,464.9,359.8,465.9z"/>
		<path class="st20" d="M513.1,145.1c0.7,0.1,1.4,0.2,2.1,0.4l2.8-2.9l4.4,2.8l-1.4,3.8c0.5,0.5,0.9,1.1,1.2,1.8l4,0l1.2,5.1
			l-3.6,1.7c-0.1,0.7-0.2,1.4-0.4,2.1l2.9,2.8l-2.8,4.4l-3.8-1.4c-0.5,0.5-1.1,0.9-1.8,1.2l0,4l-5.1,1.1l-1.7-3.6
			c-0.7-0.1-1.4-0.2-2.1-0.4l-2.8,2.9l-4.4-2.8l1.4-3.8c-0.5-0.5-0.9-1.1-1.2-1.8l-4,0l-1.1-5.1l3.6-1.7c0.1-0.7,0.2-1.4,0.4-2.1
			l-2.9-2.8l2.8-4.4l3.8,1.4c0.5-0.5,1.1-0.9,1.8-1.2l0-4l5.1-1.1L513.1,145.1L513.1,145.1z M510.2,148L510.2,148
			c-4.8,1.1-7.9,5.9-6.8,10.7c1.1,4.8,5.9,7.9,10.7,6.8c4.8-1.1,7.9-5.9,6.8-10.7C519.8,150,515,146.9,510.2,148z"/>
		<path class="st20" d="M206.6,11.5c0.9,0.1,1.7,0.2,2.5,0.4l3.4-3.4l5.3,3.3l-1.6,4.5c0.6,0.6,1,1.4,1.5,2.1l4.8,0l1.4,6.1l-4.3,2
			c-0.1,0.9-0.2,1.7-0.4,2.5l3.4,3.4l-3.3,5.3l-4.5-1.6c-0.6,0.6-1.3,1-2.1,1.5l0,4.8l-6.1,1.4l-2-4.3c-0.9-0.1-1.7-0.2-2.5-0.4
			l-3.4,3.4l-5.3-3.3l1.6-4.5c-0.6-0.7-1-1.4-1.5-2.1l-4.8,0l-1.4-6.1l4.3-2c0.1-0.9,0.2-1.7,0.4-2.5l-3.4-3.4l3.3-5.3l4.5,1.6
			c0.6-0.6,1.3-1,2.1-1.5l0-4.8l6.1-1.4L206.6,11.5L206.6,11.5z M203.2,15L203.2,15c-5.8,1.3-9.4,7-8.1,12.8c1.3,5.8,7,9.4,12.8,8.1
			c5.8-1.3,9.4-7,8.1-12.8C214.6,17.3,208.9,13.7,203.2,15z"/>
		<path class="st0" d="M61.4,63.9c0.6,0.1,1.2,0.2,1.8,0.3l2.4-2.4l3.8,2.4l-1.2,3.2c0.4,0.5,0.8,1,1.1,1.5l3.4,0l1,4.4l-3.1,1.4
			c0,0.6-0.2,1.2-0.3,1.8l2.4,2.4l-2.4,3.8l-3.2-1.2c-0.5,0.4-1,0.7-1.5,1.1l0,3.4l-4.4,1l-1.5-3.1c-0.6,0-1.2-0.2-1.8-0.3L55.5,86
			l-3.8-2.4l1.2-3.2c-0.4-0.5-0.8-1-1.1-1.5l-3.4,0l-1-4.4l3.1-1.4c0.1-0.6,0.2-1.2,0.3-1.8l-2.4-2.4l2.4-3.8l3.2,1.2
			c0.5-0.4,1-0.8,1.5-1.1l0-3.4l4.4-1L61.4,63.9L61.4,63.9z M63.1,73.4L63.1,73.4c-0.3-1.4-1.7-2.3-3.1-2c-1.4,0.3-2.3,1.7-2,3.1
			c0.3,1.4,1.7,2.3,3.1,2C62.5,76.2,63.4,74.8,63.1,73.4z"/>
		<path class="st15" d="M76.7,408.5c0.9,0.1,1.7,0.2,2.5,0.4l3.4-3.4l5.3,3.3l-1.6,4.5c0.5,0.6,1,1.3,1.5,2.1l4.8,0l1.4,6.1l-4.3,2
			c-0.1,0.9-0.2,1.7-0.4,2.5l3.4,3.4l-3.3,5.3l-4.5-1.6c-0.7,0.6-1.3,1-2.1,1.5l0,4.8l-6.1,1.4l-2-4.3c-0.9-0.1-1.7-0.2-2.5-0.4
			l-3.4,3.4l-5.3-3.3l1.6-4.5c-0.6-0.6-1-1.4-1.5-2.1l-4.8,0l-1.4-6.1l4.3-2c0.1-0.9,0.2-1.7,0.4-2.5l-3.4-3.4l3.3-5.3l4.5,1.6
			c0.6-0.6,1.3-1,2.1-1.5l0-4.8l6.1-1.4L76.7,408.5L76.7,408.5z M73.2,412L73.2,412c-5.8,1.3-9.4,7-8.1,12.8c1.3,5.8,7,9.4,12.8,8.1
			c5.8-1.3,9.4-7,8.1-12.8C84.7,414.3,79,410.7,73.2,412z"/>
	</g>
	<g>
		<g>
			<g>
				<path class="st10" d="M372.2,288.8c10.4,10.6,10.2,27.7-0.4,38l-51,50c-10.6,10.4-27.7,10.2-38-0.4l-4.6-4.7
					c-10.4-10.6-10.2-27.7,0.4-38l51-50c10.6-10.4,27.7-10.2,38,0.4L372.2,288.8z"/>
				<path class="st9" d="M324,338.1c10.7,11.5,10.4,27.9-1.1,38.6l-35.3,34.6c-17.9-18.6-28.1-31.6-43.5-46.8l34.7-33.1
					c11.5-10.7,29.8-9.9,40.5,1.6L324,338.1z"/>

					<rect x="310" y="290.1" transform="matrix(0.7146 -0.6995 0.6995 0.7146 -139.0373 321.301)" class="st11" width="28.5" height="82"/>
				<polygon class="st13" points="355,358.4 351.8,361.4 294.5,302.8 297.6,299.8 				"/>
				<polygon class="st3" points="449.8,267.9 356.2,360.5 295.5,298.5 389.1,205.9 				"/>
				<path class="st2" d="M287.1,333.7c2.9,3,2.8,7.8-0.2,10.7l-51.3,49c-3,2.9-7.8,2.8-10.7-0.2l0,0c-2.9-3-2.8-7.8,0.2-10.6
					l51.3-49C279.5,330.6,284.2,330.7,287.1,333.7L287.1,333.7z"/>
				<path class="st9" d="M296,346.6c3,2.9,3,7.7,0,10.7l-50.3,50c-2.9,3-7.7,3-10.7,0l0,0c-2.9-2.9-3-7.7,0-10.7l50.4-50
					C288.3,343.6,293,343.6,296,346.6L296,346.6z"/>
				<path class="st9" d="M308.9,356.6c3,2.9,3,7.7,0,10.7l-50.4,50c-2.9,2.9-7.7,3-10.6,0l0,0c-2.9-2.9-3-7.7,0-10.6l50.3-50
					C301.2,353.7,306,353.7,308.9,356.6L308.9,356.6z"/>
				<path class="st9" d="M329.1,360c2.9,3,2.7,7.9-0.5,11.1l-55.3,54c-3.2,3.2-8.2,3.4-11.1,0.4l0,0c-2.9-2.9-2.7-7.9,0.5-11.1
					l55.3-54C321.2,357.2,326.2,357.1,329.1,360L329.1,360z"/>
				<path class="st9" d="M269.2,350.6c6.4,6.5,9,11.9,15.5,5.5c6.5-6.4,13.4-16.6,7.1-23.3c-12.1-13.1-17.4,0.6-31.1-1.4
					C251.8,330.1,262.8,344.1,269.2,350.6z"/>
				<path class="st14" d="M340.7,363.4c1,1,2.7,1.1,3.8,0c1-1,1.1-2.7,0-3.8c-1-1.1-2.7-1.1-3.8-0.1
					C339.7,360.6,339.7,362.3,340.7,363.4z"/>
				<polygon class="st13" points="342.7,370.4 340.6,372.4 283.3,313.8 285.4,311.8 				"/>
				<path class="st8" d="M173.2,294.5c-9.5,11.4-7.9,28.4,3.5,37.9l55,45.6c11.4,9.5,28.4,7.9,37.9-3.5l4.2-5.1
					c9.5-11.4,7.9-28.4-3.5-37.9l-55-45.6c-11.4-9.5-28.4-7.9-37.9,3.5L173.2,294.5z"/>
				<path class="st7" d="M225.3,339.7c-9.7,12.3-8,28.6,4.3,38.4l38.1,31.6c16.3-20,25.4-33.8,39.5-50.2l-37.3-30.1
					c-12.3-9.7-30.5-7.4-40.3,4.9L225.3,339.7z"/>
				<polygon class="st11" points="187.3,355.2 209.3,373.4 261.6,310.3 239.6,292 				"/>
				<polygon class="st13" points="196.1,362.4 199.4,365.2 251.8,302.1 248.4,299.3 				"/>
				<polygon class="st17" points="88.7,273.8 195,364.6 250.4,297.9 144,207.1 				"/>
				<path class="st7" d="M261.6,332.3c-2.6,3.2-2.2,8,1,10.6l55.2,44.6c3.2,2.6,8,2.2,10.6-1.1l0,0c2.6-3.2,2.2-8-1-10.6l-55.2-44.6
					C269,328.6,264.3,329.1,261.6,332.3L261.6,332.3z"/>
				<path class="st7" d="M253.9,345.8c-2.7,3.2-2.3,7.9,0.8,10.6l54.3,45.7c3.2,2.7,7.9,2.3,10.6-0.8l0,0c2.7-3.2,2.3-7.9-0.8-10.6
					L264.5,345C261.3,342.3,256.6,342.7,253.9,345.8L253.9,345.8z"/>
				<path class="st7" d="M241.8,356.9c-2.7,3.2-2.3,7.9,0.8,10.6l54.3,45.7c3.2,2.7,7.9,2.3,10.6-0.8l0,0c2.7-3.2,2.3-7.9-0.9-10.6
					l-54.3-45.7C249.3,353.4,244.5,353.7,241.8,356.9L241.8,356.9z"/>
				<path class="st7" d="M221.9,362c-2.7,3.2-2,8.1,1.4,11l59.5,49.3c3.5,2.9,8.5,2.7,11.1-0.5l0,0c2.7-3.2,2-8.1-1.4-11l-59.5-49.3
					C229.6,358.5,224.6,358.8,221.9,362L221.9,362z"/>
				<path class="st14" d="M210.7,366.3c-1,1.1-2.6,1.3-3.8,0.3c-1.1-0.9-1.3-2.6-0.4-3.8c1-1.1,2.6-1.3,3.8-0.4
					C211.5,363.5,211.6,365.1,210.7,366.3z"/>
				<polygon class="st13" points="209.3,373.4 211.5,375.2 263.8,312.1 261.6,310.3 				"/>
				<path class="st9" d="M294.1,336.1c-0.6,3.7-4.1,6.3-7.8,5.7l-28.4-4.6c-3.7-0.6-6.3-4.1-5.7-7.8l0,0c0.6-3.7,4.1-6.3,7.8-5.7
					l28.4,4.6C292.1,328.8,294.7,332.3,294.1,336.1L294.1,336.1z"/>
				<path class="st9" d="M260.7,323.9c3.6,1,5.8,4.8,4.8,8.4l-7.8,27.7c-1,3.6-4.8,5.8-8.4,4.8l0,0c-3.6-1-5.8-4.8-4.8-8.4l7.8-27.7
					C253.3,325,257,322.9,260.7,323.9L260.7,323.9z"/>
				<path class="st9" d="M281.5,406.4c2.9,3,2.7,7.9-0.5,11.1l-7.6,7.6c-3.2,3.2-8.2,3.4-11.1,0.4l0,0c-2.9-2.9-2.7-7.9,0.5-11.1
					l7.6-7.6C273.6,403.7,278.5,403.5,281.5,406.4L281.5,406.4z"/>
				<path class="st9" d="M267,398.3c2.9,2.9,2.7,7.9-0.5,11.1l-7.6,7.6c-3.2,3.2-8.2,3.4-11.1,0.4l0,0c-2.9-2.9-2.7-7.9,0.5-11.1
					l7.6-7.6C259.1,395.5,264.1,395.3,267,398.3L267,398.3z"/>
				<path class="st9" d="M254.1,388.2c2.9,3,2.7,7.9-0.5,11.1l-7.6,7.6c-3.2,3.2-8.2,3.4-11.1,0.4l0,0c-2.9-3-2.7-7.9,0.5-11.1
					l7.6-7.6C246.2,385.5,251.2,385.3,254.1,388.2L254.1,388.2z"/>
				<path class="st9" d="M244.2,374.5c2.9,3,2.7,7.9-0.5,11.1l-7.6,7.6c-3.2,3.2-8.2,3.4-11.1,0.4l0,0c-2.9-3-2.7-7.9,0.5-11.1
					l7.6-7.6C236.3,371.7,241.2,371.5,244.2,374.5L244.2,374.5z"/>
			</g>
		</g>
		<g>
			<rect x="194.8" y="172.9" class="st1" width="148.9" height="15.9"/>
			<g>
				<path class="st1" d="M225,113.6c-1.6-0.5-3.7-0.7-6.4-0.7c-2.6,0-4.7,0.2-6.3,0.7c-1.8,0.6-3,1.9-3.7,4l-13.9,44.7v0.2
					c0,0.7,0.5,1.5,1.6,1.5h8.9c0.9,0,1.6-0.5,1.9-1.4l3.6-11.7l0,0h15.9l3.6,11.8l0,0c0.3,0.8,1,1.3,1.9,1.3h9
					c0.9,0,1.5-0.6,1.5-1.5v-0.2l-13.8-44.7C228.1,115.6,226.8,114.2,225,113.6z M223,139.4h-8.8l4.4-14.4L223,139.4z"/>
				<path class="st1" d="M329.1,160.8l-3.8-11.6c-0.4-1.1-0.8-2.2-1.2-3.3c-0.4-1-1.1-2.1-2-3.4c1.1-0.6,1.9-1.3,2.6-2
					c0.7-0.8,1.4-1.7,2.1-2.6l0.1-0.1c1-2,1.6-5,1.6-9.2V127v0c-0.1-4.6-1.3-8.1-3.6-10.4c-1.3-1.3-2.6-2.3-4-2.8
					c-1.3-0.5-2.7-0.8-4.1-0.8h-25.4c-1,0-1.7,0.7-1.7,1.7v47.6c0,1,0.7,1.7,1.7,1.7h8.5c1,0,1.7-0.7,1.7-1.7v-16.4h7.9
					c0.6,0.1,2.2,0.4,3,3.4l4.3,12c0.1,0.4,0.4,0.9,0.7,1.5c0.2,0.3,0.8,1.2,1.8,1.2h9.4c0.8,0,1.5-0.6,1.5-1.4
					c0-0.4-0.2-0.8-0.6-1.3C329.3,161.2,329.2,161,329.1,160.8z M301.5,123.9h13c0.8,0.1,1.4,1.1,1.7,1.9c0.2,0.4,0.3,0.7,0.3,1.1
					c0.1,0.5,0.1,1,0.1,1.6c0,1.2-0.2,2.2-0.5,3.2c-0.3,0.9-0.7,1.5-1.1,1.9c-0.6,0.5-1.1,0.7-1.5,0.7h-12.1V123.9z"/>
				<path class="st1" d="M286.6,126.7c0-0.3-0.1-0.6-0.1-0.9c-0.4-2.8-1.3-5.4-2.9-7.5c-1-1.2-2.2-2.3-3.6-3.3c-1.4-0.9-3-1.6-4.6-2
					l0,0c-0.8-0.2-1.7-0.3-2.6-0.4c-2.7-0.4-5.4-0.5-8.1-0.4c-2.7-0.1-5.4,0-8.1,0.4c-0.9,0.1-1.7,0.2-2.6,0.4l0,0
					c-1.6,0.4-3.1,1-4.6,2c-1.4,0.9-2.6,2-3.6,3.3c-1.6,2.1-2.5,4.8-2.9,7.5c-0.1,0.3-0.1,0.6-0.2,0.9c-0.5,3.4-0.5,7.1-0.4,10.5
					c-0.1,3.9-0.2,7.9,0.3,11.8c0.4,3.3,1.1,7.1,3.1,9.8c4.6,6,13.9,5.8,18.8,5.8c4.9,0,14.2,0.2,18.8-5.8c2.1-2.7,2.7-6.6,3.1-9.8
					c0.5-3.9,0.4-7.9,0.3-11.8C287,133.8,287.1,130.2,286.6,126.7z M271.7,152.9c-2.1,0.5-4.6,0.7-6.9,0.8c0,0-0.1,0-0.1,0
					c0,0-0.1,0-0.1,0c-2.3-0.1-4.7-0.2-6.9-0.8c-0.4-0.1-0.8-0.2-1.1-0.4c-0.6-0.4-1.1-0.9-1.5-1.5c-0.6-1-0.9-2.6-0.9-4.8V131
					c0-2.2,0.3-3.8,0.9-4.8c0.5-0.9,1.4-1.5,2.8-1.9c2.1-0.5,4.4-0.8,6.8-0.8c2.3,0,4.6,0.3,6.8,0.8c1.3,0.3,2.2,0.9,2.7,1.9
					c0.6,1,0.9,2.6,0.9,4.8v15.3c0,2.2-0.3,3.8-0.9,4.8c-0.4,0.6-0.9,1.1-1.5,1.5C272.4,152.7,272.1,152.8,271.7,152.9z"/>
				<path class="st1" d="M342,112.9h-8.5c-1,0-1.7,0.7-1.7,1.7v47.6c0,1,0.7,1.7,1.7,1.7h8.5c1,0,1.7-0.7,1.7-1.7v-47.6
					C343.7,113.6,343.1,112.9,342,112.9z"/>
			</g>
			<g>
				<path class="st11" d="M201.3,178.3c0.1-0.2,0.2-0.3,0.4-0.4c0.2-0.1,0.4-0.1,0.7-0.1c0.3,0,0.5,0,0.7,0.1
					c0.2,0.1,0.3,0.2,0.4,0.4l1.6,5.2c0,0,0,0-0.1,0h-1c-0.1,0-0.1,0-0.1-0.1l-0.4-1.4c0-0.1-0.1-0.1-0.1-0.1h-1.9
					c-0.1,0-0.1,0-0.1,0.1l-0.4,1.4c0,0.1-0.1,0.1-0.1,0.1h-1c0,0-0.1,0-0.1,0L201.3,178.3z M202.4,179c0-0.1,0-0.1,0-0.1
					c0,0,0,0-0.1,0c0,0-0.1,0-0.1,0.1l-0.6,1.8c0,0,0,0,0,0c0,0,0,0,0,0c0,0,0,0.1,0.1,0.1h1.2c0,0,0.1,0,0.1-0.1c0,0,0,0,0,0
					c0,0,0,0,0,0L202.4,179z"/>
				<path class="st11" d="M206.7,177.8h3c0.1,0,0.3,0,0.4,0.1c0.1,0.1,0.3,0.2,0.4,0.3c0.2,0.3,0.4,0.6,0.4,1.1v0.2
					c0,0.5-0.1,0.8-0.2,1c-0.1,0.1-0.2,0.2-0.2,0.3c-0.1,0.1-0.2,0.2-0.3,0.2c0,0,0,0,0,0c0,0,0,0,0,0c0,0,0,0,0,0
					c0.1,0.2,0.2,0.3,0.3,0.4c0.1,0.1,0.1,0.2,0.1,0.4l0.4,1.3c0,0,0,0.1,0.1,0.1c0,0,0,0.1,0,0.1c0,0,0,0,0,0H210
					c0,0-0.1,0-0.1-0.1c0-0.1-0.1-0.1-0.1-0.1l-0.5-1.4c-0.1-0.3-0.2-0.5-0.5-0.5h-1c-0.1,0-0.1,0-0.1,0.1v1.9c0,0.1,0,0.1-0.1,0.1
					h-1c-0.1,0-0.1,0-0.1-0.1L206.7,177.8C206.6,177.9,206.7,177.8,206.7,177.8z M207.9,178.9C207.8,178.9,207.8,178.9,207.9,178.9
					l-0.1,1.4c0,0.1,0,0.1,0.1,0.1h1.4c0.1,0,0.2,0,0.2-0.1c0.1-0.1,0.1-0.2,0.2-0.3c0-0.1,0.1-0.3,0.1-0.4c0-0.1,0-0.1,0-0.2
					c0-0.1,0-0.1-0.1-0.2c-0.1-0.2-0.2-0.3-0.3-0.3H207.9z"/>
				<path class="st11" d="M218.3,182.7v0.9c0,0.1,0,0.1-0.1,0.1h-2.7c0,0,0,0,0,0c0,0-0.1,0-0.1,0c0,0-0.1,0-0.1,0
					c-0.9,0-1.6-0.2-2.1-0.7c-0.1-0.1-0.2-0.2-0.3-0.4c-0.1-0.2-0.1-0.3-0.1-0.6c0-0.1,0-0.3,0-0.4c0-0.2,0-0.5,0-0.9
					c0-0.2,0-0.4,0-0.5c0-0.1,0-0.3,0-0.4c0-0.1,0-0.2,0-0.3c0-0.1,0-0.1,0-0.2c0-0.2,0.1-0.4,0.2-0.5c0.1-0.2,0.1-0.3,0.2-0.4
					c0.1-0.1,0.2-0.3,0.4-0.3c0.2-0.1,0.3-0.2,0.5-0.2c0.1,0,0.3,0,0.5-0.1c0.2,0,0.4,0,0.7,0c0.3,0,0.5,0,0.7,0
					c0.2,0,0.3,0,0.5,0.1c0.2,0,0.4,0.1,0.5,0.2c0.2,0.1,0.3,0.2,0.4,0.4c0.1,0.1,0.1,0.2,0.2,0.4c0,0.2,0.1,0.3,0.1,0.6
					c0,0.1,0,0.3,0,0.6c0,0.2,0,0.5,0,0.8c0,0.4,0,0.6,0,0.9c0,0.2,0,0.4,0,0.5c0,0.2-0.1,0.4-0.1,0.6L218.3,182.7
					C218.2,182.6,218.3,182.6,218.3,182.7z M214.8,178.8c-0.2,0-0.3,0-0.3,0c-0.2,0-0.3,0.1-0.4,0.3c-0.1,0.1-0.2,0.3-0.2,0.6v1.8
					c0,0.3,0.1,0.5,0.2,0.7c0.1,0.2,0.3,0.3,0.5,0.3c0,0,0.1,0,0.1,0c0.1,0,0.1,0,0.2,0c0.1,0,0.1,0,0.2,0c0.1,0,0.1,0,0.2,0
					c0.2,0,0.3,0,0.4,0c0.1,0,0.2,0,0.3,0c0.2,0,0.4-0.1,0.5-0.3c0.1-0.1,0.1-0.4,0.1-0.7v-1.8c0-0.3,0-0.5-0.1-0.6
					c-0.1-0.1-0.2-0.2-0.4-0.3c-0.1,0-0.2,0-0.3,0c-0.1,0-0.3,0-0.4,0C215.1,178.8,214.9,178.8,214.8,178.8z"/>
				<path class="st11" d="M223.1,177.8h1c0.1,0,0.1,0,0.1,0.1v3.8c0,0.2,0,0.4,0,0.5c0,0.1-0.1,0.3-0.1,0.3c0,0.1-0.1,0.2-0.1,0.3
					c-0.1,0.1-0.1,0.2-0.2,0.3c-0.1,0.1-0.2,0.1-0.3,0.2c-0.1,0.1-0.2,0.1-0.3,0.1c-0.1,0-0.2,0.1-0.3,0.1c-0.1,0-0.2,0-0.4,0h-0.9
					c-0.2,0-0.3,0-0.5-0.1c-0.2,0-0.3-0.1-0.4-0.2c-0.1-0.1-0.2-0.1-0.3-0.2c-0.1-0.1-0.2-0.2-0.3-0.3c-0.1-0.1-0.1-0.2-0.2-0.4
					c0-0.1-0.1-0.3-0.1-0.4v-4.1c0-0.1,0-0.1,0.1-0.1h1c0.1,0,0.1,0,0.1,0.1v3.9c0,0.1,0,0.1,0,0.2c0,0.1,0.1,0.2,0.1,0.2
					c0,0.1,0.1,0.1,0.2,0.2c0.1,0.1,0.2,0.1,0.3,0.1h0.8c0.1,0,0.2,0,0.2-0.1c0.1-0.1,0.1-0.1,0.2-0.2c0-0.1,0.1-0.1,0.1-0.2
					c0-0.1,0-0.2,0-0.2L223.1,177.8C223.1,177.9,223.1,177.8,223.1,177.8z"/>
				<path class="st11" d="M226.1,177.8h1c0.1,0,0.1,0,0.1,0.1v5.5c0,0.1,0,0.1-0.1,0.1h-1c-0.1,0-0.1,0-0.1-0.1L226.1,177.8
					C226,177.9,226.1,177.8,226.1,177.8z"/>
				<path class="st11" d="M231.5,183.5C231.5,183.5,231.5,183.5,231.5,183.5l-1.1,0.1c-0.1,0-0.1,0-0.1-0.1v-4.5
					c0-0.1,0-0.1-0.1-0.1h-1.3c-0.1,0-0.1,0-0.1-0.1v-0.9c0-0.1,0-0.1,0.1-0.1h3.9c0.1,0,0.1,0,0.1,0.1v0.9c0,0.1,0,0.1-0.1,0.1
					h-1.3c-0.1,0-0.1,0-0.1,0.1V183.5z"/>
				<path class="st11" d="M234.6,179c0-0.4,0.1-0.7,0.3-0.9c0.2-0.2,0.5-0.3,0.9-0.3h2.7c0.1,0,0.1,0,0.1,0.1v0.9
					c0,0.1,0,0.1-0.1,0.1h-2.6c-0.1,0-0.1,0-0.1,0.1v1.1c0,0.1,0,0.1,0.1,0.1h2.4c0.1,0,0.1,0,0.1,0.1v0.9c0,0.1,0,0.1-0.1,0.1h-2.4
					c-0.1,0-0.1,0-0.1,0.1v1.2c0,0.1,0,0.1,0.1,0.1h2.6c0.1,0,0.1,0,0.1,0.1v0.9c0,0.1,0,0.1-0.1,0.1h-3.1c-0.1,0-0.2,0-0.3-0.1
					c-0.1,0-0.2-0.1-0.3-0.2c-0.1-0.1-0.1-0.2-0.2-0.3c0-0.1-0.1-0.2-0.1-0.3V179z"/>
				<path class="st11" d="M240.2,179.6c0-0.2,0-0.4,0.1-0.6c0-0.1,0.1-0.2,0.1-0.3c0.1-0.1,0.1-0.2,0.2-0.2c0.2-0.2,0.4-0.3,0.6-0.4
					c0.2-0.1,0.5-0.2,0.7-0.2h2.1c0.1,0,0.1,0,0.1,0.1v0.9c0,0.1,0,0.1-0.1,0.1H242c-0.2,0-0.4,0.1-0.5,0.3
					c-0.1,0.2-0.1,0.4-0.1,0.7v2c0,0.2,0.1,0.3,0.2,0.4c0.1,0.1,0.2,0.2,0.4,0.2h2.1c0.1,0,0.1,0,0.1,0.1v0.9c0,0.1,0,0.1-0.1,0.1
					h-2c-0.2,0-0.3,0-0.4,0c-0.1,0-0.2-0.1-0.3-0.1c-0.2-0.1-0.4-0.2-0.5-0.4c-0.2-0.2-0.3-0.4-0.4-0.6c0-0.1,0-0.1-0.1-0.2
					c0-0.1,0-0.2,0-0.4V179.6z"/>
				<path class="st11" d="M248.4,183.5C248.4,183.5,248.4,183.5,248.4,183.5l-1.1,0.1c-0.1,0-0.1,0-0.1-0.1v-4.5
					c0-0.1,0-0.1-0.1-0.1h-1.3c-0.1,0-0.1,0-0.1-0.1v-0.9c0-0.1,0-0.1,0.1-0.1h3.9c0.1,0,0.1,0,0.1,0.1v0.9c0,0.1,0,0.1-0.1,0.1
					h-1.3c-0.1,0-0.1,0-0.1,0.1V183.5z"/>
				<path class="st11" d="M254.8,177.8h1c0.1,0,0.1,0,0.1,0.1v3.8c0,0.2,0,0.4,0,0.5c0,0.1-0.1,0.3-0.1,0.3c0,0.1-0.1,0.2-0.1,0.3
					c-0.1,0.1-0.1,0.2-0.2,0.3c-0.1,0.1-0.2,0.1-0.3,0.2c-0.1,0.1-0.2,0.1-0.3,0.1c-0.1,0-0.2,0.1-0.3,0.1c-0.1,0-0.2,0-0.4,0h-0.9
					c-0.2,0-0.3,0-0.5-0.1c-0.2,0-0.3-0.1-0.4-0.2c-0.1-0.1-0.2-0.1-0.3-0.2c-0.1-0.1-0.2-0.2-0.3-0.3c-0.1-0.1-0.1-0.2-0.2-0.4
					c0-0.1-0.1-0.3-0.1-0.4v-4.1c0-0.1,0-0.1,0.1-0.1h1c0.1,0,0.1,0,0.1,0.1v3.9c0,0.1,0,0.1,0,0.2c0,0.1,0.1,0.2,0.1,0.2
					c0,0.1,0.1,0.1,0.2,0.2c0.1,0.1,0.2,0.1,0.3,0.1h0.8c0.1,0,0.2,0,0.2-0.1c0.1-0.1,0.1-0.1,0.2-0.2c0.1-0.1,0.1-0.1,0.1-0.2
					c0-0.1,0-0.2,0-0.2L254.8,177.8C254.7,177.9,254.7,177.8,254.8,177.8z"/>
				<path class="st11" d="M257.7,177.8h3c0.1,0,0.3,0,0.4,0.1c0.1,0.1,0.3,0.2,0.4,0.3c0.2,0.3,0.4,0.6,0.4,1.1v0.2
					c0,0.5-0.1,0.8-0.2,1c-0.1,0.1-0.1,0.2-0.2,0.3c-0.1,0.1-0.2,0.2-0.3,0.2c0,0,0,0,0,0c0,0,0,0,0,0c0,0,0,0,0,0
					c0.1,0.2,0.2,0.3,0.3,0.4c0,0.1,0.1,0.2,0.1,0.4l0.4,1.3c0,0,0,0.1,0.1,0.1c0,0,0,0.1,0,0.1c0,0,0,0-0.1,0H261
					c0,0-0.1,0-0.1-0.1c0-0.1-0.1-0.1-0.1-0.1l-0.5-1.4c-0.1-0.3-0.2-0.5-0.5-0.5h-1c-0.1,0-0.1,0-0.1,0.1v1.9c0,0.1,0,0.1-0.1,0.1
					h-1c-0.1,0-0.1,0-0.1-0.1L257.7,177.8C257.7,177.9,257.7,177.8,257.7,177.8z M258.9,178.9C258.8,178.9,258.8,178.9,258.9,178.9
					l-0.1,1.4c0,0.1,0,0.1,0.1,0.1h1.4c0.1,0,0.2,0,0.2-0.1c0.1-0.1,0.1-0.2,0.2-0.3c0-0.1,0.1-0.3,0.1-0.4c0-0.1,0-0.1,0-0.2
					c0-0.1,0-0.1-0.1-0.2c-0.1-0.2-0.2-0.3-0.3-0.3H258.9z"/>
				<path class="st11" d="M265.4,178.3c0.1-0.2,0.2-0.3,0.3-0.4c0.2-0.1,0.4-0.1,0.7-0.1c0.3,0,0.5,0,0.7,0.1
					c0.2,0.1,0.3,0.2,0.4,0.4l1.6,5.2c0,0,0,0-0.1,0h-1c-0.1,0-0.1,0-0.1-0.1l-0.4-1.4c0-0.1-0.1-0.1-0.1-0.1h-1.9
					c-0.1,0-0.1,0-0.1,0.1l-0.4,1.4c0,0.1-0.1,0.1-0.1,0.1h-1c0,0-0.1,0-0.1,0L265.4,178.3z M266.5,179c0-0.1,0-0.1,0-0.1
					c0,0,0,0-0.1,0s-0.1,0-0.1,0.1l-0.6,1.8c0,0,0,0,0,0c0,0,0,0,0,0c0,0,0,0.1,0.1,0.1h1.2c0,0,0.1,0,0.1-0.1c0,0,0,0,0,0
					c0,0,0,0,0,0L266.5,179z"/>
				<path class="st11" d="M274.2,179c0-0.4,0.1-0.7,0.3-0.9c0.2-0.2,0.5-0.3,0.9-0.3h2.7c0.1,0,0.1,0,0.1,0.1v0.9
					c0,0.1,0,0.1-0.1,0.1h-2.6c-0.1,0-0.1,0-0.1,0.1v1.1c0,0.1,0,0.1,0.1,0.1h2.4c0.1,0,0.1,0,0.1,0.1v0.9c0,0.1,0,0.1-0.1,0.1h-2.4
					c-0.1,0-0.1,0-0.1,0.1v1.2c0,0.1,0,0.1,0.1,0.1h2.6c0.1,0,0.1,0,0.1,0.1v0.9c0,0.1,0,0.1-0.1,0.1H275c-0.1,0-0.2,0-0.3-0.1
					c-0.1,0-0.2-0.1-0.3-0.2c-0.1-0.1-0.1-0.2-0.2-0.3c0-0.1-0.1-0.2-0.1-0.3V179z"/>
				<path class="st11" d="M279.9,178.7c0-0.2,0-0.3,0.1-0.4c0.1-0.1,0.2-0.2,0.3-0.3c0.1-0.1,0.2-0.1,0.4-0.2c0.1,0,0.3,0,0.4,0
					c0.2,0,0.4,0,0.6,0c0.1,0,0.3,0.1,0.4,0.2c0.1,0.1,0.2,0.2,0.2,0.4c0.1,0.2,0.1,0.4,0.2,0.8l0.4,2.6c0,0,0,0.1,0,0.1
					c0,0,0,0.1,0,0.1c0,0,0,0.1,0,0.1c0,0,0,0.1,0,0.1c0,0,0,0,0-0.1c0,0,0-0.1,0-0.1c0,0,0-0.1,0-0.1c0-0.1,0-0.1,0-0.1l0.4-2.7
					c0-0.3,0.1-0.6,0.2-0.7c0.1-0.2,0.1-0.3,0.2-0.4c0.1-0.1,0.2-0.1,0.4-0.2c0.2,0,0.3,0,0.6,0c0.3,0,0.6,0.1,0.8,0.2
					c0.2,0.1,0.3,0.4,0.3,0.7v4.7c0,0.1,0,0.1-0.1,0.1h-1c-0.1,0-0.1,0-0.1-0.1v-4.3c0,0,0,0,0-0.1c0,0,0-0.1,0-0.1c0,0,0,0-0.1,0
					c0,0,0,0,0,0.1c0,0,0,0,0,0.1c0,0,0,0.1,0,0.1c0,0,0,0.1,0,0.1c0,0,0,0.1,0,0.1c0,0.1-0.1,0.3-0.1,0.4c0,0.1-0.1,0.3-0.1,0.6
					c-0.1,0.2-0.1,0.5-0.2,0.9c-0.1,0.4-0.2,0.9-0.3,1.4c0,0.1,0,0.2-0.1,0.2c0,0.1-0.1,0.2-0.2,0.2c-0.1,0.1-0.2,0.1-0.3,0.2
					c-0.1,0-0.3,0.1-0.4,0.1c-0.2,0-0.3,0-0.4-0.1c-0.1,0-0.2-0.1-0.2-0.1c-0.1-0.1-0.1-0.1-0.1-0.2c0-0.1-0.1-0.1-0.1-0.2l-0.8-3.8
					c0,0,0,0,0-0.1c0-0.1,0-0.1,0-0.1h0c0,0,0,0,0,0.1v4.4c0,0.1,0,0.1-0.1,0.1h-1c-0.1,0-0.1,0-0.1-0.1V178.7z"/>
				<path class="st11" d="M287.7,177.9C287.7,177.9,287.7,177.8,287.7,177.9l2.6-0.1c0.3,0,0.5,0,0.8,0.1c0.2,0.1,0.4,0.2,0.5,0.4
					c0.1,0.2,0.2,0.4,0.3,0.6c0.1,0.2,0.1,0.5,0.1,0.7c0,0.3,0,0.5-0.1,0.8c-0.1,0.2-0.2,0.4-0.3,0.6c-0.1,0.2-0.3,0.3-0.5,0.4
					c-0.2,0.1-0.5,0.1-0.8,0.1H289c-0.1,0-0.1,0-0.1,0.1v1.8c0,0.1,0,0.1-0.1,0.1h-1c-0.1,0-0.1,0-0.1-0.1V177.9L287.7,177.9z
					 M289,178.9C288.9,178.9,288.9,178.9,289,178.9l-0.1,1.6c0,0.1,0,0.1,0.1,0.1h1.5c0.1,0,0.2,0,0.2-0.1c0.1-0.1,0.1-0.1,0.1-0.2
					c0-0.1,0-0.2,0.1-0.3c0-0.1,0-0.2,0-0.2c0-0.1,0-0.1,0-0.2c0-0.1,0-0.2-0.1-0.3c0-0.1-0.1-0.2-0.1-0.2c-0.1-0.1-0.1-0.1-0.2-0.1
					H289z"/>
				<path class="st11" d="M293.7,177.8h3c0.1,0,0.3,0,0.4,0.1c0.1,0.1,0.3,0.2,0.4,0.3c0.2,0.3,0.4,0.6,0.4,1.1v0.2
					c0,0.5-0.1,0.8-0.2,1c-0.1,0.1-0.2,0.2-0.2,0.3c-0.1,0.1-0.2,0.2-0.3,0.2c0,0,0,0,0,0c0,0,0,0,0,0c0,0,0,0,0,0
					c0.1,0.2,0.2,0.3,0.3,0.4c0,0.1,0.1,0.2,0.1,0.4l0.4,1.3c0,0,0,0.1,0.1,0.1c0,0,0,0.1,0,0.1c0,0,0,0,0,0h-1.1c0,0-0.1,0-0.1-0.1
					c0-0.1-0.1-0.1-0.1-0.1l-0.5-1.4c-0.1-0.3-0.2-0.5-0.5-0.5h-1c-0.1,0-0.1,0-0.1,0.1v1.9c0,0.1,0,0.1-0.1,0.1h-1
					c-0.1,0-0.1,0-0.1-0.1L293.7,177.8C293.6,177.9,293.6,177.8,293.7,177.8z M294.8,178.9C294.8,178.9,294.8,178.9,294.8,178.9
					l-0.1,1.4c0,0.1,0,0.1,0.1,0.1h1.4c0.1,0,0.2,0,0.2-0.1c0.1-0.1,0.1-0.2,0.2-0.3c0-0.1,0.1-0.3,0.1-0.4c0-0.1,0-0.1,0-0.2
					c0-0.1,0-0.1-0.1-0.2c-0.1-0.2-0.2-0.3-0.3-0.3H294.8z"/>
				<path class="st11" d="M299.7,179c0-0.4,0.1-0.7,0.3-0.9c0.2-0.2,0.5-0.3,0.8-0.3h2.7c0.1,0,0.1,0,0.1,0.1v0.9
					c0,0.1,0,0.1-0.1,0.1h-2.6c-0.1,0-0.1,0-0.1,0.1v1.1c0,0.1,0,0.1,0.1,0.1h2.4c0.1,0,0.1,0,0.1,0.1v0.9c0,0.1,0,0.1-0.1,0.1h-2.4
					c-0.1,0-0.1,0-0.1,0.1v1.2c0,0.1,0,0.1,0.1,0.1h2.6c0.1,0,0.1,0,0.1,0.1v0.9c0,0.1,0,0.1-0.1,0.1h-3.1c-0.1,0-0.2,0-0.3-0.1
					c-0.1,0-0.2-0.1-0.3-0.2c-0.1-0.1-0.1-0.2-0.2-0.3c0-0.1-0.1-0.2-0.1-0.3V179z"/>
				<path class="st11" d="M306.9,181.2c-0.2,0-0.3,0-0.5-0.1c-0.2,0-0.4-0.1-0.5-0.2c-0.1-0.1-0.2-0.2-0.2-0.3
					c-0.1-0.1-0.1-0.2-0.2-0.3c0-0.1-0.1-0.2-0.1-0.4c0-0.1,0-0.3,0-0.4c0-0.1,0-0.1,0-0.2c0,0,0-0.1,0-0.1c0-0.5,0.2-0.8,0.5-1.1
					c0.1-0.1,0.2-0.1,0.3-0.2c0.1-0.1,0.3-0.1,0.4-0.1h2.6c0.1,0,0.1,0,0.1,0.1v0.9c0,0.1,0,0.1-0.1,0.1h-2.3c-0.1,0-0.1,0-0.2,0.1
					c-0.1,0.1-0.1,0.1-0.1,0.2c0,0.1,0,0.1,0,0.2c0,0.1,0,0.1,0,0.2c0,0.1,0,0.2,0,0.3c0,0.1,0,0.2,0.1,0.2c0.1,0.1,0.1,0.1,0.2,0.1
					c0.1,0,0.2,0,0.3,0h0.9c0.2,0,0.3,0,0.5,0.1c0.2,0,0.3,0.1,0.5,0.3c0.1,0.1,0.2,0.2,0.2,0.3c0.1,0.1,0.1,0.2,0.1,0.3
					c0,0.1,0.1,0.2,0.1,0.4c0,0.1,0,0.3,0,0.4c0,0.1,0,0.1,0,0.2c0,0,0,0.1,0,0.1c0,0.5-0.2,0.9-0.5,1.1c-0.1,0.1-0.2,0.1-0.3,0.2
					c-0.1,0.1-0.3,0.1-0.4,0.1h-2.9c-0.1,0-0.1,0-0.1-0.1v-0.9c0-0.1,0-0.1,0.1-0.1h2.6c0.1,0,0.1,0,0.2-0.1
					c0.1-0.1,0.1-0.1,0.1-0.2c0-0.1,0-0.1,0-0.2c0-0.1,0-0.1,0-0.2c0-0.1,0-0.2,0-0.3c0-0.1,0-0.2-0.1-0.3c-0.1-0.1-0.1-0.1-0.2-0.1
					c-0.1,0-0.2,0-0.3,0H306.9z"/>
				<path class="st11" d="M312.7,178.3c0.1-0.2,0.2-0.3,0.3-0.4c0.2-0.1,0.4-0.1,0.7-0.1c0.3,0,0.5,0,0.7,0.1
					c0.2,0.1,0.3,0.2,0.4,0.4l1.6,5.2c0,0,0,0-0.1,0h-1c-0.1,0-0.1,0-0.1-0.1l-0.4-1.4c0-0.1,0-0.1-0.1-0.1h-1.9
					c-0.1,0-0.1,0-0.1,0.1l-0.4,1.4c0,0.1-0.1,0.1-0.1,0.1h-1c0,0-0.1,0-0.1,0L312.7,178.3z M313.9,179c0-0.1,0-0.1,0-0.1
					c0,0,0,0-0.1,0c0,0-0.1,0-0.1,0.1l-0.6,1.8c0,0,0,0,0,0c0,0,0,0,0,0c0,0,0,0.1,0.1,0.1h1.2c0,0,0.1,0,0.1-0.1c0,0,0,0,0,0
					c0,0,0,0,0,0L313.9,179z"/>
				<path class="st11" d="M318.2,177.8h3c0.2,0,0.3,0,0.4,0.1c0.1,0.1,0.3,0.2,0.4,0.3c0.2,0.3,0.4,0.6,0.4,1.1v0.2
					c0,0.5-0.1,0.8-0.2,1c-0.1,0.1-0.1,0.2-0.2,0.3c-0.1,0.1-0.2,0.2-0.3,0.2c0,0,0,0,0,0c0,0,0,0,0,0c0,0,0,0,0,0
					c0.1,0.2,0.2,0.3,0.3,0.4c0.1,0.1,0.1,0.2,0.1,0.4l0.4,1.3c0,0,0,0.1,0.1,0.1c0,0,0,0.1,0,0.1c0,0,0,0,0,0h-1.1
					c0,0-0.1,0-0.1-0.1c0-0.1-0.1-0.1-0.1-0.1l-0.5-1.4c-0.1-0.3-0.2-0.5-0.5-0.5h-1c-0.1,0-0.1,0-0.1,0.1v1.9c0,0.1,0,0.1-0.1,0.1
					h-1c-0.1,0-0.1,0-0.1-0.1L318.2,177.8C318.1,177.9,318.1,177.8,318.2,177.8z M319.3,178.9C319.3,178.9,319.3,178.9,319.3,178.9
					l-0.1,1.4c0,0.1,0,0.1,0.1,0.1h1.4c0.1,0,0.2,0,0.2-0.1c0.1-0.1,0.1-0.2,0.2-0.3c0-0.1,0.1-0.3,0.1-0.4c0-0.1,0-0.1,0-0.2
					c0-0.1,0-0.1-0.1-0.2c-0.1-0.2-0.2-0.3-0.3-0.3H319.3z"/>
				<path class="st11" d="M324.4,177.8h1c0.1,0,0.1,0,0.1,0.1v5.5c0,0.1,0,0.1-0.1,0.1h-1c0,0-0.1,0-0.1-0.1L324.4,177.8
					C324.3,177.9,324.3,177.8,324.4,177.8z"/>
				<path class="st11" d="M328.7,178.3c0.1-0.2,0.2-0.3,0.4-0.4c0.2-0.1,0.4-0.1,0.7-0.1c0.3,0,0.5,0,0.7,0.1
					c0.2,0.1,0.3,0.2,0.4,0.4l1.6,5.2c0,0,0,0-0.1,0h-1c-0.1,0-0.1,0-0.1-0.1l-0.4-1.4c0-0.1,0-0.1-0.1-0.1h-1.9
					c-0.1,0-0.1,0-0.1,0.1l-0.4,1.4c0,0.1,0,0.1-0.1,0.1h-1c0,0-0.1,0-0.1,0L328.7,178.3z M329.9,179c0-0.1,0-0.1,0-0.1
					c0,0,0,0-0.1,0c0,0-0.1,0-0.1,0.1l-0.6,1.8c0,0,0,0,0,0c0,0,0,0,0,0c0,0,0,0.1,0.1,0.1h1.2c0,0,0.1,0,0.1-0.1c0,0,0,0,0,0
					c0,0,0,0,0,0L329.9,179z"/>
				<path class="st11" d="M337.7,182.6v0.9c0,0.1,0,0.1-0.1,0.1h-2.2c0,0-0.1,0-0.1,0c0,0-0.1,0-0.1,0c-0.4,0-0.8-0.2-0.9-0.4
					c-0.2-0.2-0.3-0.6-0.3-1v-4.2c0-0.1,0-0.1,0.1-0.1h1c0.1,0,0.1,0,0.1,0.1v4.3c0,0.2,0.1,0.3,0.3,0.3L337.7,182.6
					C337.7,182.5,337.7,182.5,337.7,182.6z"/>
			</g>
			<g>
				<path class="st18" d="M226.5,150.9l3.6,11.8l0,0c0.3,0.8,1,1.3,1.9,1.3h9c0.9,0,1.5-0.6,1.5-1.5v-0.2l-6.7-21.9
					c-6.4,3.4-12.8,6.9-19.2,10.4H226.5z"/>
				<path class="st18" d="M196.3,164h8.9c0.9,0,1.6-0.5,1.9-1.4l2.4-7.9c-3.3,1.7-6.6,3.4-9.9,5.2c-1.7,0.9-3.3,1.9-4.9,2.8
					C194.8,163.3,195.3,164,196.3,164z"/>
				<path class="st18" d="M289.6,162.2c0,1,0.7,1.7,1.7,1.7h8.5c1,0,1.7-0.7,1.7-1.7V162c-4-5.2-7.9-10.5-12-15.6V162.2z"/>
				<path class="st18" d="M242.7,149c0.4,3.3,1.1,7.1,3.1,9.8c4.6,6,13.9,5.8,18.8,5.8c4.9,0,14.2,0.2,18.8-5.8
					c2.1-2.7,2.7-6.6,3.1-9.8c0.2-1.9,0.3-3.9,0.3-5.8c-2.3-3-4.5-6.1-7-8.9c-0.6-0.7-1.1-1-2.2-1c-0.9,0-1.8,0-2.8,0v13
					c0,2.2-0.3,3.8-0.9,4.8c-0.4,0.6-0.9,1.1-1.5,1.5c-0.3,0.2-0.7,0.3-1.1,0.4c-2.1,0.5-4.6,0.7-6.9,0.8c0,0-0.1,0-0.1,0
					c0,0-0.1,0-0.1,0c-2.3-0.1-4.7-0.2-6.9-0.8c-0.4-0.1-0.8-0.2-1.1-0.4c-0.6-0.4-1.1-0.9-1.5-1.5c-0.6-1-0.9-2.6-0.9-4.8v-12.9
					c-0.6,0-1.2,0-1.8,0c-1.8,0-3.5,0.3-5.3,1c-1.7,0.7-3.2,1.7-4.7,2.6c0,0.1,0,0.2,0,0.3C242.4,141.2,242.3,145.2,242.7,149z"/>
				<path class="st18" d="M309.4,145.9c0.6,0.1,2.2,0.4,3,3.4l4.3,12c0.1,0.4,0.4,0.9,0.7,1.5c0.2,0.3,0.8,1.2,1.8,1.2h9.4
					c0.8,0,1.5-0.6,1.5-1.4c0-0.4-0.2-0.8-0.6-1.3c-0.1-0.2-0.2-0.4-0.3-0.6l-2.2-6.8c-4.6-2.6-9.2-5.2-13.8-7.7
					c-7.3-4.1-14.7-8.1-22-12.2c-0.5-0.3-1.1-0.6-1.6-0.8v7.4c0.3,0.4,0.7,0.9,1,1.3c3.6,4.5,7.3,8.9,10.9,13.4v-9.4H309.4z"/>
				<path class="st18" d="M285.7,132.8c-1.9,0.3-2,0.3-0.8,1.9c0.7,0.9,1.3,1.8,2,2.7c0,0,0-0.1,0-0.1c0-1.5,0.1-3.1,0.1-4.6
					C286.6,132.6,286.1,132.7,285.7,132.8z"/>
				<path class="st18" d="M333.5,164h8.5c0.7,0,1.2-0.3,1.5-0.8c-3.3-2-6.6-3.7-10-5.6c-0.6-0.3-1.2-0.7-1.8-1v5.6
					C331.8,163.3,332.4,164,333.5,164z"/>
			</g>
		</g>
	</g>
	<g id="arrow_1" class="animated_1">
		<path class="st19" d="M531.4,236.5c-0.6,0-1.1-0.5-1.2-1.1c-2.5-45.8-17-90.3-42.1-128.7c-24.5-37.4-58.4-68.2-98-88.9
			c-0.6-0.3-0.8-1-0.5-1.6c0.3-0.6,1-0.8,1.6-0.5c39.9,20.9,74.1,51.9,98.8,89.6c25.3,38.7,40,83.6,42.5,129.8
			C532.5,235.9,532.1,236.4,531.4,236.5C531.4,236.4,531.4,236.5,531.4,236.5z"/>
		<polygon class="st17" points="0.6,407.9 13.2,400.4 0,392.8 		"/>
	</g>
	<g id="arrow_2" class="animated_2">
		<path class="st16" d="M514.1,307.6l-7-19.9l-14.7,14.9l9.6,2.2c-12.2,51.5-41.7,98.2-83.2,131.5c-20.8,16.7-44,29.6-68.9,38.6
			c-25.8,9.2-53,13.9-80.7,13.9c-14,0-28.1-1.2-41.7-3.6c-0.6-0.1-1.2,0.3-1.3,0.9c-0.1,0.6,0.3,1.2,0.9,1.3
			c13.8,2.4,28,3.7,42.1,3.7c28,0,55.4-4.7,81.4-14.1c25.2-9,48.6-22.1,69.6-39c41.9-33.6,71.8-80.8,84.1-132.8L514.1,307.6z"/>
	</g>
	<g id="arrow_3" class="animated_3">
	 	<path class="st17" d="M136.1,113.5c-0.3,0-0.6-0.1-0.8-0.4c-0.4-0.5-0.4-1.2,0-1.6c36.1-35,83.7-54.3,134-54.3
			c26.6,0,52.4,5.3,76.7,15.9c0.6,0.3,0.9,0.9,0.6,1.5c-0.3,0.6-0.9,0.9-1.5,0.6c-23.9-10.4-49.4-15.7-75.7-15.7
			c-49.7,0-96.7,19.1-132.3,53.6C136.7,113.4,136.4,113.5,136.1,113.5z"/>
		<polygon class="st20" points="348.5,67.7 339.2,79.1 354.3,81.6 		"/>
	</g>
	<g id="arrow_4" class="animated_4">
		<path class="st17" d="M14.1,131.5c-0.2,0-0.3,0-0.5-0.1c-0.6-0.3-0.9-0.9-0.6-1.5C36,76.5,77,32.3,128.7,5.4
			c0.6-0.3,1.3-0.1,1.6,0.5c0.3,0.6,0.1,1.3-0.5,1.6C78.6,34.1,37.9,77.9,15.2,130.8C15,131.2,14.6,131.5,14.1,131.5z"/>
		<polygon class="st20" points="125.8,0 132.7,12.9 140.9,0 		"/>
	</g>
	<g id="arrow_5" class="animated_5">
		<path class="st17" d="M140.2,526.9c-0.2,0-0.3,0-0.5-0.1c-56-26.2-102.3-68.2-133.9-121.5c-0.3-0.5-0.1-1.3,0.4-1.6
			c0.5-0.3,1.3-0.1,1.6,0.4c31.3,52.9,77.3,94.6,132.9,120.6c0.6,0.3,0.8,1,0.6,1.5C141.1,526.7,140.6,526.9,140.2,526.9z"/>
		<polygon class="st19" points="532.8,250.8 542.2,232.1 520,233.9"/>
	</g>
	<g id="arrow_6" class="animated_6">
		<path class="st6" d="M436.5,476.2c-0.4,0-0.7-0.2-1-0.5c-0.3-0.5-0.2-1.2,0.3-1.6c48.3-31.6,84.4-79.2,101.6-134.2
			c0.2-0.6,0.8-0.9,1.4-0.8c0.6,0.2,0.9,0.8,0.8,1.4C522.2,396,485.8,444.1,437.1,476C436.9,476.1,436.7,476.2,436.5,476.2z"/>
		<polygon class="st12" points="440.6,481.1 432.3,469 425.6,482.7 		"/>
	</g>
	<g id="arrow_7" class="animated_7">
		<path class="st19" d="M52.9,250.8c-0.6,0-1.2-0.5-1.2-1.2c0-12.5,1.1-25.1,3.2-37.3c8.6-49.9,34.7-95.5,73.5-128.5
			c39.2-33.3,89.2-51.7,140.8-51.7c50.4,0,99.5,17.6,138.3,49.7c0.5,0.4,0.6,1.1,0.2,1.6c-0.4,0.5-1.1,0.6-1.6,0.2
			c-38.4-31.7-87-49.1-136.9-49.1c-51,0-100.5,18.2-139.3,51.2c-38.4,32.6-64.2,77.8-72.7,127.1c-2.1,12.1-3.2,24.5-3.2,36.9
			C54,250.2,53.5,250.8,52.9,250.8z"/>
		<polygon class="st19" points="43.7,251.5 53.8,266.4 62.1,249.6 		"/>
	</g>
	<g id="arrow_8" class="animated_8">
		<path class="st15" d="M256.1,507.2c-56.6-2.8-109.5-23.6-152.9-60.2c-42.2-35.5-72.4-84.5-85-137.9l8.1-1.9l-13.3-14.5l-5.1,18.8
			l8.1-1.9c12.7,53.9,43.2,103.3,85.8,139.2c43.8,36.9,97.1,57.8,154.2,60.7c0,0,0,0,0.1,0c0.6,0,1.1-0.5,1.2-1.1
			C257.2,507.8,256.7,507.2,256.1,507.2z"/>
	</g>

</g>
</svg>
