<?xml version="1.0" encoding="utf-8"?>
<!-- Generator: Adobe Illustrator 16.0.0, SVG Export Plug-In . SVG Version: 6.00 Build 0)  -->
<!DOCTYPE svg PUBLIC "-//W3C//DTD SVG 1.1//EN" "http://www.w3.org/Graphics/SVG/1.1/DTD/svg11.dtd">
<?xml-stylesheet type="text/css" media="screen" href="../css/style.css"?>
<svg style="width:100%; height:100%;" version="1.1" id="Layer_1" xmlns="http://www.w3.org/2000/svg" xmlns:xlink="http://www.w3.org/1999/xlink" x="0px" y="0px"
	 width="761.013px" height="680.921px" viewBox="0 0 861.013 880.921" enable-background="new 0 0 881.013 800.921"
	 xml:space="preserve">
	 <style type="text/css">


	 /* SPIN */
	 @keyframes spin {
	   0% {
	     -webkit-transform: rotate(0deg);
	     -ms-transform: rotate(0deg);
	     transform: rotate(0deg);
			 transform-origin: 440px 410px;

	   }
	   100% {
	     -webkit-transform: rotate(359deg);
	     -ms-transform: rotate(359deg);
	     transform: rotate(359deg);
			 transform-origin: 440px 410px;
	   }
	 }

	 @keyframes spinn {
		 0% {
			 -webkit-transform: rotate(0deg);
			 -ms-transform: rotate(0deg);
			 transform: rotate(0deg);
			 transform-origin: 440px 410px;

		 }
		 100% {
			 -webkit-transform: rotate(-359deg);
			 -ms-transform: rotate(-359deg);
			 transform: rotate(-359deg);
			 transform-origin: 440px 410px;
		 }
	 }

	 .animated_1 {
	 	-webkit-animation: spin 1.6s linear;
	 	animation: spin 1.6s linear;
	 }
	 .animated_3 {
	 	-webkit-animation: spin 1.2s linear;
	 	animation: spin 1.2s linear;
	 }
	 .animated_4 {
		-webkit-animation: spin 2.4s linear;
		animation: spin 2.4s linear;
	 }
	 .animated_5 {
	 -webkit-animation: spin 1.7s linear;
	 animation: spin 1.7s linear;
	 }
	 .animated_6 {
	   -webkit-animation: spin 2s linear;
	   animation: spin 2s linear;
	 }
	 .animated_2 {
	 	-webkit-animation: spinn 2.2s linear;
	 	animation: spinn 2.2s linear;
	 }
	 .animated_7 {
	 	-webkit-animation: spinn 1.2s linear;
	 	animation: spinn 1.2s linear;
	 }
	 .animated_8 {
	 -webkit-animation: spin 2.2s linear;
	 animation: spin 2.2s linear;
	 }
//380.5065  340.4605
	</style>
//--------------------------------------Flechas--------------------

<g id="arrow_1" class="animated_1">
	<path fill="#D9E4E8" d="M745.529,385.466c-0.715,0-1.311-0.559-1.35-1.28c-2.887-53.723-19.961-105.877-49.379-150.827
		c-28.717-43.878-68.42-79.889-114.818-104.137c-0.662-0.346-0.92-1.163-0.572-1.826c0.346-0.661,1.168-0.917,1.826-0.571
		c46.807,24.461,86.859,60.788,115.83,105.053c29.678,45.348,46.904,97.966,49.816,152.163c0.039,0.746-0.533,1.384-1.279,1.424
		C745.578,385.465,745.554,385.466,745.529,385.466z"/>
	<polygon fill-rule="evenodd" clip-rule="evenodd" fill="#D9E4E8" points="747.269,402.236 758.248,380.337 732.273,382.505"/>
</g>
<g id="arrow_2" class="animated_2">
	<path opacity="0.75" fill="#005CFF" d="M725.287,468.908l-8.215-23.381l-17.17,17.464l11.301,2.634
		c-14.266,60.354-48.906,115.075-97.572,154.114c-24.35,19.531-51.531,34.748-80.791,45.223
		c-30.273,10.84-62.082,16.336-94.537,16.336c-16.42,0-32.881-1.432-48.926-4.254c-0.742-0.127-1.436,0.363-1.568,1.098
		c-0.129,0.736,0.363,1.439,1.1,1.568c16.197,2.85,32.816,4.293,49.395,4.293c32.768,0,64.883-5.549,95.451-16.494
		c29.541-10.576,56.986-25.938,81.57-45.658c49.137-39.416,84.111-94.67,98.514-155.611L725.287,468.908z"/>
</g>
<g id="arrow_3" class="animated_3">
	<path fill="#00429B" d="M282.245,241.368c-0.353,0-0.706-0.138-0.972-0.411c-0.52-0.536-0.507-1.393,0.03-1.914
		c42.295-41.038,98.052-63.64,156.999-63.64c31.225,0,61.457,6.263,89.857,18.615c0.684,0.298,0.998,1.096,0.699,1.782
		c-0.297,0.685-1.092,0.998-1.781,0.7c-28.055-12.203-57.924-18.392-88.775-18.392c-58.24,0-113.328,22.33-155.115,62.877
		C282.925,241.241,282.584,241.368,282.245,241.368z"/>
	<polygon fill-rule="evenodd" clip-rule="evenodd" fill="#00429B" points="531.226,187.707 520.351,201.056 538.021,204.027 		"/>
</g>
<g id="arrow_4" class="animated_4">
	<path fill="#00429B" d="M139.304,262.451c-0.178,0-0.358-0.035-0.533-0.11c-0.686-0.294-1.004-1.09-0.709-1.777
		c26.856-62.616,74.998-114.409,135.555-145.838c0.665-0.345,1.48-0.085,1.825,0.577c0.345,0.664,0.085,1.48-0.577,1.825
		c-60.004,31.142-107.704,82.46-134.316,144.504C140.329,262.144,139.83,262.451,139.304,262.451z"/>
	<polygon fill-rule="evenodd" clip-rule="evenodd" fill="#00429B" points="270.186,108.34 278.33,123.512 287.865,108.34 		"/>
</g>
<g id="arrow_5" class="animated_5">
	<polygon fill-rule="evenodd" clip-rule="evenodd" fill="#00429B" points="123.411,586.357 138.274,577.666 122.765,568.691 		"/>
	<path fill="#00429B" d="M287.092,725.918c-0.192,0-0.387-0.041-0.573-0.127c-65.637-30.715-119.889-79.963-156.892-142.422
		c-0.382-0.643-0.169-1.473,0.475-1.854c0.641-0.381,1.473-0.168,1.854,0.475c36.725,61.988,90.569,110.865,155.712,141.35
		c0.677,0.316,0.969,1.121,0.651,1.799C288.089,725.629,287.602,725.918,287.092,725.918z"/>
</g>
<g id="arrow_6" class="animated_6">
	<path fill="#292929" d="M634.318,666.459c-0.441,0-0.873-0.215-1.133-0.611c-0.41-0.625-0.234-1.465,0.391-1.873
		c56.574-37.014,98.877-92.863,119.121-157.266c0.225-0.711,0.979-1.109,1.697-0.885c0.711,0.225,1.107,0.984,0.885,1.697
		c-20.432,64.996-63.127,121.363-120.221,158.717C634.83,666.389,634.574,666.459,634.318,666.459z"/>
	<polygon fill-rule="evenodd" clip-rule="evenodd" fill="#292929" points="639.113,672.246 629.484,657.971 621.523,674.021 		"/>
</g>
<g id="arrow_7" class="animated_7">
	<path fill="#D9E4E8" d="M184.75,402.236c-0.747,0-1.354-0.606-1.354-1.354c0-14.677,1.259-29.394,3.74-43.741
		c10.108-58.452,40.707-111.922,86.161-150.561c45.976-39.082,104.575-60.605,165.005-60.605
		c59.076,0,116.66,20.673,162.145,58.209c0.576,0.476,0.658,1.327,0.182,1.905c-0.475,0.574-1.326,0.657-1.904,0.182
		c-45-37.137-101.973-57.589-160.422-57.589c-59.789,0-117.765,21.295-163.252,59.961c-44.972,38.229-75.247,91.13-85.247,148.959
		c-2.455,14.196-3.7,28.758-3.7,43.28C186.103,401.629,185.497,402.236,184.75,402.236z"/>
	<polygon fill-rule="evenodd" clip-rule="evenodd" fill="#D9E4E8" points="173.97,403.062 185.771,420.56 195.529,400.884 		"/>
</g>
<g id="arrow_8" class="animated_8">
	<path opacity="0.75" fill-rule="evenodd" clip-rule="evenodd" fill="#005CFF" d="M422.927,702.789
		c-66.333-3.324-128.282-27.707-179.147-70.514c-49.501-41.658-84.894-99.057-99.677-161.643l9.444-2.172l-15.625-17.008
		l-6.005,21.981l9.548-2.194c14.914,63.155,50.625,121.073,100.571,163.106c51.322,43.191,113.826,67.793,180.756,71.145
		c0.023,0.002,0.045,0.004,0.068,0.004c0.717,0,1.314-0.562,1.35-1.287C424.25,703.461,423.673,702.826,422.927,702.789z"/>
</g>

//-------------------------------------------------------------------
<g>
	<g>
		<g>
			<path fill="#FFEDE1" d="M548.317,378.182c10.881,11.112,10.695,28.964-0.43,39.847l-53.471,52.329
				c-11.123,10.882-28.969,10.689-39.854-0.437l-4.803-4.91c-10.875-11.129-10.697-28.967,0.426-39.845l53.469-52.338
				c11.133-10.881,28.965-10.683,39.842,0.436L548.317,378.182z"/>
			<path fill="#FFE6CA" d="M497.852,429.879c11.223,12.058,10.861,29.22-1.189,40.441l-37.012,36.222
				c-18.723-19.43-29.463-33.102-45.611-48.977l36.383-34.65c12.055-11.22,31.242-10.407,42.467,1.649L497.852,429.879z"/>
			<polygon fill="#FFFFFF" points="538.862,442.688 517.495,463.605 457.428,402.237 478.801,381.316 			"/>
			<polygon fill="#CCCCCC" points="530.303,451.065 527.036,454.271 466.975,392.894 470.245,389.7 			"/>
			<polygon fill="#B4BFC8" points="629.6,356.296 531.602,453.277 468.071,388.358 566.086,291.387 			"/>
			<path fill="#E5BC9C" d="M459.274,425.238c3.031,3.136,2.953,8.127-0.178,11.167l-53.752,51.315
				c-3.131,3.033-8.123,2.947-11.164-0.188l0,0c-3.031-3.126-2.947-8.128,0.189-11.145l53.748-51.327
				C451.25,422.032,456.241,422.107,459.274,425.238L459.274,425.238z"/>
			<path fill="#FFE6CA" d="M468.545,438.706c3.092,3.069,3.121,8.062,0.043,11.163l-52.732,52.354
				c-3.074,3.098-8.07,3.113-11.164,0.047l0,0c-3.086-3.07-3.111-8.067-0.039-11.162l52.742-52.367
				C460.459,435.655,465.448,435.632,468.545,438.706L468.545,438.706z"/>
			<path fill="#FFE6CA" d="M482.102,449.218c3.094,3.07,3.105,8.062,0.039,11.158l-52.742,52.37
				c-3.062,3.08-8.059,3.113-11.152,0.021l0,0c-3.084-3.059-3.105-8.055-0.039-11.148l52.732-52.36
				C474.014,446.165,479.01,446.147,482.102,449.218L482.102,449.218z"/>
			<path fill="#FFE6CA" d="M503.27,452.798c3.072,3.1,2.816,8.317-0.557,11.656l-57.881,56.538
				c-3.381,3.346-8.596,3.535-11.662,0.432l0,0c-3.066-3.08-2.818-8.305,0.557-11.645l57.885-56.546
				C494.981,449.894,500.2,449.7,503.27,452.798L503.27,452.798z"/>
			<path fill="#FFE6CA" d="M440.504,442.907c6.688,6.839,9.383,12.417,16.195,5.745c6.82-6.684,13.986-17.376,7.479-24.381
				c-12.689-13.678-18.199,0.582-32.527-1.438C422.209,421.501,433.819,436.083,440.504,442.907z"/>
			<path fill="#363651" d="M515.422,456.336c1.08,1.099,2.854,1.113,3.965,0.045c1.098-1.089,1.119-2.858,0.033-3.966
				c-1.074-1.114-2.852-1.129-3.969-0.053C514.348,453.455,514.329,455.223,515.422,456.336z"/>
			<polygon fill="#CCCCCC" points="517.469,463.631 515.299,465.753 455.233,404.386 457.407,402.258 			"/>
			<path fill="#FFD8B8" d="M339.943,384.19c-9.928,11.979-8.269,29.729,3.717,39.67l57.589,47.751
				c11.98,9.934,29.742,8.279,39.664-3.7l4.402-5.304c9.932-11.984,8.27-29.735-3.707-39.67l-57.592-47.758
				c-11.975-9.936-29.731-8.272-39.671,3.696L339.943,384.19z"/>
			<path fill="#FFD6A7" d="M394.499,431.57c-10.186,12.926-8.426,29.991,4.506,40.193l39.881,33.061
				c17.055-20.904,26.615-35.415,41.41-52.557l-39.105-31.553c-12.934-10.194-31.984-7.8-42.186,5.121L394.499,431.57z"/>
			<polygon fill="#FFFFFF" points="354.675,447.713 377.694,466.789 432.504,400.681 409.481,381.595 			"/>
			<polygon fill="#CCCCCC" points="363.897,455.345 367.411,458.257 422.237,392.16 418.704,389.226 			"/>
			<polygon fill="#00429B" points="251.413,362.511 362.792,457.638 420.758,387.724 309.382,292.591 			"/>
			<path fill="#FFD6A7" d="M432.563,423.763c-2.764,3.368-2.277,8.334,1.098,11.097l57.789,46.733
				c3.369,2.771,8.332,2.269,11.1-1.105l0,0c2.771-3.363,2.281-8.339-1.094-11.098l-57.789-46.725
				C440.29,419.914,435.329,420.395,432.563,423.763L432.563,423.763z"/>
			<path fill="#FFD6A7" d="M424.428,437.939c-2.842,3.326-2.443,8.294,0.879,11.123l56.863,47.846
				c3.312,2.841,8.297,2.443,11.117-0.868l0,0c2.824-3.317,2.436-8.298-0.873-11.121l-56.859-47.864
				C432.245,434.242,427.254,434.626,424.428,437.939L424.428,437.939z"/>
			<path fill="#FFD6A7" d="M411.784,449.533c-2.83,3.322-2.441,8.297,0.873,11.127l56.871,47.85
				c3.312,2.83,8.297,2.434,11.125-0.887l0,0c2.814-3.305,2.428-8.286-0.893-11.112l-56.854-47.859
				C419.598,445.827,414.614,446.222,411.784,449.533L411.784,449.533z"/>
			<path fill="#FFD6A7" d="M390.985,454.836c-2.801,3.339-2.125,8.52,1.518,11.573l62.33,51.598
				c3.635,3.039,8.855,2.814,11.652-0.527l0,0c2.807-3.342,2.131-8.516-1.514-11.564l-62.336-51.602
				C399.004,451.26,393.788,451.495,390.985,454.836L390.985,454.836z"/>
			<path fill="#363651" d="M379.168,459.366c-1,1.182-2.758,1.348-3.943,0.364c-1.205-0.988-1.355-2.757-0.377-3.951
				c0.996-1.186,2.762-1.359,3.947-0.367C379.999,456.403,380.149,458.175,379.168,459.366z"/>
			<polygon fill="#CCCCCC" points="377.719,466.8 380.053,468.75 434.872,402.637 432.536,400.701 			"/>
			<path fill="#FFE6CA" d="M466.528,427.709c-0.613,3.909-4.273,6.586-8.174,5.965l-29.779-4.817
				c-3.91-0.624-6.566-4.292-5.967-8.185l0,0c0.623-3.907,4.285-6.587,8.186-5.963l29.793,4.832
				C464.487,420.152,467.151,423.819,466.528,427.709L466.528,427.709z"/>
			<path fill="#FFE6CA" d="M431.528,414.99c3.82,1.059,6.047,4.997,4.994,8.801l-8.158,29.051c-1.053,3.814-5.004,6.046-8.803,4.988
				l0,0c-3.818-1.057-6.055-4.988-5-8.809l8.162-29.034C423.782,416.17,427.717,413.942,431.528,414.99L431.528,414.99z"/>
			<path fill="#FFE6CA" d="M453.321,501.428c3.068,3.094,2.814,8.312-0.551,11.652l-7.938,7.912
				c-3.381,3.346-8.596,3.535-11.662,0.432l0,0c-3.066-3.08-2.818-8.305,0.557-11.645l7.93-7.926
				C445.04,498.521,450.25,498.321,453.321,501.428L453.321,501.428z"/>
			<path fill="#FFE6CA" d="M438.211,492.873c3.074,3.089,2.814,8.305-0.555,11.649l-7.932,7.914
				c-3.377,3.34-8.594,3.533-11.664,0.434l0,0c-3.062-3.09-2.807-8.314,0.561-11.65l7.943-7.922
				C429.924,489.964,435.143,489.763,438.211,492.873L438.211,492.873z"/>
			<path fill="#FFE6CA" d="M424.661,482.342c3.068,3.106,2.812,8.316-0.561,11.659l-7.932,7.924
				c-3.373,3.338-8.594,3.529-11.654,0.43l0,0c-3.082-3.094-2.816-8.314,0.553-11.653l7.943-7.918
				C416.37,479.453,421.586,479.253,424.661,482.342L424.661,482.342z"/>
			<path fill="#FFE6CA" d="M414.258,467.954c3.072,3.102,2.814,8.309-0.559,11.659l-7.941,7.92
				c-3.357,3.334-8.588,3.527-11.645,0.43l0,0c-3.072-3.098-2.814-8.317,0.557-11.646l7.93-7.919
				C405.977,465.054,411.184,464.853,414.258,467.954L414.258,467.954z"/>
		</g>
	</g>
	<g>
		<rect x="392.329" y="641.111" fill-rule="evenodd" clip-rule="evenodd" fill="#404041" width="94.027" height="2.4"/>
		<g>
			<path fill="#404041" d="M427.268,582.885l-1.344-6.094l23.779-5.248l-28.381,22.459l11.93,0.885
				c1.459-1.443,3.283-2.439,5.475-2.99c5.561-1.393,8.867,0.305,9.924,5.088c0.828,3.76-0.668,6.385-4.482,7.879h31.967
				c0.434-2.848,0.246-6.098-0.561-9.756c-2.33-10.549-11.502-14.055-27.525-10.52l-1.781,0.395l21.748-17.48l-3.637-16.482
				l-62.057,13.693l4.982,22.576L427.268,582.885z"/>
			<path fill="#404041" d="M430.981,599.697l-0.209-0.945l-21.746,4.801c-0.033,0.438-0.057,0.873-0.074,1.311h25.139
				C432.549,603.834,431.512,602.113,430.981,599.697z"/>
		</g>
		<g>
			<polygon fill="#404041" points="453.344,648.359 451.29,645.354 451.059,645.354 451.059,650.502 451.317,650.502
				451.317,645.834 453.262,648.695 453.434,648.695 455.377,645.834 455.377,650.502 455.633,650.502 455.633,645.354
				455.405,645.354 			"/>
			<path fill="#404041" d="M457.907,645.281l-2.088,5.221h0.281l0.688-1.68h2.453l0.695,1.68h0.281l-2.088-5.221H457.907z
				 M456.895,648.568l1.119-2.859l1.125,2.859H456.895z"/>
			<path fill="#404041" d="M462.227,648.422c0.492,0,0.904-0.166,1.193-0.479c0.258-0.279,0.4-0.656,0.4-1.057
				c0-0.74-0.498-1.533-1.594-1.533h-1.818v5.148h0.258v-4.887h1.561c0.918,0,1.334,0.662,1.334,1.275
				c0,0.336-0.115,0.646-0.33,0.879c-0.242,0.26-0.588,0.4-1.004,0.4h-1.053v0.211l2.367,2.121h0.393l-2.326-2.08H462.227z"/>
			<rect x="464.211" y="645.359" fill="#404041" width="0.258" height="5.143"/>
			<polygon fill="#404041" points="467.92,648.059 470.534,648.059 470.534,647.797 467.92,647.797 467.92,645.615 470.59,645.615
				470.59,645.359 467.657,645.359 467.657,650.428 467.657,650.443 464.772,647.92 467.401,645.359 467.043,645.359
				464.487,647.84 464.487,648.018 467.313,650.484 467.334,650.502 467.67,650.502 467.725,650.502 470.608,650.502
				470.608,650.248 467.92,650.248 			"/>
			<polygon fill="#404041" points="470.708,645.615 472.456,645.615 472.456,650.523 472.713,650.523 472.713,645.615
				474.459,645.615 474.459,645.354 470.708,645.354 			"/>
			<polygon fill="#404041" points="474.508,645.607 475.581,645.607 475.581,650.248 474.508,650.248 474.508,650.502
				476.915,650.502 476.915,650.248 475.84,650.248 475.84,645.607 476.915,645.607 476.915,645.359 474.508,645.359 			"/>
			<polygon fill="#404041" points="480.665,649.992 477.442,645.383 477.422,645.355 477.206,645.34 477.206,650.502
				477.471,650.502 477.471,645.893 480.692,650.502 480.922,650.502 480.922,645.354 480.665,645.354 			"/>
			<path fill="#404041" d="M483.829,648.332v0.262h2.211c-0.215,0.932-1.193,1.705-2.182,1.705c-0.611,0-1.188-0.25-1.621-0.701
				c-0.428-0.445-0.666-1.037-0.666-1.664c0-0.619,0.238-1.209,0.666-1.662c0.439-0.453,1.016-0.699,1.621-0.699
				c0.936,0,1.748,0.543,2.074,1.381L485.95,647h0.279l-0.033-0.096c-0.334-0.953-1.271-1.596-2.338-1.596
				c-0.686,0-1.328,0.275-1.809,0.773c-0.48,0.506-0.744,1.164-0.744,1.852c0,0.699,0.264,1.355,0.744,1.854
				c0.486,0.502,1.129,0.779,1.809,0.779c0.979,0,2.039-0.734,2.363-1.633c0.074-0.182,0.115-0.352,0.129-0.52l0.006-0.082H483.829z
				"/>
		</g>
		<g>
			<rect x="392.329" y="606.285" fill-rule="evenodd" clip-rule="evenodd" fill="#404041" width="94.027" height="2.4"/>
		</g>
		<g>
			<path fill="#404041" d="M412.84,634.602c-0.207-0.178-0.424-0.346-0.654-0.514c-0.268-0.809-0.525-1.615-0.775-2.422
				c-0.248-0.809-0.518-1.627-0.809-2.455c-0.289-0.809-0.553-1.621-0.791-2.439c-0.238-0.816-1.373-4.012-1.414-4.363
				c0.215-0.576,0.422-1.109,0.625-1.602l2.359-5.248c0.293-0.359,0.652-0.645,1.086-0.855v-2.205h-3.012l-4.48,11.303
				c-0.004,0-0.012,0.002-0.016,0.002v-0.086c0.016-0.145,0.018-0.273,0-0.381v-0.926c0.014-0.062,0.014-0.133,0-0.219v-6.449
				c0.104-0.219,0.275-0.4,0.518-0.543c0.248-0.143,0.424-0.373,0.529-0.682c0.082-0.291,0.088-0.596,0.016-0.918
				c-0.072-0.32-0.078-0.688-0.016-1.102h-5.033v2.205c0.383,0.301,0.725,0.646,1.029,1.027v7.088l-1.176,1.336l0.18,0.158
				c0.107,0.137,0.275,0.287,0.512,0.457c0.256,0.186,0.428,0.434,0.512,0.744c0.102,0.414,0.129,1.006,0.078,1.771
				c-0.053,0.766-0.078,1.553-0.078,2.361c0,0.787,0.025,1.574,0.078,2.359c0.051,0.789,0.023,1.42-0.078,1.896
				c-0.084,0.289-0.26,0.531-0.529,0.729s-0.445,0.357-0.527,0.482v2.205h5.033c-0.062-0.412-0.057-0.781,0.016-1.104
				c0.072-0.32,0.066-0.625-0.016-0.914c-0.105-0.312-0.281-0.551-0.529-0.715c-0.246-0.168-0.424-0.363-0.527-0.59
				c0.062-0.727,0.051-1.404-0.031-2.035c-0.084-0.633-0.072-1.25,0.031-1.85c0.041-0.268,0.129-0.543,0.264-0.822
				c0.135-0.281,0.275-0.553,0.42-0.824c0.145-0.27,0.283-0.531,0.42-0.793c0.135-0.258,0.682-1.359,0.715-1.258
				c0.051,0.166,0.195,0.914,0.248,1.057c0.051,0.145,1.236,3.93,1.693,5.391c0.453,1.461,0.91,2.945,1.365,4.457h3.449v-2.205
				C413.276,634.947,413.047,634.777,412.84,634.602z"/>
			<path fill="#1A1A1A" d="M428.047,634.555c-0.156-0.207-0.326-0.395-0.514-0.559c0-0.354-0.584-3.334-0.699-3.852
				c-0.115-0.52-0.201-1.068-0.264-1.648c-0.104-0.061-0.518-2.537-0.559-2.703s-0.062-0.326-0.062-0.48
				c0-0.156,0.756-1.34,0.775-1.568c-0.268-0.104-0.49-0.25-0.668-0.436c-0.176-0.186-0.355-0.371-0.543-0.559
				c-0.248-1.223-0.49-2.439-0.729-3.65c-0.24-1.211-0.473-2.438-0.699-3.682c0.393-0.207,0.615-0.586,0.668-1.135
				c0.051-0.549,0.066-1.145,0.045-1.785h-5.031v2.111c0.082,0.186,0.205,0.326,0.373,0.42c0.164,0.094,0.27,0.254,0.309,0.482
				c-0.246,1.242-0.48,2.459-0.697,3.648c-0.217,1.191-0.451,2.451-0.699,3.777c-0.209,0.143-0.416,0.277-0.621,0.402
				c-0.209,0.125-0.385,0.279-0.529,0.465c0.104,0.271,0.238,0.502,0.404,0.699s0.26,0.441,0.281,0.732
				c0.039,0.227,0,0.516-0.125,0.869c-0.123,0.35-0.197,0.682-0.217,0.994c0,0.061-0.205,0.943-0.25,1.303
				c-0.104,0.934-0.27,1.838-0.496,2.721c-0.229,0.879-0.395,1.836-0.498,2.873c-0.227,0.164-0.414,0.352-0.559,0.559
				c-0.146,0.207-0.342,0.393-0.59,0.559v2.205h5.064c-0.062-0.412-0.059-0.797,0.014-1.148s0.068-0.674-0.014-0.963
				c-0.043-0.166-0.121-0.301-0.236-0.404c-0.111-0.104-0.227-0.201-0.34-0.295c-0.115-0.094-0.223-0.182-0.326-0.264
				c-0.105-0.084-0.166-0.197-0.186-0.342c0.123-0.289,0.189-0.627,0.199-1.012c0.012-0.381,0.1-0.699,0.268-0.945
				c0.205-0.02,0.439-0.02,0.697,0c0.26,0.021,0.514,0.037,0.762,0.045c0.248,0.012,1.947,0.016,2.609-0.045
				c-0.021,0.352,0.031,0.693,0.156,1.023c0.123,0.334,0.152,0.645,0.092,0.934c-0.062,0.289-0.213,0.516-0.451,0.684
				c-0.236,0.164-0.408,0.371-0.512,0.621v2.111h4.939v-2.205C428.383,634.947,428.202,634.762,428.047,634.555z M422.127,628.682
				c-0.578,0.023-1.045,0.023-1.396,0c0.039-0.516,0.109-1.004,0.201-1.459c0.094-0.455,0.41-2.613,0.451-2.811
				s0.082-0.398,0.125-0.607c0-0.061,0.098-0.693,0.17-1.025c0.07-0.33,0.135-0.678,0.186-1.041
				c0.053-0.361,0.098-0.719,0.141-1.068c0.041-0.354,0.113-0.686,0.217-0.996c0.188,0.498,0.311,1.078,0.373,1.74
				s0.451,2.705,0.527,3.168c0.084,0.496,0.664,3.914,0.623,4.1C423.249,628.662,422.708,628.662,422.127,628.682z"/>
			<path fill="#1A1A1A" d="M463.35,634.555c-0.156-0.207-0.328-0.395-0.514-0.559c0-0.354-0.586-3.334-0.699-3.852
				c-0.115-0.52-0.203-1.068-0.266-1.648c-0.102-0.061-0.516-2.537-0.557-2.703c-0.043-0.166-0.062-0.326-0.062-0.48
				c0-0.156,0.756-1.34,0.777-1.568c-0.271-0.104-0.494-0.25-0.67-0.436s-0.357-0.371-0.543-0.559
				c-0.25-1.223-0.492-2.439-0.73-3.65s-0.471-2.438-0.699-3.682c0.393-0.207,0.617-0.586,0.668-1.135s0.068-1.145,0.049-1.785
				h-5.035v2.111c0.082,0.186,0.207,0.326,0.375,0.42c0.162,0.094,0.266,0.254,0.309,0.482c-0.248,1.242-0.482,2.459-0.697,3.648
				c-0.217,1.191-0.451,2.451-0.701,3.777c-0.205,0.143-0.412,0.277-0.621,0.402c-0.207,0.125-0.383,0.279-0.527,0.465
				c0.104,0.271,0.238,0.502,0.404,0.699c0.164,0.197,0.258,0.441,0.279,0.732c0.041,0.227,0,0.516-0.125,0.869
				c-0.123,0.35-0.197,0.682-0.217,0.994c0,0.061-0.203,0.943-0.248,1.303c-0.105,0.934-0.27,1.838-0.498,2.721
				c-0.229,0.879-0.395,1.836-0.498,2.873c-0.227,0.164-0.414,0.352-0.559,0.559c-0.143,0.207-0.34,0.393-0.59,0.559v2.205h5.064
				c-0.062-0.412-0.057-0.797,0.016-1.148s0.066-0.674-0.016-0.963c-0.043-0.166-0.119-0.301-0.232-0.404
				c-0.115-0.104-0.229-0.201-0.342-0.295c-0.115-0.094-0.223-0.182-0.328-0.264c-0.102-0.084-0.166-0.197-0.184-0.342
				c0.123-0.289,0.191-0.627,0.199-1.012c0.012-0.381,0.102-0.699,0.266-0.945c0.207-0.02,0.439-0.02,0.697,0
				c0.26,0.021,0.514,0.037,0.76,0.045c0.252,0.012,1.949,0.016,2.611-0.045c-0.02,0.352,0.033,0.693,0.156,1.023
				c0.123,0.334,0.154,0.645,0.094,0.934c-0.062,0.289-0.215,0.516-0.453,0.684c-0.238,0.164-0.406,0.371-0.51,0.621v2.111h4.938
				v-2.205C463.684,634.947,463.504,634.762,463.35,634.555z M457.428,628.682c-0.578,0.023-1.043,0.023-1.396,0
				c0.043-0.516,0.111-1.004,0.203-1.459c0.094-0.455,0.408-2.613,0.451-2.811c0.039-0.197,0.08-0.398,0.123-0.607
				c0-0.061,0.098-0.693,0.17-1.025c0.074-0.33,0.137-0.678,0.188-1.041c0.053-0.361,0.098-0.719,0.141-1.068
				c0.041-0.354,0.113-0.686,0.219-0.996c0.184,0.498,0.309,1.078,0.371,1.74c0.061,0.662,0.451,2.705,0.527,3.168
				c0.084,0.496,0.662,3.914,0.623,4.1C458.547,628.662,458.01,628.662,457.428,628.682z"/>
			<g>
				<path fill="#1A1A1A" d="M434.026,624.955c0.062,0.061,0.113,0.084,0.154,0.061c0.043-0.02,0.062-0.045,0.062-0.076
					s-0.02-0.057-0.062-0.076C434.139,624.842,434.088,624.873,434.026,624.955z"/>
				<path fill="#1A1A1A" d="M434.415,615.217c0.219-0.113,0.377-0.283,0.482-0.514v-2.205h-4.939v2.205
					c0.186,0.146,0.355,0.301,0.512,0.467c0.154,0.166,0.305,0.33,0.451,0.494c0.039,0.521,0.057,1.059,0.047,1.619
					c-0.012,0.559-0.031,1.117-0.062,1.676c-0.031,0.561-0.053,1.109-0.064,1.646c-0.01,0.541,0.018,1.045,0.08,1.521
					c0.02,0.125,0.035,0.238,0.047,0.342c0.01,0.105-0.057,0.498-0.141,0.623c-0.084,0.123-0.166,0.248-0.248,0.373
					c-0.104,0.123-0.201,0.246-0.295,0.371s-0.203,0.24-0.326,0.344v0.092c0.164,0.186,0.346,0.338,0.543,0.451
					s0.336,0.316,0.42,0.605c0.061,0.229,0.088,0.48,0.078,0.762c-0.012,0.279-0.078,7.998-0.078,7.998
					c-0.168,0.168-0.322,0.336-0.467,0.514c-0.146,0.176-0.311,0.346-0.496,0.512v2.205h4.939v-2.111
					c-0.105-0.27-0.25-0.488-0.436-0.652c-0.186-0.166-0.361-0.352-0.529-0.559c0-0.539-0.004-1.135-0.016-1.789
					c-0.01-0.65-0.004-1.174,0.016-1.566c0-0.082-0.02-0.838,0-0.902c0.021-0.352,0.027-0.715,0.018-1.088
					c-0.012-0.373-0.027-0.734-0.049-1.086c-0.02-0.352-0.029-0.684-0.029-0.994s0.02-0.58,0.061-0.809
					c-0.02-0.102,0.902-1.449,0.965-1.49c-0.084-0.289-0.225-0.527-0.42-0.715c-0.197-0.188-0.377-0.395-0.545-0.619
					c0,0,0.084-3.424,0.062-3.809c-0.02-0.381-0.045-0.77-0.078-1.164c-0.029-0.393-0.055-0.77-0.076-1.135
					c-0.021-0.361,0.01-0.686,0.092-0.979C434.036,615.541,434.198,615.332,434.415,615.217z"/>
			</g>
			<path fill="#1A1A1A" d="M448.411,623.604c-0.207-0.176-0.373-0.389-0.498-0.637c0.039-1.283,0.039-2.527,0-3.729
				c-0.041-1.199-0.201-2.273-0.48-3.215c-0.281-0.941-0.727-1.725-1.338-2.346c-0.609-0.621-1.475-0.994-2.594-1.117
				c-0.932-0.105-1.939-0.109-3.027-0.016c-1.088,0.092-2.201,0.098-3.342,0.016v2.205c0.207,0.168,0.395,0.338,0.561,0.512
				c0.166,0.178,0.332,0.357,0.498,0.545c0.061,1.057,0.061,2.148,0,3.277c-0.062,1.129-0.062,2.182,0,3.152
				c0.02,0.105,0.02,0.223,0,0.357c-0.023,0.135-1.039,1.236-1.059,1.6v0.094c0.127,0.084,0.234,0.166,0.328,0.248
				c0.092,0.082,0.191,0.176,0.293,0.279c0.043,0.043,0.09,0.09,0.141,0.141c0.053,0.051,0.098,0.088,0.141,0.107
				c0.082,0.084,0.129,0.131,0.141,0.141c0.01,0.012,0.031,0.316,0,0.357c-0.031,0.043-0.027,0.113,0.016,0.217v3.979
				c0,0.723,0.029,1.453,0.092,2.189c0.062,0.734,0.031,1.352-0.092,1.848c-0.062,0.291-0.213,0.533-0.453,0.73
				c-0.238,0.195-0.439,0.387-0.605,0.574v2.205h3.355h2.486c0.684-0.082,1.291-0.238,1.816-0.465
				c0.529-0.229,1.01-0.518,1.447-0.871c0.4-0.357,0.984-1.553,1.07-1.771c0.072-0.102,0.119-0.236,0.141-0.402
				c0.125-0.336,0.344-1.428,0.34-1.693c0.021-0.072,0.031-0.18,0.031-0.326c-0.02-0.062,0.043-1.154,0.062-1.66
				c0.02-0.51,0.031-1.033,0.031-1.57c0-0.539-0.012-1.082-0.031-1.631s-0.01-1.072,0.031-1.568
				c0.166-0.166,0.314-0.348,0.451-0.543c0.135-0.197,0.305-0.369,0.512-0.514C448.772,624.014,448.616,623.781,448.411,623.604z
				 M444.87,622.92c-0.043,0.156-0.105,0.285-0.188,0.389c-0.082,0.105-0.178,0.201-0.279,0.295
				c-0.105,0.094-0.197,0.201-0.281,0.326c0.043,0.127,0.736,1.377,0.777,1.523c-0.104,0.621,0.049,3.639,0.078,4.395
				c0.031,0.756,0.012,1.455-0.061,2.098c-0.074,0.641-0.285,1.148-0.639,1.521c-0.291,0.332-0.719,0.529-1.289,0.592
				c-0.57,0.061-1.195,0.041-1.881-0.062c0.062-0.643,0.084-1.33,0.062-2.066c-0.02-0.736-0.051-1.471-0.092-2.207
				c-0.041-0.734-0.068-1.453-0.08-2.158c-0.01-0.705,0.027-1.355,0.109-1.957c0.027-0.139,0.064-0.252,0.113-0.346
				c0.223-0.252,0.883-0.834,0.945-0.959c-0.105-0.246-1.172-1.236-1.172-1.236c-0.014-1.021,0.109-3.986,0.113-3.984v-3.26
				c1.037-0.207,1.824-0.176,2.363,0.094s0.92,0.697,1.148,1.289c0.227,0.59,0.342,1.299,0.342,2.127s-0.021,1.688-0.062,2.58
				C444.899,621.973,444.911,622.764,444.87,622.92z"/>
			<path fill="#1A1A1A" d="M477.331,629.475c-0.186-0.135-0.32-0.324-0.402-0.574c-0.084-0.188-0.113-0.393-0.094-0.623
				c0.02-0.227,0.02-0.424,0-0.588c-0.125-0.891-0.359-1.615-0.699-2.176c-0.344-0.559-0.762-1.025-1.26-1.396
				c-0.496-0.373-1.059-0.695-1.689-0.965c-0.633-0.268-1.301-0.578-2.006-0.932c-0.621-0.402-1.016-0.926-1.148-1.895
				c-0.012-0.023-0.031-0.055-0.045-0.08c0.26-0.252,0.584-0.561,0.795-0.73c0.041-0.021,0.078-0.051,0.119-0.09
				c0.271-0.182-0.893-1.486-0.869-1.49c0-0.436,0.104-0.799,0.311-1.088s0.471-0.508,0.791-0.654
				c0.32-0.145,0.668-0.201,1.041-0.17s0.734,0.15,1.088,0.357c0.207,0.248,0.361,0.555,0.467,0.916
				c0.102,0.363,0.168,0.762,0.199,1.197c0.033,0.434,0.043,0.891,0.033,1.365c-0.01,0.479-0.016,0.943-0.016,1.398
				c0.158-0.041,2.982,0,2.982,0c0.125-1.264,0.117-2.455-0.018-3.572c-0.133-1.119-0.424-2.08-0.867-2.891
				c-0.447-0.807-1.062-1.416-1.852-1.83c-0.787-0.414-1.76-0.549-2.918-0.404c-0.58,0.062-1.084,0.215-1.506,0.467
				c-0.426,0.246-0.793,0.557-1.104,0.932c-0.311,0.373-0.58,0.797-0.809,1.273s-0.426,0.973-0.592,1.49
				c-0.041,0.166-0.186,0.891-0.186,1.055c0,0.064-1.545,1.559-1.545,1.559l0.012,0.07c0.271,0.158,0.74,0.521,1.137,0.838
				c-0.014,0.016,0.336,0.252,0.396,0.408c0.064,0.154,0.1,0.324,0.109,0.512c0.012,0.188,0.02,0.389,0.031,0.605
				c0.01,0.219,0.252,0.969,0.295,1.135c0.207,0.518,0.498,0.953,0.869,1.305c0.373,0.352,0.789,0.664,1.244,0.934
				c0.455,0.268,0.932,0.518,1.428,0.744c0.498,0.229,0.973,0.479,1.43,0.746c0.062,0.041,0.449,0.258,0.668,0.402
				c0.219,0.146,0.398,0.334,0.543,0.561c0.104,0.209,0.176,0.418,0.217,0.637c0.043,0.217,0.084,0.473,0.127,0.76
				c-0.146,0.188-0.303,0.359-0.469,0.514c-0.166,0.156-0.332,0.338-0.496,0.543c0.021,0.146,0.078,0.27,0.17,0.373
				c0.096,0.105,0.197,0.203,0.312,0.295c0.113,0.094,0.217,0.193,0.311,0.297s0.148,0.238,0.172,0.402
				c0.039,0.229,0.031,0.477-0.033,0.746c-0.061,0.27-0.16,0.523-0.295,0.76c-0.133,0.24-0.307,0.447-0.512,0.623
				c-0.207,0.176-0.447,0.283-0.715,0.326c-0.207,0.041-0.867,0.102-1.211,0c-0.438-0.145-0.756-0.389-0.963-0.73
				s-0.344-0.74-0.404-1.195s-0.084-0.957-0.061-1.506c0.02-0.551,0.029-1.113,0.029-1.693h-2.982
				c-0.082,1.635-0.029,3.049,0.156,4.238c0.186,1.191,0.662,2.17,1.428,2.938c0.393,0.414,0.879,0.74,1.461,0.979
				c0.58,0.238,1.189,0.373,1.834,0.402c0.641,0.033,1.266-0.047,1.877-0.232s1.146-0.508,1.6-0.963
				c0.539-0.539,0.908-1.176,1.104-1.912c0.197-0.734,0.357-1.629,0.482-2.686c0.02-0.166,0.076-0.301,0.17-0.404
				c0.092-0.104,0.189-0.205,0.295-0.311c0.104-0.104,0.213-0.213,0.328-0.326c0.111-0.113,0.189-0.254,0.232-0.42
				C477.694,629.803,477.518,629.609,477.331,629.475z"/>
		</g>
		<g>
			<g>
				<path fill="#1A1A1A" d="M396.541,626.621c0.005-0.016,0.013-0.016,0.018,0l0.617,1.896c0.005,0.016,0.021,0.027,0.037,0.027
					h1.994c0.016,0,0.018,0.008,0.006,0.017l-1.615,1.172c-0.012,0.009-0.019,0.028-0.014,0.044l0.615,1.896
					c0.005,0.016-0.002,0.02-0.014,0.011l-1.613-1.172c-0.012-0.009-0.033-0.009-0.045,0l-1.615,1.172
					c-0.012,0.009-0.019,0.005-0.014-0.011l0.617-1.896c0.005-0.016-0.002-0.035-0.014-0.044l-1.615-1.172
					c-0.012-0.009-0.01-0.017,0.006-0.017h1.994c0.016,0,0.032-0.012,0.037-0.027L396.541,626.621z"/>
			</g>
			<g>
				<path fill="#1A1A1A" d="M482.126,626.621c0.005-0.016,0.013-0.016,0.018,0l0.617,1.896c0.005,0.016,0.021,0.027,0.037,0.027
					h1.992c0.016,0,0.018,0.008,0.006,0.017l-1.613,1.172c-0.012,0.009-0.019,0.028-0.014,0.044l0.617,1.896
					c0.005,0.016-0.002,0.02-0.014,0.011l-1.615-1.172c-0.012-0.009-0.033-0.009-0.045,0l-1.615,1.172
					c-0.012,0.009-0.019,0.005-0.014-0.011l0.615-1.896c0.005-0.016-0.002-0.035-0.014-0.044l-1.613-1.172
					c-0.012-0.009-0.01-0.017,0.006-0.017h1.994c0.016,0,0.032-0.012,0.037-0.027L482.126,626.621z"/>
			</g>
		</g>
	</g>
	<g>
		<rect x="367.356" y="293.58" fill="#161616" width="146.305" height="15.631"/>
		<g>
			<path fill="#161616" d="M397.045,235.373c-1.57-0.484-3.635-0.716-6.311-0.716c-2.549,0-4.617,0.24-6.143,0.719
				c-1.768,0.552-2.988,1.886-3.627,3.961l-13.674,43.915v0.158c0,0.687,0.49,1.425,1.562,1.425h8.729
				c0.895,0,1.59-0.521,1.85-1.393l3.557-11.478l0.004-0.018h15.574l3.541,11.56l0.008,0.026c0.273,0.815,0.965,1.302,1.844,1.302
				h8.795c0.881,0,1.492-0.585,1.492-1.425v-0.158l-13.535-43.912C400.073,237.261,398.838,235.923,397.045,235.373z
				 M395.102,260.699h-8.662l4.332-14.108L395.102,260.699z"/>
			<path fill="#161616" d="M499.35,281.687l-3.715-11.425c-0.367-1.102-0.771-2.177-1.201-3.195
				c-0.41-0.965-1.072-2.071-1.971-3.292c1.045-0.611,1.902-1.281,2.553-2.001c0.701-0.765,1.383-1.625,2.031-2.548l0.066-0.109
				c1.029-1.959,1.527-4.926,1.527-9.068v-1.547v-0.031c-0.141-4.491-1.32-7.926-3.508-10.213c-1.258-1.305-2.572-2.24-3.912-2.79
				c-1.326-0.538-2.699-0.811-4.076-0.811h-24.971c-1.014,0-1.695,0.683-1.695,1.695v46.786c0,1.017,0.682,1.696,1.695,1.696h8.391
				c1.014,0,1.695-0.68,1.695-1.696v-16.089h7.768c0.602,0.086,2.162,0.413,2.902,3.384l4.18,11.814
				c0.123,0.412,0.361,0.879,0.727,1.426c0.191,0.288,0.77,1.161,1.725,1.161h9.268c0.824,0,1.426-0.571,1.426-1.357
				c0-0.423-0.227-0.774-0.613-1.235C499.497,282.072,499.403,281.89,499.35,281.687z M472.26,245.432h12.725
				c0.74,0.145,1.338,1.071,1.715,1.847c0.17,0.346,0.287,0.724,0.336,1.123c0.062,0.467,0.094,0.996,0.094,1.574
				c0,1.143-0.154,2.188-0.455,3.108c-0.273,0.843-0.654,1.479-1.119,1.876c-0.562,0.461-1.055,0.705-1.43,0.705H472.26V245.432z"/>
			<path fill="#161616" d="M457.545,248.244c-0.043-0.286-0.092-0.569-0.146-0.852c-0.424-2.71-1.242-5.318-2.836-7.389
				c-0.941-1.227-2.123-2.303-3.518-3.211c-1.391-0.904-2.904-1.553-4.488-1.924l-0.023-0.008c-0.828-0.184-1.678-0.321-2.539-0.422
				c-2.625-0.378-5.297-0.449-7.943-0.388c-2.648-0.062-5.318,0.01-7.943,0.388c-0.861,0.101-1.713,0.238-2.537,0.422l-0.027,0.008
				c-1.586,0.371-3.096,1.02-4.49,1.924c-1.393,0.908-2.572,1.984-3.516,3.211c-1.592,2.07-2.41,4.674-2.836,7.386
				c-0.051,0.282-0.102,0.566-0.148,0.854c-0.521,3.371-0.465,6.954-0.369,10.344c-0.074,3.862-0.17,7.781,0.283,11.582
				c0.387,3.219,1.051,7.018,3.078,9.66c4.506,5.865,13.664,5.689,18.506,5.689c4.838,0,14,0.176,18.504-5.689
				c2.027-2.643,2.691-6.441,3.074-9.66c0.457-3.801,0.361-7.72,0.287-11.582C458.014,255.198,458.073,251.615,457.545,248.244z
				 M442.891,273.949c-2.096,0.523-4.473,0.704-6.732,0.759c-0.037,0-0.074,0-0.107,0.002c-0.039-0.002-0.07-0.002-0.107-0.002
				c-2.262-0.055-4.639-0.235-6.732-0.759c-0.396-0.1-0.75-0.228-1.07-0.379c-0.582-0.361-1.078-0.839-1.432-1.462
				c-0.566-0.997-0.852-2.575-0.852-4.695v-15.009c0-2.119,0.285-3.698,0.852-4.695c0.516-0.913,1.4-1.514,2.701-1.839
				c2.088-0.524,4.363-0.785,6.641-0.793c2.277,0.008,4.549,0.269,6.641,0.793c1.299,0.325,2.184,0.926,2.701,1.839
				c0.562,0.997,0.848,2.576,0.848,4.695v15.009c0,2.12-0.285,3.698-0.848,4.695c-0.352,0.623-0.85,1.101-1.434,1.462
				C443.641,273.721,443.288,273.849,442.891,273.949z"/>
			<path fill="#161616" d="M512.03,234.657h-8.393c-1.012,0-1.695,0.683-1.695,1.695v46.786c0,1.017,0.684,1.696,1.695,1.696h8.393
				c1.014,0,1.693-0.68,1.693-1.696v-46.786C513.723,235.339,513.043,234.657,512.03,234.657z"/>
		</g>
		<g>
			<path fill="#FFFFFF" d="M373.735,298.912c0.062-0.202,0.178-0.332,0.344-0.383c0.166-0.052,0.393-0.078,0.678-0.078
				c0.297,0,0.531,0.026,0.697,0.078c0.174,0.051,0.287,0.181,0.352,0.383l1.568,5.097c0,0.032-0.016,0.045-0.053,0.045h-1.023
				c-0.051,0-0.086-0.024-0.102-0.069l-0.414-1.354c-0.018-0.05-0.051-0.076-0.104-0.076h-1.836c-0.053,0-0.084,0.027-0.104,0.085
				l-0.41,1.337c-0.018,0.054-0.051,0.078-0.102,0.078h-1.018c-0.041,0-0.061-0.013-0.061-0.045L373.735,298.912z M374.85,299.605
				c-0.014-0.056-0.029-0.094-0.039-0.11c-0.01-0.018-0.027-0.029-0.055-0.029c-0.025,0-0.055,0.048-0.084,0.14l-0.547,1.783
				c0,0.01-0.002,0.019-0.006,0.024c0,0.006-0.004,0.009-0.004,0.013c0,0.041,0.023,0.059,0.062,0.059h1.166
				c0.043,0,0.061-0.018,0.061-0.059c0-0.004,0-0.007-0.002-0.013c-0.004-0.006-0.004-0.015-0.004-0.024L374.85,299.605z"/>
			<path fill="#FFFFFF" d="M379.1,298.451h2.91c0.145,0,0.285,0.026,0.428,0.083c0.141,0.058,0.277,0.157,0.414,0.298
				c0.234,0.246,0.361,0.616,0.375,1.109v0.181c0,0.458-0.055,0.794-0.164,1.003c-0.072,0.104-0.15,0.198-0.227,0.283
				c-0.078,0.088-0.186,0.166-0.318,0.24c-0.006,0.004-0.014,0.011-0.021,0.022c-0.006,0.009-0.012,0.022-0.012,0.037
				s0.002,0.022,0.008,0.032c0.123,0.155,0.207,0.294,0.254,0.412c0.051,0.113,0.096,0.237,0.137,0.36l0.432,1.322
				c0.01,0.042,0.029,0.079,0.057,0.11c0.031,0.036,0.043,0.06,0.043,0.07c0,0.025-0.016,0.038-0.047,0.038h-1.078
				c-0.031,0-0.062-0.026-0.102-0.082c-0.037-0.054-0.059-0.102-0.07-0.137l-0.482-1.368c-0.074-0.291-0.223-0.451-0.447-0.484
				h-0.955c-0.049,0-0.076,0.027-0.076,0.079v1.914c0,0.054-0.027,0.078-0.08,0.078H379.1c-0.051,0-0.078-0.024-0.078-0.078v-5.446
				C379.022,298.477,379.049,298.451,379.1,298.451z M380.233,299.465c-0.049,0-0.076,0.029-0.076,0.079v1.274
				c0,0.051,0.027,0.079,0.086,0.079h1.414c0.074,0,0.158-0.04,0.242-0.112c0.074-0.065,0.129-0.153,0.168-0.272
				c0.039-0.121,0.059-0.253,0.059-0.399c0-0.071-0.004-0.142-0.012-0.198c-0.008-0.06-0.025-0.115-0.053-0.169
				c-0.08-0.173-0.18-0.267-0.295-0.281H380.233z"/>
			<path fill="#FFFFFF" d="M390.426,303.203v0.883c0,0.054-0.027,0.076-0.08,0.076h-2.689c-0.016,0-0.025,0-0.031-0.007
				c-0.029,0.007-0.062,0.007-0.092,0.007s-0.062,0-0.096,0c-0.91,0-1.586-0.227-2.025-0.688c-0.104-0.104-0.189-0.23-0.258-0.388
				c-0.066-0.15-0.113-0.332-0.137-0.542c-0.014-0.098-0.021-0.246-0.025-0.441s-0.008-0.48-0.008-0.856c0-0.204,0-0.376,0-0.513
				c0-0.143,0.004-0.263,0.008-0.357c0.004-0.096,0.012-0.181,0.016-0.253c0.008-0.067,0.016-0.135,0.031-0.195
				c0.041-0.19,0.088-0.366,0.148-0.539c0.057-0.164,0.129-0.31,0.217-0.424c0.111-0.141,0.242-0.255,0.4-0.339
				c0.156-0.086,0.332-0.154,0.523-0.208c0.104-0.023,0.254-0.048,0.453-0.064c0.197-0.015,0.43-0.021,0.695-0.021
				c0.281,0,0.512,0.004,0.689,0.007c0.178,0.006,0.328,0.023,0.451,0.051c0.178,0.04,0.348,0.11,0.5,0.212
				c0.156,0.102,0.289,0.22,0.393,0.354c0.078,0.106,0.139,0.239,0.188,0.401c0.045,0.161,0.092,0.343,0.131,0.547
				c0.027,0.14,0.043,0.319,0.049,0.547c0.002,0.224,0.008,0.491,0.008,0.795c0,0.347-0.006,0.629-0.008,0.856
				c-0.006,0.228-0.014,0.387-0.023,0.472c-0.02,0.197-0.064,0.384-0.133,0.548h0.625
				C390.399,303.123,390.426,303.148,390.426,303.203z M387.03,299.431c-0.15,0.012-0.254,0.025-0.318,0.041
				c-0.182,0.047-0.326,0.141-0.43,0.279c-0.105,0.136-0.156,0.339-0.156,0.606v1.786c0,0.285,0.059,0.504,0.178,0.66
				c0.121,0.162,0.279,0.258,0.479,0.288c0.021,0.006,0.059,0.01,0.117,0.011c0.057,0.005,0.119,0.007,0.182,0.007
				c0.068,0.005,0.137,0.008,0.203,0.01c0.074,0.003,0.137,0.003,0.193,0.003c0.15,0,0.27-0.003,0.359-0.013
				c0.09-0.007,0.188-0.013,0.295-0.029c0.227-0.037,0.385-0.131,0.479-0.28c0.096-0.143,0.143-0.361,0.143-0.656v-1.77
				c0-0.278-0.041-0.487-0.117-0.623c-0.078-0.139-0.213-0.232-0.4-0.279c-0.104-0.024-0.215-0.041-0.334-0.047
				c-0.121-0.014-0.262-0.016-0.424-0.016C387.327,299.41,387.178,299.416,387.03,299.431z"/>
			<path fill="#FFFFFF" d="M395.227,298.451h0.977c0.053,0,0.078,0.026,0.078,0.078v3.711c0,0.189-0.01,0.354-0.029,0.498
				c-0.023,0.145-0.053,0.257-0.088,0.343c-0.031,0.085-0.074,0.174-0.135,0.265c-0.062,0.092-0.129,0.177-0.199,0.258
				c-0.082,0.072-0.17,0.141-0.275,0.194c-0.104,0.058-0.199,0.104-0.297,0.138c-0.092,0.031-0.199,0.062-0.312,0.085
				c-0.115,0.022-0.24,0.033-0.377,0.033h-0.912c-0.172,0-0.334-0.019-0.482-0.055c-0.148-0.035-0.273-0.087-0.379-0.156
				c-0.109-0.065-0.203-0.14-0.281-0.219c-0.098-0.099-0.182-0.198-0.25-0.306c-0.066-0.113-0.121-0.237-0.158-0.362
				c-0.043-0.13-0.061-0.263-0.061-0.411v-4.016c0-0.052,0.025-0.078,0.078-0.078h0.977c0.053,0,0.08,0.026,0.08,0.078v3.812
				c0,0.065,0.01,0.134,0.035,0.215c0.021,0.082,0.059,0.158,0.105,0.226c0.045,0.071,0.105,0.131,0.174,0.181
				c0.07,0.051,0.154,0.075,0.248,0.075h0.822c0.088,0,0.168-0.024,0.24-0.075c0.072-0.05,0.135-0.109,0.184-0.181
				c0.049-0.067,0.088-0.144,0.117-0.226c0.027-0.081,0.045-0.153,0.045-0.223v-3.805
				C395.151,298.477,395.176,298.451,395.227,298.451z"/>
			<path fill="#FFFFFF" d="M398.157,298.451h0.977c0.053,0,0.076,0.026,0.076,0.078v5.446c0,0.054-0.023,0.078-0.076,0.078h-0.977
				c-0.051,0-0.08-0.024-0.08-0.078v-5.446C398.077,298.477,398.106,298.451,398.157,298.451z"/>
			<path fill="#FFFFFF" d="M403.417,303.975c0,0.054-0.023,0.078-0.074,0.078h-0.977c-0.055,0-0.08-0.024-0.08-0.078v-4.431
				c0-0.05-0.027-0.079-0.082-0.079h-1.271c-0.051,0-0.078-0.024-0.078-0.078v-0.858c0-0.052,0.027-0.078,0.078-0.078h3.84
				c0.051,0,0.074,0.026,0.074,0.078v0.858c0,0.054-0.023,0.078-0.074,0.078h-1.275c-0.053,0-0.08,0.029-0.08,0.079V303.975z"/>
			<path fill="#FFFFFF" d="M406.485,299.646c0-0.355,0.096-0.645,0.287-0.863c0.195-0.224,0.475-0.332,0.838-0.332h2.65
				c0.068,0,0.098,0.026,0.098,0.078v0.858c0,0.054-0.021,0.078-0.074,0.078h-2.588c-0.051,0-0.08,0.029-0.08,0.086v1.063
				c0,0.053,0.029,0.078,0.08,0.078h2.4c0.053,0,0.078,0.027,0.078,0.079v0.898c0,0.052-0.025,0.077-0.078,0.077h-2.4
				c-0.051,0-0.08,0.027-0.08,0.078v1.136c0,0.052,0.029,0.076,0.08,0.076h2.588c0.053,0,0.074,0.026,0.074,0.077v0.86
				c0,0.054-0.021,0.078-0.074,0.078h-3.025c-0.094,0-0.189-0.024-0.279-0.073c-0.096-0.048-0.18-0.115-0.25-0.194
				c-0.074-0.077-0.135-0.165-0.178-0.261c-0.043-0.095-0.066-0.191-0.066-0.291V299.646z"/>
			<path fill="#FFFFFF" d="M412.01,300.194c0-0.224,0.029-0.437,0.09-0.638c0.035-0.11,0.078-0.207,0.131-0.291
				c0.055-0.079,0.111-0.152,0.168-0.219c0.164-0.188,0.354-0.336,0.578-0.438c0.225-0.105,0.463-0.157,0.721-0.157h2.068
				c0.055,0,0.08,0.026,0.08,0.078v0.858c0,0.054-0.025,0.078-0.08,0.078h-2.021c-0.203,0.041-0.355,0.147-0.457,0.317
				c-0.094,0.17-0.145,0.391-0.145,0.659v1.979c0.014,0.184,0.072,0.326,0.174,0.433c0.102,0.108,0.244,0.17,0.428,0.185h2.021
				c0.055,0,0.08,0.026,0.08,0.077v0.86c0,0.054-0.025,0.078-0.08,0.078h-1.998c-0.156,0-0.295-0.013-0.412-0.044
				c-0.123-0.028-0.229-0.061-0.314-0.098c-0.201-0.073-0.377-0.194-0.531-0.353c-0.16-0.164-0.287-0.365-0.387-0.593
				c-0.023-0.056-0.049-0.132-0.074-0.229c-0.029-0.097-0.039-0.217-0.039-0.357V300.194z"/>
			<path fill="#FFFFFF" d="M420.045,303.975c0,0.054-0.027,0.078-0.076,0.078h-0.979c-0.053,0-0.078-0.024-0.078-0.078v-4.431
				c0-0.05-0.027-0.079-0.078-0.079h-1.273c-0.051,0-0.08-0.024-0.08-0.078v-0.858c0-0.052,0.029-0.078,0.08-0.078h3.838
				c0.051,0,0.076,0.026,0.076,0.078v0.858c0,0.054-0.025,0.078-0.076,0.078h-1.275c-0.055,0-0.078,0.029-0.078,0.079V303.975z"/>
			<path fill="#FFFFFF" d="M426.29,298.451h0.977c0.053,0,0.078,0.026,0.078,0.078v3.711c0,0.189-0.012,0.354-0.029,0.498
				c-0.021,0.145-0.053,0.257-0.09,0.343c-0.029,0.085-0.076,0.174-0.135,0.265c-0.059,0.092-0.127,0.177-0.199,0.258
				c-0.078,0.072-0.17,0.141-0.275,0.194c-0.102,0.058-0.201,0.104-0.297,0.138c-0.094,0.031-0.197,0.062-0.312,0.085
				c-0.113,0.022-0.24,0.033-0.375,0.033h-0.912c-0.176,0-0.334-0.019-0.48-0.055c-0.152-0.035-0.277-0.087-0.379-0.156
				c-0.109-0.065-0.205-0.14-0.283-0.219c-0.102-0.099-0.182-0.198-0.25-0.306c-0.07-0.113-0.121-0.237-0.16-0.362
				c-0.039-0.13-0.061-0.263-0.061-0.411v-4.016c0-0.052,0.029-0.078,0.082-0.078h0.975c0.053,0,0.08,0.026,0.08,0.078v3.812
				c0,0.065,0.01,0.134,0.031,0.215c0.025,0.082,0.061,0.158,0.105,0.226c0.049,0.071,0.105,0.131,0.176,0.181
				c0.07,0.051,0.154,0.075,0.25,0.075h0.816c0.092,0,0.17-0.024,0.246-0.075c0.072-0.05,0.133-0.109,0.182-0.181
				c0.051-0.067,0.088-0.144,0.119-0.226c0.029-0.081,0.043-0.153,0.043-0.223v-3.805
				C426.211,298.477,426.239,298.451,426.29,298.451z"/>
			<path fill="#FFFFFF" d="M429.217,298.451h2.908c0.145,0,0.289,0.026,0.428,0.083c0.143,0.058,0.283,0.157,0.416,0.298
				c0.234,0.246,0.357,0.616,0.375,1.109v0.181c0,0.458-0.055,0.794-0.164,1.003c-0.072,0.104-0.146,0.198-0.227,0.283
				c-0.078,0.088-0.186,0.166-0.32,0.24c-0.006,0.004-0.014,0.011-0.021,0.022c-0.004,0.009-0.008,0.022-0.008,0.037
				s0.002,0.022,0.006,0.032c0.119,0.155,0.205,0.294,0.254,0.412c0.049,0.113,0.098,0.237,0.135,0.36l0.434,1.322
				c0.008,0.042,0.029,0.079,0.055,0.11c0.031,0.036,0.047,0.06,0.047,0.07c0,0.025-0.016,0.038-0.051,0.038h-1.078
				c-0.027,0-0.064-0.026-0.098-0.082c-0.039-0.054-0.064-0.102-0.072-0.137l-0.486-1.368c-0.07-0.291-0.221-0.451-0.443-0.484
				h-0.953c-0.055,0-0.08,0.027-0.08,0.079v1.914c0,0.054-0.023,0.078-0.078,0.078h-0.977c-0.051,0-0.076-0.024-0.076-0.078v-5.446
				C429.141,298.477,429.167,298.451,429.217,298.451z M430.352,299.465c-0.055,0-0.08,0.029-0.08,0.079v1.274
				c0,0.051,0.031,0.079,0.088,0.079h1.414c0.074,0,0.154-0.04,0.242-0.112c0.072-0.065,0.127-0.153,0.166-0.272
				c0.041-0.121,0.061-0.253,0.061-0.399c0-0.071-0.006-0.142-0.012-0.198c-0.008-0.06-0.025-0.115-0.051-0.169
				c-0.084-0.173-0.182-0.267-0.299-0.281H430.352z"/>
			<path fill="#FFFFFF" d="M436.737,298.912c0.061-0.202,0.176-0.332,0.342-0.383c0.168-0.052,0.393-0.078,0.68-0.078
				c0.299,0,0.531,0.026,0.701,0.078c0.17,0.051,0.283,0.181,0.346,0.383l1.572,5.097c0,0.032-0.02,0.045-0.055,0.045h-1.023
				c-0.055,0-0.088-0.024-0.104-0.069l-0.414-1.354c-0.016-0.05-0.049-0.076-0.102-0.076h-1.836c-0.051,0-0.086,0.027-0.104,0.085
				l-0.41,1.337c-0.018,0.054-0.053,0.078-0.104,0.078h-1.014c-0.045,0-0.064-0.013-0.064-0.045L436.737,298.912z M437.852,299.605
				c-0.014-0.056-0.027-0.094-0.037-0.11c-0.012-0.018-0.029-0.029-0.057-0.029c-0.025,0-0.053,0.048-0.084,0.14l-0.549,1.783
				c0,0.01-0.002,0.019-0.004,0.024c0,0.006-0.002,0.009-0.002,0.013c0,0.041,0.018,0.059,0.062,0.059h1.162
				c0.043,0,0.062-0.018,0.062-0.059c0-0.004,0-0.007-0.006-0.013c0-0.006,0-0.015,0-0.024L437.852,299.605z"/>
			<path fill="#FFFFFF" d="M445.405,299.646c0-0.355,0.096-0.645,0.287-0.863c0.193-0.224,0.471-0.332,0.836-0.332h2.65
				c0.066,0,0.104,0.026,0.104,0.078v0.858c0,0.054-0.031,0.078-0.08,0.078h-2.586c-0.055,0-0.082,0.029-0.082,0.086v1.063
				c0,0.053,0.027,0.078,0.082,0.078h2.396c0.055,0,0.078,0.027,0.078,0.079v0.898c0,0.052-0.023,0.077-0.078,0.077h-2.396
				c-0.055,0-0.082,0.027-0.082,0.078v1.136c0,0.052,0.027,0.076,0.082,0.076h2.586c0.049,0,0.08,0.026,0.08,0.077v0.86
				c0,0.054-0.031,0.078-0.08,0.078h-3.027c-0.09,0-0.188-0.024-0.277-0.073c-0.094-0.048-0.18-0.115-0.252-0.194
				c-0.074-0.077-0.133-0.165-0.174-0.261c-0.047-0.095-0.066-0.191-0.066-0.291V299.646z"/>
			<path fill="#FFFFFF" d="M451.01,299.341c0-0.172,0.029-0.314,0.092-0.43c0.064-0.114,0.15-0.207,0.252-0.273
				c0.102-0.069,0.223-0.115,0.355-0.148c0.135-0.025,0.27-0.039,0.412-0.039c0.223,0,0.404,0.014,0.543,0.039
				c0.145,0.024,0.258,0.084,0.35,0.175s0.162,0.229,0.215,0.411s0.104,0.43,0.156,0.74l0.422,2.591
				c0.008,0.02,0.012,0.054,0.02,0.1c0.008,0.047,0.018,0.096,0.031,0.14c0.014,0.049,0.025,0.089,0.041,0.124
				c0.012,0.038,0.021,0.056,0.035,0.056c0.01,0,0.023-0.018,0.037-0.056c0.016-0.035,0.029-0.075,0.037-0.124
				c0.012-0.044,0.023-0.09,0.035-0.134c0.01-0.05,0.012-0.073,0.012-0.083l0.408-2.643c0.049-0.304,0.1-0.545,0.154-0.724
				c0.051-0.18,0.127-0.313,0.215-0.404c0.094-0.09,0.213-0.145,0.357-0.169c0.146-0.025,0.332-0.039,0.562-0.039
				c0.328,0,0.6,0.063,0.809,0.193c0.205,0.131,0.311,0.357,0.311,0.675v4.656c0,0.054-0.025,0.078-0.08,0.078h-0.977
				c-0.051,0-0.076-0.024-0.076-0.078v-4.261c0-0.008-0.004-0.031-0.01-0.067c-0.006-0.034-0.021-0.05-0.047-0.05
				s-0.043,0.012-0.059,0.029c-0.012,0.02-0.023,0.038-0.033,0.057c-0.008,0.014-0.01,0.034-0.021,0.074
				c-0.006,0.033-0.012,0.073-0.021,0.113c-0.01,0.045-0.018,0.084-0.025,0.127c-0.01,0.041-0.012,0.071-0.016,0.093
				c-0.035,0.13-0.062,0.268-0.094,0.411c-0.025,0.146-0.068,0.334-0.119,0.57c-0.053,0.235-0.119,0.539-0.191,0.907
				c-0.076,0.368-0.178,0.838-0.301,1.41c-0.016,0.084-0.043,0.164-0.08,0.242c-0.033,0.077-0.086,0.149-0.152,0.211
				c-0.064,0.064-0.152,0.112-0.262,0.154c-0.109,0.038-0.248,0.057-0.414,0.057c-0.15,0-0.275-0.019-0.371-0.055
				c-0.098-0.035-0.174-0.081-0.236-0.14c-0.064-0.054-0.113-0.11-0.143-0.184c-0.031-0.063-0.055-0.131-0.07-0.192l-0.779-3.719
				c-0.006-0.013-0.018-0.043-0.031-0.091c-0.012-0.05-0.027-0.077-0.049-0.081h-0.039c-0.02,0-0.029,0.017-0.029,0.054v4.329
				c0,0.054-0.027,0.078-0.08,0.078h-0.979c-0.053,0-0.076-0.024-0.076-0.078V299.341z"/>
			<path fill="#FFFFFF" d="M458.678,298.529c0-0.052,0.027-0.078,0.08-0.078h2.494c0.291,0,0.539,0.046,0.742,0.135
				c0.203,0.093,0.367,0.219,0.492,0.38c0.127,0.163,0.217,0.354,0.275,0.579c0.055,0.226,0.084,0.469,0.084,0.734
				c0,0.276-0.029,0.526-0.084,0.752c-0.059,0.222-0.148,0.413-0.275,0.577c-0.125,0.161-0.289,0.286-0.492,0.371
				s-0.451,0.128-0.742,0.128h-1.359c-0.053,0-0.082,0.025-0.082,0.078v1.79c0,0.054-0.025,0.078-0.078,0.078h-0.975
				c-0.053,0-0.08-0.024-0.08-0.078v-5.36V298.529z M459.893,299.465c-0.053,0-0.082,0.029-0.082,0.079v1.471
				c0,0.051,0.029,0.076,0.082,0.076h1.49c0.094,0,0.168-0.035,0.225-0.095c0.055-0.071,0.096-0.144,0.119-0.231
				c0.023-0.09,0.045-0.182,0.053-0.271c0.008-0.092,0.012-0.164,0.012-0.215c0-0.055-0.004-0.123-0.012-0.217
				c-0.008-0.09-0.029-0.178-0.053-0.27c-0.023-0.086-0.064-0.163-0.119-0.23c-0.057-0.064-0.131-0.097-0.225-0.097H459.893z"/>
			<path fill="#FFFFFF" d="M464.534,298.451h2.906c0.145,0,0.289,0.026,0.43,0.083c0.141,0.058,0.279,0.157,0.414,0.298
				c0.234,0.246,0.359,0.616,0.375,1.109v0.181c0,0.458-0.055,0.794-0.164,1.003c-0.072,0.104-0.148,0.198-0.227,0.283
				c-0.078,0.088-0.184,0.166-0.318,0.24c-0.006,0.004-0.012,0.011-0.021,0.022c-0.006,0.009-0.012,0.022-0.012,0.037
				s0.006,0.022,0.01,0.032c0.119,0.155,0.201,0.294,0.252,0.412c0.049,0.113,0.096,0.237,0.137,0.36l0.43,1.322
				c0.012,0.042,0.029,0.079,0.061,0.11c0.025,0.036,0.041,0.06,0.041,0.07c0,0.025-0.016,0.038-0.045,0.038h-1.078
				c-0.031,0-0.068-0.026-0.102-0.082c-0.037-0.054-0.062-0.102-0.07-0.137l-0.484-1.368c-0.076-0.291-0.223-0.451-0.445-0.484
				h-0.957c-0.053,0-0.074,0.027-0.074,0.079v1.914c0,0.054-0.031,0.078-0.082,0.078h-0.975c-0.055,0-0.078-0.024-0.078-0.078
				v-5.446C464.456,298.477,464.479,298.451,464.534,298.451z M465.665,299.465c-0.053,0-0.074,0.029-0.074,0.079v1.274
				c0,0.051,0.025,0.079,0.086,0.079h1.414c0.072,0,0.152-0.04,0.24-0.112c0.076-0.065,0.129-0.153,0.168-0.272
				c0.041-0.121,0.061-0.253,0.061-0.399c0-0.071-0.006-0.142-0.014-0.198c-0.006-0.06-0.023-0.115-0.051-0.169
				c-0.084-0.173-0.182-0.267-0.297-0.281H465.665z"/>
			<path fill="#FFFFFF" d="M470.44,299.646c0-0.355,0.096-0.645,0.289-0.863c0.189-0.224,0.469-0.332,0.834-0.332h2.65
				c0.068,0,0.102,0.026,0.102,0.078v0.858c0,0.054-0.025,0.078-0.076,0.078h-2.59c-0.051,0-0.074,0.029-0.074,0.086v1.063
				c0,0.053,0.023,0.078,0.074,0.078h2.402c0.051,0,0.074,0.027,0.074,0.079v0.898c0,0.052-0.023,0.077-0.074,0.077h-2.402
				c-0.051,0-0.074,0.027-0.074,0.078v1.136c0,0.052,0.023,0.076,0.074,0.076h2.59c0.051,0,0.076,0.026,0.076,0.077v0.86
				c0,0.054-0.025,0.078-0.076,0.078h-3.023c-0.096,0-0.189-0.024-0.283-0.073c-0.092-0.048-0.178-0.115-0.25-0.194
				c-0.072-0.077-0.131-0.165-0.176-0.261c-0.043-0.095-0.066-0.191-0.066-0.291V299.646z"/>
			<path fill="#FFFFFF" d="M477.491,301.724c-0.16,0-0.334-0.021-0.518-0.064c-0.186-0.042-0.354-0.118-0.504-0.241
				c-0.088-0.07-0.164-0.157-0.227-0.261c-0.059-0.102-0.107-0.211-0.146-0.327c-0.039-0.119-0.068-0.238-0.084-0.36
				c-0.02-0.122-0.031-0.246-0.031-0.364c0-0.05,0-0.101,0-0.149c0-0.046,0.008-0.092,0.018-0.141
				c0.035-0.45,0.205-0.803,0.51-1.052c0.088-0.076,0.197-0.145,0.326-0.216c0.133-0.065,0.262-0.098,0.385-0.098h2.584
				c0.053,0,0.082,0.026,0.082,0.078v0.858c0,0.054-0.029,0.078-0.082,0.078h-2.256c-0.074,0-0.141,0.032-0.201,0.097
				c-0.059,0.067-0.104,0.129-0.127,0.185c-0.027,0.054-0.043,0.106-0.047,0.158c-0.006,0.05-0.01,0.102-0.01,0.155
				c0,0.082,0.006,0.17,0.018,0.258c0.01,0.09,0.045,0.17,0.107,0.237c0.057,0.055,0.137,0.089,0.24,0.098
				c0.1,0.011,0.209,0.017,0.33,0.017h0.877c0.162,0,0.33,0.023,0.508,0.066c0.176,0.043,0.342,0.129,0.494,0.253
				c0.088,0.071,0.16,0.161,0.223,0.267c0.057,0.103,0.107,0.215,0.145,0.338c0.039,0.118,0.068,0.245,0.082,0.373
				c0.018,0.132,0.025,0.256,0.025,0.375c0,0.058,0,0.11,0,0.165c0,0.047-0.006,0.091-0.016,0.132
				c-0.041,0.477-0.209,0.839-0.502,1.096c-0.086,0.071-0.193,0.145-0.32,0.211c-0.131,0.075-0.252,0.108-0.367,0.108h-2.844
				c-0.051,0-0.076-0.024-0.076-0.078v-0.86c0-0.051,0.025-0.077,0.076-0.077h2.518c0.078,0,0.146-0.039,0.205-0.113
				c0.057-0.076,0.096-0.145,0.121-0.207c0.027-0.059,0.045-0.11,0.049-0.164c0.006-0.053,0.008-0.106,0.008-0.164
				c0-0.084-0.006-0.172-0.018-0.261c-0.008-0.09-0.045-0.175-0.107-0.248c-0.053-0.057-0.127-0.097-0.223-0.123
				c-0.098-0.021-0.209-0.033-0.342-0.033H477.491z"/>
			<path fill="#FFFFFF" d="M483.239,298.912c0.061-0.202,0.174-0.332,0.342-0.383c0.166-0.052,0.393-0.078,0.678-0.078
				c0.299,0,0.533,0.026,0.703,0.078c0.166,0.051,0.283,0.181,0.348,0.383l1.568,5.097c0,0.032-0.018,0.045-0.055,0.045h-1.023
				c-0.053,0-0.086-0.024-0.1-0.069l-0.418-1.354c-0.016-0.05-0.045-0.076-0.102-0.076h-1.832c-0.055,0-0.088,0.027-0.105,0.085
				l-0.41,1.337c-0.018,0.054-0.053,0.078-0.104,0.078h-1.014c-0.045,0-0.062-0.013-0.062-0.045L483.239,298.912z M484.354,299.605
				c-0.016-0.056-0.027-0.094-0.039-0.11c-0.012-0.018-0.029-0.029-0.057-0.029c-0.025,0-0.053,0.048-0.086,0.14l-0.545,1.783
				c0,0.01,0,0.019-0.004,0.024s-0.004,0.009-0.004,0.013c0,0.041,0.02,0.059,0.062,0.059h1.162c0.043,0,0.064-0.018,0.064-0.059
				c0-0.004,0-0.007-0.004-0.013c0-0.006,0-0.015,0-0.024L484.354,299.605z"/>
			<path fill="#FFFFFF" d="M488.606,298.451h2.904c0.148,0,0.293,0.026,0.434,0.083c0.139,0.058,0.277,0.157,0.41,0.298
				c0.234,0.246,0.359,0.616,0.375,1.109v0.181c0,0.458-0.055,0.794-0.164,1.003c-0.072,0.104-0.146,0.198-0.225,0.283
				c-0.08,0.088-0.186,0.166-0.32,0.24c-0.008,0.004-0.014,0.011-0.02,0.022c-0.01,0.009-0.01,0.022-0.01,0.037s0,0.022,0.004,0.032
				c0.123,0.155,0.207,0.294,0.256,0.412c0.051,0.113,0.096,0.237,0.135,0.36l0.43,1.322c0.01,0.042,0.033,0.079,0.061,0.11
				c0.029,0.036,0.041,0.06,0.041,0.07c0,0.025-0.016,0.038-0.045,0.038h-1.078c-0.033,0-0.066-0.026-0.102-0.082
				c-0.037-0.054-0.059-0.102-0.07-0.137l-0.484-1.368c-0.076-0.291-0.221-0.451-0.447-0.484h-0.951c-0.053,0-0.08,0.027-0.08,0.079
				v1.914c0,0.054-0.023,0.078-0.078,0.078h-0.975c-0.055,0-0.078-0.024-0.078-0.078v-5.446
				C488.528,298.477,488.551,298.451,488.606,298.451z M489.739,299.465c-0.053,0-0.08,0.029-0.08,0.079v1.274
				c0,0.051,0.029,0.079,0.086,0.079h1.416c0.07,0,0.152-0.04,0.24-0.112c0.072-0.065,0.129-0.153,0.168-0.272
				c0.041-0.121,0.062-0.253,0.062-0.399c0-0.071-0.008-0.142-0.014-0.198c-0.008-0.06-0.023-0.115-0.051-0.169
				c-0.084-0.173-0.182-0.267-0.299-0.281H489.739z"/>
			<path fill="#FFFFFF" d="M494.686,298.451h0.979c0.053,0,0.078,0.026,0.078,0.078v5.446c0,0.054-0.025,0.078-0.078,0.078h-0.979
				c-0.047,0-0.074-0.024-0.074-0.078v-5.446C494.612,298.477,494.639,298.451,494.686,298.451z"/>
			<path fill="#FFFFFF" d="M498.981,298.912c0.062-0.202,0.178-0.332,0.346-0.383c0.168-0.052,0.393-0.078,0.682-0.078
				c0.293,0,0.529,0.026,0.697,0.078c0.172,0.051,0.283,0.181,0.35,0.383l1.57,5.097c0,0.032-0.02,0.045-0.055,0.045h-1.023
				c-0.053,0-0.088-0.024-0.104-0.069l-0.416-1.354c-0.014-0.05-0.049-0.076-0.098-0.076h-1.84c-0.053,0-0.084,0.027-0.1,0.085
				l-0.414,1.337c-0.018,0.054-0.049,0.078-0.104,0.078h-1.016c-0.045,0-0.062-0.013-0.062-0.045L498.981,298.912z M500.098,299.605
				c-0.012-0.056-0.025-0.094-0.035-0.11c-0.014-0.018-0.031-0.029-0.055-0.029c-0.031,0-0.057,0.048-0.088,0.14l-0.543,1.783
				c0,0.01-0.006,0.019-0.006,0.024c-0.004,0.006-0.006,0.009-0.006,0.013c0,0.041,0.018,0.059,0.062,0.059h1.162
				c0.041,0,0.066-0.018,0.066-0.059c0-0.004-0.002-0.007-0.006-0.013c0-0.006-0.004-0.015-0.004-0.024L500.098,299.605z"/>
			<path fill="#FFFFFF" d="M507.772,303.115v0.86c0,0.054-0.025,0.078-0.08,0.078h-2.148c-0.041,0-0.078,0-0.117,0
				c-0.035,0-0.068-0.005-0.092-0.009c-0.434-0.036-0.74-0.163-0.922-0.376c-0.186-0.218-0.273-0.546-0.273-0.983v-4.156
				c0-0.052,0.027-0.078,0.076-0.078h0.979c0.051,0,0.076,0.026,0.076,0.078v4.251c0,0.173,0.102,0.258,0.307,0.258h2.115
				C507.747,303.038,507.772,303.064,507.772,303.115z"/>
		</g>
		<g>
			<path fill="#3C3533" d="M398.567,271.947l3.541,11.56l0.008,0.026c0.273,0.815,0.965,1.302,1.844,1.302h8.795
				c0.881,0,1.492-0.585,1.492-1.425v-0.158l-6.627-21.502c-6.314,3.344-12.574,6.787-18.854,10.197H398.567z"/>
			<path fill="#3C3533" d="M368.854,284.834h8.729c0.895,0,1.59-0.521,1.85-1.393l2.406-7.771c-3.238,1.702-6.496,3.37-9.717,5.108
				c-1.637,0.874-3.227,1.836-4.818,2.793C367.374,284.207,367.864,284.834,368.854,284.834z"/>
			<path fill="#3C3533" d="M460.479,283.138c0,1.017,0.682,1.696,1.695,1.696h8.391c1.014,0,1.695-0.68,1.695-1.696v-0.233
				c-3.904-5.113-7.725-10.293-11.781-15.297V283.138z"/>
			<path fill="#3C3533" d="M414.467,270.169c0.387,3.219,1.051,7.018,3.078,9.66c4.506,5.865,13.664,5.689,18.506,5.689
				c4.838,0,14,0.176,18.504-5.689c2.027-2.643,2.691-6.441,3.074-9.66c0.229-1.889,0.32-3.811,0.344-5.743
				c-2.262-2.949-4.445-5.965-6.889-8.783c-0.605-0.703-1.104-1.022-2.123-1.002c-0.906,0.013-1.814,0.019-2.721,0.024v12.747
				c0,2.12-0.285,3.698-0.848,4.695c-0.352,0.623-0.85,1.101-1.434,1.462c-0.318,0.151-0.672,0.279-1.068,0.379
				c-2.096,0.523-4.473,0.704-6.732,0.759c-0.037,0-0.074,0-0.107,0.002c-0.039-0.002-0.07-0.002-0.107-0.002
				c-2.262-0.055-4.639-0.235-6.732-0.759c-0.396-0.1-0.75-0.228-1.07-0.379c-0.582-0.361-1.078-0.839-1.432-1.462
				c-0.566-0.997-0.852-2.575-0.852-4.695v-12.639c-0.602,0-1.207,0-1.807,0.006c-1.799,0.003-3.447,0.313-5.213,0.97
				c-1.709,0.641-3.152,1.653-4.662,2.534c0.002,0.102,0.004,0.203,0.008,0.304C414.11,262.45,414.014,266.369,414.467,270.169z"/>
			<path fill="#3C3533" d="M480.028,267.049c0.602,0.086,2.162,0.413,2.902,3.384l4.18,11.814c0.123,0.412,0.361,0.879,0.727,1.426
				c0.191,0.288,0.77,1.161,1.725,1.161h9.268c0.824,0,1.426-0.571,1.426-1.357c0-0.423-0.227-0.774-0.613-1.235
				c-0.145-0.17-0.238-0.352-0.291-0.555l-2.189-6.728c-4.523-2.515-9.029-5.062-13.559-7.581
				c-7.189-3.999-14.418-7.942-21.57-12.017c-0.52-0.294-1.033-0.552-1.553-0.761v7.261c0.342,0.421,0.686,0.841,1.025,1.267
				c3.574,4.399,7.191,8.77,10.756,13.18v-9.259H480.028z"/>
			<path fill="#3C3533" d="M456.68,254.168c-1.824,0.335-1.957,0.255-0.76,1.878c0.648,0.885,1.322,1.753,1.996,2.613
				c0-0.024,0-0.049,0-0.072c0.043-1.48,0.076-3,0.059-4.521C457.559,254.058,457.127,254.087,456.68,254.168z"/>
			<path fill="#3C3533" d="M503.637,284.834h8.393c0.686,0,1.217-0.311,1.488-0.823c-3.205-1.939-6.533-3.663-9.836-5.455
				c-0.58-0.317-1.158-0.641-1.74-0.959v5.541C501.942,284.155,502.625,284.834,503.637,284.834z"/>
		</g>
	</g>
</g>
<g>
	<g> //Tuercas
		<path fill-rule="evenodd" clip-rule="evenodd" fill="#B4BFC8" d="M678.916,468.086c0.729,0.062,1.438,0.187,2.127,0.377
			l2.826-2.859l4.432,2.8l-1.383,3.783c0.469,0.541,0.885,1.129,1.242,1.759l4.018-0.021l1.146,5.11l-3.641,1.704
			c-0.057,0.717-0.184,1.428-0.371,2.125l2.859,2.818l-2.805,4.43l-3.777-1.381c-0.543,0.47-1.129,0.885-1.76,1.246l0.023,4.02
			l-5.111,1.146l-1.701-3.646c-0.729-0.06-1.432-0.18-2.125-0.368l-2.822,2.856l-4.428-2.802l1.371-3.778
			c-0.461-0.541-0.877-1.136-1.242-1.759l-4.014,0.017l-1.148-5.115l3.641-1.695c0.061-0.722,0.184-1.428,0.373-2.123l-2.861-2.829
			l2.805-4.42l3.781,1.375c0.539-0.463,1.131-0.884,1.76-1.244l-0.021-4.021l5.117-1.14L678.916,468.086L678.916,468.086z
			 M680.97,479.128L680.97,479.128c-0.365-1.658-2.012-2.695-3.664-2.328c-1.654,0.372-2.693,2.014-2.32,3.66
			c0.371,1.664,2.014,2.702,3.664,2.332C680.302,482.415,681.345,480.776,680.97,479.128z"/>
		<path fill-rule="evenodd" clip-rule="evenodd" fill="#292929" d="M568.041,157.664c0.721,0.058,1.438,0.18,2.123,0.373
			l2.826-2.859l4.43,2.8l-1.379,3.785c0.467,0.541,0.879,1.127,1.24,1.755l4.025-0.021l1.137,5.115l-3.637,1.7
			c-0.057,0.726-0.184,1.432-0.371,2.12l2.859,2.828l-2.807,4.425l-3.777-1.376c-0.543,0.465-1.127,0.879-1.764,1.245l0.021,4.011
			l-5.111,1.155l-1.699-3.642c-0.721-0.063-1.428-0.188-2.119-0.376l-2.826,2.856l-4.432-2.804l1.379-3.774
			c-0.459-0.546-0.883-1.131-1.238-1.764l-4.02,0.023l-1.148-5.113l3.643-1.691c0.064-0.731,0.182-1.438,0.369-2.129l-2.857-2.827
			l2.805-4.428l3.779,1.374c0.545-0.461,1.135-0.881,1.76-1.236l-0.018-4.024l5.109-1.138L568.041,157.664L568.041,157.664z
			 M570.089,168.698L570.089,168.698c-0.361-1.651-2.006-2.694-3.658-2.322c-1.658,0.37-2.699,2.013-2.32,3.66
			c0.371,1.658,2.01,2.702,3.658,2.326C569.427,171.992,570.464,170.349,570.089,168.698z"/>
		<path fill-rule="evenodd" clip-rule="evenodd" fill="#B4BFC8" d="M141.891,387.363c0.778,0.061,1.547,0.191,2.295,0.398
			l3.073-3.102l4.802,3.045l-1.493,4.096c0.498,0.59,0.95,1.227,1.34,1.907l4.368-0.019l1.239,5.548l-3.953,1.842
			c-0.062,0.778-0.193,1.552-0.398,2.301l3.097,3.062l-3.033,4.811l-4.104-1.495c-0.587,0.504-1.229,0.956-1.907,1.345l0.019,4.362
			l-5.539,1.248l-1.846-3.958c-0.783-0.056-1.557-0.201-2.306-0.4l-3.064,3.106l-4.806-3.049l1.493-4.099
			c-0.505-0.59-0.956-1.222-1.346-1.909l-4.358,0.025l-1.247-5.553l3.954-1.837c0.062-0.791,0.197-1.559,0.4-2.307l-3.104-3.059
			l3.049-4.81l4.092,1.497c0.594-0.508,1.231-0.956,1.911-1.352l-0.017-4.357l5.544-1.242L141.891,387.363L141.891,387.363z
			 M144.116,399.333L144.116,399.333c-0.399-1.798-2.182-2.931-3.978-2.521c-1.794,0.396-2.924,2.18-2.52,3.971
			c0.402,1.795,2.18,2.924,3.979,2.522C143.388,402.9,144.515,401.121,144.116,399.333z"/>
		<path fill-rule="evenodd" clip-rule="evenodd" fill="#00429B" d="M547.492,651.258c0.762,0.066,1.512,0.189,2.234,0.389
			l2.975-3.01l4.668,2.951l-1.449,3.979c0.484,0.57,0.928,1.193,1.303,1.861l4.238-0.025l1.211,5.389l-3.844,1.783
			c-0.057,0.76-0.188,1.514-0.387,2.242l3.008,2.975l-2.955,4.662l-3.975-1.449c-0.568,0.484-1.197,0.924-1.857,1.307l0.029,4.232
			l-5.395,1.205l-1.785-3.838c-0.762-0.055-1.506-0.188-2.232-0.387l-2.979,3.006l-4.662-2.953l1.451-3.973
			c-0.492-0.576-0.93-1.195-1.311-1.861l-4.227,0.025l-1.213-5.385l3.834-1.785c0.059-0.764,0.188-1.512,0.389-2.24l-3.01-2.98
			l2.959-4.658l3.975,1.451c0.574-0.488,1.193-0.932,1.857-1.312l-0.023-4.23l5.385-1.203L547.492,651.258L547.492,651.258z
			 M544.435,654.357L544.435,654.357c-5.096,1.146-8.307,6.199-7.16,11.291c1.141,5.098,6.203,8.305,11.299,7.164
			c5.092-1.141,8.301-6.199,7.154-11.299C554.589,656.418,549.529,653.209,544.435,654.357z"/>
		<path fill-rule="evenodd" clip-rule="evenodd" fill="#00429B" d="M724.152,278.376c0.85,0.062,1.676,0.207,2.479,0.425
			l3.322-3.347l5.176,3.288l-1.604,4.417c0.547,0.643,1.029,1.332,1.455,2.07l4.699-0.025l1.348,5.986l-4.266,1.989
			c-0.074,0.842-0.219,1.677-0.436,2.48l3.346,3.309l-3.283,5.187l-4.422-1.604c-0.635,0.537-1.326,1.025-2.066,1.45l0.025,4.705
			l-5.982,1.343l-1.988-4.267c-0.854-0.066-1.682-0.21-2.486-0.434l-3.311,3.352l-5.189-3.291l1.611-4.416
			c-0.537-0.635-1.023-1.324-1.455-2.068l-4.701,0.025l-1.346-5.99l4.27-1.983c0.062-0.846,0.207-1.677,0.434-2.489l-3.346-3.307
			l3.283-5.185l4.422,1.608c0.637-0.541,1.322-1.031,2.055-1.45l-0.021-4.709l5.996-1.341L724.152,278.376L724.152,278.376z
			 M720.75,281.817L720.75,281.817c-5.666,1.277-9.229,6.899-7.955,12.562c1.27,5.674,6.893,9.227,12.555,7.957
			c5.674-1.274,9.234-6.899,7.961-12.553C732.039,284.109,726.416,280.546,720.75,281.817z"/>
		<path fill-rule="evenodd" clip-rule="evenodd" fill="#00429B" d="M364.931,121.762c1.01,0.076,2.002,0.252,2.967,0.517
			l3.945-3.988l6.178,3.909l-1.916,5.276c0.646,0.761,1.221,1.583,1.729,2.459l5.613-0.025l1.598,7.134l-5.082,2.375
			c-0.078,1.007-0.252,2.002-0.516,2.964l3.984,3.948l-3.916,6.177l-5.268-1.92c-0.758,0.65-1.582,1.229-2.459,1.731l0.027,5.616
			l-7.139,1.592l-2.367-5.076c-1.012-0.09-2.006-0.252-2.964-0.517l-3.945,3.988l-6.183-3.921l1.916-5.269
			c-0.648-0.764-1.225-1.584-1.729-2.462l-5.611,0.032l-1.604-7.143l5.088-2.373c0.08-1.002,0.25-1.998,0.514-2.958l-3.985-3.949
			l3.911-6.177l5.274,1.915c0.757-0.646,1.579-1.229,2.454-1.731l-0.021-5.609l7.138-1.604L364.931,121.762L364.931,121.762z
			 M360.875,125.871L360.875,125.871c-6.754,1.514-11.004,8.217-9.491,14.975c1.519,6.756,8.222,11.011,14.976,9.49
			c6.764-1.514,11.012-8.217,9.488-14.979C374.333,128.605,367.63,124.359,360.875,125.871z"/>
		<path fill-rule="evenodd" clip-rule="evenodd" fill="#D9E4E8" d="M194.677,183.285c0.728,0.06,1.434,0.187,2.124,0.371
			l2.828-2.849l4.423,2.796l-1.372,3.778c0.461,0.548,0.881,1.127,1.241,1.761l4.016-0.025l1.146,5.119l-3.638,1.696
			c-0.055,0.723-0.187,1.429-0.373,2.127l2.86,2.823l-2.807,4.428l-3.771-1.377c-0.549,0.465-1.136,0.878-1.769,1.243l0.025,4.014
			l-5.114,1.144l-1.7-3.637c-0.718-0.055-1.435-0.186-2.121-0.37l-2.825,2.856l-4.428-2.808l1.38-3.772
			c-0.468-0.545-0.885-1.135-1.242-1.768l-4.02,0.027l-1.144-5.115l3.638-1.697c0.061-0.719,0.183-1.428,0.364-2.117l-2.852-2.826
			l2.808-4.431l3.771,1.375c0.544-0.461,1.131-0.882,1.767-1.237l-0.021-4.018l5.105-1.156L194.677,183.285L194.677,183.285z
			 M196.732,194.323L196.732,194.323c-0.369-1.659-2.015-2.694-3.66-2.323c-1.655,0.365-2.695,2.013-2.323,3.664
			c0.366,1.653,2.011,2.695,3.664,2.319C196.067,197.613,197.105,195.97,196.732,194.323z"/>
		<path opacity="0.75" fill-rule="evenodd" clip-rule="evenodd" fill="#005CFF" d="M212.623,587.086
			c1.013,0.078,2,0.254,2.969,0.518l3.945-3.984l6.182,3.916l-1.921,5.266c0.644,0.76,1.223,1.576,1.732,2.459l5.609-0.029
			l1.599,7.137l-5.083,2.367c-0.079,1.018-0.259,2.004-0.517,2.971l3.988,3.939l-3.916,6.189l-5.27-1.922
			c-0.764,0.646-1.579,1.225-2.465,1.73l0.033,5.613l-7.141,1.602l-2.37-5.088c-1.009-0.072-2-0.252-2.965-0.518l-3.942,3.99
			l-6.186-3.92l1.922-5.266c-0.645-0.762-1.229-1.584-1.731-2.465l-5.607,0.033l-1.601-7.135l5.083-2.375
			c0.079-1.008,0.253-2.002,0.512-2.967l-3.984-3.941l3.912-6.176l5.275,1.91c0.756-0.646,1.579-1.229,2.455-1.732l-0.027-5.604
			l7.139-1.602L212.623,587.086L212.623,587.086z M208.565,591.197L208.565,591.197c-6.754,1.516-10.995,8.225-9.483,14.977
			c1.518,6.75,8.218,11.002,14.976,9.484c6.759-1.516,11.001-8.225,9.489-14.971C222.028,593.93,215.323,589.684,208.565,591.197z"
			/>
	</g>


</g>
</svg>
