<?xml version="1.0" standalone="no"?>
<?xml-stylesheet type="text/css" media="screen" href="../css/style.css"?>
<svg
    class="grafico_incubacion" xmlns="http://www.w3.org/2000/svg" version="1.1" viewBox="0 0 1100 486" xml:space="preserve">
    
     <g id="phone" style="cursor: pointer;" onclick="window.parent.slide_Servicios('incubacion_Empresas');">
        <rect x="80.9" y="351.6" class="st0" width="71.2" height="19.2"/>
         <text transform="matrix(1 0 0 1 88.7866 365.2017)" class="st4 st6">LEER MÁS</text>
    </g>
    <text transform="matrix(1 0 0 1 76.6147 143.2051)">
        <tspan x="0" y="0" class="st1 st2">INCUBACIÓN</tspan>
        <tspan x="0" y="53.6" class="st1 st2">Y FINANCIAMIENTO</tspan>
        <tspan x="0" y="107.1" class="st3 st2">DE EMPRESAS</tspan>
    </text>
    <text transform="matrix(1 0 0 1 80.0005 297.9912)">
        <tspan x="0" y="0" class="st4 st5">Si tienes un buen proyecto en mente o si ya cuentas con un</tspan>
        <tspan x="0" y="16.8" class="st4 st5">negocio que requiere de apoyo para proyectarse exitosamente,</tspan>
        <tspan x="0" y="33.6" class="st4 st5">haz llegado al lugar indicado.</tspan>
    </text>
    
    <g class="st7">
        <circle class="st8" cx="852.3" cy="212.5" r="22.4"/>
        <path class="st9" d="M847 190.3c-12.3 2.9-19.9 15.3-17 27.6 2.9 12.3 15.3 19.9 27.6 17 12.3-2.9 19.9-15.3 17-27.6C871.7 195 859.4 187.4 847 190.3zM857.4 233.9c-11.8 2.8-23.5-4.4-26.3-16.2 -2.8-11.8 4.5-23.6 16.2-26.4 11.8-2.8 23.6 4.5 26.4 16.2C876.4 219.3 869.2 231.1 857.4 233.9z"/>
        <path class="st10" d="M844.1 192.1c0 0-7.3 2.8-11 9.9 0 0 3-5 5.4-5.6l0.6 0.1c0 0 0 0.2-0.1 0.3 -0.1 0.1-0.3 0.6-0.2 0.7 0 0.1 0.1 0.4 0.1 0.4l-0.1 0.3c0 0-0.2 0.1-0.2 0.2 0 0.1-0.1 0.1-0.1 0.3 0 0.2 0.1 0.4 0.1 0.4l0.1 0.4 -0.1 0.3 -0.3 0.3c0 0-0.4 0.2-0.5 0.1 -0.2 0-0.3-0.3-0.3-0.3l0.4-0.4c0 0 0-0.1-0.1-0.1 -0.1 0-0.2-0.3-0.4-0.2 -0.2 0.1-0.5 0.5-0.5 0.5l-0.3 0.4c0 0-0.1 0.5 0 0.5 0.1 0 0.3 0.1 0.3 0.1s0.1 0.1 0.1 0.2c0 0.1 0 0.4 0 0.4s0 0.1-0.3 0.2c-0.3 0-0.5 0-0.7 0 -0.2 0-0.3-0.1-0.5 0 -0.1 0.1-0.2 0.1-0.2 0.2 0 0.1-0.5 0.5-0.5 0.5s-0.2 0.1-0.1 0.2c0 0.1 0 0.5 0 0.5s-0.1 0.2-0.5 0.4c-0.3 0.2-0.4 0.3-0.4 0.3l-0.1 0.4c0 0-0.2 0.2-0.3 0.5 -0.1 0.3-0.6 0.8-0.6 0.8 -0.1 0-0.2 0.3-0.2 0.5 0 0.2 0.1 0.5 0 0.6 -0.1 0.1-0.1 0.4-0.1 0.6 0 0.2 0 0.5-0.1 0.6 -0.1 0.1-0.2 0.3-0.3 0.3 -0.1 0-0.5 0.3-0.6 0.4 -0.1 0.1-0.1 0.4-0.1 0.5 0 0.1 0.3 0.2 0.4 0.2 0.1 0 1.3-0.2 1.3-0.2s1.1 0.2 1.1 0.3c0 0.1 0.1 0.5 0.1 0.5l-0.6 0.2 0 0.1 0.2 0.2 0.1 0.1c0 0-0.1 0.3-0.1 0.3 0 0.1-0.1 0.3-0.2 0.3 -0.1 0-0.1 0-0.2-0.2 -0.1-0.2-0.1-0.2-0.3-0.3 -0.2 0-0.3 0.2-0.4 0.2 -0.1 0-0.2 0-0.4-0.1 -0.2-0.1-0.1 0.1-0.2-0.1 0-0.2 0-0.4 0-0.5 -0.1-0.1-0.3-0.3-0.4-0.3 -0.1 0 0.1 0.2-0.1 0 -0.2-0.2-0.3-0.2-0.4-0.2 -0.1 0-0.2 0.1-0.2 0 0-0.1 0-0.4 0-0.5 0-0.1 0-0.3 0-0.5 0-0.1-0.1-0.7-0.1-0.7s-0.4 1.5-0.4 2.6c0 0 0.3-0.1 0.3 0.1 0 0.2 0.1 0.3 0.2 0.5 0 0.2 0 0.1 0.1 0.7 0.1 0.5 0.3 0.6 0.3 0.8 0 0.2-0.1 0.4-0.1 0.7 0 0.2 0.3 0.7 0.4 0.8 0.1 0.1 0.1 0.1 0.2 0.2 0.1 0.1-0.1 0.6 0.1 0.1 0.2-0.5 0.2-0.7 0.2-0.7l0.1-0.2c0 0-0.1-0.3 0.3-0.3 0.4 0 0.4-0.1 0.5 0 0.1 0.1 0 0.5 0.2 0.5 0.2 0 0.6-0.4 0.8-0.4 0.1 0 0.3 0 0.4 0.2 0.1 0.2 0.3 0.5 0.5 0.6 0.2 0 0.2 0.4 0.3 0.5 0.1 0.2 0.6 0.2 0.7 0.2 0.1 0 0.6-0.1 0.8 0 0.2 0 0.1 0.3 0.4 0.3 0.3 0 0.5 0.5 0.5 0.5s0.2 0.5 0.2 0.6c0 0.2 0.1 0.4 0.2 0.4 0.2 0 0.6 0 0.6 0s-0.2 0.4 0.2 0.4c0.4 0 0.8 0.1 0.9 0.1 0.1 0-0.1 0.4 0.3 0.3 0.4-0.1 0.8-0.3 1.1-0.2 0.2 0.1 0.1 0.4 0.8 0.6 0.6 0.2 0.8 0.2 1 0.3 0.2 0 0.4-0.1 0.4 0.4 0 0.4 0 0.7-0.1 0.9 -0.2 0.2-0.3 0.8-0.4 1 -0.1 0.2-0.2 0.5 0 0.8 0.2 0.2 0.4 0.5 0.5 0.7 0 0.2 0.2 0.7 0.2 0.9 -0.1 0.2-0.2 0.7-0.2 0.7s0.4 0.2 0.2 0.6c-0.2 0.3-0.5 0.7-0.7 0.9 -0.2 0.1-0.5 0.6-0.5 0.6s0.2 0.8 0.2 1c0 0.2-0.5 1.7-0.1 2 0.3 0.2 0.5 0.6 0.4 0.8 0 0.2-0.1 0.2-0.2 0.4 0 0.2-0.6 0.2-0.1 0.6 0.4 0.4 0.6 0.5 0.8 0.7 0.2 0.2 0.2 0.4 0.5 0.6 0.3 0.2 0.4 0.5 0.7 0.6 0.3 0.1 0.6 0.2 0.7 0.5 0.1 0.2 0.7 0.7 0 0.4 -0.7-0.3-0.1 0-1-0.5 -0.9-0.5-1.1-0.1-1.5-0.5 -0.4-0.3 0.4 1-0.6-0.6 -1.1-1.6-1.2-1.3-1.4-1.6 -0.3-0.3 0 0-0.7-0.7 -0.7-0.7-0.1-0.3-0.7-0.7 -0.5-0.4-0.4 0.3-0.8-0.6 -0.4-0.9-0.3-0.3-0.9-1.3 -0.5-1.1-0.1-1.2-0.8-1.6 -0.7-0.4-0.6-0.1-0.9-0.5 -0.3-0.3 0.1-0.1-0.7-0.9 -0.8-0.8-1.6-1-2-2.7 -0.4-1.6-0.4-1.9-0.4-1.9s-1-0.5-0.9-1.5c0-1 0.2-0.7 0-1 -0.2-0.3-0.3-0.2-0.6-0.5 -0.4-0.3-0.4-0.3-0.5-0.5 -0.1-0.2-0.3-0.7-0.3-0.7l-0.2 0.2c0 0 3 22.1 25.2 20.1 0 0-5.2 0.1-5.9-0.8 0 0-0.3-0.9-0.1-0.9 0.2 0 0.5 0 0.8-0.3 0.2-0.3 0.5-0.7 0.5-0.7l0.1 0.4c0 0-0.3 0.1 0.6-0.3 0.9-0.4 1-0.3 1.3-0.5 0.3-0.2 0.5-1.1 0.9-0.7 0.3 0.4-0.2 0.3 0.3 0.4 0.5 0.1 1.3-0.4 1.3-0.4s1.5-0.2 1.6-0.4c0.1-0.2 0.1-0.4 0.3-0.4 0.3 0 0.5 0.4 0.5 0.4l-0.7 0.7 -0.6 0.7c0 0-0.3 0.2 0 0.3 0.3 0.1 0.5 0 0.9 0 0.4 0 1.4 0.4 1.5 0 0.1-0.5 0.1-0.5 0.2-0.8 0.1-0.3 0-0.6 0.3-0.7 0.4-0.1 0.7-0.1 0.7-0.1l-0.2 0.7c0 0 0.6-0.2 0.9-0.3 0.3-0.1 0.4 0.3 0.7-0.1 0.3-0.4 0.3-0.5 0.7-0.6 0.3-0.1 0.8-0.4 1-0.4 0.2 0 0.5 0 0.6 0 0.2 0 1.1 0.3 1.2 0.2 0.1-0.1 1.1-0.3 1.1-0.3s-2 2.9-7.2 4.3c0 0 12-2.3 15.9-15.5 3.9-13.2-4.3-26.9-20.8-28.5 0 0 12.4 1.5 18 11.7l-0.1 0.2c-0.4-0.2-0.3-0.1-0.7-0.5 -0.4-0.4-0.2-0.4-0.4-0.7 -0.3-0.3-0.2-0.1-0.5-0.4 -0.3-0.3-0.4-0.2-0.6-0.4 -0.3-0.2-0.6-0.8-0.8-0.9 -0.2-0.2-0.7-0.1-0.9-0.1 -0.2 0-0.5-0.2-0.6 0.1 0 0.3 0.1 0.7 0.1 0.7l0.2 0.8c0 0 0.2 0.8 0.2 1 0 0.2 0.2 0.8 0.2 0.8s0.4 0.5 0.2 0.7c-0.2 0.2-1.1 0.6-1.1 0.6s-0.4-0.3-0.7-0.7c-0.3-0.3-0.9-0.3-1.1-0.4 -0.1-0.1 0.1-0.5-0.3-0.8 -0.4-0.3-0.1-0.3-0.6-0.6 -0.5-0.3-0.5-0.3-0.5-0.3s-1-0.1-0.6 0.3c0.4 0.4 0.2 1.1 0.5 1.1 0.3 0 0.4-0.3 0.7 0.2 0.3 0.4 0.4 0.6 0.6 0.7 0.2 0.1 0.4 0.8 0.6 0.8 0.2 0 0.8-0.2 0.8 0.1 0 0.3-0.2 0.7 0.2 0.7 0.4 0 0.5 0.2 0.7 0.1 0.2-0.1 0.1 0 0.4-0.2 0.3-0.2 0.7-0.3 0.7-0.3s0.5 0.2 0.6 0.4c0 0.2 0.1 1.1 0.1 1.1l-0.3 1c0 0 0.4 1.5 0.2 1.6 -0.2 0.1-0.4 0.8-0.5 0.9 -0.1 0.1 0.1 1.2 0.1 1.2l-0.3 0.7c0 0 0.1 0.8 0.2 1 0.1 0.2 0.4 1 0.4 1.4 0 0.4-0.5 1-0.5 1s0.9 0.5 0.5 0.7c-0.4 0.2-0.6 0.9-0.7 1.1 -0.1 0.2-1.4 0.8-1.7 0.9 -0.2 0.1-2.2 0.6-2.2 0.8 0 0.2 0.2 0.8 0.2 0.8l1 1 0 0.9c0 0 0.6 0.4 0.3 0.6 -0.3 0.1-1 0.7-1.1 0.9 -0.1 0.2-0.7 0.7-1 0.8 -0.2 0.1 0.4 0.7-0.2 0 -0.6-0.6-0.1-0.2-0.7-1 -0.6-0.7-0.4-0.1-0.5-0.7 -0.1-0.6 0-0.1-0.1-0.6 -0.2-0.6 0.1-0.2-0.3-0.8 -0.5-0.6-0.4-0.4-0.9-0.7 -0.5-0.3-0.7 0.2-0.6-0.6 0.1-0.7 0.1 0 0.1-0.7 0-0.7-0.2-0.8 0.1-1.2 0.3-0.4 0.7-0.5 0.5-0.9 -0.2-0.4-0.2-0.5-0.4-0.8 -0.2-0.2-0.7-0.5-0.8-0.7 -0.1-0.1-0.1 0-0.5-0.4 -0.4-0.4-0.7-0.6-0.7-0.6s-0.4-1-0.5-1.5c-0.1-0.4-0.1 0.3-0.1-0.4 0-0.7-0.1-1.1-0.1-1.1s-0.9-0.3-1.2-0.2c-0.3 0.1-0.1 0.6-0.7 0.3 -0.5-0.2-0.5-0.5-0.7-0.6 -0.2-0.1-0.5 0-0.7 0.2 -0.2 0.3-0.8 0.4-1.2 0.7 -0.4 0.3-0.6 0.3-1.2 0.4 -0.6 0.1-1.3 0.5-1.8 0.4 -0.5-0.1-0.5 0.2-0.8-0.2 -0.3-0.5-0.1-0.5-0.6-0.6 -0.5-0.2-0.6 0.1-0.7-0.4 -0.2-0.5 0.1-0.4-0.3-0.7 -0.5-0.3 0.3 0.2-0.5-0.3 -0.7-0.5-0.8 0.1-0.7-0.5 0.1-0.6 0.3-0.3 0.2-0.9 -0.1-0.6 1 0 0.1-1.1 -0.8-1.1-0.9-0.8-0.6-1.9 0.3-1 0.9-1.5 0.9-1.7 0.1-0.2 0.1-0.8 0.3-1 0.2-0.2 0-0.3 0.5-0.4 0.5-0.1 0.9-0.4 1.2-0.8 0.2-0.4 0.5-0.9 0.7-1 0.2-0.1 0.1 0 0.5-0.2 0.4-0.2 0.5-0.3 0.8-0.4 0.3-0.1-0.3 0.2 0.5-0.2 0.8-0.4 0.6-0.3 0.8-0.4 0.2 0 0.1 0 0.5 0 0.4 0 0.1-0.8 0.4 0 0.2 0.8 0 1.2 0.6 1.1 0.6-0.1 0 0 0.6-0.1 0.6-0.1 0.5 0 0.8 0.1 0.3 0.1 0.5 0.2 1 0.1 0.5-0.1-0.1 0.7 0.5-0.1 0.5-0.8-0.7-0.6 0.5-0.8 1.2-0.2 1.4 0 1.6-0.1 0.2-0.1 0.3 0 0.7-0.3 0.4-0.4 0.5-0.4 0.7-0.3 0.2 0.1 0.3 0.5 0.4 0 0.1-0.5 0.5-0.5-0.1-0.6 -0.7-0.2-0.8 0.2-1-0.1 -0.2-0.4 0.4-0.4-0.2-0.4 -0.6 0-0.5 0-1 0 -0.5-0.1-0.8 0.7-1.1 0.3 -0.3-0.4-1 0.5-0.3-0.4 0.7-1 0.3-1.2 0.9-1.2 0.6 0 0.6 0.6 0.9 0.2 0.3-0.4 0.9-0.8 0.1-1.1 -0.8-0.3-0.3-0.2-1-0.4 -0.7-0.1-1 1.5-1.4 1.3 -0.4-0.1-0.5-0.2-0.7-0.1 -0.2 0.2 0 0.7 0 1.1 0 0.4 0.5 0.4-0.3 0.3 -0.7-0.1 0.7-0.3-0.9-0.5 -1.6-0.2-2.1 0.1-2.2 0.3 -0.2 0.3-0.5 0.3-0.6 0.5 -0.1 0.2 0.6 0.4-0.1 0.2 -0.7-0.2-1.2 0.5-1.2 0.5s-0.2-0.1-0.4 0.2c-0.2 0.3-0.7 0.5-1 0.5 -0.3 0-0.9 0.3-0.6-0.5 0.4-0.9 0.1-0.3 0.9-0.9 0.8-0.6 2.1-0.9 0.9-0.9 -1.2 0 0.6-0.4-1.1-0.8 -1.6-0.4-1.5 0.6-1.6-0.4 -0.2-1-0.3-1-0.6-0.9 -0.3 0.1-1.2 0.6-1.5 0.7 -0.3 0.1 0.1 0.3-0.6 0.1 -0.8-0.2-0.9 0.4-0.8-0.2 0.1-0.7 0.1-0.8 0.5-1.2 0.3-0.5-0.1-1.8 1.1-1.5 1.1 0.3 0.7 0.2 1.5 0.1 0.8-0.1 1.2-0.4 1.1-0.5 0-0.1-1.1-0.4-1.1-0.4s-0.3 0.2-0.2 0c0.1-0.2 0.2-0.5 0.2-0.5l-0.4-0.2C847.7 191.1 844.8 191.8 844.1 192.1z"/>
    </g>
    <g class="st7">
        <circle class="st8" cx="592.6" cy="223.8" r="22.4"/>
        <path class="st9" d="M603.1 203.5c-11.3-5.8-25.1-1.3-30.9 10 -5.8 11.3-1.3 25.1 10 30.9 11.3 5.8 25.1 1.3 30.9-10C618.8 223.1 614.4 209.3 603.1 203.5zM582.7 243.4c-10.8-5.5-15-18.7-9.5-29.4 5.5-10.8 18.7-15 29.4-9.5 10.8 5.5 15 18.7 9.5 29.4C606.6 244.6 593.4 248.9 582.7 243.4z"/>
        <path class="st10" d="M599.7 202.9c0 0-7.3-2.6-14.8 0.4 0 0 5.5-1.9 7.7-0.8l0.4 0.5c0 0-0.2 0.2-0.3 0.2 -0.1 0-0.6 0.3-0.6 0.4 0 0.1-0.2 0.4-0.2 0.4l-0.3 0.1c0 0-0.2 0-0.3 0 -0.1 0.1-0.2 0-0.3 0.2 -0.1 0.2-0.1 0.4-0.1 0.4l-0.2 0.4 -0.2 0.2 -0.4 0c0 0-0.4-0.1-0.5-0.3 -0.1-0.1 0-0.5 0-0.5l0.5-0.1c0 0 0.1-0.1 0-0.2 -0.1-0.1 0.1-0.3-0.2-0.4 -0.2-0.1-0.7 0-0.7 0l-0.5 0.1c0 0-0.4 0.3-0.3 0.4 0.1 0 0.2 0.2 0.2 0.2s0 0.1-0.1 0.3c-0.1 0.1-0.3 0.3-0.3 0.3s-0.1 0.1-0.3-0.1c-0.2-0.2-0.4-0.3-0.5-0.4 -0.1-0.1-0.2-0.3-0.4-0.3 -0.2 0-0.2 0-0.3 0.1 -0.1 0.1-0.7 0.1-0.7 0.1s-0.2 0-0.3 0.1c0 0.1-0.4 0.4-0.4 0.4s-0.2 0.1-0.6 0c-0.3-0.1-0.5 0-0.5 0l-0.3 0.3c0 0-0.3 0-0.6 0.2 -0.3 0.1-0.9 0.2-1 0.2 -0.1 0-0.4 0.1-0.5 0.3 -0.2 0.2-0.3 0.4-0.4 0.5 -0.1 0.1-0.3 0.3-0.5 0.4 -0.1 0.2-0.4 0.3-0.5 0.4 -0.1 0-0.3 0.1-0.4 0.1 -0.1 0-0.6-0.1-0.8-0.1 -0.2 0-0.4 0.2-0.4 0.3 0 0.1 0.1 0.3 0.2 0.4 0.1 0 1.1 0.7 1.1 0.7s0.7 0.8 0.7 0.9c0 0.1-0.2 0.4-0.2 0.4l-0.5-0.2 -0.1 0.1 0 0.3 0 0.2c0 0-0.2 0.2-0.3 0.2 -0.1 0.1-0.3 0.2-0.3 0.1 -0.1-0.1 0 0 0-0.3 0-0.2 0.1-0.3-0.1-0.4 -0.1-0.1-0.4-0.1-0.4-0.1 0-0.1-0.2-0.1-0.2-0.3 -0.1-0.2-0.2 0-0.1-0.2 0.1-0.2 0.3-0.2 0.3-0.4 0-0.1 0-0.4-0.1-0.5 -0.1 0-0.1 0.2-0.1 0 0-0.3-0.1-0.4-0.2-0.4 -0.1 0-0.2 0-0.1-0.1 0.1-0.1 0.2-0.3 0.3-0.4 0.1-0.1 0.2-0.3 0.3-0.4 0-0.1 0.4-0.6 0.4-0.6s-1.3 0.9-2 1.7c0 0 0.3 0.1 0.2 0.3 -0.1 0.1-0.1 0.3-0.2 0.5 -0.1 0.1-0.1 0.1-0.4 0.6 -0.3 0.5-0.2 0.7-0.3 0.8 -0.1 0.1-0.3 0.3-0.5 0.5 -0.1 0.2-0.2 0.7-0.2 0.8 0 0.1 0 0.2 0 0.3 0 0.1-0.4 0.4 0 0.1 0.4-0.2 0.6-0.4 0.6-0.4l0.3-0.1c0 0 0.1-0.2 0.4 0 0.3 0.2 0.3 0.2 0.4 0.3 0 0.2-0.3 0.4-0.2 0.5 0.1 0.1 0.7 0.1 0.8 0.2 0.1 0.1 0.2 0.2 0.2 0.5 0 0.2-0.1 0.6 0 0.7 0.1 0.1-0.1 0.4-0.1 0.6 0 0.2 0.3 0.6 0.4 0.6 0.1 0 0.5 0.3 0.6 0.5 0.1 0.1-0.1 0.3 0.1 0.5 0.2 0.2 0 0.7 0 0.7s-0.1 0.5-0.3 0.6c-0.1 0.1-0.2 0.3-0.1 0.4 0.1 0.1 0.5 0.4 0.5 0.4s-0.4 0.2-0.1 0.5c0.3 0.3 0.6 0.6 0.6 0.7 0.1 0.1-0.4 0.2 0 0.4 0.4 0.2 0.8 0.3 0.9 0.6 0.1 0.3-0.2 0.4 0.2 0.9 0.4 0.5 0.5 0.7 0.6 0.8 0.1 0.1 0.4 0.2 0.1 0.6 -0.2 0.3-0.4 0.6-0.7 0.6 -0.3 0.1-0.8 0.4-1 0.5 -0.2 0.1-0.5 0.3-0.5 0.6 0 0.3 0 0.7-0.1 0.8 -0.1 0.2-0.3 0.7-0.4 0.8 -0.2 0.1-0.6 0.4-0.6 0.4s0.2 0.5-0.2 0.6c-0.4 0.1-0.9 0.2-1.1 0.2 -0.2 0-0.8 0.1-0.8 0.1s-0.4 0.8-0.5 0.9c-0.1 0.1-1.5 1-1.4 1.4 0.1 0.4 0 0.7-0.2 0.9 -0.2 0.2-0.2 0.1-0.4 0.2 -0.1 0.1-0.5-0.2-0.5 0.3 0.1 0.6 0.2 0.8 0.2 1.1 0 0.3-0.1 0.4 0 0.7 0.1 0.3 0 0.6 0.2 0.9 0.1 0.3 0.3 0.5 0.2 0.8 -0.1 0.2 0.1 1-0.3 0.3 -0.4-0.7 0-0.1-0.5-1 -0.4-1-0.7-0.8-0.8-1.3 -0.1-0.5-0.3 1-0.1-0.8 0.2-1.9 0-1.8 0-2.2 0-0.4 0 0-0.1-1 0-1 0.1-0.3 0-1 -0.1-0.7-0.5 0-0.2-1 0.3-1-0.1-0.4 0.2-1.6 0.3-1.2 0.7-1 0.4-1.8 -0.3-0.8-0.4-0.5-0.4-1 0-0.4 0.1 0 0-1.1 -0.1-1.1-0.6-1.8 0.2-3.3 0.8-1.5 0.9-1.7 0.9-1.7s-0.4-1 0.3-1.7c0.7-0.7 0.6-0.4 0.7-0.7 0-0.3-0.1-0.3-0.1-0.8 -0.1-0.5-0.1-0.5-0.1-0.7 0-0.2 0.2-0.8 0.2-0.8l-0.3 0.1c0 0-12.1 18.7 6.1 31.7 0 0-4-3.3-4-4.4 0 0 0.3-0.9 0.5-0.8 0.2 0.1 0.4 0.4 0.8 0.3 0.4-0.1 0.9-0.2 0.9-0.2l-0.1 0.4c0 0-0.3-0.1 0.7 0.2 1 0.3 0.9 0.4 1.3 0.4 0.4 0 1.1-0.5 1.1 0 0 0.5-0.3 0.1 0 0.5 0.3 0.4 1.3 0.5 1.3 0.5s1.3 0.8 1.5 0.7c0.2-0.1 0.3-0.3 0.5-0.1 0.2 0.2 0.2 0.6 0.2 0.6l-1 0 -1 0.2c0 0-0.4-0.1-0.2 0.2 0.2 0.3 0.4 0.3 0.7 0.5 0.3 0.2 0.8 1.2 1.2 0.9 0.4-0.3 0.4-0.3 0.7-0.5 0.3-0.2 0.4-0.5 0.7-0.3 0.3 0.2 0.6 0.4 0.6 0.4l-0.6 0.5c0 0 0.6 0.2 0.8 0.4 0.2 0.1 0.1 0.5 0.6 0.4 0.5-0.2 0.5-0.1 0.9 0 0.3 0.1 0.9 0.2 1 0.3 0.1 0.1 0.4 0.3 0.5 0.4 0.1 0.1 0.6 0.9 0.8 0.9 0.2 0 1 0.5 1 0.5s-3.4 0.9-8.3-1.5c0 0 10.6 6.1 22.2-1.4 11.5-7.5 14.3-23.2 2.7-35.1 0 0 8.5 9.2 6.1 20.6l-0.2 0.1c-0.1-0.4-0.2-0.3-0.2-0.9 0-0.6 0.1-0.4 0.1-0.8 0-0.4-0.1-0.2-0.2-0.6 -0.1-0.4-0.1-0.4-0.2-0.7 -0.1-0.3 0-1 0-1.2 0-0.3-0.4-0.5-0.6-0.7 -0.2-0.1-0.3-0.5-0.5-0.3 -0.2 0.2-0.3 0.6-0.3 0.6l-0.4 0.7c0 0-0.4 0.7-0.5 0.9 -0.1 0.2-0.4 0.7-0.4 0.7s0 0.7-0.3 0.7c-0.2 0-1.2-0.3-1.2-0.3s-0.1-0.5-0.1-0.9c0-0.4-0.5-0.8-0.6-1 0-0.2 0.4-0.3 0.3-0.9 -0.1-0.5 0.2-0.3 0-0.8 -0.2-0.5-0.2-0.5-0.2-0.5s-0.7-0.7-0.7-0.1c0 0.6-0.6 1-0.3 1.1 0.2 0.2 0.5 0.1 0.4 0.6 0 0.5-0.1 0.7 0 0.9 0.1 0.2-0.2 0.8 0 1 0.2 0.1 0.7 0.4 0.5 0.6 -0.2 0.2-0.6 0.4-0.3 0.7 0.3 0.3 0.3 0.4 0.5 0.5 0.2 0 0.1 0.1 0.5 0.1 0.4 0 0.8 0.2 0.8 0.2s0.3 0.5 0.2 0.7c-0.1 0.1-0.6 0.9-0.6 0.9l-0.8 0.6c0 0-0.7 1.4-0.9 1.3 -0.2-0.1-0.8 0.3-1 0.4 -0.2 0-0.7 0.9-0.7 0.9l-0.7 0.3c0 0-0.4 0.7-0.5 0.9 0 0.2-0.3 1-0.6 1.3 -0.3 0.3-1 0.4-1 0.4s0.4 1-0.1 0.9c-0.4-0.1-1.1 0.3-1.3 0.4 -0.2 0.1-1.6-0.3-1.9-0.4 -0.3-0.1-2.1-0.9-2.2-0.8 -0.1 0.1-0.4 0.7-0.4 0.7l0.1 1.4 -0.6 0.6c0 0 0.2 0.7-0.1 0.6 -0.3-0.1-1.3-0.1-1.5 0 -0.2 0.1-1 0.1-1.2 0 -0.2-0.1-0.2 0.7-0.2-0.1 0-0.8 0-0.3 0.1-1.2 0.1-0.9-0.2-0.3 0.1-0.9 0.3-0.6 0.1 0 0.3-0.6 0.2-0.5 0.2-0.1 0.2-0.8 0-0.8 0-0.5-0.2-1.1 -0.2-0.6-0.7-0.3-0.1-0.8 0.5-0.5 0.1 0 0.5-0.5 0.4-0.5 0.3-0.7 0.8-0.8 0.5-0.1 0.9 0 1-0.4 0.1-0.4 0.2-0.5 0.2-0.8 0-0.3-0.2-0.8-0.1-1 0-0.2 0-0.1-0.1-0.6 -0.1-0.6-0.1-0.9-0.1-0.9s0.4-1 0.6-1.4c0.2-0.4-0.3 0.2 0.2-0.4 0.5-0.5 0.7-0.9 0.7-0.9s-0.5-0.8-0.8-0.9c-0.3-0.1-0.5 0.3-0.7-0.2 -0.3-0.5 0-0.7-0.1-0.9 -0.1-0.2-0.3-0.4-0.7-0.3 -0.3 0.1-0.8-0.2-1.4-0.2 -0.5 0-0.6-0.1-1.2-0.4 -0.6-0.3-1.3-0.4-1.6-0.9 -0.3-0.5-0.5-0.1-0.5-0.7 0-0.6 0.2-0.4-0.1-0.9 -0.3-0.5-0.5-0.3-0.3-0.8 0.2-0.4 0.4-0.2 0.2-0.8 -0.1-0.5 0.1 0.3-0.1-0.5 -0.2-0.8-0.7-0.5-0.2-0.8 0.4-0.4 0.4 0 0.7-0.6 0.3-0.6 0.7 0.7 0.8-0.7 0.1-1.4-0.1-1.2 0.8-1.8 0.9-0.6 1.6-0.6 1.8-0.7 0.2-0.1 0.6-0.5 0.9-0.6 0.3 0 0.2-0.3 0.6 0 0.4 0.3 1 0.3 1.4 0.2 0.4-0.1 1-0.4 1.2-0.3 0.2 0 0.1 0.1 0.5 0.2 0.5 0.1 0.6 0.1 0.9 0.3 0.3 0.1-0.3-0.1 0.5 0.2 0.9 0.3 0.7 0.2 0.9 0.3 0.2 0.1 0.1 0.1 0.4 0.3 0.3 0.2 0.6-0.5 0.3 0.2 -0.3 0.7-0.8 0.9-0.3 1.2 0.5 0.3 0 0 0.5 0.3 0.6 0.3 0.4 0.3 0.6 0.6 0.2 0.3 0.3 0.5 0.7 0.8 0.4 0.2-0.5 0.5 0.4 0.2 0.9-0.3-0.1-0.9 0.9-0.3 1 0.6 1 0.9 1.3 0.9 0.2 0 0.2 0.2 0.8 0.2 0.6 0 0.6 0 0.8 0.2 0.1 0.2-0.1 0.6 0.3 0.3 0.4-0.3 0.7 0 0.3-0.6 -0.4-0.6-0.8-0.3-0.7-0.8 0.1-0.4 0.6 0 0.1-0.4 -0.5-0.4-0.4-0.3-0.8-0.7 -0.3-0.4-1.1 0-1-0.5 0.1-0.5-1.1-0.2 0.1-0.5 1.2-0.3 1-0.7 1.4-0.3 0.4 0.4 0.1 0.8 0.5 0.7 0.5-0.1 1.2 0 0.8-0.7 -0.4-0.7-0.1-0.3-0.5-0.9 -0.5-0.6-1.7 0.5-1.9 0.1 -0.2-0.3-0.3-0.5-0.5-0.5 -0.2 0-0.5 0.5-0.7 0.9 -0.2 0.4 0.1 0.6-0.4 0 -0.5-0.6 0.7 0.2-0.4-1 -1.1-1.2-1.6-1.3-1.9-1.2 -0.3 0.1-0.5-0.1-0.8 0 -0.2 0.1 0.2 0.7-0.2 0.1 -0.4-0.6-1.2-0.4-1.2-0.4s-0.1-0.2-0.5-0.1c-0.3 0.1-0.9 0-1.1-0.3 -0.2-0.2-0.9-0.4-0.1-0.8 0.9-0.4 0.3-0.2 1.2-0.1 1 0.1 2.2 0.6 1.3-0.1 -0.9-0.8 0.7 0.1-0.3-1.3 -1-1.3-1.5-0.5-1-1.3 0.5-0.9 0.4-1 0.1-1.1 -0.3-0.1-1.2-0.3-1.6-0.5 -0.4-0.1-0.1 0.3-0.5-0.3 -0.4-0.7-0.9-0.2-0.4-0.7 0.5-0.4 0.6-0.5 1.2-0.6 0.5-0.1 1.1-1.4 1.8-0.4 0.7 0.9 0.4 0.6 1.1 1 0.7 0.4 1.1 0.5 1.2 0.3 0.1-0.1-0.6-1-0.6-1s-0.3 0-0.2-0.1c0.2-0.1 0.5-0.3 0.5-0.3l-0.2-0.4C603.1 204.5 600.5 203.1 599.7 202.9z"/>
    </g>
    <g class="st7">
        <circle class="st8" cx="833.6" cy="172.5" r="6.4"/>
        <path class="st9" d="M832.1 166.1c-3.5 0.8-5.7 4.4-4.9 7.9 0.8 3.5 4.4 5.7 7.9 4.9 3.5-0.8 5.7-4.4 4.9-7.9C839.2 167.5 835.6 165.3 832.1 166.1zM835 178.7c-3.4 0.8-6.8-1.3-7.6-4.7 -0.8-3.4 1.3-6.8 4.7-7.6 3.4-0.8 6.8 1.3 7.6 4.7C840.5 174.5 838.4 177.9 835 178.7z"/>
        <path class="st10" d="M831.2 166.6c0 0-2.1 0.8-3.2 2.8 0 0 0.8-1.4 1.5-1.6l0.2 0c0 0 0 0.1 0 0.1 0 0-0.1 0.2-0.1 0.2 0 0 0 0.1 0 0.1l0 0.1c0 0 0 0-0.1 0.1 0 0 0 0 0 0.1 0 0 0 0.1 0 0.1l0 0.1 0 0.1 -0.1 0.1c0 0-0.1 0-0.2 0 0 0-0.1-0.1-0.1-0.1l0.1-0.1c0 0 0 0 0 0 0 0-0.1-0.1-0.1-0.1 -0.1 0-0.1 0.1-0.1 0.1l-0.1 0.1c0 0 0 0.1 0 0.1 0 0 0.1 0 0.1 0s0 0 0 0.1c0 0 0 0.1 0 0.1s0 0-0.1 0c-0.1 0-0.1 0-0.2 0 0 0-0.1 0-0.1 0 0 0-0.1 0-0.1 0.1 0 0-0.1 0.1-0.1 0.1s0 0 0 0.1c0 0 0 0.1 0 0.1s0 0.1-0.1 0.1c-0.1 0-0.1 0.1-0.1 0.1l0 0.1c0 0-0.1 0.1-0.1 0.1 0 0.1-0.2 0.2-0.2 0.2 0 0-0.1 0.1-0.1 0.2 0 0.1 0 0.1 0 0.2 0 0 0 0.1 0 0.2 0 0.1 0 0.1 0 0.2 0 0-0.1 0.1-0.1 0.1 0 0-0.1 0.1-0.2 0.1 0 0 0 0.1 0 0.1 0 0 0.1 0.1 0.1 0.1 0 0 0.4-0.1 0.4-0.1s0.3 0.1 0.3 0.1c0 0 0 0.1 0 0.1l-0.2 0.1 0 0 0.1 0.1 0 0c0 0 0 0.1 0 0.1 0 0 0 0.1-0.1 0.1 0 0 0 0-0.1 0 0 0 0-0.1-0.1-0.1 -0.1 0-0.1 0.1-0.1 0.1 0 0-0.1 0-0.1 0 0 0 0 0 0 0 0-0.1 0-0.1 0-0.1 0 0-0.1-0.1-0.1-0.1 0 0 0 0.1 0 0 -0.1 0-0.1-0.1-0.1-0.1 0 0 0 0-0.1 0 0 0 0-0.1 0-0.2 0 0 0-0.1 0-0.1 0 0 0-0.2 0-0.2s-0.1 0.4-0.1 0.7c0 0 0.1 0 0.1 0 0 0 0 0.1 0 0.1 0 0.1 0 0 0 0.2 0 0.2 0.1 0.2 0.1 0.2 0 0.1 0 0.1 0 0.2 0 0.1 0.1 0.2 0.1 0.2 0 0 0 0 0.1 0.1 0 0 0 0.2 0 0 0-0.1 0.1-0.2 0.1-0.2l0-0.1c0 0 0-0.1 0.1-0.1 0.1 0 0.1 0 0.1 0 0 0 0 0.1 0 0.1 0.1 0 0.2-0.1 0.2-0.1 0 0 0.1 0 0.1 0.1 0 0.1 0.1 0.2 0.1 0.2 0 0 0.1 0.1 0.1 0.2 0 0.1 0.2 0.1 0.2 0.1 0 0 0.2 0 0.2 0 0 0 0 0.1 0.1 0.1 0.1 0 0.1 0.2 0.1 0.2s0.1 0.1 0.1 0.2c0 0 0 0.1 0.1 0.1 0.1 0 0.2 0 0.2 0s0 0.1 0.1 0.1c0.1 0 0.2 0 0.3 0 0 0 0 0.1 0.1 0.1 0.1 0 0.2-0.1 0.3-0.1 0.1 0 0 0.1 0.2 0.2 0.2 0 0.2 0.1 0.3 0.1 0 0 0.1 0 0.1 0.1 0 0.1 0 0.2 0 0.3 0 0.1-0.1 0.2-0.1 0.3 0 0.1 0 0.2 0 0.2 0.1 0.1 0.1 0.1 0.1 0.2 0 0 0.1 0.2 0.1 0.3 0 0.1 0 0.2 0 0.2s0.1 0.1 0.1 0.2c-0.1 0.1-0.2 0.2-0.2 0.2 -0.1 0-0.1 0.2-0.1 0.2s0.1 0.2 0.1 0.3c0 0.1-0.1 0.5 0 0.6 0.1 0.1 0.1 0.2 0.1 0.2 0 0.1 0 0.1 0 0.1 0 0.1-0.2 0 0 0.2 0.1 0.1 0.2 0.1 0.2 0.2 0.1 0.1 0.1 0.1 0.1 0.2 0.1 0.1 0.1 0.1 0.2 0.2 0.1 0 0.2 0.1 0.2 0.1 0 0.1 0.2 0.2 0 0.1 -0.2-0.1 0 0-0.3-0.1 -0.3-0.1-0.3 0-0.4-0.1 -0.1-0.1 0.1 0.3-0.2-0.2 -0.3-0.4-0.3-0.4-0.4-0.5 -0.1-0.1 0 0-0.2-0.2 -0.2-0.2 0-0.1-0.2-0.2 -0.2-0.1-0.1 0.1-0.2-0.2 -0.1-0.3-0.1-0.1-0.2-0.4 -0.2-0.3 0-0.3-0.2-0.5 -0.2-0.1-0.2 0-0.3-0.1 -0.1-0.1 0 0-0.2-0.3 -0.2-0.2-0.5-0.3-0.6-0.8 -0.1-0.5-0.1-0.6-0.1-0.6s-0.3-0.1-0.3-0.4c0-0.3 0.1-0.2 0-0.3 -0.1-0.1-0.1-0.1-0.2-0.1 -0.1-0.1-0.1-0.1-0.1-0.1 0-0.1-0.1-0.2-0.1-0.2l0 0.1c0 0 0.8 6.3 7.2 5.8 0 0-1.5 0-1.7-0.2 0 0-0.1-0.3 0-0.3 0.1 0 0.2 0 0.2-0.1 0.1-0.1 0.2-0.2 0.2-0.2l0 0.1c0 0-0.1 0 0.2-0.1 0.3-0.1 0.3-0.1 0.4-0.2 0.1-0.1 0.2-0.3 0.2-0.2 0.1 0.1-0.1 0.1 0.1 0.1 0.1 0 0.4-0.1 0.4-0.1s0.4-0.1 0.5-0.1c0-0.1 0-0.1 0.1-0.1 0.1 0 0.1 0.1 0.1 0.1l-0.2 0.2 -0.2 0.2c0 0-0.1 0.1 0 0.1 0.1 0 0.1 0 0.2 0 0.1 0 0.4 0.1 0.4 0 0-0.1 0-0.1 0.1-0.2 0-0.1 0-0.2 0.1-0.2 0.1 0 0.2 0 0.2 0l0 0.2c0 0 0.2-0.1 0.2-0.1 0.1 0 0.1 0.1 0.2 0 0.1-0.1 0.1-0.1 0.2-0.2 0.1 0 0.2-0.1 0.3-0.1 0 0 0.1 0 0.2 0 0 0 0.3 0.1 0.3 0.1 0 0 0.3-0.1 0.3-0.1s-0.6 0.8-2.1 1.2c0 0 3.5-0.7 4.6-4.4 1.1-3.8-1.2-7.7-6-8.2 0 0 3.6 0.4 5.2 3.4l0 0.1c-0.1-0.1-0.1 0-0.2-0.2 -0.1-0.1 0-0.1-0.1-0.2 -0.1-0.1 0 0-0.1-0.1 -0.1-0.1-0.1-0.1-0.2-0.1 -0.1 0-0.2-0.2-0.2-0.3 -0.1 0-0.2 0-0.3 0 -0.1 0-0.1-0.1-0.2 0 0 0.1 0 0.2 0 0.2l0.1 0.2c0 0 0.1 0.2 0.1 0.3 0 0.1 0.1 0.2 0.1 0.2s0.1 0.2 0.1 0.2c-0.1 0-0.3 0.2-0.3 0.2s-0.1-0.1-0.2-0.2c-0.1-0.1-0.3-0.1-0.3-0.1 0 0 0-0.1-0.1-0.2 -0.1-0.1 0-0.1-0.2-0.2 -0.1-0.1-0.1-0.1-0.1-0.1s-0.3 0-0.2 0.1c0.1 0.1 0.1 0.3 0.1 0.3 0.1 0 0.1-0.1 0.2 0 0.1 0.1 0.1 0.2 0.2 0.2 0.1 0 0.1 0.2 0.2 0.2 0.1 0 0.2-0.1 0.2 0 0 0.1-0.1 0.2 0 0.2 0.1 0 0.1 0 0.2 0 0.1 0 0 0 0.1-0.1 0.1-0.1 0.2-0.1 0.2-0.1s0.2 0.1 0.2 0.1c0 0 0 0.3 0 0.3l-0.1 0.3c0 0 0.1 0.4 0 0.5 -0.1 0-0.1 0.2-0.2 0.3 0 0 0 0.3 0 0.3l-0.1 0.2c0 0 0 0.2 0.1 0.3 0 0.1 0.1 0.3 0.1 0.4 0 0.1-0.1 0.3-0.1 0.3s0.3 0.2 0.2 0.2c-0.1 0.1-0.2 0.3-0.2 0.3 0 0-0.4 0.2-0.5 0.3 -0.1 0-0.6 0.2-0.6 0.2 0 0 0.1 0.2 0.1 0.2l0.3 0.3 0 0.3c0 0 0.2 0.1 0.1 0.2 -0.1 0-0.3 0.2-0.3 0.3 0 0.1-0.2 0.2-0.3 0.2 -0.1 0 0.1 0.2-0.1 0 -0.2-0.2 0-0.1-0.2-0.3 -0.2-0.2-0.1 0-0.2-0.2 0-0.2 0 0 0-0.2 -0.1-0.2 0-0.1-0.1-0.2 -0.1-0.2-0.1-0.1-0.2-0.2 -0.1-0.1-0.2 0-0.2-0.2 0-0.2 0 0 0-0.2 0-0.2-0.1-0.2 0-0.3 0.1-0.1 0.2-0.2 0.2-0.3 0-0.1-0.1-0.2-0.1-0.2 0-0.1-0.2-0.2-0.2-0.2 0 0 0 0-0.1-0.1 -0.1-0.1-0.2-0.2-0.2-0.2s-0.1-0.3-0.1-0.4c0-0.1 0 0.1 0-0.1 0-0.2 0-0.3 0-0.3s-0.3-0.1-0.3-0.1c-0.1 0 0 0.2-0.2 0.1 -0.2-0.1-0.1-0.2-0.2-0.2 -0.1 0-0.1 0-0.2 0.1 -0.1 0.1-0.2 0.1-0.3 0.2 -0.1 0.1-0.2 0.1-0.3 0.1 -0.2 0-0.4 0.2-0.5 0.1 -0.2 0-0.1 0.1-0.2-0.1 -0.1-0.1 0-0.1-0.2-0.2 -0.1 0-0.2 0-0.2-0.1 0-0.1 0-0.1-0.1-0.2 -0.1-0.1 0.1 0-0.1-0.1 -0.2-0.1-0.2 0-0.2-0.1 0-0.2 0.1-0.1 0-0.3 0-0.2 0.3 0 0-0.3 -0.2-0.3-0.3-0.2-0.2-0.5 0.1-0.3 0.3-0.4 0.3-0.5 0-0.1 0-0.2 0.1-0.3 0-0.1 0-0.1 0.1-0.1 0.1 0 0.3-0.1 0.3-0.2 0.1-0.1 0.2-0.3 0.2-0.3 0.1 0 0 0 0.2-0.1 0.1-0.1 0.2-0.1 0.2-0.1 0.1 0-0.1 0.1 0.2-0.1 0.2-0.1 0.2-0.1 0.2-0.1 0.1 0 0 0 0.1 0 0.1 0 0-0.2 0.1 0 0.1 0.2 0 0.3 0.2 0.3 0.2 0 0 0 0.2 0 0.2 0 0.1 0 0.2 0 0.1 0 0.2 0.1 0.3 0 0.1 0 0 0.2 0.1 0 0.1-0.2-0.2-0.2 0.1-0.2 0.3-0.1 0.4 0 0.5 0 0.1 0 0.1 0 0.2-0.1 0.1-0.1 0.1-0.1 0.2-0.1 0.1 0 0.1 0.1 0.1 0 0-0.1 0.2-0.1 0-0.2 -0.2 0-0.2 0.1-0.3 0 -0.1-0.1 0.1-0.1-0.1-0.1 -0.2 0-0.2 0-0.3 0 -0.1 0-0.2 0.2-0.3 0.1 -0.1-0.1-0.3 0.2-0.1-0.1 0.2-0.3 0.1-0.3 0.2-0.3 0.2 0 0.2 0.2 0.2 0 0.1-0.1 0.3-0.2 0-0.3 -0.2-0.1-0.1-0.1-0.3-0.1 -0.2 0-0.3 0.4-0.4 0.4 -0.1 0-0.2-0.1-0.2 0 -0.1 0 0 0.2 0 0.3 0 0.1 0.1 0.1-0.1 0.1 -0.2 0 0.2-0.1-0.3-0.2 -0.5-0.1-0.6 0-0.6 0.1 0 0.1-0.1 0.1-0.2 0.1 0 0.1 0.2 0.1 0 0.1 -0.2-0.1-0.3 0.1-0.3 0.1s-0.1 0-0.1 0.1c-0.1 0.1-0.2 0.2-0.3 0.1 -0.1 0-0.3 0.1-0.2-0.1 0.1-0.2 0-0.1 0.2-0.3 0.2-0.2 0.6-0.3 0.2-0.3 -0.3 0 0.2-0.1-0.3-0.2 -0.5-0.1-0.4 0.2-0.5-0.1 -0.1-0.3-0.1-0.3-0.2-0.3 -0.1 0-0.3 0.2-0.4 0.2 -0.1 0 0 0.1-0.2 0 -0.2-0.1-0.2 0.1-0.2-0.1 0-0.2 0-0.2 0.1-0.4 0.1-0.1 0-0.5 0.3-0.4 0.3 0.1 0.2 0.1 0.4 0 0.2 0 0.3-0.1 0.3-0.2 0 0-0.3-0.1-0.3-0.1s-0.1 0.1-0.1 0c0-0.1 0.1-0.2 0.1-0.2l-0.1-0.1C832.2 166.4 831.4 166.6 831.2 166.6z"/>
    </g>
    <g class="st7">
        <circle class="st8" cx="638.9" cy="217.9" r="6.4"/>
        <path class="st9" d="M637.4 211.5c-3.5 0.8-5.7 4.4-4.9 7.9 0.8 3.5 4.4 5.7 7.9 4.9 3.5-0.8 5.7-4.4 4.9-7.9C644.5 212.9 640.9 210.7 637.4 211.5zM640.4 224c-3.4 0.8-6.8-1.3-7.6-4.7 -0.8-3.4 1.3-6.8 4.7-7.6 3.4-0.8 6.8 1.3 7.6 4.7C645.8 219.8 643.8 223.2 640.4 224z"/>
        <path class="st10" d="M636.6 212c0 0-2.1 0.8-3.2 2.8 0 0 0.8-1.4 1.5-1.6l0.2 0c0 0 0 0.1 0 0.1 0 0-0.1 0.2-0.1 0.2 0 0 0 0.1 0 0.1l0 0.1c0 0 0 0-0.1 0.1 0 0 0 0 0 0.1 0 0 0 0.1 0 0.1l0 0.1 0 0.1 -0.1 0.1c0 0-0.1 0-0.2 0 0 0-0.1-0.1-0.1-0.1l0.1-0.1c0 0 0 0 0 0 0 0-0.1-0.1-0.1-0.1 -0.1 0-0.1 0.1-0.1 0.1l-0.1 0.1c0 0 0 0.1 0 0.1 0 0 0.1 0 0.1 0s0 0 0 0.1c0 0 0 0.1 0 0.1s0 0-0.1 0c-0.1 0-0.1 0-0.2 0 0 0-0.1 0-0.1 0 0 0-0.1 0-0.1 0.1 0 0-0.1 0.1-0.1 0.1s0 0 0 0.1c0 0 0 0.1 0 0.1s0 0.1-0.1 0.1c-0.1 0-0.1 0.1-0.1 0.1l0 0.1c0 0-0.1 0.1-0.1 0.1 0 0.1-0.2 0.2-0.2 0.2 0 0-0.1 0.1-0.1 0.2 0 0.1 0 0.1 0 0.2 0 0 0 0.1 0 0.2 0 0.1 0 0.1 0 0.2 0 0-0.1 0.1-0.1 0.1 0 0-0.1 0.1-0.2 0.1 0 0 0 0.1 0 0.1 0 0 0.1 0.1 0.1 0.1 0 0 0.4-0.1 0.4-0.1s0.3 0 0.3 0.1c0 0 0 0.1 0 0.1l-0.2 0.1 0 0 0.1 0.1 0 0c0 0 0 0.1 0 0.1 0 0 0 0.1-0.1 0.1 0 0 0 0-0.1 0 0 0 0-0.1-0.1-0.1 -0.1 0-0.1 0.1-0.1 0.1 0 0-0.1 0-0.1 0 0 0 0 0 0 0 0-0.1 0-0.1 0-0.1 0 0-0.1-0.1-0.1-0.1 0 0 0 0.1 0 0 -0.1 0-0.1-0.1-0.1-0.1 0 0 0 0-0.1 0 0 0 0-0.1 0-0.2 0 0 0-0.1 0-0.1 0 0 0-0.2 0-0.2s-0.1 0.4-0.1 0.7c0 0 0.1 0 0.1 0 0 0 0 0.1 0 0.1 0 0.1 0 0 0 0.2 0 0.2 0.1 0.2 0.1 0.2 0 0.1 0 0.1 0 0.2 0 0.1 0.1 0.2 0.1 0.2 0 0 0 0 0.1 0.1 0 0 0 0.2 0 0 0-0.1 0.1-0.2 0.1-0.2l0-0.1c0 0 0-0.1 0.1-0.1 0.1 0 0.1 0 0.1 0 0 0 0 0.1 0 0.1 0.1 0 0.2-0.1 0.2-0.1 0 0 0.1 0 0.1 0.1 0 0.1 0.1 0.2 0.1 0.2 0 0 0.1 0.1 0.1 0.2 0 0.1 0.2 0.1 0.2 0.1 0 0 0.2 0 0.2 0 0 0 0 0.1 0.1 0.1 0.1 0 0.1 0.2 0.1 0.2s0.1 0.1 0.1 0.2c0 0 0 0.1 0.1 0.1 0.1 0 0.2 0 0.2 0s0 0.1 0.1 0.1c0.1 0 0.2 0 0.3 0 0 0 0 0.1 0.1 0.1 0.1 0 0.2-0.1 0.3-0.1 0.1 0 0 0.1 0.2 0.2 0.2 0 0.2 0.1 0.3 0.1 0 0 0.1 0 0.1 0.1 0 0.1 0 0.2 0 0.3 0 0.1-0.1 0.2-0.1 0.3 0 0.1 0 0.2 0 0.2 0.1 0.1 0.1 0.1 0.1 0.2 0 0 0.1 0.2 0.1 0.3 0 0.1 0 0.2 0 0.2s0.1 0.1 0.1 0.2c-0.1 0.1-0.2 0.2-0.2 0.2 -0.1 0-0.1 0.2-0.1 0.2s0.1 0.2 0.1 0.3c0 0.1-0.1 0.5 0 0.6 0.1 0.1 0.1 0.2 0.1 0.2 0 0.1 0 0.1 0 0.1 0 0.1-0.2 0 0 0.2 0.1 0.1 0.2 0.1 0.2 0.2 0.1 0.1 0.1 0.1 0.1 0.2 0.1 0.1 0.1 0.1 0.2 0.2 0.1 0 0.2 0.1 0.2 0.1 0 0.1 0.2 0.2 0 0.1 -0.2-0.1 0 0-0.3-0.1 -0.3-0.1-0.3 0-0.4-0.1 -0.1-0.1 0.1 0.3-0.2-0.2 -0.3-0.4-0.3-0.4-0.4-0.5 -0.1-0.1 0 0-0.2-0.2 -0.2-0.2 0-0.1-0.2-0.2 -0.2-0.1-0.1 0.1-0.2-0.2 -0.1-0.3-0.1-0.1-0.2-0.4 -0.2-0.3 0-0.3-0.2-0.5 -0.2-0.1-0.2 0-0.3-0.1 -0.1-0.1 0 0-0.2-0.3 -0.2-0.2-0.5-0.3-0.6-0.8 -0.1-0.5-0.1-0.6-0.1-0.6s-0.3-0.1-0.3-0.4c0-0.3 0.1-0.2 0-0.3 -0.1-0.1-0.1-0.1-0.2-0.1 -0.1-0.1-0.1-0.1-0.1-0.1 0-0.1-0.1-0.2-0.1-0.2l0 0.1c0 0 0.8 6.3 7.2 5.8 0 0-1.5 0-1.7-0.2 0 0-0.1-0.3 0-0.3 0.1 0 0.2 0 0.2-0.1 0.1-0.1 0.2-0.2 0.2-0.2l0 0.1c0 0-0.1 0 0.2-0.1 0.3-0.1 0.3-0.1 0.4-0.2 0.1-0.1 0.2-0.3 0.2-0.2 0.1 0.1-0.1 0.1 0.1 0.1 0.1 0 0.4-0.1 0.4-0.1s0.4-0.1 0.5-0.1c0-0.1 0-0.1 0.1-0.1 0.1 0 0.1 0.1 0.1 0.1l-0.2 0.2 -0.2 0.2c0 0-0.1 0.1 0 0.1 0.1 0 0.1 0 0.2 0 0.1 0 0.4 0.1 0.4 0 0-0.1 0-0.1 0.1-0.2 0-0.1 0-0.2 0.1-0.2 0.1 0 0.2 0 0.2 0l0 0.2c0 0 0.2-0.1 0.2-0.1 0.1 0 0.1 0.1 0.2 0 0.1-0.1 0.1-0.1 0.2-0.2 0.1 0 0.2-0.1 0.3-0.1 0 0 0.1 0 0.2 0 0 0 0.3 0.1 0.3 0.1 0 0 0.3-0.1 0.3-0.1s-0.6 0.8-2.1 1.2c0 0 3.5-0.7 4.6-4.4 1.1-3.8-1.2-7.7-6-8.2 0 0 3.6 0.4 5.2 3.4l0 0.1c-0.1-0.1-0.1 0-0.2-0.2 -0.1-0.1 0-0.1-0.1-0.2 -0.1-0.1 0 0-0.1-0.1 -0.1-0.1-0.1-0.1-0.2-0.1 -0.1 0-0.2-0.2-0.2-0.3 -0.1 0-0.2 0-0.3 0 -0.1 0-0.1-0.1-0.2 0 0 0.1 0 0.2 0 0.2l0.1 0.2c0 0 0.1 0.2 0.1 0.3 0 0.1 0.1 0.2 0.1 0.2s0.1 0.2 0.1 0.2c-0.1 0-0.3 0.2-0.3 0.2s-0.1-0.1-0.2-0.2c-0.1-0.1-0.3-0.1-0.3-0.1 0 0 0-0.1-0.1-0.2 -0.1-0.1 0-0.1-0.2-0.2 -0.1-0.1-0.1-0.1-0.1-0.1s-0.3 0-0.2 0.1c0.1 0.1 0.1 0.3 0.1 0.3 0.1 0 0.1-0.1 0.2 0 0.1 0.1 0.1 0.2 0.2 0.2 0.1 0 0.1 0.2 0.2 0.2 0.1 0 0.2-0.1 0.2 0 0 0.1-0.1 0.2 0 0.2 0.1 0 0.1 0 0.2 0 0.1 0 0 0 0.1-0.1 0.1-0.1 0.2-0.1 0.2-0.1s0.2 0.1 0.2 0.1c0 0 0 0.3 0 0.3l-0.1 0.3c0 0 0.1 0.4 0 0.5 -0.1 0-0.1 0.2-0.2 0.3 0 0 0 0.3 0 0.3l-0.1 0.2c0 0 0 0.2 0.1 0.3 0 0.1 0.1 0.3 0.1 0.4 0 0.1-0.1 0.3-0.1 0.3s0.3 0.2 0.2 0.2c-0.1 0.1-0.2 0.3-0.2 0.3 0 0.1-0.4 0.2-0.5 0.3 -0.1 0-0.6 0.2-0.6 0.2 0 0 0.1 0.2 0.1 0.2l0.3 0.3 0 0.3c0 0 0.2 0.1 0.1 0.2 -0.1 0-0.3 0.2-0.3 0.3 0 0.1-0.2 0.2-0.3 0.2 -0.1 0 0.1 0.2-0.1 0 -0.2-0.2 0-0.1-0.2-0.3 -0.2-0.2-0.1 0-0.2-0.2 0-0.2 0 0 0-0.2 -0.1-0.2 0-0.1-0.1-0.2 -0.1-0.2-0.1-0.1-0.2-0.2 -0.1-0.1-0.2 0-0.2-0.2 0-0.2 0 0 0-0.2 0-0.2-0.1-0.2 0-0.3 0.1-0.1 0.2-0.2 0.2-0.3 0-0.1-0.1-0.2-0.1-0.2 0-0.1-0.2-0.2-0.2-0.2 0 0 0 0-0.1-0.1 -0.1-0.1-0.2-0.2-0.2-0.2s-0.1-0.3-0.1-0.4c0-0.1 0 0.1 0-0.1 0-0.2 0-0.3 0-0.3s-0.3-0.1-0.3-0.1c-0.1 0 0 0.2-0.2 0.1 -0.2-0.1-0.1-0.2-0.2-0.2 0 0-0.1 0-0.2 0.1 -0.1 0.1-0.2 0.1-0.3 0.2 -0.1 0.1-0.2 0.1-0.3 0.1 -0.2 0-0.4 0.2-0.5 0.1 -0.2 0-0.1 0.1-0.2-0.1 -0.1-0.1 0-0.1-0.2-0.2 -0.2 0-0.2 0-0.2-0.1 0-0.1 0-0.1-0.1-0.2 -0.1-0.1 0.1 0-0.1-0.1 -0.2-0.1-0.2 0-0.2-0.1 0-0.2 0.1-0.1 0-0.3 0-0.2 0.3 0 0-0.3 -0.2-0.3-0.3-0.2-0.2-0.5 0.1-0.3 0.3-0.4 0.3-0.5 0-0.1 0-0.2 0.1-0.3 0-0.1 0-0.1 0.1-0.1 0.1 0 0.3-0.1 0.3-0.2 0.1-0.1 0.2-0.3 0.2-0.3 0.1 0 0 0 0.2-0.1 0.1-0.1 0.1-0.1 0.2-0.1 0.1 0-0.1 0.1 0.2-0.1 0.2-0.1 0.2-0.1 0.2-0.1 0.1 0 0 0 0.1 0 0.1 0 0-0.2 0.1 0 0.1 0.2 0 0.3 0.2 0.3 0.2 0 0 0 0.2 0 0.2 0 0.1 0 0.2 0 0.1 0 0.2 0.1 0.3 0 0.1 0 0 0.2 0.1 0 0.1-0.2-0.2-0.2 0.1-0.2 0.3-0.1 0.4 0 0.5 0 0.1 0 0.1 0 0.2-0.1 0.1-0.1 0.1-0.1 0.2-0.1 0.1 0 0.1 0.1 0.1 0 0-0.1 0.2-0.1 0-0.2 -0.2 0-0.2 0.1-0.3 0 -0.1-0.1 0.1-0.1-0.1-0.1 -0.2 0-0.2 0-0.3 0 -0.1 0-0.2 0.2-0.3 0.1 -0.1-0.1-0.3 0.2-0.1-0.1 0.2-0.3 0.1-0.3 0.2-0.3 0.2 0 0.2 0.2 0.2 0 0.1-0.1 0.3-0.2 0-0.3 -0.2-0.1-0.1-0.1-0.3-0.1 -0.2 0-0.3 0.4-0.4 0.4 -0.1 0-0.2-0.1-0.2 0 -0.1 0 0 0.2 0 0.3 0 0.1 0.1 0.1-0.1 0.1 -0.2 0 0.2-0.1-0.3-0.2 -0.5-0.1-0.6 0-0.6 0.1 0 0.1-0.1 0.1-0.2 0.1 0 0.1 0.2 0.1 0 0.1 -0.2-0.1-0.3 0.1-0.3 0.1s-0.1 0-0.1 0.1c-0.1 0.1-0.2 0.2-0.3 0.1 -0.1 0-0.3 0.1-0.2-0.1 0.1-0.2 0-0.1 0.2-0.3 0.2-0.2 0.6-0.3 0.2-0.3 -0.3 0 0.2-0.1-0.3-0.2 -0.5-0.1-0.4 0.2-0.5-0.1 -0.1-0.3-0.1-0.3-0.2-0.3 -0.1 0-0.3 0.2-0.4 0.2 -0.1 0 0 0.1-0.2 0 -0.2-0.1-0.2 0.1-0.2-0.1 0-0.2 0-0.2 0.1-0.4 0.1-0.1 0-0.5 0.3-0.4 0.3 0.1 0.2 0.1 0.4 0 0.2 0 0.3-0.1 0.3-0.2 0 0-0.3-0.1-0.3-0.1s-0.1 0.1-0.1 0c0-0.1 0.1-0.2 0.1-0.2l-0.1-0.1C637.6 211.7 636.8 211.9 636.6 212z"/>
    </g>
    <g class="st7">
        <path class="st8" d="M663.5 191.4c-5.7 6.7-15.8 7.5-22.4 1.7 -6.7-5.7-7.5-15.8-1.8-22.4 5.7-6.7 15.8-7.5 22.4-1.8C668.4 174.7 669.2 184.8 663.5 191.4z"/>
        <path class="st9" d="M661.9 168.8c-6.8-5.9-17.2-5.1-23 1.8 -5.9 6.8-5 17.2 1.8 23 6.8 5.9 17.1 5.1 23-1.8C669.6 185 668.8 174.7 661.9 168.8zM641.2 193c-6.5-5.6-7.3-15.4-1.7-21.9 5.6-6.5 15.4-7.3 21.9-1.7 6.5 5.6 7.3 15.4 1.7 21.9C657.6 197.9 647.8 198.6 641.2 193z"/>
        <path class="st10" d="M659.7 167.8c0 0-4.6-3-10.3-2.2 0 0 4.1-0.4 5.5 0.7l0.2 0.4c0 0-0.1 0.1-0.2 0.1 -0.1 0-0.4 0.1-0.5 0.1 0 0.1-0.2 0.3-0.2 0.3l-0.2 0.1c0 0-0.1 0-0.2 0 -0.1 0-0.1 0-0.2 0.1 -0.1 0.1-0.2 0.3-0.2 0.3l-0.2 0.3L653 168l-0.3 0c0 0-0.2-0.1-0.3-0.3 0-0.1 0.1-0.3 0.1-0.3l0.4 0.1c0 0 0.1 0 0-0.1 0-0.1 0.1-0.2-0.1-0.3 -0.2-0.1-0.5-0.1-0.5-0.1l-0.3 0c0 0-0.3 0.2-0.3 0.2 0 0 0.1 0.2 0.1 0.2s0 0.1-0.1 0.2c-0.1 0.1-0.3 0.2-0.3 0.2s-0.1 0-0.2-0.1c-0.1-0.2-0.2-0.3-0.3-0.4 -0.1-0.1-0.1-0.2-0.2-0.3 -0.1 0-0.2 0-0.2 0 0 0-0.5-0.1-0.5-0.1s-0.1 0-0.2 0c0 0.1-0.3 0.2-0.3 0.2s-0.2 0-0.4-0.1c-0.2-0.1-0.3-0.1-0.3-0.1l-0.3 0.1c0 0-0.2 0-0.4 0 -0.2 0-0.7 0-0.7 0 -0.1 0-0.3 0-0.4 0.1 -0.1 0.1-0.3 0.3-0.4 0.3 -0.1 0-0.3 0.1-0.4 0.2 -0.1 0.1-0.3 0.2-0.4 0.2 -0.1 0-0.3 0-0.3 0 -0.1 0-0.4-0.2-0.5-0.2 -0.1 0-0.3 0.1-0.3 0.1 0 0 0 0.3 0 0.3 0 0 0.7 0.6 0.7 0.6s0.3 0.7 0.3 0.7c0 0-0.2 0.3-0.2 0.3l-0.3-0.2 -0.1 0 0 0.2 0 0.1c0 0-0.2 0.1-0.2 0.1 -0.1 0-0.2 0.1-0.3 0 0-0.1 0 0 0-0.2 0-0.1 0.1-0.2 0-0.3 -0.1-0.1-0.3-0.1-0.3-0.2 0-0.1-0.1-0.1-0.1-0.3 0-0.1-0.1 0 0-0.1 0.1-0.1 0.2-0.1 0.3-0.2 0-0.1 0-0.3 0-0.3 -0.1 0-0.1 0.1-0.1 0 0-0.2 0-0.3-0.1-0.3 -0.1 0-0.1-0.1-0.1-0.1 0.1-0.1 0.2-0.2 0.3-0.2 0.1-0.1 0.2-0.1 0.2-0.2 0-0.1 0.4-0.3 0.4-0.3s-1 0.4-1.6 0.9c0 0 0.2 0.1 0.1 0.2 -0.1 0.1-0.1 0.2-0.2 0.3 -0.1 0.1-0.1 0.1-0.3 0.4 -0.3 0.3-0.2 0.4-0.4 0.5 -0.1 0.1-0.3 0.1-0.4 0.2 -0.1 0.1-0.3 0.5-0.3 0.5 0 0.1 0 0.1 0 0.2 0 0.1-0.3 0.2 0 0.1 0.3-0.1 0.5-0.1 0.5-0.1l0.2 0c0 0 0.1-0.1 0.3 0.1 0.2 0.2 0.2 0.2 0.2 0.3 0 0.1-0.3 0.2-0.2 0.3 0.1 0.1 0.5 0.2 0.5 0.3 0.1 0.1 0.1 0.2 0.1 0.3 -0.1 0.2-0.2 0.4-0.1 0.5 0 0.1-0.1 0.3-0.2 0.4 -0.1 0.1 0.1 0.4 0.2 0.5 0.1 0 0.3 0.3 0.3 0.4 0 0.1-0.1 0.2 0 0.3 0.1 0.2-0.1 0.5-0.1 0.5s-0.2 0.3-0.3 0.4c-0.1 0-0.2 0.2-0.1 0.3 0.1 0.1 0.3 0.3 0.3 0.3s-0.3 0.1-0.2 0.3c0.1 0.3 0.3 0.5 0.3 0.6 0 0.1-0.3 0.1 0 0.3 0.3 0.2 0.5 0.3 0.6 0.5 0 0.2-0.2 0.2 0 0.7 0.2 0.4 0.2 0.6 0.2 0.7 0 0.1 0.2 0.2 0 0.4 -0.2 0.2-0.4 0.3-0.6 0.3 -0.2 0-0.6 0.2-0.8 0.2 -0.2 0-0.4 0.1-0.4 0.4 -0.1 0.2-0.1 0.5-0.2 0.6 -0.1 0.1-0.3 0.4-0.4 0.5 -0.2 0.1-0.4 0.2-0.4 0.2s0.1 0.3-0.2 0.4c-0.3 0-0.7 0-0.8-0.1 -0.1-0.1-0.5 0-0.5 0s-0.4 0.5-0.5 0.6c-0.1 0.1-1.2 0.5-1.2 0.8 0 0.3-0.1 0.5-0.3 0.6 -0.1 0.1-0.2 0-0.3 0.1 -0.1 0.1-0.3-0.3-0.4 0.2 -0.1 0.4 0 0.5-0.1 0.8 -0.1 0.2-0.1 0.3-0.1 0.5 0 0.2-0.1 0.4 0 0.7 0 0.2 0.1 0.4 0 0.6 -0.1 0.1-0.1 0.7-0.2 0.2 -0.1-0.5 0-0.1-0.1-0.8 -0.1-0.7-0.4-0.7-0.4-1.1 0-0.4-0.4 0.6 0.1-0.6 0.5-1.3 0.3-1.2 0.3-1.5 0.1-0.3 0 0 0.1-0.7 0.1-0.7 0.1-0.2 0.1-0.7 0-0.5-0.3-0.1 0-0.7 0.4-0.6 0-0.3 0.4-1.1 0.4-0.8 0.7-0.6 0.6-1.1 -0.1-0.6-0.2-0.4-0.1-0.7 0.1-0.3 0.1 0 0.2-0.8 0.1-0.8-0.1-1.4 0.7-2.2 0.8-0.9 0.9-1 0.9-1s-0.1-0.7 0.5-1.1c0.6-0.4 0.5-0.2 0.6-0.4 0.1-0.2 0-0.2 0-0.6 0-0.3 0-0.3 0.1-0.5 0.1-0.2 0.3-0.5 0.3-0.5l-0.2 0c0 0-11.5 10.9-1 22.9 0 0-2.2-3-2-3.7 0 0 0.4-0.6 0.5-0.5 0.1 0.1 0.2 0.3 0.5 0.3 0.3 0 0.6 0 0.6 0l-0.2 0.3c0 0-0.2-0.1 0.4 0.3 0.6 0.4 0.6 0.4 0.8 0.5 0.3 0.1 0.9-0.1 0.8 0.2 -0.1 0.4-0.3 0-0.1 0.4 0.2 0.3 0.8 0.6 0.8 0.6s0.8 0.8 0.9 0.8c0.2 0 0.3-0.2 0.4 0 0.1 0.2 0 0.4 0 0.4l-0.7-0.1 -0.7-0.1c0 0-0.3-0.1-0.2 0.1 0.1 0.2 0.2 0.3 0.4 0.5 0.2 0.2 0.3 1 0.6 0.8 0.3-0.1 0.4-0.1 0.6-0.2 0.2-0.1 0.3-0.3 0.5-0.1 0.2 0.2 0.3 0.4 0.3 0.4l-0.5 0.2c0 0 0.4 0.3 0.5 0.4 0.1 0.1 0 0.4 0.3 0.3 0.4 0 0.4 0 0.6 0.1 0.2 0.1 0.6 0.3 0.6 0.4 0.1 0.1 0.2 0.3 0.3 0.3 0.1 0.1 0.2 0.7 0.4 0.8 0.1 0 0.6 0.5 0.6 0.5s-2.5 0.1-5.5-2.4c0 0 6.3 6 15.6 2.7 9.2-3.3 13.7-13.7 7.7-23.9 0 0 4.3 7.8 0.8 15.3l-0.2 0.1c0-0.3-0.1-0.2 0-0.6 0.1-0.4 0.2-0.3 0.2-0.5 0.1-0.3 0-0.1 0-0.4 0-0.3 0-0.3 0-0.5 0-0.2 0.2-0.7 0.2-0.9 0-0.2-0.2-0.4-0.3-0.6 -0.1-0.1-0.1-0.4-0.3-0.3 -0.2 0.1-0.3 0.4-0.3 0.4l-0.4 0.5c0 0-0.4 0.4-0.5 0.5 -0.1 0.1-0.4 0.4-0.4 0.4s-0.1 0.5-0.3 0.4c-0.2 0-0.8-0.4-0.8-0.4s0-0.4 0.1-0.6c0-0.3-0.2-0.7-0.2-0.8 0-0.1 0.3-0.2 0.3-0.5 0-0.4 0.2-0.2 0.1-0.6 -0.1-0.4-0.1-0.4-0.1-0.4s-0.4-0.6-0.4-0.2c-0.1 0.4-0.5 0.6-0.4 0.7 0.1 0.2 0.3 0.1 0.2 0.5 -0.1 0.4-0.2 0.5-0.2 0.6 0 0.2-0.3 0.6-0.2 0.7 0.1 0.1 0.4 0.4 0.3 0.5 -0.2 0.1-0.5 0.2-0.3 0.4 0.1 0.2 0.1 0.3 0.2 0.4 0.1 0.1 0 0.1 0.3 0.2 0.3 0.1 0.5 0.3 0.5 0.3s0.1 0.4 0 0.5c-0.1 0.1-0.6 0.5-0.6 0.5l-0.7 0.3c0 0-0.7 0.9-0.8 0.8 -0.1-0.1-0.6 0.1-0.8 0.1 -0.1 0-0.7 0.5-0.7 0.5L659 190c0 0-0.4 0.4-0.5 0.5 -0.1 0.1-0.4 0.6-0.6 0.8 -0.3 0.2-0.8 0.1-0.8 0.1s0.1 0.8-0.2 0.6c-0.3-0.1-0.8 0-0.9 0 -0.1 0-1.1-0.5-1.2-0.6 -0.2-0.1-1.3-1-1.4-0.9 -0.1 0.1-0.4 0.4-0.4 0.4l-0.2 1 -0.5 0.4c0 0 0 0.5-0.2 0.4 -0.2-0.1-0.9-0.3-1-0.3 -0.2 0-0.7-0.1-0.8-0.2 -0.1-0.1-0.2 0.5-0.1-0.1 0.1-0.6 0.1-0.2 0.3-0.8 0.2-0.6-0.1-0.3 0.2-0.6 0.3-0.3 0.1 0 0.3-0.3 0.2-0.3 0.2 0 0.3-0.5 0.1-0.5 0.1-0.4 0-0.8 0-0.4-0.4-0.3 0.1-0.6 0.5-0.2 0.1 0 0.5-0.2 0.4-0.3 0.3-0.5 0.7-0.4 0.4 0 0.6 0.2 0.8-0.1 0.2-0.3 0.2-0.3 0.3-0.5 0.1-0.2 0-0.6 0.1-0.7 0-0.1 0-0.1 0-0.5 0-0.4 0.1-0.6 0.1-0.6s0.5-0.6 0.6-0.9c0.2-0.2-0.2 0.1 0.2-0.2 0.4-0.3 0.6-0.5 0.6-0.5s-0.2-0.6-0.4-0.8c-0.2-0.1-0.4 0.2-0.5-0.3 -0.1-0.4 0.1-0.5 0.1-0.6 0-0.1-0.2-0.3-0.4-0.3 -0.2 0-0.6-0.3-0.9-0.4 -0.4-0.1-0.4-0.2-0.8-0.5 -0.3-0.3-0.8-0.5-1-0.9 -0.1-0.4-0.3-0.2-0.2-0.6 0.1-0.4 0.2-0.3 0.1-0.6 -0.1-0.4-0.3-0.3-0.1-0.6 0.2-0.3 0.3-0.1 0.3-0.5 0-0.4 0 0.2 0-0.4 0-0.6-0.4-0.4 0-0.6 0.4-0.2 0.3 0.1 0.6-0.3 0.3-0.3 0.4 0.6 0.7-0.4 0.3-0.9 0.1-0.9 0.8-1.1 0.7-0.3 1.2-0.1 1.4-0.2 0.2-0.1 0.5-0.3 0.7-0.2 0.2 0 0.2-0.1 0.4 0.1 0.2 0.2 0.6 0.4 0.9 0.4 0.3 0 0.8-0.1 0.9 0 0.1 0.1 0 0.1 0.3 0.2 0.3 0.2 0.4 0.2 0.6 0.3 0.2 0.1-0.2-0.1 0.3 0.2 0.6 0.3 0.4 0.2 0.6 0.3 0.1 0.1 0 0.1 0.2 0.3 0.2 0.2 0.5-0.2 0.2 0.2 -0.3 0.4-0.7 0.5-0.4 0.8 0.3 0.3 0 0 0.3 0.3 0.3 0.3 0.2 0.3 0.3 0.5 0.1 0.2 0.1 0.4 0.3 0.6 0.3 0.2-0.4 0.3 0.3 0.2 0.7-0.1 0.1-0.7 0.7-0.1 0.6 0.6 0.6 0.8 0.7 0.9 0.2 0 0.1 0.2 0.5 0.3 0.4 0.1 0.4 0.1 0.5 0.3 0.1 0.2-0.2 0.4 0.2 0.3 0.3-0.2 0.5 0.1 0.3-0.3 -0.2-0.5-0.5-0.4-0.3-0.6 0.1-0.3 0.4 0.1 0.1-0.3 -0.3-0.3-0.2-0.3-0.4-0.6 -0.2-0.3-0.7-0.2-0.6-0.5 0.1-0.3-0.7-0.3 0.1-0.3 0.8 0 0.8-0.4 1 0 0.2 0.4-0.1 0.6 0.3 0.6 0.3 0 0.8 0.2 0.7-0.4 -0.2-0.6 0-0.2-0.2-0.7 -0.2-0.5-1.3 0-1.3-0.2 -0.1-0.3-0.1-0.4-0.2-0.5 -0.2 0-0.4 0.3-0.7 0.5 -0.2 0.2 0 0.5-0.3 0 -0.2-0.5 0.5 0.3-0.1-0.8 -0.6-1-0.9-1.2-1.1-1.2 -0.2 0-0.4-0.2-0.5-0.1 -0.2 0 0 0.5-0.2 0 -0.2-0.5-0.8-0.5-0.8-0.5s-0.1-0.2-0.3-0.2c-0.2 0-0.6-0.2-0.7-0.4 -0.1-0.2-0.6-0.4 0.1-0.5 0.7-0.1 0.2-0.1 0.9 0.1 0.7 0.2 1.4 0.8 0.9 0.1 -0.5-0.7 0.5 0.1 0-1 -0.5-1.1-1-0.6-0.5-1.1 0.5-0.5 0.4-0.6 0.2-0.7 -0.2-0.1-0.8-0.4-1-0.6 -0.2-0.1-0.1 0.2-0.3-0.3 -0.2-0.5-0.6-0.3-0.2-0.5 0.4-0.2 0.5-0.2 0.9-0.3 0.4 0 1-0.8 1.3 0 0.3 0.8 0.2 0.5 0.6 0.9 0.4 0.4 0.7 0.5 0.8 0.4 0.1-0.1-0.2-0.8-0.2-0.8s-0.2-0.1-0.1-0.1c0.1 0 0.4-0.1 0.4-0.1l-0.1-0.3C661.8 169.5 660.2 168.1 659.7 167.8z"/>
    </g>
    <g class="st7">
        <circle class="st8" cx="603.4" cy="132.9" r="11.7"/>
        <path class="st9" d="M611.2 123.9c-5-4.3-12.6-3.7-17 1.3 -4.3 5-3.7 12.6 1.3 17 5 4.3 12.6 3.7 17-1.3C616.8 135.8 616.2 128.2 611.2 123.9zM595.9 141.7c-4.8-4.1-5.4-11.4-1.3-16.2 4.1-4.8 11.4-5.4 16.2-1.3 4.8 4.1 5.4 11.4 1.3 16.2C607.9 145.3 600.7 145.8 595.9 141.7z"/>
        <path class="st10" d="M609.5 123.2c0 0-3.4-2.2-7.6-1.6 0 0 3-0.3 4 0.5l0.1 0.3c0 0-0.1 0.1-0.2 0.1 -0.1 0-0.3 0.1-0.4 0.1 0 0-0.1 0.2-0.1 0.2l-0.2 0c0 0-0.1 0-0.2 0 0 0-0.1 0-0.2 0.1 -0.1 0.1-0.1 0.2-0.1 0.2l-0.1 0.2 -0.1 0.1 -0.2 0c0 0-0.2-0.1-0.2-0.2 0-0.1 0-0.2 0-0.2l0.3 0c0 0 0 0 0-0.1 0-0.1 0.1-0.2 0-0.2 -0.1-0.1-0.4-0.1-0.4-0.1l-0.2 0c0 0-0.2 0.1-0.2 0.2 0 0 0.1 0.2 0.1 0.2s0 0.1-0.1 0.1c0 0.1-0.2 0.1-0.2 0.1s-0.1 0-0.2-0.1c-0.1-0.1-0.2-0.2-0.2-0.3 0-0.1-0.1-0.2-0.2-0.2 -0.1 0-0.1 0-0.2 0 0 0-0.4 0-0.4 0s-0.1 0-0.1 0c0 0-0.2 0.1-0.2 0.1s-0.1 0-0.3-0.1c-0.2-0.1-0.2-0.1-0.2-0.1l-0.2 0.1c0 0-0.2 0-0.3 0 -0.2 0-0.5 0-0.5 0 0 0-0.2 0-0.3 0.1 -0.1 0.1-0.2 0.2-0.3 0.2 -0.1 0-0.2 0.1-0.3 0.2 -0.1 0.1-0.2 0.1-0.3 0.1 -0.1 0-0.2 0-0.2 0 0 0-0.3-0.1-0.4-0.1 -0.1 0-0.2 0.1-0.2 0.1 0 0 0 0.2 0 0.2 0 0 0.5 0.5 0.5 0.5s0.3 0.5 0.2 0.5c0 0-0.2 0.2-0.2 0.2l-0.2-0.2 -0.1 0 0 0.1 0 0.1c0 0-0.1 0.1-0.2 0.1 0 0-0.2 0-0.2 0 0 0 0 0 0-0.1 0-0.1 0.1-0.1 0-0.2 -0.1-0.1-0.2-0.1-0.2-0.1 0 0-0.1-0.1-0.1-0.2 0-0.1-0.1 0 0-0.1 0.1-0.1 0.2-0.1 0.2-0.2 0-0.1 0-0.2 0-0.2 0 0-0.1 0.1 0 0 0-0.1 0-0.2 0-0.2 0 0-0.1 0 0-0.1 0-0.1 0.2-0.1 0.2-0.2 0-0.1 0.1-0.1 0.2-0.2 0 0 0.3-0.3 0.3-0.3s-0.7 0.3-1.2 0.6c0 0 0.1 0.1 0.1 0.2 -0.1 0.1-0.1 0.2-0.2 0.2 -0.1 0.1-0.1 0-0.3 0.3 -0.2 0.2-0.2 0.3-0.3 0.4 -0.1 0-0.2 0.1-0.3 0.2 -0.1 0.1-0.2 0.3-0.2 0.4 0 0.1 0 0.1 0 0.2 0 0.1-0.2 0.1 0 0.1 0.3-0.1 0.4-0.1 0.4-0.1l0.1 0c0 0 0.1-0.1 0.2 0 0.1 0.1 0.2 0.1 0.1 0.2 0 0.1-0.2 0.1-0.2 0.2 0.1 0.1 0.4 0.2 0.4 0.2 0 0.1 0.1 0.1 0 0.3 -0.1 0.1-0.1 0.3-0.1 0.4 0 0.1-0.1 0.2-0.1 0.3 0 0.1 0.1 0.3 0.1 0.4 0 0 0.2 0.2 0.2 0.3 0 0.1-0.1 0.1 0 0.2 0.1 0.1-0.1 0.4-0.1 0.4s-0.1 0.2-0.2 0.3c-0.1 0-0.1 0.1-0.1 0.2 0.1 0.1 0.2 0.3 0.2 0.3s-0.2 0.1-0.1 0.2c0.1 0.2 0.2 0.4 0.2 0.4 0 0.1-0.2 0.1 0 0.2 0.2 0.1 0.4 0.3 0.4 0.4 0 0.1-0.1 0.2 0 0.5 0.1 0.3 0.2 0.4 0.2 0.5 0 0.1 0.2 0.2 0 0.3 -0.2 0.1-0.3 0.2-0.4 0.2 -0.1 0-0.4 0.1-0.6 0.1 -0.1 0-0.3 0.1-0.3 0.3 0 0.2-0.1 0.3-0.1 0.4 -0.1 0.1-0.2 0.3-0.3 0.4 -0.1 0-0.3 0.1-0.3 0.1s0 0.3-0.2 0.3c-0.2 0-0.5 0-0.6 0 -0.1 0-0.4 0-0.4 0s-0.3 0.4-0.4 0.4c-0.1 0.1-0.9 0.3-0.9 0.6 0 0.2-0.1 0.4-0.2 0.4 -0.1 0.1-0.1 0-0.2 0.1 -0.1 0-0.2-0.2-0.3 0.1 0 0.3 0 0.4 0 0.6 0 0.2-0.1 0.2-0.1 0.4 0 0.2-0.1 0.3 0 0.5 0 0.2 0.1 0.3 0 0.4 -0.1 0.1-0.1 0.5-0.2 0.1 -0.1-0.4 0 0-0.1-0.6 -0.1-0.5-0.3-0.5-0.3-0.8 0-0.3-0.3 0.5 0-0.4 0.3-0.9 0.2-0.9 0.3-1.1 0.1-0.2 0 0 0.1-0.5 0.1-0.5 0.1-0.1 0.1-0.5 0-0.4-0.3-0.1 0-0.5 0.3-0.5 0-0.2 0.3-0.8 0.3-0.6 0.5-0.4 0.4-0.8 -0.1-0.4-0.1-0.3-0.1-0.5 0-0.2 0 0 0.2-0.6 0.1-0.6-0.1-1 0.5-1.7 0.6-0.7 0.7-0.8 0.7-0.8s-0.1-0.5 0.3-0.8c0.4-0.3 0.4-0.1 0.4-0.3 0.1-0.2 0-0.2 0-0.4 0-0.2 0-0.2 0.1-0.4 0.1-0.1 0.2-0.4 0.2-0.4l-0.1 0c0 0-8.4 8.1-0.8 16.9 0 0-1.7-2.2-1.5-2.7 0 0 0.3-0.4 0.4-0.3 0.1 0.1 0.2 0.2 0.4 0.2 0.2 0 0.5 0 0.5 0l-0.1 0.2c0 0-0.1-0.1 0.3 0.2 0.5 0.3 0.4 0.3 0.6 0.4 0.2 0.1 0.6-0.1 0.6 0.2 -0.1 0.3-0.2 0-0.1 0.3 0.1 0.2 0.6 0.4 0.6 0.4s0.6 0.6 0.7 0.6c0.1 0 0.2-0.1 0.3 0 0.1 0.1 0 0.3 0 0.3l-0.5-0.1 -0.5 0c0 0-0.2-0.1-0.1 0.1 0.1 0.2 0.1 0.2 0.3 0.3 0.1 0.1 0.2 0.7 0.5 0.6 0.2-0.1 0.3-0.1 0.4-0.2 0.2 0 0.2-0.2 0.4-0.1 0.1 0.1 0.3 0.3 0.3 0.3l-0.4 0.2c0 0 0.3 0.2 0.4 0.3 0.1 0.1 0 0.3 0.3 0.3 0.3 0 0.3 0 0.5 0.1 0.2 0.1 0.4 0.2 0.5 0.3 0 0.1 0.2 0.2 0.2 0.3 0.1 0.1 0.2 0.6 0.3 0.6 0.1 0 0.5 0.4 0.5 0.4s-1.8 0.1-4-1.8c0 0 4.7 4.4 11.5 2 6.8-2.4 10.1-10.1 5.7-17.6 0 0 3.2 5.7 0.6 11.3l-0.1 0c0-0.2-0.1-0.2 0-0.5 0.1-0.3 0.1-0.2 0.2-0.4 0-0.2 0-0.1 0-0.3 0-0.2 0-0.2 0-0.4 0-0.2 0.1-0.5 0.1-0.6 0-0.1-0.2-0.3-0.2-0.4 -0.1-0.1-0.1-0.3-0.2-0.2 -0.1 0.1-0.2 0.3-0.2 0.3l-0.3 0.3c0 0-0.3 0.3-0.3 0.4 -0.1 0.1-0.3 0.3-0.3 0.3s-0.1 0.3-0.2 0.3c-0.1 0-0.6-0.3-0.6-0.3s0-0.3 0.1-0.5c0-0.2-0.2-0.5-0.2-0.6 0-0.1 0.2-0.1 0.2-0.4 0-0.3 0.1-0.1 0.1-0.4 0-0.3 0-0.3 0-0.3s-0.3-0.4-0.3-0.1c-0.1 0.3-0.4 0.4-0.3 0.5 0.1 0.1 0.2 0.1 0.1 0.3 -0.1 0.3-0.1 0.4-0.1 0.5 0 0.1-0.2 0.4-0.1 0.5 0.1 0.1 0.3 0.3 0.2 0.4 -0.1 0.1-0.4 0.1-0.2 0.3 0.1 0.2 0.1 0.2 0.2 0.3 0.1 0 0 0.1 0.2 0.1 0.2 0.1 0.4 0.2 0.4 0.2s0.1 0.3 0 0.4c-0.1 0.1-0.4 0.4-0.4 0.4l-0.5 0.2c0 0-0.5 0.6-0.6 0.6 -0.1-0.1-0.5 0.1-0.6 0.1 -0.1 0-0.5 0.4-0.5 0.4l-0.4 0.1c0 0-0.3 0.3-0.3 0.4 0 0.1-0.3 0.5-0.5 0.6 -0.2 0.1-0.6 0.1-0.6 0.1s0.1 0.6-0.1 0.5c-0.2-0.1-0.6 0-0.7 0 -0.1 0-0.8-0.4-0.9-0.4 -0.1-0.1-0.9-0.7-1-0.7 -0.1 0.1-0.3 0.3-0.3 0.3l-0.1 0.7 -0.4 0.3c0 0 0 0.4-0.1 0.3 -0.1-0.1-0.6-0.2-0.7-0.2 -0.1 0-0.5-0.1-0.6-0.2 -0.1-0.1-0.2 0.4-0.1-0.1 0.1-0.4 0.1-0.1 0.2-0.6 0.1-0.5-0.1-0.2 0.1-0.5 0.2-0.3 0 0 0.2-0.2 0.2-0.3 0.1 0 0.2-0.4 0.1-0.4 0.1-0.3 0-0.6 0-0.3-0.3-0.3 0-0.4 0.3-0.2 0 0 0.3-0.2 0.3-0.2 0.2-0.3 0.5-0.3 0.3 0 0.4 0.1 0.6-0.1 0.1-0.2 0.2-0.2 0.2-0.4 0-0.1 0-0.5 0.1-0.5 0-0.1 0 0 0-0.3 0-0.3 0-0.5 0-0.5s0.3-0.5 0.5-0.6c0.1-0.2-0.2 0.1 0.1-0.2 0.3-0.2 0.5-0.4 0.5-0.4s-0.1-0.5-0.3-0.6c-0.1-0.1-0.3 0.1-0.3-0.2 -0.1-0.3 0.1-0.4 0-0.5 0-0.1-0.1-0.2-0.3-0.2 -0.2 0-0.4-0.2-0.7-0.3 -0.3-0.1-0.3-0.2-0.6-0.4 -0.3-0.2-0.6-0.4-0.7-0.6 -0.1-0.3-0.2-0.1-0.1-0.4 0.1-0.3 0.2-0.2 0.1-0.5 -0.1-0.3-0.2-0.2-0.1-0.4 0.1-0.2 0.2-0.1 0.2-0.4 0-0.3 0 0.2 0-0.3 0-0.5-0.3-0.3 0-0.5 0.3-0.1 0.2 0 0.4-0.2 0.2-0.3 0.3 0.4 0.5-0.3 0.2-0.7 0.1-0.6 0.6-0.8 0.5-0.2 0.9-0.1 1-0.1 0.1 0 0.4-0.2 0.5-0.2 0.1 0 0.1-0.1 0.3 0.1 0.2 0.2 0.4 0.3 0.7 0.3 0.2 0 0.6-0.1 0.7 0 0.1 0.1 0 0.1 0.3 0.2 0.2 0.1 0.3 0.1 0.4 0.2 0.1 0.1-0.2-0.1 0.2 0.2 0.4 0.2 0.3 0.2 0.4 0.2 0.1 0.1 0 0.1 0.2 0.2 0.1 0.1 0.4-0.2 0.1 0.1 -0.2 0.3-0.5 0.4-0.3 0.6 0.2 0.2 0 0 0.2 0.2 0.2 0.2 0.2 0.2 0.2 0.4 0.1 0.2 0.1 0.3 0.3 0.5 0.2 0.2-0.3 0.2 0.2 0.2 0.5 0 0.1-0.5 0.5 0 0.4 0.5 0.4 0.6 0.5 0.6 0.1 0 0.1 0.1 0.4 0.2 0.3 0.1 0.3 0.1 0.4 0.2 0.1 0.1-0.1 0.3 0.1 0.2 0.2-0.1 0.4 0.1 0.2-0.3 -0.1-0.3-0.4-0.3-0.3-0.5 0.1-0.2 0.3 0.1 0.1-0.2 -0.2-0.3-0.2-0.2-0.3-0.4 -0.1-0.2-0.5-0.1-0.4-0.4 0.1-0.2-0.5-0.2 0.1-0.2 0.6 0 0.6-0.3 0.8 0 0.2 0.3-0.1 0.4 0.2 0.4 0.3 0 0.6 0.1 0.5-0.3 -0.1-0.4 0-0.2-0.2-0.5 -0.2-0.4-0.9 0-1-0.2 -0.1-0.2-0.1-0.3-0.2-0.3 -0.1 0-0.3 0.2-0.5 0.3 -0.2 0.2 0 0.3-0.2 0 -0.2-0.4 0.3 0.2-0.1-0.6 -0.4-0.7-0.7-0.9-0.8-0.9 -0.2 0-0.3-0.1-0.4-0.1 -0.1 0 0 0.4-0.1 0 -0.1-0.4-0.6-0.3-0.6-0.3s0-0.1-0.2-0.1c-0.2 0-0.4-0.1-0.5-0.3 -0.1-0.1-0.4-0.3 0-0.4 0.5-0.1 0.2-0.1 0.7 0.1 0.5 0.2 1 0.6 0.7 0.1 -0.4-0.5 0.3 0.1 0-0.7 -0.4-0.8-0.7-0.4-0.4-0.8 0.4-0.4 0.3-0.5 0.2-0.5 -0.1-0.1-0.6-0.3-0.8-0.4 -0.2-0.1-0.1 0.2-0.2-0.2 -0.1-0.4-0.4-0.2-0.1-0.4 0.3-0.2 0.4-0.2 0.7-0.2 0.3 0 0.7-0.6 1 0 0.2 0.6 0.1 0.4 0.4 0.7 0.3 0.3 0.5 0.4 0.6 0.3 0.1-0.1-0.2-0.6-0.2-0.6s-0.2-0.1-0.1-0.1c0.1 0 0.3-0.1 0.3-0.1l0-0.2C611 124.3 609.9 123.3 609.5 123.2z"/>
    </g>
    <g class="st7">
        <circle class="st8" cx="690.6" cy="140" r="11.7"/>
        <path class="st9" d="M698.4 131c-5-4.3-12.6-3.7-17 1.3 -4.3 5-3.7 12.6 1.3 17 5 4.3 12.6 3.7 17-1.3C704 142.9 703.5 135.3 698.4 131zM683.1 148.8c-4.8-4.1-5.4-11.4-1.3-16.2 4.1-4.8 11.4-5.4 16.2-1.3 4.8 4.1 5.4 11.4 1.3 16.2C695.2 152.4 687.9 152.9 683.1 148.8z"/>
        <path class="st10" d="M696.8 130.3c0 0-3.4-2.2-7.6-1.6 0 0 3-0.3 4 0.5l0.1 0.3c0 0-0.1 0.1-0.2 0.1 -0.1 0-0.3 0.1-0.4 0.1 0 0-0.1 0.2-0.1 0.2l-0.2 0c0 0-0.1 0-0.2 0 0 0-0.1 0-0.2 0.1 -0.1 0.1-0.1 0.2-0.1 0.2l-0.1 0.2 -0.1 0.1 -0.2 0c0 0-0.2-0.1-0.2-0.2 0-0.1 0-0.2 0-0.2l0.3 0c0 0 0 0 0-0.1 0-0.1 0.1-0.2 0-0.2 -0.1-0.1-0.4-0.1-0.4-0.1l-0.2 0c0 0-0.2 0.1-0.2 0.2 0 0 0.1 0.2 0.1 0.2s0 0.1-0.1 0.1c0 0.1-0.2 0.1-0.2 0.1s-0.1 0-0.2-0.1c-0.1-0.1-0.2-0.2-0.2-0.3 0-0.1-0.1-0.2-0.2-0.2 -0.1 0-0.1 0-0.2 0 0 0-0.4 0-0.4 0s-0.1 0-0.1 0c0 0-0.2 0.1-0.2 0.1s-0.1 0-0.3-0.1c-0.2-0.1-0.2-0.1-0.2-0.1l-0.2 0.1c0 0-0.2 0-0.3 0 -0.2 0-0.5 0-0.5 0 0 0-0.2 0-0.3 0.1 -0.1 0.1-0.2 0.2-0.3 0.2 -0.1 0-0.2 0.1-0.3 0.2 -0.1 0.1-0.2 0.1-0.3 0.1 -0.1 0-0.2 0-0.2 0 0 0-0.3-0.1-0.4-0.1 -0.1 0-0.2 0.1-0.2 0.1 0 0 0 0.2 0 0.2 0 0 0.5 0.5 0.5 0.5s0.3 0.5 0.2 0.5c0 0-0.2 0.2-0.2 0.2l-0.2-0.2 -0.1 0 0 0.1 0 0.1c0 0-0.1 0.1-0.2 0.1 0 0-0.2 0-0.2 0 0 0 0 0 0-0.1 0-0.1 0.1-0.1 0-0.2 -0.1-0.1-0.2-0.1-0.2-0.1 0 0-0.1-0.1-0.1-0.2 0-0.1-0.1 0 0-0.1 0.1-0.1 0.2-0.1 0.2-0.2 0-0.1 0-0.2 0-0.2 0 0-0.1 0.1 0 0 0-0.1 0-0.2 0-0.2 0 0-0.1 0 0-0.1 0-0.1 0.2-0.1 0.2-0.2 0-0.1 0.1-0.1 0.2-0.2 0 0 0.3-0.3 0.3-0.3s-0.7 0.3-1.2 0.6c0 0 0.1 0.1 0.1 0.2 -0.1 0.1-0.1 0.2-0.2 0.2 -0.1 0.1-0.1 0-0.3 0.3 -0.2 0.2-0.2 0.3-0.3 0.4 -0.1 0-0.2 0.1-0.3 0.2 -0.1 0.1-0.2 0.3-0.2 0.4 0 0.1 0 0.1 0 0.2 0 0.1-0.2 0.1 0 0.1 0.3-0.1 0.4-0.1 0.4-0.1l0.1 0c0 0 0.1-0.1 0.2 0 0.1 0.1 0.2 0.1 0.1 0.2 0 0.1-0.2 0.1-0.2 0.2 0.1 0.1 0.4 0.2 0.4 0.2 0 0.1 0.1 0.1 0 0.3 -0.1 0.1-0.1 0.3-0.1 0.4 0 0.1-0.1 0.2-0.1 0.3 0 0.1 0.1 0.3 0.1 0.4 0 0 0.2 0.2 0.2 0.3 0 0.1-0.1 0.1 0 0.2 0.1 0.1-0.1 0.4-0.1 0.4s-0.1 0.2-0.2 0.3c-0.1 0-0.1 0.1-0.1 0.2 0.1 0.1 0.2 0.3 0.2 0.3s-0.2 0.1-0.1 0.2c0.1 0.2 0.2 0.4 0.2 0.4 0 0.1-0.2 0.1 0 0.2 0.2 0.1 0.4 0.3 0.4 0.4 0 0.1-0.1 0.2 0 0.5 0.1 0.3 0.2 0.4 0.2 0.5 0 0.1 0.2 0.2 0 0.3 -0.2 0.1-0.3 0.2-0.4 0.2 -0.1 0-0.4 0.1-0.6 0.1 -0.1 0-0.3 0.1-0.3 0.3 0 0.2-0.1 0.3-0.1 0.4 -0.1 0.1-0.2 0.3-0.3 0.4 -0.1 0-0.3 0.1-0.3 0.1s0 0.3-0.2 0.3c-0.2 0-0.5 0-0.6 0 -0.1 0-0.4 0-0.4 0s-0.3 0.4-0.4 0.4c-0.1 0.1-0.9 0.3-0.9 0.6 0 0.2-0.1 0.4-0.2 0.4 -0.1 0.1-0.1 0-0.2 0.1 -0.1 0-0.2-0.2-0.3 0.1 0 0.3 0 0.4 0 0.6 0 0.2-0.1 0.2-0.1 0.4 0 0.2-0.1 0.3 0 0.5 0 0.2 0.1 0.3 0 0.4 -0.1 0.1-0.1 0.5-0.2 0.1 -0.1-0.4 0 0-0.1-0.6 -0.1-0.5-0.3-0.5-0.3-0.8 0-0.3-0.3 0.5 0-0.4 0.3-0.9 0.2-0.9 0.3-1.1 0.1-0.2 0 0 0.1-0.5 0.1-0.5 0.1-0.1 0.1-0.5 0-0.4-0.3-0.1 0-0.5 0.3-0.5 0-0.2 0.3-0.8 0.3-0.6 0.5-0.4 0.4-0.8 -0.1-0.4-0.1-0.3-0.1-0.5 0-0.2 0 0 0.2-0.6 0.1-0.6-0.1-1 0.5-1.7 0.6-0.7 0.7-0.8 0.7-0.8s-0.1-0.5 0.3-0.8c0.4-0.3 0.4-0.1 0.4-0.3 0.1-0.2 0-0.2 0-0.4 0-0.2 0-0.2 0.1-0.4 0.1-0.1 0.2-0.4 0.2-0.4l-0.1 0c0 0-8.4 8.1-0.8 16.9 0 0-1.7-2.2-1.5-2.7 0 0 0.3-0.4 0.4-0.3 0.1 0.1 0.2 0.2 0.4 0.2 0.2 0 0.5 0 0.5 0l-0.1 0.2c0 0-0.1-0.1 0.3 0.2 0.5 0.3 0.4 0.3 0.6 0.4 0.2 0.1 0.6-0.1 0.6 0.2 -0.1 0.3-0.2 0-0.1 0.3 0.1 0.2 0.6 0.4 0.6 0.4s0.6 0.6 0.7 0.6c0.1 0 0.2-0.1 0.3 0 0.1 0.1 0 0.3 0 0.3l-0.5-0.1 -0.5 0c0 0-0.2-0.1-0.1 0.1 0.1 0.2 0.2 0.2 0.3 0.3 0.1 0.1 0.2 0.7 0.5 0.6 0.2-0.1 0.3-0.1 0.4-0.2 0.2 0 0.2-0.2 0.4-0.1 0.1 0.1 0.3 0.3 0.3 0.3l-0.4 0.2c0 0 0.3 0.2 0.4 0.3 0.1 0.1 0 0.3 0.3 0.3 0.3 0 0.3 0 0.5 0.1 0.2 0.1 0.4 0.2 0.5 0.3 0 0.1 0.2 0.2 0.2 0.3 0.1 0.1 0.2 0.6 0.3 0.6 0.1 0 0.5 0.4 0.5 0.4s-1.8 0.1-4-1.8c0 0 4.7 4.4 11.5 2 6.8-2.4 10.1-10.1 5.7-17.6 0 0 3.2 5.7 0.6 11.3l-0.1 0c0-0.2-0.1-0.2 0-0.5 0.1-0.3 0.1-0.2 0.2-0.4 0-0.2 0-0.1 0-0.3 0-0.2 0-0.2 0-0.4 0-0.2 0.1-0.5 0.1-0.6 0-0.1-0.2-0.3-0.2-0.4 -0.1-0.1-0.1-0.3-0.2-0.2 -0.1 0.1-0.2 0.3-0.2 0.3l-0.3 0.3c0 0-0.3 0.3-0.3 0.4 -0.1 0.1-0.3 0.3-0.3 0.3s-0.1 0.3-0.2 0.3c-0.1 0-0.6-0.3-0.6-0.3s0-0.3 0.1-0.5c0-0.2-0.2-0.5-0.2-0.6 0-0.1 0.2-0.1 0.2-0.4 0-0.3 0.1-0.1 0.1-0.4 0-0.3 0-0.3 0-0.3s-0.3-0.4-0.3-0.1c-0.1 0.3-0.4 0.4-0.3 0.5 0.1 0.1 0.2 0.1 0.1 0.3 -0.1 0.3-0.1 0.4-0.1 0.5 0 0.1-0.2 0.4-0.1 0.5 0.1 0.1 0.3 0.3 0.2 0.4 -0.1 0.1-0.4 0.1-0.2 0.3 0.1 0.2 0.1 0.2 0.2 0.3 0.1 0 0 0.1 0.2 0.1 0.2 0.1 0.4 0.2 0.4 0.2s0.1 0.3 0 0.4c-0.1 0.1-0.4 0.4-0.4 0.4l-0.5 0.2c0 0-0.5 0.6-0.6 0.6 -0.1-0.1-0.5 0.1-0.6 0.1 -0.1 0-0.5 0.4-0.5 0.4l-0.4 0.1c0 0-0.3 0.3-0.3 0.4 0 0.1-0.3 0.5-0.5 0.6 -0.2 0.1-0.6 0.1-0.6 0.1s0.1 0.6-0.1 0.5c-0.2-0.1-0.6 0-0.7 0 -0.1 0-0.8-0.4-0.9-0.4 -0.1-0.1-0.9-0.7-1-0.7 -0.1 0.1-0.3 0.3-0.3 0.3l-0.1 0.7 -0.4 0.3c0 0 0 0.4-0.1 0.3 -0.1-0.1-0.6-0.2-0.7-0.2 -0.1 0-0.5-0.1-0.6-0.2 -0.1-0.1-0.2 0.4-0.1-0.1 0.1-0.4 0.1-0.1 0.2-0.6 0.1-0.5-0.1-0.2 0.1-0.5 0.2-0.3 0 0 0.2-0.2 0.2-0.3 0.1 0 0.2-0.4 0.1-0.4 0.1-0.3 0-0.6 0-0.3-0.3-0.3 0-0.4 0.3-0.2 0 0 0.3-0.2 0.3-0.2 0.2-0.3 0.5-0.3 0.3 0 0.4 0.1 0.6-0.1 0.1-0.2 0.2-0.2 0.2-0.4 0-0.1 0-0.5 0.1-0.5 0-0.1 0 0 0-0.3 0-0.3 0-0.5 0-0.5s0.3-0.5 0.5-0.6c0.1-0.2-0.2 0.1 0.1-0.2 0.3-0.2 0.5-0.4 0.5-0.4s-0.1-0.5-0.3-0.6c-0.1-0.1-0.3 0.1-0.3-0.2 -0.1-0.3 0.1-0.4 0-0.5 0-0.1-0.1-0.2-0.3-0.2 -0.2 0-0.4-0.2-0.7-0.3 -0.3-0.1-0.3-0.2-0.6-0.4 -0.3-0.2-0.6-0.4-0.7-0.6 -0.1-0.3-0.2-0.1-0.1-0.4 0.1-0.3 0.2-0.2 0.1-0.5 -0.1-0.3-0.2-0.2-0.1-0.4 0.1-0.2 0.2-0.1 0.2-0.4 0-0.3 0 0.2 0-0.3 0-0.5-0.3-0.3 0-0.5 0.3-0.1 0.2 0 0.4-0.2 0.2-0.3 0.3 0.4 0.5-0.3 0.2-0.7 0.1-0.6 0.6-0.8 0.5-0.2 0.9-0.1 1-0.1 0.1 0 0.4-0.2 0.5-0.2 0.1 0 0.1-0.1 0.3 0.1 0.2 0.2 0.4 0.3 0.7 0.3 0.2 0 0.6-0.1 0.7 0 0.1 0.1 0 0.1 0.3 0.2 0.2 0.1 0.3 0.1 0.4 0.2 0.1 0.1-0.2-0.1 0.2 0.2 0.4 0.2 0.3 0.2 0.4 0.2 0.1 0.1 0 0.1 0.2 0.2 0.1 0.1 0.4-0.2 0.1 0.1 -0.2 0.3-0.5 0.4-0.3 0.6 0.2 0.2 0 0 0.2 0.2 0.2 0.2 0.2 0.2 0.2 0.4 0.1 0.2 0.1 0.3 0.3 0.5 0.2 0.2-0.3 0.2 0.2 0.2 0.5 0 0.1-0.5 0.5 0 0.4 0.5 0.4 0.6 0.5 0.6 0.1 0 0.1 0.1 0.4 0.2 0.3 0.1 0.3 0.1 0.4 0.2 0.1 0.1-0.1 0.3 0.1 0.2 0.2-0.1 0.4 0.1 0.2-0.3 -0.1-0.3-0.4-0.3-0.3-0.5 0.1-0.2 0.3 0.1 0.1-0.2 -0.2-0.3-0.2-0.2-0.3-0.4 -0.1-0.2-0.5-0.1-0.4-0.4 0.1-0.2-0.5-0.2 0.1-0.2 0.6 0 0.6-0.3 0.8 0 0.2 0.3-0.1 0.4 0.2 0.4 0.3 0 0.6 0.1 0.5-0.3 -0.1-0.4 0-0.2-0.2-0.5 -0.2-0.4-0.9 0-1-0.2 -0.1-0.2-0.1-0.3-0.2-0.3 -0.1 0-0.3 0.2-0.5 0.3 -0.2 0.2 0 0.3-0.2 0 -0.2-0.4 0.3 0.2-0.1-0.6 -0.4-0.7-0.7-0.9-0.8-0.9 -0.2 0-0.3-0.1-0.4-0.1 -0.1 0 0 0.4-0.1 0 -0.1-0.4-0.6-0.3-0.6-0.3s-0.1-0.1-0.2-0.1c-0.2 0-0.4-0.1-0.5-0.3 -0.1-0.1-0.4-0.3 0-0.4 0.5-0.1 0.2-0.1 0.7 0.1 0.5 0.2 1 0.6 0.7 0.1 -0.4-0.5 0.3 0.1 0-0.7 -0.4-0.8-0.7-0.4-0.4-0.8 0.4-0.4 0.3-0.5 0.2-0.5 -0.1-0.1-0.6-0.3-0.8-0.4 -0.2-0.1-0.1 0.2-0.2-0.2 -0.1-0.4-0.4-0.2-0.1-0.4 0.3-0.2 0.4-0.2 0.7-0.2 0.3 0 0.7-0.6 1 0 0.2 0.6 0.1 0.4 0.4 0.7 0.3 0.3 0.5 0.4 0.6 0.3 0.1-0.1-0.2-0.6-0.2-0.6s-0.2-0.1-0.1-0.1c0.1 0 0.3-0.1 0.3-0.1l0-0.2C698.3 131.4 697.1 130.4 696.8 130.3z"/>
    </g>
    <g class="st7">
        <circle class="st8" cx="811.7" cy="192.5" r="11.7"/>
        <path class="st9" d="M809 180.9c-6.5 1.5-10.5 8-8.9 14.5 1.5 6.5 8 10.5 14.5 8.9 6.5-1.5 10.5-8 8.9-14.5C821.9 183.3 815.4 179.3 809 180.9zM814.4 203.7c-6.2 1.5-12.3-2.3-13.8-8.5 -1.5-6.2 2.3-12.4 8.5-13.8 6.2-1.5 12.4 2.3 13.8 8.5C824.4 196.1 820.6 202.3 814.4 203.7z"/>
        <path class="st10" d="M807.4 181.8c0 0-3.8 1.5-5.8 5.2 0 0 1.6-2.6 2.8-2.9l0.3 0.1c0 0 0 0.1 0 0.2 0 0.1-0.1 0.3-0.1 0.4 0 0.1 0.1 0.2 0.1 0.2l-0.1 0.2c0 0-0.1 0.1-0.1 0.1 0 0-0.1 0.1 0 0.2 0 0.1 0.1 0.2 0.1 0.2l0.1 0.2 0 0.1 -0.1 0.1c0 0-0.2 0.1-0.3 0.1 -0.1 0-0.2-0.2-0.2-0.2l0.2-0.2c0 0 0 0-0.1-0.1 -0.1 0-0.1-0.2-0.2-0.1 -0.1 0.1-0.3 0.3-0.3 0.3l-0.2 0.2c0 0 0 0.3 0 0.3 0 0 0.2 0 0.2 0s0 0.1 0.1 0.1c0 0.1 0 0.2 0 0.2s0 0.1-0.2 0.1c-0.1 0-0.3 0-0.4 0 -0.1 0-0.2 0-0.3 0 -0.1 0-0.1 0.1-0.1 0.1 0 0-0.2 0.3-0.2 0.3s-0.1 0.1-0.1 0.1c0 0.1 0 0.3 0 0.3s-0.1 0.1-0.2 0.2c-0.2 0.1-0.2 0.1-0.2 0.1l0 0.2c0 0-0.1 0.1-0.2 0.3 -0.1 0.1-0.3 0.4-0.3 0.4 0 0-0.1 0.2-0.1 0.3 0 0.1 0 0.3 0 0.3 0 0.1 0 0.2 0 0.3 0 0.1 0 0.3-0.1 0.3 0 0.1-0.1 0.2-0.1 0.2 0 0-0.3 0.2-0.3 0.2 -0.1 0.1-0.1 0.2-0.1 0.3 0 0 0.2 0.1 0.2 0.1 0 0 0.7-0.1 0.7-0.1s0.6 0.1 0.6 0.1c0 0 0.1 0.2 0.1 0.2l-0.3 0.1 0 0.1 0.1 0.1 0.1 0.1c0 0 0 0.1 0 0.2 0 0-0.1 0.2-0.1 0.2 0 0 0 0-0.1-0.1 -0.1-0.1-0.1-0.1-0.2-0.1 -0.1 0-0.2 0.1-0.2 0.1 0 0-0.1 0-0.2-0.1 -0.1 0-0.1 0.1-0.1 0 0-0.1 0-0.2 0-0.2 0 0-0.2-0.1-0.2-0.1 -0.1 0 0.1 0.1-0.1 0 -0.1-0.1-0.2-0.1-0.2-0.1 0 0-0.1 0-0.1 0 0-0.1 0-0.2 0-0.3 0-0.1 0-0.2 0-0.2 0-0.1 0-0.4 0-0.4s-0.2 0.8-0.2 1.4c0 0 0.1-0.1 0.2 0 0 0.1 0.1 0.2 0.1 0.3 0 0.1 0 0.1 0.1 0.4 0.1 0.3 0.2 0.3 0.1 0.4 0 0.1 0 0.2 0 0.3 0 0.1 0.2 0.4 0.2 0.4 0.1 0 0.1 0.1 0.1 0.1 0.1 0 0 0.3 0.1 0 0.1-0.2 0.1-0.4 0.1-0.4l0.1-0.1c0 0 0-0.1 0.2-0.1 0.2 0 0.2 0 0.3 0 0.1 0.1 0 0.3 0.1 0.3 0.1 0 0.3-0.2 0.4-0.2 0.1 0 0.2 0 0.2 0.1 0.1 0.1 0.2 0.3 0.2 0.3 0.1 0 0.1 0.2 0.2 0.3 0.1 0.1 0.3 0.1 0.4 0.1 0.1 0 0.3 0 0.4 0 0.1 0 0 0.2 0.2 0.2 0.2 0 0.3 0.3 0.3 0.3s0.1 0.2 0.1 0.3c0 0.1 0 0.2 0.1 0.2 0.1 0 0.3 0 0.3 0s-0.1 0.2 0.1 0.2c0.2 0 0.4 0 0.5 0.1 0.1 0-0.1 0.2 0.1 0.2 0.2-0.1 0.4-0.2 0.6-0.1 0.1 0.1 0.1 0.2 0.4 0.3 0.3 0.1 0.4 0.1 0.5 0.1 0.1 0 0.2 0 0.2 0.2 0 0.2 0 0.4-0.1 0.5 -0.1 0.1-0.2 0.4-0.2 0.5 0 0.1-0.1 0.3 0 0.4 0.1 0.1 0.2 0.3 0.3 0.4 0 0.1 0.1 0.3 0.1 0.5 0 0.1-0.1 0.3-0.1 0.3s0.2 0.1 0.1 0.3c-0.1 0.2-0.3 0.4-0.4 0.4 -0.1 0.1-0.3 0.3-0.3 0.3s0.1 0.4 0.1 0.5c0 0.1-0.2 0.9-0.1 1 0.2 0.1 0.2 0.3 0.2 0.4 0 0.1-0.1 0.1-0.1 0.2 0 0.1-0.3 0.1-0.1 0.3 0.2 0.2 0.3 0.2 0.4 0.4 0.1 0.1 0.1 0.2 0.2 0.3 0.1 0.1 0.2 0.2 0.4 0.3 0.1 0.1 0.3 0.1 0.3 0.2 0 0.1 0.4 0.3 0 0.2 -0.4-0.1 0 0-0.5-0.3 -0.5-0.2-0.6-0.1-0.8-0.2 -0.2-0.2 0.2 0.5-0.3-0.3 -0.6-0.8-0.6-0.7-0.8-0.9 -0.1-0.2 0 0-0.4-0.4 -0.4-0.4-0.1-0.2-0.4-0.4 -0.3-0.2-0.2 0.2-0.4-0.3 -0.2-0.5-0.2-0.1-0.5-0.7 -0.3-0.6 0-0.6-0.4-0.8 -0.4-0.2-0.3-0.1-0.5-0.2 -0.2-0.2 0 0-0.4-0.5 -0.4-0.4-0.8-0.5-1-1.4 -0.2-0.9-0.2-1-0.2-1s-0.5-0.2-0.5-0.8c0-0.5 0.1-0.4 0-0.5 -0.1-0.1-0.1-0.1-0.3-0.3 -0.2-0.2-0.2-0.1-0.3-0.3 -0.1-0.1-0.2-0.4-0.2-0.4l-0.1 0.1c0 0 1.6 11.6 13.2 10.5 0 0-2.7 0.1-3.1-0.4 0 0-0.2-0.5-0.1-0.5 0.1 0 0.3 0 0.4-0.2 0.1-0.2 0.3-0.4 0.3-0.4l0.1 0.2c0 0-0.2 0.1 0.3-0.1 0.5-0.2 0.5-0.1 0.7-0.3 0.2-0.1 0.3-0.6 0.5-0.4 0.2 0.2-0.1 0.2 0.2 0.2 0.3 0 0.7-0.2 0.7-0.2s0.8-0.1 0.9-0.2c0.1-0.1 0-0.2 0.2-0.2 0.1 0 0.3 0.2 0.3 0.2l-0.4 0.3 -0.3 0.4c0 0-0.2 0.1 0 0.1 0.2 0 0.3 0 0.4 0 0.2 0 0.7 0.2 0.8 0 0.1-0.2 0.1-0.3 0.1-0.4 0-0.2 0-0.3 0.2-0.4 0.2 0 0.4 0 0.4 0l-0.1 0.4c0 0 0.3-0.1 0.5-0.1 0.1 0 0.2 0.2 0.4-0.1 0.1-0.2 0.2-0.2 0.3-0.3 0.2-0.1 0.4-0.2 0.5-0.2 0.1 0 0.3 0 0.3 0 0.1 0 0.6 0.2 0.6 0.1 0.1-0.1 0.6-0.2 0.6-0.2s-1 1.5-3.8 2.2c0 0 6.3-1.2 8.4-8.1 2.1-6.9-2.2-14.1-10.9-14.9 0 0 6.5 0.8 9.5 6.2l0 0.1c-0.2-0.1-0.2 0-0.4-0.3 -0.2-0.2-0.1-0.2-0.2-0.4 -0.2-0.2-0.1 0-0.3-0.2 -0.2-0.2-0.2-0.1-0.3-0.2 -0.1-0.1-0.3-0.4-0.4-0.5 -0.1-0.1-0.4-0.1-0.5-0.1 -0.1 0-0.3-0.1-0.3 0 0 0.1 0.1 0.4 0.1 0.4l0.1 0.4c0 0 0.1 0.4 0.1 0.5 0 0.1 0.1 0.4 0.1 0.4s0.2 0.3 0.1 0.4c-0.1 0.1-0.6 0.3-0.6 0.3s-0.2-0.2-0.3-0.3c-0.2-0.2-0.5-0.1-0.6-0.2 -0.1-0.1 0-0.3-0.2-0.4 -0.2-0.2 0-0.2-0.3-0.3 -0.3-0.1-0.3-0.1-0.3-0.1s-0.5 0-0.3 0.2c0.2 0.2 0.1 0.6 0.2 0.6 0.1 0 0.2-0.1 0.4 0.1 0.2 0.2 0.2 0.3 0.3 0.4 0.1 0.1 0.2 0.4 0.3 0.4 0.1 0 0.4-0.1 0.4 0 0 0.1-0.1 0.4 0.1 0.4 0.2 0 0.2 0.1 0.3 0 0.1-0.1 0.1 0 0.2-0.1 0.2-0.1 0.4-0.2 0.4-0.2s0.3 0.1 0.3 0.2c0 0.1 0 0.6 0 0.6l-0.1 0.5c0 0 0.2 0.8 0.1 0.8 -0.1 0-0.2 0.4-0.3 0.5 -0.1 0.1 0 0.6 0 0.6l-0.2 0.4c0 0 0.1 0.4 0.1 0.5 0.1 0.1 0.2 0.5 0.2 0.7 0 0.2-0.2 0.5-0.2 0.5s0.5 0.3 0.3 0.4c-0.2 0.1-0.3 0.5-0.4 0.6 0 0.1-0.8 0.4-0.9 0.5 -0.1 0.1-1.2 0.3-1.1 0.4 0 0.1 0.1 0.4 0.1 0.4l0.5 0.5 0 0.5c0 0 0.3 0.2 0.2 0.3 -0.2 0.1-0.5 0.4-0.6 0.5 -0.1 0.1-0.4 0.4-0.5 0.4 -0.1 0 0.2 0.4-0.1 0 -0.3-0.3-0.1-0.1-0.4-0.5 -0.3-0.4-0.2-0.1-0.3-0.4 -0.1-0.3 0 0-0.1-0.3 -0.1-0.3 0.1-0.1-0.2-0.4 -0.2-0.3-0.2-0.2-0.5-0.4 -0.3-0.2-0.4 0.1-0.3-0.3 0-0.4 0.1 0 0-0.4 0-0.4-0.1-0.4 0.1-0.6 0.2-0.2 0.4-0.3 0.3-0.5 -0.1-0.2-0.1-0.3-0.2-0.4 -0.1-0.1-0.4-0.3-0.4-0.4 -0.1-0.1 0 0-0.3-0.2 -0.2-0.2-0.4-0.3-0.4-0.3s-0.2-0.6-0.2-0.8c-0.1-0.2 0 0.2-0.1-0.2 0-0.4 0-0.6 0-0.6s-0.5-0.2-0.6-0.1c-0.2 0.1-0.1 0.3-0.4 0.2 -0.3-0.1-0.3-0.3-0.4-0.3 -0.1 0-0.3 0-0.4 0.1 -0.1 0.1-0.4 0.2-0.6 0.4 -0.2 0.2-0.3 0.2-0.6 0.2 -0.3 0.1-0.7 0.3-0.9 0.2 -0.3-0.1-0.3 0.1-0.4-0.1 -0.2-0.2-0.1-0.2-0.3-0.3 -0.3-0.1-0.3 0-0.4-0.2 -0.1-0.2 0.1-0.2-0.2-0.4 -0.2-0.2 0.1 0.1-0.2-0.2 -0.4-0.3-0.4 0-0.4-0.3 0-0.3 0.2-0.2 0.1-0.5 -0.1-0.3 0.5 0 0.1-0.6 -0.4-0.6-0.5-0.4-0.3-1 0.2-0.5 0.5-0.8 0.5-0.9 0-0.1 0.1-0.4 0.2-0.5 0.1-0.1 0-0.2 0.2-0.2 0.2 0 0.5-0.2 0.6-0.4 0.1-0.2 0.3-0.5 0.4-0.5 0.1-0.1 0.1 0 0.3-0.1 0.2-0.1 0.3-0.1 0.4-0.2 0.2 0-0.1 0.1 0.3-0.1 0.4-0.2 0.3-0.2 0.4-0.2 0.1 0 0.1 0 0.3 0 0.2 0 0.1-0.4 0.2 0 0.1 0.4 0 0.6 0.3 0.6 0.3-0.1 0 0 0.3-0.1 0.3-0.1 0.3 0 0.4 0 0.2 0 0.3 0.1 0.5 0.1 0.2-0.1 0 0.4 0.2-0.1 0.3-0.4-0.4-0.3 0.3-0.4 0.6-0.1 0.7 0 0.8-0.1 0.1-0.1 0.1 0 0.4-0.2 0.2-0.2 0.3-0.2 0.4-0.2 0.1 0 0.2 0.3 0.2 0 0-0.3 0.3-0.2-0.1-0.3 -0.4-0.1-0.4 0.1-0.5-0.1 -0.1-0.2 0.2-0.2-0.1-0.2 -0.3 0-0.3 0-0.5 0 -0.3 0-0.4 0.4-0.6 0.1 -0.1-0.2-0.5 0.3-0.1-0.2 0.4-0.5 0.1-0.6 0.4-0.6 0.3 0 0.3 0.3 0.4 0.1 0.2-0.2 0.5-0.4 0.1-0.6 -0.4-0.2-0.1-0.1-0.5-0.2 -0.4-0.1-0.5 0.8-0.7 0.7 -0.2-0.1-0.3-0.1-0.4 0 -0.1 0.1 0 0.4 0 0.6 0 0.2 0.3 0.2-0.1 0.1 -0.4-0.1 0.4-0.2-0.5-0.3 -0.8-0.1-1.1 0-1.2 0.2 -0.1 0.1-0.2 0.1-0.3 0.2 -0.1 0.1 0.3 0.2-0.1 0.1 -0.4-0.1-0.6 0.3-0.6 0.3s-0.1 0-0.2 0.1c-0.1 0.1-0.4 0.3-0.5 0.3 -0.2 0-0.5 0.2-0.3-0.3 0.2-0.4 0-0.2 0.5-0.5 0.4-0.3 1.1-0.5 0.5-0.5 -0.6 0 0.3-0.2-0.6-0.4 -0.9-0.2-0.8 0.3-0.9-0.2 -0.1-0.5-0.2-0.5-0.3-0.5 -0.2 0.1-0.6 0.3-0.8 0.4 -0.2 0.1 0.1 0.2-0.3 0 -0.4-0.1-0.5 0.2-0.4-0.1 0.1-0.4 0.1-0.4 0.2-0.7 0.2-0.2 0-0.9 0.6-0.8 0.6 0.1 0.4 0.1 0.8 0 0.4-0.1 0.6-0.2 0.6-0.3 0-0.1-0.6-0.2-0.6-0.2s-0.2 0.1-0.1 0c0-0.1 0.1-0.3 0.1-0.3l-0.2-0.1C809.3 181.3 807.8 181.6 807.4 181.8z"/>
    </g>
    <path class="st11" d="M859.1 177.2c0 0.4-0.5 0.8-1 0.8h-0.5c-0.6 0-1-0.4-1-0.8v-4.8c0-0.4 0.5-0.8 1-0.8h0.5c0.6 0 1 0.4 1 0.8V177.2z"/>
    <path class="st11" d="M863.6 177.1c0 0.5-0.5 0.9-1 0.9h-0.5c-0.6 0-1-0.4-1-0.9v-5.6c0-0.5 0.5-0.9 1-0.9h0.5c0.6 0 1 0.4 1 0.9V177.1z"/>
    <path class="st11" d="M868.1 176.8c0 0.6-0.5 1.2-1 1.2h-0.5c-0.6 0-1-0.5-1-1.2v-6.9c0-0.6 0.5-1.1 1-1.1h0.5c0.6 0 1 0.5 1 1.1V176.8z"/>
    <path class="st11" d="M872.7 176.5c0 0.8-0.4 1.5-1 1.5l-0.5 0c-0.6 0-1-0.7-1-1.5l-0.2-9c0-0.8 0.4-1.5 1-1.5l0.5 0c0.6 0 1 0.7 1 1.5L872.7 176.5z"/>
    <path class="st11" d="M877.2 176.1c0 1.1-0.5 1.9-1 1.9h-0.5c-0.6 0-1-0.9-1-1.9v-11.6c0-1.1 0.5-1.9 1-1.9h0.5c0.6 0 1 0.9 1 1.9V176.1z"/>
    <path class="st12" d="M878.3 179.9c0 0.6-0.5 1-1 1H857c-0.6 0-1-0.5-1-1v-0.2c0-0.6 0.5-1 1-1h20.3c0.6 0 1 0.5 1 1V179.9z"/>
    <path class="st13" d="M879.2 159.8l-1.3-4.5c-0.1-0.2-0.2-0.4-0.4-0.5 -0.2-0.1-0.4-0.1-0.7-0.1l-4.5 1.3c-0.4 0.1-0.7 0.6-0.6 1l0.2 0.6c0.1 0.4 0.6 0.7 1 0.6l1.4-0.4c-4.2 5.6-10 9.4-17 10.8 -0.6 0.1-1.1 0.7-1 1.3 0 0.1 0 0.1 0 0.2 0.1 0.6 0.7 1 1.4 0.9 7.7-1.6 14.2-5.7 18.7-12l0.4 1.4c0.1 0.4 0.6 0.7 1 0.6l0.6-0.2C879 160.7 879.3 160.2 879.2 159.8z"/>
    <g class="st7">
        <path class="st11" d="M656.3 113.3c0 0.4-0.5 0.8-1 0.8h-0.5c-0.6 0-1-0.4-1-0.8v-4.8c0-0.4 0.5-0.8 1-0.8h0.5c0.6 0 1 0.4 1 0.8V113.3z"/>
        <path class="st11" d="M660.8 113.1c0 0.5-0.5 0.9-1 0.9h-0.5c-0.6 0-1-0.4-1-0.9v-5.6c0-0.5 0.5-0.9 1-0.9h0.5c0.6 0 1 0.4 1 0.9V113.1z"/>
        <path class="st11" d="M665.3 112.9c0 0.6-0.5 1.2-1 1.2h-0.5c-0.6 0-1-0.5-1-1.2V106c0-0.6 0.5-1.1 1-1.1h0.5c0.6 0 1 0.5 1 1.1V112.9z"/>
        <path class="st11" d="M669.9 112.5c0 0.8-0.4 1.5-1 1.5l-0.5 0c-0.6 0-1-0.7-1-1.5l-0.2-9c0-0.8 0.4-1.5 1-1.5l0.5 0c0.6 0 1 0.7 1 1.5L669.9 112.5z"/>
        <path class="st11" d="M674.3 112.1c0 1.1-0.5 1.9-1 1.9h-0.5c-0.6 0-1-0.9-1-1.9v-11.6c0-1.1 0.5-1.9 1-1.9h0.5c0.6 0 1 0.9 1 1.9V112.1z"/>
        <path class="st12" d="M675.5 116c0 0.6-0.5 1-1 1h-20.3c-0.6 0-1-0.5-1-1v-0.2c0-0.6 0.5-1 1-1h20.3c0.6 0 1 0.5 1 1V116z"/>
        <path class="st13" d="M676.3 95.8l-1.3-4.5c-0.1-0.2-0.2-0.4-0.4-0.5 -0.2-0.1-0.4-0.1-0.7-0.1l-4.5 1.3c-0.4 0.1-0.7 0.6-0.6 1l0.2 0.6c0.1 0.4 0.6 0.7 1 0.6l1.4-0.4c-4.2 5.6-10 9.4-17 10.8 -0.6 0.1-1.1 0.7-1 1.3 0 0.1 0 0.1 0 0.2 0.1 0.6 0.7 1 1.4 0.9 7.7-1.6 14.2-5.7 18.7-12l0.4 1.4c0.1 0.4 0.6 0.7 1 0.6l0.6-0.2C676.2 96.8 676.5 96.3 676.3 95.8z"/>
    </g>
    <path class="st14" d="M739.1 267.7c0-39.7-32.2-64.2-71.9-64.2 -39.7 0-71.9 24.5-71.9 64.2"/>
    <path class="st15" d="M782 214.2c0-25.4-26.2-41.2-58.6-41.2s-58.6 15.7-58.6 41.2"/>
    <path class="st16" d="M863.3 269.3c0-51.9-42.1-83.9-93.9-83.9 -51.9 0-93.9 32.1-93.9 83.9"/>
    <path class="st17" d="M603.5 189.5c7.9 0 14.4-6.5 14.4-14.4 0-7.9-6.5-14.4-14.4-14.4 -7.9 0-14.4 6.5-14.4 14.4C589.1 183 595.6 189.5 603.5 189.5z"/>
    <path class="st18" d="M607.8 178.1c0 1.5-0.4 2.7-1.2 3.4 -0.8 0.7-1.6 1.1-2.4 1.1v2.2H603v-2.2c-1 0-1.9-0.4-2.6-1.2 -0.7-0.8-1.1-2.1-1.1-3.8h2c0 1.5 0.2 2.4 0.6 2.8 0.4 0.4 0.8 0.6 1.1 0.6v-5.8c-1.4-0.8-2.3-1.5-2.8-2.1 -0.4-0.6-0.6-1.3-0.6-2.2 0-1.1 0.3-1.9 0.9-2.6 0.6-0.7 1.4-1.1 2.4-1.2v-1.7h1.2v1.7c1 0 1.8 0.4 2.4 1.2 0.6 0.8 0.9 1.8 0.9 3h-2c0-0.9-0.2-1.5-0.5-1.9 -0.3-0.4-0.6-0.6-0.9-0.6v5c0.9 0.5 1.8 1.1 2.5 1.8C607.4 176.1 607.8 177 607.8 178.1L607.8 178.1zM603 173v-4.3c-0.4 0-0.7 0.2-1 0.5 -0.3 0.3-0.5 0.8-0.5 1.5 0 0.4 0.1 0.8 0.3 1.2C601.9 172.2 602.3 172.6 603 173L603 173zM605.8 178.5c0-0.7-0.1-1.2-0.4-1.6 -0.3-0.4-0.7-0.8-1.2-1.2v5.1c0.4-0.1 0.7-0.2 1.1-0.5C605.6 180 605.8 179.4 605.8 178.5z"/>
    <g class="st19">
        <path class="st17" d="M884.5 235.6c9.8 0 17.8-8 17.8-17.8 0-9.8-8-17.8-17.8-17.8 -9.8 0-17.8 8-17.8 17.8C866.7 227.6 874.7 235.6 884.5 235.6z"/>
        <path class="st18" d="M889.8 221.6c0 1.9-0.5 3.3-1.4 4.2 -0.9 0.9-1.9 1.3-3 1.3v2.7h-1.5v-2.7c-1.2 0-2.3-0.5-3.2-1.5 -0.9-1-1.4-2.6-1.4-4.7h2.5c0 1.8 0.3 3 0.8 3.5 0.5 0.5 1 0.7 1.3 0.7v-7.1c-1.8-1-2.9-1.8-3.4-2.6 -0.5-0.8-0.8-1.7-0.8-2.7 0-1.3 0.4-2.4 1.2-3.2 0.8-0.8 1.8-1.3 3-1.5v-2.1h1.5v2.1c1.2 0 2.3 0.5 3 1.5 0.8 1 1.2 2.2 1.2 3.7h-2.4c0-1.1-0.2-1.9-0.6-2.4 -0.4-0.5-0.8-0.7-1.2-0.7v6.2c1.2 0.6 2.2 1.3 3.1 2.2C889.3 219.2 889.8 220.3 889.8 221.6L889.8 221.6zM883.8 215.2v-5.3c-0.4 0-0.9 0.2-1.3 0.6 -0.4 0.4-0.6 1-0.6 1.8 0 0.5 0.1 1 0.3 1.5C882.5 214.3 883 214.8 883.8 215.2L883.8 215.2zM887.4 222.1c0-0.8-0.2-1.5-0.5-2 -0.4-0.5-0.8-1-1.4-1.4v6.3c0.4-0.1 0.9-0.3 1.3-0.7C887.1 224 887.4 223.2 887.4 222.1z"/>
    </g>
    <g class="st19">
        <path class="st20" d="M735.3 151.7c6 0 10.9-4.9 10.9-10.9 0-6-4.9-10.9-10.9-10.9 -6 0-10.9 4.9-10.9 10.9C724.5 146.8 729.4 151.7 735.3 151.7z"/>
        <path class="st18" d="M738.6 143.1c0 1.2-0.3 2-0.9 2.5 -0.6 0.5-1.2 0.8-1.8 0.8v1.7h-0.9v-1.7c-0.8 0-1.4-0.3-2-0.9 -0.6-0.6-0.8-1.6-0.8-2.9h1.5c0 1.1 0.2 1.8 0.5 2.1 0.3 0.3 0.6 0.4 0.8 0.4v-4.4c-1.1-0.6-1.8-1.1-2.1-1.6 -0.3-0.5-0.5-1-0.5-1.6 0-0.8 0.2-1.5 0.7-2 0.5-0.5 1.1-0.8 1.8-0.9v-1.3h0.9v1.3c0.8 0 1.4 0.3 1.8 0.9 0.5 0.6 0.7 1.3 0.7 2.2H737c0-0.7-0.1-1.2-0.4-1.4 -0.2-0.3-0.5-0.4-0.7-0.4v3.8c0.7 0.4 1.3 0.8 1.9 1.3C738.3 141.6 738.6 142.3 738.6 143.1L738.6 143.1zM734.9 139.2V136c-0.3 0-0.5 0.1-0.8 0.4 -0.2 0.2-0.4 0.6-0.4 1.1 0 0.3 0.1 0.6 0.2 0.9C734.1 138.7 734.4 138.9 734.9 139.2L734.9 139.2zM737.1 143.4c0-0.5-0.1-0.9-0.3-1.2 -0.2-0.3-0.5-0.6-0.9-0.9v3.8c0.3 0 0.5-0.2 0.8-0.4C737 144.5 737.1 144.1 737.1 143.4z"/>
    </g>
    <path class="st17" d="M602.1 247.9c0 1.6-0.4 2.7-1.2 3.4 -0.8 0.7-1.6 1.1-2.4 1.1v2.3h-1.3v-2.3c-1 0-1.9-0.4-2.7-1.3 -0.8-0.8-1.1-2.1-1.1-3.9h2.1c0 1.5 0.2 2.5 0.6 2.9 0.4 0.4 0.8 0.6 1.1 0.6v-5.9c-1.5-0.8-2.4-1.5-2.8-2.1 -0.4-0.6-0.6-1.4-0.6-2.2 0-1.1 0.3-2 1-2.7 0.6-0.7 1.5-1.1 2.5-1.2v-1.7h1.3v1.7c1 0 1.9 0.4 2.5 1.2 0.6 0.8 1 1.8 1 3h-2c0-0.9-0.2-1.6-0.5-2 -0.3-0.4-0.6-0.6-1-0.6v5.1c1 0.5 1.8 1.1 2.5 1.8C601.7 245.9 602.1 246.8 602.1 247.9L602.1 247.9zM597.2 242.7v-4.4c-0.4 0-0.7 0.2-1 0.5 -0.3 0.3-0.5 0.8-0.5 1.5 0 0.4 0.1 0.8 0.3 1.2C596.1 241.9 596.5 242.3 597.2 242.7L597.2 242.7zM600.1 248.4c0-0.7-0.2-1.2-0.5-1.6 -0.3-0.4-0.7-0.8-1.2-1.2v5.2c0.4-0.1 0.7-0.2 1.1-0.5C599.9 249.9 600.1 249.3 600.1 248.4z"/>
    <path class="st17" d="M867.7 250c0 1.6-0.4 2.7-1.2 3.4 -0.8 0.7-1.6 1.1-2.4 1.1v2.3h-1.3v-2.3c-1 0-1.9-0.4-2.7-1.3 -0.8-0.8-1.1-2.1-1.1-3.9h2.1c0 1.5 0.2 2.5 0.6 2.9 0.4 0.4 0.8 0.6 1.1 0.6v-5.9c-1.4-0.8-2.4-1.5-2.8-2.1 -0.4-0.6-0.6-1.4-0.6-2.2 0-1.1 0.3-2 1-2.7 0.6-0.7 1.5-1.1 2.5-1.2v-1.7h1.3v1.7c1 0 1.9 0.4 2.5 1.2 0.6 0.8 1 1.8 1 3h-2c0-0.9-0.2-1.6-0.5-2 -0.3-0.4-0.6-0.6-1-0.6v5.1c1 0.5 1.8 1.1 2.5 1.8C867.3 248 867.7 248.9 867.7 250L867.7 250zM862.8 244.7v-4.4c-0.4 0-0.7 0.2-1 0.5 -0.3 0.3-0.5 0.8-0.5 1.5 0 0.4 0.1 0.8 0.3 1.2C861.7 244 862.1 244.4 862.8 244.7L862.8 244.7zM865.7 250.4c0-0.7-0.2-1.2-0.5-1.6 -0.3-0.4-0.7-0.8-1.2-1.2v5.2c0.4-0.1 0.7-0.2 1.1-0.5C865.5 251.9 865.7 251.3 865.7 250.4z"/>
    <path class="st20" d="M864.9 129.7c0 1.4-0.3 2.4-1 3.1 -0.7 0.6-1.4 1-2.2 1v2h-1.1v-2c-0.9 0-1.7-0.4-2.4-1.1 -0.7-0.8-1-1.9-1-3.5h1.9c0 1.3 0.2 2.2 0.6 2.5 0.4 0.4 0.7 0.5 1 0.5v-5.2c-1.3-0.7-2.1-1.3-2.5-1.9 -0.4-0.6-0.6-1.2-0.6-2 0-1 0.3-1.8 0.8-2.4 0.6-0.6 1.3-1 2.2-1.1v-1.5h1.1v1.5c0.9 0 1.7 0.4 2.2 1.1 0.6 0.7 0.8 1.6 0.8 2.7H863c0-0.8-0.1-1.4-0.4-1.7 -0.3-0.4-0.6-0.5-0.8-0.5v4.5c0.9 0.4 1.6 1 2.3 1.6C864.6 127.9 864.9 128.7 864.9 129.7L864.9 129.7zM860.5 125v-3.9c-0.3 0-0.6 0.1-0.9 0.4 -0.3 0.3-0.4 0.7-0.4 1.3 0 0.4 0.1 0.7 0.2 1.1C859.6 124.3 860 124.7 860.5 125L860.5 125zM863.1 130.1c0-0.6-0.1-1.1-0.4-1.4 -0.3-0.4-0.6-0.7-1-1v4.6c0.3-0.1 0.6-0.2 1-0.5C863 131.4 863.1 130.9 863.1 130.1z"/>
    <path class="st21" d="M641 213.9c0 1.6-0.4 2.7-1.2 3.4 -0.8 0.7-1.6 1.1-2.4 1.1v2.3h-1.3v-2.3c-1 0-1.9-0.4-2.7-1.3 -0.8-0.8-1.1-2.1-1.1-3.9h2.1c0 1.5 0.2 2.5 0.6 2.9 0.4 0.4 0.8 0.6 1.1 0.6v-5.9c-1.5-0.8-2.4-1.5-2.8-2.1 -0.4-0.6-0.6-1.4-0.6-2.2 0-1.1 0.3-2 1-2.7 0.6-0.7 1.5-1.1 2.5-1.2v-1.7h1.3v1.7c1 0 1.9 0.4 2.5 1.2 0.6 0.8 1 1.8 1 3h-2c0-0.9-0.2-1.6-0.5-2 -0.3-0.4-0.6-0.6-1-0.6v5.1c1 0.5 1.8 1.1 2.5 1.8C640.7 211.9 641 212.8 641 213.9L641 213.9zM636.1 208.6v-4.4c-0.4 0-0.7 0.2-1 0.5 -0.3 0.3-0.5 0.8-0.5 1.5 0 0.4 0.1 0.8 0.3 1.2C635 207.9 635.5 208.3 636.1 208.6L636.1 208.6zM639 214.3c0-0.7-0.2-1.2-0.5-1.6 -0.3-0.4-0.7-0.8-1.2-1.2v5.2c0.4-0.1 0.7-0.2 1.1-0.5C638.9 215.8 639 215.2 639 214.3z"/>
    <g class="st22">
        <path class="st17" d="M819.4 175.3c0-0.1 0-0.2 0.1-0.4 0.2 0 0.3 0 0.5 0 3.7-0.5 7.5-1.1 11.2-1.6 0 0.7 0 1.4 0.1 2l-0.1 0c-1.3 0-2.6 0.3-3.9 0.5 -2.5 0.3-5 0.7-7.4 1C819.4 176.4 819.5 175.8 819.4 175.3z"/>
        <path class="st23" d="M819.8 176.8c2.5-0.3 5-0.7 7.4-1 1.3-0.2 2.6-0.5 3.9-0.5 0 0.8-0.2 1.5-0.7 2 -2 0.3-4.1 0.5-6.1 0.8 -0.9 0.1-1.9 0.1-2.8 0.5C820.7 178.3 820.1 177.7 819.8 176.8z"/>
        <path class="st17" d="M821.6 178.7c0.9-0.4 1.8-0.3 2.8-0.5 2-0.3 4.1-0.5 6.1-0.8 -0.5 1-1.5 1.4-2.4 1.8 -1.8 0-3.7 0-5.5 0C822.2 178.9 821.8 179 821.6 178.7z"/>
        <path class="st23" d="M822.5 179.2c1.8 0 3.7 0 5.5 0 -0.5 1.3-1.6 2-2.8 2C823.9 181 823 180.4 822.5 179.2z"/>
        <path class="st24" d="M819.4 170.4c-0.3-1.9-1.4-3.3-2.7-4.5 -4.7-4.4-5.4-11.2-1.8-16.5 2.8-4.1 8.2-6.2 13-5.1 5.2 1.2 9 5.1 9.8 10.2 0.7 4.7-0.7 8.7-4.2 11.9 -1.2 1.1-2 2.5-2.4 4.1 -1 0-1.9 0-2.9-0.1 0-2.9 0-5.8 0-8.7 0-0.5 0.1-0.8 0.4-1.2 1.1-1.3 2.1-2.6 3.1-3.8 0.6-0.8 0.6-1.3-0.2-1.9 -0.7-0.5-1.5-1-2.3-1.5 -0.7-0.5-1.3-0.5-1.9 0 -1.4 1.3-2.6 1.3-4 0 -0.5-0.5-1.2-0.5-1.8 0 -0.7 0.5-1.5 1-2.3 1.5 -0.8 0.6-0.9 1.1-0.3 1.9 0.9 1.2 1.9 2.4 2.9 3.6 0.3 0.4 0.6 0.8 0.6 1.5 0 2.9 0 5.8 0 8.7C821.4 170.4 820.4 170.4 819.4 170.4z"/>
        <path class="st23" d="M831.1 173.3c-3.7 0.5-7.5 1.1-11.2 1.6 -0.1 0-0.3 0-0.5 0 0-0.7 0-1.3 0-2 1.6-0.2 3.3-0.5 4.9-0.7 2.2-0.3 4.5-0.7 6.7-0.8C831.1 172.1 831.1 172.7 831.1 173.3z"/>
        <path class="st17" d="M831.1 171.5c-2.3 0.1-4.5 0.6-6.7 0.8 -1.6 0.2-3.3 0.4-4.9 0.7 0-0.9 0-1.7 0-2.6 1 0 2 0 3-0.1 0.7 0 1.3 0 2 0 0.6 0 1.2 0 1.8 0 0.7 0 1.3 0 2 0 1 0 1.9 0 2.9 0.1C831.1 170.8 831.1 171.1 831.1 171.5z"/>
        <path class="st18" d="M828.2 170.3c-0.7 0-1.3 0-2 0 0-2.5 0.1-4.9 0-7.4 -0.1-1.8 0.2-3.4 1.6-4.6 0.4-0.4 0.8-0.9 1.1-1.4 0.8-0.9 0.7-1-0.3-1.6 -0.4-0.2-0.7-0.1-1 0.1 -0.4 0.3-0.9 0.6-1.4 0.9 -0.7 0.5-1.3 0.4-1.9 0 -0.5-0.3-1-0.7-1.5-1 -0.7-0.4-1.1 0.2-1.6 0.6 -0.4 0.3 0.1 0.6 0.3 0.8 0.7 0.9 1.5 1.9 2.2 2.8 0.4 0.5 0.6 1.1 0.6 1.7 0 3 0 6.1 0 9.1 -0.7 0-1.3 0-2 0 0-2.9 0-5.8 0-8.7 0-0.6-0.3-1-0.6-1.5 -1-1.2-1.9-2.4-2.9-3.6 -0.6-0.8-0.5-1.3 0.3-1.9 0.8-0.5 1.5-1 2.3-1.5 0.6-0.4 1.3-0.5 1.8 0 1.3 1.3 2.6 1.3 4 0 0.6-0.5 1.3-0.5 1.9 0 0.7 0.5 1.5 1 2.3 1.5 0.8 0.6 0.9 1.1 0.2 1.9 -1 1.3-2.1 2.6-3.1 3.8 -0.3 0.4-0.4 0.7-0.4 1.2C828.2 164.5 828.2 167.4 828.2 170.3z"/>
        <path class="st24" d="M824.4 170.3c0-3 0-6.1 0-9.1 0-0.7-0.2-1.2-0.6-1.7 -0.8-0.9-1.5-1.8-2.2-2.8 -0.2-0.2-0.7-0.5-0.3-0.8 0.4-0.3 0.8-1 1.6-0.6 0.5 0.3 1 0.7 1.5 1 0.6 0.4 1.3 0.5 1.9 0 0.4-0.3 0.9-0.6 1.4-0.9 0.3-0.2 0.6-0.3 1-0.1 1 0.6 1 0.7 0.3 1.6 -0.4 0.5-0.7 1-1.1 1.4 -1.4 1.3-1.7 2.8-1.6 4.6 0.1 2.5 0 4.9 0 7.4C825.6 170.3 825 170.3 824.4 170.3z"/>
        <line class="st25" x1="841.5" y1="155.2" x2="848.2" y2="155.4"/>
        <line class="st25" x1="839.6" y1="147.5" x2="844.8" y2="144.3"/>
        <line class="st25" x1="833.2" y1="142.3" x2="836.1" y2="136.7"/>
        <line class="st25" x1="809.4" y1="155.2" x2="802.7" y2="155.4"/>
        <line class="st25" x1="811.4" y1="147.5" x2="806.1" y2="144.3"/>
        <line class="st25" x1="817" y1="142.3" x2="814.1" y2="136.7"/>
        <line class="st25" x1="825.3" y1="140.1" x2="825.3" y2="134.6"/>
    </g>
    <g class="st26">
        <path class="st17" d="M916.2 184c0-0.2 0-0.4 0.1-0.5 0.2 0 0.4 0 0.7 0 5.4-0.8 10.9-1.6 16.3-2.4 0 1 0.1 2 0.1 3l-0.1 0c-1.9 0-3.7 0.4-5.6 0.7 -3.6 0.5-7.2 1-10.8 1.4C916.3 185.5 916.3 184.8 916.2 184z"/>
        <path class="st23" d="M916.8 186.2c3.6-0.5 7.2-1 10.8-1.4 1.9-0.2 3.7-0.7 5.6-0.7 0 1.1-0.2 2.1-1 3 -3 0.4-5.9 0.7-8.9 1.2 -1.3 0.2-2.7 0.2-4 0.7C918.1 188.4 917.3 187.4 916.8 186.2z"/>
        <path class="st17" d="M919.4 188.9c1.3-0.5 2.7-0.5 4-0.7 2.9-0.4 5.9-0.8 8.9-1.2 -0.7 1.5-2.1 2-3.5 2.6 -2.7 0-5.3 0-8 0C920.4 189.3 919.7 189.4 919.4 188.9z"/>
        <path class="st23" d="M920.8 189.6c2.7 0 5.3 0 8 0 -0.8 1.8-2.3 3-4 2.8C922.8 192.3 921.4 191.5 920.8 189.6z"/>
        <path class="st24" d="M916.2 176.9c-0.5-2.7-2-4.7-4-6.6 -6.8-6.4-7.9-16.2-2.6-23.9 4-5.9 11.9-9 18.9-7.4 7.5 1.7 13.1 7.4 14.3 14.7 1.1 6.8-1 12.6-6.1 17.2 -1.8 1.6-2.9 3.6-3.5 6 -1.4 0-2.8-0.1-4.2-0.1 0-4.2 0-8.4 0-12.6 0-0.7 0.2-1.2 0.6-1.7 1.5-1.8 3-3.7 4.5-5.6 0.9-1.1 0.8-1.9-0.4-2.8 -1.1-0.8-2.2-1.5-3.3-2.2 -1-0.7-1.9-0.7-2.8 0 -2 1.8-3.8 1.9-5.8 0 -0.8-0.8-1.7-0.7-2.7 0 -1.1 0.8-2.2 1.5-3.3 2.2 -1.2 0.8-1.3 1.6-0.4 2.8 1.4 1.7 2.8 3.5 4.2 5.2 0.5 0.6 0.9 1.2 0.9 2.1 -0.1 4.2 0 8.4 0 12.6C919.1 176.8 917.7 176.9 916.2 176.9z"/>
        <path class="st23" d="M933.2 181.1c-5.4 0.8-10.9 1.6-16.3 2.4 -0.2 0-0.4 0-0.7 0 0-1 0-1.9 0-2.9 2.4-0.3 4.8-0.7 7.2-1 3.3-0.4 6.5-1.1 9.8-1.2C933.2 179.3 933.2 180.2 933.2 181.1z"/>
        <path class="st17" d="M933.2 178.4c-3.3 0.1-6.5 0.8-9.8 1.2 -2.4 0.3-4.8 0.6-7.2 1 0-1.2 0-2.5-0.1-3.7 1.4 0 2.9-0.1 4.3-0.1 1 0 2 0 2.9 0 0.9 0 1.8 0 2.6 0 1 0 1.9 0 2.9 0 1.4 0 2.8 0.1 4.2 0.1C933.3 177.4 933.3 177.9 933.2 178.4z"/>
        <path class="st18" d="M929 176.8c-1 0-1.9 0-2.9 0 0-3.6 0.1-7.2 0-10.7 -0.1-2.6 0.3-4.9 2.3-6.7 0.6-0.6 1.1-1.4 1.7-2.1 1.1-1.3 1.1-1.4-0.4-2.3 -0.6-0.3-1-0.2-1.4 0.2 -0.7 0.5-1.3 0.9-2 1.3 -1 0.7-1.9 0.6-2.8 0 -0.7-0.5-1.5-1-2.2-1.5 -1.1-0.6-1.6 0.4-2.3 0.8 -0.6 0.5 0.2 0.8 0.4 1.1 1 1.4 2.1 2.7 3.2 4 0.6 0.8 0.9 1.5 0.9 2.5 0 4.4 0 8.8 0 13.3 -1 0-2 0-2.9 0 0-4.2 0-8.4 0-12.6 0-0.9-0.4-1.5-0.9-2.1 -1.4-1.7-2.8-3.4-4.2-5.2 -0.9-1.2-0.8-1.9 0.4-2.8 1.1-0.8 2.2-1.5 3.3-2.2 0.9-0.7 1.9-0.8 2.7 0 2 1.9 3.8 1.9 5.8 0 0.8-0.8 1.8-0.7 2.8 0 1.1 0.8 2.2 1.5 3.3 2.2 1.2 0.8 1.3 1.7 0.4 2.8 -1.5 1.9-3 3.7-4.5 5.6 -0.4 0.5-0.6 1-0.6 1.7C929 168.4 929 172.6 929 176.8z"/>
        <path class="st24" d="M923.5 176.8c0-4.4 0-8.8 0-13.3 0-1-0.3-1.8-0.9-2.5 -1.1-1.3-2.2-2.7-3.2-4 -0.2-0.3-1-0.7-0.4-1.1 0.6-0.5 1.2-1.5 2.3-0.8 0.8 0.5 1.5 1 2.2 1.5 0.9 0.6 1.9 0.7 2.8 0 0.6-0.5 1.3-0.9 2-1.3 0.5-0.3 0.9-0.5 1.4-0.2 1.5 0.9 1.5 1 0.4 2.3 -0.6 0.7-1 1.5-1.7 2.1 -2 1.8-2.4 4.1-2.3 6.7 0.2 3.6 0 7.2 0 10.7C925.2 176.8 924.4 176.8 923.5 176.8z"/>
        <line class="st27" x1="948.3" y1="154.8" x2="958" y2="155.1"/>
        <line class="st27" x1="945.5" y1="143.7" x2="953.1" y2="139.1"/>
        <line class="st27" x1="936.3" y1="136.1" x2="940.5" y2="128"/>
        <line class="st27" x1="901.8" y1="154.8" x2="892.1" y2="155.1"/>
        <line class="st27" x1="904.6" y1="143.7" x2="897" y2="139.1"/>
        <line class="st27" x1="912.7" y1="136.1" x2="908.5" y2="128"/>
        <line class="st27" x1="924.8" y1="133" x2="924.8" y2="125"/>
    </g>
    <g class="st26">
        <path class="st17" d="M766.8 125.9c0-0.1 0-0.2 0-0.2 0.1 0 0.2 0 0.3 0 2.5-0.4 5-0.7 7.5-1.1 0 0.5 0 0.9 0 1.4l0 0c-0.9 0-1.7 0.2-2.6 0.3 -1.7 0.2-3.3 0.4-5 0.7C766.8 126.6 766.8 126.2 766.8 125.9z"/>
        <path class="st23" d="M767.1 126.8c1.7-0.2 3.3-0.4 5-0.7 0.9-0.1 1.7-0.3 2.6-0.3 0 0.5-0.1 1-0.5 1.4 -1.4 0.2-2.7 0.3-4.1 0.5 -0.6 0.1-1.2 0.1-1.8 0.3C767.6 127.9 767.3 127.4 767.1 126.8z"/>
        <path class="st17" d="M768.2 128.1c0.6-0.2 1.2-0.2 1.8-0.3 1.4-0.2 2.7-0.4 4.1-0.5 -0.3 0.7-1 0.9-1.6 1.2 -1.2 0-2.4 0-3.7 0C768.7 128.3 768.4 128.3 768.2 128.1z"/>
        <path class="st23" d="M768.9 128.4c1.2 0 2.4 0 3.7 0 -0.4 0.8-1.1 1.4-1.9 1.3C769.8 129.7 769.2 129.3 768.9 128.4z"/>
        <path class="st24" d="M766.8 122.6c-0.2-1.2-0.9-2.2-1.8-3 -3.1-2.9-3.6-7.4-1.2-11 1.9-2.7 5.5-4.1 8.7-3.4 3.4 0.8 6 3.4 6.5 6.8 0.5 3.1-0.4 5.8-2.8 7.9 -0.8 0.7-1.4 1.7-1.6 2.7 -0.6 0-1.3 0-1.9 0 0-1.9 0-3.9 0-5.8 0-0.3 0.1-0.5 0.3-0.8 0.7-0.8 1.4-1.7 2.1-2.6 0.4-0.5 0.4-0.9-0.2-1.3 -0.5-0.4-1-0.7-1.5-1 -0.4-0.3-0.9-0.3-1.3 0 -0.9 0.8-1.8 0.9-2.7 0 -0.4-0.4-0.8-0.3-1.2 0 -0.5 0.4-1 0.7-1.5 1 -0.5 0.4-0.6 0.7-0.2 1.3 0.6 0.8 1.3 1.6 1.9 2.4 0.2 0.3 0.4 0.6 0.4 1 0 1.9 0 3.9 0 5.8C768.1 122.6 767.4 122.6 766.8 122.6z"/>
        <path class="st23" d="M774.6 124.5c-2.5 0.4-5 0.7-7.5 1.1 -0.1 0-0.2 0-0.3 0 0-0.4 0-0.9 0-1.3 1.1-0.1 2.2-0.3 3.3-0.4 1.5-0.2 3-0.5 4.5-0.6C774.6 123.7 774.6 124.1 774.6 124.5z"/>
        <path class="st17" d="M774.6 123.3c-1.5 0.1-3 0.4-4.5 0.6 -1.1 0.1-2.2 0.3-3.3 0.4 0-0.6 0-1.1 0-1.7 0.7 0 1.3 0 2 0 0.4 0 0.9 0 1.3 0 0.4 0 0.8 0 1.2 0 0.4 0 0.9 0 1.3 0 0.6 0 1.3 0 1.9 0C774.6 122.8 774.6 123.1 774.6 123.3z"/>
        <path class="st18" d="M772.7 122.5c-0.4 0-0.9 0-1.3 0 0-1.6 0.1-3.3 0-4.9 -0.1-1.2 0.1-2.2 1.1-3.1 0.3-0.3 0.5-0.6 0.8-0.9 0.5-0.6 0.5-0.7-0.2-1.1 -0.3-0.2-0.4-0.1-0.7 0.1 -0.3 0.2-0.6 0.4-0.9 0.6 -0.4 0.3-0.9 0.3-1.3 0 -0.3-0.2-0.7-0.5-1-0.7 -0.5-0.3-0.8 0.2-1 0.4 -0.3 0.2 0.1 0.4 0.2 0.5 0.5 0.6 1 1.2 1.5 1.9 0.3 0.3 0.4 0.7 0.4 1.2 0 2 0 4.1 0 6.1 -0.4 0-0.9 0-1.3 0 0-1.9 0-3.9 0-5.8 0-0.4-0.2-0.7-0.4-1 -0.6-0.8-1.3-1.6-1.9-2.4 -0.4-0.5-0.4-0.9 0.2-1.3 0.5-0.3 1-0.7 1.5-1 0.4-0.3 0.9-0.3 1.2 0 0.9 0.9 1.8 0.9 2.7 0 0.4-0.4 0.8-0.3 1.3 0 0.5 0.4 1 0.7 1.5 1 0.5 0.4 0.6 0.8 0.2 1.3 -0.7 0.9-1.4 1.7-2.1 2.6 -0.2 0.2-0.3 0.5-0.3 0.8C772.7 118.7 772.7 120.6 772.7 122.5z"/>
        <path class="st24" d="M770.1 122.5c0-2 0-4.1 0-6.1 0-0.5-0.1-0.8-0.4-1.2 -0.5-0.6-1-1.2-1.5-1.9 -0.1-0.1-0.5-0.3-0.2-0.5 0.3-0.2 0.6-0.7 1-0.4 0.3 0.2 0.7 0.4 1 0.7 0.4 0.3 0.9 0.3 1.3 0 0.3-0.2 0.6-0.4 0.9-0.6 0.2-0.2 0.4-0.2 0.7-0.1 0.7 0.4 0.7 0.5 0.2 1.1 -0.3 0.3-0.5 0.7-0.8 0.9 -0.9 0.8-1.1 1.9-1.1 3.1 0.1 1.6 0 3.3 0 4.9C770.9 122.5 770.5 122.5 770.1 122.5z"/>
        <line class="st28" x1="781.5" y1="112.4" x2="786" y2="112.6"/>
        <line class="st28" x1="780.2" y1="107.3" x2="783.7" y2="105.2"/>
        <line class="st28" x1="776" y1="103.9" x2="777.9" y2="100.1"/>
        <line class="st28" x1="760.2" y1="112.4" x2="755.7" y2="112.6"/>
        <line class="st28" x1="761.5" y1="107.3" x2="758" y2="105.2"/>
        <line class="st28" x1="765.2" y1="103.9" x2="763.2" y2="100.1"/>
        <line class="st28" x1="770.7" y1="102.4" x2="770.7" y2="98.7"/>
    </g>
    <g class="st26">
        <path class="st17" d="M543.7 210.7c0-0.2 0-0.4 0.1-0.5 0.2 0 0.4 0 0.7 0 5.4-0.8 10.9-1.6 16.3-2.4 0 1 0.1 2 0.1 3l-0.1 0c-1.9 0-3.7 0.4-5.6 0.7 -3.6 0.5-7.2 1-10.8 1.4C543.8 212.2 543.8 211.4 543.7 210.7z"/>
        <path class="st23" d="M544.3 212.8c3.6-0.5 7.2-1 10.8-1.4 1.9-0.2 3.7-0.7 5.6-0.7 0 1.1-0.2 2.1-1 3 -3 0.4-5.9 0.7-8.9 1.2 -1.3 0.2-2.7 0.2-4 0.7C545.6 215 544.8 214.1 544.3 212.8z"/>
        <path class="st17" d="M546.9 215.5c1.3-0.5 2.7-0.5 4-0.7 2.9-0.4 5.9-0.8 8.9-1.2 -0.7 1.5-2.1 2-3.5 2.6 -2.7 0-5.3 0-8 0C547.9 215.9 547.2 216 546.9 215.5z"/>
        <path class="st23" d="M548.3 216.3c2.7 0 5.3 0 8 0 -0.8 1.8-2.3 3-4 2.8C550.3 219 548.9 218.1 548.3 216.3z"/>
        <path class="st24" d="M543.7 203.5c-0.5-2.7-2-4.7-4-6.6 -6.8-6.4-7.9-16.2-2.6-23.9 4-5.9 11.9-9 18.9-7.4 7.5 1.7 13.1 7.4 14.3 14.7 1.1 6.8-1 12.6-6.1 17.2 -1.8 1.6-2.9 3.6-3.5 6 -1.4 0-2.8-0.1-4.2-0.1 0-4.2 0-8.4 0-12.6 0-0.7 0.2-1.2 0.6-1.7 1.5-1.8 3-3.7 4.5-5.6 0.9-1.1 0.8-1.9-0.4-2.8 -1.1-0.8-2.2-1.5-3.3-2.2 -1-0.7-1.9-0.7-2.8 0 -2 1.8-3.8 1.9-5.8 0 -0.8-0.8-1.7-0.7-2.7 0 -1.1 0.8-2.2 1.5-3.3 2.2 -1.2 0.8-1.3 1.6-0.4 2.8 1.4 1.7 2.8 3.5 4.2 5.2 0.5 0.6 0.9 1.2 0.9 2.1 -0.1 4.2 0 8.4 0 12.6C546.6 203.5 545.2 203.5 543.7 203.5z"/>
        <path class="st23" d="M560.7 207.7c-5.4 0.8-10.9 1.6-16.3 2.4 -0.2 0-0.4 0-0.7 0 0-1 0-1.9 0-2.9 2.4-0.3 4.8-0.7 7.2-1 3.3-0.4 6.5-1.1 9.8-1.2C560.7 206 560.7 206.9 560.7 207.7z"/>
        <path class="st17" d="M560.7 205.1c-3.3 0.1-6.5 0.8-9.8 1.2 -2.4 0.3-4.8 0.6-7.2 1 0-1.2 0-2.5-0.1-3.7 1.4 0 2.9-0.1 4.3-0.1 1 0 2 0 2.9 0 0.9 0 1.8 0 2.6 0 1 0 1.9 0 2.9 0 1.4 0 2.8 0.1 4.2 0.1C560.8 204.1 560.8 204.6 560.7 205.1z"/>
        <path class="st18" d="M556.5 203.5c-1 0-1.9 0-2.9 0 0-3.6 0.1-7.2 0-10.7 -0.1-2.6 0.3-4.9 2.3-6.7 0.6-0.6 1.1-1.4 1.7-2.1 1.1-1.3 1.1-1.4-0.4-2.3 -0.6-0.3-1-0.2-1.4 0.2 -0.7 0.5-1.3 0.9-2 1.3 -1 0.7-1.9 0.6-2.8 0 -0.7-0.5-1.5-1-2.2-1.5 -1.1-0.6-1.6 0.4-2.3 0.8 -0.6 0.5 0.2 0.8 0.4 1.1 1 1.4 2.1 2.7 3.2 4 0.6 0.8 0.9 1.5 0.9 2.5 0 4.4 0 8.8 0 13.3 -1 0-2 0-2.9 0 0-4.2 0-8.4 0-12.6 0-0.9-0.4-1.5-0.9-2.1 -1.4-1.7-2.8-3.4-4.2-5.2 -0.9-1.2-0.8-1.9 0.4-2.8 1.1-0.8 2.2-1.5 3.3-2.2 0.9-0.7 1.9-0.8 2.7 0 2 1.9 3.8 1.9 5.8 0 0.8-0.8 1.8-0.7 2.8 0 1.1 0.8 2.2 1.5 3.3 2.2 1.2 0.8 1.3 1.7 0.4 2.8 -1.5 1.9-3 3.7-4.5 5.6 -0.4 0.5-0.6 1-0.6 1.7C556.5 195 556.5 199.2 556.5 203.5z"/>
        <path class="st24" d="M551 203.4c0-4.4 0-8.8 0-13.3 0-1-0.3-1.8-0.9-2.5 -1.1-1.3-2.2-2.7-3.2-4 -0.2-0.3-1-0.7-0.4-1.1 0.6-0.5 1.2-1.5 2.3-0.8 0.8 0.5 1.5 1 2.2 1.5 0.9 0.6 1.9 0.7 2.8 0 0.6-0.5 1.3-0.9 2-1.3 0.5-0.3 0.9-0.5 1.4-0.2 1.5 0.9 1.5 1 0.4 2.3 -0.6 0.7-1 1.5-1.7 2.1 -2 1.8-2.4 4.1-2.3 6.7 0.2 3.6 0 7.2 0 10.7C552.7 203.5 551.9 203.5 551 203.4z"/>
        <line class="st27" x1="575.8" y1="181.5" x2="585.5" y2="181.8"/>
        <line class="st27" x1="573" y1="170.4" x2="580.6" y2="165.7"/>
        <line class="st27" x1="563.8" y1="162.8" x2="568" y2="154.7"/>
        <line class="st27" x1="529.3" y1="181.5" x2="519.6" y2="181.8"/>
        <line class="st27" x1="532.1" y1="170.4" x2="524.5" y2="165.7"/>
        <line class="st27" x1="540.2" y1="162.8" x2="536" y2="154.7"/>
        <line class="st27" x1="552.3" y1="159.6" x2="552.3" y2="151.6"/>
    </g>
    <path class="st17" d="M632.6 154.9c0-0.1 0-0.1 0-0.2 0.1 0 0.2 0 0.3 0 2.1-0.3 4.2-0.6 6.3-0.9 0 0.4 0 0.8 0 1.1l0 0c-0.7 0-1.5 0.2-2.2 0.3 -1.4 0.2-2.8 0.4-4.2 0.6C632.6 155.5 632.6 155.2 632.6 154.9z"/>
    <path class="st23" d="M632.8 155.8c1.4-0.2 2.8-0.4 4.2-0.6 0.7-0.1 1.4-0.3 2.2-0.3 0 0.4-0.1 0.8-0.4 1.2 -1.1 0.2-2.3 0.3-3.4 0.5 -0.5 0.1-1.1 0.1-1.5 0.3C633.3 156.6 633 156.3 632.8 155.8z"/>
    <path class="st17" d="M633.8 156.8c0.5-0.2 1-0.2 1.5-0.3 1.1-0.2 2.3-0.3 3.4-0.5 -0.3 0.6-0.8 0.8-1.4 1 -1 0-2.1 0-3.1 0C634.2 157 634 157 633.8 156.8z"/>
    <path class="st23" d="M634.4 157.1c1 0 2.1 0 3.1 0 -0.3 0.7-0.9 1.1-1.6 1.1C635.2 158.1 634.6 157.8 634.4 157.1z"/>
    <path class="st24" d="M632.6 152.2c-0.2-1.1-0.8-1.8-1.5-2.5 -2.7-2.5-3.1-6.3-1-9.3 1.6-2.3 4.6-3.5 7.3-2.9 2.9 0.7 5.1 2.9 5.5 5.7 0.4 2.6-0.4 4.9-2.4 6.7 -0.7 0.6-1.1 1.4-1.3 2.3 -0.5 0-1.1 0-1.6 0 0-1.6 0-3.3 0-4.9 0-0.3 0.1-0.5 0.2-0.7 0.6-0.7 1.2-1.4 1.8-2.2 0.4-0.4 0.3-0.8-0.1-1.1 -0.4-0.3-0.9-0.6-1.3-0.9 -0.4-0.3-0.8-0.3-1.1 0 -0.8 0.7-1.5 0.7-2.2 0 -0.3-0.3-0.7-0.3-1 0 -0.4 0.3-0.9 0.6-1.3 0.9 -0.5 0.3-0.5 0.6-0.2 1.1 0.5 0.7 1.1 1.3 1.6 2 0.2 0.2 0.4 0.5 0.3 0.8 0 1.6 0 3.3 0 4.9C633.7 152.1 633.2 152.2 632.6 152.2z"/>
    <path class="st23" d="M639.2 153.8c-2.1 0.3-4.2 0.6-6.3 0.9 -0.1 0-0.2 0-0.3 0 0-0.4 0-0.7 0-1.1 0.9-0.1 1.9-0.3 2.8-0.4 1.3-0.2 2.5-0.4 3.8-0.5C639.2 153.1 639.2 153.4 639.2 153.8z"/>
    <path class="st17" d="M639.2 152.8c-1.3 0-2.5 0.3-3.8 0.5 -0.9 0.1-1.9 0.2-2.8 0.4 0-0.5 0-1 0-1.4 0.6 0 1.1 0 1.7 0 0.4 0 0.8 0 1.1 0 0.3 0 0.7 0 1 0 0.4 0 0.8 0 1.1 0 0.5 0 1.1 0 1.6 0C639.2 152.4 639.2 152.6 639.2 152.8z"/>
    <path class="st18" d="M637.6 152.1c-0.4 0-0.8 0-1.1 0 0-1.4 0.1-2.8 0-4.2 0-1 0.1-1.9 0.9-2.6 0.3-0.2 0.4-0.5 0.6-0.8 0.4-0.5 0.4-0.6-0.2-0.9 -0.2-0.1-0.4-0.1-0.6 0.1 -0.3 0.2-0.5 0.3-0.8 0.5 -0.4 0.3-0.7 0.2-1.1 0 -0.3-0.2-0.6-0.4-0.9-0.6 -0.4-0.2-0.6 0.1-0.9 0.3 -0.2 0.2 0.1 0.3 0.2 0.4 0.4 0.5 0.8 1.1 1.3 1.6 0.2 0.3 0.3 0.6 0.3 1 0 1.7 0 3.4 0 5.1 -0.4 0-0.8 0-1.1 0 0-1.6 0-3.3 0-4.9 0-0.3-0.2-0.6-0.3-0.8 -0.5-0.7-1.1-1.3-1.6-2 -0.4-0.5-0.3-0.7 0.2-1.1 0.4-0.3 0.9-0.6 1.3-0.9 0.4-0.3 0.7-0.3 1 0 0.8 0.7 1.5 0.7 2.2 0 0.3-0.3 0.7-0.3 1.1 0 0.4 0.3 0.9 0.6 1.3 0.9 0.5 0.3 0.5 0.6 0.1 1.1 -0.6 0.7-1.2 1.4-1.8 2.2 -0.2 0.2-0.2 0.4-0.2 0.7C637.6 148.9 637.6 150.5 637.6 152.1z"/>
    <path class="st24" d="M635.4 152.1c0-1.7 0-3.4 0-5.1 0-0.4-0.1-0.7-0.3-1 -0.4-0.5-0.8-1-1.3-1.6 -0.1-0.1-0.4-0.3-0.2-0.4 0.2-0.2 0.5-0.6 0.9-0.3 0.3 0.2 0.6 0.4 0.9 0.6 0.4 0.3 0.7 0.3 1.1 0 0.2-0.2 0.5-0.3 0.8-0.5 0.2-0.1 0.3-0.2 0.6-0.1 0.6 0.3 0.6 0.4 0.2 0.9 -0.2 0.3-0.4 0.6-0.6 0.8 -0.8 0.7-0.9 1.6-0.9 2.6 0.1 1.4 0 2.8 0 4.2C636.1 152.1 635.8 152.1 635.4 152.1z"/>
    <line class="st29" x1="645" y1="143.6" x2="648.8" y2="143.7"/>
    <line class="st29" x1="643.9" y1="139.3" x2="646.9" y2="137.5"/>
    <line class="st29" x1="640.4" y1="136.4" x2="642" y2="133.2"/>
    <line class="st29" x1="627" y1="143.6" x2="623.2" y2="143.7"/>
    <line class="st29" x1="628.1" y1="139.3" x2="625.2" y2="137.5"/>
    <line class="st29" x1="631.2" y1="136.4" x2="629.6" y2="133.2"/>
    <line class="st29" x1="635.9" y1="135.1" x2="635.9" y2="132"/>
    <path class="st17" d="M898.1 269c0-0.1 0-0.1 0-0.2 0.1 0 0.2 0 0.3 0 2.1-0.3 4.2-0.6 6.3-0.9 0 0.4 0 0.8 0 1.1l0 0c-0.7 0-1.5 0.2-2.2 0.3 -1.4 0.2-2.8 0.4-4.2 0.6C898.1 269.6 898.1 269.3 898.1 269z"/>
    <path class="st23" d="M898.3 269.8c1.4-0.2 2.8-0.4 4.2-0.6 0.7-0.1 1.4-0.3 2.2-0.3 0 0.4-0.1 0.8-0.4 1.2 -1.1 0.1-2.3 0.3-3.4 0.5 -0.5 0.1-1.1 0.1-1.5 0.3C898.8 270.7 898.5 270.3 898.3 269.8z"/>
    <path class="st17" d="M899.3 270.9c0.5-0.2 1-0.2 1.5-0.3 1.1-0.2 2.3-0.3 3.4-0.5 -0.3 0.6-0.8 0.8-1.4 1 -1 0-2.1 0-3.1 0C899.7 271 899.4 271.1 899.3 270.9z"/>
    <path class="st23" d="M899.8 271.2c1 0 2.1 0 3.1 0 -0.3 0.7-0.9 1.1-1.6 1.1C900.6 272.2 900.1 271.9 899.8 271.2z"/>
    <path class="st24" d="M898.1 266.2c-0.2-1.1-0.8-1.8-1.5-2.5 -2.7-2.5-3.1-6.3-1-9.3 1.6-2.3 4.6-3.5 7.3-2.9 2.9 0.7 5.1 2.9 5.5 5.7 0.4 2.6-0.4 4.9-2.4 6.7 -0.7 0.6-1.1 1.4-1.3 2.3 -0.5 0-1.1 0-1.6 0 0-1.6 0-3.3 0-4.9 0-0.3 0.1-0.5 0.2-0.6 0.6-0.7 1.2-1.4 1.8-2.2 0.4-0.4 0.3-0.8-0.1-1.1 -0.4-0.3-0.9-0.6-1.3-0.9 -0.4-0.3-0.7-0.3-1.1 0 -0.8 0.7-1.5 0.7-2.2 0 -0.3-0.3-0.7-0.3-1 0 -0.4 0.3-0.9 0.6-1.3 0.9 -0.5 0.3-0.5 0.6-0.2 1.1 0.5 0.7 1.1 1.3 1.6 2 0.2 0.2 0.4 0.5 0.3 0.8 0 1.6 0 3.3 0 4.9C899.2 266.2 898.6 266.2 898.1 266.2z"/>
    <path class="st23" d="M904.7 267.9c-2.1 0.3-4.2 0.6-6.3 0.9 -0.1 0-0.2 0-0.3 0 0-0.4 0-0.7 0-1.1 0.9-0.1 1.9-0.3 2.8-0.4 1.3-0.2 2.5-0.4 3.8-0.5C904.7 267.2 904.7 267.5 904.7 267.9z"/>
    <path class="st17" d="M904.7 266.8c-1.3 0-2.5 0.3-3.8 0.5 -0.9 0.1-1.9 0.2-2.8 0.4 0-0.5 0-1 0-1.4 0.6 0 1.1 0 1.7 0 0.4 0 0.8 0 1.1 0 0.3 0 0.7 0 1 0 0.4 0 0.8 0 1.1 0 0.5 0 1.1 0 1.6 0C904.7 266.4 904.7 266.6 904.7 266.8z"/>
    <path class="st18" d="M903 266.2c-0.4 0-0.8 0-1.1 0 0-1.4 0.1-2.8 0-4.2 0-1 0.1-1.9 0.9-2.6 0.2-0.2 0.4-0.5 0.6-0.8 0.4-0.5 0.4-0.6-0.2-0.9 -0.2-0.1-0.4-0.1-0.6 0.1 -0.3 0.2-0.5 0.3-0.8 0.5 -0.4 0.3-0.7 0.2-1.1 0 -0.3-0.2-0.6-0.4-0.9-0.6 -0.4-0.2-0.6 0.1-0.9 0.3 -0.2 0.2 0.1 0.3 0.2 0.4 0.4 0.5 0.8 1.1 1.3 1.6 0.2 0.3 0.4 0.6 0.3 1 0 1.7 0 3.4 0 5.1 -0.4 0-0.8 0-1.1 0 0-1.6 0-3.3 0-4.9 0-0.3-0.2-0.6-0.3-0.8 -0.5-0.7-1.1-1.3-1.6-2 -0.4-0.5-0.3-0.7 0.2-1.1 0.4-0.3 0.9-0.6 1.3-0.9 0.4-0.3 0.7-0.3 1 0 0.8 0.7 1.5 0.7 2.2 0 0.3-0.3 0.7-0.3 1.1 0 0.4 0.3 0.9 0.6 1.3 0.9 0.5 0.3 0.5 0.6 0.1 1.1 -0.6 0.7-1.2 1.4-1.8 2.2 -0.2 0.2-0.2 0.4-0.2 0.6C903 262.9 903 264.6 903 266.2z"/>
    <path class="st24" d="M900.9 266.2c0-1.7 0-3.4 0-5.1 0-0.4-0.1-0.7-0.3-1 -0.4-0.5-0.8-1-1.3-1.6 -0.1-0.1-0.4-0.3-0.2-0.4 0.2-0.2 0.5-0.6 0.9-0.3 0.3 0.2 0.6 0.4 0.9 0.6 0.4 0.3 0.7 0.3 1.1 0 0.2-0.2 0.5-0.3 0.8-0.5 0.2-0.1 0.3-0.2 0.6-0.1 0.6 0.3 0.6 0.4 0.2 0.9 -0.2 0.3-0.4 0.6-0.6 0.8 -0.8 0.7-0.9 1.6-0.9 2.6 0.1 1.4 0 2.8 0 4.2C901.6 266.2 901.2 266.2 900.9 266.2z"/>
    <line class="st29" x1="910.5" y1="257.7" x2="914.3" y2="257.8"/>
    <line class="st29" x1="909.4" y1="253.4" x2="912.4" y2="251.6"/>
    <line class="st29" x1="905.9" y1="250.4" x2="907.5" y2="247.3"/>
    <line class="st29" x1="892.5" y1="257.7" x2="888.7" y2="257.8"/>
    <line class="st29" x1="893.6" y1="253.4" x2="890.6" y2="251.6"/>
    <line class="st29" x1="896.7" y1="250.4" x2="895.1" y2="247.3"/>
    <line class="st29" x1="901.4" y1="249.2" x2="901.4" y2="246.1"/>
    <g class="st26">
        <path class="st8" d="M878.5 355.3c-7.2-83.1-73.1-148.1-153.4-148.1 -56.3 0-105.5 32-132.4 79.7v5.1h13.4V311H621v17.4h28.3v26.9H878.5z"/>
        <path class="st9" d="M725.6 204.1c-55.8 0-104.8 30.7-132.9 77v11h2.2c26-47.9 74.8-80.2 130.7-80.2 78.1 0 142.3 62.9 149.9 143.5h7.3C875.2 270.5 807.7 204.1 725.6 204.1z"/>
        <path class="st10" d="M875.1 328.9l-0.7 1.5c-2.2-2.3-2.2-1.1-4-5 -1.8-3.8-0.4-3.1-1.8-5.7 -1.5-2.7-1.1-0.8-2.9-3.5 -1.8-2.7-2.2-2.3-3.6-3.8 -1.5-1.5-2.9-6.5-4-8 -1.1-1.6-4.3-2-5.8-2.3 -1.5-0.4-3.1-2.3-3.9-0.4 -0.7 1.9-0.2 5-0.2 5v6.1c0 0 0 5.8 0 7.3 0 1.5 0 5.8 0 5.8s1.9 4.6 0.4 5.3c-1.5 0.8-8.5 2.3-8.5 2.3s-1.9-3.1-3.3-5.8c-1.5-2.7-5.9-3.5-6.5-4.6 -0.8-1.1 1.2-3.4-1-6.5 -2.2-3.1 0.1-2.3-2.8-5 -2.9-2.7-2.8-2.7-2.8-2.7s-6.5-2.3-4.3 1.5c2.2 3.9-0.4 8.1 1.4 8.5 1.9 0.4 3-1.2 4.4 2.3 1.4 3.5 1.8 5 2.9 6.1 1.1 1.2 1.5 6.1 2.9 6.5 1.5 0.4 5.4 0 5.1 1.9 -0.4 1.9-2.6 4.6 0 5.4 2.5 0.8 2.9 1.9 4.3 1.5 1.5-0.4 0.7 0.4 3.2-0.8 2.5-1.2 5.5-1.2 5.5-1.2s3.3 2.7 3.3 3.8c0 1.1-1.1 7.6-1.1 7.6l-1.5 3.1h37.2c-5.6-59.6-44-115.1-114-140.2C772.9 215.1 853.8 246.8 875.1 328.9z"/>
        <path class="st10" d="M811.4 283.2c-4.4-2.3-5.8 0.3-6.5-2.7 -0.7-3.1 3.6-2.3-0.7-3.1 -4.4-0.8-3.6-0.8-6.9-1.9 -3.2-1.2-6.5 3.5-7.6 0 -1.1-3.5-7.3 2.3-1.1-3.5 6.1-5.7 3.6-8 7.6-6.9 4 1.1 2.9 5 5.4 2.7 2.6-2.3 7.3-3.8 2.6-7.3 -4.7-3.5-1.4-1.9-6.2-4.2 -4.7-2.3-9 8.8-11.2 7.3 -2.2-1.5-3.3-2.6-4.7-1.9 -1.5 0.8-1.5 5-1.8 8 -0.4 3.1 2.5 3.9-2.1 1.5 -4.7-2.3 5.1-1.1-5.5-5.3 -10.5-4.2-14.1-3.1-15.5-1.5 -1.5 1.5-3.6 1.2-4.7 2.3 -1.1 1.2 3.3 3.9-1.1 1.2 -4.4-2.7-8.7 1.5-8.7 1.5s-1.5-0.8-3.2 0.8c-1.8 1.5-5.5 2.7-7.6 1.9 -2.2-0.8-6.9 0.8-2.9-4.6 4-5.4 1.1-2.3 7.2-5 6.1-2.7 15.2-3 7.3-5 -8-1.9 4.3-1.9-6.2-7.3 -10.5-5.3-10.8 2-10.5-5.3 0.3-7.3-0.7-7.7-2.9-7.3 -2.2 0.4-8.7 1.9-11.2 2.3 -2.6 0.4 0.3 2.7-4.4-0.4 -4.8-3.1-6.5 1.5-4.8-3.1 1.8-4.6 2.2-5.4 5.1-8.1 2.9-2.7 2.2-12.6 9.4-8.8 7.3 3.8 4.4 2.7 10.2 3 5.7 0.4 8.3-0.7 8.3-1.9 0-1.1-6.5-4.6-6.5-4.6s-2.2 0.8-1.5-0.4c0.7-1.1 2.2-3.4 2.2-3.4l-2.2-1.9c0 0-20.3 0-25.4 1.1 0 0-53.2 7.3-89.4 51.4 0 0 27.8-30.7 44.9-30.7l3.8 1.7c0 0-0.5 1.5-1.1 2.1 -0.5 0.6-2.7 3.7-2.7 4.4 0 0.8 0.2 3.2 0.2 3.2l-1.3 1.9c0 0-1.3 0.6-1.7 1.2 -0.3 0.6-1.1 0.8-1.1 2.1 0 1.3 0.4 3 0.4 3l0.2 3.3 -0.9 1.9 -2.3 1.6c0 0-2.7 0.6-3.8 0 -1.1-0.6-1.5-2.9-1.5-2.9l3.1-2.1c0 0 0.4-0.6-0.5-1.2 -0.9-0.6-0.7-2.5-2.4-2.1 -1.6 0.4-4.2 2.7-4.2 2.7l-2.7 1.9c0 0-1.3 3.4-0.7 3.4 0.6 0 2 1 2 1s0.3 0.9 0.3 1.9c0 1-0.9 2.9-0.9 2.9s-0.5 1-2.3 0.6c-1.8-0.4-3.5-0.8-4.5-1.2 -1.1-0.4-2.2-1-3.3-0.5 -1.1 0.4-1.4 0.7-1.7 1.3 -0.2 0.6-3.9 2.9-3.9 2.9s-1.3 0.6-1.3 1.4c0 0.8-1.1 3.6-1.1 3.6s-1.3 1.3-3.6 1.9c-2.3 0.6-2.9 1.4-2.9 1.4l-1.3 2.8c0 0-1.8 1.4-3.1 3.1 -1.3 1.7-5.1 4.6-5.6 4.8 -0.6 0.2-2 1.9-2.5 3.5 -0.2 0.7-0.3 1.5-0.4 2.3h2.8V311H621v17.4h28.3v26.9h62.8c-0.3-0.3-0.9-0.6-1.7-1.1 -3.2-2-3.9-0.4-4.3-3.8 -0.4-3.5 1.5-2.7-1.1-5.7 -2.5-3.1 1.5 1.5-2.5-3.1 -4-4.6-5.4-0.8-4-4.6 1.4-3.8 2.5-1.5 2.5-6.1 0-4.6 6.5 1.9 2.5-7.3 -3.9-9.2-4.6-7.3-1-14.2 3.6-6.9 8.3-9.2 9-10.7 0.7-1.6 2.2-5.4 3.6-6.5 1.5-1.2 0.4-2.3 3.6-2 3.3 0.4 6.8-1.1 9-3.4 2.2-2.3 5.1-5.7 6.5-6.1 1.5-0.4 0.8 0.4 4-0.4 3.3-0.8 4-1.1 6.2-1.1 2.2 0-2.2 0.8 4-0.4 6.2-1.2 4.7-1.2 6.2-1.2 1.4 0 0.7 0.4 3.2 0.8 2.6 0.4 2.2-5.4 2.6 0.4 0.3 5.7-2.2 8.4 2.2 8.8 4.4 0.4 0 0.4 4.4 0.4 4.3 0 3.2 0.8 5.4 1.9 2.2 1.1 3.3 2.7 6.5 2.7 3.3 0-1.5 5 3.3 0 4.7-5-3.7-5.8 4.7-5 8.3 0.8 9.4 2.7 10.8 1.9 1.5-0.8 1.8 0.8 5.5-1.1 3.6-1.9 4-1.9 5.4-1.2 1.5 0.8 1.5 4.2 2.9 0.8C812.9 284.4 815.8 285.5 811.4 283.2z"/>
    </g>
    <path class="st30" d="M712.6 271c-0.2-0.5-4.7-12-6.4-27.5 -2.3-20.7 1.5-38.6 11.1-51.7 31.6-43.1 18-81 10.8-95.2l4.7-2.9c7.8 15.3 26.7 56-7 102 -10.8 14.8-10.3 33.7-8.8 47 1.6 14.7 7 25.9 7.1 26L712.6 271z"/>
    <path class="st31" d="M838.9 156.6c-19.2 1-53.6-9.5-75.1 2.1 -21.5 11.5-24.1 28.5-24.1 51.3 19 12.6 34.6 19.7 56.1 8.2C817.3 206.5 839 179.3 838.9 156.6z"/>
    <path class="st32" d="M838.9 156.6c-19.2 1-53.6-9.5-75.1 2.1 -21.5 11.5-24.1 28.5-24.1 51.3C739.8 212.1 838.9 156.6 838.9 156.6z"/>
    <path class="st31" d="M651.4 188.3c14 0.7 38.9-6.9 54.5 1.5 15.6 8.4 17.5 20.7 17.5 37.2 -13.8 9.1-25.1 14.3-40.7 5.9C667.1 224.6 651.3 204.9 651.4 188.3z"/>
    <path class="st32" d="M651.4 188.3c14 0.7 38.9-6.9 54.5 1.5 15.6 8.4 17.5 20.7 17.5 37.2L651.4 188.3z"/>
    <path class="st31" d="M699 69.6c10.4 9.3 34.7 19 41.5 35.3 6.9 16.3 0.7 27.1-9.7 40 -16.5-1.5-28.6-4.6-35.4-20.9C688.5 107.7 688.6 82.5 699 69.6z"/>
    <path class="st32" d="M699 69.6c10.4 9.3 34.7 19 41.5 35.3 6.9 16.3 0.7 27.1-9.7 40L699 69.6z"/>
    <path class="st33" d="M804 280.1c0-8-6.5-14.5-14.5-14.5 -3.5 0-6.7 1.2-9.2 3.3 -3.8-9.7-13.3-16.6-24.4-16.6 -8.1 0-15.4 3.7-20.2 9.5 -1.9-3.9-5.9-6.6-10.5-6.6 -2 0-4 0.5-5.6 1.4 -0.9-6.4-6.4-11.4-13.1-11.4 -5.8 0-10.6 3.7-12.5 8.8 -1.2-1.9-3.3-3.2-5.8-3.2 -3.7 0-6.8 3-6.8 6.8 0 0 0 0.1 0 0.1 -2.2-2.3-5.2-3.8-8.6-3.8 -6 0-11 4.5-11.7 10.3 -0.8-0.4-1.8-0.7-2.8-0.7 -2.2 0-4.1 1.2-5.1 3 -2-2.5-5-4.2-8.5-4.2 -5.9 0-10.7 4.8-10.7 10.7 0 0.1 0 0.1 0 0.2 -1.9-0.6-3.9-0.9-6-0.9 -10.9 0-19.8 8.8-19.8 19.7 0 10.9 8.8 19.8 19.8 19.8 1.4 0 2.7-0.1 4-0.4l15.8 32.8 144.2 10.5 -2.2-60C797.7 294.3 804 287.9 804 280.1z"/>
    <path class="st34" d="M924.7 307.8l-47.7-34.6c0 0-137.5 0-154.8 0 -17.3 0-18.1 37.9 0 37.9 18.1 0 36.2 0 47.7 0 11.5 0 9.9 18.9-1.6 18.9 -11.5 0-107 0-107 0s-45.3-44.5-58.4-56.8c-13.2-12.3-37 0-37 0l90.6 111.1h200l64.2 26.3L924.7 307.8z"/>
    <rect x="915.6" y="258.4" class="st12" width="184.4" height="165.5"/>
    <path class="st35" d="M904.6-29.3c-0.3 0.3-0.7 0.3-1.1 0.2C903.8-29.4 904.2-29.4 904.6-29.3z"/>
</svg>
