<?xml version="1.0" standalone="no"?>
<?xml-stylesheet type="text/css" media="screen" href="../css/style.css"?>
<svg
    class="grafico_inteligencia" xmlns="http://www.w3.org/2000/svg" version="1.1" viewBox="0 0 1100 486" xml:space="preserve">

        <g id="fondo"/>
        <g id="texto">
            <text transform="matrix(1 0 0 1 723.6919 159.0611)">
                <tspan x="0" y="0" class="st0 st1">INTELIGENCIA</tspan>
                <tspan x="150.5" y="53.6" class="st0 st1">FISCAL</tspan>
                <tspan x="-59.9" y="107.1" class="st2 st1">Y CONTABILIDAD</tspan>
            </text>
            <text transform="matrix(1 0 0 1 673.2769 305.8424)">
                <tspan x="0" y="0" class="st3 st4">Encuentra la estrategia fiscal que tanto necesitas, recupera tu flujo de</tspan>
                <tspan x="173" y="13.6" class="st3 st4">efectivo y aumenta tu rentabilidad.</tspan>
            </text>
            <rect x="948.9" y="344.6" class="st5" width="71.2" height="19.2"/>
            <text transform="matrix(1 0 0 1 956.7461 358.1973)" class="st3 st6">LEER MÁS</text>
        </g>
        <g id="graficos">
            <g class="st7">
                <path class="st8" d="M216.6 333.6c0.1-2.6 0.2-5.1 0.4-7.7l2.8 0.2c-0.2 2.5-0.3 5-0.4 7.5L216.6 333.6zM216.6 341.3l2.9-0.1c0.1 2.5 0.2 5 0.4 7.5L217 349C216.8 346.4 216.7 343.9 216.6 341.3zM217.7 318.3c0.3-2.6 0.7-5.1 1.1-7.6l2.8 0.5c-0.4 2.5-0.8 5-1.1 7.5L217.7 318.3zM217.8 356.6l2.8-0.4c0.3 2.5 0.7 5 1.1 7.4l-2.8 0.5C218.5 361.7 218.1 359.1 217.8 356.6zM220.3 303.2c0.6-2.5 1.2-5 1.9-7.4l2.7 0.8c-0.7 2.4-1.3 4.9-1.8 7.3L220.3 303.2zM220.4 371.7l2.8-0.6c0.6 2.5 1.2 4.9 1.9 7.3l-2.8 0.8C221.6 376.7 221 374.2 220.4 371.7zM224.3 288.4c0.8-2.4 1.7-4.8 2.6-7.2l2.7 1c-0.9 2.3-1.7 4.7-2.5 7.1L224.3 288.4zM224.6 386.5l2.7-0.9c0.8 2.4 1.7 4.8 2.6 7.1l-2.7 1C226.2 391.3 225.4 388.9 224.6 386.5zM229.9 274.1c1-2.3 2.1-4.6 3.3-6.9l2.5 1.3c-1.1 2.2-2.2 4.5-3.2 6.8L229.9 274.1zM230.1 400.8l2.6-1.2c1 2.3 2.1 4.6 3.3 6.8l-2.5 1.3C232.3 405.4 231.2 403.1 230.1 400.8zM236.8 260.5c1.3-2.2 2.6-4.4 4-6.6l2.4 1.5c-1.3 2.1-2.6 4.3-3.9 6.5L236.8 260.5zM237.1 414.5l2.5-1.4c1.3 2.2 2.6 4.3 3.9 6.4l-2.4 1.5C239.7 418.9 238.4 416.7 237.1 414.5zM245 247.5c1.5-2.1 3-4.1 4.6-6.1l2.2 1.8c-1.5 2-3 4-4.5 6L245 247.5zM245.4 427.4l2.3-1.7c1.5 2 3 4.1 4.5 6l-2.2 1.8C248.5 431.5 246.9 429.5 245.4 427.4zM254.4 235.5c1.7-1.9 3.4-3.8 5.2-5.7l2.1 2c-1.7 1.8-3.4 3.7-5.1 5.6L254.4 235.5zM255 439.4l2.1-1.9c1.7 1.9 3.4 3.7 5.1 5.5l-2 2C258.4 443.2 256.6 441.3 255 439.4zM265 224.4c1.9-1.8 3.8-3.5 5.7-5.1l1.9 2.2c-1.9 1.6-3.8 3.3-5.6 5L265 224.4zM265.6 450.4l2-2.1c1.8 1.7 3.7 3.4 5.6 5l-1.8 2.2C269.4 453.9 267.5 452.2 265.6 450.4zM276.7 214.4c2-1.6 4.1-3.1 6.2-4.6l1.6 2.3c-2.1 1.4-4.1 2.9-6.1 4.5L276.7 214.4zM277.3 460.4l1.7-2.3c2 1.5 4 3 6.1 4.4l-1.6 2.3C281.4 463.4 279.3 461.9 277.3 460.4zM289.2 205.6c2.2-1.4 4.4-2.7 6.6-3.9l1.4 2.5c-2.2 1.2-4.4 2.5-6.5 3.9L289.2 205.6zM289.9 469.1l1.5-2.4c2.1 1.3 4.3 2.6 6.5 3.8l-1.4 2.5C294.2 471.8 292 470.5 289.9 469.1zM302.6 198c2.3-1.1 4.6-2.2 7-3.3l1.1 2.6c-2.3 1-4.6 2.1-6.8 3.2L302.6 198zM303.3 476.6l1.3-2.6c2.2 1.1 4.5 2.2 6.8 3.2l-1.1 2.6C307.9 478.8 305.5 477.7 303.3 476.6zM316.7 191.9c2.4-0.9 4.8-1.8 7.3-2.6l0.9 2.7c-2.4 0.8-4.8 1.6-7.1 2.5L316.7 191.9zM317.3 482.7l1-2.7c2.3 0.9 4.7 1.7 7.1 2.5l-0.9 2.7C322.1 484.4 319.7 483.6 317.3 482.7zM331.3 187.1c2.5-0.7 4.9-1.3 7.5-1.8l0.6 2.8c-2.5 0.5-4.9 1.1-7.3 1.8L331.3 187.1zM331.9 487.3l0.7-2.8c2.4 0.6 4.9 1.2 7.3 1.8l-0.6 2.8C336.9 488.6 334.4 488 331.9 487.3zM346.3 183.8c2.5-0.4 5-0.8 7.6-1.1l0.3 2.8c-2.5 0.3-5 0.6-7.5 1.1L346.3 183.8zM346.9 490.5l0.5-2.8c2.5 0.4 5 0.7 7.5 1l-0.3 2.8C352 491.3 349.4 490.9 346.9 490.5zM361.5 182.1c2.5-0.2 5.1-0.3 7.7-0.3l0.1 2.9c-2.5 0-5 0.1-7.5 0.3L361.5 182.1zM362.1 492.2l0.2-2.8c2.5 0.2 5 0.3 7.5 0.3l0 2.9C367.2 492.5 364.7 492.4 362.1 492.2zM372 492.5v-2.9c2.5 0 5-0.1 7.5-0.2l0.1 2.8C377.1 492.5 374.5 492.5 372 492.5zM376.8 184.7l0.1-2.9c2.6 0.1 5.1 0.2 7.7 0.4l-0.2 2.8C381.8 184.9 379.3 184.7 376.8 184.7zM387 489c2.5-0.2 5-0.6 7.5-0.9l0.4 2.8c-2.5 0.4-5.1 0.7-7.6 0.9L387 489zM391.8 185.9l0.4-2.8c2.6 0.3 5.1 0.7 7.6 1.2l-0.5 2.8C396.8 186.6 394.3 186.2 391.8 185.9zM401.9 486.8c2.5-0.5 4.9-1 7.3-1.7l0.7 2.8c-2.5 0.6-5 1.2-7.5 1.7L401.9 486.8zM406.6 188.5l0.6-2.8c2.5 0.6 5 1.2 7.4 1.9l-0.8 2.7C411.5 189.7 409.1 189.1 406.6 188.5zM416.5 483.1c2.4-0.7 4.8-1.5 7.2-2.4l1 2.7c-2.4 0.9-4.8 1.7-7.3 2.4L416.5 483.1zM421.1 192.7l0.9-2.7c2.4 0.8 4.8 1.7 7.2 2.6l-1.1 2.7C425.8 194.3 423.5 193.5 421.1 192.7zM430.7 478c2.3-1 4.6-2 6.9-3.1l1.2 2.6c-2.3 1.1-4.6 2.1-7 3.1L430.7 478zM435.1 198.2l1.2-2.6c2.3 1.1 4.6 2.2 6.9 3.3l-1.3 2.5C439.6 200.3 437.3 199.2 435.1 198.2zM444.3 471.5c2.2-1.2 4.4-2.4 6.5-3.7l1.5 2.4c-2.2 1.3-4.4 2.6-6.7 3.8L444.3 471.5zM448.4 205.1l1.4-2.5c2.2 1.3 4.4 2.6 6.5 4l-1.6 2.4C452.7 207.7 450.6 206.4 448.4 205.1zM457.2 463.7c2.1-1.4 4.1-2.9 6.1-4.4l1.7 2.3c-2 1.5-4.1 3-6.3 4.4L457.2 463.7zM461 213.3l1.7-2.3c2.1 1.5 4.1 3 6.1 4.6l-1.8 2.2C465.1 216.3 463.1 214.8 461 213.3zM469.3 454.6c1.9-1.6 3.8-3.3 5.7-4.9l1.9 2.1c-1.9 1.7-3.8 3.4-5.8 5L469.3 454.6zM472.8 222.7l1.9-2.1c1.9 1.7 3.8 3.4 5.6 5.2l-2 2C476.5 226 474.7 224.3 472.8 222.7zM480.4 444.5c1.8-1.8 3.5-3.6 5.2-5.5l2.1 1.9c-1.7 1.9-3.5 3.8-5.3 5.6L480.4 444.5zM483.6 233.2l2.1-1.9c1.7 1.9 3.4 3.8 5.1 5.7l-2.2 1.8C487 236.9 485.3 235 483.6 233.2zM490.4 433.3c1.6-1.9 3.1-3.9 4.6-6l2.3 1.7c-1.5 2.1-3.1 4.1-4.7 6.1L490.4 433.3zM493.3 244.7l2.3-1.7c1.6 2 3.1 4.1 4.5 6.2l-2.3 1.6C496.3 248.7 494.8 246.7 493.3 244.7zM499.3 421.1c1.4-2.1 2.7-4.2 4-6.4l2.5 1.5c-1.3 2.2-2.7 4.4-4.1 6.5L499.3 421.1zM501.9 257.1l2.4-1.5c1.3 2.2 2.6 4.4 3.9 6.6l-2.5 1.4C504.4 261.4 503.2 259.2 501.9 257.1zM507 408.2c1.2-2.2 2.3-4.5 3.3-6.7l2.6 1.2c-1.1 2.3-2.2 4.6-3.4 6.9L507 408.2zM509.1 270.3l2.6-1.2c1.1 2.3 2.2 4.6 3.2 7l-2.6 1.1C511.3 274.8 510.2 272.6 509.1 270.3zM513.3 394.6c0.9-2.3 1.8-4.7 2.7-7l2.7 0.9c-0.8 2.4-1.8 4.8-2.7 7.2L513.3 394.6zM515.1 284.2l2.7-1c0.9 2.4 1.7 4.8 2.5 7.3l-2.7 0.9C516.8 288.9 515.9 286.5 515.1 284.2zM518.3 380.4c0.7-2.4 1.4-4.8 2-7.3l2.8 0.7c-0.6 2.5-1.3 5-2 7.4L518.3 380.4zM519.6 298.5l2.8-0.7c0.6 2.5 1.2 5 1.8 7.5l-2.8 0.6C520.8 303.4 520.2 301 519.6 298.5zM521.8 365.7c0.5-2.5 0.9-4.9 1.2-7.4l2.8 0.4c-0.4 2.5-0.8 5.1-1.2 7.6L521.8 365.7zM522.7 313.3l2.8-0.4c0.4 2.5 0.7 5 1 7.6l-2.8 0.3C523.4 318.2 523.1 315.7 522.7 313.3zM523.9 350.8c0.2-2.5 0.4-5 0.5-7.5l2.9 0.1c-0.1 2.6-0.3 5.1-0.5 7.7L523.9 350.8zM524.3 328.2l2.8-0.2c0.1 2.5 0.2 5.1 0.3 7.7l-2.8 0C524.5 333.3 524.4 330.7 524.3 328.2z"/>
                <path class="st8" d="M351.5 131.8c0-2.1 0.1-4.2 0.2-6.3l2.8 0.2c-0.1 2-0.2 4.1-0.2 6.2l0 1.3 -2.9 0L351.5 131.8zM351.9 140.9l2.8-0.2c0.2 2.5 0.5 5 0.9 7.4l-2.8 0.4C352.4 146 352.1 143.5 351.9 140.9zM352.4 117.8c0.3-2.6 0.8-5.1 1.3-7.6l2.8 0.6c-0.5 2.4-0.9 4.9-1.3 7.4L352.4 117.8zM354.3 156.1l2.8-0.7c0.6 2.4 1.2 4.9 2 7.2l-2.7 0.9C355.6 161.1 354.9 158.6 354.3 156.1zM355.6 102.8c0.7-2.5 1.5-4.9 2.4-7.3l2.7 1c-0.9 2.3-1.6 4.7-2.3 7.1L355.6 102.8zM358.9 170.8l2.6-1c0.9 2.3 1.9 4.6 3 6.9l-2.6 1.2C360.9 175.5 359.9 173.2 358.9 170.8zM360.9 88.3c1.1-2.3 2.2-4.7 3.4-6.9l2.5 1.4c-1.2 2.2-2.3 4.4-3.3 6.7L360.9 88.3zM365.6 184.7l2.5-1.4c1.2 2.1 2.6 4.3 4 6.4l-2.4 1.6C368.3 189.1 366.9 186.9 365.6 184.7zM368.2 74.8c1.4-2.1 2.8-4.3 4.4-6.3l2.3 1.7c-1.5 2-2.9 4.1-4.3 6.2L368.2 74.8zM374.3 197.4l2.2-1.8c1.5 2 3.2 3.9 4.8 5.7l-2.1 1.9C377.5 201.4 375.8 199.4 374.3 197.4zM377.4 62.4c1.7-1.9 3.4-3.8 5.3-5.6l2 2c-1.8 1.8-3.5 3.6-5.1 5.5L377.4 62.4zM384.7 208.8l2-2.1c1.8 1.7 3.7 3.4 5.6 5l-1.8 2.2C388.5 212.3 386.5 210.6 384.7 208.8zM388.3 51.6c1.9-1.7 4-3.3 6-4.8L396 49c-2 1.5-4 3.1-5.9 4.7L388.3 51.6zM396.6 218.5l1.6-2.3c2 1.4 4.1 2.8 6.3 4.1l-1.5 2.4C400.8 221.4 398.7 220 396.6 218.5zM400.7 42.4c2.2-1.4 4.4-2.7 6.6-3.9l1.4 2.5c-2.2 1.2-4.4 2.5-6.5 3.8L400.7 42.4zM409.8 226.5l1.3-2.5c2.2 1.1 4.5 2.2 6.8 3.1l-1.1 2.6C414.4 228.7 412.1 227.6 409.8 226.5zM414.2 35.1c2.3-1 4.7-2 7.1-2.9l1 2.7c-2.4 0.9-4.7 1.8-7 2.8L414.2 35.1zM424 232.4l0.9-2.7c2.4 0.8 4.8 1.5 7.2 2.1l-0.7 2.8C428.9 233.9 426.4 233.2 424 232.4zM428.7 29.8c2.5-0.7 5-1.3 7.5-1.8l0.6 2.8c-2.4 0.5-4.9 1.1-7.3 1.8L428.7 29.8zM438.9 236.2l0.5-2.8c2.4 0.4 4.9 0.8 7.4 1l-0.3 2.8C444 237 441.4 236.6 438.9 236.2zM443.8 26.7c2.5-0.3 5.1-0.6 7.7-0.7l0.2 2.9c-2.5 0.1-5 0.4-7.5 0.7L443.8 26.7zM454.2 237.8l0.1-2.9c1.1 0 2.1 0 3.2 0.1 2.5 0 5-0.1 7.5-0.3l0.2 2.8c-2.5 0.2-5.1 0.3-7.7 0.3C456.4 237.8 455.3 237.8 454.2 237.8zM459.1 28.7l0-2.9c2.6 0 5.2 0.2 7.7 0.4l-0.2 2.8C464.1 28.9 461.6 28.8 459.1 28.7zM472.5 233.9c2.5-0.4 4.9-0.8 7.4-1.3l0.6 2.8c-2.5 0.6-5.1 1-7.6 1.4L472.5 233.9zM474 30l0.5-2.8c2.5 0.4 5.1 0.9 7.6 1.5l-0.7 2.8C479 30.9 476.5 30.4 474 30zM487.1 230.7c2.4-0.7 4.8-1.5 7.1-2.4l1 2.7c-2.4 0.9-4.9 1.7-7.3 2.5L487.1 230.7zM488.6 33.5l0.9-2.7c2.4 0.8 4.9 1.6 7.3 2.6l-1.1 2.6C493.4 35.1 491 34.2 488.6 33.5zM501.1 225.3c2.3-1.1 4.5-2.2 6.7-3.4l1.4 2.5c-2.2 1.2-4.5 2.4-6.9 3.5L501.1 225.3zM502.5 39l1.2-2.6c2.3 1.1 4.6 2.3 6.8 3.6l-1.4 2.5C507 41.3 504.8 40.1 502.5 39zM514.2 218c2.1-1.4 4.1-2.8 6.1-4.4l1.7 2.3c-2.1 1.6-4.2 3.1-6.3 4.5L514.2 218zM515.5 46.5l1.6-2.4c2.1 1.4 4.2 3 6.2 4.6l-1.8 2.2C519.6 49.4 517.6 47.9 515.5 46.5zM526.1 208.9c1.8-1.6 3.7-3.4 5.4-5.2l2 2c-1.8 1.8-3.7 3.6-5.6 5.3L526.1 208.9zM527.2 55.8l1.9-2.1c1.9 1.7 3.7 3.5 5.5 5.4l-2.1 2C530.9 59.3 529.1 57.5 527.2 55.8zM536.5 198.1c1.6-1.9 3.2-3.9 4.6-5.9l2.3 1.7c-1.5 2.1-3.1 4.1-4.7 6.1L536.5 198.1zM537.5 66.7l2.2-1.8c1.6 2 3.2 4 4.6 6.2l-2.3 1.6C540.6 70.7 539.1 68.7 537.5 66.7zM545.3 186c1.3-2.1 2.6-4.3 3.7-6.5l2.5 1.3c-1.2 2.3-2.5 4.5-3.8 6.7L545.3 186zM546.1 79l2.5-1.5c1.3 2.2 2.6 4.5 3.7 6.8l-2.5 1.3C548.6 83.4 547.4 81.2 546.1 79zM552.2 172.7c1-2.3 1.9-4.6 2.7-7l2.7 0.9c-0.8 2.4-1.8 4.8-2.8 7.2L552.2 172.7zM552.8 92.4l2.6-1.1c1 2.4 1.9 4.8 2.7 7.2l-2.7 0.9C554.7 97.1 553.8 94.7 552.8 92.4zM557.1 158.6c0.6-2.4 1.2-4.9 1.7-7.3l2.8 0.5c-0.5 2.5-1.1 5-1.7 7.5L557.1 158.6zM557.5 106.7l2.8-0.7c0.6 2.5 1.2 5 1.6 7.5l-2.8 0.5C558.7 111.5 558.1 109.1 557.5 106.7zM559.9 143.9c0.3-2.4 0.5-5 0.6-7.5l2.9 0.1c-0.1 2.6-0.3 5.2-0.6 7.7L559.9 143.9zM560.1 121.4l2.8-0.3c0.3 2.5 0.4 5.1 0.5 7.7l-2.9 0.1C560.5 126.4 560.4 123.9 560.1 121.4z"/>
                <path class="st8" d="M-2 245.9c0-2.2 0-4.3 0.1-6.4l2.9 0.1c-0.1 2.1-0.1 4.2-0.1 6.4l0 1.2 -2.8 0L-2 245.9zM-1.9 254.7l2.9-0.1c0.1 2.5 0.2 5 0.4 7.5l-2.8 0.2C-1.7 259.8-1.8 257.3-1.9 254.7zM-1.7 231.8c0.1-2.6 0.3-5.1 0.5-7.6l2.8 0.3c-0.2 2.5-0.4 5-0.5 7.5L-1.7 231.8zM-0.9 270l2.8-0.3c0.3 2.5 0.5 5 0.9 7.5L0 277.6C-0.3 275.1-0.6 272.5-0.9 270zM-0.3 216.6c0.3-2.5 0.6-5.1 1-7.6l2.8 0.4c-0.4 2.5-0.7 5-1 7.5L-0.3 216.6zM1.1 285.2l2.8-0.5c0.4 2.5 0.8 5 1.3 7.4l-2.8 0.5C1.9 290.2 1.5 287.7 1.1 285.2zM2 201.5c0.5-2.5 1-5 1.5-7.5l2.8 0.6c-0.5 2.5-1 4.9-1.5 7.4L2 201.5zM4 300.2l2.8-0.6c0.6 2.5 1.2 4.9 1.8 7.3l-2.8 0.7C5.2 305.1 4.6 302.7 4 300.2zM5.2 186.5c0.6-2.5 1.3-4.9 2-7.4l2.7 0.8c-0.7 2.4-1.3 4.9-1.9 7.3L5.2 186.5zM7.8 315l2.7-0.8c0.7 2.4 1.5 4.8 2.2 7.2l-2.7 0.9C9.3 319.9 8.6 317.4 7.8 315zM9.4 171.8c0.8-2.4 1.6-4.9 2.4-7.3l2.7 0.9c-0.8 2.4-1.6 4.8-2.4 7.2L9.4 171.8zM12.6 329.5l2.7-1c0.9 2.4 1.8 4.7 2.7 7.1l-2.7 1.1C14.4 334.3 13.5 331.9 12.6 329.5zM14.4 157.4c0.9-2.4 1.9-4.7 2.9-7.1l2.6 1.1c-1 2.3-1.9 4.6-2.8 7L14.4 157.4zM18.3 343.8l2.6-1.1c1 2.3 2.1 4.6 3.1 6.9l-2.6 1.2C20.4 348.4 19.3 346.1 18.3 343.8zM20.4 143.3c1.1-2.3 2.2-4.6 3.3-6.9l2.5 1.3c-1.1 2.2-2.2 4.5-3.3 6.8L20.4 143.3zM24.9 357.6l2.5-1.3c1.2 2.2 2.3 4.5 3.6 6.7l-2.5 1.4C27.2 362.1 26 359.9 24.9 357.6zM27.2 129.7c1.2-2.2 2.5-4.5 3.7-6.7l2.5 1.4c-1.3 2.2-2.5 4.4-3.7 6.6L27.2 129.7zM32.3 371l2.5-1.5c1.3 2.2 2.6 4.3 4 6.4l-2.4 1.5C34.9 375.4 33.6 373.2 32.3 371zM34.9 116.5c1.3-2.2 2.7-4.3 4.1-6.4l2.4 1.6c-1.4 2.1-2.8 4.2-4.1 6.3L34.9 116.5zM40.5 383.9l2.4-1.6c1.4 2.1 2.9 4.1 4.4 6.2l-2.3 1.7C43.5 388.1 42 386 40.5 383.9zM43.4 103.8c1.5-2.1 3-4.1 4.5-6.1l2.3 1.7c-1.5 2-3 4-4.5 6.1L43.4 103.8zM49.6 396.3l2.2-1.8c1.5 2 3.1 3.9 4.7 5.9l-2.2 1.8C52.7 400.3 51.1 398.3 49.6 396.3zM52.6 91.7c1.6-2 3.2-3.9 4.9-5.9l2.2 1.9c-1.6 1.9-3.3 3.8-4.9 5.8L52.6 91.7zM59.4 408l2.1-1.9c1.7 1.9 3.4 3.7 5.1 5.6l-2.1 2C62.8 411.8 61 409.9 59.4 408zM62.6 80.1c1.7-1.9 3.5-3.7 5.3-5.5l2 2c-1.8 1.8-3.5 3.6-5.2 5.5L62.6 80.1zM69.8 419.2l2-2c1.8 1.8 3.6 3.5 5.4 5.3l-2 2.1C73.5 422.7 71.6 421 69.8 419.2zM73.4 69.2c1.8-1.8 3.7-3.5 5.6-5.2l1.9 2.1c-1.9 1.7-3.7 3.4-5.5 5.1L73.4 69.2zM81 429.6l1.9-2.1c1.9 1.7 3.8 3.3 5.7 4.9l-1.8 2.2C84.8 433 82.9 431.3 81 429.6zM84.7 59c1.9-1.6 3.9-3.3 5.9-4.8l1.8 2.2c-2 1.6-3.9 3.2-5.9 4.8L84.7 59zM92.8 439.4l1.8-2.2c2 1.5 4 3.1 6 4.5l-1.7 2.3C96.8 442.4 94.8 440.9 92.8 439.4zM96.7 49.4c2-1.5 4.1-3 6.2-4.5l1.6 2.3c-2.1 1.4-4.1 2.9-6.1 4.4L96.7 49.4zM105.1 448.3l1.6-2.4c2.1 1.4 4.2 2.8 6.3 4.1l-1.5 2.4C109.3 451.2 107.2 449.8 105.1 448.3zM109.3 40.7c2.1-1.4 4.3-2.8 6.5-4.1l1.5 2.4c-2.2 1.3-4.3 2.7-6.4 4L109.3 40.7zM118 456.5l1.5-2.5c2.2 1.3 4.3 2.5 6.5 3.7l-1.4 2.5C122.4 459.1 120.2 457.8 118 456.5zM122.3 32.7c2.2-1.3 4.5-2.5 6.7-3.7l1.3 2.5c-2.2 1.2-4.4 2.4-6.6 3.6L122.3 32.7zM131.4 463.9l1.3-2.5c2.2 1.1 4.5 2.2 6.8 3.3l-1.2 2.6C135.9 466.2 133.6 465.1 131.4 463.9zM135.9 25.6c2.3-1.1 4.6-2.2 6.9-3.2L144 25c-2.3 1-4.6 2.1-6.9 3.2L135.9 25.6zM145.1 470.4l1.1-2.6c2.3 1 4.6 2 7 2.9l-1.1 2.6C149.8 472.4 147.5 471.4 145.1 470.4zM149.9 19.4c2.4-1 4.7-1.9 7.1-2.8l1 2.7c-2.4 0.9-4.7 1.8-7.1 2.8L149.9 19.4zM159.3 476.1l1-2.7c2.4 0.9 4.7 1.7 7.1 2.5l-0.9 2.7C164.1 477.8 161.7 476.9 159.3 476.1zM164.3 14c2.4-0.8 4.9-1.6 7.3-2.3l0.8 2.7c-2.4 0.7-4.8 1.5-7.2 2.3L164.3 14zM173.9 480.8l0.8-2.7c2.4 0.7 4.8 1.4 7.3 2l-0.7 2.8C178.8 482.2 176.3 481.5 173.9 480.8zM178.9 9.5c2.5-0.7 4.9-1.3 7.4-1.9l0.7 2.8c-2.5 0.6-4.9 1.2-7.3 1.8L178.9 9.5zM188.7 484.7l0.6-2.8c2.5 0.5 4.9 1.1 7.4 1.5l-0.5 2.8C193.6 485.7 191.1 485.2 188.7 484.7zM193.8 6c2.5-0.5 5-1 7.5-1.4l0.5 2.8c-2.5 0.4-5 0.9-7.4 1.4L193.8 6zM203.7 487.5l0.5-2.8c2.5 0.4 5 0.8 7.5 1.1l-0.4 2.8C208.7 488.3 206.2 488 203.7 487.5zM208.9 3.5c2.5-0.4 5-0.7 7.6-0.9l0.3 2.8c-2.5 0.3-5 0.6-7.5 0.9L208.9 3.5zM218.8 489.5l0.3-2.8c2.5 0.2 5 0.4 7.5 0.6l-0.2 2.8C223.9 489.9 221.4 489.7 218.8 489.5zM224.1 1.8c2.5-0.2 5.1-0.3 7.6-0.5l0.1 2.8c-2.5 0.1-5 0.3-7.5 0.4L224.1 1.8zM234.1 490.5l0.1-2.9c2.5 0.1 5 0.1 7.6 0.1l0 2.8C239.2 490.6 236.6 490.6 234.1 490.5zM239.3 1.2c1.1 0 2.2 0 3.4 0 1.4 0 2.9 0 4.3 0L246.9 4c-1.4 0-2.8 0-4.2 0 -1.1 0-2.2 0-3.3 0L239.3 1.2zM242.7 490.6v-2.9c2.5 0 5 0 7.6-0.1l0.1 2.9C247.8 490.6 245.3 490.6 242.7 490.6zM254.5 4.3l0.1-2.8c2.6 0.1 5.1 0.3 7.6 0.5L262 4.8C259.5 4.6 257 4.4 254.5 4.3zM257.8 487.3c2.5-0.2 5-0.3 7.5-0.6l0.3 2.8c-2.5 0.2-5.1 0.4-7.6 0.6L257.8 487.3zM269.6 5.5l0.3-2.8c2.5 0.3 5.1 0.6 7.6 1l-0.4 2.8C274.6 6.1 272.1 5.7 269.6 5.5zM272.9 485.9c2.5-0.3 5-0.7 7.5-1l0.4 2.8c-2.5 0.4-5 0.7-7.6 1.1L272.9 485.9zM284.5 7.6l0.5-2.8c2.5 0.4 5 0.9 7.5 1.4L292 9C289.5 8.5 287 8 284.5 7.6zM287.8 483.6c2.5-0.5 4.9-1 7.4-1.5l0.6 2.8c-2.5 0.5-5 1.1-7.5 1.5L287.8 483.6zM299.3 10.7l0.7-2.8c2.5 0.6 5 1.2 7.4 1.9l-0.7 2.8C304.2 11.9 301.8 11.2 299.3 10.7zM302.5 480.3c2.4-0.6 4.9-1.3 7.3-2l0.8 2.7c-2.4 0.7-4.9 1.4-7.4 2L302.5 480.3zM313.9 14.6l0.8-2.7c2.4 0.8 4.9 1.5 7.3 2.4l-0.9 2.7C318.7 16.2 316.3 15.4 313.9 14.6zM317.1 476.2c2.4-0.8 4.8-1.6 7.2-2.4l1 2.7c-2.4 0.9-4.8 1.7-7.3 2.5L317.1 476.2zM328.2 19.5l1-2.7c2.4 0.9 4.8 1.8 7.1 2.8l-1.1 2.6C332.9 21.4 330.6 20.4 328.2 19.5zM331.3 471c2.4-0.9 4.7-1.9 7-2.9l1.1 2.6c-2.3 1-4.7 2-7.1 2.9L331.3 471zM342.1 25.3l1.2-2.6c2.3 1 4.6 2.1 6.9 3.2l-1.3 2.6C346.7 27.4 344.4 26.3 342.1 25.3zM345.2 465c2.3-1.1 4.6-2.2 6.8-3.3l1.3 2.5c-2.3 1.2-4.6 2.3-6.9 3.4L345.2 465zM355.7 31.9l1.3-2.5c2.3 1.2 4.5 2.4 6.7 3.7l-1.4 2.5C360.1 34.3 357.9 33.1 355.7 31.9zM358.8 458.2c2.2-1.2 4.4-2.5 6.6-3.7l1.4 2.5c-2.2 1.3-4.4 2.6-6.7 3.8L358.8 458.2zM368.8 39.4l1.5-2.4c2.2 1.3 4.3 2.7 6.5 4.1l-1.6 2.4C373.1 42.1 370.9 40.7 368.8 39.4zM371.8 450.5c2.1-1.4 4.2-2.7 6.3-4.1l1.6 2.4c-2.1 1.4-4.2 2.8-6.4 4.2L371.8 450.5zM381.4 47.7l1.6-2.3c2.1 1.5 4.2 3 6.2 4.5l-1.7 2.3C385.5 50.6 383.5 49.1 381.4 47.7zM384.3 442c2-1.5 4.1-3 6.1-4.5l1.7 2.3c-2 1.6-4.1 3.1-6.1 4.6L384.3 442zM393.5 56.7l1.8-2.2c2 1.6 4 3.2 5.9 4.9l-1.9 2.2C397.4 59.9 395.5 58.3 393.5 56.7zM396.3 432.8c1.9-1.6 3.9-3.2 5.8-4.9l1.9 2.1c-1.9 1.7-3.9 3.3-5.8 5L396.3 432.8zM405 66.5l1.9-2.1c1.9 1.7 3.8 3.4 5.6 5.2l-2 2.1C408.7 69.9 406.9 68.2 405 66.5zM407.7 422.8c1.8-1.7 3.7-3.5 5.4-5.2l2 2c-1.8 1.8-3.6 3.6-5.5 5.3L407.7 422.8zM415.9 77l2-2c1.8 1.8 3.5 3.7 5.3 5.6l-2.1 1.9C419.4 80.6 417.6 78.8 415.9 77zM418.4 412.2c1.7-1.8 3.4-3.7 5.1-5.6l2.1 1.9c-1.7 1.9-3.4 3.8-5.2 5.6L418.4 412.2zM426.1 88.1l2.2-1.9c1.7 1.9 3.3 3.9 4.9 5.9l-2.2 1.8C429.4 92 427.7 90.1 426.1 88.1zM428.4 400.9c1.6-1.9 3.2-3.9 4.8-5.9l2.2 1.8c-1.6 2-3.2 4-4.8 5.9L428.4 400.9zM435.6 99.9l2.3-1.7c1.5 2 3 4.1 4.5 6.2l-2.3 1.6C438.6 103.9 437.1 101.9 435.6 99.9zM437.7 389c1.5-2 2.9-4.1 4.4-6.2l2.3 1.6c-1.4 2.1-2.9 4.2-4.4 6.2L437.7 389zM444.4 112.2l2.4-1.6c1.4 2.1 2.8 4.3 4.1 6.4l-2.4 1.5C447.1 116.5 445.8 114.3 444.4 112.2zM446.3 376.6c1.4-2.1 2.7-4.3 4-6.4l2.4 1.5c-1.3 2.2-2.7 4.3-4 6.5L446.3 376.6zM452.3 125.1l2.5-1.4c1.3 2.2 2.5 4.4 3.7 6.7l-2.5 1.3C454.8 129.5 453.6 127.3 452.3 125.1zM454.1 363.6c1.2-2.2 2.4-4.4 3.6-6.6l2.5 1.3c-1.2 2.3-2.4 4.5-3.6 6.7L454.1 363.6zM459.5 138.4l2.6-1.3c1.1 2.3 2.2 4.6 3.3 6.9l-2.6 1.2C461.7 143 460.6 140.7 459.5 138.4zM461 350.2c1.1-2.3 2.1-4.5 3.1-6.8l2.6 1.1c-1 2.3-2.1 4.6-3.2 6.9L461 350.2zM465.8 152.2l2.6-1.1c1 2.4 1.9 4.7 2.9 7.1l-2.7 1C467.7 156.9 466.8 154.5 465.8 152.2zM467.1 336.5c0.9-2.3 1.8-4.7 2.7-7.1l2.7 1c-0.9 2.4-1.8 4.8-2.8 7.1L467.1 336.5zM471.2 166.4l2.7-0.9c0.8 2.4 1.6 4.8 2.4 7.3l-2.7 0.9C472.8 171.2 472.1 168.8 471.2 166.4zM472.3 322.3c0.8-2.4 1.5-4.8 2.3-7.2l2.7 0.8c-0.7 2.4-1.5 4.9-2.3 7.3L472.3 322.3zM475.7 180.8l2.7-0.8c0.7 2.4 1.3 4.9 1.9 7.4l-2.8 0.7C477.1 185.7 476.4 183.2 475.7 180.8zM476.6 307.8c0.6-2.4 1.2-4.9 1.8-7.3l2.8 0.6c-0.6 2.5-1.2 5-1.8 7.4L476.6 307.8zM479.3 195.5l2.8-0.6c0.5 2.5 1 5 1.5 7.5l-2.8 0.5C480.3 200.4 479.9 197.9 479.3 195.5zM480 293.1c0.5-2.5 0.9-4.9 1.4-7.4l2.8 0.5c-0.4 2.5-0.9 5-1.4 7.5L480 293.1zM482 210.4l2.8-0.4c0.4 2.5 0.7 5 1 7.6l-2.8 0.3C482.7 215.3 482.4 212.9 482 210.4zM482.5 278.2c0.3-2.5 0.6-5 0.9-7.5l2.8 0.3c-0.3 2.5-0.6 5.1-0.9 7.6L482.5 278.2zM483.7 225.4l2.8-0.2c0.2 2.5 0.4 5.1 0.5 7.6l-2.8 0.2C484.1 230.4 484 227.9 483.7 225.4zM484 263.1c0.2-2.5 0.3-5 0.4-7.5l2.9 0.1c-0.1 2.6-0.2 5.1-0.4 7.6L484 263.1zM484.5 240.5l2.9-0.1c0 1.8 0.1 3.7 0.1 5.5l0 2.2 -2.9 0 0-2.1C484.6 244.1 484.6 242.3 484.5 240.5z"/>
                <path class="st8" d="M-68.4 250.4c0-1.9 0.1-3.8 0.3-5.7l2.1 0.1c-0.1 1.9-0.2 3.7-0.3 5.6L-68.4 250.4zM-68.4 256.1l2.1-0.1c0 1.9 0.1 3.7 0.3 5.6l-2.1 0.2C-68.3 259.9-68.4 258-68.4 256.1zM-67.6 239.1c0.2-1.9 0.5-3.8 0.8-5.6l2.1 0.4c-0.3 1.8-0.6 3.7-0.8 5.5L-67.6 239.1zM-67.6 267.5l2.1-0.3c0.2 1.9 0.5 3.7 0.8 5.5l-2.1 0.4C-67 271.2-67.3 269.4-67.6 267.5zM-65.7 227.9c0.4-1.9 0.9-3.7 1.4-5.5l2 0.6c-0.5 1.8-0.9 3.6-1.4 5.4L-65.7 227.9zM-65.6 278.7l2.1-0.5c0.4 1.8 0.9 3.6 1.4 5.4l-2 0.6C-64.7 282.4-65.2 280.5-65.6 278.7zM-62.7 216.9c0.6-1.8 1.2-3.6 1.9-5.4l2 0.8c-0.7 1.7-1.3 3.5-1.9 5.3L-62.7 216.9zM-62.5 289.7l2-0.7c0.6 1.8 1.2 3.5 1.9 5.3l-2 0.8C-61.3 293.3-61.9 291.5-62.5 289.7zM-58.6 206.3c0.8-1.7 1.6-3.4 2.4-5.1l1.9 1c-0.8 1.7-1.6 3.3-2.4 5L-58.6 206.3zM-58.4 300.3l1.9-0.9c0.8 1.7 1.6 3.4 2.4 5l-1.9 1C-56.8 303.7-57.6 302-58.4 300.3zM-53.5 196.1c0.9-1.7 1.9-3.3 2.9-4.9l1.8 1.1c-1 1.6-2 3.2-2.9 4.8L-53.5 196.1zM-53.2 310.4l1.8-1.1c0.9 1.6 1.9 3.2 2.9 4.8l-1.8 1.1C-51.3 313.7-52.2 312.1-53.2 310.4zM-47.4 186.5c1.1-1.5 2.2-3.1 3.4-4.6l1.7 1.3c-1.1 1.5-2.3 3-3.3 4.5L-47.4 186.5zM-47 320l1.7-1.2c1.1 1.5 2.2 3 3.4 4.5l-1.7 1.3C-44.8 323.1-45.9 321.6-47 320zM-40.3 177.6c1.2-1.4 2.5-2.8 3.8-4.2l1.5 1.5c-1.3 1.3-2.5 2.7-3.8 4.1L-40.3 177.6zM-40 329l1.6-1.4c1.2 1.4 2.5 2.8 3.8 4.1l-1.5 1.5C-37.4 331.8-38.7 330.4-40 329zM-32.5 169.4c1.4-1.3 2.8-2.6 4.2-3.8l1.4 1.6c-1.4 1.2-2.8 2.5-4.2 3.7L-32.5 169.4zM-32.1 337.1l1.4-1.5c1.4 1.3 2.7 2.5 4.2 3.7l-1.4 1.6C-29.3 339.7-30.7 338.4-32.1 337.1zM-23.8 161.9c1.5-1.2 3-2.3 4.6-3.4l1.2 1.7c-1.5 1.1-3 2.2-4.5 3.3L-23.8 161.9zM-23.4 344.5l1.3-1.7c1.5 1.1 3 2.2 4.5 3.3l-1.2 1.7C-20.4 346.8-21.9 345.7-23.4 344.5zM-14.5 155.4c1.6-1 3.2-2 4.9-2.9l1 1.8c-1.6 0.9-3.2 1.9-4.8 2.9L-14.5 155.4zM-14 351l1.1-1.8c1.6 1 3.2 1.9 4.8 2.8l-1 1.8C-10.8 353-12.4 352-14 351zM-4.6 149.8c1.7-0.8 3.4-1.7 5.2-2.4l0.8 1.9c-1.7 0.7-3.4 1.5-5.1 2.4L-4.6 149.8zM-4.1 356.5l0.9-1.9c1.7 0.8 3.4 1.6 5.1 2.3L1 358.9C-0.7 358.2-2.4 357.4-4.1 356.5zM5.9 145.2c1.8-0.7 3.6-1.3 5.4-1.9l0.6 2c-1.8 0.6-3.5 1.2-5.3 1.9L5.9 145.2zM6.3 361l0.7-2c1.7 0.7 3.5 1.3 5.3 1.8l-0.6 2C9.9 362.3 8.1 361.7 6.3 361zM16.7 141.7c1.8-0.5 3.7-0.9 5.5-1.3l0.5 2.1c-1.8 0.4-3.6 0.8-5.4 1.3L16.7 141.7zM17.1 364.5l0.5-2c1.8 0.5 3.6 0.9 5.4 1.3l-0.4 2.1C20.8 365.4 19 365 17.1 364.5zM27.8 139.3c1.9-0.3 3.7-0.6 5.6-0.8l0.2 2.1c-1.9 0.2-3.7 0.5-5.5 0.8L27.8 139.3zM28.3 366.9l0.3-2.1c1.8 0.3 3.7 0.5 5.5 0.8l-0.2 2.1C32 367.5 30.1 367.2 28.3 366.9zM39.1 138c1.9-0.1 3.8-0.2 5.7-0.2l0 2.1c-1.9 0-3.7 0.1-5.6 0.2L39.1 138zM39.6 368.2l0.1-2.1c1.9 0.1 3.7 0.2 5.6 0.2l0 2.1C43.4 368.4 41.5 368.3 39.6 368.2zM46.9 368.4v-2.1c1.9 0 3.7 0 5.6-0.1l0.1 2.1C50.7 368.3 48.8 368.4 46.9 368.4zM50.4 139.9l0.1-2.1c1.9 0.1 3.8 0.2 5.7 0.3l-0.2 2.1C54.2 140.1 52.3 139.9 50.4 139.9zM58 365.7c1.9-0.2 3.7-0.4 5.6-0.7l0.3 2.1c-1.9 0.3-3.8 0.5-5.6 0.7L58 365.7zM61.6 140.8l0.3-2.1c1.9 0.2 3.8 0.5 5.6 0.9l-0.4 2.1C65.3 141.3 63.4 141 61.6 140.8zM69.1 364.1c1.8-0.4 3.7-0.8 5.5-1.2l0.5 2.1c-1.8 0.5-3.7 0.9-5.6 1.2L69.1 364.1zM72.6 142.8l0.5-2.1c1.9 0.4 3.7 0.9 5.5 1.4l-0.6 2C76.2 143.7 74.4 143.2 72.6 142.8zM79.9 361.4c1.8-0.5 3.6-1.1 5.3-1.8l0.7 2c-1.8 0.6-3.6 1.2-5.4 1.8L79.9 361.4zM83.3 145.8l0.7-2c1.8 0.6 3.6 1.3 5.3 2l-0.8 2C86.8 147.1 85.1 146.4 83.3 145.8zM90.5 357.6c1.7-0.7 3.4-1.5 5.1-2.3l0.9 1.9c-1.7 0.8-3.5 1.6-5.2 2.3L90.5 357.6zM93.7 149.9l0.9-1.9c1.7 0.8 3.4 1.6 5.1 2.5l-1 1.9C97.1 151.5 95.4 150.7 93.7 149.9zM100.6 352.8c1.6-0.9 3.3-1.8 4.9-2.8l1.1 1.8c-1.6 1-3.3 1.9-5 2.8L100.6 352.8zM103.6 155.1l1.1-1.8c1.6 1 3.3 1.9 4.8 3l-1.2 1.8C106.8 157 105.2 156 103.6 155.1zM110.1 347c1.5-1 3.1-2.1 4.6-3.2l1.3 1.7c-1.5 1.1-3.1 2.2-4.6 3.3L110.1 347zM113 161.1l1.2-1.7c1.5 1.1 3.1 2.3 4.5 3.4l-1.3 1.7C116 163.3 114.5 162.2 113 161.1zM119.1 340.3c1.4-1.2 2.8-2.4 4.2-3.7l1.4 1.6c-1.4 1.3-2.8 2.5-4.3 3.7L119.1 340.3zM121.7 168.1l1.4-1.6c1.4 1.3 2.8 2.5 4.2 3.9l-1.5 1.5C124.5 170.6 123.1 169.3 121.7 168.1zM127.3 332.7c1.3-1.3 2.6-2.7 3.8-4.1l1.6 1.4c-1.3 1.4-2.6 2.8-3.9 4.1L127.3 332.7zM129.7 175.9l1.5-1.4c1.3 1.4 2.6 2.8 3.8 4.3l-1.6 1.4C132.2 178.6 131 177.3 129.7 175.9zM134.8 324.4c1.2-1.4 2.3-2.9 3.4-4.4l1.7 1.3c-1.1 1.5-2.3 3-3.5 4.5L134.8 324.4zM136.9 184.4l1.7-1.3c1.2 1.5 2.3 3 3.3 4.6l-1.7 1.2C139.2 187.4 138.1 185.9 136.9 184.4zM141.4 315.4c1-1.6 2-3.1 3-4.7l1.8 1.1c-1 1.6-2 3.2-3 4.8L141.4 315.4zM143.3 193.6l1.8-1.1c1 1.6 2 3.3 2.9 4.9l-1.9 1C145.2 196.8 144.2 195.2 143.3 193.6zM147.1 305.8c0.9-1.6 1.7-3.3 2.5-5l1.9 0.9c-0.8 1.7-1.6 3.4-2.5 5.1L147.1 305.8zM148.7 203.4l1.9-0.9c0.8 1.7 1.6 3.4 2.4 5.2l-1.9 0.8C150.3 206.8 149.5 205.1 148.7 203.4zM151.8 295.7c0.7-1.7 1.4-3.5 2-5.2l2 0.7c-0.6 1.8-1.3 3.6-2 5.3L151.8 295.7zM153.1 213.7l2-0.7c0.7 1.8 1.3 3.6 1.8 5.4l-2 0.6C154.3 217.2 153.7 215.5 153.1 213.7zM155.5 285.1c0.5-1.8 1-3.6 1.4-5.4l2.1 0.5c-0.4 1.9-0.9 3.7-1.5 5.5L155.5 285.1zM156.4 224.4l2-0.5c0.5 1.8 0.9 3.7 1.3 5.5l-2.1 0.4C157.3 228 156.9 226.2 156.4 224.4zM158.1 274.3c0.3-1.8 0.7-3.7 0.9-5.5l2.1 0.3c-0.3 1.9-0.6 3.8-0.9 5.6L158.1 274.3zM158.7 235.3l2.1-0.3c0.3 1.9 0.5 3.7 0.7 5.6l-2.1 0.2C159.2 239 159 237.2 158.7 235.3zM159.6 263.2c0.2-1.8 0.3-3.7 0.4-5.6l2.1 0.1c-0.1 1.9-0.2 3.8-0.4 5.7L159.6 263.2zM159.9 246.5l2.1-0.1c0.1 1.9 0.2 3.8 0.2 5.7l-2.1 0C160.1 250.2 160 248.3 159.9 246.5z"/>
                <path class="st8" d="M31.7 100.7c0-1.6 0-3.1 0.1-4.7l2.1 0.1c-0.1 1.5-0.1 3-0.1 4.6l0 1 -2.1 0L31.7 100.7zM32 107.4l2.1-0.2c0.2 1.9 0.4 3.7 0.7 5.5l-2.1 0.3C32.4 111.2 32.2 109.3 32 107.4zM32.4 90.3c0.3-1.9 0.6-3.8 1-5.6l2.1 0.4c-0.4 1.8-0.7 3.6-0.9 5.5L32.4 90.3zM33.8 118.7l2.1-0.5c0.4 1.8 0.9 3.6 1.5 5.4l-2 0.6C34.7 122.4 34.2 120.5 33.8 118.7zM34.7 79.1c0.5-1.8 1.1-3.7 1.8-5.4l2 0.7c-0.6 1.7-1.2 3.5-1.7 5.3L34.7 79.1zM37.2 129.6l2-0.8c0.7 1.7 1.4 3.4 2.2 5.1l-1.9 0.9C38.7 133.1 37.9 131.4 37.2 129.6zM38.6 68.4c0.8-1.7 1.6-3.5 2.5-5.1l1.9 1c-0.9 1.6-1.7 3.3-2.5 5L38.6 68.4zM42.2 139.9l1.8-1.1c0.9 1.6 1.9 3.2 3 4.7l-1.8 1.2C44.1 143.2 43.1 141.5 42.2 139.9zM44.1 58.3c1-1.6 2.1-3.2 3.3-4.7l1.7 1.3c-1.1 1.5-2.2 3-3.2 4.6L44.1 58.3zM48.6 149.4l1.7-1.3c1.1 1.4 2.4 2.9 3.6 4.2l-1.6 1.4C51 152.3 49.8 150.9 48.6 149.4zM50.9 49.2c1.2-1.4 2.5-2.8 3.9-4.2l1.5 1.5c-1.3 1.3-2.6 2.7-3.8 4.1L50.9 49.2zM56.3 157.8l1.5-1.5c1.4 1.3 2.8 2.5 4.2 3.7l-1.3 1.6C59.1 160.4 57.7 159.1 56.3 157.8zM59 41.1c1.4-1.2 2.9-2.4 4.5-3.6l1.3 1.7c-1.5 1.1-2.9 2.3-4.3 3.5L59 41.1zM65.1 165l1.2-1.7c1.5 1.1 3.1 2.1 4.7 3l-1.1 1.8C68.3 167.2 66.7 166.1 65.1 165zM68.2 34.3c1.6-1 3.3-2 4.9-2.9l1 1.9c-1.6 0.9-3.2 1.8-4.8 2.8L68.2 34.3zM74.9 170.9l1-1.9c1.7 0.8 3.4 1.6 5.1 2.3l-0.8 2C78.4 172.6 76.6 171.8 74.9 170.9zM78.2 28.9c1.7-0.8 3.5-1.5 5.3-2.1l0.7 2c-1.7 0.6-3.5 1.3-5.2 2.1L78.2 28.9zM85.5 175.3l0.7-2c1.8 0.6 3.6 1.1 5.3 1.6l-0.5 2C89.1 176.5 87.3 175.9 85.5 175.3zM89 25c1.8-0.5 3.7-1 5.6-1.3l0.4 2.1c-1.8 0.4-3.6 0.8-5.4 1.3L89 25zM96.5 178.1l0.4-2.1c1.8 0.3 3.7 0.6 5.5 0.8l-0.2 2.1C100.3 178.7 98.4 178.5 96.5 178.1zM100.2 22.7c1.9-0.2 3.8-0.4 5.7-0.5l0.1 2.1c-1.8 0.1-3.7 0.3-5.5 0.5L100.2 22.7zM107.9 179.3l0.1-2.1c0.8 0 1.6 0 2.4 0 1.9 0 3.7-0.1 5.6-0.2l0.2 2.1c-1.9 0.1-3.8 0.2-5.7 0.2C109.5 179.3 108.7 179.3 107.9 179.3zM111.6 24.2l0-2.1c1.9 0 3.8 0.1 5.7 0.3l-0.2 2.1C115.3 24.3 113.4 24.2 111.6 24.2zM121.5 176.4c1.8-0.3 3.7-0.6 5.5-1l0.5 2.1c-1.9 0.4-3.7 0.8-5.6 1L121.5 176.4zM122.6 25.1L123 23c1.9 0.3 3.8 0.7 5.6 1.1l-0.5 2.1C126.3 25.8 124.5 25.4 122.6 25.1zM132.3 174c1.8-0.5 3.5-1.1 5.3-1.8l0.8 2c-1.8 0.7-3.6 1.3-5.4 1.8L132.3 174zM133.5 27.7l0.6-2c1.8 0.6 3.6 1.2 5.4 1.9l-0.8 2C137 28.9 135.2 28.3 133.5 27.7zM142.7 170.1c1.7-0.8 3.3-1.6 5-2.5l1 1.8c-1.7 0.9-3.4 1.8-5.1 2.6L142.7 170.1zM143.8 31.8l0.9-1.9c1.7 0.8 3.4 1.7 5 2.7l-1.1 1.8C147.1 33.5 145.4 32.6 143.8 31.8zM152.4 164.6c1.5-1 3.1-2.1 4.5-3.2l1.3 1.7c-1.5 1.2-3.1 2.3-4.7 3.3L152.4 164.6zM153.4 37.4l1.2-1.8c1.6 1.1 3.1 2.2 4.6 3.4l-1.3 1.7C156.4 39.5 154.9 38.4 153.4 37.4zM161.2 157.9c1.4-1.2 2.7-2.5 4-3.8l1.5 1.5c-1.3 1.4-2.7 2.7-4.1 4L161.2 157.9zM162.1 44.3l1.4-1.6c1.4 1.3 2.8 2.6 4.1 4l-1.5 1.5C164.8 46.9 163.5 45.5 162.1 44.3zM169 149.9c1.2-1.4 2.3-2.9 3.4-4.4l1.7 1.2c-1.1 1.5-2.3 3-3.5 4.5L169 149.9zM169.7 52.4l1.6-1.3c1.2 1.5 2.4 3 3.4 4.6l-1.7 1.2C172 55.3 170.9 53.8 169.7 52.4zM175.5 140.9c1-1.6 1.9-3.2 2.8-4.8l1.9 1c-0.9 1.7-1.8 3.3-2.8 5L175.5 140.9zM176.1 61.5l1.8-1.1c1 1.6 1.9 3.3 2.8 5l-1.9 0.9C178 64.7 177.1 63.1 176.1 61.5zM180.6 131c0.7-1.7 1.4-3.4 2-5.2l2 0.7c-0.6 1.8-1.3 3.6-2.1 5.3L180.6 131zM181.1 71.4l2-0.8c0.7 1.8 1.4 3.6 2 5.4l-2 0.7C182.5 74.9 181.8 73.2 181.1 71.4zM184.3 120.5c0.5-1.8 0.9-3.6 1.2-5.4l2.1 0.4c-0.4 1.9-0.8 3.7-1.3 5.6L184.3 120.5zM184.6 82l2.1-0.5c0.5 1.8 0.9 3.7 1.2 5.6l-2.1 0.4C185.4 85.6 185 83.8 184.6 82zM186.4 109.6c0.2-1.8 0.4-3.7 0.4-5.5l2.1 0.1c-0.1 1.9-0.2 3.8-0.5 5.7L186.4 109.6zM186.5 93l2.1-0.2c0.2 1.9 0.3 3.8 0.4 5.7l-2.1 0.1C186.8 96.7 186.7 94.8 186.5 93z"/>
            </g>
            <path class="st9" d="M428.4 408.5c0.8 1.7 0.1 3.8-1.6 4.6l-186 90.6c-1.7 0.8-3.8 0.1-4.6-1.6l-0.2-0.4c-0.8-1.7-0.1-3.8 1.6-4.6l186-90.6c1.7-0.8 3.8-0.1 4.6 1.6L428.4 408.5z"/>
            <path class="st10" d="M464.8 486.2l-37.4-76.7c-1.3-2.6-4.3-3.6-6.9-2.4L239.9 495c-2.6 1.3-3.6 4.3-2.4 6.9l37.4 76.7L464.8 486.2z"/>
            <rect x="419" y="484.3" transform="matrix(0.899 -0.438 0.438 0.899 -171.4828 235.1698)" class="st11" width="10.1" height="10.1"/>
            <rect x="430.4" y="478.8" transform="matrix(0.8991 -0.4378 0.4378 0.8991 -167.8745 239.4824)" class="st11" width="10.1" height="10.1"/>
            <rect x="441.6" y="472.8" transform="matrix(0.899 -0.4379 0.4379 0.899 -164.025 244.2962)" class="st11" width="12.2" height="10.1"/>
            <rect x="279.4" y="484.4" transform="matrix(0.8991 -0.4377 0.4377 0.8991 -184.7402 173.6853)" class="st11" width="10.1" height="6.6"/>
            <rect x="291.7" y="478.4" transform="matrix(0.899 -0.438 0.438 0.899 -180.9866 178.6336)" class="st11" width="10.1" height="6.6"/>
            <rect x="302.9" y="472.9" transform="matrix(0.8991 -0.4377 0.4377 0.8991 -177.3872 182.8232)" class="st11" width="10.1" height="6.6"/>
            <rect x="314" y="467.5" transform="matrix(0.8991 -0.4378 0.4378 0.8991 -173.9176 187.2226)" class="st11" width="10.1" height="6.6"/>
            <polygon class="st11" points="336.2 466.1 327.1 470.5 324.3 464.6 333.3 460.2 "/>
            <rect x="337.1" y="456.3" transform="matrix(0.899 -0.4379 0.4379 0.899 -166.6815 196.2218)" class="st11" width="10.1" height="6.6"/>
            <rect x="348.3" y="450.8" transform="matrix(0.8991 -0.4377 0.4377 0.8991 -163.1179 200.4467)" class="st11" width="10.1" height="6.6"/>
            <rect x="359.4" y="445.4" transform="matrix(0.8991 -0.4378 0.4378 0.8991 -159.6339 204.8267)" class="st11" width="10.1" height="6.6"/>
            <rect x="370.6" y="439.9" transform="matrix(0.899 -0.4379 0.4379 0.899 -156.166 209.2555)" class="st11" width="10.1" height="6.6"/>
            <rect x="382.7" y="434.3" transform="matrix(0.899 -0.4379 0.4379 0.899 -152.4525 213.9735)" class="st11" width="10.1" height="6.6"/>
            <rect x="393.8" y="428.8" transform="matrix(0.8991 -0.4377 0.4377 0.8991 -148.9011 218.2021)" class="st11" width="10.1" height="6.6"/>
            <rect x="405" y="423.4" transform="matrix(0.899 -0.4379 0.4379 0.899 -145.4382 222.6514)" class="st11" width="10.1" height="6.6"/>
            <rect x="416.2" y="417.9" transform="matrix(0.8991 -0.4377 0.4377 0.8991 -141.8918 226.8803)" class="st11" width="10.1" height="6.6"/>
            <rect x="391.2" y="483.1" transform="matrix(0.8991 -0.4378 0.4378 0.8991 -173.699 222.7542)" class="st11" width="10.1" height="10.1"/>
            <rect x="402.2" y="477.7" transform="matrix(0.899 -0.4379 0.4379 0.899 -170.2944 227.1174)" class="st11" width="10.1" height="10.1"/>
            <rect x="411.8" y="466.4" transform="matrix(0.8991 -0.4377 0.4377 0.8991 -162.926 236.023)" class="st11" width="37.5" height="10.1"/>
            <rect x="358.2" y="484.4" transform="matrix(0.8992 -0.4376 0.4376 0.8992 -177.5761 208.3319)" class="st11" width="10.1" height="10.1"/>
            <rect x="369.2" y="479.1" transform="matrix(0.8991 -0.4377 0.4377 0.8991 -174.1649 212.6631)" class="st11" width="10.1" height="10.1"/>
            <rect x="380.1" y="473.7" transform="matrix(0.899 -0.438 0.438 0.899 -170.799 217.0989)" class="st11" width="10.1" height="10.1"/>
            <rect x="391.1" y="468.4" transform="matrix(0.899 -0.438 0.438 0.899 -167.3384 221.343)" class="st11" width="10.1" height="10.1"/>
            <rect x="402.1" y="463" transform="matrix(0.8991 -0.4378 0.4378 0.8991 -163.829 225.4643)" class="st11" width="10.1" height="10.1"/>
            <rect x="412" y="453.1" transform="matrix(0.899 -0.4379 0.4379 0.899 -157.4378 233.4754)" class="st11" width="31.1" height="10.1"/>
            <rect x="329.6" y="483.6" transform="matrix(0.8991 -0.4378 0.4378 0.8991 -180.1423 195.7953)" class="st11" width="10.1" height="10.1"/>
            <rect x="340.9" y="478.1" transform="matrix(0.899 -0.438 0.438 0.899 -176.6517 200.3434)" class="st11" width="10.1" height="10.1"/>
            <rect x="352.3" y="472.5" transform="matrix(0.8991 -0.4378 0.4378 0.8991 -173.0118 204.6164)" class="st11" width="10.1" height="10.1"/>
            <rect x="363.6" y="467" transform="matrix(0.8989 -0.4381 0.4381 0.8989 -169.5365 209.2137)" class="st11" width="10.1" height="10.1"/>
            <rect x="375" y="461.5" transform="matrix(0.899 -0.4379 0.4379 0.899 -165.9235 213.531)" class="st11" width="10.1" height="10.1"/>
            <rect x="386.3" y="456" transform="matrix(0.8991 -0.4377 0.4377 0.8991 -162.2961 217.804)" class="st11" width="10.1" height="10.1"/>
            <rect x="397.7" y="450.4" transform="matrix(0.8991 -0.4378 0.4378 0.8991 -158.7729 222.3151)" class="st11" width="10.1" height="10.1"/>
            <rect x="409" y="444.9" transform="matrix(0.8991 -0.4378 0.4378 0.8991 -155.197 226.7009)" class="st11" width="10.1" height="10.1"/>
            <rect x="420.1" y="438" transform="matrix(0.899 -0.4379 0.4379 0.899 -150.7429 232.3024)" class="st11" width="16.6" height="10.1"/>
            <rect x="397.5" y="433.8" transform="matrix(0.8991 -0.4378 0.4378 0.8991 -150.9013 223.2492)" class="st11" width="22.5" height="10.1"/>
            <rect x="295.9" y="486.3" transform="matrix(0.8991 -0.4378 0.4378 0.8991 -184.7411 181.3828)" class="st11" width="10.1" height="10.1"/>
            <rect x="307.3" y="480.8" transform="matrix(0.8991 -0.4378 0.4378 0.8991 -181.1488 185.7521)" class="st11" width="10.1" height="10.1"/>
            <rect x="318.7" y="475.2" transform="matrix(0.8991 -0.4377 0.4377 0.8991 -177.5587 190.1223)" class="st11" width="10.1" height="10.1"/>
            <rect x="330" y="469.7" transform="matrix(0.8991 -0.4378 0.4378 0.8991 -174.0299 194.597)" class="st11" width="10.1" height="10.1"/>
            <rect x="341.4" y="464.2" transform="matrix(0.8989 -0.4381 0.4381 0.8989 -170.5578 199.1886)" class="st11" width="10.1" height="10.1"/>
            <rect x="352.7" y="458.7" transform="matrix(0.899 -0.438 0.438 0.899 -166.953 203.5312)" class="st11" width="10.1" height="10.1"/>
            <rect x="364.1" y="453.1" transform="matrix(0.899 -0.4379 0.4379 0.899 -163.3571 207.8819)" class="st11" width="10.1" height="10.1"/>
            <rect x="375.4" y="447.6" transform="matrix(0.8991 -0.4378 0.4378 0.8991 -159.7663 212.2437)" class="st11" width="10.1" height="10.1"/>
            <rect x="386.8" y="442.1" transform="matrix(0.8991 -0.4378 0.4378 0.8991 -156.2108 216.6788)" class="st11" width="10.1" height="10.1"/>
            <rect x="420.8" y="425.5" transform="matrix(0.899 -0.4379 0.4379 0.899 -145.5387 229.9917)" class="st11" width="10.1" height="10.1"/>
            <path class="st12" d="M-24.7 483.7c9.1 40.8 46.9 70.2 90 67.4 43-2.7 76.8-36.6 80.7-78.3l11.4-0.7 -1.7-27.1 -10.4 0.7 -172.8 10.9 -10.3 0.7 1.7 27.2L-24.7 483.7zM118.4 474.6c-4.5 26.6-26.8 47.6-54.8 49.4 -28 1.8-52.8-16.3-60.6-42L118.4 474.6z"/>
            <rect x="151.9" y="446.2" transform="matrix(-0.998 6.322946e-02 -6.322946e-02 -0.998 332.1924 885.2236)" class="st13" width="0.3" height="3.4"/>
            <rect x="150.7" y="446.2" transform="matrix(-0.9981 6.199236e-02 -6.199236e-02 -0.9981 329.1707 885.6837)" class="st13" width="0.3" height="3.4"/>
            <rect x="149.5" y="446.3" transform="matrix(-0.9976 6.911453e-02 -6.911453e-02 -0.9976 329.8087 884.6448)" class="st13" width="0.3" height="3.4"/>
            <rect x="148.2" y="446.4" transform="matrix(-0.9976 6.979262e-02 -6.979262e-02 -0.9976 327.6251 884.7642)" class="st13" width="0.3" height="3.4"/>
            <rect x="146.1" y="446.5" transform="matrix(-0.998 6.252895e-02 -6.252895e-02 -0.998 320.2408 886.4565)" class="st13" width="0.3" height="3.4"/>
            <rect x="144.9" y="446.6" transform="matrix(-0.9976 6.855201e-02 -6.855201e-02 -0.9976 320.3998 885.6408)" class="st13" width="0.3" height="3.4"/>
            <rect x="143.6" y="446.7" transform="matrix(-0.9973 7.307534e-02 -7.307534e-02 -0.9973 319.8972 885.092)" class="st13" width="0.3" height="3.4"/>
            <rect x="142.4" y="446.8" transform="matrix(-0.9976 6.888286e-02 -6.888286e-02 -0.9976 315.5831 886.0692)" class="st13" width="0.3" height="3.4"/>
            <rect x="140.2" y="446.9" transform="matrix(-0.9982 5.987866e-02 -5.987866e-02 -0.9982 307.2795 888.0166)" class="st13" width="0.3" height="3.4"/>
            <rect x="138.9" y="447" transform="matrix(-0.9976 6.923084e-02 -6.923084e-02 -0.9976 308.9132 886.6788)" class="st13" width="0.3" height="3.4"/>
            <rect x="137.7" y="447.1" transform="matrix(-0.998 6.356972e-02 -6.356972e-02 -0.998 303.9384 887.8696)" class="st13" width="0.3" height="3.4"/>
            <rect x="136.5" y="447.1" transform="matrix(-0.9983 5.903139e-02 -5.903139e-02 -0.9983 299.4592 888.8528)" class="st13" width="0.3" height="3.4"/>
            <rect x="134.3" y="447.3" transform="matrix(-0.9976 6.911453e-02 -6.911453e-02 -0.9976 299.5453 887.6147)" class="st13" width="0.3" height="3.4"/>
            <rect x="133" y="447.4" transform="matrix(-0.9986 5.325768e-02 -5.325768e-02 -0.9986 290.0734 890.401)" class="st13" width="0.3" height="3.4"/>
            <rect x="131.8" y="447.4" transform="matrix(-0.9976 6.870971e-02 -6.870971e-02 -0.9976 294.4083 888.1667)" class="st13" width="0.3" height="3.4"/>
            <rect x="130.5" y="447.5" transform="matrix(-0.998 6.296035e-02 -6.296035e-02 -0.998 289.3921 889.3272)" class="st13" width="0.3" height="3.4"/>
            <rect x="128.2" y="447.7" transform="matrix(-0.9976 6.884861e-02 -6.884861e-02 -0.9976 287.3489 888.8425)" class="st13" width="0.3" height="3.4"/>
            <rect x="127" y="447.7" transform="matrix(-0.9982 5.985843e-02 -5.985843e-02 -0.9982 280.9016 890.4857)" class="st13" width="0.3" height="3.4"/>
            <rect x="125.7" y="447.8" transform="matrix(-0.9981 6.202544e-02 -6.202544e-02 -0.9981 279.3767 890.386)" class="st13" width="0.3" height="3.4"/>
            <rect x="124.5" y="447.9" transform="matrix(-0.9976 6.967703e-02 -6.967703e-02 -0.9976 280.2701 889.4398)" class="st13" width="0.3" height="3.4"/>
            <rect x="122.3" y="448" transform="matrix(-0.9986 5.307674e-02 -5.307674e-02 -0.9986 268.5828 892.3595)" class="st13" width="0.3" height="3.4"/>
            <rect x="121" y="448.1" transform="matrix(-0.9976 6.967703e-02 -6.967703e-02 -0.9976 273.4419 890.1125)" class="st13" width="0.3" height="3.4"/>
            <rect x="119.8" y="448.2" transform="matrix(-0.9983 5.878077e-02 -5.878077e-02 -0.9983 266.1425 891.976)" class="st13" width="0.3" height="3.4"/>
            <rect x="118.6" y="448.3" transform="matrix(-0.9975 7.048947e-02 -7.048947e-02 -0.9975 268.8377 890.4779)" class="st13" width="0.3" height="3.4"/>
            <rect x="116.5" y="448.4" transform="matrix(-0.9981 6.239927e-02 -6.239927e-02 -0.9981 261.2089 892.065)" class="st13" width="0.3" height="3.4"/>
            <rect x="115.3" y="448.5" transform="matrix(-0.998 6.346146e-02 -6.346146e-02 -0.998 259.1987 892.1432)" class="st13" width="0.3" height="3.4"/>
            <rect x="114" y="448.6" transform="matrix(-0.9981 6.201592e-02 -6.201592e-02 -0.9981 256.0796 892.5908)" class="st13" width="0.3" height="3.4"/>
            <rect x="112.8" y="448.6" transform="matrix(-0.998 6.252467e-02 -6.252467e-02 -0.998 253.8196 892.7507)" class="st13" width="0.3" height="3.4"/>
            <rect x="110.5" y="448.8" transform="matrix(-0.9983 5.903853e-02 -5.903853e-02 -0.9983 247.7763 893.658)" class="st13" width="0.3" height="3.4"/>
            <rect x="109.3" y="448.9" transform="matrix(-0.998 6.303221e-02 -6.303221e-02 -0.998 247.0683 893.3405)" class="st13" width="0.3" height="3.4"/>
            <rect x="108.1" y="448.9" transform="matrix(-0.998 6.312168e-02 -6.312168e-02 -0.998 244.6238 893.5657)" class="st13" width="0.3" height="3.4"/>
            <rect x="106.8" y="449" transform="matrix(-0.9975 7.088900e-02 -7.088900e-02 -0.9975 245.5877 892.7374)" class="st13" width="0.3" height="3.4"/>
            <rect x="104.7" y="449.2" transform="matrix(-0.998 6.305362e-02 -6.305362e-02 -0.998 237.9107 894.2108)" class="st13" width="0.3" height="3.4"/>
            <rect x="103.5" y="449.2" transform="matrix(-0.9976 6.888286e-02 -6.888286e-02 -0.9976 238.019 893.6714)" class="st13" width="0.3" height="3.4"/>
            <rect x="102.2" y="449.3" transform="matrix(-0.9982 6.019947e-02 -6.019947e-02 -0.9982 231.6763 895.0535)" class="st13" width="0.3" height="3.4"/>
            <rect x="101" y="449.4" transform="matrix(-0.9982 6.008286e-02 -6.008286e-02 -0.9982 229.1412 895.3035)" class="st13" width="0.3" height="3.4"/>
            <rect x="98.7" y="449.5" transform="matrix(-0.9982 6.066163e-02 -6.066163e-02 -0.9982 224.9046 895.6507)" class="st13" width="0.3" height="3.4"/>
            <rect x="97.5" y="449.6" transform="matrix(-0.9976 6.923084e-02 -6.923084e-02 -0.9976 226.2345 894.7961)" class="st13" width="0.3" height="3.4"/>
            <rect x="96.2" y="449.7" transform="matrix(-0.998 6.262984e-02 -6.262984e-02 -0.998 220.8131 895.8705)" class="st13" width="0.3" height="3.4"/>
            <rect x="95" y="449.8" transform="matrix(-0.9976 6.923084e-02 -6.923084e-02 -0.9976 221.2759 895.2825)" class="st13" width="0.3" height="3.4"/>
            <rect x="92.7" y="449.9" transform="matrix(-0.9982 5.937459e-02 -5.937459e-02 -0.9982 212.3901 896.9256)" class="st13" width="0.3" height="3.4"/>
            <rect x="91.5" y="450" transform="matrix(-0.9986 5.316697e-02 -5.316697e-02 -0.9986 207.1352 897.8804)" class="st13" width="0.3" height="3.4"/>
            <rect x="90.2" y="450.1" transform="matrix(-0.998 6.324612e-02 -6.324612e-02 -0.998 209.1539 896.9321)" class="st13" width="0.3" height="3.4"/>
            <rect x="89" y="450.1" transform="matrix(-0.9982 5.917538e-02 -5.917538e-02 -0.9982 204.8539 897.6387)" class="st13" width="0.3" height="3.4"/>
            <rect x="87" y="450.3" transform="matrix(-0.9976 6.979524e-02 -6.979524e-02 -0.9976 205.5354 896.7844)" class="st13" width="0.3" height="3.4"/>
            <rect x="85.7" y="450.4" transform="matrix(-0.998 6.294203e-02 -6.294203e-02 -0.998 199.9923 897.8228)" class="st13" width="0.3" height="3.4"/>
            <rect x="84.5" y="450.4" transform="matrix(-0.9976 6.911453e-02 -6.911453e-02 -0.9976 200.2728 897.3521)" class="st13" width="0.3" height="3.4"/>
            <polygon class="st13" points="83.3 453.9 83.6 453.9 83.4 450.5 83.1 450.5 "/>
            <rect x="81" y="450.7" transform="matrix(-0.9981 6.233644e-02 -6.233644e-02 -0.9981 190.269 898.7875)" class="st13" width="0.3" height="3.4"/>
            <rect x="79.7" y="450.7" transform="matrix(-0.998 6.250444e-02 -6.250444e-02 -0.998 187.8617 899.004)" class="st13" width="0.3" height="3.4"/>
            <rect x="78.5" y="450.8" transform="matrix(-0.9976 6.926509e-02 -6.926509e-02 -0.9976 188.4031 898.5063)" class="st13" width="0.3" height="3.4"/>
            <rect x="77.2" y="450.9" transform="matrix(-0.9981 6.229433e-02 -6.229433e-02 -0.9981 182.7998 899.498)" class="st13" width="0.3" height="3.4"/>
            <rect x="75.1" y="451" transform="matrix(-0.9986 5.353147e-02 -5.353147e-02 -0.9986 174.6689 900.7825)" class="st13" width="0.3" height="3.4"/>
            <rect x="73.9" y="451.1" transform="matrix(-0.9981 6.237048e-02 -6.237048e-02 -0.9981 176.1497 900.1225)" class="st13" width="0.3" height="3.4"/>
            <rect x="72.6" y="451.2" transform="matrix(-0.9977 6.810649e-02 -6.810649e-02 -0.9977 176.243 899.7697)" class="st13" width="0.3" height="3.4"/>
            <rect x="71.4" y="451.3" transform="matrix(-0.9977 6.833294e-02 -6.833294e-02 -0.9977 173.8612 899.9914)" class="st13" width="0.3" height="3.4"/>
            <rect x="69.1" y="451.4" transform="matrix(-0.9976 6.911453e-02 -6.911453e-02 -0.9976 169.5713 900.3635)" class="st13" width="0.3" height="3.4"/>
            <rect x="67.8" y="451.5" transform="matrix(-0.998 6.292894e-02 -6.292894e-02 -0.998 164.3145 901.2134)" class="st13" width="0.3" height="3.4"/>
            <rect x="66.6" y="451.6" transform="matrix(-0.9982 5.917538e-02 -5.917538e-02 -0.9982 160.1431 901.8006)" class="st13" width="0.3" height="3.4"/>
            <rect x="65.3" y="451.7" transform="matrix(-0.9976 6.994841e-02 -6.994841e-02 -0.9976 162.4996 901.0149)" class="st13" width="0.3" height="3.4"/>
            <rect x="63.2" y="451.8" transform="matrix(-0.9976 6.923084e-02 -6.923084e-02 -0.9976 157.9789 901.4956)" class="st13" width="0.3" height="3.4"/>
            <polygon class="st13" points="62.1 455.3 62.4 455.3 62.2 451.9 61.9 451.9 "/>
            <rect x="60.7" y="451.9" transform="matrix(-0.9986 5.252223e-02 -5.252223e-02 -0.9986 145.5025 903.4595)" class="st13" width="0.3" height="3.4"/>
            <rect x="59.5" y="452" transform="matrix(-0.9976 6.967703e-02 -6.967703e-02 -0.9976 150.7362 902.1875)" class="st13" width="0.3" height="3.4"/>
            <rect x="57.3" y="452.2" transform="matrix(-0.998 6.292894e-02 -6.292894e-02 -0.998 143.3529 903.2047)" class="st13" width="0.3" height="3.4"/>
            <rect x="56.1" y="452.2" transform="matrix(-0.998 6.284090e-02 -6.284090e-02 -0.998 140.8328 903.4476)" class="st13" width="0.3" height="3.4"/>
            <rect x="54.8" y="452.3" transform="matrix(-0.9976 6.890593e-02 -6.890593e-02 -0.9976 141.0817 903.1688)" class="st13" width="0.3" height="3.4"/>
            <rect x="53.6" y="452.4" transform="matrix(-0.9982 5.987866e-02 -5.987866e-02 -0.9982 134.5332 904.16)" class="st13" width="0.3" height="3.4"/>
            <rect x="51.2" y="452.5" transform="matrix(-0.9976 6.967703e-02 -6.967703e-02 -0.9976 134.3032 903.8017)" class="st13" width="0.3" height="3.4"/>
            <polygon class="st13" points="50.1 456 50.4 456 50.2 452.6 49.9 452.6 "/>
            <rect x="48.8" y="452.7" transform="matrix(-0.9976 6.980214e-02 -6.980214e-02 -0.9976 129.4007 904.2801)" class="st13" width="0.3" height="3.4"/>
            <rect x="47.5" y="452.8" transform="matrix(-0.9982 5.957522e-02 -5.957522e-02 -0.9982 122.3035 905.3107)" class="st13" width="0.3" height="3.4"/>
            <rect x="45.6" y="452.9" transform="matrix(-0.9976 6.973483e-02 -6.973483e-02 -0.9976 122.9885 904.9145)" class="st13" width="0.3" height="3.4"/>
            <rect x="44.3" y="453" transform="matrix(-0.9976 6.970058e-02 -6.970058e-02 -0.9976 120.4903 905.1591)" class="st13" width="0.3" height="3.4"/>
            <rect x="43.1" y="453.1" transform="matrix(-0.9981 6.218987e-02 -6.218987e-02 -0.9981 114.6168 905.954)" class="st13" width="0.3" height="3.4"/>
            <rect x="41.8" y="453.1" transform="matrix(-0.9975 7.051373e-02 -7.051373e-02 -0.9975 115.8958 905.5875)" class="st13" width="0.3" height="3.4"/>
            <rect x="39.6" y="453.3" transform="matrix(-0.9986 5.291484e-02 -5.291484e-02 -0.9986 103.5833 907.2106)" class="st13" width="0.3" height="3.4"/>
            <rect x="38.4" y="453.4" transform="matrix(-0.9981 6.167254e-02 -6.167254e-02 -0.9981 105.0717 906.8721)" class="st13" width="0.3" height="3.4"/>
            <rect x="37.1" y="453.4" transform="matrix(-0.9976 6.911453e-02 -6.911453e-02 -0.9976 105.9532 906.6047)" class="st13" width="0.3" height="3.4"/>
            <rect x="35.9" y="453.5" transform="matrix(-0.998 6.252467e-02 -6.252467e-02 -0.998 100.4922 907.285)" class="st13" width="0.3" height="3.4"/>
            <rect x="33.6" y="453.7" transform="matrix(-0.9977 6.788147e-02 -6.788147e-02 -0.9977 98.3161 907.379)" class="st13" width="0.3" height="3.4"/>
            <rect x="32.4" y="453.7" transform="matrix(-0.9986 5.334863e-02 -5.334863e-02 -0.9986 89.2453 908.4948)" class="st13" width="0.3" height="3.4"/>
            <rect x="31.1" y="453.8" transform="matrix(-0.9976 6.923084e-02 -6.923084e-02 -0.9976 93.9687 907.7786)" class="st13" width="0.3" height="3.4"/>
            <rect x="29.9" y="453.9" transform="matrix(-0.9984 5.610656e-02 -5.610656e-02 -0.9984 85.5303 908.7921)" class="st13" width="0.3" height="3.4"/>
            <rect x="27.8" y="454" transform="matrix(-0.9974 7.250252e-02 -7.250252e-02 -0.9974 88.7737 908.2376)" class="st13" width="0.3" height="3.4"/>
            <rect x="26.5" y="454.1" transform="matrix(-0.998 6.276904e-02 -6.276904e-02 -0.998 81.875 909.0451)" class="st13" width="0.3" height="3.4"/>
            <rect x="25.3" y="454.2" transform="matrix(-0.9976 6.865262e-02 -6.865262e-02 -0.9976 82.0611 908.9552)" class="st13" width="0.3" height="3.4"/>
            <rect x="24" y="454.3" transform="matrix(-0.9982 5.957522e-02 -5.957522e-02 -0.9982 75.4611 909.6799)" class="st13" width="0.3" height="3.4"/>
            <rect x="21.8" y="454.4" transform="matrix(-0.9981 6.202544e-02 -6.202544e-02 -0.9981 72.0739 909.9805)" class="st13" width="0.3" height="3.4"/>
            <rect x="20.5" y="454.5" transform="matrix(-0.998 6.294155e-02 -6.294155e-02 -0.998 70.0066 910.1697)" class="st13" width="0.3" height="3.4"/>
            <rect x="19.3" y="454.6" transform="matrix(-0.9976 6.865262e-02 -6.865262e-02 -0.9976 70.1248 910.1232)" class="st13" width="0.3" height="3.4"/>
            <rect x="18" y="454.6" transform="matrix(-0.9977 6.833294e-02 -6.833294e-02 -0.9977 67.4964 910.3846)" class="st13" width="0.3" height="3.4"/>
            <rect x="15.8" y="454.8" transform="matrix(-0.9976 6.967703e-02 -6.967703e-02 -0.9976 63.7582 910.7429)" class="st13" width="0.3" height="3.4"/>
            <rect x="14.6" y="454.9" transform="matrix(-0.9981 6.152167e-02 -6.152167e-02 -0.9981 57.5702 911.3495)" class="st13" width="0.3" height="3.4"/>
            <rect x="13.4" y="454.9" transform="matrix(-0.9977 6.776967e-02 -6.776967e-02 -0.9977 57.9329 911.3159)" class="st13" width="0.3" height="3.4"/>
            <rect x="12.1" y="455" transform="matrix(-0.998 6.258892e-02 -6.258892e-02 -0.998 53.0878 911.7745)" class="st13" width="0.3" height="3.4"/>
            <rect x="10" y="455.2" transform="matrix(-0.998 6.274977e-02 -6.274977e-02 -0.998 48.9609 912.1674)" class="st13" width="0.3" height="3.4"/>
            <rect x="8.8" y="455.2" transform="matrix(-0.9983 5.864345e-02 -5.864345e-02 -0.9983 44.6019 912.5524)" class="st13" width="0.3" height="3.4"/>
            <rect x="7.5" y="455.3" transform="matrix(-0.9977 6.765811e-02 -6.765811e-02 -0.9977 46.2373 912.4556)" class="st13" width="0.3" height="3.4"/>
            <polygon class="st13" points="6.4 458.8 6.7 458.8 6.5 455.4 6.2 455.4 "/>
            <rect x="4.1" y="455.5" transform="matrix(-0.998 6.276904e-02 -6.276904e-02 -0.998 37.1786 913.2853)" class="st13" width="0.3" height="3.4"/>
            <rect x="2.8" y="455.6" transform="matrix(-0.9981 6.218987e-02 -6.218987e-02 -0.9981 34.4291 913.5397)" class="st13" width="0.3" height="3.4"/>
            <rect x="1.6" y="455.7" transform="matrix(-0.9977 6.844687e-02 -6.844687e-02 -0.9977 34.8045 913.578)" class="st13" width="0.3" height="3.4"/>
            <rect x="0.4" y="455.8" transform="matrix(-0.9982 5.957522e-02 -5.957522e-02 -0.9982 28.271 914.0829)" class="st13" width="0.3" height="3.4"/>
            <rect x="153.1" y="446.1" transform="matrix(-0.9981 6.107976e-02 -6.107976e-02 -0.9981 333.7079 888.0383)" class="st13" width="0.4" height="6.1"/>
            <rect x="147.1" y="446.5" transform="matrix(-0.9981 6.094768e-02 -6.094768e-02 -0.9981 321.8462 889.1683)" class="st13" width="0.4" height="6.1"/>
            <rect x="141.2" y="446.8" transform="matrix(-0.998 6.330585e-02 -6.330585e-02 -0.998 311.0955 889.8803)" class="st13" width="0.4" height="6.1"/>
            <rect x="135.3" y="447.2" transform="matrix(-0.9981 6.157592e-02 -6.157592e-02 -0.9981 298.5372 891.2853)" class="st13" width="0.4" height="6.1"/>
            <rect x="129.4" y="447.6" transform="matrix(-0.9981 6.164493e-02 -6.164493e-02 -0.9981 286.7711 892.387)" class="st13" width="0.4" height="6.1"/>
            <rect x="123.5" y="448" transform="matrix(-0.9981 6.225982e-02 -6.225982e-02 -0.9981 275.2484 893.4066)" class="st13" width="0.4" height="6.1"/>
            <rect x="117.6" y="448.3" transform="matrix(-0.9981 6.106905e-02 -6.106905e-02 -0.9981 262.9301 894.6965)" class="st13" width="0.4" height="6.1"/>
            <rect x="111.7" y="448.7" transform="matrix(-0.9981 6.201068e-02 -6.201068e-02 -0.9981 251.5469 895.6727)" class="st13" width="0.4" height="6.1"/>
            <rect x="105.7" y="449.1" transform="matrix(-0.9981 6.138436e-02 -6.138436e-02 -0.9981 239.4729 896.8735)" class="st13" width="0.4" height="6.1"/>
            <rect x="99.8" y="449.5" transform="matrix(-0.9981 6.194048e-02 -6.194048e-02 -0.9981 227.9271 897.9118)" class="st13" width="0.4" height="6.1"/>
            <rect x="93.9" y="449.8" transform="matrix(-0.9981 6.141530e-02 -6.141530e-02 -0.9981 215.8952 899.0897)" class="st13" width="0.4" height="6.1"/>
            <rect x="88" y="450.2" transform="matrix(-0.9977 6.810007e-02 -6.810007e-02 -0.9977 207.0952 899.4158)" class="st13" width="0.4" height="6.1"/>
            <rect x="82.1" y="450.6" transform="matrix(-0.9984 5.719082e-02 -5.719082e-02 -0.9984 190.4093 901.7753)" class="st13" width="0.4" height="6.1"/>
            <rect x="76.2" y="451" transform="matrix(-0.9981 6.167753e-02 -6.167753e-02 -0.9981 180.6298 902.3979)" class="st13" width="0.4" height="6.1"/>
            <rect x="70.2" y="451.3" transform="matrix(-0.9981 6.166112e-02 -6.166112e-02 -0.9981 168.8242 903.5137)" class="st13" width="0.4" height="6.1"/>
            <rect x="64.3" y="451.7" transform="matrix(-0.9981 6.188623e-02 -6.188623e-02 -0.9981 157.1317 904.602)" class="st13" width="0.4" height="6.1"/>
            <rect x="58.4" y="452.1" transform="matrix(-0.9981 6.131559e-02 -6.131559e-02 -0.9981 145.0796 905.7677)" class="st13" width="0.4" height="6.1"/>
            <rect x="52.5" y="452.5" transform="matrix(-0.9977 6.781558e-02 -6.781558e-02 -0.9977 136.2242 906.3453)" class="st13" width="0.4" height="6.1"/>
            <rect x="46.6" y="452.8" transform="matrix(-0.9981 6.138436e-02 -6.138436e-02 -0.9981 121.5192 907.9826)" class="st13" width="0.4" height="6.1"/>
            <rect x="40.7" y="453.2" transform="matrix(-0.9978 6.615944e-02 -6.615944e-02 -0.9978 111.8972 908.7603)" class="st13" width="0.4" height="6.1"/>
            <rect x="34.8" y="453.6" transform="matrix(-0.9979 6.530584e-02 -6.530584e-02 -0.9979 99.7133 909.9564)" class="st13" width="0.4" height="6.1"/>
            <rect x="28.8" y="454" transform="matrix(-0.9981 6.119208e-02 -6.119208e-02 -0.9981 86.0483 911.3247)" class="st13" width="0.4" height="6.1"/>
            <rect x="22.9" y="454.3" transform="matrix(-0.9981 6.132939e-02 -6.132939e-02 -0.9981 74.3115 912.433)" class="st13" width="0.4" height="6.1"/>
            <rect x="17" y="454.7" transform="matrix(-0.9981 6.169134e-02 -6.169134e-02 -0.9981 62.6861 913.5246)" class="st13" width="0.4" height="6.1"/>
            <rect x="11.1" y="455.1" transform="matrix(-0.9981 6.201068e-02 -6.201068e-02 -0.9981 51.0365 914.6251)" class="st13" width="0.4" height="6.1"/>
            <rect x="5.2" y="455.5" transform="matrix(-0.9978 6.644349e-02 -6.644349e-02 -0.9978 41.2689 915.5873)" class="st13" width="0.4" height="6.1"/>
            <rect x="142.8" y="471.3" transform="matrix(4.927756e-02 0.9988 -0.9988 4.927756e-02 609.0605 307.4373)" class="st13" width="0.4" height="4.6"/>
            <polygon class="st13" points="143.1 486.1 143.2 485.7 140.7 485 140.6 485.5 "/>
            <polygon class="st13" points="143.4 484.7 143.5 484.2 141 483.6 140.9 484 "/>
            <rect x="142.3" y="481.4" transform="matrix(-0.2121 0.9773 -0.9773 -0.2121 644.4913 445.7334)" class="st13" width="0.5" height="2.6"/>
            <polygon class="st13" points="144.4 479.8 144.5 479.4 142 478.9 141.9 479.3 "/>
            <polygon class="st13" points="144.7 478.3 144.8 477.8 142.2 477.5 142.1 477.9 "/>
            <rect x="143.5" y="475.1" transform="matrix(-8.896106e-02 0.996 -0.996 -8.896106e-02 630.98 375.6613)" class="st13" width="0.5" height="2.6"/>
            <rect x="143.6" y="473.5" transform="matrix(-2.482700e-02 0.9997 -0.9997 -2.482700e-02 622.0503 342.8763)" class="st13" width="0.5" height="2.6"/>
            <polygon class="st13" points="144.3 481.5 144.4 481 141 480.3 140.9 480.8 "/>
            <path class="st13" d="M142 472.9l0.5 0c-2 19.5-10.8 37.7-24.9 51.4 -14.2 13.9-32.9 22.2-52.7 23.4 -19.8 1.3-39.4-4.6-55.2-16.6 -15.7-11.8-26.7-28.8-31.2-47.9l0.4-0.1c9.2 39.7 45.4 66.7 85.9 64.1C105.4 544.8 137.8 513.5 142 472.9z"/>
            <path class="st13" d="M139.7 472.6L139.7 472.6l-0.2-0.5 0.3 0 0.2 0.6 0 0.3 -2.5-0.2 0-0.3L139.7 472.6z"/>
            <path class="st13" d="M138.1 473.7c0.3 0 0.5 0.3 0.6 0.6h0c0.2-0.3 0.4-0.4 0.6-0.3 0.4 0 0.6 0.4 0.6 0.8 -0.1 0.5-0.4 0.7-0.7 0.7 -0.2 0-0.4-0.2-0.5-0.5l0 0c-0.2 0.3-0.4 0.5-0.7 0.4 -0.4 0-0.7-0.5-0.6-0.9C137.3 473.9 137.7 473.7 138.1 473.7zM139.3 474.3c-0.3 0-0.4 0.1-0.5 0.4 0 0.2 0.2 0.4 0.4 0.4 0.2 0 0.4-0.1 0.5-0.4C139.7 474.5 139.5 474.3 139.3 474.3zM137.9 475c0.3 0 0.5-0.2 0.6-0.5 0-0.3-0.2-0.5-0.5-0.5 -0.3 0-0.5 0.1-0.5 0.4C137.5 474.8 137.7 475 137.9 475z"/>
            <path class="st13" d="M138.2 477.4c-0.8-0.1-1.3-0.5-1.2-1.1 0.1-0.5 0.6-0.7 1.4-0.6 0.8 0.1 1.2 0.5 1.2 1C139.5 477.3 139 477.5 138.2 477.4zM138.4 476.1c-0.6-0.1-1 0.1-1.1 0.4 0 0.3 0.3 0.6 1 0.7 0.6 0.1 1 0 1.1-0.4C139.4 476.4 139.1 476.2 138.4 476.1z"/>
            <path class="st13" d="M137.6 485.2L137.6 485.2l-0.1-0.5 0.3 0 0.2 0.6 -0.1 0.3 -2.4-0.6 0.1-0.3L137.6 485.2z"/>
            <path class="st13" d="M137.1 488.1l-0.2-0.1 -1.9-1.7 0.1-0.3 1.8 1.7 0 0 0.3-1.2 0.3 0.1L137.1 488.1z"/>
            <path d="M1039.1 488.7c0 0-2 0.8-4.9-0.6 -2.9-1.4-3.1-3.2-3.1-3.2l21.3-44.9 8 3.8L1039.1 488.7z"/>
            <path class="st14" d="M1037.2 481.8c-2.9-1.4-3.2-3.2-3.2-3.2l-1.4 3c0 0 0.3 1.8 3.2 3.2 2.9 1.4 4.9 0.6 4.9 0.6l1.4-3C1042 482.4 1040.1 483.2 1037.2 481.8z"/>
            <rect x="1057.6" y="429.4" transform="matrix(0.9038 0.4279 -0.4279 0.9038 286.0869 -413.0454)" class="st15" width="8.6" height="1.2"/>
            <rect x="1055.8" y="430" transform="matrix(0.9038 0.4279 -0.4279 0.9038 287.9198 -411.6364)" class="st14" width="7.7" height="9.5"/>
            <rect x="1057.6" y="427.6" transform="matrix(0.9037 0.4282 -0.4282 0.9037 285.9016 -413.6664)" class="st16" width="9.9" height="2.3"/>
            <rect x="1052.8" y="438.7" transform="matrix(0.9039 0.4278 -0.4278 0.9039 289.7821 -410.0641)" class="st15" width="9" height="2.1"/>
            <circle class="st15" cx="1074.2" cy="402.8" r="28.4"/>
            <path class="st16" d="M1097.9 414c-6.2 13-21.8 18.6-34.8 12.4 -13-6.2-18.6-21.8-12.4-34.8 6.2-13 21.8-18.6 34.8-12.4C1098.5 385.3 1104 400.9 1097.9 414z"/>
            <path class="st17" d="M1096.4 413.3c-5.8 12.2-20.4 17.4-32.6 11.7 -12.2-5.8-17.4-20.4-11.7-32.6 5.8-12.2 20.4-17.4 32.6-11.7C1096.9 386.4 1102.2 401 1096.4 413.3z"/>
            <path class="st11" d="M1081.6 402.4c-0.2-3.4-1.2-6.7-2.3-10 -0.6-1.8-2.3-4.7-0.7-6.1 1.9-1.7 6.8 0.7 8.5 1.9 5.1 3.4 7.6 8.7 7.8 13.5 0.3 4.9-1.5 10.3-6.2 14.3 -1.6 1.4-6.2 4.4-8.3 2.9 -1.7-1.2-0.4-4.3 0-6.2C1081.2 409.2 1081.8 405.8 1081.6 402.4z"/>
            <polygon class="st16" points="1061 444.8 1051 440.1 1052.9 437.7 1061.6 441.9 "/>
            <linearGradient id="SVGID_1_" gradientUnits="userSpaceOnUse" x1="168.956" y1="312.682" x2="168.956" y2="381.038" gradientTransform="matrix(0.934 0.3573 -0.3573 0.934 95.6599 -68.641)">
                <stop offset="0" stop-color="#B5B5B5"/>
                <stop offset="0.001" stop-color="#B7B7B7"/>
                <stop offset="0.009" stop-color="#CDCDCD"/>
                <stop offset="0.019" stop-color="#DEDEDE"/>
                <stop offset="0.031" stop-color="#EAEAEA"/>
                <stop offset="0.048" stop-color="#F0F0F0"/>
                <stop offset="0.096" stop-color="#F2F2F2"/>
            </linearGradient>
            <polygon class="st18" points="184.4 299.5 99.5 267 92 286.4 177 318.9 "/>
            <path class="st19" d="M184.5 299.5l7.9-20.5c0.7-1.8-0.2-3.8-2-4.5l-78.6-30.1c-1.8-0.7-3.8 0.2-4.5 2L99.4 267l0.1 0L184.5 299.5 184.5 299.5zM125.9 257.5c-0.3 0.3-0.7 0.6-1 0.8 -0.8 0.4-1.7 0.4-2.5 0.1 -0.8-0.3-1.5-1-1.8-1.8 -0.2-0.4-0.3-0.8-0.3-1.3 0-0.4 0.1-0.9 0.2-1.3 0-0.1 0.1-0.2 0.1-0.2 0 0 0-0.1 0-0.1l0 0 0 0c0.8-1.5 2.5-2.1 4.1-1.5 1.6 0.6 2.4 2.3 2 3.9l0 0 0 0c0 0 0 0.1 0 0.1 0 0.1-0.1 0.2-0.1 0.3C126.4 256.8 126.2 257.2 125.9 257.5zM152.7 267.8c-0.3 0.3-0.7 0.6-1 0.8 -0.8 0.4-1.7 0.4-2.5 0.1 -0.8-0.3-1.5-1-1.8-1.8 -0.2-0.4-0.3-0.8-0.3-1.3 0-0.4 0.1-0.9 0.2-1.3 0-0.1 0.1-0.2 0.1-0.2 0 0 0-0.1 0-0.1l0 0 0 0c0.8-1.5 2.5-2.1 4.1-1.5 1.6 0.6 2.4 2.3 2 3.9l0 0 0 0c0 0 0 0.1 0 0.1 0 0.1-0.1 0.2-0.1 0.3C153.2 267.1 152.9 267.5 152.7 267.8zM179.4 278c-0.3 0.3-0.7 0.6-1 0.8 -0.8 0.4-1.7 0.4-2.5 0.1 -0.8-0.3-1.5-1-1.8-1.8 -0.2-0.4-0.3-0.8-0.3-1.3 0-0.4 0.1-0.9 0.2-1.3 0-0.1 0.1-0.2 0.1-0.2 0 0 0-0.1 0-0.1l0 0 0 0c0.8-1.5 2.5-2.1 4.1-1.5 1.6 0.6 2.4 2.3 2 3.9l0 0 0 0c0 0 0 0.1 0 0.1 0 0.1-0.1 0.2-0.1 0.3C179.9 277.3 179.7 277.7 179.4 278z"/>
            <path class="st20" d="M192.4 279c0.3-0.9 0.3-2-0.2-2.9 -0.5-0.9-1.3-1.5-2.3-1.7l-5.6-2.1 -11.1-4.2 -22.2-8.4 -22.2-8.6 -11.1-4.3 -5.5-2.2c-0.9-0.4-1.9-0.6-2.8-0.2 -0.9 0.3-1.7 1.1-2.1 2 0.3-0.9 1.1-1.7 2-2.1 0.9-0.4 2-0.3 2.9 0.1l5.6 2.1 11.1 4.2 22.2 8.4 22.2 8.6 11.1 4.3 5.5 2.2c0.9 0.3 1.8 0.9 2.3 1.9C192.7 277 192.7 278.1 192.4 279z"/>
            <path class="st16" d="M126.2 255.5c-0.5 1.4-2 2-3.4 1.5l0 0c-1.4-0.5-2-2-1.5-3.4l3.6-9.5c0.5-1.4 2-2 3.4-1.5l0 0c1.4 0.5 2 2 1.5 3.4L126.2 255.5z"/>
            <path class="st16" d="M153 265.7c-0.5 1.4-2 2-3.4 1.5l0 0c-1.4-0.5-2-2-1.5-3.4l3.6-9.5c0.5-1.4 2-2 3.4-1.5l0 0c1.4 0.5 2 2 1.5 3.4L153 265.7z"/>
            <path class="st16" d="M179.7 276c-0.5 1.4-2 2-3.4 1.5l0 0c-1.3-0.5-2-2-1.5-3.4l3.6-9.5c0.5-1.4 2-2 3.4-1.5l0 0c1.4 0.5 2 2 1.5 3.4L179.7 276z"/>
            <linearGradient id="SVGID_2_" gradientUnits="userSpaceOnUse" x1="168.955" y1="312.682" x2="168.955" y2="381.031" gradientTransform="matrix(0.934 0.3573 -0.3573 0.934 95.6599 -68.641)">
                <stop offset="0" stop-color="#B5B5B5"/>
                <stop offset="0.001" stop-color="#B7B7B7"/>
                <stop offset="0.009" stop-color="#CDCDCD"/>
                <stop offset="0.019" stop-color="#DEDEDE"/>
                <stop offset="0.031" stop-color="#EAEAEA"/>
                <stop offset="0.048" stop-color="#F0F0F0"/>
                <stop offset="0.096" stop-color="#F2F2F2"/>
            </linearGradient>
            <polygon class="st21" points="159.7 364.1 74.7 331.6 99.5 267 184.4 299.5 "/>
            <rect x="101.7" y="279.8" transform="matrix(0.3573 -0.934 0.934 0.3573 -222.8865 326.5939)" class="st15" width="48.4" height="91"/>
            <radialGradient id="SVGID_3_" cx="164.325" cy="331.844" r="64.872" gradientTransform="matrix(0.934 0.3573 -0.3573 0.934 95.6599 -68.641)" gradientUnits="userSpaceOnUse">
                <stop offset="0.834" stop-color="#F1F2F2"/>
                <stop offset="1" stop-color="#B5B5B5"/>
            </radialGradient>
            <path class="st22" d="M120.4 286.6l-20.9 54.5 38.1 14.6c3.4 0.4 9.4 0.3 17.2-3.2 7.6-3.4 11.9-8.4 13.4-10.5l12.4-32.4L120.4 286.6z"/>
            <radialGradient id="SVGID_4_" cx="146.011" cy="324.329" r="83.954" gradientTransform="matrix(0.934 0.3573 -0.3573 0.934 95.6599 -68.641)" gradientUnits="userSpaceOnUse">
                <stop offset="0.886" stop-color="#F1F2F2"/>
                <stop offset="1" stop-color="#B5B5B5"/>
            </radialGradient>
            <polygon class="st23" points="95.6 277.1 74.7 331.6 99.5 341.1 120.4 286.6 "/>
            <radialGradient id="SVGID_5_" cx="183.023" cy="350.195" r="31.807" gradientTransform="matrix(0.934 0.3573 -0.3573 0.934 95.6599 -68.641)" gradientUnits="userSpaceOnUse">
                <stop offset="0.843" stop-color="#FCFCFC"/>
                <stop offset="0.903" stop-color="#F9F9F9"/>
                <stop offset="0.954" stop-color="#EFEFEF"/>
                <stop offset="1" stop-color="#DEDEDE"/>
            </radialGradient>
            <path class="st24" d="M135 354.8c0 0 7.7 2.8 19.7-2.5 9.7-4.3 13.7-11.2 13.7-11.2s-4.9 8.3-16 2.5C145.6 358.5 135 354.8 135 354.8z"/>
            <path d="M132.3 294.4L118.7 330l-8.9-3.4 7.3-19.1c1.1-2.8 1.6-4.4 1.7-5 0.1-0.6-0.1-1.2-0.6-1.7 -0.5-0.5-1.8-1.2-3.8-1.9l-0.9-0.3 1.6-4.2c4.7 0.7 8.6 0.1 12-2L132.3 294.4z"/>
            <path d="M152.1 315.8l-4.5 11.9c-1 2.7-1.9 4.6-2.7 5.7 -0.8 1.1-1.8 2-3.1 2.8 -1.3 0.7-2.7 1.1-4.2 1 -1.5 0-3-0.4-4.6-1 -2.1-0.8-3.8-1.7-5-2.8 -1.2-1-2-2.2-2.5-3.6 -0.4-1.4-0.6-2.7-0.5-4 0.1-1.3 0.6-3.2 1.6-5.7l4.8-12.4c1.3-3.3 2.5-5.6 3.7-7 1.2-1.4 2.8-2.3 4.9-2.6 2.1-0.3 4.3-0.1 6.7 0.9 2 0.7 3.6 1.8 4.8 3 1.3 1.3 2.1 2.5 2.5 3.8 0.4 1.3 0.5 2.6 0.3 3.9C153.7 311.1 153.1 313.1 152.1 315.8zM144.4 309.4c0.7-1.9 1.1-3.1 1.1-3.7 0-0.6-0.3-1-1-1.2 -0.7-0.3-1.2-0.2-1.6 0.3 -0.4 0.4-1 1.6-1.7 3.4l-6.6 17.4c-0.8 2.1-1.2 3.4-1.1 3.9 0 0.5 0.4 0.9 1 1.1 0.7 0.3 1.2 0.2 1.6-0.3 0.4-0.4 0.9-1.5 1.6-3.2L144.4 309.4z"/>
            <circle class="st25" cx="540.8" cy="10" r="47.2"/>
            <path class="st25" d="M477.1 36.1c0.7-2.1 2.3-4 4.4-5.1l26.1-13c4.4-2.2 9.7-0.4 11.9 4 2.2 4.4 0.4 9.7-4 11.9l-26.1 13c-4.4 2.2-9.7 0.4-11.9-4C476.5 40.7 476.4 38.2 477.1 36.1z"/>
            <path class="st8" d="M537.8 45.3c6.3 0.5 12.8-0.6 18.8-3.6 17.5-8.7 24.6-30 15.8-47.5 -3-6-7.5-10.8-12.9-14.2 -10.1-6.3-23.2-7.4-34.6-1.7 -17.5 8.7-24.6 30-15.8 47.5C514.9 37.3 526 44.3 537.8 45.3z"/>
            <path class="st26" d="M518-17c6.1-1.4 12.7-1.2 19.1 0.9 18.6 6.2 28.6 26.2 22.4 44.8 -2.1 6.4-5.9 11.8-10.7 15.9 11.6-2.7 21.6-11.2 25.7-23.3 6.2-18.6-3.8-38.6-22.4-44.8C539.9-27.6 527.1-24.7 518-17z"/>
            <path class="st8" d="M537.1-16.1c-6.4-2.1-13-2.3-19.1-0.9 -4.8 4.1-8.6 9.4-10.7 15.9 -6.2 18.6 3.8 38.6 22.4 44.8 6.4 2.1 13 2.3 19.1 0.9 4.8-4.1 8.6-9.4 10.7-15.9C565.7 10.1 555.6-9.9 537.1-16.1z"/>
            <path class="st25" d="M609.6 405.6c-0.6-1.1-2-1.6-3.2-1l-43.1 22.3c-1.1 0.6-1.6 2-1 3.1l21.7 41.9c0.6 1.1 2 1.6 3.2 1l43.1-22.3c1.1-0.6 1.6-2 1-3.2L609.6 405.6z"/>
            <polygon class="st27" points="608.5 402.9 561.2 427.7 566 437 613.3 412.3 "/>
            <rect x="574" y="434.1" transform="matrix(0.888 -0.4599 0.4599 0.888 -134.8999 319.0409)" class="st19" width="26.9" height="4.7"/>
            <rect x="601.9" y="423.9" transform="matrix(0.888 -0.4598 0.4598 0.888 -127.9807 326.8747)" class="st27" width="10.5" height="4.7"/>
            <rect x="578.4" y="444.9" transform="matrix(0.888 -0.4598 0.4598 0.888 -139.9704 318.6668)" class="st27" width="11.7" height="3.5"/>
            <rect x="591.1" y="434.7" transform="matrix(0.888 -0.4598 0.4598 0.888 -133.064 326.5952)" class="st8" width="25.7" height="3.5"/>
            <rect x="580.2" y="444.4" transform="matrix(0.888 -0.4598 0.4598 0.888 -138.1402 326.2554)" class="st27" width="40.9" height="4.7"/>
            <rect x="584.3" y="454.1" transform="matrix(0.888 -0.4599 0.4599 0.888 -142.4993 326.8105)" class="st27" width="30.4" height="3.5"/>
            <path class="st25" d="M990.1-3.2c0.1-1.3-0.9-2.4-2.1-2.5l-48.3-4.1c-1.3-0.1-2.4 0.8-2.5 2.1l-4 47.1c-0.1 1.3 0.9 2.4 2.1 2.5l48.3 4.1c1.3 0.1 2.4-0.8 2.5-2.1L990.1-3.2z"/>
            <polygon class="st27" points="990.5 -6.1 937.3 -10.4 936.4 0.1 989.6 4.3 "/>
            <rect x="941.4" y="8.7" transform="matrix(0.9964 8.429250e-02 -8.429250e-02 0.9964 4.3303 -80.4465)" class="st8" width="26.9" height="4.7"/>
            <rect x="971.7" y="10.6" transform="matrix(0.9964 8.445315e-02 -8.445315e-02 0.9964 4.5823 -82.4623)" class="st27" width="10.5" height="4.7"/>
            <rect x="940.8" y="16.2" transform="matrix(0.9964 8.438816e-02 -8.438816e-02 0.9964 4.8947 -79.8199)" class="st27" width="11.7" height="3.5"/>
            <rect x="955.9" y="18.1" transform="matrix(0.9964 8.432570e-02 -8.432570e-02 0.9964 5.1254 -81.6208)" class="st27" width="25.7" height="3.5"/>
            <rect x="940.1" y="24.5" transform="matrix(0.9964 8.431756e-02 -8.431756e-02 0.9964 5.6798 -80.8957)" class="st27" width="40.9" height="4.7"/>
            <rect x="939.5" y="32.2" transform="matrix(0.9964 8.421098e-02 -8.421098e-02 0.9964 6.2477 -80.2729)" class="st27" width="30.4" height="3.5"/>
            <path class="st10" d="M498.6 382.4c0 0.1 0 0.1-0.1 0.2l0 0.2 -10.2 47.3c0 0.1 0 0.3-0.1 0.4l-0.5 2.3h0c-3 14.2 5.9 27.6 19.8 30.6l21.8-100.8C515.4 359.7 501.7 368.5 498.6 382.4z"/>
            <path class="st28" d="M529.3 362.7C529.3 362.7 529.3 362.7 529.3 362.7l-21.8 100.8c14 3 27.7-5.9 30.7-19.7l-0.1 0c0 0 0 0 0 0s0 0 0 0l0.1 0 10.9-50.4C552.1 379.5 543.3 365.7 529.3 362.7z"/>
            <path class="st29" d="M530.2 389.4c-0.8 3.5-4.2 5.7-7.7 5 -3.5-0.8-5.7-4.2-4.9-7.7 0.8-3.5 4.2-5.7 7.7-5C528.8 382.4 531 385.9 530.2 389.4z"/>
            <path class="st29" d="M750.2 15.7c2 3.3 1 7.6-2.3 9.7L664.6 77c-3.3 2-7.6 1-9.7-2.3L580.7-45.2c-2-3.3-1-7.6 2.3-9.7l83.3-51.6c3.3-2 7.6-1 9.7 2.3L750.2 15.7z"/>
            <circle class="st25" cx="616.7" cy="5.3" r="3.2"/>
            <circle class="st25" cx="625.7" cy="19.9" r="3.2"/>
            <circle class="st25" cx="634.8" cy="34.6" r="3.2"/>
            <circle class="st25" cx="643.9" cy="49.2" r="3.2"/>
            <circle class="st25" cx="652.9" cy="63.9" r="3.2"/>
            <path class="st30" d="M617.8 7.1l-7.3 4.5c-1 0.6-2.3 0.3-3-0.7 -0.6-1-0.3-2.3 0.7-3l7.3-4.5c1-0.6 2.3-0.3 3 0.7C619.1 5.2 618.8 6.5 617.8 7.1z"/>
            <path class="st30" d="M626.9 21.8l-7.3 4.5c-1 0.6-2.3 0.3-3-0.7 -0.6-1-0.3-2.3 0.7-3l7.3-4.5c1-0.6 2.3-0.3 3 0.7C628.2 19.8 627.9 21.2 626.9 21.8z"/>
            <path class="st30" d="M635.9 36.4l-7.3 4.5c-1 0.6-2.3 0.3-3-0.7 -0.6-1-0.3-2.3 0.7-3l7.3-4.5c1-0.6 2.3-0.3 3 0.7C637.3 34.5 636.9 35.8 635.9 36.4z"/>
            <path class="st30" d="M645 51.1l-7.3 4.5c-1 0.6-2.3 0.3-3-0.7 -0.6-1-0.3-2.3 0.7-3l7.3-4.5c1-0.6 2.3-0.3 3 0.7C646.3 49.1 646 50.5 645 51.1z"/>
            <path class="st30" d="M654.1 65.7l-7.3 4.5c-1 0.6-2.3 0.3-3-0.7 -0.6-1-0.3-2.3 0.7-3l7.3-4.5c1-0.6 2.3-0.3 3 0.7C655.4 63.8 655.1 65.1 654.1 65.7z"/>
            <path class="st25" d="M223.5 269.9c-3.3 3.1-3.4 8.3-0.4 11.6l39.6 42.2c3.1 3.3 8.3 3.4 11.6 0.4l63-59.2c3.3-3.1 3.4-8.3 0.4-11.6l-39.6-42.2c-3.1-3.3-8.3-3.4-11.6-0.4L223.5 269.9z"/>
            <rect x="266.1" y="236.5" transform="matrix(0.6844 0.7291 -0.7291 0.6844 262.1431 -121.6052)" class="st8" width="10.9" height="10.9"/>
            <rect x="277.3" y="248.5" transform="matrix(0.6845 0.7291 -0.7291 0.6845 274.3728 -126.0115)" class="st8" width="10.9" height="10.9"/>
            <rect x="288.5" y="260.4" transform="matrix(0.6844 0.7291 -0.7291 0.6844 286.6505 -130.4179)" class="st8" width="10.9" height="10.9"/>
            <rect x="299.7" y="272.4" transform="matrix(0.6844 0.7291 -0.7291 0.6844 298.9284 -134.8251)" class="st8" width="10.9" height="10.9"/>
            <rect x="254.1" y="247.8" transform="matrix(0.6844 0.7291 -0.7291 0.6844 266.552 -109.3509)" class="st8" width="10.9" height="10.9"/>
            <rect x="265.3" y="259.7" transform="matrix(0.6844 0.7291 -0.7291 0.6844 278.8051 -113.7587)" class="st8" width="10.9" height="10.9"/>
            <rect x="276.6" y="271.7" transform="matrix(0.6844 0.7291 -0.7291 0.6844 291.0567 -118.1648)" class="st8" width="10.9" height="10.9"/>
            <rect x="287.8" y="283.6" transform="matrix(0.6844 0.7291 -0.7291 0.6844 303.3358 -122.5708)" class="st8" width="10.9" height="10.9"/>
            <rect x="242.2" y="259" transform="matrix(0.6845 0.729 -0.729 0.6845 270.9164 -97.1013)" class="st8" width="10.9" height="10.9"/>
            <rect x="253.4" y="270.9" transform="matrix(0.6844 0.7291 -0.7291 0.6844 283.2401 -101.5021)" class="st8" width="10.9" height="10.9"/>
            <rect x="264.6" y="282.9" transform="matrix(0.6844 0.7291 -0.7291 0.6844 295.4639 -105.911)" class="st8" width="10.9" height="10.9"/>
            <rect x="275.8" y="294.8" transform="matrix(0.6843 0.7292 -0.7292 0.6843 307.7667 -110.3153)" class="st8" width="10.9" height="10.9"/>
            <rect x="230.2" y="270.2" transform="matrix(0.6845 0.729 -0.729 0.6845 275.3235 -84.8493)" class="st8" width="10.9" height="10.9"/>
            <rect x="241.4" y="282.1" transform="matrix(0.6845 0.729 -0.729 0.6845 287.5711 -89.2583)" class="st8" width="10.9" height="10.9"/>
            <rect x="250.1" y="300.1" transform="matrix(0.6844 0.7291 -0.7291 0.6844 306.0073 -95.8611)" class="st27" width="27.3" height="10.9"/>
            <rect x="274.3" y="234.1" transform="matrix(0.6844 0.7291 -0.7291 0.6844 274.6581 -144.5524)" class="st31" width="60.1" height="21.9"/>
            <rect x="309" y="247.5" transform="matrix(0.6844 0.7291 -0.7291 0.6844 282.8165 -147.4892)" class="st29" width="5.5" height="10.9"/>
            <rect x="316.5" y="255.5" transform="matrix(0.6846 0.7289 -0.7289 0.6846 290.8759 -150.4192)" class="st29" width="5.5" height="10.9"/>
            <rect x="294.1" y="231.6" transform="matrix(0.6843 0.7292 -0.7292 0.6843 266.525 -141.6173)" class="st29" width="5.5" height="10.9"/>
            <polygon class="st29" points="310.2 243.2 306.4 239.2 298.4 246.7 302.2 250.7 "/>
            <polygon class="st30" points="119.1 408.1 -12.9 318.7 -18.6 314.8 -22.5 320.6 115.2 413.9 "/>
            <polygon class="st29" points="119.1 408.1 123 402.4 -14.7 309.1 -18.6 314.8 -12.9 318.7 "/>
            <polygon class="st30" points="142.1 423.7 137.3 418.4 135.4 421.2 "/>
            <polygon class="st25" points="137.3 418.4 123 402.4 115.2 413.9 135.4 421.2 "/>
            <rect x="-8.3" y="323.9" transform="matrix(-0.5608 0.8279 -0.8279 -0.5608 268.1661 510.7355)" class="st8" width="13.9" height="5.2"/>
            <polygon class="st27" points="381 139.3 536.1 176.5 542.8 178.1 544.4 171.4 382.7 132.6 "/>
            <polygon class="st10" points="381 139.3 379.4 146 541.2 184.9 542.8 178.1 536.1 176.5 "/>
            <polygon class="st30" points="354.1 132.8 360.4 136.1 361.2 132.8 "/>
            <polygon class="st25" points="360.4 136.1 379.4 146 382.7 132.6 361.2 132.8 "/>
            <rect x="515.6" y="170.7" transform="matrix(0.2333 -0.9724 0.9724 0.2333 232.1948 641.0167)" class="st31" width="13.9" height="5.2"/>
            <path class="st25" d="M1024.1 444.5l4.4-0.6 -0.6-4.4c-0.3-2.4-2.6-4.2-5-3.8l-18.3 2.5c-2.4 0.3-4.2 2.6-3.8 5l0.6 4.4 4.4-0.6L1024.1 444.5z"/>
            <path class="st25" d="M1029.1 448.3l-0.6-4.4 -4.4 0.6 -18.3 2.5 -4.4 0.6 0.6 4.4c0.3 2.5 2.6 4.2 5 3.8l18.3-2.5C1027.7 453 1029.4 450.8 1029.1 448.3z"/>
            <path class="st29" d="M1016.8 445.5l4.6-0.6 -1.3-9.3 -23.7 3.2c-2.6 0.3-4.3 2.7-4 5.3l0.6 4.6 4.6-0.6L1016.8 445.5z"/>
            <path class="st30" d="M1021.4 444.9l-4.6 0.6 -19.1 2.6 -4.6 0.6 0.6 4.6c0.3 2.6 2.7 4.4 5.3 4l23.7-3.2L1021.4 444.9z"/>
            <path class="st11" d="M471.8 424.6c2.7-0.8 4.3-3.7 3.5-6.4l-5.4-17.9c-0.5-1.6-2.1-2.5-3.7-2 -1.6 0.5-2.5 2.1-2 3.7l3.4 11.5c0.1 0.4 0.6 0.7 1 0.6 0.4-0.1 0.7-0.6 0.6-1l-3.4-11.5c-0.2-0.7 0.2-1.5 0.9-1.7 0.7-0.2 1.5 0.2 1.7 0.9l5.4 17.9c0.6 1.8-0.5 3.8-2.4 4.4 -1.9 0.6-3.8-0.5-4.4-2.3l-5.4-18.1c-0.9-3 0.8-6.2 3.8-7 3-0.9 6.2 0.8 7 3.8l6.7 22.3c0.1 0.4 0.6 0.7 1 0.6 0.4-0.1 0.7-0.6 0.6-1l-6.7-22.3c-1.2-3.9-5.2-6.1-9.1-4.9 -3.9 1.2-6.1 5.2-4.9 9.1l5.4 18.1C466.2 423.8 469.1 425.4 471.8 424.6z"/>
            <path class="st30" d="M1144.9 122.1L1043.3-32.7l-32.6 21.4 101.6 154.8L1144.9 122.1zM1032.7-13.4c2.1-1.4 4.9-0.8 6.3 1.3 1.4 2.1 0.8 4.9-1.3 6.3 -2.1 1.4-4.9 0.8-6.3-1.3C1030-9.2 1030.6-12 1032.7-13.4z"/>
            <rect x="1025.9" y="8.8" transform="matrix(-0.8361 0.5486 -0.5486 -0.8361 1900.0662 -547.6801)" class="st27" width="11.9" height="2.4"/>
            <rect x="1036.6" y="25.1" transform="matrix(-0.8359 0.5488 -0.5488 -0.8359 1928.4728 -523.8734)" class="st27" width="11.9" height="2.4"/>
            <rect x="1047.3" y="41.4" transform="matrix(-0.8362 0.5484 -0.5484 -0.8362 1957.2592 -499.4536)" class="st27" width="11.9" height="2.4"/>
            <rect x="1058" y="57.6" transform="matrix(-0.8361 0.5485 -0.5485 -0.8361 1985.7522 -475.5107)" class="st27" width="11.9" height="2.4"/>
            <rect x="1068.7" y="74.1" transform="matrix(-0.836 0.5487 -0.5487 -0.836 2014.4146 -451.5087)" class="st27" width="11.9" height="2.4"/>
            <rect x="1079.3" y="90.2" transform="matrix(-0.8361 0.5486 -0.5486 -0.8361 2042.8264 -427.478)" class="st27" width="11.9" height="2.4"/>
            <rect x="1090" y="106.5" transform="matrix(-0.836 0.5487 -0.5487 -0.836 2071.3074 -403.5729)" class="st27" width="11.9" height="2.4"/>
            <rect x="1031.8" y="18.6" transform="matrix(-0.8357 0.5492 -0.5492 -0.8357 1910.3193 -531.8928)" class="st27" width="5.9" height="2.4"/>
            <rect x="1042.4" y="34.9" transform="matrix(-0.8364 0.5482 -0.5482 -0.8364 1939.5167 -506.8079)" class="st27" width="5.9" height="2.4"/>
            <rect x="1053.1" y="51.1" transform="matrix(-0.8358 0.549 -0.549 -0.8358 1967.5154 -483.6916)" class="st27" width="5.9" height="2.4"/>
            <rect x="1063.9" y="67.6" transform="matrix(-0.8362 0.5484 -0.5484 -0.8362 1996.7119 -458.7697)" class="st27" width="5.9" height="2.4"/>
            <rect x="1074.5" y="83.7" transform="matrix(-0.8361 0.5485 -0.5485 -0.8361 2024.9076 -435.1163)" class="st27" width="5.9" height="2.4"/>
            <rect x="1085.2" y="100" transform="matrix(-0.8359 0.5488 -0.5488 -0.8359 2053.2761 -411.4218)" class="st27" width="5.9" height="2.4"/>
            <rect x="1095.8" y="116.2" transform="matrix(-0.8362 0.5485 -0.5485 -0.8362 2082.0244 -387.003)" class="st27" width="5.9" height="2.4"/>
            <path class="st29" d="M1039-12.1c1.3 2 0.8 4.8-1.1 6.2l91 138.6 16.1-10.6L1043.3-32.7l-16.1 10.6 5.6 8.6C1034.9-14.8 1037.6-14.2 1039-12.1z"/>
            <path class="st25" d="M469 100.2l0.4 4.5 4.5-0.4c2.5-0.2 4.3-2.4 4-4.9l-1.8-18.4c-0.2-2.5-2.4-4.3-4.9-4l-4.5 0.4 0.4 4.5L469 100.2z"/>
            <path class="st25" d="M465 105.1l4.5-0.4 -0.4-4.5 -1.8-18.4 -0.4-4.5 -4.5 0.4c-2.5 0.2-4.3 2.4-4 4.9l1.8 18.4C460.4 103.5 462.5 105.3 465 105.1z"/>
            <path class="st8" d="M468.3 92.9l0.4 4.7 9.3-0.9 -2.3-23.8c-0.2-2.6-2.5-4.5-5.1-4.2L466 69l0.4 4.7L468.3 92.9z"/>
            <path class="st26" d="M468.7 97.5l-0.4-4.7 -1.8-19.2L466 69l-4.7 0.4c-2.6 0.2-4.5 2.5-4.2 5.1l2.3 23.8L468.7 97.5z"/>
            <path class="st25" d="M280.4 40.9c0 0-175.1-29-175.1-29L81.7 154.4c0 0 175.1 29 175.1 29L280.4 40.9z"/>
            <path class="st29" d="M277.2 186.8l23.6-142.6c1-6-3.1-11.7-9.1-12.7L96.2-0.8c-6-1-11.7 3.1-12.7 9.1L59.9 150.8c-1 6 3.1 11.7 9.1 12.7l195.5 32.4C270.5 196.8 276.2 192.8 277.2 186.8zM81.7 154.4l23.6-142.6c0 0 175.1 29 175.1 29 0 0-23.6 142.5-23.6 142.5L81.7 154.4z"/>
            <rect x="66.1" y="78.6" transform="matrix(-0.1632 0.9866 -0.9866 -0.1632 176.3449 13.1334)" class="st30" width="33" height="5.5"/>
            <rect x="119.6" y="17.3" transform="matrix(-0.1631 0.9866 -0.9866 -0.1631 178.7036 -87.5022)" class="st8" width="13.7" height="29.5"/>
            <rect x="125.4" y="31.2" transform="matrix(-0.1633 0.9866 -0.9866 -0.1633 208.4793 -65.9547)" class="st8" width="13.7" height="48.5"/>
            <rect x="115.9" y="58.8" transform="matrix(-0.1634 0.9866 -0.9866 -0.1634 217.9659 -31.3308)" class="st8" width="12.6" height="35.8"/>
            <rect x="123.2" y="71.5" transform="matrix(-0.1631 0.9866 -0.9866 -0.1631 250.8655 -10.7852)" class="st8" width="13.7" height="59"/>
            <rect x="111.7" y="99.9" transform="matrix(-0.1633 0.9866 -0.9866 -0.1633 257.876 24.3989)" class="st8" width="13.7" height="43.2"/>
            <rect x="122.1" y="110.8" transform="matrix(-0.1632 0.9866 -0.9866 -0.1632 293.5523 43.3068)" class="st8" width="12.6" height="70.6"/>
            <path class="st31" d="M179.8 36.3c0.2-1 0.8-1.8 1.8-2.2 1.5-0.6 3.1 0.2 3.6 1.6l18.1 47.7c0.6 1.5-0.2 3.1-1.6 3.6 -1.5 0.6-3.1-0.2-3.6-1.6l-18.1-47.7C179.7 37.2 179.7 36.7 179.8 36.3z"/>
            <path class="st31" d="M175.7 106.9c0.2-1 0.8-1.8 1.8-2.2 1.5-0.6 3.1 0.2 3.7 1.6l20.7 53.5c0.6 1.5-0.2 3.1-1.6 3.7 -1.5 0.6-3.1-0.2-3.7-1.6l-20.7-53.5C175.6 107.9 175.6 107.4 175.7 106.9z"/>
            <path class="st31" d="M175.7 106.9c0.1-0.5 0.3-1.1 0.8-1.5l22.3-22.9c1.1-1.1 2.9-1.1 4-0.1 1.1 1.1 1.1 2.9 0.1 4l-22.3 22.9c-1.1 1.1-2.9 1.1-4 0.1C175.8 108.7 175.5 107.8 175.7 106.9z"/>
            <rect x="239" y="44.6" transform="matrix(-0.1632 0.9866 -0.9866 -0.1632 353.059 -179.6823)" class="st27" width="27.4" height="30.6"/>
            <rect x="243.3" y="91.9" transform="matrix(-0.1633 0.9866 -0.9866 -0.1633 395.0831 -143.926)" class="st10" width="30.6" height="7.4"/>
            <rect x="236.8" y="85.8" transform="matrix(-0.1634 0.9866 -0.9866 -0.1634 376.635 -140.3443)" class="st10" width="22.1" height="7.4"/>
            <rect x="224.8" y="155" transform="matrix(-0.1634 0.9866 -0.9866 -0.1634 431.5368 -48.607)" class="st10" width="23.2" height="7.4"/>
            <rect x="222.6" y="120.1" transform="matrix(-0.1633 0.9866 -0.9866 -0.1633 403.8692 -94.828)" class="st10" width="39" height="7.4"/>
            <rect x="230.8" y="79.3" transform="matrix(-0.1632 0.9866 -0.9866 -0.1632 357.701 -137.4966)" class="st10" width="12.6" height="7.4"/>
            <rect x="220.1" y="102.7" transform="matrix(-0.1633 0.9866 -0.9866 -0.1633 376.3065 -106.4399)" class="st10" width="26.4" height="7.4"/>
            <rect x="248" y="117.4" transform="matrix(-0.1634 0.9866 -0.9866 -0.1634 415.3378 -110.1143)" class="st10" width="12.6" height="7.4"/>
            <rect x="228.7" y="148" transform="matrix(-0.1633 0.9866 -0.9866 -0.1633 439.6798 -69.4299)" class="st10" width="41.1" height="7.4"/>
            <path class="st32" d="M277.2 186.8l13-78.8 -222.6-3.8 -7.6 46.6c-1 6 3.1 11.7 9.1 12.7l195.5 32.4C270.5 196.8 276.2 192.8 277.2 186.8z"/>
        </g>
    </svg>
