<?xml version="1.0" standalone="no"?>
<?xml-stylesheet type="text/css" media="screen" href="../css/style.css"?>
<svg class="logo_principal" viewBox="0 0 250 119.9"  xmlns="http://www.w3.org/2000/svg">
    <path class="st0" d="M198.2 104.8c-0.1-0.3-0.3-0.4-0.5-0.4h-2.4c-0.1 0-0.1 0-0.1 0.1v2c0 0.1 0 0.1 0.1 0.1h2.3c0.1 0 0.2-0.1 0.4-0.2 0.1-0.1 0.2-0.2 0.3-0.4 0.1-0.2 0.1-0.4 0.1-0.6 0-0.1 0-0.2 0-0.3C198.3 105 198.3 104.9 198.2 104.8zM187.6 107.4l-0.9-2.8c0-0.1 0-0.2-0.1-0.2 0 0 0 0-0.1 0 0 0-0.1 0.1-0.1 0.2l-0.9 2.8c0 0 0 0 0 0 0 0 0 0 0 0 0 0.1 0 0.1 0.1 0.1h1.9C187.6 107.6 187.6 107.6 187.6 107.4 187.6 107.5 187.6 107.5 187.6 107.4 187.6 107.5 187.6 107.4 187.6 107.4zM33.4 104.4c-0.2 0-0.3-0.1-0.5-0.1 -0.2 0-0.4 0-0.7 0 -0.2 0-0.5 0-0.7 0 -0.2 0-0.4 0-0.5 0.1 -0.3 0.1-0.5 0.2-0.7 0.4 -0.2 0.2-0.2 0.5-0.2 1v2.9c0 0.5 0.1 0.8 0.3 1.1 0.2 0.3 0.4 0.4 0.8 0.5 0 0 0.1 0 0.2 0 0.1 0 0.2 0 0.3 0 0.1 0 0.2 0 0.3 0 0.1 0 0.2 0 0.3 0 0.2 0 0.4 0 0.6 0 0.1 0 0.3 0 0.5 0 0.4-0.1 0.6-0.2 0.8-0.4 0.1-0.2 0.2-0.6 0.2-1v-2.8c0-0.4-0.1-0.8-0.2-1C33.9 104.6 33.7 104.5 33.4 104.4zM159.8 104.8c-0.1-0.3-0.3-0.4-0.5-0.4h-2.4c-0.1 0-0.1 0-0.1 0.1v2c0 0.1 0 0.1 0.1 0.1h2.3c0.1 0 0.2-0.1 0.4-0.2 0.1-0.1 0.2-0.2 0.3-0.4 0.1-0.2 0.1-0.4 0.1-0.6 0-0.1 0-0.2 0-0.3C159.9 105 159.9 104.9 159.8 104.8zM150.6 104.9c0-0.1-0.1-0.3-0.2-0.4 -0.1-0.1-0.2-0.2-0.4-0.2h-2.4c-0.1 0-0.1 0-0.1 0.1v2.3c0 0.1 0 0.1 0.1 0.1h2.4c0.1 0 0.3-0.1 0.4-0.2 0.1-0.1 0.2-0.2 0.2-0.4s0.1-0.3 0.1-0.4c0-0.1 0-0.3 0-0.3 0-0.1 0-0.2 0-0.3C150.7 105.2 150.7 105 150.6 104.9zM113.4 107.4l-0.9-2.8c0-0.1 0-0.2-0.1-0.2 0 0 0 0-0.1 0 0 0-0.1 0.1-0.1 0.2l-0.9 2.8c0 0 0 0 0 0 0 0 0 0 0 0 0 0.1 0 0.1 0.1 0.1h1.9C113.4 107.6 113.4 107.6 113.4 107.4 113.4 107.5 113.4 107.5 113.4 107.4 113.4 107.5 113.4 107.4 113.4 107.4zM103.5 104.8c-0.1-0.3-0.3-0.4-0.5-0.4h-2.4c-0.1 0-0.1 0-0.1 0.1v2c0 0.1 0 0.1 0.1 0.1h2.3c0.1 0 0.2-0.1 0.4-0.2 0.1-0.1 0.2-0.2 0.3-0.4 0.1-0.2 0.1-0.4 0.1-0.6 0-0.1 0-0.2 0-0.3C103.6 105 103.5 104.9 103.5 104.8zM23.6 104.8c-0.1-0.3-0.3-0.4-0.5-0.4h-2.4c-0.1 0-0.1 0-0.1 0.1v2c0 0.1 0 0.1 0.1 0.1h2.3c0.1 0 0.2-0.1 0.4-0.2 0.1-0.1 0.2-0.2 0.3-0.4 0.1-0.2 0.1-0.4 0.1-0.6 0-0.1 0-0.2 0-0.3C23.6 105 23.6 104.9 23.6 104.8zM0.1 95v24.9h233.4V95H0.1zM16 111.7h-1.6c-0.1 0-0.1 0-0.2-0.1l-0.7-2.2c0-0.1-0.1-0.1-0.2-0.1h-2.9c-0.1 0-0.1 0-0.2 0.1l-0.7 2.1c0 0.1-0.1 0.1-0.2 0.1H7.8c-0.1 0-0.1 0-0.1-0.1l2.5-8.1c0.1-0.3 0.3-0.5 0.6-0.6 0.3-0.1 0.6-0.1 1.1-0.1 0.5 0 0.8 0 1.1 0.1 0.3 0.1 0.5 0.3 0.6 0.6L16 111.7C16.1 111.7 16.1 111.7 16 111.7zM25.6 111.7h-1.7c0 0-0.1 0-0.2-0.1 -0.1-0.1-0.1-0.2-0.1-0.2l-0.8-2.2c-0.1-0.5-0.4-0.7-0.7-0.8h-1.5c-0.1 0-0.1 0-0.1 0.1v3.1c0 0.1 0 0.1-0.1 0.1h-1.6c-0.1 0-0.1 0-0.1-0.1v-8.7c0-0.1 0-0.1 0.1-0.1h4.6c0.2 0 0.5 0 0.7 0.1 0.2 0.1 0.4 0.2 0.7 0.5 0.4 0.4 0.6 1 0.6 1.8v0.3c0 0.7-0.1 1.3-0.3 1.6 -0.1 0.2-0.2 0.3-0.4 0.5 -0.1 0.1-0.3 0.3-0.5 0.4 0 0 0 0 0 0 0 0 0 0 0 0.1 0 0 0 0 0 0.1 0.2 0.2 0.3 0.5 0.4 0.7 0.1 0.2 0.2 0.4 0.2 0.6l0.7 2.1c0 0.1 0 0.1 0.1 0.2C25.7 111.6 25.7 111.6 25.6 111.7 25.7 111.7 25.7 111.7 25.6 111.7zM36.9 111.7c0 0.1 0 0.1-0.1 0.1h-4.3c0 0 0 0 0 0 0 0-0.1 0-0.1 0s-0.1 0-0.1 0c-1.5 0-2.5-0.4-3.2-1.1 -0.2-0.2-0.3-0.4-0.4-0.6 -0.1-0.2-0.2-0.5-0.2-0.9 0-0.2 0-0.4 0-0.7 0-0.3 0-0.8 0-1.4 0-0.3 0-0.6 0-0.8 0-0.2 0-0.4 0-0.6 0-0.2 0-0.3 0-0.4 0-0.1 0-0.2 0-0.3 0.1-0.3 0.1-0.6 0.2-0.9 0.1-0.3 0.2-0.5 0.4-0.7 0.2-0.2 0.4-0.4 0.6-0.5 0.2-0.1 0.5-0.2 0.8-0.3 0.2 0 0.4-0.1 0.7-0.1 0.3 0 0.7 0 1.1 0 0.4 0 0.8 0 1.1 0 0.3 0 0.5 0 0.7 0.1 0.3 0.1 0.5 0.2 0.8 0.3 0.2 0.2 0.5 0.4 0.6 0.6 0.1 0.2 0.2 0.4 0.3 0.6 0.1 0.3 0.1 0.5 0.2 0.9 0 0.2 0.1 0.5 0.1 0.9 0 0.4 0 0.8 0 1.3 0 0.5 0 1 0 1.4 0 0.4 0 0.6 0 0.8 0 0.3-0.1 0.6-0.2 0.9h1c0.1 0 0.1 0 0.1 0.1V111.7zM46.2 108.8c0 0.3 0 0.6 0 0.8 0 0.2-0.1 0.4-0.1 0.6 0 0.1-0.1 0.3-0.2 0.4 -0.1 0.1-0.2 0.3-0.3 0.4 -0.1 0.1-0.3 0.2-0.4 0.3 -0.2 0.1-0.3 0.2-0.5 0.2 -0.1 0-0.3 0.1-0.5 0.1 -0.2 0-0.4 0.1-0.6 0.1H42c-0.3 0-0.5 0-0.8-0.1 -0.2-0.1-0.4-0.1-0.6-0.2 -0.2-0.1-0.3-0.2-0.5-0.3 -0.2-0.2-0.3-0.3-0.4-0.5 -0.1-0.2-0.2-0.4-0.3-0.6 -0.1-0.2-0.1-0.4-0.1-0.7v-6.4c0-0.1 0-0.1 0.1-0.1h1.6c0.1 0 0.1 0 0.1 0.1v6.1c0 0.1 0 0.2 0.1 0.3 0 0.1 0.1 0.2 0.2 0.4 0.1 0.1 0.2 0.2 0.3 0.3 0.1 0.1 0.2 0.1 0.4 0.1h1.3c0.1 0 0.3 0 0.4-0.1 0.1-0.1 0.2-0.2 0.3-0.3 0.1-0.1 0.1-0.2 0.2-0.4 0-0.1 0.1-0.2 0.1-0.4v-6.1c0-0.1 0-0.1 0.1-0.1h1.6c0.1 0 0.1 0 0.1 0.1V108.8zM50.9 111.6c0 0.1 0 0.1-0.1 0.1h-1.6c-0.1 0-0.1 0-0.1-0.1v-8.7c0-0.1 0-0.1 0.1-0.1h1.6c0.1 0 0.1 0 0.1 0.1V111.6zM59.9 104.2c0 0.1 0 0.1-0.1 0.1h-2c-0.1 0-0.1 0-0.1 0.1v7.1c0 0.1 0 0.1-0.1 0.1h-1.6c-0.1 0-0.1 0-0.1-0.1v-7.1c0-0.1 0-0.1-0.1-0.1h-2c-0.1 0-0.1 0-0.1-0.1v-1.4c0-0.1 0-0.1 0.1-0.1h6.1c0.1 0 0.1 0 0.1 0.1V104.2zM68.7 104.2c0 0.1 0 0.1-0.1 0.1h-4.1c-0.1 0-0.1 0-0.1 0.1v1.7c0 0.1 0 0.1 0.1 0.1h3.8c0.1 0 0.1 0 0.1 0.1v1.4c0 0.1 0 0.1-0.1 0.1h-3.8c-0.1 0-0.1 0-0.1 0.1v1.8c0 0.1 0 0.1 0.1 0.1h4.1c0.1 0 0.1 0 0.1 0.1v1.4c0 0.1 0 0.1-0.1 0.1h-4.8c-0.1 0-0.3 0-0.4-0.1 -0.1-0.1-0.3-0.2-0.4-0.3 -0.1-0.1-0.2-0.3-0.3-0.4 -0.1-0.2-0.1-0.3-0.1-0.5v-5.7c0-0.6 0.2-1 0.5-1.4 0.3-0.4 0.8-0.5 1.3-0.5h4.2c0.1 0 0.2 0 0.2 0.1V104.2zM77.4 104.2c0 0.1 0 0.1-0.1 0.1h-3.2c-0.3 0.1-0.6 0.2-0.7 0.5 -0.2 0.3-0.2 0.6-0.2 1.1v3.2c0 0.3 0.1 0.5 0.3 0.7 0.2 0.2 0.4 0.3 0.7 0.3h3.2c0.1 0 0.1 0 0.1 0.1v1.4c0 0.1 0 0.1-0.1 0.1h-3.2c-0.2 0-0.5 0-0.7-0.1 -0.2 0-0.4-0.1-0.5-0.2 -0.3-0.1-0.6-0.3-0.8-0.6 -0.2-0.3-0.5-0.6-0.6-0.9 0-0.1-0.1-0.2-0.1-0.4 0-0.2-0.1-0.3-0.1-0.6v-3.5c0-0.4 0-0.7 0.1-1 0-0.2 0.1-0.3 0.2-0.5 0.1-0.1 0.2-0.2 0.3-0.4 0.3-0.3 0.6-0.5 0.9-0.7 0.4-0.2 0.7-0.2 1.1-0.2h3.3c0.1 0 0.1 0 0.1 0.1V104.2zM86.4 104.2c0 0.1 0 0.1-0.1 0.1h-2c-0.1 0-0.1 0-0.1 0.1v7.1c0 0.1 0 0.1-0.1 0.1h-1.6c-0.1 0-0.1 0-0.1-0.1v-7.1c0-0.1 0-0.1-0.1-0.1h-2c-0.1 0-0.1 0-0.1-0.1v-1.4c0-0.1 0-0.1 0.1-0.1h6.1c0.1 0 0.1 0 0.1 0.1V104.2zM95.8 108.8c0 0.3 0 0.6 0 0.8 0 0.2-0.1 0.4-0.1 0.6 0 0.1-0.1 0.3-0.2 0.4 -0.1 0.1-0.2 0.3-0.3 0.4 -0.1 0.1-0.3 0.2-0.4 0.3 -0.2 0.1-0.3 0.2-0.5 0.2 -0.1 0-0.3 0.1-0.5 0.1 -0.2 0-0.4 0.1-0.6 0.1h-1.5c-0.3 0-0.5 0-0.8-0.1 -0.2-0.1-0.4-0.1-0.6-0.2 -0.2-0.1-0.3-0.2-0.4-0.3 -0.2-0.2-0.3-0.3-0.4-0.5 -0.1-0.2-0.2-0.4-0.3-0.6 -0.1-0.2-0.1-0.4-0.1-0.7v-6.4c0-0.1 0-0.1 0.1-0.1h1.6c0.1 0 0.1 0 0.1 0.1v6.1c0 0.1 0 0.2 0.1 0.3 0 0.1 0.1 0.2 0.2 0.4 0.1 0.1 0.2 0.2 0.3 0.3 0.1 0.1 0.2 0.1 0.4 0.1H93c0.1 0 0.3 0 0.4-0.1 0.1-0.1 0.2-0.2 0.3-0.3 0.1-0.1 0.1-0.2 0.2-0.4 0-0.1 0.1-0.2 0.1-0.4v-6.1c0-0.1 0-0.1 0.1-0.1h1.6c0.1 0 0.1 0 0.1 0.1V108.8zM105.6 111.7h-1.7c0 0-0.1 0-0.2-0.1 -0.1-0.1-0.1-0.2-0.1-0.2l-0.8-2.2c-0.1-0.5-0.4-0.7-0.7-0.8h-1.5c-0.1 0-0.1 0-0.1 0.1v3.1c0 0.1 0 0.1-0.1 0.1h-1.6c-0.1 0-0.1 0-0.1-0.1v-8.7c0-0.1 0-0.1 0.1-0.1h4.6c0.2 0 0.5 0 0.7 0.1 0.2 0.1 0.4 0.2 0.7 0.5 0.4 0.4 0.6 1 0.6 1.8v0.3c0 0.7-0.1 1.3-0.3 1.6 -0.1 0.2-0.2 0.3-0.4 0.5 -0.1 0.1-0.3 0.3-0.5 0.4 0 0 0 0 0 0 0 0 0 0 0 0.1 0 0 0 0 0 0.1 0.2 0.2 0.3 0.5 0.4 0.7 0.1 0.2 0.2 0.4 0.2 0.6l0.7 2.1c0 0.1 0 0.1 0.1 0.2C105.6 111.6 105.7 111.6 105.6 111.7 105.7 111.7 105.6 111.7 105.6 111.7zM116.5 111.7h-1.6c-0.1 0-0.1 0-0.2-0.1l-0.7-2.2c0-0.1-0.1-0.1-0.2-0.1h-2.9c-0.1 0-0.1 0-0.2 0.1l-0.7 2.1c0 0.1-0.1 0.1-0.2 0.1h-1.6c-0.1 0-0.1 0-0.1-0.1l2.5-8.1c0.1-0.3 0.3-0.5 0.5-0.6 0.3-0.1 0.6-0.1 1.1-0.1 0.5 0 0.8 0 1.1 0.1 0.3 0.1 0.5 0.3 0.6 0.6L116.5 111.7C116.6 111.7 116.5 111.7 116.5 111.7zM130.8 104.2c0 0.1 0 0.1-0.1 0.1h-4.1c-0.1 0-0.1 0-0.1 0.1v1.7c0 0.1 0 0.1 0.1 0.1h3.8c0.1 0 0.1 0 0.1 0.1v1.4c0 0.1 0 0.1-0.1 0.1h-3.8c-0.1 0-0.1 0-0.1 0.1v1.8c0 0.1 0 0.1 0.1 0.1h4.1c0.1 0 0.1 0 0.1 0.1v1.4c0 0.1 0 0.1-0.1 0.1h-4.8c-0.1 0-0.3 0-0.4-0.1 -0.1-0.1-0.3-0.2-0.4-0.3 -0.1-0.1-0.2-0.3-0.3-0.4 -0.1-0.2-0.1-0.3-0.1-0.5v-5.7c0-0.6 0.2-1 0.5-1.4 0.3-0.4 0.8-0.5 1.3-0.5h4.2c0.1 0 0.2 0 0.2 0.1V104.2zM142.9 111.6c0 0.1 0 0.1-0.1 0.1h-1.6c-0.1 0-0.1 0-0.1-0.1v-6.8c0 0 0-0.1 0-0.1 0-0.1 0-0.1-0.1-0.1 0 0-0.1 0-0.1 0 0 0 0 0.1-0.1 0.1 0 0 0 0.1 0 0.1 0 0.1 0 0.1 0 0.2 0 0.1 0 0.1 0 0.2 0 0.1 0 0.1 0 0.1 0 0.2-0.1 0.4-0.1 0.7 0 0.2-0.1 0.5-0.2 0.9 -0.1 0.4-0.2 0.9-0.3 1.4 -0.1 0.6-0.3 1.3-0.5 2.2 0 0.1-0.1 0.3-0.1 0.4 -0.1 0.1-0.1 0.2-0.2 0.3 -0.1 0.1-0.2 0.2-0.4 0.2 -0.2 0.1-0.4 0.1-0.7 0.1 -0.2 0-0.4 0-0.6-0.1 -0.2-0.1-0.3-0.1-0.4-0.2 -0.1-0.1-0.2-0.2-0.2-0.3 -0.1-0.1-0.1-0.2-0.1-0.3l-1.2-5.9c0 0 0-0.1 0-0.1 0-0.1 0-0.1-0.1-0.1h-0.1c0 0 0 0 0 0.1v6.9c0 0.1 0 0.1-0.1 0.1h-1.6c-0.1 0-0.1 0-0.1-0.1v-7.4c0-0.3 0-0.5 0.1-0.7 0.1-0.2 0.2-0.3 0.4-0.4 0.2-0.1 0.4-0.2 0.6-0.2 0.2 0 0.4-0.1 0.7-0.1 0.4 0 0.6 0 0.9 0.1 0.2 0 0.4 0.1 0.6 0.3 0.1 0.1 0.3 0.4 0.3 0.7 0.1 0.3 0.2 0.7 0.2 1.2l0.7 4.1c0 0 0 0.1 0 0.2 0 0.1 0 0.1 0 0.2 0 0.1 0 0.1 0.1 0.2 0 0.1 0 0.1 0.1 0.1 0 0 0 0 0.1-0.1 0-0.1 0-0.1 0.1-0.2 0-0.1 0-0.1 0.1-0.2 0-0.1 0-0.1 0-0.1l0.6-4.2c0.1-0.5 0.2-0.9 0.2-1.2 0.1-0.3 0.2-0.5 0.3-0.6 0.1-0.1 0.3-0.2 0.6-0.3 0.2 0 0.5-0.1 0.9-0.1 0.5 0 1 0.1 1.3 0.3 0.3 0.2 0.5 0.6 0.5 1.1V111.6zM152.3 106.9c-0.1 0.4-0.2 0.7-0.4 0.9 -0.2 0.3-0.5 0.5-0.8 0.6 -0.3 0.1-0.7 0.2-1.2 0.2h-2.2c-0.1 0-0.1 0-0.1 0.1v2.9c0 0.1 0 0.1-0.1 0.1h-1.6c-0.1 0-0.1 0-0.1-0.1V103v-0.1c0-0.1 0-0.1 0.1-0.1h4c0.5 0 0.9 0.1 1.2 0.2 0.3 0.1 0.6 0.3 0.8 0.6 0.2 0.3 0.3 0.6 0.4 0.9 0.1 0.4 0.1 0.7 0.1 1.2C152.4 106.1 152.4 106.5 152.3 106.9zM161.9 111.7h-1.7c-0.1 0-0.1 0-0.2-0.1 -0.1-0.1-0.1-0.2-0.1-0.2l-0.8-2.2c-0.1-0.5-0.4-0.7-0.7-0.8h-1.5c-0.1 0-0.1 0-0.1 0.1v3.1c0 0.1 0 0.1-0.1 0.1h-1.6c-0.1 0-0.1 0-0.1-0.1v-8.7c0-0.1 0-0.1 0.1-0.1h4.6c0.2 0 0.5 0 0.7 0.1 0.2 0.1 0.4 0.2 0.7 0.5 0.4 0.4 0.6 1 0.6 1.8v0.3c0 0.7-0.1 1.3-0.3 1.6 -0.1 0.2-0.2 0.3-0.4 0.5 -0.1 0.1-0.3 0.3-0.5 0.4 0 0 0 0 0 0 0 0 0 0 0 0.1 0 0 0 0 0 0.1 0.2 0.2 0.3 0.5 0.4 0.7 0.1 0.2 0.2 0.4 0.2 0.6l0.7 2.1c0 0.1 0 0.1 0.1 0.2C162 111.6 162 111.6 161.9 111.7 162 111.7 162 111.7 161.9 111.7zM170.7 104.2c0 0.1 0 0.1-0.1 0.1h-4.1c-0.1 0-0.1 0-0.1 0.1v1.7c0 0.1 0 0.1 0.1 0.1h3.8c0.1 0 0.1 0 0.1 0.1v1.4c0 0.1 0 0.1-0.1 0.1h-3.8c-0.1 0-0.1 0-0.1 0.1v1.8c0 0.1 0 0.1 0.1 0.1h4.1c0.1 0 0.1 0 0.1 0.1v1.4c0 0.1 0 0.1-0.1 0.1h-4.8c-0.2 0-0.3 0-0.5-0.1 -0.1-0.1-0.3-0.2-0.4-0.3 -0.1-0.1-0.2-0.3-0.3-0.4 -0.1-0.2-0.1-0.3-0.1-0.5v-5.7c0-0.6 0.2-1 0.5-1.4 0.3-0.4 0.8-0.5 1.3-0.5h4.2c0.1 0 0.2 0 0.2 0.1V104.2zM180.1 109.2c0 0.1 0 0.1 0 0.2 -0.1 0.8-0.3 1.3-0.8 1.7 -0.1 0.1-0.3 0.2-0.5 0.3 -0.2 0.1-0.4 0.2-0.6 0.2h-4.5c-0.1 0-0.1 0-0.1-0.1v-1.4c0-0.1 0-0.1 0.1-0.1h4c0.1 0 0.2-0.1 0.3-0.2 0.1-0.1 0.2-0.2 0.2-0.3 0-0.1 0.1-0.2 0.1-0.3 0-0.1 0-0.2 0-0.3 0-0.1 0-0.3 0-0.4 0-0.1-0.1-0.3-0.2-0.4 -0.1-0.1-0.2-0.2-0.4-0.2 -0.2 0-0.3-0.1-0.5-0.1h-1.4c-0.3 0-0.5 0-0.8-0.1 -0.3-0.1-0.6-0.2-0.8-0.4 -0.1-0.1-0.3-0.3-0.4-0.4 -0.1-0.2-0.2-0.3-0.2-0.5s-0.1-0.4-0.1-0.6c0-0.2 0-0.4 0-0.6 0-0.1 0-0.2 0-0.2 0-0.1 0-0.1 0-0.2 0.1-0.7 0.3-1.3 0.8-1.7 0.1-0.1 0.3-0.2 0.5-0.3 0.2-0.1 0.4-0.2 0.6-0.2h4.1c0.1 0 0.1 0 0.1 0.1v1.4c0 0.1 0 0.1-0.1 0.1h-3.6c-0.1 0-0.2 0.1-0.3 0.2 -0.1 0.1-0.2 0.2-0.2 0.3 0 0.1-0.1 0.2-0.1 0.2 0 0.1 0 0.2 0 0.2 0 0.1 0 0.3 0 0.4 0 0.1 0.1 0.3 0.2 0.4 0.1 0.1 0.2 0.1 0.4 0.2 0.2 0 0.3 0 0.5 0h1.4c0.3 0 0.5 0 0.8 0.1 0.3 0.1 0.5 0.2 0.8 0.4 0.1 0.1 0.3 0.3 0.4 0.4 0.1 0.2 0.2 0.3 0.2 0.5 0.1 0.2 0.1 0.4 0.1 0.6 0 0.2 0 0.4 0 0.6C180.1 109 180.1 109.1 180.1 109.2zM190.6 111.7H189c-0.1 0-0.1 0-0.2-0.1l-0.7-2.2c0-0.1-0.1-0.1-0.2-0.1h-2.9c-0.1 0-0.1 0-0.2 0.1l-0.7 2.1c0 0.1-0.1 0.1-0.2 0.1h-1.6c-0.1 0-0.1 0-0.1-0.1l2.5-8.1c0.1-0.3 0.3-0.5 0.5-0.6 0.3-0.1 0.6-0.1 1.1-0.1 0.5 0 0.8 0 1.1 0.1 0.3 0.1 0.5 0.3 0.6 0.6L190.6 111.7C190.7 111.7 190.7 111.7 190.6 111.7zM200.3 111.7h-1.7c-0.1 0-0.1 0-0.2-0.1 -0.1-0.1-0.1-0.2-0.1-0.2l-0.8-2.2c-0.1-0.5-0.4-0.7-0.7-0.8h-1.5c-0.1 0-0.1 0-0.1 0.1v3.1c0 0.1 0 0.1-0.1 0.1h-1.6c-0.1 0-0.1 0-0.1-0.1v-8.7c0-0.1 0-0.1 0.1-0.1h4.6c0.2 0 0.5 0 0.7 0.1 0.2 0.1 0.4 0.2 0.7 0.5 0.4 0.4 0.6 1 0.6 1.8v0.3c0 0.7-0.1 1.3-0.3 1.6 -0.1 0.2-0.2 0.3-0.4 0.5 -0.1 0.1-0.3 0.3-0.5 0.4 0 0 0 0 0 0 0 0 0 0 0 0.1 0 0 0 0 0 0.1 0.2 0.2 0.3 0.5 0.4 0.7 0.1 0.2 0.2 0.4 0.2 0.6l0.7 2.1c0 0.1 0 0.1 0.1 0.2C200.3 111.6 200.4 111.6 200.3 111.7 200.4 111.7 200.3 111.7 200.3 111.7zM204.9 111.6c0 0.1 0 0.1-0.1 0.1h-1.6c-0.1 0-0.1 0-0.1-0.1v-8.7c0-0.1 0-0.1 0.1-0.1h1.6c0.1 0 0.1 0 0.1 0.1V111.6zM215.8 111.7h-1.6c-0.1 0-0.1 0-0.2-0.1l-0.7-2.2c0-0.1-0.1-0.1-0.2-0.1h-2.9c-0.1 0-0.1 0-0.2 0.1l-0.7 2.1c0 0.1-0.1 0.1-0.2 0.1h-1.6c-0.1 0-0.1 0-0.1-0.1l2.5-8.1c0.1-0.3 0.3-0.5 0.5-0.6 0.3-0.1 0.6-0.1 1.1-0.1 0.5 0 0.8 0 1.1 0.1 0.3 0.1 0.5 0.3 0.6 0.6L215.8 111.7C215.9 111.7 215.8 111.7 215.8 111.7zM224.1 111.6c0 0.1 0 0.1-0.1 0.1h-3.4c-0.1 0-0.1 0-0.2 0 -0.1 0-0.1 0-0.1 0 -0.7-0.1-1.2-0.3-1.5-0.6 -0.3-0.3-0.4-0.9-0.4-1.6v-6.6c0-0.1 0-0.1 0.1-0.1h1.6c0.1 0 0.1 0 0.1 0.1v6.8c0 0.3 0.2 0.4 0.5 0.4h3.4c0.1 0 0.1 0 0.1 0.1V111.6zM12.9 107.4l-0.9-2.8c0-0.1 0-0.2-0.1-0.2 0 0 0 0-0.1 0 0 0-0.1 0.1-0.1 0.2l-0.9 2.8c0 0 0 0 0 0 0 0 0 0 0 0 0 0.1 0 0.1 0.1 0.1h1.9C12.9 107.6 12.9 107.6 12.9 107.4 12.9 107.5 12.9 107.5 12.9 107.4 12.9 107.5 12.9 107.4 12.9 107.4zM212.7 107.4l-0.9-2.8c0-0.1 0-0.2-0.1-0.2 0 0 0 0-0.1 0 0 0-0.1 0.1-0.1 0.2l-0.9 2.8c0 0 0 0 0 0 0 0 0 0 0 0 0 0.1 0 0.1 0.1 0.1h1.9C212.7 107.6 212.7 107.6 212.7 107.4 212.7 107.5 212.7 107.5 212.7 107.4 212.7 107.5 212.7 107.4 212.7 107.4z"
    />
    <path class="st0" d="M47.5 2.1C45 1.4 41.7 1 37.4 1c-4.1 0-7.4 0.4-9.8 1.1 -2.8 0.9-4.8 3-5.8 6.3L0 78.5v0.2c0 0.1 0 0.2 0 0.3 0 0 0 0 0 0 0 0 0 0 0 0.1 0 0.1 0 0.2 0 0.2 0 0.1 0 0.1 0 0.2 0 0.1 0.1 0.1 0.1 0.2 0 0.1 0.1 0.1 0.1 0.2 0 0.1 0.1 0.1 0.1 0.2 0 0.1 0.1 0.1 0.1 0.2 0 0.1 0.1 0.1 0.1 0.2 0.1 0.1 0.1 0.1 0.2 0.1 0.1 0 0.1 0.1 0.2 0.1 0.1 0 0.2 0.1 0.2 0.1 0.1 0 0.1 0.1 0.2 0.1 0.1 0 0.2 0.1 0.3 0.1 0.1 0 0.1 0 0.2 0C2.1 81 2.3 81 2.5 81h13.9c1.4 0 2.5-0.8 3-2.2L25 60.5l0 0 9.2 0c0 0 0 0 0 0h15.6l5.6 18.4 0 0c0.4 1.3 1.5 2.1 2.9 2.1h14c1.4 0 2.4-0.9 2.4-2.3v-0.2l-21.6-70C52.3 5.1 50.3 3 47.5 2.1zM37.4 20l6.9 22.5H30.5L37.4 20zM233.6 3.7c0-1.6-1.1-2.7-2.7-2.7h-13.4c-1.6 0-2.7 1.1-2.7 2.7v65.8 8.8c0 1.6 1.1 2.7 2.7 2.7h13.4c0.2 0 0.5 0 0.7-0.1 0.1 0 0.1 0 0.2 0 0.2 0 0.3-0.1 0.5-0.2 0 0 0.1 0 0.1-0.1 0.2-0.1 0.3-0.2 0.5-0.4 0 0 0 0 0 0 0.1-0.1 0.2-0.3 0.3-0.5 0 0 0 0 0-0.1 0 0 0 0 0 0 0.2-0.4 0.3-0.9 0.3-1.4V3.7zM210.6 76l-5.9-18.2c-0.6-1.8-1.2-3.5-1.9-5.1 -0.7-1.5-1.7-3.3-3.1-5.2 1.7-1 3-2 4.1-3.2 1.1-1.2 2.2-2.6 3.2-4.1l0.1-0.2c1.6-3.1 2.4-7.9 2.4-14.5v-2.5l0-0.1c-0.2-7.2-2.1-12.6-5.6-16.3 -2-2.1-4.1-3.6-6.2-4.4 -2.1-0.9-4.3-1.3-6.5-1.3h-39.8c-1.6 0-2.7 1.1-2.7 2.7v29.1 11.6 9.2 24.8c0 1.6 1.1 2.7 2.7 2.7h13.4c1.6 0 2.7-1.1 2.7-2.7V78 67.4 52.7h12.4c1 0.1 3.4 0.7 4.6 5.4l6.7 18.8c0.2 0.7 0.6 1.4 1.2 2.3 0.3 0.5 1.2 1.9 2.8 1.9h14.8c1.3 0 2.3-0.9 2.3-2.2 0-0.7-0.4-1.2-1-2C210.9 76.6 210.7 76.3 210.6 76zM167.4 18.2h20.3c1.2 0.2 2.1 1.7 2.7 2.9 0.3 0.6 0.5 1.2 0.5 1.8 0.1 0.7 0.1 1.6 0.1 2.5 0 1.8-0.2 3.5-0.7 5 -0.4 1.3-1 2.4-1.8 3 -0.9 0.7-1.7 1.1-2.3 1.1h-18.9V18.2zM144.6 35.4c0-1 0-2.1 0-3.2 0-0.1 0-0.2 0-0.3 0 0 0 0 0 0 0-3.1-0.2-6.3-0.7-9.3 -0.1-0.5-0.1-0.9-0.2-1.4 -0.7-4.3-2-8.5-4.5-11.8 -1.5-2-3.4-3.7-5.6-5.1 -2.2-1.4-4.6-2.5-7.2-3.1l0 0c-1.3-0.3-2.7-0.5-4-0.7 -4.2-0.6-8.4-0.7-12.7-0.6 -4.2-0.1-8.5 0-12.7 0.6 -1.4 0.2-2.7 0.4-4 0.7l0 0C90.4 1.9 88 3 85.7 4.4c-2.2 1.4-4.1 3.2-5.6 5.1 -2.5 3.3-3.8 7.5-4.5 11.8 -0.1 0.5-0.2 0.9-0.2 1.4 -0.8 5.2-0.7 10.8-0.6 16 0 0 0 0 0 0 0 0.2 0 0.3 0 0.5 -0.1 6.2-0.3 12.4 0.5 18.5 0.6 5.1 1.7 11.2 4.9 15.4 7.2 9.4 21.8 9.1 29.5 9.1 7.7 0 22.3 0.3 29.5-9.1 3.2-4.2 4.3-10.3 4.9-15.4 0.1-0.8 0.2-1.5 0.2-2.3 0.1-0.7 0.1-1.4 0.2-2.2 0 0 0-0.1 0-0.1 0.3-4.6 0.2-9.3 0.1-13.9 0-1 0.1-2.1 0.1-3.1C144.6 35.8 144.6 35.6 144.6 35.4zM125.9 53.2c0 3.4-0.5 5.9-1.4 7.5 -0.6 1-1.4 1.8-2.3 2.3 -0.5 0.2-1.1 0.4-1.7 0.6 -3.3 0.8-7.1 1.1-10.7 1.2 -0.1 0-0.1 0-0.2 0 -0.1 0-0.1 0-0.2 0 -3.6-0.1-7.4-0.4-10.7-1.2 -0.6-0.2-1.2-0.4-1.7-0.6 -0.9-0.6-1.7-1.3-2.3-2.3 -0.9-1.6-1.4-4.1-1.4-7.5V33.1v-3.8c0-3.4 0.5-5.9 1.4-7.5 0.8-1.5 2.2-2.4 4.3-2.9 3.3-0.8 7-1.3 10.6-1.3 3.6 0 7.3 0.4 10.6 1.3 2.1 0.5 3.5 1.5 4.3 2.9 0.9 1.6 1.4 4.1 1.4 7.5v3.6V53.2z"
    />
    <path class="st0" d="M243.5 3c0.2 0 0.4 0 0.7 0 0 0 0.1 0 0.1 0 0.3 0.1 0.7 0.1 1 0.2 1.8 0.4 3.2 1.5 4 3.2 0.3 0.6 0.5 1.3 0.6 2 0 0.2 0 0.3 0.1 0.5 0 0.2 0 0.4 0 0.6 0 0 0 0.1 0 0.1 0 0.3-0.1 0.6-0.1 0.8 -0.4 1.9-1.5 3.3-3.2 4.2 -0.6 0.3-1.3 0.5-2 0.6 -0.2 0-0.3 0-0.5 0.1 -0.2 0-0.4 0-0.7 0 0 0-0.1 0-0.1 0 -0.3-0.1-0.7-0.1-1-0.2 -1.8-0.4-3.2-1.5-4-3.2 -0.3-0.6-0.5-1.3-0.6-2 0-0.2 0-0.3-0.1-0.5 0-0.2 0-0.4 0-0.6 0 0 0-0.1 0-0.1 0-0.3 0.1-0.6 0.1-0.8 0.4-1.9 1.5-3.3 3.2-4.2 0.6-0.3 1.3-0.5 2-0.6C243.2 3 243.4 3 243.5 3zM243.9 14c2.7 0 4.8-2.1 4.9-4.8 0-2.8-2.1-4.9-4.8-5 -2.8 0-4.9 2.1-5 4.8C239 11.8 241.2 14 243.9 14zM241.2 5.8C241.2 5.8 241.2 5.8 241.2 5.8c0.9 0 1.8 0 2.7 0 0.4 0 0.8 0.1 1.2 0.2 0.6 0.2 0.9 0.6 0.9 1.2 0 0.4 0 0.7-0.1 1 -0.2 0.5-0.6 0.7-1 0.9 0 0 0 0-0.1 0 0.1 0 0.1 0 0.2 0.1 0.3 0.1 0.5 0.4 0.7 0.7 0.2 0.4 0.4 0.8 0.6 1.2 0.2 0.3 0.3 0.7 0.5 1 0 0 0 0.1 0 0.1 -0.4 0-0.8 0-1.1 0 -0.2 0-0.3 0-0.5 0 -0.1 0-0.1 0-0.2-0.1 -0.2-0.5-0.5-1-0.8-1.6 -0.1-0.1-0.2-0.3-0.3-0.4 -0.1-0.2-0.4-0.3-0.6-0.3 -0.2 0-0.4 0-0.7 0 0 0.8 0 1.6 0 2.4 -0.6 0-1.1 0-1.6 0C241.2 10 241.2 7.9 241.2 5.8zM242.8 8.6c0.2 0 0.5 0 0.7 0 0.1 0 0.3 0 0.4 0 0.3-0.1 0.5-0.2 0.5-0.5 0-0.1 0-0.3 0-0.4 0-0.4-0.2-0.6-0.6-0.7 -0.1 0-0.2 0-0.3 0 -0.2 0-0.5 0-0.7 0C242.8 7.5 242.8 8.1 242.8 8.6z"
    />
</svg>
