<?xml version="1.0" standalone="no"?>
<?xml-stylesheet type="text/css" media="screen" href="../css/style.css"?>
<svg class="grafico_marketing" xmlns="http://www.w3.org/2000/svg" version="1.1" x="0" y="0" width="1100" height="486" viewBox="0 0 1100 486" xml:space="preserve">
        <g class="st0">
            <rect x="-22.4" y="-32.1" class="st1" width="1126.4" height="539.7"/>
        </g>
        <text transform="matrix(1 0 0 1 76.6147 173.2236)">
            <tspan x="0" y="0" class="st2 st3">MARKETING BTL:</tspan>
            <tspan x="0" y="53.6" class="st4 st3">REDES SOCIALES,</tspan>
            <tspan x="0" y="107.1" class="st4 st3">GOOGLE TOOLS Y PR</tspan>
        </text>
        <text transform="matrix(1 0 0 1 80.0005 309.999)" class="st5 st6">Dirígete a tu consumidor con resultados de venta o posicionamiento.</text>
     <g id="phone" style="cursor: pointer;" onclick="window.parent.slide_Subservicios('BTL');">
        <rect x="80.9" y="331.6" class="st7" width="71.2" height="19.2"/>
        <text transform="matrix(1 0 0 1 88.7866 345.1891)" class="st5 st8">LEER MÁS</text>
    </g>
        <path class="st9" d="M750.8 100.6c18.8 0 34.1-15.3 34.1-34.1 0-18.8-15.3-34.1-34.1-34.1 -18.8 0-34.1 15.3-34.1 34.1C716.6 85.2 732 100.6 750.8 100.6z"/>
        <path class="st10" d="M760.9 73.7c0 3.6-0.9 6.3-2.7 8 -1.8 1.7-3.7 2.5-5.7 2.5v5.3h-2.9v-5.3c-2.4 0-4.4-1-6.2-2.9 -1.8-2-2.6-5-2.6-9h4.8c0 3.5 0.5 5.7 1.5 6.6 1 0.9 1.8 1.4 2.5 1.4V66.6c-3.4-1.8-5.5-3.5-6.5-4.9 -1-1.5-1.5-3.2-1.5-5.1 0-2.5 0.7-4.6 2.2-6.2 1.5-1.6 3.4-2.6 5.8-2.8v-4h2.9v4c2.4 0 4.3 1 5.8 2.8 1.5 1.9 2.2 4.2 2.2 7h-4.6c0-2.1-0.4-3.6-1.2-4.5 -0.8-0.9-1.5-1.4-2.2-1.4v11.8c2.2 1.1 4.2 2.5 5.9 4.2C760 69.1 760.9 71.2 760.9 73.7L760.9 73.7zM749.5 61.5V51.4c-0.8 0-1.6 0.4-2.4 1.2 -0.8 0.8-1.2 1.9-1.2 3.5 0 1 0.2 1.9 0.6 2.8C747 59.8 748 60.7 749.5 61.5L749.5 61.5zM756.2 74.7c0-1.5-0.3-2.8-1-3.8 -0.7-1-1.6-1.9-2.7-2.7v12c0.8-0.1 1.7-0.6 2.5-1.3C755.8 78.3 756.2 76.8 756.2 74.7z"/>
        <path class="st9" d="M916.2 427.8c10.8 0 19.5-8.8 19.5-19.6 0-10.8-8.8-19.5-19.5-19.5 -10.8 0-19.6 8.8-19.6 19.5C896.6 419 905.4 427.8 916.2 427.8z"/>
        <path class="st10" d="M922 412.4c0 2.1-0.5 3.6-1.6 4.6 -1 1-2.1 1.4-3.3 1.4v3h-1.7v-3c-1.4 0-2.5-0.6-3.5-1.7 -1-1.1-1.5-2.9-1.5-5.2h2.8c0 2 0.3 3.3 0.8 3.8 0.6 0.5 1 0.8 1.4 0.8v-7.8c-1.9-1-3.2-2-3.7-2.8 -0.6-0.8-0.8-1.8-0.8-3 0-1.4 0.4-2.6 1.3-3.6 0.8-0.9 1.9-1.5 3.3-1.6v-2.3h1.7v2.3c1.4 0 2.5 0.5 3.3 1.6 0.8 1.1 1.3 2.4 1.3 4h-2.7c0-1.2-0.2-2.1-0.7-2.6 -0.4-0.5-0.9-0.8-1.3-0.8v6.7c1.3 0.6 2.4 1.4 3.4 2.4C921.5 409.8 922 411 922 412.4L922 412.4zM915.5 405.4v-5.8c-0.5 0-0.9 0.2-1.4 0.7 -0.4 0.4-0.7 1.1-0.7 2 0 0.6 0.1 1.1 0.4 1.6C914 404.4 914.6 404.9 915.5 405.4L915.5 405.4zM919.3 413c0-0.9-0.2-1.6-0.6-2.2 -0.4-0.6-0.9-1.1-1.6-1.6v6.9c0.5-0.1 1-0.3 1.4-0.7C919.1 415 919.3 414.2 919.3 413z"/>
        <path class="st11" d="M866.4 130.8c0 3.8 3.1 6.9 6.8 6.9h71c3.7 0 6.8-3.1 6.8-6.9V78c0-3.8-3.1-6.9-6.8-6.9h-71c-3.7 0-6.8 3.1-6.8 6.9V130.8z"/>
        <path class="st10" d="M860.2 107.7c0 3 2.4 5.5 5.4 5.5h25.6c3 0 5.4-2.5 5.4-5.5v-7.2c0-3-2.4-5.5-5.4-5.5h-25.6c-3 0-5.4 2.5-5.4 5.5V107.7z"/>
        <ellipse class="st12" cx="885.7" cy="103.9" rx="4.6" ry="4.7"/>
        <path class="st10" d="M872.8 81.4v0.5c0 0.4-0.3 0.6-0.7 0.6H867c-0.4 0-0.6-0.3-0.6-0.6v-0.5c0-0.4 0.3-0.6 0.6-0.6h5.1C872.5 80.7 872.8 81 872.8 81.4L872.8 81.4zM950.3 80.7h-0.9c-0.4 0-0.6 0.3-0.6 0.6v0.5c0 0.4 0.3 0.6 0.6 0.6h0.9c0.4 0 0.6-0.3 0.6-0.6v-0.5C951 81 950.7 80.7 950.3 80.7L950.3 80.7zM944.9 81.4v0.5c0 0.4-0.3 0.6-0.7 0.6h-5.1c-0.4 0-0.7-0.3-0.7-0.6v-0.5c0-0.4 0.3-0.6 0.7-0.6h5.1C944.6 80.7 944.9 81 944.9 81.4L944.9 81.4zM934.6 81.4v0.5c0 0.4-0.3 0.6-0.6 0.6h-5.1c-0.4 0-0.7-0.3-0.7-0.6v-0.5c0-0.4 0.3-0.6 0.7-0.6h5.1C934.3 80.7 934.6 81 934.6 81.4L934.6 81.4zM924.3 81.4v0.5c0 0.4-0.3 0.6-0.7 0.6h-5.1c-0.4 0-0.6-0.3-0.6-0.6v-0.5c0-0.4 0.3-0.6 0.6-0.6h5.1C924 80.7 924.3 81 924.3 81.4L924.3 81.4zM914 81.4v0.5c0 0.4-0.3 0.6-0.7 0.6h-5.1c-0.4 0-0.6-0.3-0.6-0.6v-0.5c0-0.4 0.3-0.6 0.6-0.6h5.1C913.7 80.7 914 81 914 81.4L914 81.4zM903.7 81.4v0.5c0 0.4-0.3 0.6-0.6 0.6h-5.1c-0.4 0-0.7-0.3-0.7-0.6v-0.5c0-0.4 0.3-0.6 0.7-0.6h5.1C903.4 80.7 903.7 81 903.7 81.4L903.7 81.4zM893.4 81.4v0.5c0 0.4-0.3 0.6-0.6 0.6h-5.1c-0.4 0-0.6-0.3-0.6-0.6v-0.5c0-0.4 0.3-0.6 0.6-0.6h5.1C893.1 80.7 893.4 81 893.4 81.4L893.4 81.4zM883.1 81.4v0.5c0 0.4-0.3 0.6-0.6 0.6h-5.1c-0.4 0-0.6-0.3-0.6-0.6v-0.5c0-0.4 0.3-0.6 0.6-0.6h5.1C882.8 80.7 883.1 81 883.1 81.4z"/>
        <path class="st10" d="M872.8 126.4v0.5c0 0.4-0.3 0.6-0.7 0.6H867c-0.4 0-0.6-0.3-0.6-0.6v-0.5c0-0.4 0.3-0.7 0.6-0.7h5.1C872.5 125.8 872.8 126.1 872.8 126.4L872.8 126.4zM950.3 125.8h-0.9c-0.4 0-0.6 0.3-0.6 0.7v0.5c0 0.4 0.3 0.6 0.6 0.6h0.9c0.4 0 0.6-0.3 0.6-0.6v-0.5C951 126.1 950.7 125.8 950.3 125.8L950.3 125.8zM944.9 126.4v0.5c0 0.4-0.3 0.6-0.7 0.6h-5.1c-0.4 0-0.7-0.3-0.7-0.6v-0.5c0-0.4 0.3-0.7 0.7-0.7h5.1C944.6 125.8 944.9 126.1 944.9 126.4L944.9 126.4zM934.6 126.4v0.5c0 0.4-0.3 0.6-0.6 0.6h-5.1c-0.4 0-0.7-0.3-0.7-0.6v-0.5c0-0.4 0.3-0.7 0.7-0.7h5.1C934.3 125.8 934.6 126.1 934.6 126.4L934.6 126.4zM924.3 126.4v0.5c0 0.4-0.3 0.6-0.7 0.6h-5.1c-0.4 0-0.6-0.3-0.6-0.6v-0.5c0-0.4 0.3-0.7 0.6-0.7h5.1C924 125.8 924.3 126.1 924.3 126.4L924.3 126.4zM914 126.4v0.5c0 0.4-0.3 0.6-0.7 0.6h-5.1c-0.4 0-0.6-0.3-0.6-0.6v-0.5c0-0.4 0.3-0.7 0.6-0.7h5.1C913.7 125.8 914 126.1 914 126.4L914 126.4zM903.7 126.4v0.5c0 0.4-0.3 0.6-0.6 0.6h-5.1c-0.4 0-0.7-0.3-0.7-0.6v-0.5c0-0.4 0.3-0.7 0.7-0.7h5.1C903.4 125.8 903.7 126.1 903.7 126.4L903.7 126.4zM893.4 126.4v0.5c0 0.4-0.3 0.6-0.6 0.6h-5.1c-0.4 0-0.6-0.3-0.6-0.6v-0.5c0-0.4 0.3-0.7 0.6-0.7h5.1C893.1 125.8 893.4 126.1 893.4 126.4L893.4 126.4zM883.1 126.4v0.5c0 0.4-0.3 0.6-0.6 0.6h-5.1c-0.4 0-0.6-0.3-0.6-0.6v-0.5c0-0.4 0.3-0.7 0.6-0.7h5.1C882.8 125.8 883.1 126.1 883.1 126.4z"/>
        <path class="st11" d="M685.1 427.2c0 1.4 1.1 2.5 2.5 2.5h26c1.4 0 2.5-1.1 2.5-2.5v-19.3c0-1.4-1.1-2.5-2.5-2.5h-26c-1.4 0-2.5 1.1-2.5 2.5V427.2z"/>
        <path class="st13" d="M682.8 418.8c0 1.1 0.9 2 2 2h9.4c1.1 0 2-0.9 2-2v-2.6c0-1.1-0.9-2-2-2h-9.4c-1.1 0-2 0.9-2 2V418.8z"/>
        <ellipse class="st12" cx="692.2" cy="417.4" rx="1.7" ry="1.7"/>
        <path class="st10" d="M687.4 409.1v0.2c0 0.1-0.1 0.2-0.2 0.2h-1.9c-0.1 0-0.2-0.1-0.2-0.2v-0.2c0-0.1 0.1-0.2 0.2-0.2h1.9C687.3 408.9 687.4 409 687.4 409.1L687.4 409.1zM715.9 408.9h-0.3c-0.1 0-0.2 0.1-0.2 0.2v0.2c0 0.1 0.1 0.2 0.2 0.2h0.3c0.1 0 0.2-0.1 0.2-0.2v-0.2C716.1 409 716 408.9 715.9 408.9L715.9 408.9zM713.9 409.1v0.2c0 0.1-0.1 0.2-0.2 0.2h-1.9c-0.1 0-0.2-0.1-0.2-0.2v-0.2c0-0.1 0.1-0.2 0.2-0.2h1.9C713.8 408.9 713.9 409 713.9 409.1L713.9 409.1zM710.1 409.1v0.2c0 0.1-0.1 0.2-0.2 0.2H708c-0.1 0-0.2-0.1-0.2-0.2v-0.2c0-0.1 0.1-0.2 0.2-0.2h1.9C710 408.9 710.1 409 710.1 409.1L710.1 409.1zM706.3 409.1v0.2c0 0.1-0.1 0.2-0.2 0.2h-1.9c-0.1 0-0.2-0.1-0.2-0.2v-0.2c0-0.1 0.1-0.2 0.2-0.2h1.9C706.2 408.9 706.3 409 706.3 409.1L706.3 409.1zM702.5 409.1v0.2c0 0.1-0.1 0.2-0.2 0.2h-1.9c-0.1 0-0.2-0.1-0.2-0.2v-0.2c0-0.1 0.1-0.2 0.2-0.2h1.9C702.4 408.9 702.5 409 702.5 409.1L702.5 409.1zM698.8 409.1v0.2c0 0.1-0.1 0.2-0.2 0.2h-1.9c-0.1 0-0.2-0.1-0.2-0.2v-0.2c0-0.1 0.1-0.2 0.2-0.2h1.9C698.7 408.9 698.8 409 698.8 409.1L698.8 409.1zM695 409.1v0.2c0 0.1-0.1 0.2-0.2 0.2h-1.9c-0.1 0-0.2-0.1-0.2-0.2v-0.2c0-0.1 0.1-0.2 0.2-0.2h1.9C694.9 408.9 695 409 695 409.1L695 409.1zM691.2 409.1v0.2c0 0.1-0.1 0.2-0.2 0.2h-1.9c-0.1 0-0.2-0.1-0.2-0.2v-0.2c0-0.1 0.1-0.2 0.2-0.2h1.9C691.1 408.9 691.2 409 691.2 409.1z"/>
        <path class="st10" d="M687.4 425.6v0.2c0 0.1-0.1 0.2-0.2 0.2h-1.9c-0.1 0-0.2-0.1-0.2-0.2v-0.2c0-0.1 0.1-0.2 0.2-0.2h1.9C687.3 425.4 687.4 425.5 687.4 425.6L687.4 425.6zM715.9 425.4h-0.3c-0.1 0-0.2 0.1-0.2 0.2v0.2c0 0.1 0.1 0.2 0.2 0.2h0.3c0.1 0 0.2-0.1 0.2-0.2v-0.2C716.1 425.5 716 425.4 715.9 425.4L715.9 425.4zM713.9 425.6v0.2c0 0.1-0.1 0.2-0.2 0.2h-1.9c-0.1 0-0.2-0.1-0.2-0.2v-0.2c0-0.1 0.1-0.2 0.2-0.2h1.9C713.8 425.4 713.9 425.5 713.9 425.6L713.9 425.6zM710.1 425.6v0.2c0 0.1-0.1 0.2-0.2 0.2H708c-0.1 0-0.2-0.1-0.2-0.2v-0.2c0-0.1 0.1-0.2 0.2-0.2h1.9C710 425.4 710.1 425.5 710.1 425.6L710.1 425.6zM706.3 425.6v0.2c0 0.1-0.1 0.2-0.2 0.2h-1.9c-0.1 0-0.2-0.1-0.2-0.2v-0.2c0-0.1 0.1-0.2 0.2-0.2h1.9C706.2 425.4 706.3 425.5 706.3 425.6L706.3 425.6zM702.5 425.6v0.2c0 0.1-0.1 0.2-0.2 0.2h-1.9c-0.1 0-0.2-0.1-0.2-0.2v-0.2c0-0.1 0.1-0.2 0.2-0.2h1.9C702.4 425.4 702.5 425.5 702.5 425.6L702.5 425.6zM698.8 425.6v0.2c0 0.1-0.1 0.2-0.2 0.2h-1.9c-0.1 0-0.2-0.1-0.2-0.2v-0.2c0-0.1 0.1-0.2 0.2-0.2h1.9C698.7 425.4 698.8 425.5 698.8 425.6L698.8 425.6zM695 425.6v0.2c0 0.1-0.1 0.2-0.2 0.2h-1.9c-0.1 0-0.2-0.1-0.2-0.2v-0.2c0-0.1 0.1-0.2 0.2-0.2h1.9C694.9 425.4 695 425.5 695 425.6L695 425.6zM691.2 425.6v0.2c0 0.1-0.1 0.2-0.2 0.2h-1.9c-0.1 0-0.2-0.1-0.2-0.2v-0.2c0-0.1 0.1-0.2 0.2-0.2h1.9C691.1 425.4 691.2 425.5 691.2 425.6z"/>
        <path class="st11" d="M968.1 371.5h64.4c3.5 0 6.3 2.8 6.3 6.3v37.7c0 3.5-2.8 6.3-6.3 6.3h-64.4c-3.5 0-6.3-2.8-6.3-6.3v-37.7C961.8 374.4 964.6 371.5 968.1 371.5z"/>
        <rect x="961.8" y="381.8" class="st14" width="77" height="10.2"/>
        <rect x="961.8" y="396.7" class="st10" width="49" height="6.4"/>
        <rect x="1013.6" y="396.7" class="st10" width="19.1" height="6.4"/>
        <path class="st15" d="M985 421.9h47.5c3.5 0 6.3-2.8 6.3-6.3v-37.7c0-3.5-2.8-6.3-6.3-6.3h-19.2L985 421.9z"/>
        <path class="st9" d="M607.9 146.3c0 7.1-1.8 12.3-5.3 15.5 -3.6 3.3-7.2 4.9-11.1 4.9V177h-5.7v-10.2c-4.6 0-8.7-1.9-12.1-5.7 -3.4-3.8-5.1-9.7-5.1-17.6h9.4c0 6.8 0.9 11.1 2.9 12.9 1.9 1.8 3.5 2.7 4.9 2.7v-26.6c-6.5-3.5-10.8-6.8-12.7-9.6 -1.9-2.9-2.9-6.2-2.9-10 0-4.9 1.4-8.9 4.3-12.1 2.9-3.1 6.6-5 11.2-5.5v-7.8h5.7v7.8c4.6 0 8.4 1.9 11.3 5.5 2.9 3.7 4.3 8.2 4.3 13.7h-9c0-4.1-0.8-7-2.3-8.8 -1.5-1.8-2.9-2.7-4.3-2.7v22.9c4.4 2.2 8.2 4.9 11.5 8.2C606.3 137.3 607.9 141.4 607.9 146.3L607.9 146.3zM585.8 122.6v-19.7c-1.6 0-3.2 0.8-4.7 2.3 -1.5 1.5-2.3 3.8-2.3 6.8 0 1.9 0.4 3.8 1.2 5.5C580.9 119.2 582.8 120.9 585.8 122.6L585.8 122.6zM598.9 148.4c0-3-0.7-5.5-2-7.4 -1.4-1.9-3.1-3.7-5.3-5.3V159c1.6-0.3 3.3-1.1 4.9-2.4C598.1 155.2 598.9 152.5 598.9 148.4z"/>
        <path class="st10" d="M632.4 45.3h43.7c2.3 0 4.1 1.9 4.1 4.1v33.8c0 2.3-1.9 4.1-4.1 4.1h-43.7c-2.3 0-4.1-1.9-4.1-4.1V49.4C628.3 47.2 630.2 45.3 632.4 45.3z"/>
        <circle class="st16" cx="630.4" cy="66.4" r="1"/>
        <rect x="632.5" y="49.8" class="st17" width="43.6" height="33.1"/>
        <polygon class="st9" points="671.5 49.8 632.5 77.8 632.5 82.9 676.1 82.9 676.1 49.8 "/>
        <path class="st18" d="M632.5 49.8c1.1 0 2.2 0 3.3 0 -0.2 0.7-0.5 1.4-0.7 2.1 -0.3 0.7-0.5 1.5-0.8 2.2 -0.3 0.8-0.6 1.6-0.9 2.4 -0.3 0.9-0.6 1.7-0.9 2.7 -1.3 0-2.7 0-4 0 0.4-0.9 0.8-1.8 1.1-2.7 0.4-0.8 0.7-1.6 1-2.4 0.3-0.8 0.6-1.5 0.9-2.2C631.9 51.1 632.2 50.4 632.5 49.8z"/>
        <path class="st18" d="M659.3 49.8c1.1 0 2.2 0 3.4 0 0.1 0.7 0.2 1.4 0.4 2.1 0.1 0.7 0.3 1.5 0.4 2.2 0.1 0.8 0.3 1.6 0.4 2.4 0.2 0.9 0.3 1.8 0.5 2.7 -1.3 0-2.7 0-4 0 -0.1-0.9-0.2-1.8-0.3-2.7 -0.1-0.8-0.2-1.6-0.3-2.4 -0.1-0.8-0.2-1.5-0.2-2.2C659.5 51.1 659.4 50.4 659.3 49.8z"/>
        <path class="st18" d="M645.9 49.8c1.1 0 2.2 0 3.4 0 -0.1 0.7-0.1 1.4-0.2 2.1 -0.1 0.7-0.1 1.5-0.2 2.2 -0.1 0.8-0.1 1.6-0.2 2.4 -0.1 0.9-0.2 1.7-0.2 2.7 -1.3 0-2.7 0-4 0 0.1-0.9 0.3-1.8 0.4-2.7 0.1-0.8 0.3-1.6 0.4-2.4 0.1-0.8 0.2-1.5 0.4-2.2C645.7 51.1 645.8 50.4 645.9 49.8z"/>
        <path class="st18" d="M672.7 49.8c1.1 0 2.2 0 3.4 0 0.3 0.7 0.6 1.4 0.9 2.1 0.3 0.7 0.7 1.5 1 2.2 0.4 0.8 0.7 1.6 1.1 2.4 0.4 0.9 0.8 1.7 1.2 2.7 -1.3 0-2.7 0-4 0 -0.3-0.9-0.7-1.8-1-2.7 -0.3-0.8-0.6-1.6-0.9-2.4 -0.3-0.8-0.6-1.5-0.8-2.2C673.2 51.1 673 50.4 672.7 49.8z"/>
        <path class="st18" d="M639.2 49.8c1.1 0 2.2 0 3.4 0 -0.1 0.7-0.3 1.4-0.5 2.1 -0.2 0.7-0.3 1.5-0.5 2.2 -0.2 0.8-0.4 1.6-0.5 2.4 -0.2 0.9-0.4 1.7-0.6 2.7 -1.3 0-2.7 0-4 0 0.3-0.9 0.5-1.8 0.8-2.7 0.2-0.8 0.5-1.6 0.7-2.4 0.2-0.8 0.4-1.5 0.6-2.2C638.8 51.1 639 50.4 639.2 49.8z"/>
        <path class="st18" d="M666 49.8c1.1 0 2.2 0 3.4 0 0.2 0.7 0.4 1.4 0.6 2.1 0.2 0.7 0.5 1.5 0.7 2.2 0.2 0.8 0.5 1.6 0.8 2.4 0.3 0.9 0.5 1.7 0.8 2.7 -1.3 0-2.7 0-4 0 -0.2-0.9-0.4-1.8-0.7-2.7 -0.2-0.8-0.4-1.6-0.6-2.4 -0.2-0.8-0.4-1.5-0.5-2.2C666.3 51.1 666.2 50.4 666 49.8z"/>
        <path class="st18" d="M652.6 49.8c1.1 0 2.2 0 3.4 0 0 0.7 0.1 1.4 0.1 2.1 0 0.7 0.1 1.5 0.1 2.2 0 0.8 0.1 1.6 0.1 2.4 0 0.9 0.1 1.7 0.1 2.7 -1.3 0-2.7 0-4 0 0-0.9 0-1.8 0.1-2.7 0-0.8 0-1.6 0.1-2.4 0-0.8 0-1.5 0-2.2C652.6 51.1 652.6 50.4 652.6 49.8z"/>
        <path class="st10" d="M635.8 49.8c1.1 0 2.2 0 3.3 0 -0.2 0.7-0.4 1.4-0.6 2.1 -0.2 0.7-0.4 1.5-0.6 2.2 -0.2 0.8-0.5 1.6-0.7 2.4 -0.2 0.9-0.5 1.7-0.8 2.7 -1.3 0-2.7 0-4 0 0.3-0.9 0.6-1.8 0.9-2.7 0.3-0.8 0.6-1.6 0.9-2.4 0.3-0.8 0.5-1.5 0.8-2.2C635.4 51.1 635.6 50.4 635.8 49.8z"/>
        <path class="st10" d="M662.7 49.8c1.1 0 2.2 0 3.4 0 0.2 0.7 0.3 1.4 0.5 2.1 0.2 0.7 0.4 1.5 0.5 2.2 0.2 0.8 0.4 1.6 0.6 2.4 0.2 0.9 0.4 1.8 0.7 2.7 -1.3 0-2.7 0-4 0 -0.2-0.9-0.3-1.8-0.5-2.7 -0.1-0.8-0.3-1.6-0.4-2.4 -0.1-0.8-0.3-1.5-0.4-2.2C662.9 51.1 662.8 50.4 662.7 49.8z"/>
        <path class="st10" d="M649.2 49.8c1.1 0 2.2 0 3.4 0 0 0.7 0 1.4 0 2.1 0 0.7 0 1.5 0 2.2 0 0.8 0 1.6-0.1 2.4 0 0.9 0 1.7-0.1 2.7 -1.3 0-2.7 0-4 0 0.1-0.9 0.2-1.8 0.2-2.7 0.1-0.8 0.1-1.6 0.2-2.4 0.1-0.8 0.1-1.5 0.2-2.2C649.1 51.1 649.2 50.4 649.2 49.8z"/>
        <path class="st10" d="M642.5 49.8c1.1 0 2.2 0 3.4 0 -0.1 0.7-0.2 1.4-0.3 2.1 -0.1 0.7-0.2 1.5-0.4 2.2 -0.1 0.8-0.2 1.6-0.4 2.4 -0.1 0.9-0.3 1.7-0.4 2.7 -1.3 0-2.7 0-4 0 0.2-0.9 0.4-1.8 0.6-2.7 0.2-0.8 0.4-1.6 0.5-2.4 0.2-0.8 0.3-1.5 0.5-2.2C642.2 51.1 642.4 50.4 642.5 49.8z"/>
        <path class="st10" d="M669.4 49.8c1.1 0 2.2 0 3.4 0 0.3 0.7 0.5 1.4 0.8 2.1 0.3 0.7 0.6 1.5 0.8 2.2 0.3 0.8 0.6 1.6 0.9 2.4 0.3 0.9 0.7 1.7 1 2.7 -1.3 0-2.7 0-4 0 -0.3-0.9-0.6-1.8-0.8-2.7 -0.3-0.8-0.5-1.6-0.8-2.4 -0.2-0.8-0.5-1.5-0.7-2.2C669.8 51.1 669.6 50.4 669.4 49.8z"/>
        <path class="st10" d="M656 49.8c1.1 0 2.2 0 3.4 0 0.1 0.7 0.2 1.4 0.2 2.1 0.1 0.7 0.2 1.5 0.2 2.2 0.1 0.8 0.2 1.6 0.3 2.4 0.1 0.9 0.2 1.7 0.3 2.7 -1.3 0-2.7 0-4 0 0-0.9-0.1-1.8-0.1-2.7 0-0.8-0.1-1.6-0.1-2.4 0-0.8-0.1-1.5-0.1-2.2C656 51.1 656 50.4 656 49.8z"/>
        <path class="st19" d="M628.5 59.2c0 1.2 0.9 2.1 2 2.1 1.1 0 2-0.9 2-2.1h0H628.5z"/>
        <path class="st13" d="M632.5 59.2c0 1.2 0.9 2.1 2 2.1 1.1 0 2-0.9 2-2.1h0H632.5z"/>
        <path class="st19" d="M644.4 59.2c0 1.2 0.9 2.1 2 2.1 1.1 0 2-0.9 2-2.1h0H644.4z"/>
        <path class="st13" d="M656.4 59.2c0 1.2 0.9 2.1 2 2.1 1.1 0 2-0.9 2-2.1h0H656.4z"/>
        <path class="st19" d="M668.3 59.2c0 1.2 0.9 2.1 2 2.1 1.1 0 2-0.9 2-2.1h0H668.3z"/>
        <path class="st19" d="M636.5 59.2c0 1.2 0.9 2.1 2 2.1 1.1 0 2-0.9 2-2.1h0H636.5z"/>
        <path class="st13" d="M648.4 59.2c0 1.2 0.9 2.1 2 2.1 1.1 0 2-0.9 2-2.1h0H648.4z"/>
        <path class="st19" d="M660.3 59.2c0 1.2 0.9 2.1 2 2.1 1.1 0 2-0.9 2-2.1h0H660.3z"/>
        <path class="st13" d="M672.3 59.2c0 1.2 0.9 2.1 2 2.1 1.1 0 2-0.9 2-2.1h0H672.3z"/>
        <path class="st13" d="M640.4 59.2c0 1.2 0.9 2.1 2 2.1 1.1 0 2-0.9 2-2.1h0H640.4z"/>
        <path class="st19" d="M652.4 59.2c0 1.2 0.9 2.1 2 2.1 1.1 0 2-0.9 2-2.1h0H652.4z"/>
        <path class="st13" d="M664.3 59.2c0 1.2 0.9 2.1 2 2.1 1.1 0 2-0.9 2-2.1h0H664.3z"/>
        <path class="st19" d="M676.3 59.2c0 1.2 0.9 2.1 2 2.1 1.1 0 2-0.9 2-2.1h0H676.3z"/>
        <path class="st20" d="M624.4 82.9h59.8c1.1 0 2.1 0.9 2.1 2.1v0.5c0 1.1-0.9 2.1-2.1 2.1h-59.8c-1.1 0-2.1-0.9-2.1-2.1V85C622.3 83.8 623.2 82.9 624.4 82.9z"/>
        <rect x="689.9" y="164.9" class="st11" width="198.9" height="209.2"/>
        <path class="st10" d="M789.4 135.1c13.6 0 25.9 5.5 34.8 14.4 8.9 8.9 14.4 21.2 14.4 34.8h-5.4c0-12.1-4.9-23-12.8-31 -7.9-7.9-18.9-12.8-31-12.8 -12.1 0-23 4.9-31 12.8 -7.9 7.9-12.8 18.9-12.8 31h-5.4c0-13.6 5.5-25.9 14.4-34.8C763.5 140.6 775.8 135.1 789.4 135.1z"/>
        <path class="st21" d="M743.5 194.2c3.3 0 6-2.7 6-6 0-3.3-2.7-6-6-6 -3.3 0-6 2.7-6 6C737.5 191.4 740.2 194.2 743.5 194.2z"/>
        <path class="st21" d="M835.3 194.2c3.3 0 6-2.7 6-6 0-3.3-2.7-6-6-6 -3.3 0-6 2.7-6 6C829.2 191.4 831.9 194.2 835.3 194.2z"/>
        <rect x="631.6" y="217.1" class="st18" width="149.2" height="156.9"/>
        <path class="st10" d="M706.2 194.8c10.2 0 19.4 4.1 26.1 10.8 6.7 6.7 10.8 15.9 10.8 26.1h-4c0-9.1-3.7-17.3-9.6-23.2 -5.9-5.9-14.2-9.6-23.2-9.6s-17.3 3.7-23.2 9.6c-5.9 5.9-9.6 14.2-9.6 23.2h-4c0-10.2 4.1-19.4 10.8-26.1C686.8 198.9 696 194.8 706.2 194.8z"/>
        <path class="st21" d="M671.8 239.1c2.5 0 4.5-2 4.5-4.5 0-2.5-2-4.5-4.5-4.5 -2.5 0-4.5 2-4.5 4.5C667.3 237.1 669.3 239.1 671.8 239.1z"/>
        <path class="st21" d="M740.7 239.1c2.5 0 4.5-2 4.5-4.5 0-2.5-2-4.5-4.5-4.5 -2.5 0-4.5 2-4.5 4.5C736.1 237.1 738.2 239.1 740.7 239.1z"/>
        <path class="st18" d="M721.2 140.7c1.5 0.3 3.5-0.4 4.5-1.7l16.9-22.1c0.9-1.2 1.4-3.5 1-5l-6.7-26.9c-0.4-1.5-1.9-3-3.4-3.3L667.6 68c-1.5-0.3-3 0.7-3.3 2.2l-5 23.9c-0.3 1.5-0.8 4-1.1 5.5l-5 23.9c-0.3 1.5 0.7 3 2.2 3.3L721.2 140.7z"/>
        <path class="st22" d="M732 105.7c3.8 0.8 6.3 4.4 5.5 8 -0.8 3.6-4.4 6-8.2 5.2 -3.8-0.8-6.3-4.4-5.5-8C724.5 107.2 728.2 104.9 732 105.7z"/>
        <path class="st21" d="M731.4 108.3c2.3 0.5 3.8 2.6 3.3 4.8 -0.5 2.2-2.7 3.6-5 3.1 -2.3-0.5-3.8-2.6-3.3-4.8C726.9 109.2 729.2 107.8 731.4 108.3z"/>
        <path class="st10" d="M741.7 107.6c-1.3-0.1-2.7-0.8-2.6-2.5 -0.1-1.9 1.6-2.5 3-2.4 11.5 0.9 29.5 7.5 43.2 15.9 5.7 3.5 10.7 7.3 14.2 11.1 3.8 4.1 6 8.4 5.7 12.5 -0.1 1.6-0.6 3.1-1.5 4.6 -1.1 1.9-2.7 3.2-4.7 4.2 -4.7 2.3-11.6 2.1-19.3 0.1 -7.4-2-15.6-5.6-23.4-10.4 -11.9-7.2-22.7-17.1-27.7-27.3 -0.6-1.2-0.1-2.7 1.1-3.3 1.2-0.6 2.7-0.1 3.3 1.1 4.6 9.4 14.7 18.5 25.8 25.3 7.4 4.5 15.2 8 22.1 9.8 6.6 1.7 12.3 2 15.9 0.3 1.1-0.6 2.1-1.3 2.7-2.4 0.5-0.8 0.7-1.6 0.8-2.5 0.2-2.6-1.5-5.7-4.4-8.8 -3.2-3.5-7.8-7-13.1-10.2C769.6 114.7 752.5 108.4 741.7 107.6z"/>
        <polygon class="st18" points="740.7 100.5 742.9 109.4 739.2 109.9 735.3 101.5 "/>
        <path class="st10" d="M702 112.4c-0.6 3.1-1.8 5.1-3.6 6.3 -1.8 1.1-3.5 1.5-5.2 1.2l-0.8 4.4 -2.5-0.5 0.8-4.4c-2-0.4-3.6-1.5-4.7-3.5 -1.2-1.9-1.4-4.6-0.8-8l4.1 0.8c-0.6 2.9-0.5 4.9 0.2 5.8 0.7 0.9 1.3 1.4 1.9 1.5l2.2-11.5c-2.5-2.1-4.1-3.8-4.7-5.2 -0.6-1.4-0.7-2.9-0.4-4.6 0.4-2.1 1.3-3.7 2.8-4.9 1.5-1.1 3.2-1.6 5.3-1.5l0.6-3.4 2.5 0.5 -0.6 3.4c2 0.4 3.5 1.5 4.4 3.3 0.9 1.8 1.2 3.9 0.7 6.3l-3.9-0.7c0.3-1.8 0.2-3.1-0.3-4 -0.5-0.9-1-1.4-1.6-1.5l-1.9 9.9c1.7 1.3 3.1 2.8 4.3 4.5C702 108.4 702.4 110.3 702 112.4L702 112.4zM694.4 100.4l1.6-8.5c-0.7-0.1-1.4 0.1-2.2 0.6 -0.8 0.5-1.3 1.4-1.5 2.7 -0.2 0.8-0.1 1.7 0.1 2.5C692.5 98.6 693.2 99.5 694.4 100.4L694.4 100.4zM697.9 112.6c0.2-1.3 0.1-2.4-0.3-3.3 -0.4-0.9-1.1-1.8-1.9-2.7l-1.9 10.1c0.7 0 1.5-0.2 2.3-0.7C697 115.5 697.6 114.4 697.9 112.6z"/>
        <path class="st21" d="M934.9 193.2l-8.4-5 23.7-39.8c1.4-2.3 4.4-3.1 6.7-1.7l0 0c2.3 1.4 3.1 4.4 1.7 6.7L934.9 193.2z"/>
        <path class="st21" d="M920.1 202.2l0.5-24.3c0-1.6 0.9-3 2.3-3.8 1.4-0.8 3-0.8 4.5 0.1l20.6 12.3c1.4 0.8 2.2 2.2 2.2 3.9 0 1.6-0.8 3-2.3 3.8l-21.1 12c-1.4 0.8-3.1 0.8-4.5 0C920.9 205.3 920.1 203.8 920.1 202.2z"/>
        <path class="st21" d="M850.4 111.3L850.4 111.3c2.3 0 4.2 1.9 4.2 4.2v33.4c0 2.3-1.9 4.2-4.2 4.2l0 0c-2.3 0-4.2-1.9-4.2-4.2v-33.4C846.2 113.2 848.1 111.3 850.4 111.3z"/>
        <path class="st21" d="M829.5 132.2L829.5 132.2c0-2.3 1.9-4.2 4.2-4.2h33.4c2.3 0 4.2 1.9 4.2 4.2l0 0c0 2.3-1.9 4.2-4.2 4.2h-33.4C831.4 136.4 829.5 134.5 829.5 132.2z"/>
        <path class="st21" d="M601.2 389.1L601.2 389.1c2.3 0 4.2 1.9 4.2 4.2v33.4c0 2.3-1.9 4.2-4.2 4.2l0 0c-2.3 0-4.2-1.9-4.2-4.2v-33.4C597 391 598.8 389.1 601.2 389.1z"/>
        <path class="st21" d="M580.2 410L580.2 410c0-2.3 1.9-4.2 4.2-4.2h33.4c2.3 0 4.2 1.9 4.2 4.2l0 0c0 2.3-1.9 4.2-4.2 4.2h-33.4C582.1 414.2 580.2 412.3 580.2 410z"/>
        <path class="st10" d="M884.6 313.3h92.1c2.5 1.2 9.6 5.6 8.8 16.7H878.5c-2.8 0-5.1 2.3-5.1 5.1 0 2.8 2.3 5.1 5.1 5.1h111.3c2.4 0 4.5-1.7 5-4 3.6-16.5-4.3-26.4-11.3-30.8l15.3-72.9 33.6-13.8c2.6-1.1 3.9-4 2.8-6.7 -1.1-2.6-4.1-3.9-6.7-2.8l-36.1 14.8c-1.1 0.5-2 1.3-2.6 2.3H863h-0.2 -10c-3 0-5.5 2.3-5.5 5.1 0 2.8 2.4 5.1 5.5 5.1h6.3l20.6 72.9C880.4 311.8 882.4 313.3 884.6 313.3L884.6 313.3zM973.6 303.1h-9.2l1.3-9.4h9.9L973.6 303.1 973.6 303.1zM977.3 285.5h-10.4l1.5-10.5h11.2L977.3 285.5 977.3 285.5zM981.2 266.8h-11.8l1.5-10.5h12.5L981.2 266.8 981.2 266.8zM985.2 248.1h-13.1l1.6-11.4h13.9L985.2 248.1 985.2 248.1zM965.4 236.7l-1.6 11.4h-17l0.4-11.4H965.4L965.4 236.7zM939.1 236.7l-0.4 11.4h-16l-1-11.4H939.1L939.1 236.7zM913.4 236.7l1 11.4h-16.2l-1.7-11.4H913.4L913.4 236.7zM888.2 236.7l1.7 11.4h-17l-3.2-11.4H888.2L888.2 236.7zM906.4 303.1l-1.4-9.4h13.3l0.8 9.4H906.4L906.4 303.1zM903.8 285.5l-1.6-10.5h14.5l0.9 10.5H903.8L903.8 285.5zM901 266.8l-1.6-10.5h15.7l0.9 10.5H901L901 266.8zM891.2 256.3l1.6 10.5h-14.5l-3-10.5H891.2L891.2 256.3zM894 275l1.6 10.5h-12l-3-10.5H894L894 275zM896.8 293.7l1.4 9.4h-9.7l-2.7-9.4H896.8L896.8 293.7zM927.3 303.1l-0.8-9.4h10.4l-0.4 9.4H927.3L927.3 303.1zM925.8 285.5l-0.9-10.5h12.7l-0.4 10.5H925.8L925.8 285.5zM924.2 266.8l-0.9-10.5h15l-0.4 10.5H924.2L924.2 266.8zM944.7 303.1l0.4-9.4h12.4l-1.3 9.4H944.7L944.7 303.1zM945.4 285.5l0.4-10.5h14.3l-1.5 10.5H945.4L945.4 285.5zM946.1 266.8l0.4-10.5h16.2l-1.5 10.5H946.1z"/>
        <path class="st13" d="M969.2 358.9c0 4.2 3.4 7.7 7.7 7.7 4.2 0 7.7-3.4 7.7-7.7 0-4.2-3.4-7.7-7.7-7.7C972.7 351.3 969.2 354.7 969.2 358.9z"/>
        <path class="st18" d="M961.8 358.9c0 8.4 6.8 15.2 15.2 15.2 8.4 0 15.2-6.8 15.2-15.2 0-8.4-6.8-15.2-15.2-15.2C968.5 343.8 961.8 350.5 961.8 358.9z"/>
        <path class="st9" d="M969.2 358.9c0 4.2 3.4 7.7 7.7 7.7 4.2 0 7.7-3.4 7.7-7.7 0-4.2-3.4-7.7-7.7-7.7C972.7 351.3 969.2 354.7 969.2 358.9z"/>
        <circle class="st18" cx="896.1" cy="358.9" r="15.1"/>
        <path class="st9" d="M888.4 358.9c0 4.2 3.4 7.7 7.7 7.7 4.2 0 7.7-3.4 7.7-7.7 0-4.2-3.4-7.7-7.7-7.7C891.9 351.3 888.4 354.7 888.4 358.9z"/>
        <path class="st13" d="M671.7 341c1.9-1.8 4.5-6.1 7.3-10.8 2.9-4.9 6.1-10.2 9.3-14.1 3.5-4.3 7.3-6.2 10.3-6.4 1.6-0.1 3.1 0.3 4.3 1.1 1.3 0.8 2.2 2 2.7 3.5 0.9 2.6 0.6 6.3-1.7 10.6 -2.6 4.7-6.7 8.8-11.4 12.1 -5.7 4-12.3 6.9-18.1 8.8l-11.9 3.8L671.7 341 671.7 341zM683.8 333L683.8 333c-0.8 1.3-1.5 2.6-2.3 3.8 2.7-1.3 5.3-2.8 7.8-4.5 4.1-2.9 7.6-6.3 9.7-10.2 1.5-2.7 1.8-4.7 1.4-6 -0.1-0.3-0.3-0.5-0.5-0.7 -0.2-0.1-0.5-0.2-1-0.2 -1.7 0.1-3.9 1.4-6.3 4.4C689.6 323.3 686.6 328.4 683.8 333z"/>
        <path class="st13" d="M671.7 341c-1.9-1.8-4.5-6.1-7.3-10.8 -2.9-4.9-6.1-10.2-9.3-14.1 -3.5-4.3-7.3-6.2-10.3-6.4 -1.6-0.1-3.1 0.3-4.3 1.1 -1.3 0.8-2.2 2-2.7 3.5 -0.9 2.6-0.6 6.3 1.7 10.6 2.6 4.7 6.7 8.8 11.4 12.1 5.7 4 12.3 6.9 18.1 8.8l11.9 3.8L671.7 341 671.7 341zM659.6 333L659.6 333c0.8 1.3 1.5 2.6 2.3 3.8 -2.7-1.3-5.3-2.8-7.8-4.5 -4.1-2.9-7.6-6.3-9.7-10.2 -1.5-2.7-1.8-4.7-1.4-6 0.1-0.3 0.3-0.5 0.5-0.7 0.2-0.1 0.6-0.2 1-0.2 1.7 0.1 3.9 1.4 6.3 4.4C653.8 323.3 656.8 328.4 659.6 333z"/>
        <rect x="624.3" y="354.2" class="st21" width="94.8" height="34.7"/>
        <rect x="619.6" y="341" class="st11" width="104.2" height="13.2"/>
        <polygon class="st11" points="624.3 354.2 671.7 354.2 671.7 341 619.6 341 619.6 354.2 "/>
        <rect x="665.6" y="341" class="st13" width="12.3" height="47.9"/>
        <path class="st13" d="M668.5 329.9h6.5c1.6 0 2.9 1.3 2.9 2.9v5.3c0 1.6-1.3 2.9-2.9 2.9h-6.5c-1.6 0-2.9-1.3-2.9-2.9v-5.3C665.6 331.2 666.9 329.9 668.5 329.9z"/>
        <path class="st10" d="M998.4 154.7c1.2 0.1 2.4 0.3 3.5 0.6l4.7-4.8 7.4 4.7 -2.3 6.3c0.8 0.9 1.5 1.9 2.1 2.9l6.7 0 1.9 8.5 -6.1 2.8c-0.1 1.2-0.3 2.4-0.6 3.5l4.8 4.7 -4.7 7.4 -6.3-2.3c-0.9 0.8-1.9 1.5-2.9 2.1l0 6.7 -8.5 1.9 -2.8-6.1c-1.2-0.1-2.4-0.3-3.5-0.6l-4.7 4.8 -7.4-4.7 2.3-6.3c-0.8-0.9-1.5-1.9-2.1-2.9l-6.7 0 -1.9-8.5 6.1-2.8c0.1-1.2 0.3-2.4 0.6-3.5l-4.8-4.7 4.7-7.4 6.3 2.3c0.9-0.8 1.9-1.5 2.9-2.1l0-6.7 8.5-1.9L998.4 154.7 998.4 154.7zM993.6 159.6L993.6 159.6c-8.1 1.8-13.1 9.8-11.3 17.9 1.8 8.1 9.8 13.1 17.9 11.3 8.1-1.8 13.1-9.8 11.3-17.9C1009.7 162.9 1001.7 157.8 993.6 159.6z"/>
        <path class="st10" d="M597.1 265.3c0.7 0.1 1.5 0.2 2.2 0.4l2.9-2.9 4.5 2.8 -1.4 3.8c0.5 0.5 0.9 1.1 1.3 1.8l4.1 0 1.2 5.2 -3.7 1.7c-0.1 0.7-0.2 1.5-0.4 2.2l2.9 2.9 -2.8 4.5 -3.8-1.4c-0.5 0.5-1.1 0.9-1.8 1.3l0 4.1 -5.2 1.2 -1.7-3.7c-0.7-0.1-1.5-0.2-2.2-0.4l-2.9 2.9 -4.5-2.8 1.4-3.8c-0.5-0.6-0.9-1.1-1.3-1.8l-4.1 0 -1.2-5.2 3.7-1.7c0.1-0.7 0.2-1.5 0.4-2.2l-2.9-2.9 2.8-4.5 3.8 1.4c0.6-0.5 1.1-0.9 1.8-1.3l0-4.1 5.2-1.2L597.1 265.3 597.1 265.3zM594.2 268.3L594.2 268.3c-4.9 1.1-8 6-6.9 10.9 1.1 4.9 6 8 10.9 6.9 4.9-1.1 8-6 6.9-10.9C603.9 270.2 599.1 267.1 594.2 268.3z"/>
        <path class="st10" d="M574.5 248.6c0.5 0 1 0.1 1.5 0.3l2-2 3.1 2 -1 2.7c0.3 0.4 0.6 0.8 0.9 1.3l2.9 0 0.8 3.6 -2.6 1.2c0 0.5-0.1 1-0.3 1.5l2 2 -2 3.1 -2.7-1c-0.4 0.3-0.8 0.6-1.3 0.9l0 2.9 -3.6 0.8 -1.2-2.6c-0.5 0-1-0.1-1.5-0.3l-2 2 -3.1-2 1-2.7c-0.3-0.4-0.6-0.8-0.9-1.2l-2.9 0 -0.8-3.6 2.6-1.2c0-0.5 0.1-1 0.3-1.5l-2-2 2-3.1 2.7 1c0.4-0.3 0.8-0.6 1.3-0.9l0-2.9 3.6-0.8L574.5 248.6 574.5 248.6zM572.4 250.7L572.4 250.7c-3.4 0.8-5.6 4.2-4.8 7.6 0.8 3.4 4.2 5.6 7.6 4.8 3.4-0.8 5.6-4.2 4.8-7.6C579.2 252.1 575.8 249.9 572.4 250.7z"/>
        <g class="st23">
            <path class="st24" d="M1052.6 335.7h-3.2l0-1.9c0-0.8 0.7-1.5 1.5-1.5h0.2c0.8 0 1.5 0.7 1.5 1.5L1052.6 335.7zM1040.5 331.7c-0.8 0-1.5 0.6-1.5 1.2v9.1c0 0.7 0.7 1.2 1.5 1.2 0.8 0 1.5-0.5 1.5-1.2v-9.1C1042 332.2 1041.3 331.7 1040.5 331.7L1040.5 331.7zM1060.1 326.6v17.3c0 4.2-3.6 7.6-8 7.6h-32.9c-4.4 0-8-3.4-8-7.6v-17.3c0-4.2 3.6-7.6 8-7.6h32.9C1056.5 319 1060.1 322.4 1060.1 326.6L1060.1 326.6zM1021.4 345.8v-18.3h4.1v-2.7l-10.9 0v2.7l3.4 0v18.3H1021.4zM1033.6 330.3h-3.4v9.7c0 1.4 0.1 2.1 0 2.4 -0.3 0.8-1.5 1.6-2 0.1 -0.1-0.3 0-1 0-2.4l0-9.8h-3.4l0 9.7c0 1.5 0 2.6 0 3.1 0.1 0.9 0.1 1.9 0.9 2.5 1.5 1.1 4.5-0.2 5.2-1.7l0 2 2.7 0L1033.6 330.3 1033.6 330.3zM1044.5 341.4l0-8.1c0-3.1-2.3-4.9-5.5-2.4l0-6 -3.4 0 0 20.8 2.8 0 0.3-1.3C1042.3 347.6 1044.5 345.4 1044.5 341.4L1044.5 341.4zM1055.2 340.3l-2.6 0c0 0.1 0 0.2 0 0.3v1.4c0 0.8-0.6 1.4-1.4 1.4h-0.5c-0.8 0-1.4-0.6-1.4-1.4v-3.7h5.8v-2.2c0-1.6 0-3.2-0.2-4.1 -0.4-2.9-4.5-3.4-6.6-1.9 -0.6 0.5-1.1 1.1-1.4 1.9 -0.3 0.8-0.4 2-0.4 3.4v4.8C1046.6 348.4 1056.3 347.3 1055.2 340.3L1055.2 340.3zM1042.1 314.1c0.2 0.4 0.4 0.8 0.8 1 0.4 0.3 0.8 0.4 1.4 0.4 0.5 0 0.9-0.1 1.3-0.4 0.4-0.3 0.7-0.7 1-1.2l-0.1 1.3h3.8v-16.1h-3v12.6c0 0.7-0.6 1.2-1.2 1.2 -0.7 0-1.2-0.6-1.2-1.2v-12.6h-3.1V310c0 1.4 0 2.3 0.1 2.8C1041.8 313.2 1041.9 313.7 1042.1 314.1L1042.1 314.1zM1030.6 305c0-1.5 0.1-2.8 0.4-3.6 0.3-0.9 0.7-1.6 1.4-2.1 0.7-0.5 1.5-0.8 2.6-0.8 0.9 0 1.6 0.2 2.3 0.5 0.6 0.3 1.1 0.8 1.5 1.3 0.3 0.5 0.6 1.1 0.7 1.7 0.1 0.6 0.2 1.5 0.2 2.6v4.1c0 1.5-0.1 2.6-0.2 3.3 -0.1 0.7-0.4 1.4-0.7 2 -0.4 0.6-0.9 1.1-1.5 1.3 -0.6 0.3-1.3 0.4-2.1 0.4 -0.9 0-1.6-0.1-2.2-0.4 -0.6-0.2-1.1-0.6-1.4-1.1 -0.3-0.5-0.6-1.1-0.7-1.8 -0.1-0.7-0.2-1.8-0.2-3.2V305zM1033.5 311.4c0 0.9 0.7 1.7 1.5 1.7 0.8 0 1.5-0.7 1.5-1.7v-8.6c0-0.9-0.7-1.7-1.5-1.7 -0.8 0-1.5 0.7-1.5 1.7V311.4zM1023 315.7h3.6l0-12.4 4.2-10.6h-3.9l-2.3 7.9 -2.3-7.9h-3.9l4.5 10.6L1023 315.7zM1023 315.7"/>
        </g>
        <path class="st25" d="M601.2 322.1c0 11.1-9 20-20.2 20 -3.5 0-6.9-0.9-9.8-2.5l-11.2 3.6 3.6-10.8c-1.8-3-2.9-6.6-2.9-10.3 0-11.1 9-20 20.2-20C592.1 302.1 601.2 311.1 601.2 322.1L601.2 322.1zM581 305.3c-9.4 0-17 7.6-17 16.9 0 3.7 1.2 7.1 3.2 9.9l-2.1 6.3 6.5-2.1c2.7 1.8 5.9 2.8 9.3 2.8 9.4 0 17-7.6 17-16.9C597.9 312.8 590.3 305.3 581 305.3L581 305.3zM591.2 326.7c-0.1-0.2-0.5-0.3-0.9-0.6 -0.5-0.2-2.9-1.4-3.4-1.6 -0.5-0.2-0.8-0.2-1.1 0.2 -0.3 0.5-1.3 1.6-1.6 1.9 -0.3 0.3-0.6 0.4-1.1 0.1 -0.5-0.2-2.1-0.8-4-2.4 -1.5-1.3-2.5-2.9-2.8-3.4 -0.3-0.5 0-0.8 0.2-1 0.2-0.2 0.5-0.6 0.7-0.9 0.2-0.3 0.3-0.5 0.5-0.8 0.2-0.3 0.1-0.6 0-0.9 -0.1-0.2-1.1-2.7-1.5-3.6 -0.4-1-0.8-0.8-1.1-0.8 -0.3 0-0.6 0-0.9 0 -0.3 0-0.9 0.1-1.3 0.6 -0.5 0.5-1.7 1.7-1.7 4.1 0 2.4 1.8 4.8 2 5.1 0.2 0.3 3.4 5.5 8.5 7.4 5 2 5 1.3 5.9 1.2 0.9-0.1 2.9-1.2 3.3-2.3C591.3 327.9 591.3 326.9 591.2 326.7L591.2 326.7zM591.2 326.7"/>
        <g class="st26">
            <path class="st24" d="M766.6 376.8c-11 0-19.9 8.9-19.9 19.9 0 11 8.9 19.9 19.9 19.9 11 0 19.9-8.9 19.9-19.9C786.5 385.7 777.6 376.8 766.6 376.8L766.6 376.8zM775.5 392.1c0 0.2 0 0.4 0 0.6 0 6.1-4.6 13-13 13 -2.6 0-5-0.8-7-2.1 0.4 0 0.7 0.1 1.1 0.1 2.1 0 4.1-0.7 5.7-2 -2 0-3.7-1.4-4.3-3.2 0.3 0.1 0.6 0.1 0.9 0.1 0.4 0 0.8-0.1 1.2-0.2 -2.1-0.4-3.7-2.3-3.7-4.5 0 0 0 0 0-0.1 0.6 0.3 1.3 0.5 2.1 0.6 -1.2-0.8-2-2.2-2-3.8 0-0.8 0.2-1.6 0.6-2.3 2.3 2.8 5.6 4.6 9.4 4.8 -0.1-0.3-0.1-0.7-0.1-1 0-2.5 2-4.6 4.6-4.6 1.3 0 2.5 0.6 3.3 1.4 1-0.2 2-0.6 2.9-1.1 -0.3 1.1-1.1 2-2 2.5 0.9-0.1 1.8-0.4 2.6-0.7C777.2 390.7 776.4 391.5 775.5 392.1L775.5 392.1zM775.5 392.1"/>
        </g>
        <path class="st27" d="M986.3 113.2c2.5 0 4.5-2 4.5-4.5 0-1-0.3-1.9-0.9-2.6 -0.8-1.1-2.2-1.9-3.7-1.9 -1.5 0-2.9 0.7-3.7 1.9 -0.5 0.7-0.9 1.7-0.9 2.6C981.7 111.2 983.8 113.2 986.3 113.2L986.3 113.2zM986.3 113.2"/>
        <path class="st27" d="M996.2 103.1v-4.4h-0.6l-3.8 0 0 4.4L996.2 103.1zM996.2 103.1"/>
        <path class="st27" d="M986.3 85.9c-12.5 0-22.7 10.2-22.7 22.7 0 12.5 10.2 22.7 22.7 22.7 12.5 0 22.7-10.2 22.7-22.7C1009 96.1 998.8 85.9 986.3 85.9L986.3 85.9zM999.2 106v10.6c0 2.8-2.2 5-5 5h-15.8c-2.8 0-5-2.2-5-5v-15.8c0-2.8 2.2-5 5-5h15.8c2.8 0 5 2.2 5 5V106zM999.2 106"/>
        <path class="st27" d="M993.3 108.6c0 3.9-3.2 7.1-7.1 7.1 -3.9 0-7.1-3.2-7.1-7.1 0-0.9 0.2-1.8 0.5-2.6h-3.9v10.6c0 1.4 1.1 2.5 2.5 2.5h15.8c1.4 0 2.5-1.1 2.5-2.5V106h-3.9C993.1 106.8 993.3 107.7 993.3 108.6L993.3 108.6zM993.3 108.6"/>
        <path class="st28" d="M649.2 162.6c-0.1-0.1-0.3-0.2-0.5-0.3 -0.5-0.1-0.9-0.2-1.4-0.2h-0.1c-2.3 0-4.3 1.4-4.3 3 0 1.7 1.7 3.1 3.9 3.1 2.9 0 4.4-1 4.4-3 0-0.2 0-0.4-0.1-0.6C651 163.8 650.3 163.3 649.2 162.6L649.2 162.6zM649.2 162.6"/>
        <path class="st28" d="M647.6 156.6L647.6 156.6c0.6 0 1-0.2 1.4-0.6 0.6-0.6 0.8-1.7 0.7-2.8 -0.3-2-1.7-3.7-3.2-3.7l-0.1 0c-0.5 0-1 0.2-1.4 0.6 -0.6 0.6-0.8 1.6-0.6 2.8C644.7 154.8 646.1 156.5 647.6 156.6L647.6 156.6zM647.6 156.6"/>
        <path class="st28" d="M652.3 136.1c-12.5 0-22.7 10.2-22.7 22.7 0 12.5 10.2 22.7 22.7 22.7 12.5 0 22.7-10.2 22.7-22.7C675 146.3 664.8 136.1 652.3 136.1L652.3 136.1zM649.7 169.9c-0.9 0.2-1.8 0.4-2.8 0.4 -1.1 0-2.1-0.1-3.1-0.4 -1.9-0.5-3.3-1.4-3.9-2.5 -0.3-0.5-0.4-1-0.4-1.6 0-0.6 0.1-1.1 0.4-1.7 1-2.2 3.8-3.7 6.8-3.7h0.1c-0.2-0.4-0.4-0.9-0.4-1.3 0-0.2 0-0.5 0.1-0.7 -3.2-0.1-5.5-2.4-5.5-5.4 0-2.2 1.7-4.2 4.2-5.1 0.7-0.3 1.5-0.4 2.2-0.4h6.8c0.2 0 0.4 0.1 0.5 0.4 0.1 0.2 0 0.5-0.2 0.6l-1.5 1.1c-0.1 0.1-0.2 0.1-0.3 0.1H652c0.7 0.8 1.1 2 1.1 3.4 0 1.5-0.8 2.9-2.1 3.9 -1.1 0.8-1.1 1-1.1 1.5 0 0.3 0.7 1.1 1.6 1.7 1.9 1.3 2.6 2.6 2.6 4.8C654.1 167.1 652.3 169.1 649.7 169.9L649.7 169.9zM664.9 158.3c0 0.3-0.2 0.5-0.5 0.5h-3.8v3.8c0 0.3-0.2 0.5-0.5 0.5h-1.1c-0.3 0-0.5-0.2-0.5-0.5v-3.8h-3.8c-0.3 0-0.5-0.2-0.5-0.5v-1.1c0-0.3 0.2-0.5 0.5-0.5h3.8v-3.8c0-0.3 0.2-0.5 0.5-0.5h1.1c0.3 0 0.5 0.2 0.5 0.5v3.8h3.8c0.3 0 0.5 0.2 0.5 0.5V158.3zM664.9 158.3"/>
        <path class="st29" d="M868.3 303.4c-12.5 0-22.7 10.2-22.7 22.7 0 12.5 10.2 22.7 22.7 22.7 12.5 0 22.7-10.2 22.7-22.7C891 313.5 880.8 303.4 868.3 303.4L868.3 303.4zM873.9 326.9h-3.7V340h-5.5v-13.2h-2.6v-4.7h2.6v-3c0-2.2 1-5.5 5.5-5.5l4.1 0v4.5h-2.9c-0.5 0-1.2 0.2-1.2 1.3v2.7h4.2L873.9 326.9zM873.9 326.9"/>
    </svg>
