<?xml version="1.0" encoding="utf-8"?>
<!-- Generator: Adobe Illustrator 16.0.0, SVG Export Plug-In . SVG Version: 6.00 Build 0)  -->
<!DOCTYPE svg PUBLIC "-//W3C//DTD SVG 1.1//EN" "http://www.w3.org/Graphics/SVG/1.1/DTD/svg11.dtd">
<?xml-stylesheet type="text/css" media="screen" href="../css/style.css"?>
<svg class="MH" version="1.1" id="Layer_1" xmlns="http://www.w3.org/2000/svg" xmlns:xlink="http://www.w3.org/1999/xlink" x="0px" y="0px"
	 width="369px" height="313.9px" viewBox="0 0 369 313.9" enable-background="new 0 0 369 313.9" xml:space="preserve">
<g>
	<g id="RED">
		<path fill-rule="evenodd" clip-rule="evenodd" fill="#DBE3E7" d="M148.208,247.01c0,4.629-3.752,8.386-8.386,8.386
			c-4.631,0-8.385-3.757-8.385-8.386c0-4.635,3.754-8.387,8.385-8.387C144.456,238.624,148.208,242.376,148.208,247.01z"/>
		<circle fill-rule="evenodd" clip-rule="evenodd" fill="#FFFFFF" cx="139.824" cy="247.01" r="5.376"/>
		<path fill-rule="evenodd" clip-rule="evenodd" fill="#DBE3E7" d="M67.062,33.845c0,4.629-3.752,8.386-8.386,8.386
			c-4.631,0-8.385-3.757-8.385-8.386c0-4.635,3.754-8.387,8.385-8.387C63.311,25.459,67.062,29.211,67.062,33.845z"/>
		<circle fill-rule="evenodd" clip-rule="evenodd" fill="#FFFFFF" cx="58.678" cy="33.845" r="5.376"/>
		<path fill-rule="evenodd" clip-rule="evenodd" fill="#DBE3E7" d="M119.793,305.503c0,4.629-3.752,8.386-8.387,8.386
			c-4.631,0-8.385-3.757-8.385-8.386c0-4.635,3.754-8.387,8.385-8.387C116.041,297.116,119.793,300.868,119.793,305.503z"/>
		<circle fill-rule="evenodd" clip-rule="evenodd" fill="#FFFFFF" cx="111.408" cy="305.503" r="5.377"/>
		<path fill-rule="evenodd" clip-rule="evenodd" fill="#DBE3E7" d="M309.735,124.518c0,4.629-3.752,8.386-8.386,8.386
			c-4.631,0-8.385-3.757-8.385-8.386c0-4.635,3.754-8.387,8.385-8.387C305.983,116.132,309.735,119.884,309.735,124.518z"/>
		<circle fill-rule="evenodd" clip-rule="evenodd" fill="#FFFFFF" cx="301.351" cy="124.518" r="5.376"/>
		<g>
			<circle fill-rule="evenodd" clip-rule="evenodd" fill="#DBE3E7" cx="329.424" cy="33.077" r="8.387"/>
			<circle fill-rule="evenodd" clip-rule="evenodd" fill="#FFFFFF" cx="329.422" cy="33.077" r="5.375"/>
		</g>
		<g>
			<circle fill-rule="evenodd" clip-rule="evenodd" fill="#DBE3E7" cx="167.96" cy="63.443" r="8.387"/>
			<circle fill-rule="evenodd" clip-rule="evenodd" fill="#FFFFFF" cx="167.961" cy="63.443" r="5.376"/>
		</g>
		<g>
			<circle fill-rule="evenodd" clip-rule="evenodd" fill="#DBE3E7" cx="33.684" cy="216.644" r="8.387"/>
			<circle fill-rule="evenodd" clip-rule="evenodd" fill="#FFFFFF" cx="33.683" cy="216.644" r="5.376"/>
		</g>
		<g>
		<circle fill-rule="evenodd" clip-rule="evenodd" fill="#DBE3E7" cx="115.53" cy="154.528" r="8.386"/>
		<circle fill-rule="evenodd" clip-rule="evenodd" fill="#FFFFFF" cx="115.531" cy="154.528" r="5.377"/>
		</g>
	</g>
	<g id="RED">
		<path fill="#B8C7E0" d="M32.836,218.089l0.572-4.075l1.264,0.178L34.53,215.2l1.806-1.371l0.771,1.018L32.836,218.089z
			 M40.158,212.532l-0.771-1.018l5.083-3.858l0.771,1.018L40.158,212.532z M35.204,210.399l-1.264-0.178l0.888-6.319l1.264,0.178
			L35.204,210.399z M48.291,206.359l-0.771-1.018l5.084-3.857l0.771,1.018L48.291,206.359z M36.623,200.288l-1.264-0.178l0.888-6.319
			l1.264,0.178L36.623,200.288z M56.426,200.186l-0.771-1.018l5.083-3.857l0.771,1.018L56.426,200.186z M64.559,194.013l-0.771-1.018
			l5.084-3.857l0.771,1.018L64.559,194.013z M38.043,190.177l-1.264-0.178l0.887-6.32l1.264,0.178L38.043,190.177z M72.692,187.841
			l-0.771-1.018l5.083-3.857l0.771,1.018L72.692,187.841z M80.826,181.669l-0.771-1.018l5.083-3.858l0.771,1.018L80.826,181.669z
			 M39.463,180.065l-1.264-0.178l0.887-6.32l1.264,0.178L39.463,180.065z M88.959,175.496l-0.771-1.018l5.084-3.858l0.771,1.018
			L88.959,175.496z M40.882,169.953l-1.264-0.178l0.888-6.319l1.264,0.178L40.882,169.953z M97.094,169.323l-0.771-1.018l5.083-3.858
			l0.771,1.018L97.094,169.323z M105.227,163.15l-0.771-1.018l5.084-3.858l0.771,1.018L105.227,163.15z M42.301,159.842l-1.264-0.178
			l0.888-6.319l1.264,0.178L42.301,159.842z M113.36,156.977l-0.771-1.018l2.454-1.862l1.518-2.637l1.106,0.637l-1.647,2.861
			L113.36,156.977z M43.721,149.73l-1.264-0.178l0.887-6.319l1.264,0.178L43.721,149.73z M119.577,148.779l-1.106-0.637l3.184-5.531
			l1.106,0.637L119.577,148.779z M124.671,139.929l-1.106-0.637l3.184-5.531l1.106,0.637L124.671,139.929z M45.141,139.619
			l-1.264-0.178l0.887-6.32l1.264,0.178L45.141,139.619z M129.765,131.08l-1.106-0.637l3.184-5.53l1.106,0.637L129.765,131.08z
			 M46.56,129.507l-1.264-0.178l0.888-6.319l1.264,0.178L46.56,129.507z M134.858,122.23l-1.106-0.637l3.184-5.53l1.106,0.637
			L134.858,122.23z M47.979,119.395l-1.264-0.178l0.888-6.319l1.264,0.178L47.979,119.395z M139.952,113.382l-1.106-0.637
			l3.184-5.531l1.106,0.637L139.952,113.382z M49.398,109.284l-1.264-0.178l0.887-6.319l1.264,0.178L49.398,109.284z
			 M145.047,104.532l-1.107-0.637l3.184-5.531l1.107,0.637L145.047,104.532z M50.818,99.173l-1.264-0.178l0.887-6.32l1.264,0.178
			L50.818,99.173z M150.141,95.682l-1.107-0.637l3.185-5.53l1.105,0.637L150.141,95.682z M52.237,89.061l-1.264-0.178l0.888-6.32
			l1.264,0.178L52.237,89.061z M155.233,86.833l-1.105-0.637l3.184-5.53l1.105,0.637L155.233,86.833z M53.656,78.949l-1.264-0.178
			l0.888-6.319l1.264,0.178L53.656,78.949z M160.327,77.984l-1.105-0.637l3.184-5.531l1.105,0.637L160.327,77.984z M165.421,69.135
			l-1.105-0.637l3.093-5.373l0.39,0.225l0.151-0.569l0.979,0.261L165.421,69.135z M55.076,68.838l-1.264-0.178l0.887-6.319
			l1.264,0.178L55.076,68.838z M163.921,63.026l-6.166-1.644l0.328-1.232l6.166,1.644L163.921,63.026z M154.055,60.396l-6.166-1.645
			l0.328-1.232l6.166,1.645L154.055,60.396z M56.496,58.726l-1.264-0.178l0.887-6.32l1.264,0.178L56.496,58.726z M144.188,57.765
			l-6.167-1.644l0.33-1.232l6.166,1.644L144.188,57.765z M134.322,55.135l-6.166-1.644l0.328-1.232l6.167,1.644L134.322,55.135z
			 M124.456,52.506l-6.167-1.644l0.33-1.232l6.166,1.644L124.456,52.506z M114.59,49.876l-6.166-1.645l0.328-1.232l6.167,1.645
			L114.59,49.876z M57.915,48.615l-1.264-0.178l0.888-6.32l1.264,0.178L57.915,48.615z M104.724,47.245l-6.167-1.644l0.33-1.232
			l6.166,1.644L104.724,47.245z M94.857,44.615l-6.166-1.644l0.329-1.232l6.166,1.644L94.857,44.615z M84.991,41.985l-6.166-1.644
			l0.329-1.232l6.166,1.644L84.991,41.985z M75.125,39.355l-6.166-1.645l0.329-1.232l6.167,1.645L75.125,39.355z M59.335,38.503
			l-1.264-0.178l0.654-4.662l6.862,1.829l-0.328,1.232l-5.471-1.458L59.335,38.503z"/>
		<path fill="#B8C7E0" d="M330.175,276.83l-0.037-6.381l1.275-0.008l0.037,6.381L330.175,276.83z M328.383,276.004l-4.29-4.726
			l0.945-0.857l4.29,4.726L328.383,276.004z M321.52,268.443l-4.29-4.725l0.945-0.857l4.29,4.725L321.52,268.443z M330.116,266.62
			l-0.036-6.382l1.275-0.008l0.036,6.382L330.116,266.62z M314.656,260.884l-4.289-4.726l0.945-0.857l4.289,4.726L314.656,260.884z
			 M330.058,256.409l-0.036-6.382l1.275-0.008l0.036,6.382L330.058,256.409z M307.793,253.323l-4.289-4.725l0.945-0.857l4.289,4.725
			L307.793,253.323z M330,246.199l-0.036-6.382l1.275-0.008l0.036,6.382L330,246.199z M300.93,245.762l-4.289-4.725l0.945-0.857
			l4.289,4.725L300.93,245.762z M294.066,238.203l-4.289-4.726l0.945-0.857l4.289,4.726L294.066,238.203z M329.941,235.988
			l-0.036-6.382l1.275-0.008l0.036,6.382L329.941,235.988z M287.204,230.642l-4.29-4.725l0.945-0.857l4.29,4.725L287.204,230.642z
			 M329.883,225.777l-0.036-6.381l1.275-0.008l0.036,6.381L329.883,225.777z M280.341,223.083l-4.29-4.726l0.945-0.857l4.29,4.726
			L280.341,223.083z M329.825,215.567l-0.036-6.382l1.275-0.008l0.036,6.382L329.825,215.567z M274.777,215.233l-1.219-0.377
			l1.884-6.097l1.219,0.377L274.777,215.233z M277.791,205.477l-1.219-0.377l1.883-6.097l1.219,0.377L277.791,205.477z
			 M329.767,205.356l-0.036-6.381l1.275-0.008l0.036,6.381L329.767,205.356z M280.805,195.721l-1.219-0.377l1.883-6.097l1.219,0.377
			L280.805,195.721z M329.709,195.146l-0.037-6.382l1.275-0.008l0.037,6.382L329.709,195.146z M283.817,185.966l-1.219-0.377
			l1.884-6.097l1.219,0.377L283.817,185.966z M329.65,184.935l-0.036-6.382l1.275-0.008l0.036,6.382L329.65,184.935z M286.831,176.21
			l-1.219-0.377l1.884-6.097l1.219,0.377L286.831,176.21z M329.592,174.724l-0.036-6.381l1.275-0.008l0.036,6.381L329.592,174.724z
			 M289.845,166.454l-1.219-0.377l1.883-6.098l1.219,0.377L289.845,166.454z M329.534,164.514l-0.037-6.382l1.275-0.008l0.037,6.382
			L329.534,164.514z M292.858,156.698l-1.219-0.377l1.883-6.098l1.219,0.377L292.858,156.698z M329.476,154.303l-0.036-6.381
			l1.275-0.008l0.036,6.381L329.476,154.303z M295.871,146.942l-1.219-0.377l1.884-6.098l1.219,0.377L295.871,146.942z
			 M329.417,144.094l-0.036-6.382l1.275-0.008l0.036,6.382L329.417,144.094z M298.885,137.186l-1.219-0.377l1.884-6.098l1.219,0.377
			L298.885,137.186z M329.359,133.883l-0.037-6.382l1.275-0.008l0.037,6.382L329.359,133.883z M301.898,127.43l-1.219-0.377
			l1.853-6.101l1.223,0.365L301.898,127.43z M329.301,123.673l-0.036-6.382l1.275-0.008l0.036,6.382L329.301,123.673z
			 M304.85,117.649l-1.223-0.365l1.825-6.115l1.223,0.365L304.85,117.649z M329.242,113.462l-0.036-6.382l1.275-0.008l0.036,6.382
			L329.242,113.462z M307.77,107.865l-1.223-0.365l1.825-6.115l1.223,0.365L307.77,107.865z M329.185,103.251l-0.036-6.381
			l1.275-0.008l0.036,6.381L329.185,103.251z M310.689,98.081l-1.223-0.365l1.825-6.115l1.223,0.365L310.689,98.081z M329.126,93.041
			l-0.036-6.382l1.275-0.008l0.036,6.382L329.126,93.041z M313.609,88.297l-1.223-0.365l1.824-6.115l1.223,0.365L313.609,88.297z
			 M329.068,82.83l-0.037-6.382l1.275-0.008l0.037,6.382L329.068,82.83z M316.529,78.512l-1.223-0.365l1.824-6.115l1.223,0.365
			L316.529,78.512z M329.01,72.62l-0.036-6.382l1.275-0.008l0.036,6.382L329.01,72.62z M319.449,68.727l-1.223-0.365l1.824-6.115
			l1.223,0.365L319.449,68.727z M328.951,62.409l-0.036-6.382l1.275-0.008l0.036,6.382L328.951,62.409z M322.368,58.943l-1.223-0.365
			l1.825-6.115l1.223,0.365L322.368,58.943z M328.894,52.198l-0.037-6.381l1.275-0.008l0.037,6.381L328.894,52.198z M325.288,49.159
			l-1.223-0.365l1.825-6.115l1.223,0.365L325.288,49.159z M328.835,41.988l-0.026-4.624l-0.601,2.011l-1.223-0.365l1.825-6.115
			l1.223,0.365l-0.699,2.344l0.74-0.005l0.036,6.382L328.835,41.988z"/>
		<path fill="#B8C7E0" d="M115.174,305.834l-0.627-1.111l5.555-3.141l0.629,1.111L115.174,305.834z M111.408,305.503l-4.144-4.854
			l0.971-0.828l4.144,4.854L111.408,305.503z M124.063,300.808l-0.628-1.111l5.555-3.141l0.629,1.111L124.063,300.808z
			 M104.779,297.736l-4.144-4.854l0.971-0.828l4.144,4.854L104.779,297.736z M132.952,295.784l-0.628-1.111l5.555-3.141l0.629,1.111
			L132.952,295.784z M141.841,290.76l-0.628-1.111l5.556-3.141l0.628,1.111L141.841,290.76z M98.149,289.97l-4.144-4.854l0.971-0.828
			l4.144,4.854L98.149,289.97z M150.729,285.734l-0.628-1.111l5.555-3.14l0.629,1.111L150.729,285.734z M91.52,282.205l-4.143-4.854
			l0.971-0.828l4.143,4.854L91.52,282.205z M159.619,280.71l-0.629-1.111l5.556-3.141l0.629,1.111L159.619,280.71z M168.508,275.685
			l-0.629-1.111l5.556-3.141l0.629,1.111L168.508,275.685z M84.891,274.438l-4.143-4.854l0.971-0.828l4.143,4.854L84.891,274.438z
			 M177.396,270.66l-0.629-1.111l5.556-3.14l0.629,1.111L177.396,270.66z M78.262,266.673l-4.144-4.854l0.971-0.828l4.144,4.854
			L78.262,266.673z M186.285,265.635l-0.629-1.111l5.556-3.141l0.629,1.111L186.285,265.635z M195.174,260.611l-0.629-1.111
			l5.556-3.141l0.629,1.111L195.174,260.611z M71.633,258.907l-4.145-4.854l0.971-0.828l4.145,4.854L71.633,258.907z
			 M204.062,255.586l-0.628-1.111l5.556-3.14l0.629,1.111L204.062,255.586z M65.003,251.14l-4.144-4.854l0.971-0.828l4.144,4.854
			L65.003,251.14z M212.951,250.561l-0.629-1.111l5.556-3.141l0.629,1.111L212.951,250.561z M139.183,248.978l-1.683-6.155
			l1.23-0.336l1.684,6.155L139.183,248.978z M143.166,247.105l-0.783-1.008l5.037-3.917l0.783,1.008L143.166,247.105z
			 M221.841,245.537l-0.629-1.111l5.555-3.141l0.629,1.111L221.841,245.537z M58.373,243.375l-4.143-4.854l0.971-0.828l4.143,4.854
			L58.373,243.375z M151.227,240.838l-0.783-1.008l5.037-3.918l0.783,1.008L151.227,240.838z M230.729,240.511l-0.629-1.111
			l5.555-3.14l0.629,1.111L230.729,240.511z M136.489,239.13l-1.683-6.155l1.23-0.336l1.684,6.155L136.489,239.13z M51.744,235.608
			l-4.143-4.854l0.971-0.828l4.143,4.854L51.744,235.608z M239.618,235.487l-0.629-1.111l5.556-3.141l0.629,1.111L239.618,235.487z
			 M159.286,234.569l-0.783-1.008l5.038-3.917l0.783,1.008L159.286,234.569z M248.507,230.463l-0.629-1.111l5.556-3.141l0.629,1.111
			L248.507,230.463z M133.796,229.28l-1.684-6.155l1.231-0.336l1.684,6.155L133.796,229.28z M167.347,228.302l-0.783-1.008
			l5.038-3.918l0.783,1.008L167.347,228.302z M45.115,227.843l-4.144-4.854l0.971-0.828l4.144,4.854L45.115,227.843z
			 M257.396,225.437l-0.629-1.111l5.557-3.14l0.628,1.111L257.396,225.437z M175.407,222.033l-0.783-1.008l5.037-3.917l0.783,1.008
			L175.407,222.033z M266.284,220.413l-0.629-1.111l5.556-3.141l0.629,1.111L266.284,220.413z M38.486,220.077l-4.007-4.693
			l0.971-0.828l4.007,4.693L38.486,220.077z M131.103,219.431l-1.684-6.155l1.231-0.336l1.684,6.155L131.103,219.431z
			 M183.468,215.765l-0.783-1.008l5.037-3.918l0.783,1.008L183.468,215.765z M273.059,215.537l-5.94-2.329l0.466-1.188l5.94,2.329
			L273.059,215.537z M263.554,211.809l-5.941-2.329l0.466-1.188l5.941,2.329L263.554,211.809z M128.408,209.583l-1.683-6.156
			l1.231-0.336l1.684,6.156L128.408,209.583z M191.527,209.497l-0.783-1.008l5.038-3.918l0.783,1.008L191.527,209.497z
			 M254.046,208.083l-5.941-2.33l0.467-1.188l5.941,2.33L254.046,208.083z M244.54,204.355l-5.941-2.329l0.466-1.188l5.942,2.329
			L244.54,204.355z M199.588,203.228l-0.783-1.008l5.038-3.917l0.783,1.008L199.588,203.228z M235.034,200.628l-5.941-2.329
			l0.466-1.188l5.942,2.329L235.034,200.628z M125.715,199.733l-1.683-6.155l1.231-0.336l1.684,6.155L125.715,199.733z
			 M207.648,196.961l-0.783-1.008l5.037-3.918l0.783,1.008L207.648,196.961z M225.528,196.901l-5.941-2.33l0.467-1.188l5.941,2.33
			L225.528,196.901z M216.022,193.174l-5.941-2.329l0.466-1.188l5.941,2.329L216.022,193.174z M215.709,190.692l-0.783-1.008
			l5.037-3.917l0.783,1.008L215.709,190.692z M123.021,189.885l-1.684-6.156l1.232-0.336l1.684,6.156L123.021,189.885z
			 M206.517,189.446l-5.942-2.329l0.467-1.188l5.941,2.329L206.517,189.446z M197.01,185.719l-5.941-2.33l0.467-1.188l5.941,2.33
			L197.01,185.719z M223.769,184.425l-0.783-1.008l5.038-3.918l0.783,1.008L223.769,184.425z M187.503,181.992l-5.941-2.329
			l0.466-1.188l5.942,2.329L187.503,181.992z M120.328,180.035l-1.684-6.155l1.232-0.336l1.684,6.155L120.328,180.035z
			 M177.997,178.265l-5.941-2.33l0.467-1.188l5.941,2.33L177.997,178.265z M231.829,178.156l-0.783-1.008l5.038-3.917l0.783,1.008
			L231.829,178.156z M168.491,174.538l-5.94-2.329l0.466-1.188l5.94,2.329L168.491,174.538z M239.89,171.888l-0.783-1.008
			l5.038-3.918l0.783,1.008L239.89,171.888z M158.985,170.81l-5.94-2.329l0.466-1.188l5.94,2.329L158.985,170.81z M117.635,170.186
			l-1.684-6.155l1.232-0.336l1.683,6.155L117.635,170.186z M149.479,167.084l-5.941-2.33l0.466-1.188l5.941,2.33L149.479,167.084z
			 M247.95,165.62l-0.783-1.008l5.037-3.918l0.783,1.008L247.95,165.62z M139.973,163.356l-5.941-2.329l0.467-1.188l5.941,2.329
			L139.973,163.356z M114.941,160.338l-1.684-6.156l1.231-0.336l1.684,6.156L114.941,160.338z M130.467,159.629l-5.941-2.329
			l0.467-1.188l5.94,2.329L130.467,159.629z M256.011,159.351l-0.783-1.008l5.037-3.917l0.783,1.008L256.011,159.351z
			 M120.961,155.902l-5.941-2.33l0.466-1.188l5.941,2.33L120.961,155.902z M264.07,153.084l-0.783-1.008l5.038-3.918l0.783,1.008
			L264.07,153.084z M272.131,146.815l-0.783-1.008l5.038-3.917l0.783,1.008L272.131,146.815z M280.191,140.548l-0.783-1.008
			l5.037-3.918l0.783,1.008L280.191,140.548z M288.252,134.279l-0.783-1.008l5.037-3.917l0.783,1.008L288.252,134.279z
			 M296.312,128.011l-0.783-1.008l5.038-3.918l0.783,1.008L296.312,128.011z"/>
		<path fill="#B8C7E0" d="M116.562,152.423l-0.188-1.262l6.312-0.939l0.188,1.262L116.562,152.423z M112.511,151.862l-2.665-5.798
			l1.16-0.533l2.665,5.798L112.511,151.862z M126.661,150.921l-0.188-1.262l6.312-0.938l0.188,1.262L126.661,150.921z
			 M136.761,149.419l-0.188-1.262l6.312-0.938l0.188,1.262L136.761,149.419z M146.86,147.917l-0.188-1.262l6.312-0.938l0.188,1.262
			L146.86,147.917z M156.96,146.415l-0.188-1.262l6.312-0.938l0.188,1.262L156.96,146.415z M167.06,144.914l-0.188-1.262l6.312-0.938
			l0.188,1.262L167.06,144.914z M177.159,143.412l-0.188-1.262l6.312-0.938l0.188,1.262L177.159,143.412z M108.247,142.585
			l-2.665-5.799l1.16-0.533l2.665,5.799L108.247,142.585z M187.259,141.91l-0.188-1.262l6.312-0.938l0.188,1.262L187.259,141.91z
			 M197.358,140.408l-0.188-1.262l6.312-0.938l0.188,1.262L197.358,140.408z M207.459,138.907l-0.188-1.262l6.312-0.939l0.188,1.262
			L207.459,138.907z M217.559,137.405l-0.188-1.262l6.312-0.938l0.188,1.262L217.559,137.405z M227.658,135.903l-0.188-1.262
			l6.312-0.938l0.188,1.262L227.658,135.903z M237.758,134.401l-0.188-1.262l6.312-0.938l0.188,1.262L237.758,134.401z
			 M103.982,133.307l-2.664-5.799l1.16-0.533l2.664,5.799L103.982,133.307z M247.857,132.899l-0.188-1.262l6.312-0.938l0.188,1.262
			L247.857,132.899z M257.957,131.398l-0.188-1.262l6.312-0.939l0.188,1.262L257.957,131.398z M268.057,129.896l-0.188-1.262
			l6.312-0.938l0.188,1.262L268.057,129.896z M278.156,128.394l-0.188-1.262l6.312-0.938l0.188,1.262L278.156,128.394z
			 M288.256,126.892l-0.188-1.262l6.312-0.938l0.188,1.262L288.256,126.892z M298.355,125.39l-0.188-1.262l1.83-0.272l-0.174-0.079
			l0.525-1.162l4.129,1.866L298.355,125.39z M99.719,124.029l-2.665-5.798l1.159-0.533l2.666,5.798L99.719,124.029z M296.335,122.199
			l-5.814-2.63l0.525-1.162l5.814,2.63L296.335,122.199z M287.031,117.992l-5.814-2.63l0.525-1.162l5.814,2.63L287.031,117.992z
			 M95.455,114.752l-2.666-5.799l1.16-0.533l2.666,5.799L95.455,114.752z M277.729,113.784l-5.815-2.63l0.525-1.162l5.815,2.63
			L277.729,113.784z M268.425,109.577l-5.815-2.63l0.525-1.162l5.815,2.63L268.425,109.577z M91.191,105.474l-2.666-5.799l1.16-0.533
			l2.666,5.799L91.191,105.474z M259.121,105.369l-5.814-2.629l0.525-1.162l5.814,2.629L259.121,105.369z M249.817,101.162
			l-5.814-2.63l0.525-1.162l5.814,2.63L249.817,101.162z M240.514,96.954l-5.814-2.629l0.525-1.162l5.814,2.629L240.514,96.954z
			 M86.927,96.196l-2.665-5.799l1.16-0.533l2.665,5.799L86.927,96.196z M231.21,92.747l-5.814-2.63l0.525-1.162l5.814,2.63
			L231.21,92.747z M221.907,88.54l-5.815-2.63l0.525-1.162l5.815,2.63L221.907,88.54z M82.662,86.919l-2.664-5.799l1.16-0.533
			l2.664,5.799L82.662,86.919z M212.604,84.332l-5.815-2.63l0.525-1.162l5.815,2.63L212.604,84.332z M203.3,80.125l-5.814-2.63
			l0.525-1.162l5.814,2.63L203.3,80.125z M78.398,77.64l-2.665-5.798l1.16-0.533l2.665,5.798L78.398,77.64z M193.996,75.917
			l-5.814-2.629l0.525-1.162l5.814,2.629L193.996,75.917z M184.692,71.71l-5.814-2.63l0.525-1.162l5.814,2.63L184.692,71.71z
			 M74.135,68.363l-2.666-5.799l1.16-0.533l2.666,5.799L74.135,68.363z M175.389,67.503l-5.814-2.63l0.525-1.162l5.814,2.63
			L175.389,67.503z M169.818,63.743l-0.236-1.254l6.271-1.18l0.236,1.254L169.818,63.743z M179.854,61.855l-0.236-1.254l6.271-1.179
			l0.236,1.254L179.854,61.855z M189.888,59.969l-0.236-1.254l6.272-1.18l0.236,1.254L189.888,59.969z M69.871,59.086l-2.666-5.799
			l1.16-0.533l2.666,5.799L69.871,59.086z M199.923,58.081l-0.236-1.254l6.271-1.179l0.236,1.254L199.923,58.081z M209.958,56.194
			l-0.236-1.254l6.271-1.18l0.236,1.254L209.958,56.194z M219.992,54.306l-0.236-1.254l6.272-1.18l0.236,1.254L219.992,54.306z
			 M230.027,52.42l-0.236-1.254l6.271-1.18l0.236,1.254L230.027,52.42z M240.062,50.532l-0.236-1.254l6.272-1.18l0.236,1.254
			L240.062,50.532z M65.606,49.807l-2.665-5.799l1.16-0.533l2.665,5.799L65.606,49.807z M250.097,48.645l-0.236-1.254l6.271-1.18
			l0.236,1.254L250.097,48.645z M260.132,46.758l-0.236-1.254l6.271-1.18l0.236,1.254L260.132,46.758z M270.166,44.871l-0.236-1.254
			l6.272-1.18l0.236,1.254L270.166,44.871z M280.201,42.983l-0.236-1.254l6.271-1.18l0.236,1.254L280.201,42.983z M290.236,41.095
			L290,39.842l6.271-1.179l0.236,1.254L290.236,41.095z M61.342,40.53l-2.664-5.799l1.16-0.533l2.664,5.799L61.342,40.53z
			 M300.271,39.209l-0.236-1.254l6.271-1.18l0.236,1.254L300.271,39.209z M310.306,37.321l-0.236-1.254l6.271-1.18l0.236,1.254
			L310.306,37.321z M320.34,35.434l-0.236-1.254l6.272-1.18l0.236,1.254L320.34,35.434z"/>
		<path fill="#B8C7E0" d="M327.77,277.922l-6.311-0.953l0.191-1.262l6.311,0.953L327.77,277.922z M317.673,276.396l-6.31-0.952
		l0.191-1.262l6.31,0.952L317.673,276.396z M307.578,274.872l-6.311-0.952l0.19-1.262l6.31,0.952L307.578,274.872z M297.48,273.347
		l-6.31-0.952l0.191-1.262l6.31,0.952L297.48,273.347z M287.385,271.823l-6.311-0.952l0.19-1.262l6.311,0.952L287.385,271.823z
		 M277.289,270.299l-6.312-0.952l0.19-1.262l6.311,0.952L277.289,270.299z M267.191,268.774l-6.309-0.952l0.19-1.262l6.31,0.952
		L267.191,268.774z M257.097,267.25l-6.311-0.952l0.19-1.262l6.311,0.952L257.097,267.25z M246.999,265.725l-6.31-0.953l0.191-1.262
		l6.31,0.953L246.999,265.725z M236.903,264.201l-6.311-0.953l0.191-1.262l6.311,0.953L236.903,264.201z M226.807,262.677
		l-6.31-0.953l0.191-1.262l6.31,0.953L226.807,262.677z M216.711,261.152l-6.311-0.953l0.191-1.262l6.311,0.953L216.711,261.152z
		 M206.614,259.628l-6.311-0.953l0.191-1.262l6.311,0.953L206.614,259.628z M196.518,258.103l-6.31-0.953l0.191-1.262l6.31,0.953
		L196.518,258.103z M186.422,256.579l-6.311-0.953l0.191-1.262l6.311,0.953L186.422,256.579z M176.325,255.054l-6.31-0.953
		l0.191-1.262l6.31,0.953L176.325,255.054z M166.229,253.53l-6.311-0.953l0.191-1.262l6.311,0.953L166.229,253.53z M156.133,252.006
		l-6.31-0.953l0.19-1.262l6.311,0.953L156.133,252.006z M146.037,250.481l-6.311-0.953l0.191-1.262l6.31,0.953L146.037,250.481z"/>
	</g>
	<g id="TIENDA">
		<g>
			<rect x="90.566" y="221.469" fill="#494848" width="187.897" height="8.137"/>
			<rect x="105.001" y="115.222" fill="#494848" width="152.668" height="107.579"/>
			<rect x="112.322" y="144.152" fill="#DBE3E7" width="88.759" height="73.771"/>
			<polygon fill="#D2D9E8" points="198.092,213.923 115.053,213.923 115.053,147.816 			"/>
			<polygon fill="#B8C7E0" points="115.053,147.816 198.092,147.816 198.092,213.923 			"/>
			<path fill="#233C79" d="M256.445,95.677H106.331c-0.607,0-1.101,0.493-1.101,1.101v11.347c0,0.609,0.493,1.1,1.101,1.1h150.114
				c0.606,0,1.101-0.49,1.101-1.1V96.778C257.546,96.171,257.052,95.677,256.445,95.677z"/>
			<g>
				<path fill="#233C79" d="M86.482,124.518v10.062c0,5.315,10.615,9.627,23.713,9.627c13.094,0,23.707-4.312,23.707-9.627v-10.062
					H86.482z"/>
				<path fill="#B6BEC6" d="M133.902,124.518v10.033c0,5.301,10.693,9.601,23.877,9.601c13.182,0,23.868-4.3,23.868-9.601v-10.033
					H133.902z"/>
				<path fill="#233C79" d="M181.049,124.282v10.031c0,5.301,10.682,9.6,23.868,9.6c13.18,0,23.87-4.299,23.87-9.6v-10.031H181.049z
					"/>
				<path fill="#B6BEC6" d="M228.414,124.518v10.033c0,5.301,10.71,9.601,23.921,9.601c13.217,0,23.927-4.3,23.927-9.601v-10.033
					H228.414z"/>
				<g>
					<path fill="#1D4696" d="M134.277,124.518c3.109-5.478,6.23-10.966,9.34-16.451c-15.329,0-22.998,0-38.33,0
						c-6.27,5.485-12.537,10.974-18.801,16.451C102.41,124.518,118.348,124.518,134.277,124.518z"/>
					<path fill="#DBE3E7" d="M181.695,124.518c-0.024-5.478-0.044-10.966-0.063-16.451c-15.33,0-22.988,0-38.323,0
						c-3.132,5.485-6.27,10.974-9.406,16.451C149.835,124.518,165.77,124.518,181.695,124.518z"/>
					<path fill="#1D4696" d="M228.826,124.518c-3.127-5.478-6.263-10.966-9.399-16.451c-15.326,0-22.984,0-38.313,0
						c-0.023,5.485-0.044,10.974-0.064,16.451C196.975,124.518,212.903,124.518,228.826,124.518z"/>
					<path fill="#DBE3E7" d="M276.262,124.518c-6.273-5.478-12.546-10.966-18.804-16.451c-15.332,0-23.006,0-38.326,0
						c3.108,5.485,6.218,10.974,9.328,16.451C244.397,124.518,260.33,124.518,276.262,124.518z"/>
				</g>
			</g>
			<rect x="207.269" y="144.207" fill="#DBE3E7" width="40.429" height="78.595"/>
			<rect x="210.286" y="147.816" fill="#B8C7E0" width="34.392" height="72.063"/>
			<circle fill="#494848" cx="241.114" cy="183.505" r="2.038"/>
		</g>
		<g>
			<circle fill="#D2D9E8" cx="161.657" cy="179.819" r="20.105"/>
			<path fill="#B8C7E0" d="M146.162,190.635c4.6,6.589,12.022,10.03,19.496,9.837c1.628-7.834,0.157-16.292-4.782-23.367
				c-3.949-5.658-9.491-9.534-15.593-11.469C140.781,173.177,140.809,182.965,146.162,190.635z"/>
			<path fill="#494848" d="M148.285,160.659c-10.6,7.397-13.195,21.986-5.799,32.585c7.4,10.601,21.986,13.193,32.59,5.797
				c10.597-7.398,13.193-21.985,5.797-32.586C173.473,155.856,158.884,153.261,148.285,160.659z M171.943,194.559
				c-8.122,5.668-19.304,3.679-24.973-4.443c-5.67-8.124-3.682-19.306,4.442-24.976c8.125-5.67,19.303-3.681,24.975,4.444
				C182.059,177.707,180.069,188.89,171.943,194.559z"/>

				<rect x="180.582" y="192.551" transform="matrix(0.82 -0.5724 0.5724 0.82 -88.675 144.1757)" fill="#494848" width="8.542" height="40.999"/>
			<polygon fill="#1D4696" points="203.784,228.169 192.513,236.037 173.154,208.297 184.424,200.434 			"/>
			<path fill="#FFFFFF" d="M150.4,178.227c0.64,0.917,0.416,2.182-0.5,2.822c-0.918,0.64-2.184,0.415-2.824-0.501
				c-0.639-0.918-0.416-2.181,0.502-2.822C148.498,177.089,149.76,177.311,150.4,178.227z"/>
		</g>
	</g>
	<g id="GRAFICAS">
		<ellipse fill="#EDEFF1" cx="320.86" cy="48.014" rx="30.195" ry="31.287"/>
		<path fill="#B8C7E0" d="M328.771,57.868c0-2.895,1.142-4.536,3.073-4.536c1.941,0,3.072,1.642,3.072,4.529
			c0,2.887-1.131,4.509-3.072,4.509C329.907,62.37,328.771,60.755,328.771,57.868z M332.881,57.828c0-1.627-0.355-2.528-1.036-2.528
			s-1.036,0.896-1.036,2.528c0,1.688,0.374,2.589,1.036,2.589C332.509,60.417,332.881,59.515,332.881,57.828z M339.369,53.012h2.021
			l-7.931,16.009h-2.015L339.369,53.012z M337.918,64.199c0-2.894,1.142-4.534,3.075-4.534c1.935,0,3.07,1.641,3.07,4.534
			c0,2.882-1.129,4.5-3.07,4.5C339.047,68.699,337.918,67.087,337.918,64.199z M342.021,64.162c0-1.628-0.35-2.529-1.027-2.529
			c-0.684,0-1.04,0.901-1.04,2.529c0,1.684,0.374,2.586,1.04,2.586C341.647,66.748,342.021,65.845,342.021,64.162z"/>
		<path fill="#B8C7E0" d="M314.241,60.68c0-5.614,2.471-8.802,6.663-8.802c4.189,0,6.645,3.181,6.645,8.794
			c0,5.607-2.445,8.744-6.648,8.744C316.703,69.417,314.241,66.295,314.241,60.68z M323.565,60.612c0-3.377-0.917-5.241-2.665-5.241
			c-1.751,0-2.668,1.855-2.668,5.234c0,3.478,0.969,5.342,2.668,5.342C322.603,65.947,323.565,64.089,323.565,60.612z"/>
		<path fill="#B8C7E0" d="M312.887,69.167H301.05v-2.658c2.137-4.836,7.747-5.866,7.747-9.07c0-1.326-0.955-2.121-2.341-2.121
			c-1.323,0-2.672,0.75-3.46,1.758l-2.241-2.107c1.136-1.795,3.345-3.089,6.005-3.089c3.288,0,5.893,1.984,5.893,5.377
			c0,4.842-5.361,6.25-6.521,8.447h6.756V69.167z"/>
		<g>
			<path fill="#2D2D2D" d="M302.822,44.076c-1.012,0-1.832,0.82-1.832,1.833l0,0c0,1.013,0.82,1.833,1.832,1.833h34.324
				c1.012,0,1.832-0.82,1.832-1.833l0,0c0-1.013-0.82-1.833-1.832-1.833H302.822z"/>
			<g>
				<path fill="#1D4498" d="M333.95,40.727c0,1.013,0.82,1.833,1.833,1.833l0,0c1.013,0,1.833-0.82,1.833-1.833V16.594
					c0-1.013-0.82-1.833-1.833-1.833l0,0c-1.013,0-1.833,0.82-1.833,1.833V40.727z"/>
				<path fill="#1D4498" d="M326.269,40.978c0,1.013,0.82,1.833,1.833,1.833l0,0c1.013,0,1.833-0.82,1.833-1.833V22.124
					c0-1.013-0.82-1.833-1.833-1.833l0,0c-1.013,0-1.833,0.82-1.833,1.833V40.978z"/>
				<path fill="#1D4498" d="M318.587,40.727c0,1.013,0.82,1.833,1.833,1.833l0,0c1.013,0,1.833-0.82,1.833-1.833V26.964
					c0-1.013-0.82-1.833-1.833-1.833l0,0c-1.013,0-1.833,0.82-1.833,1.833V40.727z"/>
				<path fill="#1D4498" d="M311.013,40.727c0,1.013,0.82,1.833,1.833,1.833l0,0c1.013,0,1.833-0.82,1.833-1.833v-10.26
					c0-1.013-0.82-1.833-1.833-1.833l0,0c-1.013,0-1.833,0.82-1.833,1.833V40.727z"/>
				<path fill="#1D4498" d="M303.116,40.727c0,1.013,0.82,1.833,1.833,1.833l0,0c1.013,0,1.833-0.82,1.833-1.833v-6.903
					c0-1.013-0.82-1.833-1.833-1.833l0,0c-1.013,0-1.833,0.82-1.833,1.833V40.727z"/>
			</g>
			<path fill="#005CFF" d="M338.385,8.662l-2.224-7.602c-0.106-0.384-0.375-0.686-0.701-0.861c-0.33-0.184-0.731-0.245-1.111-0.128
				l-7.594,2.223c-0.771,0.212-1.207,1.017-0.98,1.783l0.299,1.001c0.221,0.756,1.018,1.202,1.779,0.976l2.439-0.716
				c-7.089,9.569-17.079,15.929-28.986,18.376c-1.081,0.205-1.858,1.159-1.718,2.195c0.019,0.127,0.03,0.192,0.041,0.312
				c0.145,1.043,1.243,1.75,2.414,1.538c13.106-2.664,24.15-9.762,31.872-20.406l0.704,2.405c0.224,0.764,1.028,1.192,1.786,0.98
				l1.003-0.301C338.169,10.218,338.613,9.41,338.385,8.662z"/>
		</g>
	</g>
	<g id="GRAFICAS">
		<path fill-rule="evenodd" clip-rule="evenodd" fill="#EDEFF1" d="M69.747,219.139c0,21.167-15.624,38.306-34.876,38.306
			c-19.24,0-34.869-17.139-34.869-38.306c0-21.139,15.629-38.27,34.869-38.27C54.123,180.87,69.747,198.001,69.747,219.139z"/>
		<g>
			<g>
				<g>
					<path fill="#005CFF" d="M51.826,203.75l5.564-5.637c0.283-0.279,0.416-0.661,0.412-1.031c0-0.378-0.143-0.758-0.43-1.033
						l-5.631-5.559c-0.561-0.571-1.475-0.56-2.035,0.011l-0.729,0.747c-0.555,0.56-0.557,1.473,0.012,2.029l1.811,1.784
						c-11.809-1.547-22.221-7.189-30.145-16.408c-0.705-0.846-1.916-1.062-2.754-0.436c-0.102,0.078-0.152,0.12-0.252,0.188
						c-0.842,0.633-0.926,1.937-0.172,2.856c8.695,10.162,20.266,16.367,33.32,17.945l-1.76,1.783
						c-0.559,0.567-0.543,1.479,0.01,2.037l0.75,0.731C50.361,204.317,51.283,204.313,51.826,203.75z"/>
				</g>
			</g>
		</g>
		<g>
			<path fill="#2D2D2D" d="M52.076,218.499c1.012,0,1.832,0.82,1.832,1.833l0,0c0,1.013-0.82,1.833-1.832,1.833H17.752
				c-1.012,0-1.832-0.82-1.832-1.833l0,0c0-1.013,0.82-1.833,1.832-1.833H52.076z"/>
			<g>
				<path fill="#1D4498" d="M20.949,215.15c0,1.013-0.82,1.833-1.834,1.833l0,0c-1.012,0-1.832-0.82-1.832-1.833v-24.134
					c0-1.013,0.82-1.833,1.832-1.833l0,0c1.014,0,1.834,0.82,1.834,1.833V215.15z"/>
				<path fill="#1D4498" d="M28.631,215.401c0,1.013-0.82,1.833-1.834,1.833l0,0c-1.012,0-1.832-0.82-1.832-1.833v-18.854
					c0-1.013,0.82-1.833,1.832-1.833l0,0c1.014,0,1.834,0.82,1.834,1.833V215.401z"/>
				<path fill="#1D4498" d="M36.312,215.15c0,1.013-0.82,1.833-1.834,1.833l0,0c-1.012,0-1.832-0.82-1.832-1.833v-13.764
					c0-1.013,0.82-1.833,1.832-1.833l0,0c1.014,0,1.834,0.82,1.834,1.833V215.15z"/>
				<path fill="#1D4498" d="M43.887,215.15c0,1.013-0.82,1.833-1.834,1.833l0,0c-1.012,0-1.832-0.82-1.832-1.833v-10.26
					c0-1.013,0.82-1.833,1.832-1.833l0,0c1.014,0,1.834,0.82,1.834,1.833V215.15z"/>
				<path fill="#1D4498" d="M51.783,215.15c0,1.013-0.82,1.833-1.834,1.833l0,0c-1.012,0-1.832-0.82-1.832-1.833v-6.903
					c0-1.013,0.82-1.833,1.832-1.833l0,0c1.014,0,1.834,0.82,1.834,1.833V215.15z"/>
			</g>
			<g>
				<path fill="#B8C7E0" d="M41.797,232.517c0-2.895,1.143-4.536,3.074-4.536c1.941,0,3.072,1.642,3.072,4.529
					c0,2.887-1.131,4.509-3.072,4.509C42.934,237.019,41.797,235.404,41.797,232.517z M45.906,232.477
					c0-1.627-0.355-2.528-1.035-2.528c-0.682,0-1.037,0.896-1.037,2.528c0,1.688,0.375,2.589,1.037,2.589
					C45.535,235.066,45.906,234.165,45.906,232.477z M52.395,227.662h2.021l-7.932,16.009h-2.014L52.395,227.662z M50.943,238.848
					c0-2.894,1.143-4.534,3.076-4.534s3.07,1.641,3.07,4.534c0,2.882-1.129,4.5-3.07,4.5
					C52.072,243.348,50.943,241.736,50.943,238.848z M55.047,238.811c0-1.628-0.35-2.529-1.027-2.529
					c-0.684,0-1.041,0.901-1.041,2.529c0,1.684,0.375,2.586,1.041,2.586C54.674,241.397,55.047,240.495,55.047,238.811z"/>
				<path fill="#B8C7E0" d="M27.268,235.33c0-5.614,2.471-8.802,6.662-8.802c4.189,0,6.645,3.181,6.645,8.794
					c0,5.607-2.445,8.744-6.648,8.744C29.729,244.066,27.268,240.944,27.268,235.33z M36.592,235.261
					c0-3.377-0.918-5.241-2.666-5.241c-1.75,0-2.668,1.855-2.668,5.234c0,3.478,0.969,5.342,2.668,5.342
					C35.629,240.596,36.592,238.738,36.592,235.261z"/>
				<g>
					<path fill="#B8C7E0" d="M24.963,231.322c0,1.646-0.756,2.625-1.311,3.113c0.854,0.6,2.051,1.909,2.051,4.139
						c0,3.119-2.346,5.57-5.482,5.57c-3.162,0-5.482-2.474-5.482-5.548c0-2.229,1.23-3.562,2.08-4.161
						c-0.576-0.525-1.33-1.499-1.33-3.129c0-2.617,1.953-4.778,4.752-4.778C23.037,226.528,24.963,228.697,24.963,231.322z
						 M22.447,238.544c0-1.309-0.875-2.366-2.227-2.366c-1.357,0-2.232,1.058-2.232,2.374c0,1.438,1.029,2.336,2.248,2.336
						C21.533,240.887,22.447,239.884,22.447,238.544z M21.799,231.474c0-0.958-0.654-1.657-1.578-1.657
						c-0.922,0-1.557,0.692-1.557,1.682c0,1.011,0.662,1.688,1.551,1.688C21.158,233.186,21.799,232.426,21.799,231.474z"/>
				</g>
			</g>
		</g>
	</g>
	<g id="DINERO">
		<path fill="#B8C7E0" d="M345.488,249.836c0,0.786-0.638,1.424-1.426,1.424l0,0c-0.786,0-1.424-0.638-1.424-1.424v-11.381
			c0-0.787,0.638-1.425,1.424-1.425l0,0c0.788,0,1.426,0.638,1.426,1.425V249.836z"/>
		<path fill="#B8C7E0" d="M349.754,242.72c0.787,0,1.424,0.637,1.424,1.425l0,0c0,0.787-0.637,1.424-1.424,1.424h-11.381
			c-0.787,0-1.424-0.637-1.424-1.424l0,0c0-0.788,0.637-1.425,1.424-1.425H349.754z"/>
		<path fill="#B8C7E0" d="M362.631,269.463c0,0.88-0.713,1.594-1.596,1.594l0,0c-0.88,0-1.593-0.714-1.593-1.594v-12.736
			c0-0.881,0.713-1.595,1.593-1.595l0,0c0.883,0,1.596,0.714,1.596,1.595V269.463z"/>
		<path fill="#B8C7E0" d="M367.405,261.501c0.88,0,1.593,0.713,1.593,1.594l0,0c0,0.88-0.713,1.594-1.593,1.594h-12.737
			c-0.88,0-1.593-0.714-1.593-1.594l0,0c0-0.881,0.713-1.594,1.593-1.594H367.405z"/>
		<ellipse fill="#EDEFF1" cx="312.801" cy="264.276" rx="32.767" ry="29.246"/>
		<g>
			<g>
				<path fill="#3F64AE" d="M319.317,246.522c7.357,1.03,12.539,7.53,11.556,14.513c-0.979,6.979-7.745,11.807-15.107,10.769
					c-7.361-1.027-12.531-7.527-11.554-14.51C305.195,250.31,311.957,245.487,319.317,246.522z"/>
				<path fill="#233C79" d="M319.27,246.874c7.134,1.002,12.217,6.845,11.349,13.052c-0.872,6.208-7.367,10.425-14.51,9.426
					c-7.131-1.005-12.212-6.846-11.342-13.055C305.641,250.092,312.131,245.873,319.27,246.874z"/>
				<path fill="#3F64AE" d="M318.932,249.263c5.619,0.79,9.62,5.392,8.937,10.278c-0.684,4.889-5.802,8.212-11.424,7.42
					c-5.616-0.788-9.615-5.393-8.931-10.278C308.198,251.796,313.311,248.472,318.932,249.263z"/>
				<g>
					<path fill="#FFFFFF" d="M323.581,259.578c-0.147,0.575-0.39,1.089-0.729,1.533c-0.337,0.446-0.745,0.81-1.207,1.105
						l-0.636-0.482c-0.062-0.043-0.099-0.102-0.131-0.168c-0.031-0.069-0.04-0.138-0.031-0.207c0.011-0.093,0.082-0.188,0.202-0.287
						c0.127-0.102,0.264-0.231,0.428-0.383c0.158-0.147,0.32-0.334,0.482-0.554c0.159-0.217,0.284-0.488,0.377-0.81l-4.414-0.896
						c-0.163,0.324-0.344,0.638-0.536,0.944c-0.197,0.31-0.431,0.576-0.702,0.804c-0.283,0.224-0.606,0.394-0.991,0.502
						c-0.384,0.106-0.848,0.123-1.393,0.046c-0.412-0.059-0.801-0.184-1.172-0.375c-0.367-0.194-0.682-0.445-0.947-0.752
						c-0.267-0.309-0.471-0.671-0.608-1.086c-0.135-0.415-0.176-0.878-0.104-1.387l-1.212-0.24c-0.104-0.023-0.191-0.075-0.265-0.15
						c-0.078-0.073-0.105-0.166-0.095-0.271l0.068-0.482l1.646,0.333c0.149-0.499,0.356-0.917,0.643-1.255
						c0.278-0.342,0.603-0.626,0.965-0.874l0.512,0.389c0.151,0.122,0.221,0.251,0.199,0.373c-0.005,0.068-0.057,0.146-0.143,0.229
						c-0.08,0.095-0.179,0.202-0.287,0.339c-0.115,0.124-0.225,0.276-0.34,0.444c-0.119,0.178-0.221,0.372-0.292,0.606l4.026,0.812
						c0.168-0.333,0.353-0.66,0.547-0.979c0.196-0.324,0.422-0.597,0.693-0.839c0.268-0.239,0.583-0.422,0.954-0.537
						c0.367-0.126,0.81-0.146,1.327-0.073c0.505,0.069,0.967,0.209,1.394,0.419c0.424,0.204,0.783,0.472,1.08,0.802
						c0.297,0.323,0.523,0.709,0.676,1.139c0.156,0.438,0.193,0.92,0.118,1.438l1.489,0.297c0.105,0.023,0.196,0.076,0.271,0.155
						c0.065,0.079,0.095,0.164,0.083,0.268l-0.067,0.481L323.581,259.578z M314.331,259.477c0.271,0.041,0.512,0.031,0.715-0.029
						c0.209-0.047,0.403-0.138,0.573-0.265c0.175-0.127,0.328-0.275,0.472-0.456c0.136-0.179,0.267-0.374,0.39-0.588l-3.754-0.753
						c-0.013,0.318,0.024,0.604,0.099,0.85c0.085,0.249,0.192,0.458,0.345,0.626c0.148,0.176,0.32,0.312,0.519,0.416
						C313.888,259.381,314.098,259.446,314.331,259.477z M320.472,256.215c-0.287-0.04-0.531-0.027-0.743,0.035
						c-0.218,0.061-0.406,0.159-0.57,0.29c-0.174,0.141-0.319,0.301-0.454,0.497c-0.137,0.189-0.269,0.4-0.396,0.631l4.144,0.833
						c0.017-0.322-0.024-0.611-0.115-0.878c-0.093-0.261-0.229-0.492-0.399-0.689c-0.169-0.192-0.379-0.351-0.627-0.47
						C321.061,256.34,320.783,256.255,320.472,256.215z"/>
				</g>
				<g>
					<defs>
						<path id="SVGID_1_" d="M319.317,246.522c7.357,1.03,12.539,7.53,11.556,14.513c-0.979,6.979-7.745,11.807-15.107,10.769
							c-7.361-1.027-12.531-7.527-11.554-14.51C305.195,250.31,311.957,245.487,319.317,246.522z"/>
					</defs>
					<clipPath id="SVGID_2_">
						<use xlink:href="#SVGID_1_"  overflow="visible"/>
					</clipPath>
					<path clip-path="url(#SVGID_2_)" fill="#233C79" d="M296.551,262.499c4.94-5.553,12.808-6.619,17.573-2.38
						c4.764,4.242,4.626,12.18-0.322,17.735c-4.937,5.55-12.809,6.619-17.571,2.376
						C291.463,275.991,291.613,268.052,296.551,262.499z"/>
				</g>
			</g>
			<g>
				<path fill="#3F64AE" d="M294.588,261.745c4.94-5.554,12.811-6.619,17.58-2.382c4.759,4.24,4.622,12.181-0.325,17.732
					c-4.937,5.557-12.81,6.626-17.57,2.383C289.504,275.241,289.649,267.298,294.588,261.745z"/>
				<path fill="#233C79" d="M294.824,261.953c4.788-5.384,12.005-6.787,16.11-3.132c4.108,3.656,3.555,10.981-1.235,16.367
					s-12.004,6.784-16.111,3.13C289.48,274.667,290.034,267.338,294.824,261.953z"/>
				<path fill="#3F64AE" d="M296.111,262.94c3.772-4.245,9.451-5.35,12.69-2.472c3.231,2.878,2.795,8.649-0.975,12.891
					c-3.768,4.237-9.452,5.345-12.688,2.47C291.901,272.947,292.341,267.177,296.111,262.94z"/>
				<g>
					<path fill="#FFFFFF" d="M306.396,264.006c0.345,0.39,0.589,0.833,0.722,1.325c0.14,0.488,0.181,0.994,0.136,1.517l-0.714,0.294
						c-0.07,0.023-0.136,0.029-0.202,0.023c-0.069-0.008-0.12-0.029-0.168-0.073c-0.062-0.051-0.094-0.157-0.101-0.303
						c-0.007-0.148-0.021-0.323-0.042-0.528c-0.021-0.201-0.063-0.422-0.136-0.659c-0.069-0.236-0.199-0.468-0.386-0.694
						l-3.171,3.197c0.151,0.289,0.284,0.59,0.397,0.891c0.118,0.307,0.187,0.627,0.198,0.96c0.009,0.332-0.052,0.683-0.192,1.049
						c-0.137,0.363-0.39,0.751-0.754,1.163c-0.272,0.308-0.587,0.568-0.938,0.78c-0.356,0.209-0.72,0.356-1.101,0.428
						c-0.381,0.073-0.762,0.068-1.151-0.018c-0.387-0.086-0.745-0.271-1.079-0.574l-0.874,0.886
						c-0.069,0.072-0.16,0.121-0.257,0.146c-0.104,0.023-0.184,0.008-0.252-0.054l-0.323-0.281l1.184-1.19
						c-0.289-0.359-0.479-0.732-0.567-1.123c-0.093-0.391-0.126-0.794-0.104-1.212l0.581-0.228c0.176-0.073,0.309-0.07,0.388,0.007
						c0.048,0.037,0.079,0.115,0.093,0.229c0.029,0.106,0.047,0.237,0.08,0.394c0.034,0.155,0.084,0.317,0.145,0.494
						c0.057,0.18,0.151,0.357,0.28,0.526l2.886-2.924c-0.147-0.297-0.288-0.603-0.417-0.913c-0.127-0.31-0.203-0.632-0.223-0.968
						c-0.031-0.326,0.017-0.682,0.137-1.038c0.123-0.359,0.355-0.735,0.702-1.124c0.341-0.379,0.704-0.692,1.103-0.945
						c0.392-0.247,0.796-0.412,1.206-0.507c0.407-0.089,0.823-0.091,1.227-0.012c0.414,0.079,0.789,0.272,1.136,0.58l1.064-1.086
						c0.078-0.068,0.163-0.118,0.261-0.142c0.1-0.019,0.182-0.006,0.253,0.057l0.315,0.284L306.396,264.006z M301.078,271.549
						c0.179-0.198,0.309-0.4,0.387-0.599c0.079-0.198,0.119-0.396,0.124-0.6c0.005-0.193-0.018-0.396-0.068-0.597
						c-0.056-0.195-0.13-0.399-0.22-0.602l-2.683,2.728c0.233,0.158,0.459,0.261,0.688,0.316c0.228,0.05,0.447,0.061,0.663,0.021
						c0.204-0.04,0.405-0.118,0.593-0.232C300.754,271.871,300.919,271.725,301.078,271.549z M302.133,264.969
						c-0.185,0.21-0.315,0.417-0.387,0.623c-0.077,0.206-0.117,0.411-0.111,0.608c0.007,0.2,0.044,0.399,0.111,0.607
						c0.066,0.204,0.144,0.407,0.246,0.616l2.969-3.007c-0.234-0.162-0.476-0.26-0.723-0.31c-0.246-0.054-0.49-0.054-0.732,0
						c-0.237,0.047-0.477,0.139-0.708,0.283C302.565,264.543,302.348,264.734,302.133,264.969z"/>
				</g>
			</g>
		</g>
		<g>
			<g>
				<rect x="330.909" y="282.382" fill="#FFF200" width="2.229" height="3.522"/>
				<path fill="#3F64AE" d="M333.138,285.77c0,3.355-6.68,6.085-14.916,6.085c-8.246,0-14.92-2.729-14.92-6.085
					c0-3.358,6.674-6.087,14.92-6.087C326.458,279.683,333.138,282.412,333.138,285.77z"/>
				<path fill="#233C79" d="M333.138,282.481c0,3.354-6.68,6.088-14.916,6.088c-8.246,0-14.92-2.733-14.92-6.088
					c0-3.36,6.674-6.085,14.92-6.085C326.458,276.396,333.138,279.121,333.138,282.481z"/>
				<path fill="#FFF200" d="M329.97,281.62c0,2.173-5.259,3.934-11.748,3.934c-6.493,0-11.753-1.761-11.753-3.934
					c0-2.169,5.26-3.934,11.753-3.934C324.711,277.686,329.97,279.451,329.97,281.62z"/>
			</g>
			<g>
				<rect x="329.26" y="276.744" fill="#FFF200" width="2.235" height="3.527"/>
				<path fill="#3F64AE" d="M331.495,280.135c0,3.358-6.678,6.087-14.917,6.087c-8.243,0-14.927-2.729-14.927-6.087
					c0-3.361,6.684-6.088,14.927-6.088C324.817,274.047,331.495,276.773,331.495,280.135z"/>
				<path fill="#233C79" d="M331.495,276.844c0,3.359-6.678,6.088-14.917,6.088c-8.243,0-14.927-2.729-14.927-6.088
					c0-3.362,6.684-6.086,14.927-6.086C324.817,270.759,331.495,273.482,331.495,276.844z"/>
				<path fill="#FFF200" d="M328.324,275.983c0,2.172-5.258,3.937-11.746,3.937c-6.494,0-11.754-1.765-11.754-3.937
					c0-2.169,5.26-3.931,11.754-3.931C323.066,272.052,328.324,273.814,328.324,275.983z"/>
			</g>
			<g>
				<rect x="331.374" y="271.346" fill="#FFF200" width="2.233" height="3.523"/>
				<path fill="#3F64AE" d="M333.607,274.733c0,3.361-6.674,6.089-14.913,6.089c-8.25,0-14.929-2.728-14.929-6.089
					c0-3.356,6.679-6.086,14.929-6.086C326.934,268.647,333.607,271.377,333.607,274.733z"/>
				<path fill="#233C79" d="M333.607,271.441c0,3.363-6.674,6.086-14.913,6.086c-8.25,0-14.929-2.723-14.929-6.086
					c0-3.359,6.679-6.085,14.929-6.085C326.934,265.356,333.607,268.082,333.607,271.441z"/>
				<path fill="#3F64AE" d="M330.433,270.583c0,2.169-5.256,3.932-11.738,3.932c-6.493,0-11.754-1.763-11.754-3.932
					c0-2.175,5.261-3.933,11.754-3.933C325.177,266.65,330.433,268.408,330.433,270.583z"/>
			</g>
			<g>
				<defs>
					<path id="SVGID_3_" d="M333.604,271.346c-0.131-3.317-6.754-5.99-14.909-5.99c-8.165,0-14.791,2.673-14.921,5.99h-0.008v2.375
						c-1.3,0.888-2.06,1.92-2.106,3.022h-0.008v3.527h0.008c0.052,0.949,0.642,1.848,1.643,2.646v2.987h0.011
						c0.172,3.299,6.776,5.951,14.909,5.951c8.127,0,14.732-2.652,14.909-5.951h0.007v-3.522h-0.007
						c-0.032-0.96-0.619-1.871-1.636-2.678v-1.844c1.286-0.877,2.043-1.9,2.104-2.99h0.009v-3.523H333.604z"/>
				</defs>
				<clipPath id="SVGID_4_">
					<use xlink:href="#SVGID_3_"  overflow="visible"/>
				</clipPath>
				<path clip-path="url(#SVGID_4_)" fill="#233C79" d="M346.822,278.127c1.737,7.696-3.369,15.411-11.41,17.216
					c-8.035,1.815-15.962-2.956-17.699-10.648c-1.73-7.698,3.377-15.406,11.411-17.219
					C337.169,265.665,345.09,270.431,346.822,278.127z"/>
			</g>
			<path fill="#B6BEC6" d="M349.406,277.427c0,8.496-6.886,15.392-15.392,15.392c-8.493,0-15.387-6.896-15.387-15.392
				c0-8.498,6.894-15.389,15.387-15.389C342.521,262.038,349.406,268.928,349.406,277.427z"/>
			<path fill="#233C79" d="M348.938,277.427c0,8.238-6.68,14.92-14.923,14.92c-8.235,0-14.918-6.682-14.918-14.92
				c0-8.236,6.683-14.913,14.918-14.913C342.258,262.513,348.938,269.19,348.938,277.427z"/>
			<g>
				<path fill="#3F64AE" d="M336.329,278.837c-0.206-0.166-0.45-0.313-0.726-0.432c-0.274-0.127-0.572-0.239-0.893-0.34
					l-0.326,4.815c0.421-0.038,0.79-0.129,1.119-0.272c0.324-0.146,0.602-0.332,0.818-0.559c0.225-0.221,0.39-0.488,0.507-0.786
					c0.117-0.304,0.17-0.629,0.17-0.992c0-0.323-0.061-0.601-0.18-0.835C336.702,279.204,336.537,279.004,336.329,278.837z"/>
				<path fill="#3F64AE" d="M332.21,272.431c-0.192,0.188-0.342,0.41-0.441,0.649c-0.097,0.241-0.143,0.497-0.143,0.758
					c0,0.312,0.052,0.582,0.164,0.808c0.105,0.233,0.26,0.437,0.457,0.612c0.195,0.175,0.419,0.323,0.675,0.454
					c0.261,0.125,0.541,0.245,0.838,0.344l0.298-4.36c-0.418,0.032-0.785,0.122-1.089,0.252
					C332.659,272.071,332.406,272.236,332.21,272.431z"/>
				<path fill="#3F64AE" d="M334.015,265.678c-6.484,0-11.747,5.267-11.747,11.748c0,6.49,5.263,11.75,11.747,11.75
					c6.489,0,11.751-5.26,11.751-11.75C345.766,270.945,340.504,265.678,334.015,265.678z M338.347,281.651
					c-0.195,0.517-0.48,0.967-0.85,1.355c-0.37,0.39-0.831,0.7-1.368,0.945c-0.535,0.244-1.149,0.366-1.839,0.366l-0.112,1.733
					c-0.019,0.12-0.073,0.232-0.158,0.325c-0.089,0.093-0.201,0.134-0.329,0.134h-0.638l0.138-2.183
					c-0.782-0.068-1.486-0.261-2.132-0.58c-0.646-0.311-1.194-0.709-1.661-1.197l0.512-0.787c0.046-0.075,0.119-0.132,0.2-0.177
					c0.081-0.044,0.17-0.067,0.257-0.067c0.123,0,0.259,0.058,0.418,0.184c0.152,0.126,0.345,0.263,0.57,0.418
					c0.223,0.158,0.493,0.313,0.806,0.466c0.316,0.148,0.689,0.245,1.131,0.294l0.359-5.14c-0.449-0.132-0.896-0.286-1.329-0.456
					c-0.438-0.174-0.826-0.394-1.177-0.668c-0.347-0.28-0.621-0.625-0.829-1.046c-0.206-0.412-0.316-0.933-0.316-1.56
					c0-0.474,0.094-0.937,0.277-1.392c0.181-0.444,0.445-0.845,0.804-1.195c0.347-0.35,0.788-0.64,1.3-0.857
					c0.513-0.223,1.112-0.335,1.783-0.335l0.095-1.413c0.013-0.125,0.063-0.232,0.145-0.33c0.085-0.098,0.191-0.143,0.336-0.143
					h0.643l-0.132,1.918c0.676,0.08,1.253,0.255,1.75,0.519c0.491,0.264,0.933,0.585,1.315,0.958l-0.413,0.638
					c-0.136,0.193-0.278,0.289-0.447,0.289c-0.091,0-0.198-0.035-0.337-0.118c-0.128-0.075-0.288-0.175-0.478-0.281
					c-0.184-0.107-0.401-0.208-0.646-0.32c-0.25-0.105-0.531-0.185-0.845-0.226l-0.319,4.687c0.466,0.142,0.919,0.296,1.374,0.463
					c0.452,0.171,0.859,0.388,1.218,0.655c0.363,0.264,0.656,0.595,0.878,0.996c0.229,0.396,0.332,0.896,0.332,1.486
					C338.631,280.597,338.533,281.145,338.347,281.651z"/>
				<path fill="#FFFFFF" d="M337.421,277.527c-0.358-0.268-0.766-0.484-1.218-0.655c-0.455-0.167-0.908-0.321-1.374-0.463
					l0.319-4.687c0.313,0.041,0.595,0.12,0.845,0.226c0.245,0.112,0.463,0.213,0.646,0.32c0.189,0.106,0.35,0.206,0.478,0.281
					c0.139,0.083,0.246,0.118,0.337,0.118c0.169,0,0.312-0.096,0.447-0.289l0.413-0.638c-0.383-0.373-0.824-0.694-1.315-0.958
					c-0.497-0.264-1.074-0.438-1.75-0.519l0.132-1.918h-0.643c-0.145,0-0.251,0.045-0.336,0.143
					c-0.081,0.098-0.132,0.205-0.145,0.33l-0.095,1.413c-0.671,0-1.271,0.112-1.783,0.335c-0.512,0.218-0.953,0.508-1.3,0.857
					c-0.358,0.351-0.623,0.751-0.804,1.195c-0.184,0.455-0.277,0.918-0.277,1.392c0,0.627,0.11,1.147,0.316,1.56
					c0.208,0.421,0.482,0.766,0.829,1.046c0.351,0.274,0.738,0.494,1.177,0.668c0.434,0.17,0.88,0.324,1.329,0.456l-0.359,5.14
					c-0.441-0.049-0.814-0.146-1.131-0.294c-0.312-0.152-0.583-0.308-0.806-0.466c-0.226-0.155-0.418-0.292-0.57-0.418
					c-0.159-0.126-0.295-0.184-0.418-0.184c-0.087,0-0.176,0.023-0.257,0.067c-0.081,0.045-0.154,0.102-0.2,0.177l-0.512,0.787
					c0.467,0.488,1.015,0.887,1.661,1.197c0.646,0.319,1.35,0.512,2.132,0.58l-0.138,2.183h0.638c0.128,0,0.24-0.041,0.329-0.134
					c0.085-0.093,0.14-0.205,0.158-0.325l0.112-1.733c0.689,0,1.304-0.122,1.839-0.366c0.537-0.245,0.998-0.556,1.368-0.945
					c0.369-0.389,0.654-0.839,0.85-1.355c0.187-0.506,0.284-1.054,0.284-1.642c0-0.591-0.104-1.091-0.332-1.486
					C338.077,278.122,337.784,277.791,337.421,277.527z M333.76,276.056c-0.297-0.099-0.577-0.219-0.838-0.344
					c-0.256-0.131-0.479-0.279-0.675-0.454c-0.197-0.176-0.352-0.379-0.457-0.612c-0.112-0.226-0.164-0.495-0.164-0.808
					c0-0.261,0.046-0.517,0.143-0.758c0.1-0.239,0.249-0.461,0.441-0.649c0.196-0.195,0.449-0.36,0.759-0.483
					c0.304-0.13,0.671-0.22,1.089-0.252L333.76,276.056z M336.829,281.263c-0.117,0.298-0.282,0.565-0.507,0.786
					c-0.217,0.227-0.494,0.412-0.818,0.559c-0.329,0.144-0.698,0.234-1.119,0.272l0.326-4.815c0.32,0.101,0.618,0.213,0.893,0.34
					c0.275,0.118,0.52,0.266,0.726,0.432c0.208,0.167,0.373,0.367,0.49,0.6c0.119,0.234,0.18,0.512,0.18,0.835
					C336.999,280.635,336.946,280.96,336.829,281.263z"/>
			</g>
		</g>
	</g>
	<g id="DINERO">
		<ellipse fill="#EDEFF1" cx="167.611" cy="61.975" rx="36.173" ry="28.131"/>
		<g>
			<path fill="#FFFFFF" d="M153.333,64.344c0.496,1.045,1.817,1.646,2.858,1.141c1.045-0.496,1.423-1.886,0.925-2.926
				c-0.497-1.046-1.683-1.361-2.728-0.859C153.35,62.206,152.842,63.304,153.333,64.344z"/>
			<path fill="#FFFFFF" d="M175.475,48.475c1.042-0.516,1.556-1.612,1.063-2.662c-0.501-1.038-1.821-1.632-2.867-1.127
				c-1.036,0.493-1.419,1.882-0.922,2.921C173.249,48.65,174.436,48.967,175.475,48.475z"/>
			<path fill="#FFFFFF" d="M165.87,57.95c-0.669,0.764-1.406,1.177-1.991,1.354c0.132,0.622,0.27,1.245,0.403,1.856
				c0.531-0.153,1.323-0.657,2.032-1.403c0.192,0.409,0.392,0.817,0.585,1.229c0.342-0.383,0.68-0.772,1.024-1.157
				c-0.218-0.445-0.426-0.889-0.638-1.333c1.068-1.594,1.251-3.279,0.705-4.424c-0.559-1.173-1.396-1.366-2.885-0.519
				c-1.078,0.6-1.569,0.725-1.767,0.31c-0.17-0.359-0.134-0.977,0.53-1.738c0.742-0.846,1.376-1.092,1.713-1.225
				c-0.133-0.602-0.262-1.202-0.387-1.808c-0.469,0.196-1.027,0.519-1.716,1.267c-0.179-0.385-0.359-0.762-0.539-1.135
				c-0.344,0.378-0.672,0.763-1.019,1.142c0.197,0.415,0.393,0.818,0.584,1.228c-0.979,1.518-1.196,3.109-0.649,4.257
				c0.598,1.253,1.664,1.085,2.989,0.295c0.929-0.56,1.407-0.622,1.641-0.133C166.725,56.515,166.466,57.271,165.87,57.95z"/>
			<path fill="#FFFFFF" d="M147.172,55.615c-0.149,0.022-0.233,0.158-0.288,0.272c-0.061,0.098-0.016,0.309,0.055,0.435
				c0.539,1.133-0.29,2.164-1.766,1.86c-0.185-0.041-0.342-0.02-0.444,0.055c-0.09,0.071-0.115,0.191-0.045,0.335
				c1.954,4.107,3.905,8.207,5.859,12.314c0.065,0.142,0.257,0.281,0.428,0.391c0.186,0.107,0.423,0.169,0.593,0.163
				c1.299-0.008,2.928,0.754,3.456,1.86c0,0,0.052,0.146,0.054,0.147c0.049,0.132,0.162,0.252,0.312,0.339
				c0.155,0.082,0.329,0.114,0.478,0.095c11.243-1.616,15.597-17.711,26.834-19.33c0.147-0.023,0.237-0.156,0.298-0.271
				c0.056-0.108,0.013-0.305-0.061-0.433c-0.497-1.049,0.076-2.026,1.399-1.928c0.098,0.011,0.184,0.022,0.379,0.063
				c0.186,0.035,0.337,0.012,0.432-0.063c0.087-0.065,0.104-0.187,0.035-0.328c-1.95-4.104-3.908-8.213-5.858-12.315
				c-0.068-0.142-0.213-0.285-0.39-0.395c-0.183-0.107-0.39-0.174-0.546-0.164c-1.338,0.013-2.996-0.731-3.535-1.861l-0.049-0.134
				c-0.055-0.127-0.17-0.252-0.32-0.342c-0.146-0.087-0.326-0.123-0.479-0.106C162.763,37.902,158.413,53.997,147.172,55.615z
				 M173.219,43.73c1.564-0.769,3.617,0.254,4.36,1.823c0.751,1.573-0.082,3.112-1.651,3.879c-1.561,0.746-3.316,0.368-4.065-1.212
				C171.117,46.655,171.652,44.475,173.219,43.73z M161.669,48.235c2.979-3.509,7.077-2.799,8.892,1.021
				c1.784,3.742,0.605,9.17-2.368,12.686c-2.971,3.5-7.063,2.797-8.889-1.033C157.526,57.174,158.707,51.747,161.669,48.235z
				 M158.007,61.944c0.744,1.56,0.217,3.748-1.357,4.498c-1.562,0.762-3.615-0.26-4.361-1.829c-0.751-1.571,0.085-3.107,1.647-3.87
				C155.506,59.989,157.257,60.368,158.007,61.944z"/>
			<path fill="#3F64AE" d="M152.288,64.613c0.746,1.569,2.8,2.591,4.361,1.829c1.574-0.75,2.102-2.938,1.357-4.498
				c-0.75-1.576-2.501-1.955-4.071-1.201C152.373,61.506,151.537,63.042,152.288,64.613z M157.116,62.559
				c0.498,1.04,0.12,2.43-0.925,2.926c-1.041,0.506-2.362-0.096-2.858-1.141c-0.491-1.04,0.017-2.139,1.056-2.645
				C155.434,61.198,156.619,61.513,157.116,62.559z"/>
			<path fill="#3F64AE" d="M175.928,49.432c1.569-0.767,2.402-2.306,1.651-3.879c-0.743-1.569-2.796-2.592-4.36-1.823
				c-1.566,0.745-2.102,2.925-1.356,4.49C172.611,49.801,174.367,50.178,175.928,49.432z M173.671,44.686
				c1.046-0.505,2.366,0.089,2.867,1.127c0.492,1.05-0.021,2.146-1.063,2.662c-1.039,0.491-2.226,0.175-2.726-0.868
				C172.252,46.568,172.635,45.179,173.671,44.686z"/>
			<path fill="#3F64AE" d="M168.192,61.942c2.974-3.516,4.152-8.943,2.368-12.686c-1.814-3.82-5.912-4.53-8.892-1.021
				c-2.962,3.512-4.143,8.938-2.365,12.674C161.129,64.739,165.222,65.442,168.192,61.942z M164.847,56.144
				c-1.325,0.79-2.392,0.958-2.989-0.295c-0.547-1.147-0.33-2.739,0.649-4.257c-0.191-0.409-0.387-0.812-0.584-1.228
				c0.347-0.379,0.675-0.764,1.019-1.142c0.18,0.373,0.36,0.75,0.539,1.135c0.688-0.748,1.247-1.07,1.716-1.267
				c0.125,0.605,0.254,1.206,0.387,1.808c-0.337,0.133-0.971,0.379-1.713,1.225c-0.664,0.762-0.7,1.379-0.53,1.738
				c0.197,0.415,0.688,0.29,1.767-0.31c1.489-0.848,2.326-0.654,2.885,0.519c0.546,1.145,0.363,2.83-0.705,4.424
				c0.212,0.444,0.42,0.888,0.638,1.333c-0.345,0.385-0.683,0.774-1.024,1.157c-0.193-0.411-0.393-0.819-0.585-1.229
				c-0.709,0.746-1.501,1.25-2.032,1.403c-0.134-0.611-0.271-1.234-0.403-1.856c0.585-0.177,1.322-0.59,1.991-1.354
				c0.596-0.679,0.854-1.435,0.617-1.938C166.254,55.522,165.775,55.585,164.847,56.144z"/>
			<path fill="#3F64AE" d="M140.493,53.657c3.378,7.093,6.751,14.192,10.133,21.295c18.181,4.913,20.566-23.361,38.752-18.443
				c-3.376-7.098-6.752-14.194-10.132-21.293C161.061,30.295,158.684,58.588,140.493,53.657z M174.003,36.275
				c0.152-0.017,0.332,0.02,0.479,0.106c0.15,0.09,0.266,0.215,0.32,0.342l0.049,0.134c0.539,1.13,2.197,1.874,3.535,1.861
				c0.156-0.01,0.363,0.057,0.546,0.164c0.177,0.109,0.321,0.253,0.39,0.395c1.95,4.103,3.908,8.212,5.858,12.315
				c0.069,0.142,0.052,0.263-0.035,0.328c-0.095,0.075-0.246,0.099-0.432,0.063c-0.195-0.041-0.281-0.053-0.379-0.063
				c-1.323-0.099-1.896,0.879-1.399,1.928c0.073,0.128,0.116,0.324,0.061,0.433c-0.061,0.114-0.15,0.247-0.298,0.271
				c-11.237,1.619-15.591,17.714-26.834,19.33c-0.148,0.02-0.322-0.013-0.478-0.095c-0.15-0.087-0.264-0.207-0.312-0.339
				c-0.002-0.001-0.054-0.147-0.054-0.147c-0.528-1.106-2.157-1.868-3.456-1.86c-0.17,0.006-0.407-0.056-0.593-0.163
				c-0.171-0.109-0.362-0.249-0.428-0.391c-1.954-4.107-3.905-8.207-5.859-12.314c-0.07-0.144-0.045-0.264,0.045-0.335
				c0.103-0.074,0.26-0.096,0.444-0.055c1.476,0.304,2.305-0.728,1.766-1.86c-0.07-0.126-0.115-0.337-0.055-0.435
				c0.055-0.114,0.139-0.25,0.288-0.272C158.413,53.997,162.763,37.902,174.003,36.275z"/>
		</g>
		<g>
			<path fill="#FFFFFF" d="M155.361,68.895c0.235,1.135,1.372,2.027,2.506,1.781c1.136-0.234,1.829-1.492,1.592-2.621
				c-0.236-1.134-1.313-1.72-2.447-1.479C155.88,66.82,155.128,67.767,155.361,68.895z"/>
			<path fill="#FFFFFF" d="M180.627,58.709c1.132-0.252,1.89-1.195,1.664-2.334c-0.244-1.126-1.39-2.017-2.521-1.771
				c-1.123,0.233-1.822,1.493-1.587,2.618C178.422,58.355,179.5,58.943,180.627,58.709z"/>
			<path fill="#FFFFFF" d="M169.054,65.645c-0.829,0.586-1.645,0.812-2.259,0.848c-0.014,0.634-0.028,1.271-0.044,1.896
				c0.555-0.021,1.441-0.327,2.307-0.884c0.089,0.445,0.188,0.885,0.277,1.336c0.424-0.293,0.844-0.593,1.269-0.889
				c-0.104-0.481-0.202-0.962-0.305-1.442c1.414-1.297,1.991-2.891,1.733-4.131c-0.268-1.274-1.032-1.657-2.68-1.186
				c-1.188,0.326-1.698,0.331-1.793-0.118c-0.078-0.389,0.103-0.981,0.928-1.563c0.923-0.646,1.594-0.735,1.953-0.784
				c0.016-0.619,0.032-1.231,0.053-1.851c-0.501,0.08-1.121,0.264-1.968,0.825c-0.082-0.414-0.168-0.825-0.258-1.231
				c-0.42,0.289-0.83,0.584-1.254,0.871c0.093,0.448,0.184,0.887,0.275,1.331c-1.31,1.242-1.896,2.737-1.636,3.984
				c0.282,1.358,1.36,1.447,2.832,0.992c1.035-0.325,1.518-0.271,1.627,0.257C170.224,64.454,169.796,65.127,169.054,65.645z"/>
			<path fill="#FFFFFF" d="M151.438,58.957c-0.151-0.015-0.264,0.097-0.344,0.195c-0.082,0.083-0.091,0.297-0.051,0.436
				c0.259,1.228-0.794,2.035-2.154,1.392c-0.17-0.084-0.328-0.099-0.446-0.055c-0.105,0.05-0.154,0.162-0.122,0.316
				c0.926,4.452,1.854,8.9,2.78,13.352c0.031,0.149,0.184,0.335,0.325,0.481c0.153,0.147,0.37,0.264,0.536,0.298
				c1.265,0.3,2.666,1.426,2.918,2.626c0,0,0.017,0.149,0.019,0.153c0.018,0.142,0.099,0.287,0.222,0.405
				c0.132,0.119,0.292,0.188,0.439,0.204c11.307,1.086,19.344-13.521,30.646-12.438c0.152,0.014,0.271-0.096,0.354-0.192
				c0.079-0.092,0.086-0.293,0.045-0.435c-0.238-1.136,0.554-1.949,1.814-1.541c0.092,0.033,0.172,0.064,0.354,0.151
				c0.17,0.078,0.324,0.089,0.432,0.04c0.103-0.043,0.146-0.156,0.115-0.312c-0.93-4.448-1.856-8.905-2.783-13.353
				c-0.032-0.153-0.138-0.325-0.285-0.474c-0.15-0.148-0.335-0.262-0.49-0.289c-1.305-0.302-2.738-1.419-2.996-2.645l-0.014-0.142
				c-0.023-0.135-0.106-0.286-0.235-0.407c-0.12-0.12-0.284-0.198-0.437-0.217C170.772,45.43,162.743,60.043,151.438,58.957z
				 M179.556,53.569c1.703-0.378,3.455,1.103,3.808,2.8c0.354,1.706-0.816,3.005-2.523,3.381c-1.694,0.352-3.308-0.427-3.665-2.14
				C176.823,55.914,177.856,53.922,179.556,53.569z M167.268,55.212c3.724-2.702,7.537-1.044,8.399,3.095
				c0.85,4.06-1.581,9.056-5.3,11.768c-3.714,2.7-7.525,1.048-8.393-3.104C161.131,62.918,163.56,57.927,167.268,55.212z
				 M160.466,67.669c0.358,1.691-0.673,3.693-2.381,4.049c-1.697,0.371-3.453-1.107-3.805-2.809
				c-0.358-1.703,0.818-3.002,2.516-3.37C158.502,65.178,160.114,65.957,160.466,67.669z"/>
			<path fill="#3F64AE" d="M154.28,68.909c0.352,1.701,2.107,3.18,3.805,2.809c1.708-0.355,2.739-2.357,2.381-4.049
				c-0.352-1.712-1.964-2.49-3.67-2.13C155.099,65.907,153.922,67.206,154.28,68.909z M159.459,68.055
				c0.237,1.129-0.456,2.387-1.592,2.621c-1.134,0.246-2.271-0.646-2.506-1.781c-0.233-1.128,0.519-2.075,1.65-2.319
				C158.146,66.336,159.223,66.922,159.459,68.055z"/>
			<path fill="#3F64AE" d="M180.84,59.75c1.707-0.376,2.878-1.675,2.523-3.381c-0.353-1.697-2.104-3.178-3.808-2.8
				c-1.699,0.353-2.732,2.345-2.381,4.041C177.532,59.323,179.146,60.101,180.84,59.75z M179.77,54.604
				c1.132-0.246,2.277,0.645,2.521,1.771c0.226,1.139-0.532,2.082-1.664,2.334c-1.127,0.234-2.205-0.354-2.444-1.486
				C177.947,56.097,178.646,54.838,179.77,54.604z"/>
			<path fill="#3F64AE" d="M170.367,70.074c3.719-2.712,6.149-7.708,5.3-11.768c-0.862-4.139-4.676-5.797-8.399-3.095
				c-3.708,2.716-6.137,7.706-5.293,11.759C162.842,71.122,166.653,72.774,170.367,70.074z M168.485,63.65
				c-1.472,0.455-2.55,0.366-2.832-0.992c-0.261-1.247,0.326-2.742,1.636-3.984c-0.092-0.444-0.183-0.883-0.275-1.331
				c0.424-0.287,0.834-0.582,1.254-0.871c0.09,0.406,0.176,0.817,0.258,1.231c0.847-0.562,1.467-0.745,1.968-0.825
				c-0.021,0.619-0.037,1.231-0.053,1.851c-0.359,0.049-1.03,0.138-1.953,0.784c-0.825,0.582-1.006,1.175-0.928,1.563
				c0.095,0.449,0.604,0.444,1.793,0.118c1.647-0.472,2.412-0.089,2.68,1.186c0.258,1.24-0.319,2.834-1.733,4.131
				c0.103,0.48,0.201,0.961,0.305,1.442c-0.425,0.296-0.845,0.596-1.269,0.889c-0.09-0.451-0.188-0.891-0.277-1.336
				c-0.865,0.557-1.752,0.862-2.307,0.884c0.016-0.625,0.03-1.263,0.044-1.896c0.614-0.036,1.43-0.262,2.259-0.848
				c0.742-0.519,1.17-1.191,1.059-1.738C170.003,63.379,169.521,63.325,168.485,63.65z"/>
			<path fill="#3F64AE" d="M145.41,55.476c1.607,7.689,3.206,15.385,4.813,23.086c16.501,9.072,25.505-17.84,42.011-8.759
				c-1.604-7.695-3.204-15.389-4.81-23.085C170.919,37.635,161.92,64.565,145.41,55.476z M182.08,46.509
				c0.152,0.019,0.316,0.097,0.437,0.217c0.129,0.121,0.212,0.272,0.235,0.407l0.014,0.142c0.258,1.226,1.691,2.343,2.996,2.645
				c0.155,0.027,0.34,0.141,0.49,0.289c0.147,0.148,0.253,0.32,0.285,0.474c0.927,4.447,1.854,8.904,2.783,13.353
				c0.031,0.155-0.013,0.269-0.115,0.312c-0.107,0.049-0.262,0.038-0.432-0.04c-0.183-0.087-0.263-0.118-0.354-0.151
				c-1.261-0.408-2.053,0.405-1.814,1.541c0.041,0.142,0.034,0.343-0.045,0.435c-0.083,0.097-0.201,0.206-0.354,0.192
				c-11.302-1.082-19.339,13.524-30.646,12.438c-0.147-0.016-0.308-0.085-0.439-0.204c-0.123-0.118-0.204-0.264-0.222-0.405
				c-0.002-0.004-0.019-0.153-0.019-0.153c-0.252-1.2-1.653-2.326-2.918-2.626c-0.166-0.034-0.383-0.15-0.536-0.298
				c-0.142-0.146-0.294-0.332-0.325-0.481c-0.927-4.451-1.854-8.899-2.78-13.352c-0.032-0.154,0.017-0.267,0.122-0.316
				c0.118-0.044,0.276-0.029,0.446,0.055c1.36,0.644,2.413-0.164,2.154-1.392c-0.04-0.139-0.031-0.353,0.051-0.436
				c0.08-0.099,0.192-0.21,0.344-0.195C162.743,60.043,170.772,45.43,182.08,46.509z"/>
		</g>
	</g>
</g>
</svg>
