<?xml version="1.0" encoding="utf-8"?>
<!-- Generator: Adobe Illustrator 16.0.0, SVG Export Plug-In . SVG Version: 6.00 Build 0)  -->
<!DOCTYPE svg PUBLIC "-//W3C//DTD SVG 1.1//EN" "http://www.w3.org/Graphics/SVG/1.1/DTD/svg11.dtd">
<svg version="1.1" id="Layer_1" xmlns="http://www.w3.org/2000/svg" xmlns:xlink="http://www.w3.org/1999/xlink" x="0px" y="0px"
	 width="369px" height="313.9px" viewBox="0 0 369 313.9" style="enable-background:new 0 0 369 313.9;" xml:space="preserve">
<style type="text/css">
<![CDATA[
	.st0{fill:#494848;}
	.st1{fill-rule:evenodd;clip-rule:evenodd;fill:#DBE3E7;}
	.st2{opacity:0.2;fill-rule:evenodd;clip-rule:evenodd;fill:#3F64AE;}
	.st3{fill:#B6BEC6;}
	.st4{fill:#1D4498;}
	.st5{fill:#1D4696;}
	.st6{fill:#B8C7E0;}
	.st7{fill:#233C79;}
	.st8{clip-path:url(#SVGID_2_);fill:#233C79;}
	.st9{fill:#2D2D2D;}
	.st10{fill:#FFF200;}
	.st11{fill:#FFFFFF;}
	.st12{clip-path:url(#SVGID_4_);fill:#233C79;}
	.st13{fill:#005CFF;}
	.st14{fill-rule:evenodd;clip-rule:evenodd;fill:#FFFFFF;}
	.st15{fill:#D2D9E8;}
	.st16{fill:#3F64AE;}
	.st17{fill:#DBE3E7;}
]]>
</style>
<g>
	<g>
		<circle class="st2" cx="168" cy="63.4" r="8.4"/>
		<circle class="st14" cx="168" cy="63.4" r="5.4"/>
	</g>
	<g>
		<circle class="st2" cx="115.5" cy="154.5" r="8.4"/>
		<circle class="st14" cx="115.5" cy="154.5" r="5.4"/>
	</g>
	<path class="st6" d="M64.6,194l-0.8-1l5.1-3.9l0.8,1L64.6,194z M72.7,187.8l-0.8-1L77,183l0.8,1L72.7,187.8z M80.8,181.7l-0.8-1
		l5.1-3.9l0.8,1L80.8,181.7z M39.5,180.1l-1.3-0.2l0.9-6.3l1.3,0.2L39.5,180.1z M89,175.5l-0.8-1l5.1-3.9l0.8,1L89,175.5z
		 M40.9,169.9l-1.3-0.2l0.9-6.3l1.3,0.2L40.9,169.9z M97.1,169.3l-0.8-1l5.1-3.9l0.8,1L97.1,169.3z M105.2,163.1l-0.8-1l5.1-3.9
		l0.8,1L105.2,163.1z M42.3,159.8l-1.3-0.2l0.9-6.3l1.3,0.2L42.3,159.8z M113.4,157l-0.8-1l2.5-1.9l1.5-2.6l1.1,0.6l-1.6,2.9
		L113.4,157z M43.7,149.7l-1.3-0.2l0.9-6.3l1.3,0.2L43.7,149.7z M119.6,148.8l-1.1-0.6l3.2-5.5l1.1,0.6L119.6,148.8z M124.7,139.9
		l-1.1-0.6l3.2-5.5l1.1,0.6L124.7,139.9z M45.1,139.6l-1.3-0.2l0.9-6.3l1.3,0.2L45.1,139.6z M129.8,131.1l-1.1-0.6l3.2-5.5l1.1,0.6
		L129.8,131.1z M46.6,129.5l-1.3-0.2l0.9-6.3l1.3,0.2L46.6,129.5z M134.9,122.2l-1.1-0.6l3.2-5.5l1.1,0.6L134.9,122.2z M48,119.4
		l-1.3-0.2l0.9-6.3l1.3,0.2L48,119.4z M140,113.4l-1.1-0.6l3.2-5.5l1.1,0.6L140,113.4z M49.4,109.3l-1.3-0.2l0.9-6.3l1.3,0.2
		L49.4,109.3z M145,104.5l-1.1-0.6l3.2-5.5l1.1,0.6L145,104.5z M50.8,99.2L49.6,99l0.9-6.3l1.3,0.2L50.8,99.2z M150.1,95.7L149,95
		l3.2-5.5l1.1,0.6L150.1,95.7z M52.2,89.1L51,88.9l0.9-6.3l1.3,0.2L52.2,89.1z M53.7,78.9l-1.3-0.2l0.9-6.3l1.3,0.2L53.7,78.9z
		 M55.1,68.8l-1.3-0.2l0.9-6.3l1.3,0.2L55.1,68.8z M56.5,58.7l-1.3-0.2l0.9-6.3l1.3,0.2L56.5,58.7z M134.3,55.1l-6.2-1.6l0.3-1.2
		l6.2,1.6L134.3,55.1z M124.5,52.5l-6.2-1.6l0.3-1.2l6.2,1.6L124.5,52.5z M114.6,49.9l-6.2-1.6l0.3-1.2l6.2,1.6L114.6,49.9z
		 M57.9,48.6l-1.3-0.2l0.9-6.3l1.3,0.2L57.9,48.6z M104.7,47.2l-6.2-1.6l0.3-1.2l6.2,1.6L104.7,47.2z M94.9,44.6L88.7,43l0.3-1.2
		l6.2,1.6L94.9,44.6z M85,42l-6.2-1.6l0.3-1.2l6.2,1.6L85,42z M75.1,39.3L69,37.7l0.3-1.2l6.2,1.6L75.1,39.3z M59.3,38.5l-1.3-0.2
		l0.7-4.7l6.9,1.8l-0.3,1.2l-5.5-1.5L59.3,38.5z"/>
	<path class="st6" d="M294.1,238.2l-4.3-4.7l0.9-0.9l4.3,4.7L294.1,238.2z M329.9,236l0-6.4l1.3,0l0,6.4L329.9,236z M287.2,230.6
		l-4.3-4.7l0.9-0.9l4.3,4.7L287.2,230.6z M329.9,225.8l0-6.4l1.3,0l0,6.4L329.9,225.8z M280.3,223.1l-4.3-4.7l0.9-0.9l4.3,4.7
		L280.3,223.1z M329.8,215.6l0-6.4l1.3,0l0,6.4L329.8,215.6z M274.8,215.2l-1.2-0.4l1.9-6.1l1.2,0.4L274.8,215.2z M277.8,205.5
		l-1.2-0.4l1.9-6.1l1.2,0.4L277.8,205.5z M329.8,205.3l0-6.4l1.3,0l0,6.4L329.8,205.3z M280.8,195.7l-1.2-0.4l1.9-6.1l1.2,0.4
		L280.8,195.7z M329.7,195.1l0-6.4l1.3,0l0,6.4L329.7,195.1z M283.8,186l-1.2-0.4l1.9-6.1l1.2,0.4L283.8,186z M329.6,184.9l0-6.4
		l1.3,0l0,6.4L329.6,184.9z M286.8,176.2l-1.2-0.4l1.9-6.1l1.2,0.4L286.8,176.2z M329.6,174.7l0-6.4l1.3,0l0,6.4L329.6,174.7z
		 M289.8,166.4l-1.2-0.4l1.9-6.1l1.2,0.4L289.8,166.4z M329.5,164.5l0-6.4l1.3,0l0,6.4L329.5,164.5z M292.9,156.7l-1.2-0.4l1.9-6.1
		l1.2,0.4L292.9,156.7z M329.5,154.3l0-6.4l1.3,0l0,6.4L329.5,154.3z M295.9,146.9l-1.2-0.4l1.9-6.1l1.2,0.4L295.9,146.9z
		 M329.4,144.1l0-6.4l1.3,0l0,6.4L329.4,144.1z M298.9,137.2l-1.2-0.4l1.9-6.1l1.2,0.4L298.9,137.2z M329.4,133.9l0-6.4l1.3,0l0,6.4
		L329.4,133.9z M301.9,127.4l-1.2-0.4l1.9-6.1l1.2,0.4L301.9,127.4z M329.3,123.7l0-6.4l1.3,0l0,6.4L329.3,123.7z M304.8,117.6
		l-1.2-0.4l1.8-6.1l1.2,0.4L304.8,117.6z M329.2,113.5l0-6.4l1.3,0l0,6.4L329.2,113.5z M307.8,107.9l-1.2-0.4l1.8-6.1l1.2,0.4
		L307.8,107.9z M329.2,103.2l0-6.4l1.3,0l0,6.4L329.2,103.2z M310.7,98.1l-1.2-0.4l1.8-6.1l1.2,0.4L310.7,98.1z M329.1,93l0-6.4
		l1.3,0l0,6.4L329.1,93z M313.6,88.3l-1.2-0.4l1.8-6.1l1.2,0.4L313.6,88.3z"/>
	<path class="st6" d="M115.2,305.8l-0.6-1.1l5.6-3.1l0.6,1.1L115.2,305.8z M111.4,305.5l-4.1-4.9l1-0.8l4.1,4.9L111.4,305.5z
		 M124.1,300.8l-0.6-1.1l5.6-3.1l0.6,1.1L124.1,300.8z M104.8,297.7l-4.1-4.9l1-0.8l4.1,4.9L104.8,297.7z M133,295.8l-0.6-1.1
		l5.6-3.1l0.6,1.1L133,295.8z M141.8,290.7l-0.6-1.1l5.6-3.1l0.6,1.1L141.8,290.7z M98.1,290l-4.1-4.9l1-0.8l4.1,4.9L98.1,290z
		 M150.7,285.7l-0.6-1.1l5.6-3.1l0.6,1.1L150.7,285.7z M91.5,282.2l-4.1-4.9l1-0.8l4.1,4.9L91.5,282.2z M159.6,280.7l-0.6-1.1
		l5.6-3.1l0.6,1.1L159.6,280.7z M168.5,275.7l-0.6-1.1l5.6-3.1l0.6,1.1L168.5,275.7z M84.9,274.4l-4.1-4.9l1-0.8l4.1,4.9L84.9,274.4
		z M177.4,270.6l-0.6-1.1l5.6-3.1l0.6,1.1L177.4,270.6z M78.3,266.7l-4.1-4.9l1-0.8l4.1,4.9L78.3,266.7z M186.3,265.6l-0.6-1.1
		l5.6-3.1l0.6,1.1L186.3,265.6z M195.2,260.6l-0.6-1.1l5.6-3.1l0.6,1.1L195.2,260.6z M71.6,258.9l-4.1-4.9l1-0.8l4.1,4.9L71.6,258.9
		z M204.1,255.6l-0.6-1.1l5.6-3.1l0.6,1.1L204.1,255.6z M65,251.1l-4.1-4.9l1-0.8l4.1,4.9L65,251.1z M212.9,250.6l-0.6-1.1l5.6-3.1
		l0.6,1.1L212.9,250.6z M139.2,249l-1.7-6.2l1.2-0.3l1.7,6.2L139.2,249z M143.2,247.1l-0.8-1l5-3.9l0.8,1L143.2,247.1z M221.8,245.5
		l-0.6-1.1l5.6-3.1l0.6,1.1L221.8,245.5z M151.2,240.8l-0.8-1l5-3.9l0.8,1L151.2,240.8z M230.7,240.5l-0.6-1.1l5.6-3.1l0.6,1.1
		L230.7,240.5z M136.5,239.1l-1.7-6.2l1.2-0.3l1.7,6.2L136.5,239.1z M239.6,235.5l-0.6-1.1l5.6-3.1l0.6,1.1L239.6,235.5z
		 M159.3,234.6l-0.8-1l5-3.9l0.8,1L159.3,234.6z M248.5,230.5l-0.6-1.1l5.6-3.1l0.6,1.1L248.5,230.5z M133.8,229.3l-1.7-6.2l1.2-0.3
		l1.7,6.2L133.8,229.3z M167.3,228.3l-0.8-1l5-3.9l0.8,1L167.3,228.3z M257.4,225.4l-0.6-1.1l5.6-3.1l0.6,1.1L257.4,225.4z
		 M175.4,222l-0.8-1l5-3.9l0.8,1L175.4,222z M266.3,220.4l-0.6-1.1l5.6-3.1l0.6,1.1L266.3,220.4z M131.1,219.4l-1.7-6.2l1.2-0.3
		l1.7,6.2L131.1,219.4z M183.5,215.8l-0.8-1l5-3.9l0.8,1L183.5,215.8z M273.1,215.5l-5.9-2.3l0.5-1.2l5.9,2.3L273.1,215.5z
		 M263.6,211.8l-5.9-2.3l0.5-1.2l5.9,2.3L263.6,211.8z M128.4,209.6l-1.7-6.2l1.2-0.3l1.7,6.2L128.4,209.6z M191.5,209.5l-0.8-1
		l5-3.9l0.8,1L191.5,209.5z M254,208.1l-5.9-2.3l0.5-1.2l5.9,2.3L254,208.1z M244.5,204.3l-5.9-2.3l0.5-1.2l5.9,2.3L244.5,204.3z
		 M199.6,203.2l-0.8-1l5-3.9l0.8,1L199.6,203.2z M235,200.6l-5.9-2.3l0.5-1.2l5.9,2.3L235,200.6z M125.7,199.7l-1.7-6.2l1.2-0.3
		l1.7,6.2L125.7,199.7z M207.6,196.9l-0.8-1l5-3.9l0.8,1L207.6,196.9z M225.5,196.9l-5.9-2.3l0.5-1.2l5.9,2.3L225.5,196.9z
		 M216,193.2l-5.9-2.3l0.5-1.2l5.9,2.3L216,193.2z M215.7,190.7l-0.8-1l5-3.9l0.8,1L215.7,190.7z M123,189.9l-1.7-6.2l1.2-0.3
		l1.7,6.2L123,189.9z M206.5,189.4l-5.9-2.3l0.5-1.2l5.9,2.3L206.5,189.4z M197,185.7l-5.9-2.3l0.5-1.2l5.9,2.3L197,185.7z
		 M223.8,184.4l-0.8-1l5-3.9l0.8,1L223.8,184.4z M187.5,182l-5.9-2.3l0.5-1.2l5.9,2.3L187.5,182z M120.3,180l-1.7-6.2l1.2-0.3
		l1.7,6.2L120.3,180z M178,178.3l-5.9-2.3l0.5-1.2l5.9,2.3L178,178.3z M231.8,178.1l-0.8-1l5-3.9l0.8,1L231.8,178.1z M168.5,174.5
		l-5.9-2.3l0.5-1.2l5.9,2.3L168.5,174.5z M239.9,171.9l-0.8-1l5-3.9l0.8,1L239.9,171.9z M159,170.8l-5.9-2.3l0.5-1.2l5.9,2.3
		L159,170.8z M117.6,170.2l-1.7-6.2l1.2-0.3l1.7,6.2L117.6,170.2z M149.5,167.1l-5.9-2.3l0.5-1.2l5.9,2.3L149.5,167.1z M247.9,165.6
		l-0.8-1l5-3.9l0.8,1L247.9,165.6z M140,163.3L134,161l0.5-1.2l5.9,2.3L140,163.3z M114.9,160.3l-1.7-6.2l1.2-0.3l1.7,6.2
		L114.9,160.3z M130.5,159.6l-5.9-2.3l0.5-1.2l5.9,2.3L130.5,159.6z M256,159.3l-0.8-1l5-3.9l0.8,1L256,159.3z M121,155.9l-5.9-2.3
		l0.5-1.2l5.9,2.3L121,155.9z M264.1,153.1l-0.8-1l5-3.9l0.8,1L264.1,153.1z M272.1,146.8l-0.8-1l5-3.9l0.8,1L272.1,146.8z
		 M280.2,140.5l-0.8-1l5-3.9l0.8,1L280.2,140.5z M288.2,134.3l-0.8-1l5-3.9l0.8,1L288.2,134.3z M296.3,128l-0.8-1l5-3.9l0.8,1
		L296.3,128z"/>
	<path class="st6" d="M116.6,152.4l-0.2-1.3l6.3-0.9l0.2,1.3L116.6,152.4z M112.5,151.9l-2.7-5.8l1.2-0.5l2.7,5.8L112.5,151.9z
		 M126.7,150.9l-0.2-1.3l6.3-0.9l0.2,1.3L126.7,150.9z M136.8,149.4l-0.2-1.3l6.3-0.9l0.2,1.3L136.8,149.4z M146.9,147.9l-0.2-1.3
		l6.3-0.9l0.2,1.3L146.9,147.9z M157,146.4l-0.2-1.3l6.3-0.9l0.2,1.3L157,146.4z M167.1,144.9l-0.2-1.3l6.3-0.9l0.2,1.3L167.1,144.9
		z M177.2,143.4l-0.2-1.3l6.3-0.9l0.2,1.3L177.2,143.4z M108.2,142.6l-2.7-5.8l1.2-0.5l2.7,5.8L108.2,142.6z M187.3,141.9l-0.2-1.3
		l6.3-0.9l0.2,1.3L187.3,141.9z M197.4,140.4l-0.2-1.3l6.3-0.9l0.2,1.3L197.4,140.4z M207.5,138.9l-0.2-1.3l6.3-0.9l0.2,1.3
		L207.5,138.9z M217.6,137.4l-0.2-1.3l6.3-0.9l0.2,1.3L217.6,137.4z M227.7,135.9l-0.2-1.3l6.3-0.9l0.2,1.3L227.7,135.9z
		 M237.8,134.4l-0.2-1.3l6.3-0.9l0.2,1.3L237.8,134.4z M104,133.3l-2.7-5.8l1.2-0.5l2.7,5.8L104,133.3z M247.9,132.9l-0.2-1.3
		l6.3-0.9l0.2,1.3L247.9,132.9z M258,131.4l-0.2-1.3l6.3-0.9l0.2,1.3L258,131.4z M268.1,129.9l-0.2-1.3l6.3-0.9l0.2,1.3L268.1,129.9
		z M278.2,128.4l-0.2-1.3l6.3-0.9l0.2,1.3L278.2,128.4z M288.3,126.9l-0.2-1.3l6.3-0.9l0.2,1.3L288.3,126.9z M298.4,125.4l-0.2-1.3
		l1.8-0.3l-0.2-0.1l0.5-1.2l4.1,1.9L298.4,125.4z M99.7,124l-2.7-5.8l1.2-0.5l2.7,5.8L99.7,124z M296.3,122.2l-5.8-2.6l0.5-1.2
		l5.8,2.6L296.3,122.2z M287,118l-5.8-2.6l0.5-1.2l5.8,2.6L287,118z M95.5,114.7l-2.7-5.8l1.2-0.5l2.7,5.8L95.5,114.7z M277.7,113.8
		l-5.8-2.6l0.5-1.2l5.8,2.6L277.7,113.8z M268.4,109.6l-5.8-2.6l0.5-1.2l5.8,2.6L268.4,109.6z M91.2,105.5l-2.7-5.8l1.2-0.5l2.7,5.8
		L91.2,105.5z M259.1,105.4l-5.8-2.6l0.5-1.2l5.8,2.6L259.1,105.4z M249.8,101.2l-5.8-2.6l0.5-1.2l5.8,2.6L249.8,101.2z M240.5,96.9
		l-5.8-2.6l0.5-1.2l5.8,2.6L240.5,96.9z M86.9,96.2l-2.7-5.8l1.2-0.5l2.7,5.8L86.9,96.2z M231.2,92.7l-5.8-2.6l0.5-1.2l5.8,2.6
		L231.2,92.7z M221.9,88.5l-5.8-2.6l0.5-1.2l5.8,2.6L221.9,88.5z M82.7,86.9L80,81.1l1.2-0.5l2.7,5.8L82.7,86.9z M212.6,84.3
		l-5.8-2.6l0.5-1.2l5.8,2.6L212.6,84.3z M203.3,80.1l-5.8-2.6l0.5-1.2l5.8,2.6L203.3,80.1z M78.4,77.6l-2.7-5.8l1.2-0.5l2.7,5.8
		L78.4,77.6z M74.1,68.4l-2.7-5.8l1.2-0.5l2.7,5.8L74.1,68.4z M175.4,67.5l-5.8-2.6l0.5-1.2l5.8,2.6L175.4,67.5z M169.8,63.7
		l-0.2-1.3l6.3-1.2l0.2,1.3L169.8,63.7z M179.9,61.8l-0.2-1.3l6.3-1.2l0.2,1.3L179.9,61.8z M69.9,59.1l-2.7-5.8l1.2-0.5l2.7,5.8
		L69.9,59.1z M210,56.2l-0.2-1.3l6.3-1.2l0.2,1.3L210,56.2z M220,54.3l-0.2-1.3l6.3-1.2l0.2,1.3L220,54.3z M230,52.4l-0.2-1.3
		l6.3-1.2l0.2,1.3L230,52.4z M240.1,50.5l-0.2-1.3l6.3-1.2l0.2,1.3L240.1,50.5z M65.6,49.8L62.9,44l1.2-0.5l2.7,5.8L65.6,49.8z
		 M250.1,48.6l-0.2-1.3l6.3-1.2l0.2,1.3L250.1,48.6z M260.1,46.7l-0.2-1.3l6.3-1.2l0.2,1.3L260.1,46.7z M270.2,44.9l-0.2-1.3
		l6.3-1.2l0.2,1.3L270.2,44.9z M280.2,43l-0.2-1.3l6.3-1.2l0.2,1.3L280.2,43z M61.3,40.5l-2.7-5.8l1.2-0.5l2.7,5.8L61.3,40.5z"/>
	<path class="st6" d="M327.8,277.9l-6.3-1l0.2-1.3l6.3,1L327.8,277.9z M317.7,276.4l-6.3-1l0.2-1.3l6.3,1L317.7,276.4z M307.6,274.9
		l-6.3-1l0.2-1.3l6.3,1L307.6,274.9z M297.5,273.3l-6.3-1l0.2-1.3l6.3,1L297.5,273.3z M277.3,270.3l-6.3-1l0.2-1.3l6.3,1
		L277.3,270.3z M267.2,268.8l-6.3-1l0.2-1.3l6.3,1L267.2,268.8z M257.1,267.2l-6.3-1l0.2-1.3l6.3,1L257.1,267.2z M247,265.7l-6.3-1
		l0.2-1.3l6.3,1L247,265.7z M236.9,264.2l-6.3-1l0.2-1.3l6.3,1L236.9,264.2z M226.8,262.7l-6.3-1l0.2-1.3l6.3,1L226.8,262.7z
		 M216.7,261.1l-6.3-1l0.2-1.3l6.3,1L216.7,261.1z M206.6,259.6l-6.3-1l0.2-1.3l6.3,1L206.6,259.6z M196.5,258.1l-6.3-1l0.2-1.3
		l6.3,1L196.5,258.1z M186.4,256.6l-6.3-1l0.2-1.3l6.3,1L186.4,256.6z M176.3,255l-6.3-1l0.2-1.3l6.3,1L176.3,255z M166.2,253.5
		l-6.3-1l0.2-1.3l6.3,1L166.2,253.5z M156.1,252l-6.3-1l0.2-1.3l6.3,1L156.1,252z M146,250.5l-6.3-1l0.2-1.3l6.3,1L146,250.5z"/>
	<g>
		<g>
			<rect x="90.6" y="221.5" class="st0" width="187.9" height="8.1"/>
			<rect x="105" y="115.2" class="st0" width="152.7" height="107.6"/>
			<rect x="112.3" y="144.1" class="st17" width="88.8" height="73.8"/>
			<polygon class="st15" points="198.1,213.9 115.1,213.9 115.1,147.8 			"/>
			<polygon class="st6" points="115.1,147.8 198.1,147.8 198.1,213.9 			"/>
			<path class="st7" d="M256.4,95.7H106.3c-0.6,0-1.1,0.5-1.1,1.1v11.3c0,0.6,0.5,1.1,1.1,1.1h150.1c0.6,0,1.1-0.5,1.1-1.1V96.8
				C257.5,96.2,257,95.7,256.4,95.7z"/>
			<g>
				<path class="st7" d="M86.5,124.5v10.1c0,5.3,10.6,9.6,23.7,9.6c13.1,0,23.7-4.3,23.7-9.6v-10.1H86.5z"/>
				<path class="st3" d="M133.9,124.5v10c0,5.3,10.7,9.6,23.9,9.6c13.2,0,23.9-4.3,23.9-9.6v-10H133.9z"/>
				<path class="st7" d="M181,124.3v10c0,5.3,10.7,9.6,23.9,9.6c13.2,0,23.9-4.3,23.9-9.6v-10H181z"/>
				<path class="st3" d="M228.4,124.5v10c0,5.3,10.7,9.6,23.9,9.6c13.2,0,23.9-4.3,23.9-9.6v-10H228.4z"/>
				<g>
					<path class="st5" d="M134.3,124.5c3.1-5.5,6.2-11,9.3-16.5c-15.3,0-23,0-38.3,0c-6.3,5.5-12.5,11-18.8,16.5
						C102.4,124.5,118.3,124.5,134.3,124.5z"/>
					<path class="st17" d="M181.7,124.5c0-5.5,0-11-0.1-16.5c-15.3,0-23,0-38.3,0c-3.1,5.5-6.3,11-9.4,16.5
						C149.8,124.5,165.8,124.5,181.7,124.5z"/>
					<path class="st5" d="M228.8,124.5c-3.1-5.5-6.3-11-9.4-16.5c-15.3,0-23,0-38.3,0c0,5.5,0,11-0.1,16.5
						C197,124.5,212.9,124.5,228.8,124.5z"/>
					<path class="st17" d="M276.3,124.5c-6.3-5.5-12.5-11-18.8-16.5c-15.3,0-23,0-38.3,0c3.1,5.5,6.2,11,9.3,16.5
						C244.4,124.5,260.3,124.5,276.3,124.5z"/>
				</g>
			</g>
			<rect x="207.3" y="144.2" class="st17" width="40.4" height="78.6"/>
			<rect x="210.3" y="147.8" class="st6" width="34.4" height="72.1"/>
			<circle class="st0" cx="241.1" cy="183.5" r="2"/>
		</g>
		<g>
			<circle class="st15" cx="161.7" cy="179.8" r="20.1"/>
			<path class="st6" d="M146.2,190.6c4.6,6.6,12,10,19.5,9.8c1.6-7.8,0.2-16.3-4.8-23.4c-3.9-5.7-9.5-9.5-15.6-11.5
				C140.8,173.2,140.8,183,146.2,190.6z"/>
			<path class="st0" d="M148.3,160.6c-10.6,7.4-13.2,22-5.8,32.6c7.4,10.6,22,13.2,32.6,5.8c10.6-7.4,13.2-22,5.8-32.6
				C173.5,155.8,158.9,153.3,148.3,160.6z M171.9,194.5c-8.1,5.7-19.3,3.7-25-4.4c-5.7-8.1-3.7-19.3,4.4-25c8.1-5.7,19.3-3.7,25,4.4
				C182.1,177.7,180.1,188.9,171.9,194.5z"/>
			<rect x="180.6" y="192.5" transform="matrix(0.82 -0.5724 0.5724 0.82 -88.669 144.1726)" class="st0" width="8.5" height="41"/>
			<polygon class="st5" points="203.8,228.2 192.5,236 173.2,208.3 184.4,200.4 			"/>
			<path class="st11" d="M150.4,178.2c0.6,0.9,0.4,2.2-0.5,2.8c-0.9,0.6-2.2,0.4-2.8-0.5c-0.6-0.9-0.4-2.2,0.5-2.8
				C148.5,177.1,149.8,177.3,150.4,178.2z"/>
		</g>
	</g>
	<g>
		<path class="st6" d="M328.8,57.9c0-2.9,1.1-4.5,3.1-4.5c1.9,0,3.1,1.6,3.1,4.5c0,2.9-1.1,4.5-3.1,4.5
			C329.9,62.4,328.8,60.7,328.8,57.9z M332.9,57.8c0-1.6-0.4-2.5-1-2.5s-1,0.9-1,2.5c0,1.7,0.4,2.6,1,2.6
			C332.5,60.4,332.9,59.5,332.9,57.8z M339.4,53h2l-7.9,16h-2L339.4,53z M337.9,64.2c0-2.9,1.1-4.5,3.1-4.5c1.9,0,3.1,1.6,3.1,4.5
			c0,2.9-1.1,4.5-3.1,4.5C339,68.7,337.9,67.1,337.9,64.2z M342,64.2c0-1.6-0.3-2.5-1-2.5c-0.7,0-1,0.9-1,2.5c0,1.7,0.4,2.6,1,2.6
			C341.6,66.7,342,65.8,342,64.2z"/>
		<path class="st6" d="M314.2,60.7c0-5.6,2.5-8.8,6.7-8.8c4.2,0,6.6,3.2,6.6,8.8c0,5.6-2.4,8.7-6.6,8.7
			C316.7,69.4,314.2,66.3,314.2,60.7z M323.6,60.6c0-3.4-0.9-5.2-2.7-5.2c-1.8,0-2.7,1.9-2.7,5.2c0,3.5,1,5.3,2.7,5.3
			C322.6,65.9,323.6,64.1,323.6,60.6z"/>
		<path class="st6" d="M312.9,69.2H301v-2.7c2.1-4.8,7.7-5.9,7.7-9.1c0-1.3-1-2.1-2.3-2.1c-1.3,0-2.7,0.8-3.5,1.8l-2.2-2.1
			c1.1-1.8,3.3-3.1,6-3.1c3.3,0,5.9,2,5.9,5.4c0,4.8-5.4,6.2-6.5,8.4h6.8V69.2z"/>
		<g>
			<path class="st9" d="M302.8,44.1c-1,0-1.8,0.8-1.8,1.8l0,0c0,1,0.8,1.8,1.8,1.8h34.3c1,0,1.8-0.8,1.8-1.8l0,0
				c0-1-0.8-1.8-1.8-1.8H302.8z"/>
			<g>
				<path class="st4" d="M333.9,40.7c0,1,0.8,1.8,1.8,1.8l0,0c1,0,1.8-0.8,1.8-1.8V16.6c0-1-0.8-1.8-1.8-1.8l0,0
					c-1,0-1.8,0.8-1.8,1.8V40.7z"/>
				<path class="st4" d="M326.3,41c0,1,0.8,1.8,1.8,1.8l0,0c1,0,1.8-0.8,1.8-1.8V22.1c0-1-0.8-1.8-1.8-1.8l0,0c-1,0-1.8,0.8-1.8,1.8
					V41z"/>
				<path class="st4" d="M318.6,40.7c0,1,0.8,1.8,1.8,1.8l0,0c1,0,1.8-0.8,1.8-1.8V27c0-1-0.8-1.8-1.8-1.8l0,0c-1,0-1.8,0.8-1.8,1.8
					V40.7z"/>
				<path class="st4" d="M311,40.7c0,1,0.8,1.8,1.8,1.8l0,0c1,0,1.8-0.8,1.8-1.8V30.5c0-1-0.8-1.8-1.8-1.8l0,0c-1,0-1.8,0.8-1.8,1.8
					V40.7z"/>
				<path class="st4" d="M303.1,40.7c0,1,0.8,1.8,1.8,1.8l0,0c1,0,1.8-0.8,1.8-1.8v-6.9c0-1-0.8-1.8-1.8-1.8l0,0
					c-1,0-1.8,0.8-1.8,1.8V40.7z"/>
			</g>
			<path class="st13" d="M338.4,8.7L336.2,1c-0.1-0.4-0.4-0.7-0.7-0.9c-0.3-0.2-0.7-0.2-1.1-0.1l-7.6,2.2c-0.8,0.2-1.2,1-1,1.8
				l0.3,1c0.2,0.8,1,1.2,1.8,1l2.4-0.7c-7.1,9.6-17.1,15.9-29,18.4c-1.1,0.2-1.9,1.2-1.7,2.2c0,0.1,0,0.2,0,0.3
				c0.1,1,1.2,1.8,2.4,1.5c13.1-2.7,24.2-9.8,31.9-20.4l0.7,2.4c0.2,0.8,1,1.2,1.8,1l1-0.3C338.2,10.2,338.6,9.4,338.4,8.7z"/>
		</g>
	</g>
	<g>
		<g>
			<g>
				<g>
					<path class="st13" d="M51.8,203.7l5.6-5.6c0.3-0.3,0.4-0.7,0.4-1c0-0.4-0.1-0.8-0.4-1l-5.6-5.6c-0.6-0.6-1.5-0.6-2,0l-0.7,0.7
						c-0.6,0.6-0.6,1.5,0,2l1.8,1.8c-11.8-1.5-22.2-7.2-30.1-16.4c-0.7-0.8-1.9-1.1-2.8-0.4c-0.1,0.1-0.2,0.1-0.3,0.2
						c-0.8,0.6-0.9,1.9-0.2,2.9c8.7,10.2,20.3,16.4,33.3,17.9L49,201c-0.6,0.6-0.5,1.5,0,2l0.8,0.7
						C50.4,204.3,51.3,204.3,51.8,203.7z"/>
				</g>
			</g>
		</g>
		<g>
			<path class="st9" d="M52.1,218.5c1,0,1.8,0.8,1.8,1.8l0,0c0,1-0.8,1.8-1.8,1.8H17.8c-1,0-1.8-0.8-1.8-1.8l0,0
				c0-1,0.8-1.8,1.8-1.8H52.1z"/>
			<g>
				<path class="st4" d="M20.9,215.1c0,1-0.8,1.8-1.8,1.8l0,0c-1,0-1.8-0.8-1.8-1.8V191c0-1,0.8-1.8,1.8-1.8l0,0
					c1,0,1.8,0.8,1.8,1.8V215.1z"/>
				<path class="st4" d="M28.6,215.4c0,1-0.8,1.8-1.8,1.8l0,0c-1,0-1.8-0.8-1.8-1.8v-18.9c0-1,0.8-1.8,1.8-1.8l0,0
					c1,0,1.8,0.8,1.8,1.8V215.4z"/>
				<path class="st4" d="M36.3,215.1c0,1-0.8,1.8-1.8,1.8l0,0c-1,0-1.8-0.8-1.8-1.8v-13.8c0-1,0.8-1.8,1.8-1.8l0,0
					c1,0,1.8,0.8,1.8,1.8V215.1z"/>
				<path class="st4" d="M43.9,215.1c0,1-0.8,1.8-1.8,1.8l0,0c-1,0-1.8-0.8-1.8-1.8v-10.3c0-1,0.8-1.8,1.8-1.8l0,0
					c1,0,1.8,0.8,1.8,1.8V215.1z"/>
				<path class="st4" d="M51.8,215.1c0,1-0.8,1.8-1.8,1.8l0,0c-1,0-1.8-0.8-1.8-1.8v-6.9c0-1,0.8-1.8,1.8-1.8l0,0
					c1,0,1.8,0.8,1.8,1.8V215.1z"/>
			</g>
			<g>
				<path class="st6" d="M41.8,232.5c0-2.9,1.1-4.5,3.1-4.5c1.9,0,3.1,1.6,3.1,4.5c0,2.9-1.1,4.5-3.1,4.5
					C42.9,237,41.8,235.4,41.8,232.5z M45.9,232.5c0-1.6-0.4-2.5-1-2.5s-1,0.9-1,2.5c0,1.7,0.4,2.6,1,2.6
					C45.5,235.1,45.9,234.2,45.9,232.5z M52.4,227.7h2l-7.9,16h-2L52.4,227.7z M50.9,238.8c0-2.9,1.1-4.5,3.1-4.5
					c1.9,0,3.1,1.6,3.1,4.5c0,2.9-1.1,4.5-3.1,4.5C52.1,243.3,50.9,241.7,50.9,238.8z M55,238.8c0-1.6-0.3-2.5-1-2.5
					c-0.7,0-1,0.9-1,2.5c0,1.7,0.4,2.6,1,2.6C54.7,241.4,55,240.5,55,238.8z"/>
				<path class="st6" d="M27.3,235.3c0-5.6,2.5-8.8,6.7-8.8c4.2,0,6.6,3.2,6.6,8.8c0,5.6-2.4,8.7-6.6,8.7
					C29.7,244.1,27.3,240.9,27.3,235.3z M36.6,235.3c0-3.4-0.9-5.2-2.7-5.2c-1.8,0-2.7,1.9-2.7,5.2c0,3.5,1,5.3,2.7,5.3
					C35.6,240.6,36.6,238.7,36.6,235.3z"/>
				<g>
					<path class="st6" d="M25,231.3c0,1.6-0.8,2.6-1.3,3.1c0.9,0.6,2.1,1.9,2.1,4.1c0,3.1-2.3,5.6-5.5,5.6c-3.2,0-5.5-2.5-5.5-5.5
						c0-2.2,1.2-3.6,2.1-4.2c-0.6-0.5-1.3-1.5-1.3-3.1c0-2.6,2-4.8,4.8-4.8C23,226.5,25,228.7,25,231.3z M22.4,238.5
						c0-1.3-0.9-2.4-2.2-2.4c-1.4,0-2.2,1.1-2.2,2.4c0,1.4,1,2.3,2.2,2.3C21.5,240.9,22.4,239.9,22.4,238.5z M21.8,231.5
						c0-1-0.7-1.7-1.6-1.7s-1.6,0.7-1.6,1.7c0,1,0.7,1.7,1.6,1.7C21.2,233.2,21.8,232.4,21.8,231.5z"/>
				</g>
			</g>
		</g>
	</g>
	<g>
		<path class="st1" d="M148.2,247c0,4.6-3.8,8.4-8.4,8.4c-4.6,0-8.4-3.8-8.4-8.4c0-4.6,3.8-8.4,8.4-8.4
			C144.5,238.6,148.2,242.4,148.2,247z"/>
		<circle class="st14" cx="139.8" cy="247" r="5.4"/>
	</g>
	<g>
		<path class="st1" d="M67.1,33.8c0,4.6-3.8,8.4-8.4,8.4c-4.6,0-8.4-3.8-8.4-8.4c0-4.6,3.8-8.4,8.4-8.4
			C63.3,25.4,67.1,29.2,67.1,33.8z"/>
		<circle class="st14" cx="58.7" cy="33.8" r="5.4"/>
	</g>
	<g>
		<path class="st1" d="M119.8,305.5c0,4.6-3.8,8.4-8.4,8.4c-4.6,0-8.4-3.8-8.4-8.4c0-4.6,3.8-8.4,8.4-8.4
			C116,297.1,119.8,300.9,119.8,305.5z"/>
		<circle class="st14" cx="111.4" cy="305.5" r="5.4"/>
	</g>
	<g>
		<path class="st1" d="M309.7,124.5c0,4.6-3.8,8.4-8.4,8.4c-4.6,0-8.4-3.8-8.4-8.4c0-4.6,3.8-8.4,8.4-8.4
			C306,116.1,309.7,119.9,309.7,124.5z"/>
		<circle class="st14" cx="301.3" cy="124.5" r="5.4"/>
	</g>
	<g>
		<g>
			<g>
				<path class="st16" d="M319.3,246.5c7.4,1,12.5,7.5,11.6,14.5c-1,7-7.7,11.8-15.1,10.8c-7.4-1-12.5-7.5-11.6-14.5
					C305.2,250.3,312,245.5,319.3,246.5z"/>
				<path class="st7" d="M319.3,246.9c7.1,1,12.2,6.8,11.3,13.1c-0.9,6.2-7.4,10.4-14.5,9.4c-7.1-1-12.2-6.8-11.3-13.1
					C305.6,250.1,312.1,245.9,319.3,246.9z"/>
				<path class="st16" d="M318.9,249.3c5.6,0.8,9.6,5.4,8.9,10.3c-0.7,4.9-5.8,8.2-11.4,7.4c-5.6-0.8-9.6-5.4-8.9-10.3
					C308.2,251.8,313.3,248.5,318.9,249.3z"/>
				<g>
					<path class="st11" d="M323.6,259.6c-0.1,0.6-0.4,1.1-0.7,1.5c-0.3,0.4-0.7,0.8-1.2,1.1l-0.6-0.5c-0.1,0-0.1-0.1-0.1-0.2
						c0-0.1,0-0.1,0-0.2c0-0.1,0.1-0.2,0.2-0.3c0.1-0.1,0.3-0.2,0.4-0.4c0.2-0.1,0.3-0.3,0.5-0.6c0.2-0.2,0.3-0.5,0.4-0.8l-4.4-0.9
						c-0.2,0.3-0.3,0.6-0.5,0.9c-0.2,0.3-0.4,0.6-0.7,0.8c-0.3,0.2-0.6,0.4-1,0.5c-0.4,0.1-0.8,0.1-1.4,0c-0.4-0.1-0.8-0.2-1.2-0.4
						c-0.4-0.2-0.7-0.4-0.9-0.8c-0.3-0.3-0.5-0.7-0.6-1.1c-0.1-0.4-0.2-0.9-0.1-1.4l-1.2-0.2c-0.1,0-0.2-0.1-0.3-0.2
						c-0.1-0.1-0.1-0.2-0.1-0.3l0.1-0.5l1.6,0.3c0.1-0.5,0.4-0.9,0.6-1.3c0.3-0.3,0.6-0.6,1-0.9l0.5,0.4c0.2,0.1,0.2,0.3,0.2,0.4
						c0,0.1-0.1,0.1-0.1,0.2c-0.1,0.1-0.2,0.2-0.3,0.3c-0.1,0.1-0.2,0.3-0.3,0.4c-0.1,0.2-0.2,0.4-0.3,0.6l4,0.8
						c0.2-0.3,0.4-0.7,0.5-1c0.2-0.3,0.4-0.6,0.7-0.8c0.3-0.2,0.6-0.4,1-0.5c0.4-0.1,0.8-0.1,1.3-0.1c0.5,0.1,1,0.2,1.4,0.4
						c0.4,0.2,0.8,0.5,1.1,0.8c0.3,0.3,0.5,0.7,0.7,1.1c0.2,0.4,0.2,0.9,0.1,1.4l1.5,0.3c0.1,0,0.2,0.1,0.3,0.2
						c0.1,0.1,0.1,0.2,0.1,0.3l-0.1,0.5L323.6,259.6z M314.3,259.5c0.3,0,0.5,0,0.7,0c0.2,0,0.4-0.1,0.6-0.3
						c0.2-0.1,0.3-0.3,0.5-0.5c0.1-0.2,0.3-0.4,0.4-0.6l-3.8-0.8c0,0.3,0,0.6,0.1,0.8c0.1,0.2,0.2,0.5,0.3,0.6
						c0.1,0.2,0.3,0.3,0.5,0.4C313.9,259.4,314.1,259.4,314.3,259.5z M320.5,256.2c-0.3,0-0.5,0-0.7,0c-0.2,0.1-0.4,0.2-0.6,0.3
						c-0.2,0.1-0.3,0.3-0.5,0.5c-0.1,0.2-0.3,0.4-0.4,0.6l4.1,0.8c0-0.3,0-0.6-0.1-0.9c-0.1-0.3-0.2-0.5-0.4-0.7
						c-0.2-0.2-0.4-0.4-0.6-0.5C321.1,256.3,320.8,256.2,320.5,256.2z"/>
				</g>
				<g>
					<defs>
						<path id="SVGID_1_" d="M319.3,246.5c7.4,1,12.5,7.5,11.6,14.5c-1,7-7.7,11.8-15.1,10.8c-7.4-1-12.5-7.5-11.6-14.5
							C305.2,250.3,312,245.5,319.3,246.5z"/>
					</defs>
					<clipPath id="SVGID_2_">
						<use xlink:href="#SVGID_1_"  style="overflow:visible;"/>
					</clipPath>
					<path class="st8" d="M296.5,262.5c4.9-5.6,12.8-6.6,17.6-2.4c4.8,4.2,4.6,12.2-0.3,17.7c-4.9,5.5-12.8,6.6-17.6,2.4
						C291.5,276,291.6,268,296.5,262.5z"/>
				</g>
			</g>
			<g>
				<path class="st16" d="M294.6,261.7c4.9-5.6,12.8-6.6,17.6-2.4c4.8,4.2,4.6,12.2-0.3,17.7c-4.9,5.6-12.8,6.6-17.6,2.4
					C289.5,275.2,289.6,267.3,294.6,261.7z"/>
				<path class="st7" d="M294.8,261.9c4.8-5.4,12-6.8,16.1-3.1c4.1,3.7,3.6,11-1.2,16.4s-12,6.8-16.1,3.1
					C289.5,274.7,290,267.3,294.8,261.9z"/>
				<path class="st16" d="M296.1,262.9c3.8-4.2,9.5-5.3,12.7-2.5c3.2,2.9,2.8,8.6-1,12.9c-3.8,4.2-9.5,5.3-12.7,2.5
					C291.9,272.9,292.3,267.2,296.1,262.9z"/>
				<g>
					<path class="st11" d="M306.4,264c0.3,0.4,0.6,0.8,0.7,1.3c0.1,0.5,0.2,1,0.1,1.5l-0.7,0.3c-0.1,0-0.1,0-0.2,0
						c-0.1,0-0.1,0-0.2-0.1c-0.1-0.1-0.1-0.2-0.1-0.3c0-0.1,0-0.3,0-0.5c0-0.2-0.1-0.4-0.1-0.7c-0.1-0.2-0.2-0.5-0.4-0.7l-3.2,3.2
						c0.2,0.3,0.3,0.6,0.4,0.9c0.1,0.3,0.2,0.6,0.2,1c0,0.3-0.1,0.7-0.2,1c-0.1,0.4-0.4,0.8-0.8,1.2c-0.3,0.3-0.6,0.6-0.9,0.8
						c-0.4,0.2-0.7,0.4-1.1,0.4c-0.4,0.1-0.8,0.1-1.2,0c-0.4-0.1-0.7-0.3-1.1-0.6l-0.9,0.9c-0.1,0.1-0.2,0.1-0.3,0.1
						c-0.1,0-0.2,0-0.3-0.1l-0.3-0.3l1.2-1.2c-0.3-0.4-0.5-0.7-0.6-1.1c-0.1-0.4-0.1-0.8-0.1-1.2l0.6-0.2c0.2-0.1,0.3-0.1,0.4,0
						c0,0,0.1,0.1,0.1,0.2c0,0.1,0,0.2,0.1,0.4c0,0.2,0.1,0.3,0.1,0.5c0.1,0.2,0.2,0.4,0.3,0.5l2.9-2.9c-0.1-0.3-0.3-0.6-0.4-0.9
						c-0.1-0.3-0.2-0.6-0.2-1c0-0.3,0-0.7,0.1-1c0.1-0.4,0.4-0.7,0.7-1.1c0.3-0.4,0.7-0.7,1.1-0.9c0.4-0.2,0.8-0.4,1.2-0.5
						c0.4-0.1,0.8-0.1,1.2,0c0.4,0.1,0.8,0.3,1.1,0.6l1.1-1.1c0.1-0.1,0.2-0.1,0.3-0.1c0.1,0,0.2,0,0.3,0.1l0.3,0.3L306.4,264z
						 M301.1,271.5c0.2-0.2,0.3-0.4,0.4-0.6c0.1-0.2,0.1-0.4,0.1-0.6c0-0.2,0-0.4-0.1-0.6c-0.1-0.2-0.1-0.4-0.2-0.6l-2.7,2.7
						c0.2,0.2,0.5,0.3,0.7,0.3c0.2,0,0.4,0.1,0.7,0c0.2,0,0.4-0.1,0.6-0.2C300.8,271.9,300.9,271.7,301.1,271.5z M302.1,265
						c-0.2,0.2-0.3,0.4-0.4,0.6c-0.1,0.2-0.1,0.4-0.1,0.6c0,0.2,0,0.4,0.1,0.6c0.1,0.2,0.1,0.4,0.2,0.6l3-3
						c-0.2-0.2-0.5-0.3-0.7-0.3c-0.2-0.1-0.5-0.1-0.7,0c-0.2,0-0.5,0.1-0.7,0.3C302.6,264.5,302.3,264.7,302.1,265z"/>
				</g>
			</g>
		</g>
		<g>
			<g>
				<rect x="330.9" y="282.4" class="st10" width="2.2" height="3.5"/>
				<path class="st16" d="M333.1,285.8c0,3.4-6.7,6.1-14.9,6.1c-8.2,0-14.9-2.7-14.9-6.1c0-3.4,6.7-6.1,14.9-6.1
					C326.5,279.7,333.1,282.4,333.1,285.8z"/>
				<path class="st7" d="M333.1,282.5c0,3.4-6.7,6.1-14.9,6.1c-8.2,0-14.9-2.7-14.9-6.1c0-3.4,6.7-6.1,14.9-6.1
					C326.5,276.4,333.1,279.1,333.1,282.5z"/>
				<path class="st10" d="M330,281.6c0,2.2-5.3,3.9-11.7,3.9c-6.5,0-11.8-1.8-11.8-3.9c0-2.2,5.3-3.9,11.8-3.9
					C324.7,277.7,330,279.4,330,281.6z"/>
			</g>
			<g>
				<rect x="329.3" y="276.7" class="st10" width="2.2" height="3.5"/>
				<path class="st16" d="M331.5,280.1c0,3.4-6.7,6.1-14.9,6.1c-8.2,0-14.9-2.7-14.9-6.1c0-3.4,6.7-6.1,14.9-6.1
					C324.8,274,331.5,276.8,331.5,280.1z"/>
				<path class="st7" d="M331.5,276.8c0,3.4-6.7,6.1-14.9,6.1c-8.2,0-14.9-2.7-14.9-6.1c0-3.4,6.7-6.1,14.9-6.1
					C324.8,270.7,331.5,273.5,331.5,276.8z"/>
				<path class="st10" d="M328.3,276c0,2.2-5.3,3.9-11.7,3.9c-6.5,0-11.8-1.8-11.8-3.9c0-2.2,5.3-3.9,11.8-3.9
					C323.1,272,328.3,273.8,328.3,276z"/>
			</g>
			<g>
				<rect x="331.4" y="271.3" class="st10" width="2.2" height="3.5"/>
				<path class="st16" d="M333.6,274.7c0,3.4-6.7,6.1-14.9,6.1c-8.2,0-14.9-2.7-14.9-6.1c0-3.4,6.7-6.1,14.9-6.1
					C326.9,268.6,333.6,271.4,333.6,274.7z"/>
				<path class="st7" d="M333.6,271.4c0,3.4-6.7,6.1-14.9,6.1c-8.2,0-14.9-2.7-14.9-6.1c0-3.4,6.7-6.1,14.9-6.1
					C326.9,265.3,333.6,268.1,333.6,271.4z"/>
				<path class="st16" d="M330.4,270.6c0,2.2-5.3,3.9-11.7,3.9c-6.5,0-11.8-1.8-11.8-3.9c0-2.2,5.3-3.9,11.8-3.9
					C325.2,266.6,330.4,268.4,330.4,270.6z"/>
			</g>
			<g>
				<defs>
					<path id="SVGID_3_" d="M333.6,271.3c-0.1-3.3-6.8-6-14.9-6c-8.2,0-14.8,2.7-14.9,6h0v2.4c-1.3,0.9-2.1,1.9-2.1,3h0v3.5h0
						c0.1,0.9,0.6,1.8,1.6,2.6v3h0c0.2,3.3,6.8,6,14.9,6c8.1,0,14.7-2.7,14.9-6h0v-3.5h0c0-1-0.6-1.9-1.6-2.7v-1.8
						c1.3-0.9,2-1.9,2.1-3h0L333.6,271.3L333.6,271.3z"/>
				</defs>
				<clipPath id="SVGID_4_">
					<use xlink:href="#SVGID_3_"  style="overflow:visible;"/>
				</clipPath>
				<path class="st12" d="M346.8,278.1c1.7,7.7-3.4,15.4-11.4,17.2c-8,1.8-16-3-17.7-10.6c-1.7-7.7,3.4-15.4,11.4-17.2
					C337.2,265.7,345.1,270.4,346.8,278.1z"/>
			</g>
			<path class="st3" d="M349.4,277.4c0,8.5-6.9,15.4-15.4,15.4c-8.5,0-15.4-6.9-15.4-15.4c0-8.5,6.9-15.4,15.4-15.4
				C342.5,262,349.4,268.9,349.4,277.4z"/>
			<path class="st7" d="M348.9,277.4c0,8.2-6.7,14.9-14.9,14.9c-8.2,0-14.9-6.7-14.9-14.9c0-8.2,6.7-14.9,14.9-14.9
				C342.3,262.5,348.9,269.2,348.9,277.4z"/>
			<g>
				<path class="st16" d="M336.3,278.8c-0.2-0.2-0.5-0.3-0.7-0.4c-0.3-0.1-0.6-0.2-0.9-0.3l-0.3,4.8c0.4,0,0.8-0.1,1.1-0.3
					c0.3-0.1,0.6-0.3,0.8-0.6c0.2-0.2,0.4-0.5,0.5-0.8c0.1-0.3,0.2-0.6,0.2-1c0-0.3-0.1-0.6-0.2-0.8
					C336.7,279.2,336.5,279,336.3,278.8z"/>
				<path class="st16" d="M332.2,272.4c-0.2,0.2-0.3,0.4-0.4,0.6c-0.1,0.2-0.1,0.5-0.1,0.8c0,0.3,0.1,0.6,0.2,0.8
					c0.1,0.2,0.3,0.4,0.5,0.6c0.2,0.2,0.4,0.3,0.7,0.5c0.3,0.1,0.5,0.2,0.8,0.3l0.3-4.4c-0.4,0-0.8,0.1-1.1,0.3
					C332.7,272.1,332.4,272.2,332.2,272.4z"/>
				<path class="st16" d="M334,265.7c-6.5,0-11.7,5.3-11.7,11.7c0,6.5,5.3,11.8,11.7,11.8c6.5,0,11.8-5.3,11.8-11.8
					C345.8,270.9,340.5,265.7,334,265.7z M338.3,281.6c-0.2,0.5-0.5,1-0.8,1.4c-0.4,0.4-0.8,0.7-1.4,0.9c-0.5,0.2-1.1,0.4-1.8,0.4
					l-0.1,1.7c0,0.1-0.1,0.2-0.2,0.3c-0.1,0.1-0.2,0.1-0.3,0.1h-0.6l0.1-2.2c-0.8-0.1-1.5-0.3-2.1-0.6c-0.6-0.3-1.2-0.7-1.7-1.2
					l0.5-0.8c0-0.1,0.1-0.1,0.2-0.2c0.1,0,0.2-0.1,0.3-0.1c0.1,0,0.3,0.1,0.4,0.2c0.2,0.1,0.3,0.3,0.6,0.4c0.2,0.2,0.5,0.3,0.8,0.5
					c0.3,0.1,0.7,0.2,1.1,0.3l0.4-5.1c-0.4-0.1-0.9-0.3-1.3-0.5c-0.4-0.2-0.8-0.4-1.2-0.7c-0.3-0.3-0.6-0.6-0.8-1
					c-0.2-0.4-0.3-0.9-0.3-1.6c0-0.5,0.1-0.9,0.3-1.4c0.2-0.4,0.4-0.8,0.8-1.2c0.3-0.3,0.8-0.6,1.3-0.9c0.5-0.2,1.1-0.3,1.8-0.3
					l0.1-1.4c0-0.1,0.1-0.2,0.1-0.3c0.1-0.1,0.2-0.1,0.3-0.1h0.6l-0.1,1.9c0.7,0.1,1.3,0.3,1.8,0.5c0.5,0.3,0.9,0.6,1.3,1l-0.4,0.6
					c-0.1,0.2-0.3,0.3-0.4,0.3c-0.1,0-0.2,0-0.3-0.1c-0.1-0.1-0.3-0.2-0.5-0.3c-0.2-0.1-0.4-0.2-0.6-0.3c-0.2-0.1-0.5-0.2-0.8-0.2
					l-0.3,4.7c0.5,0.1,0.9,0.3,1.4,0.5c0.5,0.2,0.9,0.4,1.2,0.7c0.4,0.3,0.7,0.6,0.9,1c0.2,0.4,0.3,0.9,0.3,1.5
					C338.6,280.6,338.5,281.1,338.3,281.6z"/>
				<path class="st11" d="M337.4,277.5c-0.4-0.3-0.8-0.5-1.2-0.7c-0.5-0.2-0.9-0.3-1.4-0.5l0.3-4.7c0.3,0,0.6,0.1,0.8,0.2
					c0.2,0.1,0.5,0.2,0.6,0.3c0.2,0.1,0.3,0.2,0.5,0.3c0.1,0.1,0.2,0.1,0.3,0.1c0.2,0,0.3-0.1,0.4-0.3l0.4-0.6
					c-0.4-0.4-0.8-0.7-1.3-1c-0.5-0.3-1.1-0.4-1.8-0.5l0.1-1.9h-0.6c-0.1,0-0.3,0-0.3,0.1c-0.1,0.1-0.1,0.2-0.1,0.3l-0.1,1.4
					c-0.7,0-1.3,0.1-1.8,0.3c-0.5,0.2-1,0.5-1.3,0.9c-0.4,0.4-0.6,0.8-0.8,1.2c-0.2,0.5-0.3,0.9-0.3,1.4c0,0.6,0.1,1.1,0.3,1.6
					c0.2,0.4,0.5,0.8,0.8,1c0.4,0.3,0.7,0.5,1.2,0.7c0.4,0.2,0.9,0.3,1.3,0.5l-0.4,5.1c-0.4,0-0.8-0.1-1.1-0.3
					c-0.3-0.2-0.6-0.3-0.8-0.5c-0.2-0.2-0.4-0.3-0.6-0.4c-0.2-0.1-0.3-0.2-0.4-0.2c-0.1,0-0.2,0-0.3,0.1c-0.1,0-0.2,0.1-0.2,0.2
					l-0.5,0.8c0.5,0.5,1,0.9,1.7,1.2c0.6,0.3,1.3,0.5,2.1,0.6l-0.1,2.2h0.6c0.1,0,0.2,0,0.3-0.1c0.1-0.1,0.1-0.2,0.2-0.3l0.1-1.7
					c0.7,0,1.3-0.1,1.8-0.4c0.5-0.2,1-0.6,1.4-0.9c0.4-0.4,0.7-0.8,0.8-1.4c0.2-0.5,0.3-1.1,0.3-1.6c0-0.6-0.1-1.1-0.3-1.5
					C338.1,278.1,337.8,277.8,337.4,277.5z M333.8,276c-0.3-0.1-0.6-0.2-0.8-0.3c-0.3-0.1-0.5-0.3-0.7-0.5c-0.2-0.2-0.4-0.4-0.5-0.6
					c-0.1-0.2-0.2-0.5-0.2-0.8c0-0.3,0-0.5,0.1-0.8c0.1-0.2,0.2-0.5,0.4-0.6c0.2-0.2,0.4-0.4,0.8-0.5c0.3-0.1,0.7-0.2,1.1-0.3
					L333.8,276z M336.8,281.3c-0.1,0.3-0.3,0.6-0.5,0.8c-0.2,0.2-0.5,0.4-0.8,0.6c-0.3,0.1-0.7,0.2-1.1,0.3l0.3-4.8
					c0.3,0.1,0.6,0.2,0.9,0.3c0.3,0.1,0.5,0.3,0.7,0.4c0.2,0.2,0.4,0.4,0.5,0.6c0.1,0.2,0.2,0.5,0.2,0.8
					C337,280.6,336.9,280.9,336.8,281.3z"/>
			</g>
		</g>
	</g>
	<g>
		<g>
			<path class="st11" d="M153.3,64.3c0.5,1,1.8,1.6,2.9,1.1c1-0.5,1.4-1.9,0.9-2.9c-0.5-1-1.7-1.4-2.7-0.9
				C153.3,62.2,152.8,63.3,153.3,64.3z"/>
			<path class="st11" d="M175.5,48.5c1-0.5,1.6-1.6,1.1-2.7c-0.5-1-1.8-1.6-2.9-1.1c-1,0.5-1.4,1.9-0.9,2.9
				C173.2,48.6,174.4,49,175.5,48.5z"/>
			<path class="st11" d="M165.9,57.9c-0.7,0.8-1.4,1.2-2,1.4c0.1,0.6,0.3,1.2,0.4,1.9c0.5-0.2,1.3-0.7,2-1.4
				c0.2,0.4,0.4,0.8,0.6,1.2c0.3-0.4,0.7-0.8,1-1.2c-0.2-0.4-0.4-0.9-0.6-1.3c1.1-1.6,1.3-3.3,0.7-4.4c-0.6-1.2-1.4-1.4-2.9-0.5
				c-1.1,0.6-1.6,0.7-1.8,0.3c-0.2-0.4-0.1-1,0.5-1.7c0.7-0.8,1.4-1.1,1.7-1.2c-0.1-0.6-0.3-1.2-0.4-1.8c-0.5,0.2-1,0.5-1.7,1.3
				c-0.2-0.4-0.4-0.8-0.5-1.1c-0.3,0.4-0.7,0.8-1,1.1c0.2,0.4,0.4,0.8,0.6,1.2c-1,1.5-1.2,3.1-0.6,4.3c0.6,1.3,1.7,1.1,3,0.3
				c0.9-0.6,1.4-0.6,1.6-0.1C166.7,56.5,166.5,57.3,165.9,57.9z"/>
			<path class="st11" d="M147.2,55.6c-0.1,0-0.2,0.2-0.3,0.3c-0.1,0.1,0,0.3,0.1,0.4c0.5,1.1-0.3,2.2-1.8,1.9c-0.2,0-0.3,0-0.4,0.1
				c-0.1,0.1-0.1,0.2,0,0.3c2,4.1,3.9,8.2,5.9,12.3c0.1,0.1,0.3,0.3,0.4,0.4c0.2,0.1,0.4,0.2,0.6,0.2c1.3,0,2.9,0.8,3.5,1.9
				c0,0,0.1,0.1,0.1,0.1c0,0.1,0.2,0.3,0.3,0.3c0.2,0.1,0.3,0.1,0.5,0.1c11.2-1.6,15.6-17.7,26.8-19.3c0.1,0,0.2-0.2,0.3-0.3
				c0.1-0.1,0-0.3-0.1-0.4c-0.5-1,0.1-2,1.4-1.9c0.1,0,0.2,0,0.4,0.1c0.2,0,0.3,0,0.4-0.1c0.1-0.1,0.1-0.2,0-0.3
				c-2-4.1-3.9-8.2-5.9-12.3c-0.1-0.1-0.2-0.3-0.4-0.4c-0.2-0.1-0.4-0.2-0.5-0.2c-1.3,0-3-0.7-3.5-1.9l0-0.1
				c-0.1-0.1-0.2-0.3-0.3-0.3c-0.1-0.1-0.3-0.1-0.5-0.1C162.8,37.9,158.4,54,147.2,55.6z M173.2,43.7c1.6-0.8,3.6,0.3,4.4,1.8
				c0.8,1.6-0.1,3.1-1.7,3.9c-1.6,0.7-3.3,0.4-4.1-1.2C171.1,46.6,171.7,44.5,173.2,43.7z M161.7,48.2c3-3.5,7.1-2.8,8.9,1
				c1.8,3.7,0.6,9.2-2.4,12.7c-3,3.5-7.1,2.8-8.9-1C157.5,57.2,158.7,51.7,161.7,48.2z M158,61.9c0.7,1.6,0.2,3.7-1.4,4.5
				c-1.6,0.8-3.6-0.3-4.4-1.8c-0.8-1.6,0.1-3.1,1.6-3.9C155.5,60,157.3,60.4,158,61.9z"/>
			<path class="st16" d="M152.3,64.6c0.7,1.6,2.8,2.6,4.4,1.8c1.6-0.8,2.1-2.9,1.4-4.5c-0.8-1.6-2.5-2-4.1-1.2
				C152.4,61.5,151.5,63,152.3,64.6z M157.1,62.5c0.5,1,0.1,2.4-0.9,2.9c-1,0.5-2.4-0.1-2.9-1.1c-0.5-1,0-2.1,1.1-2.6
				C155.4,61.2,156.6,61.5,157.1,62.5z"/>
			<path class="st16" d="M175.9,49.4c1.6-0.8,2.4-2.3,1.7-3.9c-0.7-1.6-2.8-2.6-4.4-1.8c-1.6,0.7-2.1,2.9-1.4,4.5
				C172.6,49.8,174.4,50.2,175.9,49.4z M173.7,44.7c1-0.5,2.4,0.1,2.9,1.1c0.5,1,0,2.1-1.1,2.7c-1,0.5-2.2,0.2-2.7-0.9
				C172.2,46.6,172.6,45.2,173.7,44.7z"/>
			<path class="st16" d="M168.2,61.9c3-3.5,4.2-8.9,2.4-12.7c-1.8-3.8-5.9-4.5-8.9-1c-3,3.5-4.1,8.9-2.4,12.7
				C161.1,64.7,165.2,65.4,168.2,61.9z M164.8,56.1c-1.3,0.8-2.4,1-3-0.3c-0.5-1.1-0.3-2.7,0.6-4.3c-0.2-0.4-0.4-0.8-0.6-1.2
				c0.3-0.4,0.7-0.8,1-1.1c0.2,0.4,0.4,0.8,0.5,1.1c0.7-0.7,1.2-1.1,1.7-1.3c0.1,0.6,0.3,1.2,0.4,1.8c-0.3,0.1-1,0.4-1.7,1.2
				c-0.7,0.8-0.7,1.4-0.5,1.7c0.2,0.4,0.7,0.3,1.8-0.3c1.5-0.8,2.3-0.7,2.9,0.5c0.5,1.1,0.4,2.8-0.7,4.4c0.2,0.4,0.4,0.9,0.6,1.3
				c-0.3,0.4-0.7,0.8-1,1.2c-0.2-0.4-0.4-0.8-0.6-1.2c-0.7,0.7-1.5,1.2-2,1.4c-0.1-0.6-0.3-1.2-0.4-1.9c0.6-0.2,1.3-0.6,2-1.4
				c0.6-0.7,0.9-1.4,0.6-1.9C166.3,55.5,165.8,55.6,164.8,56.1z"/>
			<path class="st16" d="M140.5,53.6c3.4,7.1,6.8,14.2,10.1,21.3c18.2,4.9,20.6-23.4,38.8-18.4c-3.4-7.1-6.8-14.2-10.1-21.3
				C161.1,30.3,158.7,58.6,140.5,53.6z M174,36.3c0.2,0,0.3,0,0.5,0.1c0.2,0.1,0.3,0.2,0.3,0.3l0,0.1c0.5,1.1,2.2,1.9,3.5,1.9
				c0.2,0,0.4,0.1,0.5,0.2c0.2,0.1,0.3,0.3,0.4,0.4c2,4.1,3.9,8.2,5.9,12.3c0.1,0.1,0.1,0.3,0,0.3c-0.1,0.1-0.2,0.1-0.4,0.1
				c-0.2,0-0.3-0.1-0.4-0.1c-1.3-0.1-1.9,0.9-1.4,1.9c0.1,0.1,0.1,0.3,0.1,0.4c-0.1,0.1-0.2,0.2-0.3,0.3
				c-11.2,1.6-15.6,17.7-26.8,19.3c-0.1,0-0.3,0-0.5-0.1c-0.2-0.1-0.3-0.2-0.3-0.3c0,0-0.1-0.1-0.1-0.1c-0.5-1.1-2.2-1.9-3.5-1.9
				c-0.2,0-0.4-0.1-0.6-0.2c-0.2-0.1-0.4-0.2-0.4-0.4c-2-4.1-3.9-8.2-5.9-12.3c-0.1-0.1,0-0.3,0-0.3c0.1-0.1,0.3-0.1,0.4-0.1
				c1.5,0.3,2.3-0.7,1.8-1.9c-0.1-0.1-0.1-0.3-0.1-0.4c0.1-0.1,0.1-0.2,0.3-0.3C158.4,54,162.8,37.9,174,36.3z"/>
		</g>
		<g>
			<path class="st11" d="M155.4,68.9c0.2,1.1,1.4,2,2.5,1.8c1.1-0.2,1.8-1.5,1.6-2.6c-0.2-1.1-1.3-1.7-2.4-1.5
				C155.9,66.8,155.1,67.8,155.4,68.9z"/>
			<path class="st11" d="M180.6,58.7c1.1-0.3,1.9-1.2,1.7-2.3c-0.2-1.1-1.4-2-2.5-1.8c-1.1,0.2-1.8,1.5-1.6,2.6
				C178.4,58.3,179.5,58.9,180.6,58.7z"/>
			<path class="st11" d="M169.1,65.6c-0.8,0.6-1.6,0.8-2.3,0.8c0,0.6,0,1.3,0,1.9c0.6,0,1.4-0.3,2.3-0.9c0.1,0.4,0.2,0.9,0.3,1.3
				c0.4-0.3,0.8-0.6,1.3-0.9c-0.1-0.5-0.2-1-0.3-1.4c1.4-1.3,2-2.9,1.7-4.1c-0.3-1.3-1-1.7-2.7-1.2c-1.2,0.3-1.7,0.3-1.8-0.1
				c-0.1-0.4,0.1-1,0.9-1.6c0.9-0.6,1.6-0.7,2-0.8c0-0.6,0-1.2,0.1-1.9c-0.5,0.1-1.1,0.3-2,0.8c-0.1-0.4-0.2-0.8-0.3-1.2
				c-0.4,0.3-0.8,0.6-1.3,0.9c0.1,0.4,0.2,0.9,0.3,1.3c-1.3,1.2-1.9,2.7-1.6,4c0.3,1.4,1.4,1.4,2.8,1c1-0.3,1.5-0.3,1.6,0.3
				C170.2,64.4,169.8,65.1,169.1,65.6z"/>
			<path class="st11" d="M151.4,58.9c-0.2,0-0.3,0.1-0.3,0.2c-0.1,0.1-0.1,0.3-0.1,0.4c0.3,1.2-0.8,2-2.2,1.4
				c-0.2-0.1-0.3-0.1-0.4-0.1c-0.1,0-0.2,0.2-0.1,0.3c0.9,4.5,1.9,8.9,2.8,13.4c0,0.1,0.2,0.3,0.3,0.5c0.2,0.1,0.4,0.3,0.5,0.3
				c1.3,0.3,2.7,1.4,2.9,2.6c0,0,0,0.1,0,0.2c0,0.1,0.1,0.3,0.2,0.4c0.1,0.1,0.3,0.2,0.4,0.2c11.3,1.1,19.3-13.5,30.6-12.4
				c0.2,0,0.3-0.1,0.4-0.2c0.1-0.1,0.1-0.3,0-0.4c-0.2-1.1,0.6-1.9,1.8-1.5c0.1,0,0.2,0.1,0.4,0.2c0.2,0.1,0.3,0.1,0.4,0
				c0.1,0,0.1-0.2,0.1-0.3c-0.9-4.4-1.9-8.9-2.8-13.4c0-0.2-0.1-0.3-0.3-0.5c-0.2-0.1-0.3-0.3-0.5-0.3c-1.3-0.3-2.7-1.4-3-2.6l0-0.1
				c0-0.1-0.1-0.3-0.2-0.4c-0.1-0.1-0.3-0.2-0.4-0.2C170.8,45.4,162.7,60,151.4,58.9z M179.6,53.6c1.7-0.4,3.5,1.1,3.8,2.8
				c0.4,1.7-0.8,3-2.5,3.4c-1.7,0.4-3.3-0.4-3.7-2.1C176.8,55.9,177.9,53.9,179.6,53.6z M167.3,55.2c3.7-2.7,7.5-1,8.4,3.1
				c0.8,4.1-1.6,9.1-5.3,11.8c-3.7,2.7-7.5,1-8.4-3.1C161.1,62.9,163.6,57.9,167.3,55.2z M160.5,67.7c0.4,1.7-0.7,3.7-2.4,4
				c-1.7,0.4-3.5-1.1-3.8-2.8c-0.4-1.7,0.8-3,2.5-3.4C158.5,65.2,160.1,65.9,160.5,67.7z"/>
			<path class="st16" d="M154.3,68.9c0.4,1.7,2.1,3.2,3.8,2.8c1.7-0.4,2.7-2.4,2.4-4c-0.4-1.7-2-2.5-3.7-2.1
				C155.1,65.9,153.9,67.2,154.3,68.9z M159.5,68c0.2,1.1-0.5,2.4-1.6,2.6c-1.1,0.2-2.3-0.6-2.5-1.8c-0.2-1.1,0.5-2.1,1.7-2.3
				C158.1,66.3,159.2,66.9,159.5,68z"/>
			<path class="st16" d="M180.8,59.7c1.7-0.4,2.9-1.7,2.5-3.4c-0.4-1.7-2.1-3.2-3.8-2.8c-1.7,0.4-2.7,2.3-2.4,4
				C177.5,59.3,179.1,60.1,180.8,59.7z M179.8,54.6c1.1-0.2,2.3,0.6,2.5,1.8c0.2,1.1-0.5,2.1-1.7,2.3c-1.1,0.2-2.2-0.4-2.4-1.5
				C177.9,56.1,178.6,54.8,179.8,54.6z"/>
			<path class="st16" d="M170.4,70.1c3.7-2.7,6.1-7.7,5.3-11.8c-0.9-4.1-4.7-5.8-8.4-3.1c-3.7,2.7-6.1,7.7-5.3,11.8
				C162.8,71.1,166.7,72.8,170.4,70.1z M168.5,63.6c-1.5,0.5-2.5,0.4-2.8-1c-0.3-1.2,0.3-2.7,1.6-4c-0.1-0.4-0.2-0.9-0.3-1.3
				c0.4-0.3,0.8-0.6,1.3-0.9c0.1,0.4,0.2,0.8,0.3,1.2c0.8-0.6,1.5-0.7,2-0.8c0,0.6,0,1.2-0.1,1.9c-0.4,0-1,0.1-2,0.8
				c-0.8,0.6-1,1.2-0.9,1.6c0.1,0.4,0.6,0.4,1.8,0.1c1.6-0.5,2.4-0.1,2.7,1.2c0.3,1.2-0.3,2.8-1.7,4.1c0.1,0.5,0.2,1,0.3,1.4
				c-0.4,0.3-0.8,0.6-1.3,0.9c-0.1-0.5-0.2-0.9-0.3-1.3c-0.9,0.6-1.8,0.9-2.3,0.9c0-0.6,0-1.3,0-1.9c0.6,0,1.4-0.3,2.3-0.8
				c0.7-0.5,1.2-1.2,1.1-1.7C170,63.4,169.5,63.3,168.5,63.6z"/>
			<path class="st16" d="M145.4,55.5c1.6,7.7,3.2,15.4,4.8,23.1c16.5,9.1,25.5-17.8,42-8.8c-1.6-7.7-3.2-15.4-4.8-23.1
				C170.9,37.6,161.9,64.6,145.4,55.5z M182.1,46.5c0.2,0,0.3,0.1,0.4,0.2c0.1,0.1,0.2,0.3,0.2,0.4l0,0.1c0.3,1.2,1.7,2.3,3,2.6
				c0.2,0,0.3,0.1,0.5,0.3c0.1,0.1,0.3,0.3,0.3,0.5c0.9,4.4,1.9,8.9,2.8,13.4c0,0.2,0,0.3-0.1,0.3c-0.1,0-0.3,0-0.4,0
				c-0.2-0.1-0.3-0.1-0.4-0.2c-1.3-0.4-2.1,0.4-1.8,1.5c0,0.1,0,0.3,0,0.4c-0.1,0.1-0.2,0.2-0.4,0.2c-11.3-1.1-19.3,13.5-30.6,12.4
				c-0.1,0-0.3-0.1-0.4-0.2c-0.1-0.1-0.2-0.3-0.2-0.4c0,0,0-0.2,0-0.2c-0.3-1.2-1.7-2.3-2.9-2.6c-0.2,0-0.4-0.2-0.5-0.3
				c-0.1-0.1-0.3-0.3-0.3-0.5c-0.9-4.5-1.9-8.9-2.8-13.4c0-0.2,0-0.3,0.1-0.3c0.1,0,0.3,0,0.4,0.1c1.4,0.6,2.4-0.2,2.2-1.4
				c0-0.1,0-0.4,0.1-0.4c0.1-0.1,0.2-0.2,0.3-0.2C162.7,60,170.8,45.4,182.1,46.5z"/>
		</g>
	</g>
	<g>
		<path class="st6" d="M345.5,249.8c0,0.8-0.6,1.4-1.4,1.4l0,0c-0.8,0-1.4-0.6-1.4-1.4v-11.4c0-0.8,0.6-1.4,1.4-1.4l0,0
			c0.8,0,1.4,0.6,1.4,1.4V249.8z"/>
		<path class="st6" d="M349.8,242.7c0.8,0,1.4,0.6,1.4,1.4l0,0c0,0.8-0.6,1.4-1.4,1.4h-11.4c-0.8,0-1.4-0.6-1.4-1.4l0,0
			c0-0.8,0.6-1.4,1.4-1.4H349.8z"/>
	</g>
	<g>
		<path class="st6" d="M362.6,269.5c0,0.9-0.7,1.6-1.6,1.6l0,0c-0.9,0-1.6-0.7-1.6-1.6v-12.7c0-0.9,0.7-1.6,1.6-1.6l0,0
			c0.9,0,1.6,0.7,1.6,1.6V269.5z"/>
		<path class="st6" d="M367.4,261.5c0.9,0,1.6,0.7,1.6,1.6l0,0c0,0.9-0.7,1.6-1.6,1.6h-12.7c-0.9,0-1.6-0.7-1.6-1.6l0,0
			c0-0.9,0.7-1.6,1.6-1.6H367.4z"/>
	</g>
</g>
</svg>
