<?xml version="1.0" standalone="no"?>
<?xml-stylesheet type="text/css" media="screen" href="../css/style.css"?>

<svg
   class="grafico_modelos"
    xmlns="http://www.w3.org/2000/svg" version="1.1" viewBox="0 0 1100 486" xml:space="preserve">

    <text transform="matrix(1 0 0 1 76.6147 173.2236)">
        <tspan x="0" y="0" class="st0 st1">DESARROLLO DE</tspan>
        <tspan x="0" y="53.6" class="st2 st1">MODELOS</tspan>
        <tspan x="0" y="107.1" class="st2 st1">DE NEGOCIO</tspan>
    </text>
    <text transform="matrix(1 0 0 1 80.0005 311)" class="st3 st4">Lleva tu negocio a la dirección correcta, detecta su alcance real.</text>

	<rect id="phone" onclick="window.parent.slide_Servicios('modelos_Negocio');" x="80.9" y="341.6" class="st5" width="71.2" height="19.2"/>
   <text  transform="matrix(1 0 0 1 88.7866 355.1954)" class="st3 st6">LEER MÁS</text>
<!--
     <g id="phone" onclick="window.parent.slide_Servicios('modelos_Negocio');">
	<rect  x="80.9" y="341.6" class="st5" width="71.2" height="19.2"/>
   <text  transform="matrix(1 0 0 1 88.7866 355.1954)" class="st3 st6">LEER MÁS</text>
   </g> -->
    <rect x="558.8" y="107.7" transform="matrix(0.2806 0.9598 -0.9598 0.2806 739.0632 -533.765)" class="st7" width="333.5" height="236.9"/>
    <rect x="720" y="141.8" transform="matrix(0.9598 -0.2806 0.2806 0.9598 -10.4137 219.9036)" class="st8" width="85.5" height="9"/>
    <rect x="724.3" y="156.2" transform="matrix(0.9598 -0.2806 0.2806 0.9598 -14.2854 221.6552)" class="st9" width="85.5" height="9"/>
    <rect x="728.5" y="170.6" transform="matrix(0.9598 -0.2805 0.2805 0.9598 -18.1574 223.3916)" class="st9" width="85.5" height="9"/>
    <rect x="732.7" y="185" transform="matrix(0.9598 -0.2805 0.2805 0.9598 -22.0276 225.1553)" class="st9" width="85.5" height="9"/>
    <rect x="598.9" y="130.7" transform="matrix(0.9598 -0.2806 0.2806 0.9598 -9.8329 201.6497)" class="st9" width="201" height="9"/>
    <rect x="590.4" y="86.9" transform="matrix(0.9598 -0.2806 0.2806 0.9598 -2.0935 198.1194)" class="st8" width="201" height="39"/>
    <rect x="627.5" y="228.6" transform="matrix(0.9598 -0.2805 0.2805 0.9598 -36.1533 213.5919)" class="st9" width="201" height="9"/>
    <rect x="631.7" y="243" transform="matrix(0.9598 -0.2805 0.2805 0.9598 -40.0227 215.3353)" class="st9" width="201" height="9"/>
    <rect x="635.9" y="257.4" transform="matrix(0.9598 -0.2805 0.2805 0.9598 -43.8933 217.1047)" class="st9" width="201" height="9"/>
    <rect x="660.3" y="340.9" transform="matrix(0.9598 -0.2806 0.2806 0.9598 -66.3438 227.3291)" class="st9" width="201" height="9"/>
    <polygon class="st9" points="817 339.9 667.3 383.7 669.8 392.3 819.6 348.5 "/>
    <rect x="645.3" y="294.2" transform="matrix(0.9598 -0.2806 0.2806 0.9598 -55.2073 211.7666)" class="st8" width="133.5" height="9"/>
    <polygon class="st9" points="779 290 650.9 327.5 653.4 336.1 781.6 298.7 "/>
    <rect x="653.7" y="323" transform="matrix(0.9598 -0.2806 0.2806 0.9598 -62.9496 215.291)" class="st9" width="133.5" height="9"/>
    <rect x="793.6" y="263.3" transform="matrix(0.9598 -0.2806 0.2806 0.9598 -46.4121 241.3975)" class="st10" width="52.5" height="39"/>
    <rect x="617" y="183.8" transform="matrix(0.9598 -0.2805 0.2805 0.9598 -34.1632 183.0233)" class="st9" width="10.5" height="54"/>
    <rect x="631.4" y="179.6" transform="matrix(0.9597 -0.2809 0.2809 0.9597 -32.4115 187.134)" class="st9" width="10.5" height="54"/>
    <rect x="645.8" y="175.4" transform="matrix(0.9598 -0.2808 0.2808 0.9598 -30.6489 190.9579)" class="st9" width="10.5" height="54"/>
    <rect x="660.2" y="171.2" transform="matrix(0.9598 -0.2805 0.2805 0.9598 -28.8864 194.6332)" class="st9" width="10.5" height="54"/>
    <rect x="674.6" y="167" transform="matrix(0.9599 -0.2805 0.2805 0.9599 -27.1275 198.4931)" class="st9" width="10.5" height="54"/>
    <rect x="689" y="162.8" transform="matrix(0.9598 -0.2805 0.2805 0.9598 -25.3686 202.3825)" class="st9" width="10.5" height="54"/>
    <polygon class="st9" points="706.1 158.2 696 161.2 711.2 213 721.3 210 "/>
    <rect x="621.2" y="213.2" transform="matrix(0.9599 -0.2804 0.2804 0.9599 -38.0261 184.6647)" class="st10" width="10.5" height="24"/>
    <rect x="635" y="204.6" transform="matrix(0.9598 -0.2806 0.2806 0.9598 -35.6975 188.4676)" class="st10" width="10.5" height="28.5"/>
    <rect x="650.8" y="210.7" transform="matrix(0.9598 -0.2806 0.2806 0.9598 -35.2905 192.8934)" class="st10" width="10.5" height="18"/>
    <rect x="663.1" y="191.8" transform="matrix(0.9598 -0.2807 0.2807 0.9598 -31.5979 195.9964)" class="st10" width="10.5" height="33"/>
    <rect x="676.7" y="181.7" transform="matrix(0.9598 -0.2806 0.2806 0.9598 -29.0626 199.4215)" class="st10" width="10.5" height="39"/>
    <rect x="695.3" y="206.9" transform="matrix(0.9599 -0.2804 0.2804 0.9599 -31.1734 204.9468)" class="st10" width="10.5" height="9"/>
    <rect x="707.6" y="188" transform="matrix(0.9598 -0.2806 0.2806 0.9598 -27.4794 208.036)" class="st10" width="10.5" height="24"/>
    <path class="st11" d="M505.5 182.4l-51.6 71c-4.1 5.6-2.8 13.5 2.8 17.5l142 103.3c5.6 4.1 13.5 2.8 17.5-2.8l51.7-71c4.1-5.6 2.8-13.5-2.8-17.5L523 179.7C517.4 175.6 509.6 176.8 505.5 182.4z"/>
    <path class="st11" d="M647.5 285.7l-51.6 71L464 260.8c0 0 0 0 0 0l51.6-70.9c0 0 0 0 0 0L647.5 285.7z"/>
    <rect x="622.4" y="325.4" transform="matrix(0.5884 -0.8085 0.8085 0.5884 -5.6591 646.0474)" class="st12" width="18.8" height="6.3"/>
    <path class="st7" d="M464 260.8C464 260.8 464 260.8 464 260.8l131.8 95.9 51.6-71 -131.8-95.9c0 0 0 0 0 0L464 260.8z"/>
    <path class="st10" d="M558.7 244l-8.5-3.2c-0.9-0.3-2.3-0.2-3.1 0.2l-13.2 7.7c0 0 0 0 0 0l-2.1-1.5c-0.9-3.3-3.2-6.6-6.6-9.1l-2.8-2c-4.9-3.6-11.6-2.7-14.9 1.9l0 0 0 0 0 0c-3.4 4.6-2.1 11.2 2.7 14.8l2.8 2c3.4 2.5 7.3 3.7 10.7 3.5l2.1 1.5c0 0 0 0 0 0l-3.3 15c-0.2 0.9 0.1 2.3 0.7 3l5.6 7.1c0.6 0.7 1.5 0.7 2.1 0l14.2-19.6 0 0 14.2-19.6C559.9 245.2 559.6 244.3 558.7 244z"/>
    <rect x="536.8" y="272.3" transform="matrix(0.5884 -0.8086 0.8086 0.5884 6.3987 570.6679)" class="st9" width="53.8" height="13.5"/>
    <rect x="553.1" y="284.2" transform="matrix(0.5884 -0.8086 0.8086 0.5884 3.5001 588.7207)" class="st9" width="53.8" height="13.5"/>
    <rect x="582.7" y="296.3" transform="matrix(0.5884 -0.8086 0.8086 0.5884 0.3848 606.7773)" class="st9" width="26.9" height="13.5"/>
    <path class="st11" d="M569.5 305.4c1.1 0.8 1.4 2.4 0.6 3.5 -0.8 1.1-2.4 1.4-3.5 0.6 -1.1-0.8-1.4-2.4-0.6-3.5C566.8 304.8 568.3 304.6 569.5 305.4z"/>
    <path class="st11" d="M577.4 294.5c1.1 0.8 1.4 2.4 0.6 3.5 -0.8 1.1-2.4 1.4-3.5 0.6 -1.1-0.8-1.4-2.4-0.6-3.5C574.7 294 576.3 293.7 577.4 294.5z"/>
    <circle class="st11" cx="571.9" cy="302" r="2.5"/>
    <path class="st11" d="M581.3 289.1c1.1 0.8 1.4 2.4 0.6 3.5 -0.8 1.1-2.4 1.4-3.5 0.6 -1.1-0.8-1.4-2.4-0.6-3.5C578.6 288.5 580.2 288.3 581.3 289.1z"/>
    <path class="st11" d="M553.2 293.5c1.1 0.8 1.4 2.4 0.6 3.5 -0.8 1.1-2.4 1.4-3.5 0.6 -1.1-0.8-1.4-2.4-0.6-3.5C550.4 293 552 292.7 553.2 293.5z"/>
    <circle class="st11" cx="567.5" cy="273.8" r="2.5"/>
    <path class="st11" d="M561.1 282.7c1.1 0.8 1.4 2.4 0.6 3.5 -0.8 1.1-2.4 1.4-3.5 0.6 -1.1-0.8-1.4-2.4-0.6-3.5C558.4 282.1 559.9 281.8 561.1 282.7z"/>
    <path class="st11" d="M557.1 288.1c1.1 0.8 1.4 2.4 0.6 3.5 -0.8 1.1-2.4 1.4-3.5 0.6 -1.1-0.8-1.4-2.4-0.6-3.5C554.4 287.5 556 287.3 557.1 288.1z"/>
    <path class="st11" d="M565 277.2c1.1 0.8 1.4 2.4 0.6 3.5 -0.8 1.1-2.4 1.4-3.5 0.6 -1.1-0.8-1.4-2.4-0.6-3.5C562.3 276.7 563.9 276.4 565 277.2z"/>
    <rect x="589.5" y="300.9" transform="matrix(0.5883 -0.8087 0.8087 0.5883 0.5514 606.8896)" class="st13" width="13.5" height="4"/>
    <path class="st14" d="M505.5 182.4l-40.1 55.1 179.4 94.3 22.9-31.4c4.1-5.6 2.8-13.5-2.8-17.5L523 179.7C517.4 175.6 509.6 176.8 505.5 182.4z"/>
    <path class="st9" d="M192.7 60.8c3 10.7-3.2 21.9-13.9 24.9l-348.4 98.9c-10.7 3-23-2.9-26.1-13.6 0 0-57.7-203.3-60.7-213.6 -2.9-10.3 7.4-13.2 7.4-13.2l367.8-104.5c0 0 10.3-2.9 13.2 7.4C135-142.5 192.7 60.8 192.7 60.8z"/>
    <path class="st15" d="M134.7-143.6l-345.5 261.3c0 0-42.6-149.9-45.5-160.2 -2.9-10.3 7.4-13.2 7.4-13.2l367.8-104.5c0 0 10.3-2.9 13.2 7.4C135-142.5 134.7-143.6 134.7-143.6z"/>
    <rect x="-64.1" y="64.8" transform="matrix(0.962 -0.2732 0.2732 0.962 -25.511 1.0881)" class="st7" width="110.4" height="54.6"/>
    <rect x="2.1" y="-4.9" transform="matrix(0.962 -0.2731 0.2731 0.962 -0.9269 3.677)" class="st7" width="21.4" height="20.2"/>
    <rect x="28.3" y="-12.5" transform="matrix(0.962 -0.2732 0.2732 0.962 2.1765 10.7218)" class="st7" width="22.6" height="20.2"/>
    <rect x="56.3" y="-24.6" transform="matrix(0.962 -0.2732 0.2732 0.962 7.0628 21.8106)" class="st7" width="51.1" height="20.2"/>
    <rect x="-104.3" y="37.2" transform="matrix(0.962 -0.2732 0.2732 0.962 -14.5914 -7.8394)" class="st7" width="137.8" height="22.6"/>
    <rect x="36.1" y="13.7" transform="matrix(0.962 -0.2732 0.2732 0.962 -5.0174 13.8921)" class="st7" width="22.6" height="22.6"/>
    <rect x="64.7" y="5.6" transform="matrix(0.962 -0.2731 0.2731 0.962 -1.7155 21.382)" class="st7" width="22.6" height="22.6"/>
    <rect x="93.2" y="-2.4" transform="matrix(0.962 -0.2731 0.2731 0.962 1.5192 28.722)" class="st7" width="21.4" height="22.6"/>
    <rect x="148.1" y="416.4" transform="matrix(-0.9699 0.2433 -0.2433 -0.9699 714.4963 941.355)" class="st7" width="302.1" height="196.9"/>
    <rect x="318.7" y="433" transform="matrix(-0.9699 0.2433 -0.2433 -0.9699 823.463 807.4128)" class="st11" width="86.3" height="43.2"/>
    <rect x="172.2" y="469.7" transform="matrix(-0.9699 0.2434 -0.2434 -0.9699 543.788 915.4719)" class="st8" width="86.3" height="43.2"/>
    <rect x="267" y="470.2" transform="matrix(-0.9699 0.2434 -0.2434 -0.9699 683.6293 861.4391)" class="st8" width="43.2" height="5.4"/>
    <rect x="369.7" y="485.6" transform="matrix(-0.97 0.2433 -0.2433 -0.97 854.3231 887.3403)" class="st8" width="5.4" height="21.6"/>
    <rect x="331.5" y="462.8" transform="matrix(-0.97 0.2432 -0.2432 -0.97 783.8615 834.2529)" class="st7" width="17.9" height="5.4"/>
    <rect x="339.3" y="449.3" transform="matrix(-0.9699 0.2433 -0.2433 -0.9699 799.6221 805.1484)" class="st7" width="21.6" height="5.4"/>
    <rect x="373.3" y="451.9" transform="matrix(-0.9699 0.2434 -0.2434 -0.9699 867.2928 801.9416)" class="st7" width="21.6" height="5.4"/>
    <rect x="370.7" y="441.4" transform="matrix(-0.9699 0.2433 -0.2433 -0.9699 859.5585 781.9847)" class="st7" width="21.6" height="5.4"/>
    <rect x="359.4" y="456.2" transform="matrix(-0.97 0.2433 -0.2433 -0.97 833.8438 814.9112)" class="st7" width="14.5" height="5.4"/>
    <rect x="234.8" y="476.8" transform="matrix(-0.97 0.2433 -0.2433 -0.97 589.8348 886.2198)" class="st7" width="10.8" height="5.4"/>
    <rect x="213.7" y="480.8" transform="matrix(-0.9699 0.2434 -0.2434 -0.9699 559.9195 897.7588)" class="st7" width="21.6" height="5.4"/>
    <path class="st8" d="M108.4 463.6l42.1 167.7c-2.9-11.6 4.1-23.3 15.7-26.2l-31.5-125.8 -5.3-21 -5.3-21C112.5 440.3 105.5 452 108.4 463.6z"/>
    <path class="st7" d="M490.4 40.4c0.1-1.3-0.9-2.4-2.2-2.4l-48.1-2.2c-1.3-0.1-2.4 0.9-2.4 2.2l-2.1 46.8c-0.1 1.3 0.9 2.4 2.2 2.4l48.1 2.2c1.3 0.1 2.4-0.9 2.4-2.2L490.4 40.4z"/>
    <polygon class="st8" points="490.6 38 437.7 35.6 437.3 45.5 490.3 47.9 "/>
    <rect x="442.7" y="54.4" transform="matrix(0.999 4.487471e-02 -4.487471e-02 0.999 2.9795 -20.4072)" class="st8" width="26.7" height="3.5"/>
    <rect x="472.8" y="55.4" transform="matrix(0.999 4.476626e-02 -4.476626e-02 0.999 3.0375 -21.3427)" class="st8" width="10.4" height="3.5"/>
    <rect x="442.3" y="61" transform="matrix(0.999 4.483124e-02 -4.483124e-02 0.999 3.2907 -20.0274)" class="st8" width="11.6" height="4.6"/>
    <rect x="457.4" y="62" transform="matrix(0.999 4.488578e-02 -4.488578e-02 0.999 3.3619 -21.039)" class="st8" width="25.5" height="4.6"/>
    <rect x="442" y="69.8" transform="matrix(0.999 4.487248e-02 -4.487248e-02 0.999 3.6757 -20.6723)" class="st10" width="40.6" height="3.5"/>
    <rect x="441.7" y="76.5" transform="matrix(0.999 4.485961e-02 -4.485961e-02 0.999 3.9963 -20.41)" class="st10" width="30.2" height="4.6"/>
    <path class="st7" d="M414.8 9.7l2.7-3.5L414 3.5c-2-1.5-4.7-1.1-6.2 0.9l-11.1 14.6c-1.5 2-1.1 4.7 0.9 6.2l3.5 2.7 2.7-3.5L414.8 9.7z"/>
    <path class="st7" d="M421 8.8l-3.5-2.7 -2.7 3.5 -11.1 14.6 -2.7 3.5 3.5 2.7c2 1.5 4.7 1.1 6.2-0.9l11.1-14.6C423.4 13.1 423 10.3 421 8.8z"/>
    <path class="st11" d="M410.4 15.5l2.8-3.7 -7.4-5.6 -14.4 18.9c-1.6 2-1.2 5 0.9 6.5l3.7 2.8 2.8-3.7L410.4 15.5z"/>
    <path class="st12" d="M413.2 11.8l-2.8 3.7 -11.6 15.2 -2.8 3.7 3.7 2.8c2 1.6 5 1.2 6.5-0.9l14.4-18.9L413.2 11.8z"/>
    <rect x="644.6" y="153.5" transform="matrix(-0.1189 0.9929 -0.9929 -0.1189 1178.0299 -501.3401)" class="st7" width="333.6" height="237"/>
    <path class="st8" d="M786.4 132c-1.5-0.3-3-0.6-4.6-0.8 -5.5-0.7-10.9-0.4-16.1 0.6l9.9 50.6L786.4 132z"/>
    <path class="st13" d="M825.2 167.8c-5.2-17.7-19.8-31.8-38.7-35.8l-10.7 50.4L825.2 167.8z"/>
    <path class="st9" d="M765.8 131.8c-21.3 4.2-38.5 21.7-41.2 44.4 -2.9 24.5 11.9 47.1 34.3 54.8l16.9-48.7L765.8 131.8z"/>
    <path class="st11" d="M775.7 182.4l-16.9 48.7c3.4 1.2 7 2 10.7 2.5 28.3 3.4 53.9-16.8 57.3-45 0.9-7.2 0.2-14.2-1.7-20.7L775.7 182.4z"/>
    <rect x="705.6" y="315.1" transform="matrix(0.9929 0.1189 -0.1189 0.9929 43.7193 -93.5841)" class="st9" width="201.1" height="9"/>
    <rect x="707.3" y="300.2" transform="matrix(0.9929 0.1189 -0.1189 0.9929 41.9536 -93.89)" class="st9" width="201.1" height="9"/>
    <rect x="709.1" y="285.3" transform="matrix(0.9929 0.1189 -0.1189 0.9929 40.1965 -94.2113)" class="st9" width="201.1" height="9"/>
    <rect x="710.9" y="270.4" transform="matrix(0.9929 0.1189 -0.1189 0.9929 38.4406 -94.5357)" class="st9" width="201.1" height="9"/>
    <rect x="851.3" y="165.3" transform="matrix(0.9929 0.1188 -0.1188 0.9929 26.2339 -100.4491)" class="st13" width="9" height="9"/>
    <rect x="866" y="170.1" transform="matrix(0.9929 0.1189 -0.1189 0.9929 27.1092 -105.2117)" class="st9" width="58.5" height="9"/>
    <rect x="849.5" y="180.3" transform="matrix(0.9929 0.1188 -0.1188 0.9929 27.9998 -100.1564)" class="st9" width="9" height="9"/>
    <rect x="864.2" y="185" transform="matrix(0.9929 0.1189 -0.1189 0.9929 28.8775 -104.9206)" class="st9" width="58.5" height="9"/>
    <rect x="847.7" y="195.2" transform="matrix(0.9929 0.1189 -0.1189 0.9929 29.7948 -99.9406)" class="st8" width="9" height="9"/>
    <rect x="862.4" y="199.9" transform="matrix(0.9929 0.1189 -0.1189 0.9929 30.6228 -104.5629)" class="st9" width="58.5" height="9"/>
    <rect x="845.9" y="210.1" transform="matrix(0.9929 0.119 -0.119 0.9929 31.5712 -99.667)" class="st11" width="9" height="9"/>
    <rect x="860.7" y="214.8" transform="matrix(0.9929 0.1189 -0.1189 0.9929 32.3765 -104.2315)" class="st9" width="58.5" height="9"/>
    <polygon class="st9" points="785.5 327.7 705 318.1 704 327 784.4 336.6 "/>
    <polygon class="st9" points="901.1 371.8 887.5 367.3 872.3 374.7 857.7 388 848.1 377.2 830.1 371.6 817.9 382.5 806.8 385.8 793.9 374.5 782.8 376.4 771.6 387.9 761.9 378.5 750.4 387.1 741.4 382.5 732.5 390.3 715 395.1 696.8 386.6 695 401.5 894.7 425.4 "/>
    <polygon class="st10" points="898.8 391.1 884.5 392.6 868.9 403 862.6 397.6 851 404.2 841.3 396 831 390 823.2 391.9 811.1 401.3 803.1 391.4 794.7 392.7 790.3 389.4 782.3 399.7 767.4 392.8 756.2 400.5 746.6 394.2 738 398.7 725.9 395.6 714.6 398.1 705.3 395.3 695.6 397 695 401.5 894.7 425.4 "/>
    <polygon class="st16" points="998.4 185.5 938.3 381.1 935.7 389.6 944.2 392.3 1006.9 188.1 "/>
    <polygon class="st13" points="998.4 185.5 989.9 182.9 927.2 387 935.7 389.6 938.3 381.1 "/>
    <polygon class="st12" points="1008.9 151.5 1004.1 159.4 1008.4 160.7 "/>
    <polygon class="st7" points="1004.1 159.4 989.9 182.9 1006.9 188.1 1008.4 160.7 "/>
    <rect x="934.6" y="360.8" transform="matrix(0.9559 0.2938 -0.2938 0.9559 148.6127 -261.127)" class="st11" width="17.8" height="6.7"/>
</svg>
