<?xml version="1.0" standalone="no"?>
<?xml-stylesheet type="text/css" media="screen" href="../css/style.css"?>
<svg class="nuestra_mision" xmlns="http://www.w3.org/2000/svg" version="1.1" viewBox="0 0 26.9 26.9" xml:space="preserve">
    <path
        class="st0"
        d="M13.5 10.2c-1.8 0-3.3 1.5-3.3 3.3 0 1.8 1.5 3.3 3.3 3.3 1.8 0 3.3-1.5 3.3-3.3C16.8 11.7 15.3 10.2 13.5 10.2zM13.5 15.3c-1 0-1.8-0.8-1.8-1.8 0-1 0.8-1.8 1.8-1.8 1 0 1.8 0.8 1.8 1.8C15.3 14.5 14.5 15.3 13.5 15.3zM26.2 12.7h-1c-0.4-5.9-5.1-10.6-11-11v-1c0-0.4-0.3-0.7-0.7-0.7 -0.4 0-0.7 0.3-0.7 0.7v1c-5.9 0.4-10.6 5.1-11 11h-1c-0.4 0-0.7 0.3-0.7 0.7s0.3 0.7 0.7 0.7h1c0.4 5.9 5.1 10.6 11 11v1c0 0.4 0.3 0.7 0.7 0.7 0.4 0 0.7-0.3 0.7-0.7v-1c5.9-0.4 10.6-5.1 11-11h1c0.4 0 0.7-0.3 0.7-0.7S26.6 12.7 26.2 12.7zM23.7 12.7h-0.9c-0.4-4.6-4-8.2-8.6-8.6V3.2C19.3 3.6 23.3 7.6 23.7 12.7zM13.5 21.3c-4.3 0-7.9-3.5-7.9-7.9 0-4.3 3.5-7.9 7.9-7.9 4.3 0 7.9 3.5 7.9 7.9C21.3 17.8 17.8 21.3 13.5 21.3zM12.7 3.2v0.9c-4.6 0.4-8.2 4-8.6 8.6H3.2C3.6 7.6 7.6 3.6 12.7 3.2zM3.2 14.2h0.9c0.4 4.6 4 8.2 8.6 8.6v0.9C7.6 23.3 3.6 19.3 3.2 14.2zM14.2 23.7v-0.9c4.6-0.4 8.2-4 8.6-8.6h0.9C23.3 19.3 19.3 23.3 14.2 23.7z"/>
</svg>
